<svg xmlns="http://www.w3.org/2000/svg" viewBox="0 0 1000 500"><path fill="#006" d="M0 0h1000v500H0z"/><path fill="#BD1021" d="M0 250 1000 0v500L0 250z"/><path fill="#FFF" d="M107.14 250 1000 26.79v446.42"/><path d="M766.47 277.93c6.67.5 6.44 7.12 6.44 7.12l23.6.52c3.02-8.23 6.15-7.27 11.89-3.21a42.86 42.86 0 0 0 11.39 5.58c2.28-11.8 19.03-9.42 19.03-9.42 7.13-17.05 7.74-16.82 3.49-18.98a14.05 14.05 0 0 1-5.99-5.82c-4.04-4.87-6.16-11.92-6.62-16.24-.46-4.33-5.47 2.16-6.38.8-.91-1.37-8.35-.57-8.35-.57 1.82 1.93-4.4.8-4.4.8.6.45 0 2.27 0 2.27-.62-.8-5.33-1.6-5.33-1.6a9.39 9.39 0 0 1-1.52 2.16c-2.58-1.13-7.74-.9-7.74-.9-7.6-.12-12.15 2.27-14.28 3.52s-9.72 5.12-15.95 11.14-9.72 5.35-9.72 5.35c-1.83 6.7-16.71 14.89-16.71 14.89-2.43 2.16-9.88 3.18-13.67 0s0-8.87 0-8.87c1.4-2.66 2.8-2.55 2.95-11.77.1-6.23 6.54-11.18 13.15-18.43 8.08-8.86 19.37-23.45 19.37-23.45.05 4.48 2.5 5.2 2.5 5.2 2.22-4.56 5.41-8.22 5.41-8.22.18.38.63.64.63.64a33.33 33.33 0 0 1 4.05-4.78c-.86-.34-7.87 0-14.42 5.71-6.55 5.72-11.05 3.8-11.05 3.8-4.55-1.45-4.95-4.95-4.95-4.95-3.33-14.31 9.74-24.56 9.74-24.56-17.55-4.17-4.9-26.43 16.86-35.9s21.53-13.72 21.53-13.72c1.25 1.45 2.28 4 2.28 4 .23-.17 1.82-2.55 14.35-8.1 12.54-5.54 18.57-10.31 18.57-10.31 1.6 3.07 1.26 5.28 1.26 5.28 34.29-12.02 68.07-39.6 68.07-39.6.97 2.3.46 5.8.46 5.8 5.58-5.17 25.74-17.19 25.74-17.19.35 7.67-5.98 10.62-5.98 10.62a11.6 11.6 0 0 1 1.09 3.1c3.3-1.78 18.68-12.53 18.68-12.53 5.64 4.86.51 12.84.51 12.84 2-.3 3.48-2.05 3.48-2.05 1.42 8.27-7.75 15.56-7.75 15.56 1.6.05 4.27-1.53 4.27-1.53-1.7 9.04-18.85 19.06-18.85 19.06 2.5 2.21.11 5.15-1.94 6.48s-5.7 4.22-4.56 5.41 8.72-4.13 8.72-4.13c1.3 3.8-8.43 11.25-8.43 11.25 6.78.9 25.63-7.67 25.63-7.67-1.54 7.29-8.66 12.96-17.43 16.24-8.77 3.28-8.32 3.8-8.32 3.8 1.54 1.23 13.68-2.3 13.68-2.3-3.65 8.14-16.3 13.72-16.3 13.72 3.48 2.95 8.2-.47 12.93-3.7s11.17-6.02 18.29-8.4c7.12-2.4 12.13-.6 12.13-.6a15.34 15.34 0 0 1 10.94.77c11.4.93 12.53 5.07 12.53 5.07 1.25.3 2.22.81 5.13 2.94s2.73 8.74 2.62 11.98c-.12 3.24-1.03 3.24-1.6 4.14s-.62 1.92-.62 3.15-2.85 8.91-20.45 9c-17.6.08-26.68 0-26.68 0-1.45 0-3.2.85-3.2.85-7.4 3.67-3.49-2.5-12.3 4.75-8.8 7.25-13.29 6-13.29 6-1.44 1.73-10.67 10.31-15.95 13.73-5.28 3.4-4.33 3.1.27 5.08s11.54 0 11.54 0c-4.44 2.96-1.36 4.32-1.36 4.32 5.84-3.55 9.38-2.24 9.38-2.24 1.86 5.09-4.83 13.13-4.83 13.13 2.58.34 7.45 0 7.45 0-1.18 3.44-6.04 7.22-9.61 8.39-3.57 1.16-2.93 1.62-1.86 3.78s.15 4.34.15 4.34c-6.23-4.32-6.46-.45-6.46-.45-.72 5.12-.6 12.45-.6 12.45-4.41-2.22-4.64.74-4.64.74-1.14 4.66-6.53 10.06-6.53 10.06a4.17 4.17 0 0 0-2.89-3.64c-2.8 5.4-7.97 8.64-7.97 8.64-.68 4.66.6 11.2.6 11.2-3.34-.68-4.55-.62-5.08.17s.76 1.2.76 1.2l43.52 1.08c.6.05 3.19.34 3.26 5.06.08 4.71-3.8 4.94-3.8 4.94l-47.62-1.13s.23 1.3-2.27 2.61-1.68-1.48-2.36 4.38c-.68 5.85-10.18-.46-10.18-.46-1.52 2.28-5.24 5.23-5.24 5.23-2.13-6.42-4.33-8.41-7.75-2.84s6.16 4.6 6.16 4.6 55.9-8.24 58.94-8.52 6.38-.11 7.74 4.15-6.76 4.95-6.76 4.95l-57.34 6.25c-1.22 3.4-6 3.13-6 3.13.38 3.24-3.04 5.28-4.79 6.48-1.74 1.19-7.21.62-7.21.62-6.69 4.55-9.95.97-9.95.97-4.33 1.87-7.07 1.08-10.63-.46-3.57-1.53-3.27-5.85-3.27-5.85l-36.2 3.75a8.75 8.75 0 0 0-2.88 1.73c1.3 1.65-2.59 5.48-2.59 5.48 1.08.75 3.16 2.84 3.45 7.36.3 4.78-5.84 5.58-2.77 8.9s8.7.58 14.96-2.42 12.41-2.62 15.1-2.6c2.67.02 10.13 1.9 14.77 3.54 4.65 1.64 6.24.66 6.55-1.73s2.4-3.07 2.4-3.07c-.57 2.34.68 3.39.68 3.39 1.8.13 4.93-1.62 4.93-1.62-.29 1.73-2.56 2.81-2.56 2.81-4.56 3.05 1.7 1.92 1.7 1.92 12.48-2.56 16.92-2.3 20.17-1.96s18.57 6.87 18.57 6.87c.57-1.54.17-5.33.17-5.33 3.93 1.06 5.53 3.32 5.53 3.32 1.48-1.62.51-4.35.51-4.35 12.65 7.08-2.62 10.28-6.67 11.64-4.04 1.37-3.98 3.03-3.98 3.03a34.27 34.27 0 0 1 8.49-1.66c2.79-.22 1.82-.05 8.48-1.37 6.67-1.32 10.09 1.5 10.09 1.5-5.59.3-7.24 1.96-7.24 1.96 3.53 2.43.17 4.47.17 4.47-5.07-6.4-9.4.26-9.4.26 1.74-.26 6.84.8 8.3 1.73 1.12.7 3.75 2 7.03 3.51 4.62 2.14 3.76.77 7.35 2.13s2.22 4.82 2.22 4.82c-1.54-2.81-4.84-3.8-4.84-3.8-.29 3.8-4.1 4.44-4.1 4.44 4.67-5.2-5.42-7.46-10.15-7.38s-8.26 3.12-8.26 3.12c9.52 8.9 16.13 6 16.13 6-1.2 3.25-9.06 1.97-9.06 1.97 3.64 2.77 3.25 4.73 3.25 4.73-1.94-1.87-5.13-.93-11.97-5.37s-12.93-2.98-12.93-2.98c6.67 7.12-2.45 11.34-2.45 11.34-3.36 1.92 1.43 4.52 1.43 4.52-4.22.76-4.79-3.46-4.79-3.46-2.22-.42-5.4 2.26-5.4 2.26.22-4.34 5.91-2.17 6.09-6.69s-5.3-8.01-21.42-5.8-20.85-2.94-20.85-2.94c-1.37.04-1.65 1.4-1.65 1.4 2.67 2.57 3.87 3.63 3.41 5.42-.45 1.8.86 2.39.86 2.39-2.96-.17-3.2-3.7-3.2-3.7-.05 1.44-.68 1.57-1.64 3.1-.97 1.54-.06 3.5-.06 3.5-1.25-1.11-3.53-2.43-1.37-5.59 1.67-2.43-3.47-5.54-3.47-5.54-2-2.04-7.3-.13-7.3-.13-10.99 2.18-17.43-4.77-17.43-4.77-1.25 0-3.64-.68-3.64-.68-11.62 5.2-21.82-6.06-21.82-6.06-8.77 1.67-12.76-2.56-15.44-6.7-2.67-4.13-3.19-4.47-6.72-6.6s-6.83-8.16-3.59-11.34c2.83-2.77 2-3.41 2-3.41-4.56-7.66 8.12-10.13 8.35-11.96.33-2.68 2.98-4.37 5.83-4.54 2.85-.17 2.85.08 4.73-1.83 1.88-1.92 5.47.46 5.47.46.74-.55 7-5.41 12.59-2.9 5.58 2.52 10.2.73 10.2.73 3.93-.85 36.57-5.29 36.57-5.29 2.1-3.15 3.58-6.95 12.58-9 9-2.04 15.84-7.62 15.84-7.62-1.6-1.71-4.27-1.62-5.64-1.8-1.37-.17-4.21-2.6-4.21-2.6-1.66.73-2.5.37-14.3 7.55-10.54 6.4-10.84-6.31-10.84-6.31l-23 .04c-.4 4.86-4.1 6.78-4.1 6.78l-8.37.43c-4.67-2.48-4.73-10.7-4.73-10.7-25.3.38-39.36 9.42-39.36 9.42-28.66-14.67-51.1-18-51.1-18 34.8-3.79 53.2-13.47 53.2-13.47 19.2 11.51 37.26 11.81 37.26 11.81.68-6.95 5.35-8.65 5.35-8.65l5.3.29z"/><path d="M725.09 335.68c-7.27 4.26-5.96 6.6-5.33 7.9.65 1.34.73 2.62-1.25 4.6-1.97 2-1.78 2.69-1.78 2.69.3 7.07 5.3 8.57 7.4 10.3 1.74 1.46 4.71 6 4.71 6 3.72 5.35 7.67 5.4 10.6 5.4s2.66-.24 1.17-1.56a210.3 210.3 0 0 0-4.33-3.64c3.92 1.37 7.64 5.46 7.64 5.46 7.39 8.09 14.2 7.02 17.2 6.63s2.47-2.14 2.47-2.14c-.16-.29-3.08-.5-3.08-.5-11.09-1.06-14.43-8.34-14.43-8.34 6.68 6.57 17.17 7.9 20.4 7.78s3.03.8 2.35.98-1.67 0-3.15-.12-1.48.26-1.14.89 1.73.68 3.5.62.34.13 4.93 3.69c4.58 3.56 16 .68 16 .68-7.37-1.83-8.4-5.16-8.4-5.16-10.02 1.17-14.1-4.84-14.1-4.84-1.8-1.79-7.15-4.56-7.15-4.56-5.66-2.43-6.55-7.56-6.55-7.56 1.6 2.27 4.7 4.87 8.63 5.96s5.04 1.66 5.04 1.66c-1.88.28-2.99-.34-2.99-.34-3.93-1.15-1.7.45-1.7.45 4.32 3.45 5.52 3.2 5.52 3.2 11.36 1.17 5.73-3.37 5.73-3.37 8.08 1.92 9.42-1.1 9.42-1.1 1.68 3.55 7.8 2.27 7.8 2.27-8.14 3.92-1.96 2.8-1.96 2.8 8.23-1.54 9.85.56 9.85.56 2.23 2.07 4.48 1.78 4.48 1.78s1.48.04 4.61.67 7.92 3.3 12.48 2.73 5.3.87 5.3.87c-.86-.3-2.85-.6-6.38.98s-9.63 2.09-18.52 0-9.57-1.84-9.57-1.84c2.11 1.58 3.99 3.8 4.39 5.33s1.94 1.62 1.94 1.62c.62-1.96 3.3-2.81 3.3-2.81 1.75 1.62 6.44 3.75 6.44 3.75.5-1.07 0-1.81 0-1.81 3.41 3.26 7.4 2.28 7.4 2.28 1.08-.77.74-2.6.74-2.6 1.37-.05 1.6.8 2.56 1.45s4.05.21 4.05.21c-1.14-.47-1.94-2.22-1.94-2.22 4.5-3.1 14.24-1.74 14.24-1.74 7.04 1.23 6.15 5.84 6.15 5.84 1.43.68 3.3 2.81 3.3 2.81.6-1.62.07-3.26.07-3.26 3.21 1.53 3.9 5.29 3.9 5.29 3.73-4.27-3.56-9.06-3.56-9.06 3.53-.45 7.43-.13 9.8.2s5.75 1.59 8.51 3.89 7.72 3.37 7.72 3.37c-.15-.95-2.79-2.56-3.39-2.9s-.85-1.17-.85-1.17c2.42.42 4.1.2 4.1.2-8.52-5.2-10.65-7.66-10.65-7.66 3.19.4 4.95-1.58 4.95-1.58-6.72.15-6.95-1.6-6.95-1.6.83.23 3.88.98 7.9.19s9.6.02 9.6.02c-2.91-4.67-14.17-3.88-17.75-3.69s-4.99-.27-4.99-.27c.57-.28 1.17-.88 3.99-.9 2.82-.02 5.58.21 8.77-1.98s7.57-1.47 7.57-1.47c-1.06-2.1-6.12-2.84-10.56 0s-8.47 1.93-8.47 1.93c7.03-1 9.08-3.47 9.08-3.47-2.13-.51-3.3.17-7.52 1s-5.36-.63-5.36-.63c4.64-2.75 7.87-3.86 7.87-3.86-3.95-.83-7.6-2.51-7.6-2.51-4.1 3.85-7.29 6.03-15.15 1.9s-11.96-3.63-11.96-3.63c6.9-4.1 14.01-2.33 19.17.77s6.65.57 6.65.57c-1.63-1.03-1.4-1.9-1.4-1.9 12.53 6.39 17.96 2.4 20.73.53s-1.25-4.37-1.25-4.37c-.27 4.06-5.4 5.9-9.42 4.54s-7.75-3.1-13.54-5.51-13.04-1.17-19.8.26-7.64.73-8.24.2-.95-2.2-4.4-.77c-3.47 1.42-11.52-2.36-16.53-3.56s-13.22-.54-20.32 3.36-10.6 2.93-12.72 1.96-3.45-3.64-1.18-6.03 2.47-3.04 2.28-6.48c-.19-3.44-3.57-5.48-3.57-5.48 3.12-3.22 3.88-3.93 2.81-5.32-1.06-1.4.61-1.36 2.4-2.16s.98-.9.57-1.96c-.42-1.05-1.45-.88-1.45-.88-4.14.17-6.41-.97-6.41-.97-6.86-3.15-13.22 2.99-13.22 2.99-3.9-2.99-4.79-1.05-5.47-.32s-2.05 1.26-3.87 1.43c-1.66.15-4.17.8-5.04 2.35 0 0-.76 1.24.2 2.6 0 0 1.06 1.61-.88 3.55-1.94 1.94-2.62 2.4-2.02 4.24s.43 3.24-.31 4.44c0 0-.89-1.03-.66-2.28s.23-1.99-.06-2.67c0 0-1.9 1.88-2.25 3.22 0 0-.8-2.07 1.97-4.84s4.02-4.15 3.25-5.22c-.57-.8-2.6.49-3.08.77z" fill="#FFC221"/><path d="M732.94 366.24s-3.46-2.64-3.04-6.31.35-4.12-.03-4.89c0 0-.63.37-.61 1.8.01 1.33-.18 2.72-.3 2.98 0 0-1.8-3.05-2.51-3.61 0 0 .6-3.19-.38-4.55-1-1.37-1.95-1.45-3.08-1.03-1.57.6-2.75 2.05 2.52 6.37 0 0 1.96 1.56 3.33 5.03s3.65 4.01 4.1 4.21zm17.13-10.15s-.27-2.07 1.6-5.74.74-6.39.32-7.3-.67-.57 1.2-2.15c2.32-1.94-.88-4.38 2.92-7.78 0 0 2.5-2.15 3.07-3.03 0 0-4.02 2.16-6.64 3.24s-12.65 6-10.45 9.29 1.98 3.47 1.64 4.83c0 0-5.97-3.15-3.88-8.27 0 0 .95-2.06 3.46-4.38 2.28-2.1.9.46 5.54-2.19 0 0 3.69-2.19 5.62-5.14 0 0-2.43 1.53-3.3 1.79 0 0-5.36.97-7.52 3.24-2.17 2.27-6.76 6.22-5.2 10.63 0 0-5.36-.65-6.57-6.22 0 0-9.92 12.22 10.9 17.9 0 0 3.8 1.01 7.29 1.28z"/><path d="M841.6 315.23c7.78-1.18 52.82-7.98 56.91-8.4 4.49-.45 6.2-1.05 7.68 2.56 1.67 4.1-6.16 4.15-6.16 4.15l-53.7 6.09c-2.63.3-3.22-.7-3.22-.7-.46-.86-1.36-2-1.98-2.75 0 0-.7-.77.48-.95z" fill="#FFC221"/><path d="M731.61 339.66s-5.81 12.24 17.03 15.26c0 0 .06-1.36.97-3.28s2.9-5.8 1.02-8.31 1.54-1.2 2.06-4.48-.35-2.82 1.25-4.95c0 0-7.18 2.6-9.91 5.76-2.74 3.15 3.7 5.54-.12 9 0 0-3.19-1.16-5.07-4.61 0 0-4.44.09-7.23-4.39z" fill="#5A3719"/><path d="M753.94 354.69s5.64 4.88 12.36 4.67 9.57-2 11.28-4.67c0 0 1.3 2.06 1.31 3.43 0 0 5.81-4.82 15.84-.64s6.95 3.03 9.17 3.33c0 0-4.26-.76-14.02 3.7-10.02 4.6-36.17 3.03-35.94-9.82z"/><path d="M744.6 333.1s2.53.38 5.07-2.48c0 0-3.42.64-5.07 2.48zm-19.16 22.72s-4.71-3.7-1.7-4.43c0 0 2.16-.34 1.7 4.43z" fill="#5A3719"/><path d="M828.05 379.02s2.5-4.48 9.74-4.48 8.09 3.32 17.2 3.96c0 0-10.94 3.09-18.57.26-3.98-1.48-7.57-.25-8.37.26z"/><path d="M756.45 357.95s10.82 6.57 20.45-.55c0 0 .8.77 1.48 2.51 0 0 7.29-7.03 20.33.56 0 0-1.6-.18-7.74 2.47-8 3.45-28.03 5.71-34.52-4.99z" fill="#5A3719"/><path d="M798.2 364.6s10.37 1.2 19.14.69c5.39-.32 11.22-1.31 8.32.52-2.9 1.82-1.48 2 10.93.84s-.11 2.35 8.44 3.45c0 0-20.71 10.58-46.83-5.5z"/><path d="M825.43 358s6.1-2.22 11.73.42c5.64 2.64 4.79 2.86 8.55 3.24 0 0-2.62 3.75-8.83.73-6.21-3.03-7.86-3.61-11.45-4.4zm6.78 18.71s5.98-2.98 12.59.12c.83.39 2.63 1.14 4.33 1.5 0 0-5.07 1.57-10.26-.04a36.79 36.79 0 0 0-6.66-1.58zm-29.57-10.7s13.33 1.24 20.57-.2c0 0-8.38 4.04 12.64 2.16 0 0 4.67-.51 4.1.21s-.9 1.28 1.37 1.97c0 0-15.6 6.99-38.68-4.14z" fill="#5A3719"/><path d="M736.05 354.69s.11 1.02 3.08 2.35 4.55 3.68 5.18 4.96 2.14 3.2 4.59 3.8c0 0-10.45 2.19-15.14-3.25 0 0-3.55-3.92 2.18-7.86"/><path d="M818.31 378.8s-4.16-.26-9.8-2.22c-5.64-1.96-7.12-.3-10.3-2.68-3.2-2.4-9.64-.9-10.83-.73-1.2.17-4.61 0-.34-2.77 0 0-3.42-.08-4.73-1.79 0 0-1.54 1.5-7.3.94 0 0 2.57 4.02-7.74 2.86 0 0 3.08 3.58 6.78 4.3s5.25.49 7.63-.21c0 0-.68 3.11 4.1 4.3s5.76 2.14 8.2 3.12c0 0 .35-2-6.03-6.66 0 0 3.42-.17 8.32 1.03s16 4.05 22.04.51zm2.58 4.78s1.03 2.38 4.18 1.84 8.33-1.46 13.35 1.1c0 0 .85-4.27-9.21-4.56 0 0-6.3.34-8.32 1.62zm-85.22-27.38s-3.87 3.19-.36 6.5c3.21 3.02 8.17 2.75 10.54 2.67 0 0-1.42-.81-2.68-2.69s-1.3-3.14-3.93-4.34c-2.73-1.25-3.05-1.58-3.57-2.14zm-4.06-16.54s-5.81 12.24 17.03 15.26c0 0 .06-1.36.97-3.28s2.9-5.8 1.02-8.31 1.54-1.2 2.06-4.48-.35-2.81 1.25-4.95c0 0-7.18 2.6-9.91 5.76-2.74 3.15 3.7 5.54-.12 9 0 0-3.19-1.16-5.07-4.6 0 0-4.44.08-7.23-4.4z" fill="#5A3719"/><path d="M791.65 367.89s4.79-.77 16.98 3.8 17.26 3.4 19.08 3.28c0 0-6.88 3.59-17.53-1.1-9.41-4.15-10.04-2.57-18.53-5.98z"/><path d="M867.96 365.16s2.78-.1 4.4.67c0 0 1.07-.91 3.61-1.18 0 0-1.67-1.68-8 .5zm-8.33-6.75s2.79-.13 3.62-1.47c0 0-1.4-1.79-3.55-2.64 0 0 .44 1.9-.07 4.1zm-93.67-31.16s-.51-1.36 2.4-1.79l40.87-5.84s2.01 0 2.3 1.32c.3 1.44-.23 2.5-9.4 3.58s-33.38 4.1-33.38 4.1-2.56.43-2.8-1.37z" fill="#FFC221"/><path d="M803 325.62s0 5.37 5.47 6.17c5.3.77 7.13-.33 8.55-3.13.37-.73 2-6.34-.36-6.77a7.52 7.52 0 0 0-3.74.43c-1.83.78-3.53 1.7-2.93 2.62 1.3 1.96 1.55 2.41 1.07 2.56-1.32.38-2.28-.77-2.55-1.57-.33-1 .73-1.63-2.85-1.1-1.46.21-2.66.17-2.66.8z" fill="#FFC221"/><path d="M825.75 321.5c2.8.31 2.58 6.22-.76 8.9-3.6 2.87-7.03 1.84-7.03 1.84-1.82-.76-1.59-.5-.18-2.64 1.33-2.02 1.95-4.73 1.21-6.62-.24-.6.42-1.1 1.35-1.3 0 0 2.53-.52 5.41-.19z" fill="#FFC221"/><path d="M828.18 322.01s2 2.51-.5 7.14c0 0-1.1 1.36 1.38 1.16s7.97-2.84 7.4-6.22c0 0-.19-.83-1.63-.74-1.45.08-.27-.8.34-.97s2.49-.87-2.4-4c0 0-.8-.73-1.74-.43-.74.23-3.34 1.3-3.34 2.81 0 .62.5 1.25.5 1.25z" fill="#FFC221"/><path d="M833.52 317.76s3.9 2.8 3.87 3.62c-.02.83-.36 1.95.67 1.85 1.02-.1 5.24-1 4.08-3.78-1.16-2.78-2.32-3.76-4.27-4.44-1.96-.69-2.45.24-4.12 1.5 0 0-1.22.74-.23 1.25zm-21.06 3.94s.65-2.08-2.85-2.84c0 0 1.48-1.23 4.45-.57 2.94.65 2.62 2.59 2.6 2.84 0 0-2.3-.09-4.2.57zm7.6-.48s4.04-.71 5.84-.49c0 0-1.99-4.46-7.38-2.94 0 0 1.93 2.19 1.54 3.42zm6.93-1.11s0-1.37 3.43-2.73c0 0-1.66-1.57-3.98-1.42-2.66.17-3.2 1.13-3.2 1.13s2.9 1 3.75 3.02zm1.34-4.66s2.13.54 3.46 1.67c0 0 2.02-2.2 3.72-2.67 0 0-3.34-1.8-7.18 1z" fill="#FFC221"/><path d="M716.51 304.7s9.39-7.95 14.64-7c5.26.97 2.62.3 8.38-.59 5.75-.9 11.68-1.49 14.07-1.2 0 0-6.95-4.98-19.37-4.9 0 0-8.77 3.03-14.81 7.04 0 0-11.62-6.48-23.64-2.6 0 0 13.04 4.73 20.73 9.25z" fill="#5A3719"/><path d="m816.29 318.47 1.56-.26s2.65 3.27.72 3.31c-1.5.03-.89-.46-1.17-1.41a3.08 3.08 0 0 0-1.11-1.64zm-11.8.26s-.94 1.17.83.9c2.15-.34 1.74.06 4.1-1.54 0 0 1.45-1.54 4.16-.58 0 0 2.28.75 4.13-.15s2.28-.83 3.27-.74c1 .08.93.3 2.26-.67 1.33-.97 3.64-.23 5.1-1.44 1.45-1.22 3.27-.2 0-2.54 0 0-.69-.68-.63-1.26 0 0 1.25.36 2.25 1.26s2.65.62 2.93.47c0 0 .17-2.92 3.08-5.6 2.9-2.7 2.93-2.9 1.22-2.93-1.7-.02-4.58-.68-5.55 0s-9.49 6.27-14.44 7.2c-4.96.94-9.52 2.35-12.7 7.62zm-132.24-30.56s15.21 3.92 18.63 5.57c0 0 .82-2.54-6.1-4.53 0 0 16.79-.51 34.56 7.56 0 0 8.57-7.35 36.14-5.07 0 0 .05-2.44.24-4.3 0 0-19.36-.58-37.14-11.38 0 0-15.9 7.83-46.33 12.15zm84.54 7.35c-1.07-15.55 4.9-16.94 4.9-16.94s2.8.02 5.84.48c0 0-4.7 5.6-3.45 16.72 0 0 .5 1.79-3.5 1.79-3.92 0-3.8-2.05-3.8-2.05z" fill="#FFC221"/><path d="M760.85 305.81s-2.89-2.96-3.19-6.37c0 0-.08-.88 2.85-.8s3.3-.27 4.02 1.43c.7 1.65 2.55 5.14 3 5.54l-6.68.2z" fill="#5A3719"/><path d="M767.1 298.05a36.97 36.97 0 0 1-.33-5.91c.2-8.67 1.63-7.9 2.2-6.82l2.97.05s-2.17-9.77-4.7-4.06c-2.5 5.61-2.33 9.26-2.02 13.7.17 2.55.51 4.14.8 5.1l1.08-2.06z" fill="#FFC221"/><path d="M800.6 298.07s5.72.88-3.06 2.96c0 0 .43 10.6 10.8 3.18 0 0 6.12-3.91 10.37-5.5 0 0 2.13-.75 1.88-2.34 0 0 .17-1.89-2.05-1.52 0 0-1.75.04-2.88-.37 0 0-1.23-1.44-2.05-.89s-2.77.24-1.26 2.07c1.51 1.83 1.97 1.36 2.71.83.74-.53 4.02-1.83 1 .88s-5.39-1.5-6.35-2.26l-9.12 2.96zm-28.66 1.2-2.54-.05s-1.37 2.04-2.3-1.17l-1.08 2.06s3.15 11.38 5.92-.84z" fill="#5A3719"/><path d="M768.33 286.14s-1.29 7.45.34 12.05l27.54.51s-.35-5.34.07-12.56h-3.9s-.54 6-.05 9.7h-.64s-.5-5.18.04-9.7h-3.23s-.53 5.54-.12 9.75h-.6s-.46-4.86.07-9.75h-3.19s-.58 5.02.04 9.68l-.76-.01s-.64-5.1.04-9.67h-3.53s-.88 4.7-.04 9.72h-.72s-.8-4.8.07-9.72h-3.53s-.83 5.32-.11 9.72h-.69s-.57-5.14.2-9.72h-3.31s-.87 4.5-.15 9.72h-.72s-.54-3.9.15-9.72h-3.27zm29.1 13.59s-.77-13.48 1.82-16.94c2.58-3.47 3.1-2.79 7.51 0 4.4 2.78 10.1 5.8 11.02 6.14.9.34 2.2.68 2.2 3.12s.46 3.19-3.34.12c-.57-.46-2.35-2.09-3.63-2.5-3.4-1.08.82.76 2.03 2.5 1.03 1.46 1.83 1.3-.83 1.99s-11.85 3.75-16.79 5.57z" fill="#FFC221"/><path d="M807.06 290.08s-2-2.52.54-3.1 2.73 4 3.16 6.74c.43 2.75-3.19-2.78-3.7-3.64zm-3.7 11.74s-2.96 1.09-1.03 2.05 7.4-3.58 5.53-3.29c-1.88.3-4.5 1.24-4.5 1.24zm4.01-4.15s2.62-.26 2.11.87c-.51 1.13-1.45.41-1.85.16-.4-.25-2.25-.89-.26-1.03z"/><path d="M821.33 294.14s.7 5.13 5.1 6.43c0 0 2.55.63 2.02-1.61 0 0-.44-1.88-.8-2.66-.36-.78-2.13-1.28-2.32-1.36s-.41-.63.8-.23c1.22.4 1.4.44 1.31-.41-.1-.85-.8-.51-1.92-1.06-.43-.2.04-.5.5-.4.45.1 1.54.44 1.56-1.33 0 0 .24-.98-1.1-1.05-1.47-.08-1.35-.73-.9-.83.46-.1 1.99.96 2.41-.78.44-1.8-2.1-.76-1.76-1.69s2.14.53 2.3-.56c.14-1.07 1.6-1.53-.89-1.88-1.17-.16-.09-.68 1.24-.5 1.41.2 2.27-1.55 3.08-2.12.82-.56 5.43-3.32-.72-2.41-6.15.9-7.95 3.9-8.35 4.49-.4.6-2.11 4.12-1.56 9.96z" fill="#FFC221"/><path d="M835.66 298.12c.8-.15 1.54.06 1.8.61 1.02 2.08-1.3 1.34-2.6 2.87s-1.32 1.22-3.15.69c-1.82-.54-2.5-3.3-2.5-3.3-.2-.85.58-.92 1.53-.82 0 0 3.02.31 4.92-.05zm-6.66-1.1s.13.61 1.17.7c1.04.08 4.08.35 5.88-.24 0 0 .67-.13.37-1.3 0 0-.03-.76-1.65-.45s-3.97 0-4.76-.17c-.78-.17-1.42.01-1.01 1.45zm-.25-3.73s-.06 1.62 1.58 1.83c1.63.22 3.66.2 4.51.04.65-.13 1.81-.36 1.9-1.32.1-.95.37-1.66-1.65-1.16-2 .5-4.44.17-4.69.11-.24-.06-1.61-.47-1.65.5zm.74-3.27s-.4.74-.34 1.45 1.23.95 3.36.98 4.03-.28 4.16-1c.13-.7.65-1.53-1.02-1.27-1.68.25-3.78.32-4.62-.02-.84-.34-1.4-.46-1.54-.14z" fill="#FFC221"/><path d="M907.57 298.26s-.03 1.48 1.14 2.94l-59.03-1.69s.86-.53 1.08-2.83l56.81 1.58z" fill="#5A3719"/><path d="M829.97 287.58s-.52 1.49.55 1.79c1.06.3 2.88.62 5.3.24 0 0 1.21.08 1.63-1.2s.37-.58-3.06-1.26c0 0-1.08-.31 2.05-.33 0 0 1.75.06 2.02-.24.26-.3 2.58-2.13-.42-2.02-3 .12-1.52-.52 0-.52s2 .31 2.49-.17c.49-.49.03-.16-.78-.98-.82-.83-.25-.59.34-.13s.95.6 1.61.01c.67-.58-.51-1.43 0-1.33.52.1.76 1.07 2.7.13s4.56-.45 5.27.09c.7.53 2.73 1.21 3.96-.05s-1.46-2.28-.32-2.45 1.94.23 2.4-.68c.45-.92-1.77-1.8.37-2.37 2.13-.57.34-6.56-.4-7.12 0 0-2.4 1.4-5.02 5.65s-4.15 6.72-7.71 5.42c-5.14-1.88-7.77.82-8.56 1.3-1.23.76 2.57 1.13.35 1.17-2.22.04-2.22.23-2.45.57-.22.35-.02.64.37.67.4.02 1.26.87-.11.83-1.37-.05-2.34-.26-1.93 1.2 0 0 .02.31.82.4.8.08 1.08.91-.4.91-.95 0-1.04.37-1.07.47zm5.46 14.8s-1.06.74.4.83 2.22.36 2.67-.42c.46-.78 2.42-.46 1.11-1.54-1.3-1.09-2.19-.47-4.18 1.13z" fill="#FFC221"/><path d="M841.52 284.62s4.92-4.63 9.02-1.5 4.5 3.61 4.57 3.67.48.41-.63 1.4-.03.95 1.2.35 1.3-.04 1.9.62 1.4 1.05-.5 1.07-5.96 0-5.96 0-2.76.23-1.37-.9c1.4-1.13 1.2-2.47.49-2.56s-.06.69-.49 1.22-1.4 1.02-2.36 1-1.83.7-.29 1.26c1.54.55-.17.92-.97.9s-4.64.3-.74.76c3.9.47-.35.36 2.51 2 3.16 1.8.88 5.63-.31 5.97 0 0-1.31.72.34.52 1.65-.2 2.56-.43 1.4.46-1.17.9-3.5 3.88-6.75 1.6 0 0-1.49-.7 1.16-.83s-2.16-.7-2.96-1.23-3.84-3.65-1.94-3.27 1.23-.72.09-1.13-1.37-2.15-.09-1.76 2.8 1.1 3.82 1.05c1.03-.05.74-.48-1.45-1.16-2.2-.68-3.1-.79-2.6-2.64s2.91.72 2.34-.67-2.65-.7-1.54-2.53c1.12-1.84 1.37-1.05 1.88-.81s1.34.06-.11-1.03c-.91-.68.08-1.6.34-1.83z" fill="#FFC221"/><path d="M845.05 285.9s-.03-.62.86-.51c.88.1.65-.32.9-.45s2.47.66.4 1.4c-.76.28-1.96.09-2.16-.44z"/><path d="M849.75 291.14s-1.66.85-.15 2.6c1.28 1.48 1.27 1.95 1.16 2.94-.1.98 56.81 1.58 56.81 1.58s-.1-3.65 2.34-5.71l-60.16-1.4z" fill="#FFC221"/><path d="M908.54 297.26s.23-3.08 1.94-4.1c.94-.57 2.18-.24 2.72 2.25.77 3.53-2.23 6.54-3.62 5.2-1.33-1.28-1.04-3.35-1.04-3.35z" fill="#5A3719"/><path d="M843.32 310.56s3.79-3.22 4.36-4.67c0 0 10.25 7.27 9.63.6 0 0 .02-1.8.3-3.5 0 0 3.71.37 4.28-2.6l-9.57-.28s-1-.2-2.48 1.39-4.53 3.35-7.38 1.82c0 0-1.19-1.03-2.4-.16s-1.27 1.13-.27 2.07 3.13 3.82 3.53 5.33zm22.02-20.06-5.61-.21s-2.05-2.88-6.04-6.08c0 0-1.17-.51 1.08-2.3 2.25-1.8 2.9-3.71 3-4.58s-.15-2.24.7-1.2c.86 1.05 6.67 6.3 7.5 4.73s.96-2.28 1.1-2.75.35-1.91 1.17-.4 1.4 1.13 1.43 5.05c0 0 .14 3.88.74 5.29 0 0-7.35-2.36-5.07 2.45zm-24.36-11.94s4.28 2.39 6.38-.85c2.11-3.24 3.54-3.75 1.94-6.86s.05-4.57 1.25-5.85 2.23-1.06 2.4-6 3.59-6.62 5.12-8.15 5.42-3.88-.45-4.86c-5.87-.98-17.49-4-20.5-8.53s-4.4-1.83-4.45-1.66c-.06.17-1.03 3.5 2 9.5s5.57 9.88 8.48 11.83c2.9 1.95 5.53 3.01 4.04 7.02-1.48 4-4.04 11.17-6.2 14.41z" fill="#7B3C20"/><path d="M856.76 265.78s.74 10.28 8.26 13.94c0 0 1.7-4 1.02-7.97 0 0 2.45.21 3.14 1.32 0 0 .11-2.98-3.42-4.07-3.53-1.09-1.82-7.78-.57-8.55s.85-2.1 0-3.31-1.08-3.04 1.88-2.27 2.5-.81.74-2.26-1.7-3.24.8-3.24 6.66-2.43 4.16-3.2c-2.51-.77-3.3-1.58.11-2.56s5.07-2.22 2.5-2.52c-2.56-.3-4.27-1.19-1.76-1.62s-.46-2.98-3.36-3.1-9.17 1.06-4.22-2.9-7.12-1.07-2.16-3.67-1.65-1.45-2.56-1.5-.9 0-.57-1.32c.34-1.32-.69-1.92-2.11-1.1s-1.43.8-1.37-1.03-1.7-.47-2.79 0-3.82 2.52-4.9 1.4-1.7-2.25-5.07-.2c-3.36 2.04-2.56.2-2.5-.69s1.3-4.43-3.3-.64c-4.62 3.8-.86-4.09-4.5-1.4s-4.05 3.15-4.62 1.96-1.26-2.18-5.28.38-1.05-1.53-.48-2.43 2.28-6.7-1.25-2.17c0 0-1.7 3.15-5.53-2.48 0 0-4.04 5.6-5.07 3.12-1.02-2.48-2.05-2.73-3.36-1.11s-.34-.09-.9-1.45-.92-3.88-7.64 1.02 2.33 1.32-2.8 3.54-17.48 9.2-6.14 7.59-5.53 4.43-1.6 5.54 2.68 4.52 17.43.47 12.36-.64 19.88-3.88-1.7 1.11 8.38.9c10.08-.22 1.7.04 3.64 2.13s10.48 7.03 18.46 7.84 9.91-2.17 7.63 1.28-3.08 4.78-4.44 5.97-5.13 3.92-5.19 8.7c-.05 4.77-6.26 5.54-3.98 10.83a600.8 600.8 0 0 0 5.41-5.29z" fill="#5A3719"/><path d="M869.88 277.27s-1.82-1.28-1.78-3.55c0 0 1.29.22 1.78 1.05 0 0 4.6-5.2-.9-7.08-5.48-1.87-2.75-6.85-.89-6.88s2.19-.54.62-2.61-1.45-2.16 1.66-2.7 2.7-1.2 1.31-1.96c-1.38-.77-2.44-2.02-2.44-2.02s8.8-3.84 5.95-5.6 0-1.3 2.55-3.13c2.54-1.82 2.88-2.16 3.26-2.87 0 0-2.51.26-4.37-.11 0 0 2.2-1.08 0-2.87-2.2-1.8-3.1-3.41-6.6-2.59s-2.36-.34-.99-1.8c1.37-1.44.72-2.27-1.74-2.63 0 0 .3-1.48 2.16-3.33 0 0-4.75.34-6.34-.48 0 0 1.9-1.31 2.05-2.87 0 0-2.62.85-5.92.54 0 0 1.93-1.68 1.93-3.16 0 0-5.73 1.28-8.39 3.3 0 0-.57-.12-1.02-.74-.46-.63-.8-1.25-7.14.77 0 0 .72-2.82 2.24-3.96s1.29-3.4-8.59 2.76c0 0-1.33-.8-2.43-3.75 0 0-2.12 3.01-3.76 4.04 0 0-1.36.57-1.2-1.35s-.96-.55-1.99 0c-1.02.55-1.7 1.91-1.2-1.97s-1.36-4.69-1.36-4.69-3.08 4.35-4.84 4.82c0 0-3.25-3.15-4.39-5.24s-1.14-2.86-2.28.77c-1.14 3.62-2.56 3.92-2.56 3.92s-1.94-1.67-2.16-2.56c0 0-.35.98-.97 1.4 0 0-1.71-2-1.65-4.9 0 0-10.6 5.84-11.91 9.38 0 0-10.03-.6-14.18.17 0 0 1.02-3.24 3.64-4.86 0 0-2.62-.3-2.73-2.98 0 0 2.1.3 3.42-.04s-1.83-4.14 1.48-4.22 5.4 1.57 3.93-2.82c-1.48-4.39-.8-4.39-.8-4.39s5.75 3.41 6.67 2.56-.75-2.69 4.38-1.83 3.7-2.1 5.7-2.22c2-.13 3.07 1.28 1.82-8.02s6.2 4.61 1.14-9.42c0 0-1.28-4.24-4.33-6.05 0 0-.68 3.07-4.13.36s-10.22-3.67-7.38-5.8c2.85-2.13 4.19-4.99 3.36-6.78 0 0-3.35 3.51-9.2 1-4.61-1.98-5.58 1.67-10.3.6 0 0 .08-1.21 4.07-4.35s-2.31 1.05-4.79 1.6-3.19.11 2.05-3.94 15.61-11.21 14.19-17.1c0 0 2.45 3.11 8.88.85s11.23-3.07 13.16-6.39c1.94-3.33 7-6.7 8.32-7.42s3.08-1.24 1.08 1.92-5.24 8.57-14.13 12.24c-8.88 3.66-12.3 6.35-13.9 8.27-1.59 1.92-9.68 6.22-4.44 5.5s14.36.12 10.09-1.11c-4.28-1.24-9.12.76-5.19-2.82s4.62-4.77 10.31-7.16 12.02-7.84 11.4-2.05c-.63 5.8-11.23 11.98-13.85 13.86-2.62 1.88-1.65 1.58-1.6 2.34s-.4 2.35-1.47 3.07-.74 1.54-.46 3.16-.28 2.26.51 2.51 1.6.39 1.83 1.54.82 1.3 2.36 1.17 2.5.02 2.62.92c.11.9 1.57 2.1 1.74-.62.17-2.73 1.17-3.26-1.63-2s-3.38.8-3.33-.5-.25-1-1.42-1.1-1.57-1.75.51-2.84c2.08-1.08 2.05.02 4.64-2.13s2.6-2.75 3-3.75-3.7 2.92-5.67 3.81-1.46-.61-1.11-2.85 5.24-5.16 7.49-5.2 7.32 1.27 5.12 4.34-8.4 6.72-5.72 7 3.1-.77 4.64.6.12 4.13-.6 5.6-2.19 3.33-2.84 3.67c0 0-2.82-5.03-2.74-1.05s-.6 5.42 0 5.57 3.73 2.23 4.73 2.28-5.41 3-2.73 3.2c2.67.19 6.92-1.18 8.4-3.95 0 0-5.44-1.32-7.63-3.37 0 0 6.35-1.49 4.58-7.6 0 0 6.32 1.72 3.59 4.58-2.73 2.85-4.39 2.43-2.02 3.24s3.53 1.49 3.53 1.49 1.62.8.68 2.13-.96 3.33-.17 3.28 3.48-1.28 1.23-2.64 2.56-1.13.51-2.28-2.6-1.43-3.13-1.98c-.54-.56 25.75-15.97 12.47-10.2 0 0 2.77-5.98 6.64-6s4.16 3.04 1.96 5.37-3.61 5.94-8.77 6.8c0 0 7.37 3.6-1.34 9.5 0 0-1.89.9-1.2 1.55.68.66 5.84-2.27 6.57-3.92.72-1.65 1.82-2.93 3.8-3.9s11.7-7.58 14.62-12.58 3.72-5.18 9.41-9.75 4.71-3.67 5.43-4.78 1.03-2.93 3.65-4.4 12.8-7.14 15.99-9.44c3.19-2.3 9.72-6.54 12.53-10.12 2.81-3.58 10.38-8.16 12.27-7.3 1.89.85-.2 3.52-4.64 6.9s-15.45 12.28-17.24 13.64-11.12 8.2-14.62 8.65-3.11 1.67-5.2 3.95-6.91 7.05-8.55 8.35c-1.63 1.31-5.5 3.98-5.73 5.86-.23 1.87.68 2.1-2.43 5.03s-12.23 9.55-15.53 10.6c0 0 5.85 1.93 2.35 5.89s-3.26 3.38-3.53 3.63c0 0 8.88-1.3 2.58 5.6 0 0-1.21 2 1.6-.08 3-2.22 1.7-5.26 1.36-5.69 0 0 4.71-2.93 10.14-3.01s5.24-.46.38-1.85c0 0 3.46-4.2 6.38-2.13s1.98 3.27-1.1 4.92c-3.07 1.65-7.63 2.33-11.01 4.2 0 0 6.42 1.25 9.87-1.36s3.61-1.3 4.07-.85c.45.45.83 1.3-.69 3.5s-1.67 2.3-1.6 2.78c.08.48-.1 1.99-3.22 2.5-3.11.51-4.52 1.82-3.46 3.3s1.1 5.14-1.55 4.8-1.94-2.44-2.97-3.27c-1.02-.82-2.46-2.1-7.1.31-4.63 2.42-5.01-.45-4.78-1.96 0 0-3 2.62-5.51.2-2.5-2.41-.23-3.35 1.22-4.57s7.32-3.78 3.8-3.33-8.82.68-10.03-2.05c-1.22-2.72 2.62-2.41 3.23-2.16s3.1 2.28 3.19-.37c.07-2.64 3.98-2.92 2.65-3.46s-3.19 1.13-3.72 1.79c0 0-2.73-3.81-7.14-2.56s1.4.74 2.58.94.5 2.39-3.45 5.94-2.17 2.47.76 2.47c2.92 0 10.1.03 5.92 3.44s-5.85 5.12-8.01 4.52.27-2.02 1.21-2.62 1.52-1.64-.53-.88-2.77.91-4.4-1.99c-1.64-2.9-.95-2.04-.27-3.95.69-1.9 2.28-3.92.38-3.2s-1.7.76-1.56-1.43c.16-2.19-2.16-2.67-2.16-2.67s.91 2.19.08 3.58-.88 1.87.49 2.24c1.37.37 2.66 1.54.8 2.82s-1.64 1.1-.46 1.87 2.89 1.65 1.06 3.44-.3 1.25.61 1.25 2.98.77 3 2.53c.04 1.77-.11 2.2 2.85.54s8.89-1.45 8.8.86c-.07 2.3-.75 2.87 2.4.9s4.56 1.85 6.72 0 3.54-3.63 6.04-.48 1.73 4.11-1.33 6.34 1.48.51 3.8-.68 8.81-1.99 12.53-.34 4.79 1.28 7.52.14 4.14-1.4 8.28 1.36 7.37 3.27 9.53 3.22c0 0-4.6 1.79-9.76 2.13s-7.74 1.3-8.77 2.1c0 0 3.1 1.88 3.72 4.18 0 0 3.38-.46 5.05.23 0 0-.87 2.44 1.22 3.75 2.09 1.3 3.53 1.79 1.97 3.58-1.55 1.8 2.4 1.02.16 3.55s-2.85 3.81-2.93 5.86c-.07 2.04.5 2.36-1.52 2.56s.35 2.44-.57 5.11c-.9 2.67-6.53 2.39-6.3 9.55 0 0 1.56-3.5 4.9-6.56s3.45-3.36 3.38-5.2-.23-1.43 1.56-2.82-.8-2.7.98-4.69c1.79-1.99.23-1.6 2.32-3.61s-1.82-2.27.3-4.35-5.12-4.43-3.03-5.77 5.7-3.18-6.46-2.98c0 0 2.92-4.84 13.18-3.78 0 0-2.7 1.9-2.93 3.78 0 0 1.18.6 1.9.76 0 0-.4 1.38-2.35 3.04 0 0 5.43 3.05 6.3 4.84 0 0-3.3 1.02-4.14 2.47 0 0 1.45 1.65 1.94 3.78 0 0-3.68-.46-4.18 2.3-.5 2.76-1.6.88-1.6 2.5s.12 2.28-1.17 2.53-.23 1.62 0 2.53.65 2.99.46 3.64c0 0-1.86.03-2.74.28 0 0 .57 3.96-1.63 4.52s1.18 1.37-1.18 1.8c-2.35.42-2.05.56-4.93 5.74 0 0 2.46-1.4 5-3.07 2.55-1.68-.18-1.17 4.03-5.32s3.46-4.46 3.12-6.56-.42-3.81 1.1-5.8c1.52-2 2.01-4.27 7.4-3.98 0 0-1.6-3.59-3.57-4.52 0 0 2.59-1.8 5.32-2.05 0 0-2.4-2.87-7.29-5.65 0 0 4.02-3.47 4.97-5.12 0 0-1.86.29-3.34-.06 0 0 .7-1.65 4.33-4.03 0 0 1.94 1.87 1.86 3.84 0 0 6.23-3.59 9.76-3.19 0 0 1.79 4.5-6.87 12.9 0 0 5.35.52 7.63.2 0 0-1.29 4.16-7.78 6.6s1.4 5.3-5.24 4.8-4.6 1.8-4.4 5.18.4 6.85.26 7.78c0 0-5.32-1.73-5.2 3.42s-2.74 6.22-3.31 6.7c0 0-1.54-1.38-3.87-2.19 0 .01-3.3 6.27-8.63 9.93z" fill="#5A3719"/><path d="M862.28 212.78s1.82-.3 4.9 1.62 6.1-2.05 2.68-3.07.05-2.22 3.13.26 4.27 1.23 5.41.38 2.5-1.32.4-2.77 1.42-.77 3.02.26.97 2.08.74 2.38-.4 3.63 2.73.52 4.68-6.23 4.62-7.76c0 0 1.7 1.06 1.94 3.02s2.62-1.06 3.41-2.13c.8-1.07 2.17-3.76 2-5.78 0 0 2.1 3.26 5.24 0s1.76-1.21 5.52-2.2 8.5-3.74 11.06-6.86 2.73-1.02 6.03-1.79c3.3-.76 9.97-5.37 10.6-7.89.63-2.51.51-4.05-.46-3.2s-.57.18-2-.72c-1.42-.9-3.52 1.15-3.52 1.15s2.1 1.62.5 2.3-3.12 2.95-6.14 2.1-6.15 2.76-6.15 2.76 2.62 2.18-.92 3.54c-3.53 1.37-2.96 1.84-5.12.34 0 0-3.76 4.78-5.93 5.76 0 0-1.02-.09-1.7-.98 0 0-2.45 2.77-3.7 3.32 0 0-1.55-1.49-2.97-1.96 0 0-2.96 3.67-5.47 4.82 0 0-.74-1.36-2.34-2.3 0 0-.78 4.8-6.03 7.63 0 0 .34-1.28-2.28-3.02 0 0-6.5 5.62-9.06 6.18s-.17-1.2.17-1.92 1.94-3.11-1.2-4.1-2.61.69-3.3.99c-.68.3-.74-.56-2.85-.26-2.1.3-1.76 1.24-2.67 1.58-.91.34-4.56-.6-4.39 1.83s1.88 4.1-1.31 5.5c-3.2 1.4 1.2 1.11 5.41.47z" fill="#7B3C20"/><path d="M875.44 205.92s.74-3.07-1.94-4.56c0 0 17.2-2.65 4.22-9.21 0 0 15.44-3.2 11.79-8.14-3.65-4.95-7.19-3.84-7.72-3.76s3.28-2.85 4.3-2.47 13.45 5.16 10.26 1.07-2.9-3.84-3.42-5.03c0 0 4.1 0 10.3 6.05 0 0 1.32-1.36 1.15-3.84 0 0 4.44 1.24 5.8 2.56 0 0 .75-1.53.46-2.39 0 0 3.82 2.05 5.13 4.22 0 0 1.77-1.53 2.05-3.28 0 0 3.82 1.58 4.79 2.77 0 0 1.25-1.66.8-4.05 0 0 6.32 1.88 7.17-2.04 0 0 6.36 1.37 2.23 3.85-5.31 3.18-.54-.78-5.99 3.01-4.22 2.94-6.59 6.4-8.62 5.68-1.5-.52-3.28 3.83-5.34 1.7s-2.05-1.16-3.47 1.06-3.65 4.48-3.65 4.48-1.1-.64-1.95-1.5c0 0-1.24 2.05-2.83 3.59 0 0-1.25-1.67-3.25-2.69 0 0-3.13 3.63-5.07 4.86 0 0-1.82-1.79-3.76-2.39 0 0-.28 4.9-4.1 7.42 0 0-.8-1.62-3.25-2.6 0 0-1.93 3.1-6.09 5.63z" fill="#5A3719"/><path d="M866.39 198.41s-2.09 1.6-.74 3.33c1.35 1.71 1.42-.3 3.13-.47s22.79-3.8 3.7-9.51c0 0 .8-.73 4.1-1.02s15.27-3.54 9.69-7.8c-5.58-4.27-10.22 1.44-5.53-3.67 3.76-4.1.75-6.1.75-6.1s-11.11 7.42-13.56 8.78-5.98 3.97-1.82 5.33 7-4.52 7.4-3.2c.4 1.33-8.37 6.19-7.12 8.45 1.25 2.26.97 4.13 3.13 3.7 2.17-.42 8.04 1.11 3.25.94s-6.38 1.24-6.38 1.24z" fill="#5A3719"/><path d="M874.02 187.8s-1.94 1.36.63.68c2.56-.68 7.69-1.8 6.72-3.11-.97-1.33-4.39.26-7.35 2.43z"/><path d="M907.86 165.8s9.8-.26 13.84 2.47 5.98 4.52 7.18 4.9c0 0-.17 3.72-6.44 1.07 0 0 .34 1.8-.34 3.54 0 0-2.34-1.53-5.01-2.22 0 0-.46 1.41-1.31 2.22 0 0-2.8-2.81-5.93-3.67 0 0-.62 1.41-1.2 1.92 0 0-3.35-1.92-5.92-1.87 0 0 .52 2.04 0 2.85 0 0-7.12-5.58-13.44-4.86 0 0 3.08 4.48 5.07 6.7 0 0-12.82-1.03-10.71-7.93s-.17-5.17 8.2-5.13 16.01.01 16.01.01z" fill="#7B3C20"/><path d="M847.76 184.88s-1.48 1.2 0 2.23c1.48 1.02 6.55-2.64 7.23-3.15.69-.52 2.51-.43 0 1.45s-5.07 3.92-6.66 5.96c0 0 8.49-2.3 14.01-7.07s-.25-1.68 9.17-6.23 14.36-11.85 9.29-11.08c-5.07.76-9.63 6.56-13.56 8.78s-6.15 2.52-5.52 1.24c.62-1.28 3.53-.77 8.94-5.12s4.21-4.05 4.27-5.58-2.05-5.33 6.1-9.6 33.49-19.1 35.65-24.17c0 0-7.4.8-17.14 8.01s-14.96 10.58-17.65 11.47-2.35.3-4.11 2.4c-1.77 2.08-11.4 11.37-13.16 12.74s-2.28 2.26-2.43 5.04c-.07 1.27-11.07 9.55-14.43 12.68z" fill="#5A3719"/><path d="M881.25 165.56s-1.88.87-3.7 0-1.26-4.8 3.13-7.14 12.36-5.84 16.4-6.35c0 0-.56 5.07-13.15 9.33 0 0 .8 2.64-2.68 4.16z" fill="#5A3719"/><path d="M885.7 162.26s.37 1.25 0 2.39c0 0 23.41 2.26 35.49-11.98 0 0-16.58 1.53-23.18 5.5 0 0 4.15-5.2 16.57-9.51 12.42-4.3 17.49-9.64 18.57-12.58 0 0-15.7 5.5-23.18 5.5 0 0-1.48-.04-2.9.77s-11.46 8.1-14.13 9.34c0 0 5.64-.47 7.63-2.3 0 0-3.92 10.53-14.87 12.87z" fill="#AA5323"/><path d="M840.87 175.64s-3.02 2.13-1.77 3.2 3.42 1.28 8-2.56 15.7-13.39 8.68-13.77c0 0-8.99-.55-8.68 4.95.32 5.55-5.78 7.83-6.23 8.18zm-20.73-3.24s5.92 3.45 3.7 6.3c0 0 18.17-15.43 13.04-18.75s-9.17 2.94-7.92 3.58c1.26.64 3.93-.55 2.97.64s-10.66 7.72-11.8 8.23zm-4.73-4.99s3.98 1.2 4.16 2.9 12.01-8.36 8.88-12.58c-1.44-1.93-8.03-2.73-8.32 1.07s5.93-.39 3.76 2.34c-2.83 3.58-7.63 5.67-8.48 6.27zm42.64-8.4s-2.54 1.83-.26 2.94 3.76-.64 4.9-1.66 6.78-5.16 8.09-7.8 3.24-3.45 5.3-4.82c2.05-1.36 16.52-8.57 25.4-16.54s5.19-5.93 14.41-11.05c9.23-5.11 15.27-9.8 17.2-15.34 0 0-4.27 1.4-8.03 3.83s-12.24 7.76-13.95 8.49-4.1.85-5.36 2.17c-1.25 1.32-1.14 2.9-5.58 6.57-4.44 3.66-27.4 19.86-30.2 22.17-2.78 2.3-11.92 11.03-11.92 11.03z" fill="#5A3719"/><path d="M839.58 164.37s2.5-1.38 7.21-1.06c4.71.32 23.32-17.7 28.72-21.34s22.25-15.8 24.53-18.02 2.66-4.6 4.63-5.91 3.8-1.14 8.36-3.75 26.43-15.7 25.14-23.3c0 0-32.59 19.55-40.1 25.91-7.53 6.37-28.41 20.8-32.13 23.14s-6.69 6.37-12.92 11.43-12.38 9.32-13.44 12.9z" fill="#AA5323"/><path d="M832.74 157.44s6.03-.62 6.84 2.33c0 0 12.9-8.87 15.87-12.5s-.99-1.54 6.38-6.37 31.82-21.95 35.32-25.02 10.1-7.1 15.42-10.68c5.31-3.58 26.12-13.76 23.77-22.12 0 0-15.27 10.24-18.68 12.45-3.42 2.22-4.87.97-8.36 3.7s-11.16 8.18-12.53 9.89-13.07 10.69-18.76 14.5-18.46 11.2-24.61 16.54a998.73 998.73 0 0 1-20.66 17.28z" fill="#AA5323"/><path d="M813.95 155.69s3.05.04 3.96 1.24c0 0 5.64-4.95 11.64-.06 0 0 22.03-14.9 24.23-18.65s5.77-3.8 14.36-10.06 13.97-8.87 19.67-13.3c5.7-4.43 10.48-9.44 14.58-12.1 4.1-2.68 14.43-9.45 12.69-15.3 0 0-8.36 4.77-13.83 10.74s-5.01.86-10.55 5.86c-5.55 5-14.13 11.82-21.27 15.35s-2.81 3.12-7.98 6.42-4.78 2.79-6.68 3.24c-1.9.46-4.79 1.82-6.68 4.04s-7 5.23-12.54 8.35c-5.54 3.13-19.17 11.25-21.6 14.23z" fill="#AA5323"/><path d="M820.59 144.26s-1.2-2.47.91-4.22c2.1-1.75 5.92-6.35 6.55-9.25s.17-2.43 6.27-4.95c6.1-2.51 19.93-9 27.74-13.81 7.8-4.82 19.65-12.58 22.1-14.46s8.4-6.05 10.8-8.01c0 0 1.16 3.28-1.46 5.54s-12.7 9.34-14.35 10.45-10.94 7.33-13.79 8.9-9.9 5.17-12.41 7.26-2.19 2.73-13.37 8.18-11.7 6.02-11.36 6.44 5.36-1.75 7.75-3.15c2.4-1.41 11.56-5.59 14.3-7.76 2.73-2.18 7.35-5.59 9.34-6.7s18.51-11 23.24-14.5 6.04-4.64 7.06-4.04c1.03.6 2.68.64.57 2.64-2.1 2-8.82 7.89-11.39 9.6-2.56 1.7-10.6 6.47-12.82 7.62s-3.07 3.29-4.32 4.18-4.9 3.5-9.35 4.52-5.24 4.35-8.14 6.23-23.58 13-24.2 13.55c0 0 1.24-1.28.33-4.26z" fill="#AA5323"/><path d="M892.13 97.83s-1.14 1.01-.51 1.58c.82.75 3.7 2.77 7.29-.79s13.23-11.32 16.35-13.15 4.61-3.58 4.5-6.1c0 0-14.81 7.9-27.63 18.46zm20.4-1.36s2.27-3.8 7.85-7.38 13.97-8.8 15.1-10.06c0 0 2 2.26-2.4 5.03s-12.92 8.45-13.95 9.26-2.73 2.04-6.6 3.15z" fill="#AA5323"/><path d="M799 137.78s-6.2 3.33-3.99 5.42 5.53 1.45 6.9.85 3.98-1.24 4.38-1.37 5.81-1.66 7.18-4.17 5.01-5.42 7.92-7.5 3.93-4.19 3.53-5.68c0 0-24.45 11.55-25.92 12.45zm-36.91 28.7s4.29-2.56 10.3-.94c0 0-.28-1.47-1.19-2.23 0 0 7.3-1.91 8.89-5.15s1.93-2.56 3.36-3.5 11.28-8.86 10.14-10.57-1.37-3.92-2.22-4.82c0 0-2.05 2.82-11.62 7.46s-20.23 8.15-27.97 18.6-6.95 16.5 2.5 19.13c0 0 6.67-4.17 22.9-2.72 16.24 1.45 21.76 7.54 22.79 8.65 1.02 1.11 4.33 5.12 1.14 11.9 0 0 3.24 1.4 3.53-1.7s.46-2.4 1.2-1.93 1.65.56 1.3-1.83c-.34-2.39-1.48-7.72-2.96-9.55s.17-1.02 1.14-.64c.97.38 4.39 3.15 2.34-1.96-2.05-5.12-2.56-2.6-2.62-2.35s-.46 1.54-4.9-1.79-8.49-4.94-11.5-5.8-.92-.85.85-1.49c1.76-.64 4.15-1.02 4.95-2.98 0 0-1.76.42-5.01-.73s-9.74-1.28-14.98 2.65c0 0 1.65-6.06-3.14-5.72s-8.14.22-13.21 4.22c0 0-.29-6.1 4.5-9.25s4.16-1.23 6.83-2.04 2.91-3.5 1.77-4.35c0 0 6.27 1.06 16.8-7.68 0 0-5.66 7.42-12.54 8.91 0 0-1.09 3.95-7.34 4.82-6.24.87-6.09 4.48-6.03 5.37z" fill="#7B3C20"/><path d="M744.1 202.61s3.07-18.37 20.28-19.7c15.08-1.17 19.86.7 22.86 1.68s10.33 3.12 7.48 5.48-4.48 1.93-4.48 1.93 3.3-3.66.3-4.29-3.26 1.2-3.68 2.73-.6 3.38-2.09 4.58c0 0-1.52-1.77-3.68-.23s-.3 1.6.57 1.34c.87-.26 2.01-.71 1.78.62s-1.44 3.64-5.01 5.52-3.38 1.76-7.63 2.44-8.2 2.36-13.64 7.02c-5.43 4.66-11.37 3.1-12.57-2.1-1.02-4.47-.49-7.02-.49-7.02z" fill="#5A3719"/><path d="M763.8 202.03s1.65-3.62-1.32-5.28c0 0-9.05 1.55-11.73-1.2 0 0 9.85-.5 15.95-2.9 6.1-2.38 4.27-4.05 2.16-4.43-2.1-.38-5.98.56-6.38 2.47 0 0-1.2-2.04.35-3.4s3.93-1.63 6.1-.99c2.16.64 4.1 1.58 11.21-2.13 0 0 4.1.94 4.22 3.7.11 2.78-.29 3.93-.63 4.36-.34.42-.85 1.23-1.7 1.15-.86-.09-1.94-.3-3.03 1.62-1.08 1.92-1.73 3.58-3.54 4.86 0 0 2.12-5.97-3.12-7.38 0 0-4.33 2.56-7.63 2.69 0 0 4.21 3.92-.92 6.87z"/><path d="M773.25 191.08s-2-2.2.63-2.43c2.62-.24 6.1 1.68 5.4 3.3-.67 1.62-3.75 1.56-6.03-.87z" fill="#5A3719"/><path d="M921.3 161.96s-4.79 1.36-.34 4.3 6.6 5.5 9.85 6.36 6.61 2.05 6.55 5.29c-.05 3.24-.68 4.52-2.44 6.73-1.77 2.22.96 3.2 3.3 1.92s4.33-1.96 5.87-2.86 4.1-.76 1.76.43c-2.33 1.2-4.78 1.92-1.76 2s21.19.43 25-.8 8.77-1.63 9.23-6.57c0 0 .17-2.2 1.6-3.11 1.42-.92 2.39-3.03.3-1.6-2.07 1.43-3.67 2.15-4.06 1.72s-.52-.72 1-1.42 2.36-.05 3.75-2.11c1.4-2.07 1.26-1.73.52-2.52-.75-.79-2.31-1.36-1.54-2.36s1.54-4-1.8-2.24-9.89 6.25-12.93 6.96-5.35 1.64-9.45 2.47-6.65 1.7-11.02 4.13-4.06-1.34-3.3-1.85c0 0 1.67 2.92 6.11-.88s3-.24 13.86-3.81 8.2-4.15 12.46-6.37 8.28-2.3 5.32-5.26-3.3-3.21-7.14 0-14.43 8.39-20.77 8.53c0 0 24.5-10.58 21.98-12.1-2.5-1.54-5.2-2.9-6.9-3.28s-2.17-.8-6.12.97-4.6 2.19-5.74 2.3-4.44.77-9.11 3.18-7.18 3.38-10.3 5.29c0 0 2.17-4.38 11.82-7.28s14.58-5.57 13.52-6.05c-1.07-.48-3.46-.88-5.28-.6s-1.3-.14-7.18 2.2-3.38 1.81-8.13 2.83-6.68 2.08-9.03 3.07c0 0 .96-1.28 4.15-2.45 1.65-.6-1.8-1.22 2.77-1.4.37-.02.83.09 1.28-.04 5.9-1.7 12.34-4 11.35-4.18-.98-.17-6.72-.77-12.53 1.9-5.8 2.68-3.15 1.77-5.2 2.2-2.05.42-6.38 3.15-7.82 4.31-1.45 1.17-3.46 2.05-3.46 2.05z" fill="#FFF"/><path d="M777.84 188.43s2.28.68 2.85 2.28 2-.7 1.93-1.43-1.45-3.92-3.93-2.43-1.23 1.44-.85 1.58z" fill="#5A3719"/><path d="M771.48 220.03s4.87-2.29 8.95-2c0 0-1.6-5.76 1.25-4.78 2.85.98 2.05.6 2.62.55 0 0 .17-3.8-.57-5.29 0 0 2.9.69 5.87.73 0 0-2.8-5.46.28-9.2 0 0 1.7 3.57 5.49 4.47 0 0 .02-1.54 0-3.16 0 0 2.26-.25 4.02.68s3.25-9.89-1.99-12.27c0 0-1.25 2.04-6.15 3.07-4.9 1.02-4.86 2-6.87 5.69s-3.78 3.73-7.89 6.37c-4.1 2.64-6.59 8.02-6.82 8.49 0 0 2.16 2.64 1.81 6.65z" fill="#7B3C20"/><path d="M934.91 157.12c1.78-.31-1.8-1.22 2.76-1.4.38-.02.83.09 1.28-.04 5.9-1.7 12.35-4.01 11.36-4.18-.99-.17-6.72-.77-12.53 1.9-5.81 2.68-3.16 1.77-5.2 2.2-2.06.42-6.39 3.15-7.83 4.31s-3.46 2.05-3.46 2.05-4.78 1.36-.34 4.3 6.61 5.5 9.86 6.36 6.6 2.04 6.55 5.28c-.06 3.24-.68 4.52-2.45 6.74-1.77 2.22.97 3.2 3.3 1.92s4.33-1.96 5.87-2.86 4.1-.76 1.77.43c-2.34 1.2-4.79 1.92-1.77 2s21.2.43 25-.8 8.78-1.63 9.24-6.57c0 0 .17-2.2 1.6-3.12 1.41-.91 2.38-3.02.3-1.6-2.08 1.43-3.67 2.16-4.07 1.73s-.51-.72 1-1.43 2.36-.04 3.76-2.1c1.4-2.07 1.26-1.73.51-2.52-.38-.4-.98-.75-1.36-1.13 0 0-1.1-.96-2.37-.15s-6.86 3.17-9.1 3.44c-2.24.27-4.55 1.22-8.58 3.18s-10.7 5.96-11.77 2.25c0 0-2.92 1.04-3.55 1.36-4.5 2.29-4.1-.96-3.3-1.84 0 0-2.36 2.64-2.27.24.1-2.4 1.62-2 4.24-2.76s6.76-2.47 5.05-3.9-3.51 1.42-5.41 2.28-5.7 1.63-6.29-1.12-.57-4.68-5.71-4.98-4.96-3.5-3.55-4.89 2.64-3.73 7.46-4.58z" fill="#999"/><path d="M951.26 182.05s8.02-3.7 15.38-5.43c7.37-1.73 1.6.23.35.63s-12.73 4.18-15.42 5.43c-2.7 1.25-2.14.18-.3-.63zm1.86 1.62s9-2.98 10.68-1.73c1.67 1.25.3.62-1.68.9-1.97.3-7.4 1.2-8.84 1.17-1.45-.02-.16-.34-.16-.34zm14.44-3.12s1.7-.32 1.9.31c.18.62-.77.71-1.71.6-.95-.12-1.79-.66-.2-.91z"/><path d="M729.84 258.97s-.34-7.9 3.65-11.91 23.35-24.17 26.32-29.8c0 0 2.5 1.74 2.62 4.94 0 0 3.24-5.6 5.8-7.7 0 0 2.28 2.33 1.89 6.97 0 0 4.67-2.47 11.9-2.51 0 0-2.68 3.15-2.79 4.99 0 0 10.03-1.11 15.27-.26 0 0-13.79 7.72-9.92 8.4s7.92-.04 7.92-.04-4.38 4.47-11.39 5.37c0 0 8.89-.13 10.65 1.88 0 0-8.66 1.32-15.6 6.6 0 0-.66-.3-.7-2.26 0 0-.22 1.75-2.21 3.41s-6.78 5.2-8.55 7c-1.76 1.79-5.07 5.33-8.6 5.16 0 0 .8-2.73-1.82-3.59a7.38 7.38 0 0 0-7.75 2s-9.34.14-12.3.56c0 0 2.1-3.37 4.04-3.28 1.94.08 9.74 1.15 10.43-4.18.68-5.33-5.02-3.92-2.85-7.08s1.65-3.02 1.7-3.32c0 0-1.76.98-2.78 3.8s-1.77 4.98-5.47 7.8c-3.7 2.81-5.24 4.51-6.26 6.47 0 0-1.7.24-3.2.58z" fill="#FFF"/><path d="M738.82 254.19s.3-1.08 3.04-1.53 2.85-1.77 2.5-2.34-1.97-.56.69-3.58c0 0 .95.26 1.6 1s3.64 7.16-7.83 6.45z" fill="#FFF"/><path d="M732.26 248.61c.14 5.26 7.04 3.3 7.04 3.3a28.68 28.68 0 0 0-5 4.55c.46-2.56-3.89-3.2-3.89-3.2a14.7 14.7 0 0 1 1.85-4.65zm25.37-28.14c1-1.3 1.75-2.4 2.18-3.2 0 0 2.5 1.73 2.62 4.93 0 0 3.24-5.6 5.8-7.7 0 0 2.29 2.33 1.89 6.98 0 0 4.67-2.48 11.9-2.52 0 0-2.68 3.16-2.79 4.99 0 0 10.03-1.11 15.27-.26 0 0-13.79 7.72-9.92 8.4 3.88.68 7.92-.04 7.92-.04s-4.38 4.48-11.39 5.37c0 0 8.89-.13 10.65 1.88 0 0-2.53.38-5.95 1.57 0 0-2.56-2.4-9.96-2.06 0 0 5.76-3.22 10.33-4.26 0 0-2.01-2.64-5.17-.23 0 0-6.26-4.32-1.1-7.98 0 0-3.64-.77-6.04.93 0 0 .12-2.95 2.78-4.29 0 0-7.03-1.14-8.78 4.04 0 0-1.32-2.13-.72-4.55 0 0-4.25 2.45-6.19 5.22 0 0-.64-5.26-3.33-7.22M744 253.9c-1.26.3-2.95.44-5.19.3 0 0 .2-.68 1.64-1.19 0 0 .42.87 3.55.89" fill="#999"/><path d="M756.79 233.97s3.19 2.51 4.33 4.05c0 0 2.9-2.05 3.98-3.71 0 0 2.28 1.5 3.08 3.7 0 0 1.6-1.1 1.94-2.63 0 0 4.02.85 5.34 2.17 0 0 .61-3.88 0-6.31 0 0 2.8.21 4.51.94 0 0-1.59-2.56 6.53-5.84 0 0-6.14 1.31-8.47 4 0 0-2.62.13-3.76-.68 0 0 .17 3.93.06 5.8 0 0-1.58-.64-4.66-1.36 0 0-.75 1.28-1.26 1.57 0 0-1.94-1.53-2.8-3.5 0 0-2.96 2.7-4.1 3.85 0 0-2.79-1.97-4.72-2.05z"/><path d="M738.44 273.88s1.25.6 4.21-1.8 11.34-7.7 12.14-11.97-2.68-4.52-5.41-3.29c-2.74 1.24-1.6 3.63-1.48 4.4s.17 3.75-4.28 7.88c-4.44 4.14-5.18 4.78-5.18 4.78z" fill="#FFC221"/><path d="M737.48 275.24s-6.73-2.81-.69-5.84 8.72-3.84 9.4-6.35c.69-2.52.29-2.1-1.94-1.03s-10.76 4.9-12.07 1.32c0 0 3.53 1.37 7.92-.76s7.97-2.77 5.18-3.67c-2.79-.9-12.87.21-14.53.68-1.65.47-1.25.39-1.53 2.05-.29 1.66-2.17 5.16-2.85 6.18-.68 1.02-2.34 5.29.74 7.16 3.08 1.88 7.95 1.75 10.37.26z" fill="#FFC221"/><path d="M734.86 260.57s-1.54.22-1.26.81c.29.6.69.51 1.26.56s1.42-.3 1.53-.69c.12-.38-.96-.8-1.53-.68z"/><path d="M737.08 273.75s-3.2-1.54.4-3.5 7.46-3.83 7.97-4.64c0 0-1.7 2.42-8.37 8.14z" fill="#FFF"/></svg>