<svg viewBox="0 0 1000 500" xmlns="http://www.w3.org/2000/svg"><path d="M0 0h1000v500H0z" fill="#c8102e"/><path d="M0 0h500v250H0z" fill="#012169"/><path d="M0 0v27.95L444.1 250H500v-27.95L55.9 0zm500 0v27.95L55.9 250H0v-27.95L444.1 0z" fill="#fff"/><path d="M208.33 0v250h83.34V0zM0 83.33v83.34h500V83.33z" fill="#fff"/><path d="M0 100v50h500v-50zM225 0v250h50V0zM0 250l166.67-83.33h37.26L37.27 250zM0 0l166.67 83.33H129.4L0 18.63zm296.07 83.33L462.73 0H500L333.33 83.33zM500 250l-166.67-83.33h37.27l129.4 64.7z" fill="#c8102e"/><path d="M865.36 106.66V318.4c0 56.56-113.06 74.93-113.06 74.93s-113.06-18.37-113.06-74.93V106.66z" fill="#fff"/><path d="M865.36 318.4c0 56.56-113.06 74.93-113.06 74.93s-113.06-18.37-113.06-74.93c0 0 0-4.55 2.3-7.14 0 0-1.25 9.4 5.98 16.52 0 0-5.67-10.04-.13-19.9 0 0-2.05 12.69 5.86 19.98 0 0-4.36-10.37.56-21.93 0 0-2.43 18.91 6.17 22.68 0 0 2.37-10.87-1.06-17.84 0 0 5.92 2.38 5.6 18.15 0 0 1.88-2.32 2.37-13.7 0 0 .25 13.01 4.74 16.03 0 0 1.37-1.32-.5-7.23s.81-7.98 1.25-7.85c0 0-.99 6.53 4.49 11.43 0 0-2.37-10.24.93-11.62 0 0-.69 8.67 6.17 10.62 0 0 .5-2.51-1-5.34 0 0-1.3-3.35-.31-5.92 0 0 2.18 7.87 5.17 9.19 0 0-1.8-4.61-.13-9.19 0 0 .38 6.55 6.23 9.25 0 0-3.85-5.07-2.33-10.64l37.66 1.84 19.5.93 58.5-4.13 10.1-8.67s3.98 5.53-2.31 14.26c0 0 6.23-1.13 8.22-10.87 0 0 2.56 5.4-.93 11.37 0 0 6.91-6.9 7.91-14.76 0 0 2.68 7.6-3.86 15.77 0 0 5.85-1.95 8.35-10.62 0 0 1.99 5.22-3.68 12.6 0 0 10.6-5.63 10.28-17.25 0 0 4.42 6.4-.62 15.2 0 0 5.42-4.83 5.92-12.06 0 0 2.99 3.27-.25 12.25 0 0 6.6-6.22 7.6-12.94 0 0 1.43 6.22-4.24 14.07 0 0 3.86-.94 7.54-8.6 0 0 1 3.01-2.37 8.54 0 0 3.62-.63 6.05-7.54 0 0 .43 4.15-.63 7.86 0 0 2.8-1.83 3.43-9.68 0 0 1.57 2.58 1.6 5.78.02 3.2 0 1.1 0 1.1z" fill="#2f8f22"/><g stroke="#000"><path d="M807.14 196s-3.93.67-8.98-.87c-5.04-1.54-7.08-.91-8.65 0 0 0 2.05-4.06-2.93-7.26 0 0 1.62 4.1-.63 6 0 0-1 .95-2.18-.47 0 0-1.74-1.79-3.58-3.17 0 0 4.24-1.48 3.46-5.78s-3.09-4.87-4.33-5.4c0 0 .43 1.94 0 3.26 0 0-4.61-2.57 1.65-6.22s5.1-5.78 3.99-7.63a17.07 17.07 0 0 0-4.7-4.62s1.24 1.95 1.02 3.61-3.05 2.74-2.5-.18c.57-2.93-.02-2.42-.09-5.53 0 0 5.58 1.88 7.76-3.55 0 0 2.15-5.63-4.89-8.42 0 0 1.71 2.3.87 4.02 0 0-1.5 2.83-3.27.53s-2.9-2.73-2.7-5.43c0 0 6.38.88 4.63-6.06 0 0-1.03 4.61-9.31-1.6 0 0 5.39-5.54 3.3-10 0 0-.65-2.04-6.51-.84 0 0 5.08-3.2 2.93-5.94 0 0-1.1-1.82-5.83.56 0 0 1.84-3.17-2.8-6.6 0 0-3.12 1.64-4.77 3.15 0 0-3.17-4.02-5.2-5.63 0 0-3.68 1.42-4.6 5.63 0 0-1.72-2.04-5.62-2.99 0 0-1.87 3.46.56 6.47 0 0-1.8-.06-5.1-1.5 0 0-3.77-1.8-3.21 1.44s.84 3.96 1.59 5.47c0 0-8.46-1.97-8.1 2.6a11.54 11.54 0 0 0 4.05 8.2s-4.74 6.2-8.79 1.54c0 0-1.4 1.51 1.62 5.47 0 0 3.02 3.33.53 5.43 0 0-3.33 2.67-4.95-2.5 0 0-5.39 5.36.96 9.48 0 0 4.09 2.32 8.26-1.26 0 0-1.28 10.3-5.27 8.33 0 0-2.4-1.76 1.9-3.87 0 0-6.2-.78-7.2 5.22 0 0-.76 4.77 4.65 6.5 0 0 4.17 1.5-.16 4.74 0 0-3.05 2.33-1.06 5.78 0 0 2.4 3.8-3.67 4.18 0 0-3.3-.03-4.49-.47 0 0-1.33 2.48-.4 5.3 0 0-3.02-2.25-9.9.25-6.9 2.5-6.36.73-6.92 1.49s-1.9 3.3-1.9 3.3 3.61 4.4 3.67 4.3-.68 5.03-.68 5.03l1.77.84 14.18-6.31 14.39-7.5 11.57.7 7.34 1.76 9.64.7 6.9-3.68h10l11 5.48 12.55 7.48 6.54 1.15 5.04-.27v-10.16z" fill="#c8102e" stroke-linejoin="round" stroke-width=".83"/><path d="M692.97 207.89s5.49 2.8 7.78-.6c0 0 2.99-5.7-3.58-7.68 0 0 3.58-4.29-.26-8.25 0 0-2-2.12-5.51-.56 0 0-1.45-3.02-4.86-2.93 0 0-2.99-.04-4.02 3.26 0 0-4.11-1.7-6.4.75 0 0-3.79 4.24 1.5 7.59l3.8.34 3.73-1.73 4.18 1.2s-1.08 4.22 3.64 8.6z" fill="#c8102e" stroke-linejoin="round" stroke-width=".83"/><path d="M815.36 197.86a8.74 8.74 0 0 1 8.94 4.95c3.46 8.12-3.9 12.46-3.9 12.46.57 1.82.63 4.2.63 4.2 10.34 1.27 8.53 12.89 8.53 12.89l-3.42-2.83c-5.98-2.32-12.15 2.77-16.57 11.31s-2.3 12.57-1.56 22.68c.75 10.12 17.2 16.15 17.2 16.15s-7.8 20.04-12.84 32.92-15.58 7.54-18.63 4.83c-3.05-2.72-3.81-1.21-5.36 0s6.92 7.8-8.47 14.02-18.07 11-20.62 12.56-13.21.5-14.27-.81c-1.06-1.32-.43-1.32-4.42-3.77-3.99-2.45-10.72-4.59-18.07-8.17s-7.16-8.17-7.1-9.11c.06-.94 2.55-8.6-6.06-2.51s-15.93-2.9-15.93-2.9c-1.69-2.22-8.85-21.42-8.85-21.42-1.93-7.16-5.73-15.52-5.73-15.52.18-.06-.38.88 5.98-2.76s9.2-9.7 11.4-15.7.06-16.28-.75-18.35c-.81-2.08-5.54-11.58-11.4-13.57s-9.8 2.95-9.8 2.95-1.81-11.62 8.53-12.88c0 0 .06-2.39.62-4.21 0 0-7.35-4.34-3.89-12.46 0 0 2.34-5.57 8.94-4.95l-1.6 3.02s-1.66 16.59 22.62 5.47 23.55-13.2 37.38-6.22l10.1-.2s14.57-6.73 19.24-3.83c4.68 2.9 21.5 12.32 21.5 12.32s16.26 6.1 19.44-5.15z" fill="#64b4d1" stroke-width=".62"/></g><path d="M742.31 269.77s-.84-5.09-1.73-8.39c0 0-1.8-5.17 1.27-8.8l3.81-4.39s2.37-3.19 5.3-3.62c0 0 2.94-.09 3.22-.68s3.49-5.88 11.12 0c0 0 2.43-3.9 6.17-4.56 0 0 4.03-1.22 5.99 1.8 0 0 4.54-3.45 8.43 2.09 0 0 5.39-3.03 9.31 3 0 0 5.33-2.6 8.6 2.94s2.62 7.8 2.62 7.8l2.43 8.8 8.6 10.61-20 7.54h-8.97l-17.95 4.8-31.86 2.45-8.88-10.46z" fill="#fff" stroke="#012169" stroke-miterlimit="10" stroke-width=".83"/><g stroke="#000" stroke-width=".83"><path d="M715.37 322.74s-4.76.28-7.2 1.5-4.3 2.55-7.1 4.34c0 0-1.3 1.74-6.82.68 0 0-9.53-2.28-9.53 5.16 0 0-11.4.94-6.73 10.93 0 0 3.18 7.83 9.72 2.27 0 0-4.2 6.03 3.93 8.38 0 0 5.8 1.42 7.47-4.52 0 0 .94-2.36-1.3-5.28 0 0 2.8-.56 4.76-3.58 0 0-5.98 7.56.56 10.28 0 0 8.22 2.07 8.7-6.51 0 0-.68-3.96 2.5-5.37 0 0 6.56-1.51 9.55-8.81 0 0-9.42-5.02-8.5-9.47zm-19.24-75.17s-7.35-3.39-10.84 0c0 0-4.86-3.01-9.97 0 0 0-4.86 3.17-8.23 6.67 0 0-2.36 2.03-1.5 8.42 0 0 1.26 4.5.5 6.77 0 0-1.61-.33-4.85 3.51 0 0-4.11 4.77-7.73.56 0 0 1.12 5.85 7.91 4.91 0 0-3.3 2.58-.43 9.24 0 0 2.12 4.7-1.25 10.61 0 0 5.92-2.38 5.67-9.36 0 0-.5-4.7 1.25-8.04 0 0-1.75 3.03 2.3 9.49 0 0 3.12 4.65.56 9.48 0 0 5.86-2.13 5.3-9.23s-4.11-4.15-1.8-10.68c0 0 .55 3.35 2.3 5.03s3.98 4.52 3.05 9.23c0 0 3.49-4.33 2.68-8.8s-1.68-5.8-1.68-5.8l11.02-6.26 5.49-9.93z" fill="#c8102e" stroke-linejoin="round"/><path d="M679.37 275.58s-4.55-.31-5.3-3.83m-7.97-2.32s1.58-.07 3.01 1.38c0 0 1.1 1.63 2.66 1.44" fill="none" stroke-miterlimit="10"/></g><path d="M686.1 262.2s-2.37 0-3.68-1.13c0 0-1.37-.94-2.18.57 0 0-1.25 2.13 1.06 3.07 0 0 2.86 1.45-1.68 4.34 0 0 5.42-1.95 3.24-4.59 0 0-2.37-1.7-1.5-2.32 0 0 .25-.5 1.18.12.94.63 2.8.38 3.56-.06z"/><path d="m760.4 274.2-18.21-62.9-.67.17 16.1 63.68z" fill="#784421" stroke="#000" stroke-width=".62"/><path d="M696.96 344.79s-4.3-2.42-7.85.4c0 0 .37-1.56 3.08-2.25 0 0 1.47-4.15 5.58-3.77 0 0-1.68 2-3.92 3.7 0 0 2.37.25 3.11 1.92z"/><path d="M681.83 354.78s-6.83-4.29-3.14-11.5c0 0 1.08-2.07 3.14-1.65 0 0 4.25 1.32.93 7.21 0 0-1.68 3.82-.94 5.94zm13.83 6.78s-9.72-4.42-6.73-11.96c0 0 .92-2.55 3.08-2.36 0 0 3.74.19 3 5.18 0 0-1.13 4.9.65 9.14z" fill="#64b4d1" stroke="#012169" stroke-miterlimit="2.61" stroke-width=".62"/><path d="M693.6 333.43s-2.92 2.15-4.1 3.6c0 0-1.2-1.48-2.75-2.37 0 0 1.79-.24 2.74.57 0 0 1.5-1.45 4.11-1.8z"/><path d="M702.24 359.68s7.62-1.93 6.22-9.8c0 0-.75-3.44-3.97-2.97 0 0-3.89 1-1.36 6 0 0 1.5 3.56-.89 6.77z" fill="#64b4d1" stroke="#012169" stroke-miterlimit="2.61" stroke-width=".62"/><path d="M736.66 193.2s4.9 1.5 7.57 2.6c0 0 7.1 3.2 16.12 0 0 0 6.1-2.42 6.9-2.6l-4.66 7.12-.23 3.67 2.92 4.29s-1.76.7-6.99-2.5c0 0-5.8-4.48-12.71 0 0 0-3.79 2.56-6.96 2.5l4.48-5.01-1.72-4.51z" fill="#f5ce00" stroke="#000" stroke-miterlimit="2.61" stroke-width=".83"/><path d="M705.19 350.28s.28-.38-.05-.54c0 0-.33-.14-.56.31 0 0-.8 1.26-.12 2.99 0 0 .63 1.2.32 2.44 0 0-.04.36.24.4 0 0 .27-.09.33-.35 0 0 .38-1.22-.28-2.4 0-.01-.8-1.86.12-2.85z" fill="#fff"/><g stroke="#000"><path d="M810.69 207.89s-5.49 2.8-7.78-.6c0 0-2.99-5.7 3.58-7.68 0 0-3.58-4.29.26-8.25 0 0 2-2.12 5.51-.56 0 0 1.45-3.02 4.86-2.93 0 0 3-.04 4.02 3.26 0 0 4.11-1.7 6.4.75 0 0 3.79 4.24-1.5 7.59l-3.8.34-3.73-1.73-4.18 1.2s1.08 4.22-3.64 8.6z" fill="#c8102e" stroke-linejoin="round" stroke-width=".83"/><path d="M767.26 203.46s-.14 1.13-1.26 1.25c0 0-1.17.38-1.85-1.08 0 0-.08-.33-.1-.49-.07-.68-.3-2.64 1.81-4.24 0 0 3.46-2.83 10.06.6 0 0 5.24 2.51 8.85 4.65 0 0 9.34 5.02 10.47 5.4 0 0 4.1 2.07 10.4 2.33 0 0 8.6.62 12.24-5.4 0 0 2.77-4.6 0-7.52 0 0-1.12-1.31-2.96-1.07a3.8 3.8 0 0 0-2.46 1.42s-1.34 1.95.22 3.4c0 0 2.02 1.23 2.74-1.39 0 0 .03-.19.1.05.03.15.5 2.15-.58 3.85 0 0-5.19 7.85-19.46-.29l-18.81-10.55s-9.44-4.84-15.08 2.73c0 0-4.55 6.28 1.31 10.4 0 0 4.36 2.6 7.1-1.54 0 0 2.28-4.08-1.3-5.87 0 0-3.15-1.48-4.4 1.66s2.43 3.96 2.77 1.73c0 0 .1-.54.2-.03z" fill="#f5ce00" stroke-miterlimit="2.61" stroke-width=".83"/><g stroke-width=".62"><path d="M692.68 235.84v-11.78c0-.92 0-1.7 1.4-2.82s2.9-2.93 5.05 2.16c0 0 4.2-4.42 5.61-5.08 0 0 2.43-2.08 4.11.94 0 0 2.25-3.4 4.02-4.24 0 0 4.2-2.74 4.4 5.46l3.26-3.01s2.53-2.08 5.33.75c0 0 4.77 4.62 5.42 5.94 0 0 1.05 1.43 1.13 3.68 0 0 0 2.54 1.3 3.95 0 0 1.5 1.32 2.94 1.6 0 0 3.41.1 4.63 3.3 0 0 .56-.55 2.24 14.8v27.99L724.64 302l-30.27-8.67-12.06-5-2.71-8.85 11.68-7.54 6.36-17.15-2.06-12.07z" fill="#e4cb5e" stroke-miterlimit="2.61"/><path d="m776.1 250.7 1.44-2.13 3.43-2.64s5.23 13.73 5.48 16.73v4.26s7.85 2 9.22 14.07l-6.48 11.93-10.15-5.65-2.93-2.14V250.7z" fill="#784421"/></g></g><path d="M679.93 345s.38-.5.12-.7c0 0-.16-.24-.6.32 0 0-2.07 2.31-.43 5.86 0 0 .19.5.51.34 0 0 .28-.14.03-.56 0 0-1.47-2.93.37-5.26z" fill="#fff"/><g stroke="#000"><path d="M710.55 342.68s.3-1.06-.44-2.2c0 0-.5-.81-.31-1.88" fill="none" stroke-miterlimit="10" stroke-width=".83"/><path d="M717.26 220.48s.03 2.95.87 5.12 3.69 5.91 3.87 7.94" fill="none" stroke-miterlimit="10" stroke-width=".62"/><path d="M788.48 322.74s4.76.28 7.2 1.5 4.3 2.55 7.1 4.34c0 0 1.3 1.74 6.82.68 0 0 9.53-2.28 9.53 5.16 0 0 11.4.94 6.73 10.93 0 0-3.18 7.83-9.72 2.27 0 0 4.2 6.03-3.93 8.38 0 0-5.8 1.42-7.47-4.52 0 0-.94-2.36 1.3-5.28 0 0-2.8-.56-4.76-3.58 0 0 5.98 7.56-.56 10.28 0 0-8.22 2.07-8.7-6.51 0 0 .68-3.96-2.5-5.37 0 0-6.56-1.51-9.55-8.81 0 0 9.42-5.02 8.5-9.47z" fill="#c8102e" stroke-linejoin="round" stroke-width=".83"/><g stroke-width=".62"><path d="m713.5 233.54 7.78 62.78m-5.98-62.92 8.73 58.52m-7.1-58.8 10.05 58.05" fill="none" stroke-miterlimit="10"/><path d="M735.61 285.23 717.4 222.3l-.66.18 16.1 63.68z" fill="#784421"/><path d="m722.51 230.82 18.4 46.5m-19.63-45.74 17.76 48.56" fill="none" stroke-miterlimit="10"/></g></g><path d="M692.14 357.1s-2.14-2.04-1.84-5.71c0 0 .12-.79-.27-.9 0 0-.42-.17-.48.74 0 0-.6 3.83 2 6.03 0 0 .17.22.46.16 0 0 .3-.07.13-.32z" fill="#fff"/><g stroke="#000"><path d="m723.34 230.2 18.97 42.4m-24.16-39.77 11.64 57.1" fill="none" stroke-miterlimit="10" stroke-width=".62"/><path d="M813.33 275.15c-8.31-4.72-10.14-15.18-10.14-15.18-2-10.41 2.06-18.66 2.06-18.66 5.38-11.36 14.58-13.47 14.58-13.47s-9.02 6.26-11.54 14.7c0 0-1.96 7.11-.84 14.13 1.12 7.02.7 5.23 2.43 10.65z" fill="#f5ce00" stroke-miterlimit="2.61" stroke-width=".83"/><path d="m777.54 248.57-34.91 11.02-1.9 15.56c-8.3 12-25.13 14.13-25.13 14.13l13.1 13.95 25.17 5.27 13.2-10.17 11.97-11.06c-1.25-5.9-.56-14.67-.56-14.67 0-1.48.56-4.93.56-4.93s-2.06-14.2-1.5-19.1z" fill="#784421" stroke-width=".38"/><g fill="none" stroke-miterlimit="10" stroke-width=".62"><path d="M741.2 271.24s23-7.18 36.71-12.95m-47.75 26.06s28.7-5.19 48.88-16.68l7.41-5.01"/><path d="m786.45 266.92-7.97 5.68s-32.09 14.8-56.52 15.19m56.51-4.68s-24.66 12.7-38.8 12.9"/></g><path d="M807.88 247.57s7.36-3.39 10.84 0c0 0 4.86-3.01 9.97 0 0 0 4.86 3.17 8.23 6.67 0 0 2.36 2.03 1.5 8.42 0 0-1.25 4.5-.5 6.77 0 0 1.61-.33 4.85 3.51 0 0 4.12 4.77 7.73.56 0 0-1.12 5.85-7.91 4.91 0 0 3.3 2.58.43 9.24 0 0-2.12 4.7 1.25 10.61 0 0-5.92-2.38-5.67-9.36 0 0 .5-4.7-1.25-8.04 0 0 1.75 3.03-2.3 9.49 0 0-3.12 4.65-.56 9.48 0 0-5.86-2.13-5.3-9.23.56-7.1 4.11-4.15 1.8-10.68 0 0-.55 3.34-2.3 5.03-1.74 1.7-3.98 4.52-3.05 9.23 0 0-3.49-4.33-2.68-8.8s1.68-5.8 1.68-5.8l-11.02-6.26-5.49-9.93z" fill="#c8102e" stroke-linejoin="round" stroke-width=".83"/></g><path d="M682.97 287.3s1.03-4.87 5.7-2.95c0 0 1.59-7.98 10.1-8.26 8.5-.29 8.96 8.29 8.96 8.85 0 0 2.5-3.68 6.67-3.25 0 0 7.2-.42 4.51 11.12l1.36 1.45s5.5-12.9 16.8-9.5c0 0 11.03 3.36 3.84 14.04 0 0 5.44 7.07 10.06 6.4s8.72-2.07 13.3-10.17 15.24-9.33 17.95-8.86 4.85 2.23 5.29 4.15c0 0 5.64-18.83 25.92-15.87l8.13 4.09 3.08 1.41-4.6 12.97-11.2 25.32-8.5 2.61-8.87-5.09-3.09 1.66-.25 7.58-11.71 8.43-8.13 3.35-8.97 6.12-2.09 5.48s-4.95-2.09-10.54 0l-1.86-4.53-5.23-5-20.33-9.59-3.67-11.84-3.71-1.66-4.16 4.76-6.07.7-9.07-6.12z" fill="#fff" stroke="#012169" stroke-miterlimit="10" stroke-width=".83"/><g stroke="#000"><g stroke-miterlimit="2.61"><g stroke-width=".83"><path d="M771.5 195.13s-7.76-.34-7.48 7.7" fill="none"/><path d="M822.54 280.56c-13.5-4.14-17.2-18.66-17.2-18.66-2.75-10.88 1.69-20.4 1.69-20.4 6.16-14.49 16.6-14.48 16.6-14.48a5.34 5.34 0 0 1 5.86 4.33c.5 3.18-1.73 4.32-1.73 4.32-3.58 1.95-5.84-.69-5.84-.69-1.5-1.95-.34-3.67-.34-3.67.91-1.3 2.67-.73 2.67-.73 1.4.43 1.25 2.18 1.25 2.18 0 .04.04.04.04.04.06-.01.04-.04.04-.04s.3-2.13-1.78-2.35c0 0-4.06-.88-8.83 5.06 0 0-6.28 8-6.26 18.37 0 0-.8 19.46 19.48 24.5 0 0-2.2 3.16-6.07 14.57 0 0-4.4 14.65-8.58 22.57 0 0-5.58 11.3-18 6.69 0 0-7.4-3.25-7.39-8.62 0 0-.51-4.9 3.92-5.28 0 0 4.35-.33 4.3 3.4 0 0 .12 4.02-4.62 3.1 0 0-1.66-.35-1.36-1.98 0 0 .27-1.46 2.27-.82 0 0 .06 0 .07-.03 0 0 .02-.03-.05-.05 0 0-.77-.35-1.59-.06 0 0-.73.24-.8 1.38 0 0-.04.92.94 1.44 0 0 1.2.43 2.13.33 0 0 1.26 2.54 4.1 3.4a9.92 9.92 0 0 0 9.22-1.55c2.17-1.73 3.57-4.76 4-5.5s4.06-8.9 6.8-17.69c0 0 2.4-7.57 4.31-11.52z" fill="#f5ce00"/><path d="M784.43 317.46s2.53-.34 2.53 1.9c0 0-.16 3.3-4.16 2.57 0 0-3.95-.86-2.55-5.27 0 0 .94-3.11 4.67-2.67 0 0 3.63.17 5.21 5.12 0 0 1.22 4.17-.86 7.75-2.32 4-8.2 6.62-11.03 7.78 0 0-11.35 4.46-14.74 7.01 0 0-5.2 3.86-2.9 7.45 0 0 .9 1.37 2.22 1.37 0 0 1.52.07 1.78-1.49l-.02-.07s-.02 0-.03.04c0 0-.1.95-.93 1.3 0 0-1.1.56-2.27-.42 0 0-1.23-1.18-.2-3 0 0 1.35-2.26 4.49-.93 0 0 2.76 1.37 1.62 4.3 0 0-1 2.71-4.34 2.7 0 0-2.51-.08-4.12-1.76-2.5-2.63-2.64-7.74-.43-10.39 0 0 2.09-2.81 6.28-4.52 2.42-1 7-2.99 11.77-4.86 3.35-1.31 6.42-2.88 8.41-5.24 0 0 1.78-1.98 2.3-5.37 0 0 .48-2.55-1.07-3.1 0 0-.78-.36-1.65-.24l-.03.01s-.03.04.05.03z" fill="#f5ce00"/><path d="M784.64 317.44s2.8-.5 4.54 2.81c0 0 1.03 2.14 1.2 3.38m.9-11.85s-2.8.48-1.35 4.43c1.35 3.72 3.87 4.94 4.61 5.46" fill="none"/><path d="M736.65 203.46s.14 1.13 1.26 1.25c0 0 1.17.38 1.86-1.08l.1-.49c.07-.68.3-2.64-1.82-4.24 0 0-3.45-2.83-10.06.6 0 0-5.23 2.51-8.84 4.65 0 0-9.35 5.02-10.47 5.4 0 0-4.11 2.07-10.4 2.32 0 0-8.6.63-12.25-5.4 0 0-2.77-4.58 0-7.5 0 0 1.12-1.33 2.97-1.08.77.1 1.63.46 2.45 1.42 0 0 1.34 1.95-.21 3.4 0 0-2.03 1.23-2.75-1.39 0 0-.03-.19-.09.05-.04.15-.5 2.15.58 3.85 0 0 5.18 7.84 19.45-.29l18.82-10.55s9.43-4.84 15.07 2.73c0 0 4.55 6.28-1.3 10.4 0 0-4.37 2.6-7.1-1.54 0 0-2.28-4.08 1.3-5.87 0 0 3.15-1.48 4.4 1.66s-2.44 3.96-2.78 1.73c0 0-.1-.54-.19-.03zm-46.06 71.69c8.3-4.72 10.13-15.18 10.13-15.18 2-10.41-2.06-18.66-2.06-18.66-5.37-11.36-14.58-13.47-14.58-13.47s9.02 6.26 11.55 14.7c0 0 1.96 7.11.84 14.13-1.12 7.02-.7 5.23-2.43 10.65z" fill="#f5ce00"/><path d="M732.42 195.13s7.76-.34 7.47 7.7" fill="none"/><path d="M681.38 280.56c13.5-4.14 17.19-18.66 17.19-18.66 2.76-10.88-1.68-20.4-1.68-20.4-6.17-14.49-16.6-14.48-16.6-14.48-5.24-.14-5.87 4.33-5.87 4.33-.5 3.18 1.74 4.32 1.74 4.32 3.58 1.95 5.84-.69 5.84-.69 1.5-1.95.34-3.67.34-3.67-.92-1.3-2.68-.73-2.68-.73-1.4.43-1.25 2.18-1.25 2.18 0 .04-.03.04-.03.04-.07-.01-.04-.04-.04-.04s-.32-2.13 1.77-2.35c0 0 4.07-.88 8.83 5.06 0 0 6.28 8 6.26 18.37 0 0 .8 19.46-19.48 24.5 0 0 2.2 3.16 6.07 14.57 0 0 4.4 14.65 8.59 22.57 0 0 5.57 11.3 18 6.69 0 0 7.4-3.25 7.38-8.62 0 0 .52-4.9-3.92-5.28 0 0-4.35-.33-4.3 3.4 0 0-.12 4.02 4.63 3.1 0 0 1.66-.35 1.35-1.98 0 0-.26-1.46-2.26-.82 0 0-.07 0-.07-.03 0 0-.03-.03.04-.05 0 0 .78-.35 1.6-.06 0 0 .73.24.79 1.38 0 0 .04.92-.94 1.44 0 0-1.2.43-2.12.33 0 0-1.26 2.54-4.1 3.4a9.92 9.92 0 0 1-9.22-1.55c-2.17-1.73-3.58-4.76-4-5.5s-4.06-8.9-6.8-17.69c0 0-2.4-7.57-4.32-11.52z" fill="#f5ce00"/><path d="M719.48 317.46s-2.52-.34-2.52 1.9c0 0 .15 3.3 4.16 2.57 0 0 3.94-.86 2.54-5.27 0 0-.93-3.11-4.67-2.67 0 0-3.62.17-5.2 5.12 0 0-1.22 4.17.85 7.75 2.33 4 8.2 6.62 11.03 7.78 0 0 11.36 4.46 14.74 7.01 0 0 5.2 3.86 2.9 7.45 0 0-.89 1.37-2.22 1.37 0 0-1.52.07-1.78-1.49l.02-.07s.02 0 .03.04c0 0 .11.95.94 1.3 0 0 1.1.56 2.26-.42 0 0 1.23-1.18.2-3 0 0-1.34-2.26-4.48-.93 0 0-2.77 1.37-1.63 4.3 0 0 1.01 2.71 4.35 2.7 0 0 2.5-.08 4.11-1.76 2.5-2.63 2.64-7.74.43-10.39 0 0-2.08-2.81-6.27-4.52-2.43-1-7.01-2.99-11.78-4.86-3.35-1.31-6.42-2.88-8.4-5.24 0 0-1.78-1.98-2.3-5.37 0 0-.49-2.55 1.06-3.1 0 0 .79-.36 1.65-.24l.03.01s.04.04-.05.03z" fill="#f5ce00"/><path d="M719.27 317.44s-2.79-.5-4.53 2.81c0 0-1.03 2.14-1.2 3.38m-.9-11.85s2.79.48 1.35 4.43c-1.35 3.72-3.87 4.94-4.62 5.46m35.84-119.3s6.75-4.22 13.64.46" fill="none"/></g><path d="M706.8 243.67s.93-3.77-3.37-10.37c0 0-2.8-6.03-4.3-9.9m9.72-4.14s2.44 5.93 3.28 8.58c0 0 3.01 7.44 3.65 8.95" fill="none" stroke-width=".62"/></g><g stroke-width=".62"><path d="M710.07 247.81s2.54 2.74 2.25 7.35m-10.66-10.27s2.8 1.35 2.62 8.8c0 0-.28 5.43 3.92 8.17m-6.92 1.91s8.77-.96 9.26 4.45c0 0 .18 5.18 3.17 5.75 0 0 4.48.42 5.37 4.57m-15.04-8.77s1.54 2.31 3.04 3.3m8.22-9s2.23 3.38 2.65 5.36m7-46.03s2.07 2.8 4.06 4.12m4.17 12.44s4.36 2.14 3.62 13.13c0 0-.56 6.45 1.24 9.97" fill="none" stroke-miterlimit="10"/><path d="m712.64 232.5.28 1.04s7.82.33 12.04-5l-.45-1.02s-6.83-.35-11.87 4.98z" fill="#784421"/><path d="M740.8 274.45s27.05-8.06 37.47-12.76" fill="none" stroke-miterlimit="10"/></g><path d="m737.6 223.69 13.37-5.1.31.9-13.38 5.08z" fill="#784421" stroke-width=".38"/></g><g fill="none" stroke-miterlimit="10"><path d="m739.04 224.14 8.88 43.53m-7.34-44.11 10.17 43.32m-8.44-43.98 11.12 43m-6.76-44.65 15.16 32.28m-13.15-33.05 16.16 32.1m-14.68-32.66 17.49 31.77m-20.33 16.32 6.86-2.26m-12.06-2.04s20.12-5.88 35.34-12.02m-35.6 14.22s25.48-6.75 35.6-11.67m-27.83 32.4 1.34 4.08 3.65-1.16-1.25-4.05m6.56-1.8 1.33 4.08 3.65-1.17-1.24-4.04m-21.04-22.99-.32-5.52 33.43-10.15 1.8 4.65m-21.05 1.2 1.82 4.87m9.86-8.43 2.13 4.64m.64-5.48 2 4.4m.65-5.2 2.09 4.58m.06-5.23 3.67-2.07 1.56 4.08m-3.43-3.03 1.87 4.23" stroke="#000" stroke-width=".62"/><g stroke="#012169" stroke-width=".83"><path d="M694.65 306.53s-6.54-6.63 0-13.12c0 0-7.1-3.47-5.98-9.06m17.66 27.43s-6.77.92-4.77-12.27c0 0-2.8 5.23-3.76 7.91a6.02 6.02 0 0 0 2.62 7.02c1.14.7 7.22 2.28 9.18-1.74m-10.84-21.11s-2.76 2.54-.8 7.2m3.65-6.59s.33 4.53 2.57 7.07m-.63-8.86s-.02 5.33 3.8 8.62m-1.9-10.46s.04 5.99 4.48 9.66m17.57-.9s2.24-4.9 6.96-4.66c0 0-2.29 1.04-2.24 3.33 0 0-.28 3.79 3.78 4.16 0 0 3.27.43 4.9-1.36"/><path d="M738.67 319.72s-11.64-5.47-10.42-13.34c0 0 .46-4.8 5.16-7.06m-2.45 5s-1.03 3.38 1.26 5.74m1.35-8.06s-1.4 3.73.94 6.5m1.86-8.3s-1.68 3.07.33 5.85m-10.93 14.47s6.35 5.51 11.3 5.56m-13.31-3.82s5.94 4.81 9.65 5.52m-11.9-4.15s7.35 6.46 11.9 6.93m17.96 5.94s-7.21 3.88-1.62 8m-2.95-12.3s8.17-4.28 11.72-5.88m-8.78 8.1s11.82-7.2 15.33-8.76m-9.26 9.23s10.1-6.73 15.52-9.66m-8.83 9.43s6.96-5.47 13.69-9.43m2.38-6.83s-3.41-5-14.62 0c0 0 4.1-3.73 12.24-6.62m11.32-21.46s.92 4.05-.06 6.5"/><path d="M769.32 309.97s2.33-3.44 8.27-5.14c0 0 1.6 4 6.21 3.11 0 0 6.97-1.37 4.86-9 0 0-1.44-5.7-9.4-6.27m23.66-9.56s8.08 1.46 7.94 8.05c0 0 .65 9.9-9.77 11.83m8.62-15.81s2.22-4.83 7.17-6.8m-6.01-2.83s2.2 3.54 3.71 4.05m-4.87-1.23s2.08 2.55 2.78 2.97m-3.45-.52s1.1 1.62 2.06 2.13m-43.65-40.38s1.57-2.55 5.48-1.47m15.97 20.6s2.47-10.33 11.12-6.51m-3.5-.85s.88-4.76-1.27-7.18m-4.62 6.85s1.1 1.97.15 3.58"/></g></g><path d="M808.2 361.56s9.71-4.43 6.72-11.97c0 0-.92-2.54-3.07-2.35 0 0-3.75.19-3 5.18 0 0 1.12 4.9-.65 9.14z" fill="#64b4d1" stroke="#012169" stroke-miterlimit="2.61" stroke-width=".62"/><path d="M811.72 357.1s2.13-2.04 1.83-5.71c0 0-.12-.79.27-.9 0 0 .42-.17.48.74 0 0 .6 3.83-2 6.03 0 0-.17.22-.46.16 0 0-.3-.07-.12-.32z" fill="#fff"/><path d="M822.03 354.78s6.82-4.29 3.13-11.5c0 0-1.08-2.07-3.13-1.65 0 0-4.26 1.32-.94 7.21 0 0 1.68 3.82.94 5.94z" fill="#64b4d1" stroke="#012169" stroke-miterlimit="2.61" stroke-width=".62"/><path d="M823.73 345s-.37-.5-.12-.7c0 0 .17-.24.61.32 0 0 2.06 2.31.42 5.86 0 0-.18.5-.51.34 0 0-.28-.14-.02-.57 0 0 1.47-2.92-.38-5.25z" fill="#fff"/><path d="M801.6 359.68s-7.61-1.93-6.2-9.8c0 0 .74-3.44 3.96-2.97 0 0 3.89 1 1.36 6 0 0-1.5 3.56.89 6.77z" fill="#64b4d1" stroke="#012169" stroke-miterlimit="2.61" stroke-width=".62"/><path d="M798.66 350.28s-.28-.38.05-.54c0 0 .33-.14.56.31 0 0 .8 1.26.12 2.99 0 0-.63 1.2-.32 2.44 0 0 .04.36-.24.4 0 0-.27-.09-.33-.35 0 0-.38-1.22.28-2.4 0-.01.8-1.86-.12-2.85z" fill="#fff"/><path d="M807.07 344.79s4.3-2.42 7.85.4c0 0-.36-1.56-3.08-2.25 0 0-1.46-4.15-5.58-3.77a27 27 0 0 0 3.93 3.7s-2.37.25-3.12 1.92zm3.18-11.36s2.92 2.15 4.1 3.6c0 0 1.2-1.48 2.75-2.37 0 0-1.79-.24-2.74.57 0 0-1.5-1.45-4.1-1.8z"/><path d="M793.3 342.68s-.3-1.06.44-2.2c0 0 .5-.81.31-1.88m30.6-63.02s4.54-.31 5.29-3.83m7.97-2.32s-1.58-.07-3.01 1.38c0 0-1.1 1.63-2.66 1.44" fill="none" stroke="#000" stroke-miterlimit="10" stroke-width=".83"/><path d="M817.91 262.2s2.37 0 3.68-1.13c0 0 1.37-.94 2.18.57 0 0 1.25 2.13-1.06 3.07 0 0-2.86 1.45 1.68 4.34 0 0-5.42-1.95-3.24-4.59 0 0 2.37-1.7 1.5-2.32 0 0-.25-.5-1.18.12-.94.63-2.8.38-3.56-.06z"/><path d="M821.13 204.99s1.07-1.46.64-5.82 3.35-4.87 4.8-3.62c0 0 1.51 1.3.13 4.08-.8 1.6-2.08 3.66-5.57 5.36z" fill="#64b4d1" stroke="#012169" stroke-miterlimit="2.61" stroke-width=".62"/><path d="M822.56 201.73s1.42-1.53.74-4.85c0 0 0-.32.19-.35 0 0 .34-.08.4.24 0 0 .76 3.54-.84 5.46 0 0-.3.28-.5 0 0 0-.2-.2 0-.5z" fill="#fff"/><path d="M819.92 203.4s-.1-1.76-3.15-4.75-.54-5.75 1.32-5.73c0 0 1.93.03 2.63 2.98.4 1.7.74 4.04-.8 7.5z" fill="#64b4d1" stroke="#012169" stroke-miterlimit="2.61" stroke-width=".62"/><path d="M819.45 199.57s.05-2.15-2.7-4.4c0 0-.22-.27-.1-.4 0 0 .2-.3.47-.07 0 0 2.97 2.37 3.04 4.96 0 0-.03.42-.37.32 0 0-.3-.03-.34-.4z" fill="#fff"/><path d="M815.8 202.08s-.8-1.44-4.56-2.77-2.74-4.62-1.16-5.32c0 0 1.64-.72 3.4 1.48a10.05 10.05 0 0 1 2.31 6.6z" fill="#64b4d1" stroke="#012169" stroke-miterlimit="2.61" stroke-width=".62"/><path d="M814.15 199.44s-.86-1.98-4.3-2.84c0 0-.31-.14-.25-.33 0 0 .06-.35.4-.26 0 0 3.68.89 4.83 3.2 0 0 .14.4-.2.45 0 0-.3.11-.48-.22z" fill="#fff"/><path d="M818.15 203.51s-1.76.5-5.78-1.45-5.78 1.44-5.08 3.25c0 0 .74 1.87 3.85 1.54 1.8-.2 4.2-.66 7-3.34z" fill="#64b4d1" stroke="#012169" stroke-miterlimit="2.61" stroke-width=".62"/><path d="M808.8 204.8s1.82 1.12 5.13-.16c0 0 .33-.07.39.12 0 0 .15.32-.18.44 0 0-3.52 1.4-5.78.17 0 0-.35-.24-.09-.48 0 0 .18-.26.52-.1z" fill="#fff"/><path d="M812.26 190.8s2 .97 1.54 3.33" fill="none" stroke="#000" stroke-miterlimit="2.61" stroke-width=".83"/><path d="M821.14 191.13s.78 2.49-.08 3.83" fill="none" stroke="#000" stroke-miterlimit="10" stroke-width=".83"/><path d="M682.53 204.99s-1.07-1.46-.63-5.82-3.36-4.87-4.82-3.62c0 0-1.5 1.3-.12 4.08.8 1.6 2.08 3.66 5.57 5.36z" fill="#64b4d1" stroke="#012169" stroke-miterlimit="2.61" stroke-width=".62"/><path d="M681.1 201.73s-1.42-1.53-.74-4.85c0 0 0-.32-.18-.35 0 0-.35-.08-.4.24 0 0-.77 3.54.83 5.46 0 0 .3.28.5 0 0 0 .2-.2 0-.5z" fill="#fff"/><path d="M683.74 203.4s.11-1.76 3.15-4.75.54-5.75-1.32-5.73c0 0-1.93.03-2.63 2.98-.4 1.7-.74 4.04.8 7.5z" fill="#64b4d1" stroke="#012169" stroke-miterlimit="2.61" stroke-width=".62"/><path d="M684.21 199.57s-.05-2.15 2.7-4.4c0 0 .23-.27.1-.4 0 0-.2-.3-.47-.07 0 0-2.97 2.37-3.04 4.96 0 0 .03.42.37.32 0 0 .3-.03.34-.4z" fill="#fff"/><path d="M687.87 202.08s.8-1.44 4.55-2.77 2.74-4.62 1.16-5.32c0 0-1.64-.72-3.4 1.48a10.05 10.05 0 0 0-2.31 6.6z" fill="#64b4d1" stroke="#012169" stroke-miterlimit="2.61" stroke-width=".62"/><path d="M689.51 199.44s.86-1.98 4.3-2.84c0 0 .31-.14.25-.33 0 0-.06-.35-.4-.26 0 0-3.68.89-4.83 3.2 0 0-.14.4.2.45 0 0 .3.11.49-.22z" fill="#fff"/><path d="M685.51 203.51s1.76.5 5.78-1.45 5.79 1.44 5.08 3.25c0 0-.74 1.87-3.85 1.54-1.8-.2-4.2-.66-7-3.34z" fill="#64b4d1" stroke="#012169" stroke-miterlimit="2.61" stroke-width=".62"/><path d="M694.87 204.8s-1.82 1.12-5.13-.16c0 0-.34-.07-.4.12 0 0-.15.32.18.44 0 0 3.52 1.4 5.78.17 0 0 .35-.24.09-.48 0 0-.17-.26-.52-.1z" fill="#fff"/><path d="M691.4 190.8s-2 .97-1.54 3.33" fill="none" stroke="#000" stroke-miterlimit="2.61" stroke-width=".83"/><path d="M682.52 191.13s-.78 2.49.09 3.83" fill="none" stroke="#000" stroke-miterlimit="10" stroke-width=".83"/><path d="M769.74 168.27s1.27 3.64.72 6.93c-.49 2.94.18 3.7 1.25 4.29.92.5 3.05-.38 3.3-2.69 0 0 2.53 4.93-2.37 8.25 0 0-3.53 2.17-6.52-.73-1.06-1.02-1.52-3.84-1-6.46 0 0 .76-3.54-.52-7.18 0 0 2 2.14 1.5 6.41 0 0-1.03 7.67 4.64 7.3 0 0 3.93-.05 4.04-4.8 0 0-1.47 1.69-3.29 1.12a3.26 3.26 0 0 1-2.27-3.62c.23-2.06.8-5.66.52-8.82zm-6.43 12.6s-.32 6.06-5.86 7.54c0 0 .78-1.1-.47-4.12 0 0-1.21-1.76-1.12-4.49 0 0-1.76 1.38.25 5.03 1.22 2.2.16 4.84-.22 4.93-.37.1 9.16-1.26 7.42-8.89zm-7.2-6.03s-1.34-1.51-1.43-5c-.1-3.48-.75-4.33-1.22-4.74 0 0 .69 3.01.5 4.87s.13 2.92.37 3.8c0 0-3.02.47-4.92-3.93-1.81-4.2-3.64-3.86-4.55-3.83 0 0 1.06.12 3.18 3.96 2.12 3.83 2.71 4.62 8.07 4.87zm-14.14-9.11s1.74 4.18 1.8 6.38c0 0-4.05-1.36-5.14-4.87 0 0-4.33 1.47-2.74 6.47 0 0-3.73-1.32-5.42-4.37 0 0 2.1 1.57 4.02 2.26 0 0-.22-4.02 4.83-5.53 0 0 .75 3.6 3.27 4.46 0 0-.19-2.26-.62-4.8zm6.66-7.16s1.4 2.04 4.27 2.13c1.37.05 2.85-.26 4.27-2.13 0 0-.19 3.55-4.27 3.58 0 0-4.27.15-4.27-3.58zm-17.65 24.26s2.13 1.93 2.57 2.57c0 0 1.5 1.46 2.78-.43 0 0 1.64-3.02 3.64-2.94 0 0-1.42 1-3.02 3.85 0 0-.43 1.05-1.63 1.17-.55.06-1.26.24-2.32-.88 0 0-.92-1.12-2.02-3.34zm21.92-38.5c-4.27 0-.67 3.3-.67 3.3.1 5.23-4.1 6.84-6.96 5.33-2.86-1.52-.62-5.33-.62-5.33s-3.23 2.12-1.17 5.19 7.44 1.7 9.42-1.13c1.98 2.82 7.37 4.19 9.43 1.13s-1.17-5.19-1.17-5.19 2.23 3.81-.63 5.33c-2.85 1.51-7.05-.1-6.96-5.33 0 0 3.6-3.3-.67-3.3zm2.59-5.65s1.5 2.55 1.17 6.4c0 0 1.35-3.86-1.17-6.4zm-13.09 5.99s-.32-2.78-3.03-3.02c0 0 2.29 1.65 3.03 3.02zm21.03 0s.33-2.78 3.04-3.02c0 0-2.3 1.65-3.04 3.02zm-25.32 4.24s2.14.66 3.45-.95c0 0-2.47.66-3.45.95zm-6.97-17.06s2.5-.28 5 3.44c0 0-2.47 1.32-3.08 2.12 0 0 0-1.23 1.21-2.31 0 0-.46-1.88-3.13-3.25zm41.87 0s-2.5-.28-5 3.44c0 0 2.48 1.32 3.08 2.12 0 0 0-1.23-1.21-2.31 0 0 .47-1.88 3.13-3.25zm-19.3 2.78s2.25.61 5.05-.94c0 0 3.46-1.84 5.65 0 0 0-1.91-.86-5.6.94 0 0-3.7 2.02-5.1 0z"/><path d="M756.05 136.89s1.91-3.36 7.76-2.7c0 0-1.6 4.68-7.76 2.7z" fill="#fff"/><ellipse cx="760.08" cy="135.85" fill="#784421" rx="1.16" ry="1.46"/><ellipse cx="760.08" cy="135.85" rx=".69" ry=".9"/><path d="M743.52 129.73s3.7.23 5.94 1.65c0 0 2.38 1.41 5.1-.62 0 0 2.94-1.7 4.83-4.05 0 0-4.51 3.11-6.2 3.58 0 0-1.54-1.17-2.14-2.87 0 0 .23-1.27 2.66-3.63 0 0-3.27 1-3.92 3.77 0 0 .6 1.7 1.86 3.02 0 0-.6.28-2.2-.71 0 0-3.45-1.18-5.93-.14zm9.38 22.17c-3.2 2.76 0 2.47 0 2.47s3.2.29 0-2.47zm-1.85-17.27s-2.24.61-5.04-.94c0 0-3.46-1.84-5.66 0 0 0 1.92-.86 5.61.94 0 0 3.7 2.02 5.1 0z"/><path d="M748.72 136.89s-1.92-3.36-7.76-2.7c0 0 1.59 4.68 7.76 2.7z" fill="#fff"/><ellipse cx="744.69" cy="135.85" fill="#784421" rx="1.16" ry="1.46"/><ellipse cx="744.69" cy="135.85" rx=".69" ry=".9"/><path d="M865.72 106.66V318.4c0 56.56-113.06 74.93-113.06 74.93S639.6 374.96 639.6 318.4V106.66z" fill="none" stroke="#000" stroke-width="2"/></svg>