<svg xmlns="http://www.w3.org/2000/svg" xmlns:xlink="http://www.w3.org/1999/xlink" viewBox="0 0 1440 720"><path fill="#f7e017" d="M0 0h1440v720H0z"/><path d="M0 50v320l1440 150V350z" fill="#fff"/><path d="M0 220v150l1440 300V520z"/><g fill="#cf1126"><path d="M695.74 569.72c-19.36-2.57-37.11-8.73-49.44-17.17-2.39-1.64-4.64-2.98-4.99-2.98-.36 0-.65 1.82-.65 4.07 0 6.37-2.56 9.58-9 11.25-6.16 1.6-15.56-1.63-23.18-7.95-7.89-6.55-17-11.55-24.71-13.55-6.35-1.66-14.78-1.39-20.87.65-2.83.95-6.05 2.29-7.17 2.98-1.11.69-2.36 1.25-2.76 1.25-1.08 0-.93-6.85.2-9.04 1.49-2.87 5.16-5.7 9.44-7.26 2.16-.79 3.93-1.8 3.93-2.25s-.73-2.1-1.62-3.65c-2.9-5.08-1.71-10 3.35-13.87 5.18-3.96 13.95-4.64 21.7-1.69 1.95.74 3.77 1.35 4.04 1.35 1.02 0 .4-1.43-2.41-5.52-3.24-4.74-3.88-7.08-3.48-12.72a14.71 14.71 0 0 1 13.47-13.5c5.82-.42 9.44 1.54 18.03 9.72 25.65 24.46 53.54 37.94 86.07 41.59 8.21.92 24.73.43 34.42-1.03 29.27-4.41 58.76-19.13 81.79-40.82 6.38-6.01 9.45-7.6 14.68-7.62 4.55-.02 7.74 1.45 11 5.05 2.97 3.3 3.98 6.43 3.66 11.44-.21 3.21-.73 4.79-2.64 7.9-2.82 4.59-2.34 5.01 3.24 2.85 7.54-2.94 16.83-1.58 21.84 3.18 4.41 4.19 4.83 8.38 1.4 14.06-1.25 2.08-2.27 4.03-2.27 4.34 0 .57.95.84 5.53 1.58 5.99.96 9.42 5.41 9.42 12.21 0 2.04-.25 3.7-.56 3.7-.3 0-2.57-.83-5.04-1.85-6.98-2.88-10.95-3.62-19.11-3.57-6.21.04-8.35.33-12.68 1.74-6.63 2.17-13.72 6.35-19.5 11.5-6.37 5.68-10.38 7.47-16.58 7.42-5.76-.06-9.7-1.73-11.78-5.02-1.11-1.76-1.27-2.83-1-6.81.18-2.59.14-4.71-.07-4.71-.22 0-2.46 1.42-4.99 3.17a80.55 80.55 0 0 1-18.47 9.83c-23.18 9.17-56.63 13.14-82.24 9.75z"/><path d="M706.34 525.17c-38.58-3.7-75.5-23.8-97.94-55.66-24.37-33.23-32.05-77.11-24.61-117.24 3.95-18.26 11.93-36.54 25.54-49.55-10.85 23-14.51 49.37-8.73 74.29 9 49.75 51.04 91.87 101.34 99.15 19.9 5.77 40.5-.32 59.5-6.49 41.94-14.78 73.88-54.58 77.78-99.08 3.33-24.08-.36-49.11-11.21-70.91 6.18 3.27 13.99 16.08 18.59 24.7 16 31 16.73 68.16 7.31 101.24-12.78 42.1-44.96 78.98-87.5 92.39-19.32 6.3-39.85 8.23-60.07 7.16z"/><g id="a"><path d="M512.02 469.9c-2.53-.4-5.32 2.1-4.36 4.7 1.82 2.63 4.96 3.92 7.8 5.18 6.79 2.72 14.17 3.78 21.47 3.6-2.52 0 .86.03 1.8 0a49.61 49.61 0 0 0 16.94-2.98c3.02-1.06 6.87-2.02 8.1-5.36 1.21-2.18-.98-4.35-3.18-3.91-3.07.67-5.95 2.06-9 2.86a57.7 57.7 0 0 1-20.3 2c-4.98-.6-9.8-2.2-14.4-4.14-1.6-.7-3.1-1.73-4.87-1.95z"/><path d="M514.83 459.52c-2.56-.38-4.76 2.56-3.7 4.9 1.97 2.86 5.28 4.37 8.36 5.7a42.4 42.4 0 0 0 16.98 2.88c-2.2 0 .75.03 1.56 0 4.91 0 9.8-.96 14.33-2.83 2.77-1.08 6.17-2.12 7.32-5.18.9-1.67.22-4.11-1.9-4.24-1.92-.1-3.59 1.13-5.37 1.68a44.27 44.27 0 0 1-20.62 3.21c-4.36-.56-8.52-2.16-12.47-4.03-1.48-.71-2.82-1.83-4.49-2.09z"/><path d="M518.28 449.57c-2.2-.26-3.7 2.2-3.33 4.18.33 1.73 1.88 2.9 3.17 3.96 5.33 3.9 12.08 5.56 18.63 5.34-2.55 0 3.4.04 1.6 0a27.95 27.95 0 0 0 11.96-2.83c2.49-1.08 5.4-2.34 6.25-5.18.4-1.32.65-3.22-.84-3.97-1.57-.87-3.12.47-4.54 1.02a34 34 0 0 1-15.51 3.77c-4.65.15-9.03-1.8-13.07-3.91-1.46-.75-2.67-2.04-4.32-2.38z"/><path d="M481.53 302.7c-3.26 3.26-.77 9.27-.95 13.54 1.7 13.16 3.79 26.49 8.7 38.87 6.02 12.1 18.8 18.58 26.53 29.27 2.77 5.16 1.79 11.36 2.37 17a975 975 0 0 1 .05 46.1c6.94 3.49 14.47 7 22.45 5.65 4.74-1.13 13.52-1.83 14.5-6.54-.38-26.5-.63-53.01-.98-79.5-2.7-8.13-10.95-12.33-17.13-17.52a155.47 155.47 0 0 1-14.19-16.1c-2.62-4.42-12.87-6-9.16 1.68 2.17 6.65 7.72 11.6 9.1 18.6.31 3.83 4.89 10.88.98 13.11a24.54 24.54 0 0 0-10.68-9.95c-4.43-3.3-11.76-4.68-13.36-10.52-1.17-8.28-5.41-15.78-10.89-21.99 1.41-7.43 0-16.73-6.42-21.49l-.92-.21z"/><path d="M491.44 304.19c-2.96.48-2.86 4.25-1.5 6.24a27.17 27.17 0 0 1 1.07 13.4c5.27 6.17 9.35 13.55 10.58 21.65.03 3.04 3.23 4.05 5.31 5.55 4.87 3.1 10.35 5.35 14.69 9.24.9.97 1.6 2.02.95.03-.67-2.55-1.02-5.36-3.02-7.28-2.73-2.94-6.15-5.57-10.13-6.46-.33-4.12-2.3-7.9-4.1-11.54-2.01-3.47-4.1-7.2-7.54-9.46.13-6.1.03-12.5-2.59-18.12-.77-1.45-1.9-3.16-3.72-3.25z"/><path d="M499.73 306.62c-2.06.61-1.67 3.16-1.02 4.72 1 4.31 1.15 8.77 1.07 13.18 3.79 3 6.16 7.35 8.32 11.59 1.35 2.83 2.64 5.75 3.15 8.86 3.08 1.02 5.77 2.95 8.18 5.08-.96-2.88-3.08-5.11-4.5-7.75-1.56-2.73-3.04-5.59-3.7-8.69-2.96-3.16-4.59-7.63-3.94-11.95.13-4.78-1.4-9.71-4.6-13.31-.81-.8-1.77-1.67-2.96-1.73z"/><path d="M509.16 307.97c-1.12.2-1.8 1.27-2.4 2.14-.24.87.83 1.8 1 2.76a21.81 21.81 0 0 1 1.42 10.42 13 13 0 0 0 2.08 7.07 3.86 3.86 0 0 1 3.39-2.84c.57-.1 1.4.19 1.08-.69-.4-4.78-1.13-9.6-2.8-14.11-.65-1.62-1.39-3.32-2.79-4.42-.28-.2-.62-.38-.98-.33z"/></g><use xlink:href="#a" transform="matrix(-1 0 0 1 1440 0)"/><path d="M715.67 475.98c-13.5-1.28-25.67-11.12-29.83-24 .23-2.22 2.99 1.24 4.3 1.47 2.44 1.36 5.1 2.48 7.91 2.66 3.56 1.53 5.76 5.03 9.16 6.86 1.57 1.23 7.15 3.64 6.11-.26-1.3-2.04-2.2-4.63-1.08-6.96 1.9-4.15 4.8-7.77 7.73-11.23 2.16-.72 3.6 3.53 5.14 4.96 2.13 3.27 4.7 7.28 3.44 11.35-1.22 1.5-2.02 6.05 1.25 4.52 4.02-1.77 7.31-4.74 10.65-7.52 2.91-2.04 6.65-2.18 9.7-3.97 1.43-.36 4.38-3.2 5-1.62-1.68 4.49-4.49 8.5-7.49 12.21-4.86 5.55-11.43 9.73-18.78 10.9-4.35.8-8.8.97-13.21.63z"/><path d="M731.53 460.22c.3-2.7-.32-5.47-1.7-7.93-2.13-4.33-5.12-8.17-8.05-11.97-2.76-1.61-4.29 3.66-6.12 5.18-2.86 4.27-6.44 8.65-6.62 14.03-1.6 2.5-4.6-2.04-5.9-3.53-2.46-3.5-4.33-7.62-4.02-12a50.77 50.77 0 0 1 3.62-20.57c1.93-5.58 5.07-11 4.75-17.1.23-4.6-.7-9.67-4.42-12.75-3.54-2.78 2.29-3.37 4.14-1.93 3.17.21 4.88 5.45 7.78 4.15 1.15-2.73 1.38-6 3.76-8.13 2.33-3.2 4.77 1.36 5.57 3.49 1.65 1.87-.1 6.5 2.58 6.63 3.2-2.25 5.5-6.02 9.6-6.85 1.66-.94 4.5-.12 2.3 1.79-3.03 2.84-5.62 6.4-6.17 10.63-.93 5.3.4 10.69 2.7 15.47 4.46 9.39 7.9 20 5.64 30.44-1.04 4.65-4.2 8.65-8.03 11.34-.48.3-1.25.28-1.41-.39z"/><path d="M726.73 389.63c-1.46-2.62-3.22-5.21-5.67-7-2.38 0-3.85 3-5.47 4.58-1.13 2.1-2.51 5.64-5.3 2.88-4.45-2.6-5.24-8.28-5.2-12.96-.29-7.6 2.77-14.67 5.48-21.59 1.73-4.33 1.3-9.2.25-13.63-1.32-5.1-5.41-8.62-8.56-12.6.22-1.53 4.24-.7 5.75-.4 3.36.85 5.37 3.82 7.87 5.92 1.78-.54 1.06-4.14 1.88-5.83.07-2.38 3.24-5.52 4.55-2.11 1.95 2.17-.07 6.46 2.46 7.81 2.42-.89 3.6-3.52 5.87-4.72a7.96 7.96 0 0 1 7.78-.5c.84 2.22-2.64 4.06-3.65 5.98a20.4 20.4 0 0 0-3.74 18.12c1.37 4.86 3.81 9.4 4.65 14.43a40.12 40.12 0 0 1-.48 17.16c-.88 3.38-3.8 5.64-6.83 7.04-.74-.69-1.14-1.71-1.64-2.58z"/><path d="M711.61 326.89c-3.36-2.46-4.47-4.81-4.47-9.46 0-2.38.44-3.67 2.01-5.83 2.31-3.2 1.89-4.21-1.38-3.27-5.26 1.51-7.77.13-7.95-4.35-.08-2.19.38-3.12 3.33-6.66 2.36-2.84 3.22-4.33 2.75-4.8-.46-.46-3.25 1.96-8.98 7.79-4.57 4.65-9.71 9.4-11.42 10.56-9.84 6.64-19.24 7.67-23.53 2.56-2.2-2.61-2.08-4.08.46-5.66a27.38 27.38 0 0 0 4.39-3.69c2.95-3.07 11.74-9.41 16.1-11.61 3.54-1.79 4.38-3 2.08-3-2.98 0-12.54 6.22-19.79 12.88-2.13 1.97-5.2 4.16-6.81 4.87-3.62 1.6-10.73 2.19-13.89 1.15-2.23-.74-6.3-4.58-6.3-5.95 0-.36.93-1.16 2.06-1.77 1.13-.6 3.16-2.07 4.5-3.24 5.8-5.09 16.79-10.33 25.51-12.16 2.77-.58 1.75-1.98-1.34-1.84-5.99.26-17.88 5.83-24.98 11.69-8.32 6.86-20.87 6.21-24.91-1.29-.7-1.29-1.11-2.5-.91-2.69.19-.19 2.66-.93 5.49-1.65 3.06-.77 9.12-3.28 14.91-6.17 9.11-4.54 11.81-5.51 18.08-6.52 2.82-.45 2.97-1.83.23-2.15-3.53-.42-8.94 1.35-18.5 6.05-12.28 6.04-15.72 7.08-22.19 6.7-5.9-.36-9.23-1.87-14.02-6.4-3.13-2.97-7.57-10.51-6.7-11.38.21-.21 1.65 0 3.2.45 1.72.51 6.65.85 12.59.86 8.31.02 10.52-.2 14.95-1.48 7.41-2.14 17.26-7.15 24-12.18 12.89-9.64 23.4-13.51 36.8-13.57 12.37-.05 20.24 2.81 27.21 9.88 2.36 2.39 4.37 3.94 4.7 3.61.31-.31.65-4.49.75-9.29 0 0 3.64-.35 4.41.67 0 7.79.09 8.4 1.22 8.4.74 0 1.53-.76 2.02-1.94 1.06-2.55 4.98-6.04 9.17-8.16 9.05-4.59 24.71-4.73 37.29-.34 5.3 1.86 11.18 5.18 16.78 9.5 5.62 4.32 17.11 10.1 23.9 12.03 6.87 1.95 18.98 2.44 25.19 1.03a61.85 61.85 0 0 1 5.34-1.06c2.29 0-1.61 7.63-6.19 12.1-8.37 8.18-19.26 8.14-34.58-.12-9.55-5.14-20.97-7.95-20.97-5.15 0 .58.6.97 1.49.97 3.32 0 9.73 2.23 18.67 6.47 9.67 4.6 15.1 6.54 18.32 6.54 2.34 0 2.41 1.45.23 4.65-2.31 3.41-6.23 5.1-11.77 5.09-5.29-.02-8.23-1.18-12.96-5.11-7.91-6.58-27.62-13.92-26.86-10 .15.78 1.1 1.26 3.13 1.57 6.86 1.05 14.91 4.89 23.15 11.06 2.54 1.91 5.18 3.79 5.85 4.19 1.13.66 1.15.86.26 2.53-1.48 2.76-5.21 4.9-9.25 5.32-5.23.54-9.78-1.02-14.49-4.96-9.94-8.32-19.31-14.34-22.31-14.34-2.45 0-1.35 1.35 2.97 3.64a79.7 79.7 0 0 1 15.82 11.03c2.03 1.88 4.32 3.74 5.08 4.15 1.8.96 1.73 2.37-.25 4.96-2.02 2.64-5.36 3.8-9.69 3.34-8.64-.91-15.38-5.08-25.97-16.07-4.14-4.29-7.83-7.8-8.21-7.8-1.41 0-.58 1.91 2.15 4.97 3.38 3.78 4.03 5.91 2.75 8.98-1.13 2.72-3.01 3.35-6.87 2.31-3.95-1.07-4.57-.1-1.98 3.12 3.86 4.81 3.29 10.7-1.44 14.75-1.47 1.25-3.01 2.28-3.43 2.28-.41 0-1.45-1.07-2.32-2.38-3.04-4.62-5.71-4.59-8.67.08a53.61 53.61 0 0 1-1.93 2.94 113.1 113.1 0 0 1-3.08-2.23z"/><path d="m726.67 233.03-5.13 4.06-4.6-3.47v27.74l9.73.12z"/><path d="M694.89 204.25c-1.02 13.11-4.35 22.26-8.98 32.35l11.1-10.29 7.72 9.17 8.36-9.33 8.53 7.88 8.2-8.2 8.52 9.97 7.4-8.2 12.54 9c-4.55-10.09-10.71-18.64-9.94-32.84-12.15 9.03-41.02 10.66-53.45.49z"/><path d="M716.95 197.56c-4.46.08-9.16.14-13.39.97a20.12 20.12 0 0 0-7.81 3.1c.36 8.53 41 12.09 51.9.16-2.29-1.67-5.09-2.66-8.17-3.26-4.07-.79-8.57-.87-12.84-.94l.02 7.04-9.71-.03v-7.04z"/><path d="m724.9 153.97-6.31.05v49.38l6.44.03z"/><path d="m724.89 155.24-2.41 23.64 24.32 11.88-12.31-16.46 16.81-5.45zm-2.71-6.16c-3.69 0-6.42 1.38-6.42 3.02s2.73 3.03 6.42 3.03 6.4-1.39 6.4-3.03-2.71-3.02-6.4-3.02z"/></g><g fill="#f7e017"><path d="M711.05 563.82c3.99-1.32 6.26-3.74 7.89-8.4.81-2.32 1.36-4.73 1.22-5.36-.34-1.49-2.06-1.41-3.96.17-1.3 1.09-1.46 1.64-1.09 3.86.95 5.6-1.04 6.99-11.64 8.13-1.05.11-4.09-.07-6.77-.4-5.04-.63-6.84-.13-5.01 1.39a9.55 9.55 0 0 0 3.11 1.37c2.83.73 13.22.24 16.25-.76zm21.97-.93c.6-.55 2.66-1.5 4.58-2.12 2.56-.82 3.88-1.7 4.96-3.31 3.11-4.63 2.53-8.62-2.04-14-2.48-2.92-3.58-2.84-5.56.4-1.71 2.8-1.67 2.98.79 3.62a5.43 5.43 0 0 1 3.21 2.45c2.68 4.64 1.89 7.51-2.08 7.54-3.6.03-4.59.54-5.56 2.87a12.5 12.5 0 0 0-.92 2.87c0 .98 1.36.81 2.62-.32zm-7.21-5.24c.68-1.84.92-5.15.84-11.9-.05-5.14-.25-9.5-.45-9.7-.6-.6-3.56 1.31-3.95 2.54-.2.64.13 2.12.73 3.28.92 1.79 1.04 3.46.76 10.47-.36 8.86.22 10.35 2.07 5.31z"/><path d="M708.89 553.43c.36-1.65.82-5.03 1.03-7.5s.72-5.59 1.12-6.94c1.02-3.46-.01-4.37-2.74-2.43l-2.03 1.45.42 4.97c.39 4.48-.32 12.83-1.35 16.07-.28.86.12.64 1.25-.68a13.2 13.2 0 0 0 2.3-4.94zm-15.01 2.41c3.65-3.05 3.23-8.27 4.04-12.52-.08-2.82 1.8-6.21.59-8.68-3.42.62-5.52 3.85-3.77 7.07.14 3.74.01 7.8-1.91 11.11-1.57 2.17-6.54 1.63-6.31-1.44 1.24-4.6-4.28-2.36-6.43-1.15-1.67 1.16-5.18 1.24-3.96-1.66-.8-3.87-5.78-1.45-8.48-1.46-2.55-.05-.21-5.18-3.88-4.28-6.8-.53-14.32.06-20.2-4.05-3.45-1.66-2.94-5.8-1.15-8.49 2.15-3.66 2.76-8.25 6.16-11.09 3.37-3.23-3.18-1.87-4.65-.78-3.28 1.8-.23 6.43-2.92 9-1.57 2.65-3.64 6.33-7.27 5.82-5.24-.99-8.26-5.86-12.02-9.13-3.21-.64-1.4 5.22.26 6.45a32.76 32.76 0 0 0 11.09 5.32c3.94-.63 4.07 4.54 7.44 5.35 6.19 2.88 13.09 3.74 19.84 4.1 2.65.22 1.16 4.94 4.64 4 1.95.5 6.35-.72 6.57 1.54-2.95 3.5 2.83 3.43 4.98 2.8 2.74-.42 6.24-1.46 6.97 2.3 2.29 2.4 6.49 2.05 9.28.67.39-.23.76-.5 1.09-.8z"/><path d="M634.12 525.57a35.8 35.8 0 0 0 3.69-6.34c.91-2.09 2.28-4.46 3.03-5.27 1.76-1.9.78-3.07-2.06-2.44-1.5.33-2.11.88-2.36 2.18-.85 4.24-2.39 8.58-3.76 10.6-2.48 3.66-2.54 3.81-1.52 3.81.53 0 1.87-1.14 2.98-2.54zm-37.46-23.48c-2.8 0-2.92 1.77-.19 2.72 1.32.46 2.44 1.57 3.34 3.38 2.66 5.29 4.22 6.23 11.28 6.84l4.53.41.22 2.75c.11 1.52.47 2.78.82 2.78s2.1-.76 3.87-1.66c3.32-1.68 6.47-5.6 6.47-8.03 0-1.59-2.65-3.31-5.06-3.31-1.07 0-3.11.86-4.72 2.03-5.04 3.65-10.43 2.91-13.38-1.84-2.42-3.92-4.95-6.07-7.18-6.07zm24.46 9.75c1.34 0 1.67.99.94 2.88-.5 1.3-2.13 1.34-2.62.06-.58-1.51.23-2.94 1.68-2.94zm189.72-6.15c-1.83.07-2.37.47-3.53 2.19-1.9 2.82-2.09 8.93-.34 11.09 1.09 1.34 1.25 1.37 3.56.41 3.22-1.35 3.76-1.3 3.75.43-.02 4.42-6.36 12.94-13 17.47-1.79 1.22-3.39 2.58-3.56 3.03-.48 1.26 1.98.98 5-.56 4.12-2.1 9.53-7.62 11.75-11.97 1.76-3.47 2.01-4.65 2.22-10.72.19-5.59.04-7.23-.91-9.09-1.06-2.09-1.4-2.28-4.06-2.28h-.88zm.22 3.9c1.38 0 1.62.31 1.78 2.29.14 1.64-.15 2.64-1.06 3.46-1.24 1.12-1.34 1.11-2.44-.56-1.54-2.36-.59-5.19 1.72-5.19zm-30.36 42.68c5.85-2.88 9.3-6.12 11.52-10.81 1.05-2.23 1.91-4.33 1.91-4.69 0-.81-2.88-2.15-4.61-2.15-1.72 0-2.07-1.19-1.33-4.48.72-3.21-.15-7.23-1.56-7.23-.51 0-1.41.75-2.01 1.66-.92 1.41-.97 2.01-.29 4.06 1 3.04.21 5.31-2.51 7.25-1.29.92-2 1.98-2 3.01 0 .87.11 1.58.24 1.58.14 0 1.56-.74 3.16-1.63l2.92-1.63 1.72 1.35c.94.74 1.72 1.95 1.72 2.69 0 3.56-10.15 9.54-17.12 10.1-3.71.3-4.34.17-5.63-1.11-1.05-1.05-1.35-1.93-1.09-3.17l.8-3.84c.64-3.1-.69-2.68-2.99.94-1.89 2.99-2.45 6.18-1.39 7.86.87 1.37 6.65 2.68 10.74 2.43 2.57-.15 5.11-.87 7.8-2.19zm39.04-21.78c3.68-3.67 5.24-8.14 5.26-15.05l.01-5.19 3.04-1.44c3.95-1.88 7.69-5.62 7.69-7.7 0-2.14-.95-2.03-2.67.3-1.25 1.69-2.92 2.71-9.03 5.52-1.54.71-1.64 1.09-1.99 7.55-.41 7.45-1.42 10.24-5.58 15.33-2.55 3.1-2.64 3.51-.87 3.51.73 0 2.59-1.27 4.14-2.83zm-40.08-4.16c.35-1.07-1.68-1.83-2.56-.96-.37.37-.47 1.01-.22 1.42.58.93 2.42.62 2.78-.46zm55.27-14.31c.36-1.07-1.68-1.83-2.55-.96-.38.38-.48 1.02-.23 1.43.58.93 2.42.62 2.78-.47zm-66.52-38.74c-1.43.68-2.17 2.22-3.17 3.4-.71.49-.14.94.27 1.4 2.53 2.72 3.6 6.39 4.8 9.81 1.17 4.04 2.65 8.38 1.42 12.59-.48 1.61-1.75 3.28-3.65 2.74-3.03-.18-6-.99-9.05-.96-2.7.14-4.8 2.6-7.56 2.34-1.76.11-1.69-3.62-3.33-2.62-.81 1.94-.41 4.12-.51 6.18.3.3 1.16.03 1.68.12h5.44c.39 1.88.34 4.04 1.7 5.53 1.88.67 4 .1 5.8-.64 1.93-.9 2.19-3.21 2.73-5.02.58-1.94 3.12-1.43 4.62-2.19 3.66-1.07 6.06-4.88 5.85-8.62-.24-5.73-2.42-11.11-4.08-16.53-.83-2.38-1.4-4.87-2.38-7.2-.1-.2-.34-.37-.58-.33zM759.34 506c2.04-.13 2.92 2.37 2.49 4.03-.76 2.25-3.54.8-4.1-.82-1.03-1.45-.39-3.4 1.61-3.21z"/><path d="M683.94 487.22a5.02 5.02 0 0 0-2.94 1.03c-5.31 3.72-6.67 8.12-3.06 9.84 2.65 1.27 1.98 2.76-2.19 4.85-5.97 2.98-11.24 2.61-21.25-1.53-2.46-1.02-3.1-.63-2.53 1.62.55 2.21 2.57 3.42 7.59 4.56 5.4 1.24 11.93.84 16.13-.97 2.05-.88 4.48-2.73 6.53-4.96l3.25-3.57 3.78.47c4.66.57 4.75.62 4.75 2.85 0 1.77.1 1.81 4.38 2.21 2.41.23 5.58.44 7.06.44 1.89.01 2.96.34 3.59 1.22.84 1.17 1.34 1.23 8.38.6 6.58-.6 7.87-.55 10.84.46a15.3 15.3 0 0 0 6.19.82c5.04-.57 11.99-4.69 13-7.72.12-.37 1.95-1.02 4.06-1.44 5.09-1.02 5.31-2.13.56-2.72a34.19 34.19 0 0 1-6.87-1.69 18.26 18.26 0 0 0-5.25-1.25c-2.56 0-4.97 1.6-4.97 3.25 0 1.08.38 1.19 3.41.88 2.85-.29 3.68-.13 5.18 1.06.99.78 1.65 1.7 1.44 2.03-.67 1.09-6.62 3.8-9.25 4.22a7.02 7.02 0 0 1-4.56-.62c-2.31-1.2-5.71-1.38-6.35-.35-.27.45-1 .16-2-.78l-1.56-1.47-3.53 1.47c-3.59 1.49-4.91 1.43-4.91-.28 0-.78-1.05-.87-6.34-.53-5.83.38-6.44.28-7.53-.94-1.01-1.12-1.03-1.51-.31-2.66.66-1.06.66-1.52.03-2.15s-1.45-.62-3.75 0c-5.8 1.55-7.44.68-7.44-3.85 0-2.72-1.56-4.37-3.56-4.4zm-1.44 4.16c.31 0 .57.19.97.59.51.51.78 1.4.56 1.97-.52 1.35-2.98 1.3-3.5-.06-.25-.66.07-1.4.81-1.94.52-.38.85-.57 1.16-.56z"/><path d="M672.1 495.6c3.53-2.24 3.45-2.07 3.96-8.29.35-4.39.29-4.72-.9-4.72-1.73 0-2.63 1.9-2.63 5.52 0 2.32-.36 3.36-1.6 4.59-2.94 2.94-10.24 1.6-11.16-2.05-.31-1.25.09-2.38 1.62-4.55 3.19-4.53 2.47-5.64-1.44-2.2-2.69 2.35-3.17 2.42-2.66.39.47-1.87-.51-2.61-2.7-2.06-1.12.28-1.73.98-2 2.34-.26 1.33-.87 2.07-1.93 2.33-1.77.45-4.79-1.23-4.79-2.66 0-1.06 4.52-6.58 10.32-12.6 2.19-2.28 3.98-4.4 3.98-4.72s-1.17-.58-2.6-.58c-2.09 0-2.6.23-2.6 1.2 0 .66-2.92 4.49-6.5 8.52-7.46 8.4-8.08 10.15-4.39 12.39a9 9 0 0 0 9.77-.35l2.42-1.65v2.99c0 3.82.76 5.19 3.76 6.78a12 12 0 0 0 12.07-.62zm156.56-51.91c-2.77 1.65-.6 5.12-.18 7.43-1.13 3.14-5.17 4-8.12 4.58-4.17.69-7.13 4.18-8.72 7.89-.86 2.4-2.94 6.14-5.2 2.48-1.97-2-5.58-3.58-7.9-1.25-1.77 1.68-2.22 4.16-2.88 6.4-1.04-1.72-1.51-4.3-3.72-4.84-3.53.5-2.25 4.94-.6 6.78 1.51 2.13 2.96 4.95 1.48 7.5-1.3 3.05-5.8 5.1-8.45 2.5-2.47-1.31-.82-5.97-3.26-6.23-1.2.87-1.3 5.75-3.23 3.1-1.39-2.25-.65-5.35-2.35-7.38-2.01.25-3.63 3.71-2.96 5.57 2.68 3.62 3.78 8.16 4.83 12.47.65 1.72-.1 5.22 1.52 5.9 1.12-2.77.08-5.92.96-8.73 2.62-.33 5.53.87 8.28.23 3.93-.5 6.96-3.82 8.34-7.35.42-2.66-.08-5.35-.15-8.02 3.1.48 6.33.47 9.31 1.48 1.48 2.27-.47 5.45-.88 7.93-1.56 5.05-5.51 8.72-9.36 12.1-1.61.95-1.83 3.47.55 2.11 5.17-2.2 9.03-6.9 11.25-11.96 1.61-3.9.31-8.25 1.37-12.24 1.56-3 5.32-2.37 8.1-2.36 2.88-.1 5.34-3.46 4.38-6.26-.92-3.25 2.52-4.81 4.86-5.97 3.12-1.57 5.5-4.76 5.26-8.36-.13-1.84-.04-5.33-2.53-5.5zm-11.03 18.75c3.33.89-.6 7.25-2.38 3.22a2.49 2.49 0 0 1 2.38-3.22zM802.16 467c4.34-.25 2.78 6.08-.89 3.2-1.9-.95-1.27-3.32.89-3.2zM645.1 491.48c.12-.63-.2-1.08-.77-1.08-1.21 0-1.94 1.06-1.37 1.98.59.95 1.89.41 2.14-.9zm50.84-5.68c0-.93-.35-1.28-1.13-1.13-1.7.32-1.89 2.48-.22 2.48.93 0 1.35-.42 1.35-1.35zm-62.91-30.52c-2.03-.42-3.3 1.3-4 2.94-1.52 2.55-3.37 5.16-6.1 6.5-1.95.55-4.09-.2-5.78-1.2-2.01-1-1.55-3.43-2.42-5.1-1.45-1.15-4.04.49-3.98 2.27-.16 2.38 2.07 3.76 3.93 4.68 1.57.97 3.85 1.5 4.48 3.46-.04 1.66.63 3.55 2.65 2.91 2.26-.03 2.84 2.72 1.93 4.37-.93 1.86-1.56 4.04-1.11 6.12 1.08.9 2.18-1.53 2.96-2.23l1.6-2.13c4 .22 7.99.73 12 .59 2.85-.05 5.28-1.81 7.09-3.88 2.56-2.68 4.67-5.83 7.6-8.14 2.08-.5.96-4.43-1.22-3.3-1.96.74-2.58 2.95-3.93 4.36-2.32 2.8-4.68 5.65-7.6 7.85-2.12.88-4.57.5-6.75 0-.91-.8 1.8-1.45 2.19-2.33 1.25-1.25 2.73-2.44 3.46-4.08-.7-1.52-2.82-1.64-4.31-1.67-3.69.44-6.5 3.53-10.23 3.83-2.82.1-1.35-2.96-.08-4 2.5-2.97 5.19-5.75 7.79-8.62.74-.88 3.4-1.73 1.7-2.98-.6-.21-1.24-.21-1.87-.22zm1.81 14.97c1.86 1.04-1.18 2.76-2.47 2.52-1.68.5-1.7-1.21-.21-1.55.84-.44 1.72-.9 2.68-.97zm-5.72 3.9c1.06-.01 3.28 1 1.2 1.65-1.45 1.13-3.09-1.14-1.2-1.64z"/><path d="M674.15 476.74c0-1.41-2.53-1.21-2.81.22-.18.92.11 1.14 1.29.97.84-.12 1.52-.65 1.52-1.19zm112.05-9.92c.26-1.35-1.62-2.25-2.61-1.26s-.08 2.87 1.26 2.61a1.85 1.85 0 0 0 1.35-1.35zm-174.38-13.73c1.76-1.51 1.78-1.61 1.02-4.93-1.08-4.65-1.01-5.15.76-5.59 2.24-.57 7.93 2.48 9.19 4.92.98 1.89.95 2.02-.71 3.56-1.79 1.65-1.78 3.58.01 3.58 1.48 0 5.57-3.87 5.57-5.26 0-1.93-4.54-6.49-8.13-8.16a16.08 16.08 0 0 0-7.01-1.53c-4.6 0-5.22.99-3.98 6.34 1.46 6.27-.52 7.12-5.57 2.39-3.75-3.51-5.23-7.16-5.21-12.91.01-6.17 2.37-9.22 7.69-9.94 3.53-.47 3.44-1.3-.19-1.84-5.3-.8-9.78 2.74-11.48 9.06-1.89 7.01 2.44 15.55 10.1 19.95 4.01 2.3 5.61 2.37 7.94.36zm208.84-7.69c.43-.43.78-1.4.78-2.15s.73-2.36 1.62-3.57c.9-1.21 1.63-2.45 1.63-2.75 0-1.23-2.03-1.19-3.63.08-1.64 1.28-2.87 1.31-2.87.06 0-.31.78-.95 1.74-1.42 2.38-1.16 2.58-2.31.57-3.23-2.58-1.17-5.17.97-5.44 4.5-.17 2.36.02 2.77 1.84 3.84 1.66.98 1.97 1.5 1.69 2.9-.48 2.43.53 3.28 2.07 1.74zm19.63-2.22c1.44-1.29 2.61-2.76 2.61-3.25s1.24-1.79 2.76-2.88c4.31-3.1 5.26-6.23 3.33-11.04-.75-1.89-3.11-4.5-8.24-9.12-3.94-3.56-7.57-6.47-8.04-6.47-1.4 0-1.15 5.15.27 5.6 2.56.82 4.11 1.87 8.14 5.5 4.68 4.23 6.84 8.18 5.66 10.38-1.13 2.13-2.63 1.47-6.76-2.96-2.17-2.33-4.32-4.23-4.76-4.23-.48.01-.82.85-.82 2.03 0 1.48.79 2.89 2.93 5.27 3.49 3.88 3.83 6.21 1.21 8.27-.94.74-1.91 1.35-2.15 1.35-.23 0-1-1.16-1.7-2.57-1.46-2.96-10.39-12.39-11.73-12.39-.61 0-.91.76-.91 2.26 0 1.81.36 2.45 1.8 3.19 1.77.92 6.15 5.33 10.55 10.65 1.26 1.52 2.5 2.75 2.77 2.76.26 0 1.65-1.06 3.08-2.35zm8.76-25.07c-.58-1.87-12.56-14.2-13.79-14.2-.64 0-.84.76-.69 2.72.17 2.38.43 2.79 2.07 3.22 1.02.27 4.18 2.75 7.01 5.5 2.82 2.75 5.3 4.84 5.5 4.63.2-.2.16-1.04-.1-1.87zM777.5 556.89a1.78 1.63 0 1 1-3.56 0 1.78 1.63 0 1 1 3.56 0zm6.29-2.1a1.78 1.63 0 1 1-3.56 0 1.78 1.63 0 1 1 3.56 0z"/></g></svg>