<svg xmlns="http://www.w3.org/2000/svg" viewBox="0 0 900 600"><path fill="#ffd520" d="M0 0h900v600H0z"/><path d="M0 600h900V0z" fill="#ff4e12"/><g stroke="#000" stroke-width=".52"><g fill="#fff"><path d="M481.74 187.59c-4.99-1.77-8.2.8-8.05 7.24.16 6.44 3.55 10.15 8.53 7.73l-.48-14.97z"/><path d="M486.12 175.53c-4.15-3.28-8.03-1.87-9.95 4.28-1.91 6.15.1 10.74 5.6 10.05l4.35-14.33z"/><path d="M493.04 163.86c-3.58-3.9-7.63-3.14-10.5 2.62-2.88 5.77-1.63 10.62 3.9 10.83l6.6-13.45zm-4.54 56.73c-6.12 2.25-6.76 10.63-2.9 15.78 3.87 5.15 10.95 6.11 14.81 0l-11.9-15.78z"/><path d="M481.42 202.88c-5.8-1.93-11.02 5.85-11.91 12.88-1.13 8.85-13.69 11.75-6.76 25.11 1.44-8.53 7.08-13.2 11.59-13.52 4.5-.32 11.27-1.29 14.16-6.76l-7.08-17.71zm18.35 34.45c-6.76 1.61-7.73 10.63-2.9 17.06 4.13 5.52 17.06 4.19 16.74-1.28l-13.84-15.78zm19.16 54.25c.32-5.8-9.01-8.05-13.52-6.92-4.5 1.12-13.12-.16-15.13-5-1.61 3.87.72 8.06 7.24 10.15 4.94 1.58 4.83 5.15 3.38 6.76 3.7.64 14.65.64 18.03-4.99z"/><path d="M513.62 254.56c-6.6-2.9-10.51 1.52-13.04 5.8-3.7 6.27-15.13-1.78-19 6.6 5.24-2.26 10.56 2.55 13.04 4.18 7.09 4.67 20.77 3.22 22.7-7.73l-3.7-8.85z"/><path d="M517.48 262.28c-6.6 4.99-9.18 10.95-9.01 14.97.16 4.03 5.8 12.88 11.91 13.36 3.54-7.24 5.31-22.54-2.9-28.33zm-27.36 31.07c0-2.41 3.54-3.38 5.95-2.58 2.42.8 6.12 3.22 4.83 5.8l-10.78-3.22zm-36.39-13.2c-.64-2.9 4.03-7.89 10.3-5.15 6.28 2.74 7.09 8.05 4.5 10.14l-14.8-4.99z"/><path d="M469.02 285.46c-.48-1.61 4.04-4.83 11.75-2.9 7.73 1.93 9.62 6.9 9.34 10.79l-21.1-7.89zm-16.09-5.31c4.03-3.06 2.5-8.86-1.13-10.63-6.6-3.21-4.18-11.59-8.37-13.2-4.18-1.6-8.2-4.5-8.37-7.4-2.1 4.02-.8 7.73 2.1 10.3 2.9 2.58-2.26 13.04 1.44 15.78l14.33 5.15zm-86.29-2.25c-3.38-5.31-11.43-4.35-14.81-.64-3.38 3.7-2.9 9.17.32 11.59l14.49-10.95zm19.32-7.89c-1.29-7.08-9.82-7.89-14.49-6.12-4.67 1.77-7.89 8.86-4.83 14l19.32-7.88z"/><path d="M398.84 269.04c3.06-5.96-2.9-14.81-9.66-16.1-5.64-1.07-12.31-1.04-14.49-6.6-1.37 4.83 2.26 7.89 6.44 10.63 4.19 2.73-.8 9.82 5.96 13.84l11.75-1.77z"/><path d="M398.2 269.25c-1.4-4.27 1.45-9.94 7.23-9.55 5.79.4 9.08 4.6 6.53 9.86l-13.76-.31z"/><path d="M411.07 269.57c-.8-4.42 2.83-9.64 8.5-8.44s8.34 5.83 5.08 10.68l-13.58-2.24z"/><path d="M423.86 271.6c-.57-4.46 3.3-9.49 8.91-8 5.6 1.49 8.04 6.24 4.54 10.91l-13.45-2.91zm-97.14 73.75c-10.79 0-13.42 2.57-14.97 13.68-1.93 13.85 16.9 15.46 14.97-13.68z"/><path d="M331.55 330.86c-16.58-6.28-25.6 19.96-42.02 15.3 5.88 9.33 20.12.01 25.44.96 9.01 1.6 28.5-1.77 16.58-16.26zm-10.79 35.9c-8.21-3.7-17.06 8.85-15.45 14.33 2.04 6.95 20.76 1.28 15.45-14.33zm-38.31 54.09c4.5 1.28 9.98 3.86 9.01 12.55-.96 8.7-17.38 26.4-32.19 27.37-14.81.97-20.12 18.83-32.84 13.84 11.91-2.25 11.91-15.77 21.25-19.96-6.76-2.41-10.3 12.88-19 12.88-8.69 0-12.87 13.85-23.5 12.88-10.62-.96-11.74 16.85-33 17.07-16.26.15-36.38 19.15-43.62 10.94 15.77-2.25 22.14-11 31.55-20.6 15.13-15.46 32.2-8.54 37.99-22.22a39.56 39.56 0 0 1-22.86 6.76c-9.9-.2-20.77 15.78-31.87 8.7 6.43-.8 10.62-3.55 17.38-10.63 6.93-7.25 17.08-2.57 25.11-9.98 12.56-11.6 23.35-1.93 35.42-16.42-3.38-1.6-10.63-.48-17.39 3.06s-15.45-2.42-23.18 1.77c.97-9.5 19-4.06 30.27-10.63 12.71-7.4 23.26-5.23 33.32-4.34-14-.08-19.48-13.36-38.8-9.5-8.42 1.69-15.13-11.59-23.5-4.83.24-4.99 9.02-9.01 18.03-4.18 9.02 4.83 12.65-4.23 30.59 7.08 7.4 4.67 20.12-2.9 28.17 2.1-1.05-3.07-5.64-5-11.03-4.6 3.38-6.92 25.2-6.03 34.7.9z"/><path d="M296.78 410.38c-7.08-5.47-16.9 1.13-23.66-1.45 0 4.5 2.25 11.27 9.65 13.85 2.26-1.61 12.4-10.47 14.01-12.4z"/><path d="M307.89 394.77c-11.1-5.63-13.04 8.37-21.73 5.47.32 4.03 3.54 9.02 10.62 10.15l11.11-15.62z"/><path d="M314.49 382.05c-16.42-6.44-18.51 9.34-28.17 6.28 2.25 5.47 16.1 8.37 23.18 6.44l4.99-12.72zm22.53-69.06c-4.35-6.12-13.52-1.13-14.97 6.12-1.45 7.24 2.1 17.38 8.2 15.13l6.77-21.25z"/><path d="M348.13 293.67c-7.57-1.77-16.26-.97-15.3 6.44-2.9 1.29-3.7 10.79 4.2 12.88l11.1-19.32z"/><path d="M353.12 288.68c-7.4-8.7-15.66-8.5-20.28-4.83-8.54 6.76-16.83 2.9-17.07 9.66 5.15-3.94 9.66.8 13.85-.64 4.18-1.45 7.24 6.6 18.83 3.22l4.67-7.41zM335.25 418.6c1.13 2.1 8.05 3.06 11.43-.48 4.48-4.7-.48-17.71-7.57-18.68-7.08-.96-7.72 14.65-3.86 19.16z"/><path d="M327.2 418.92c10.14 3.7 14.49-4.67 9.01-9.98-1.44 1.77-6.76 8.2-9.01 9.98z"/><path d="M289.21 432.76c-1.93 5.8-11.91 6.76-23.18 24.8-11.27 18.02-22.05 10.46-24.8 22.85 13.53-10.95 24.15-3.67 32.2-14.49 12.24-16.42 22.31-14.06 27.05-25.11 6.76-15.78 36.38-15.45 37.99-40.24-9.98-1.94-41.53 24.79-49.26 32.19zm254.03-243.4c12.88 4.19 13.2 20.93 28 26.4 14.82 5.47 16.27 18.67 28.34 15.45-11.27-3.05-10.46-16.1-22.21-19.31-13.78-3.78-19-24.8-29.95-28.01m54.9 92.88c2.25 5.15 1.93 14.33-6.12 16.74 4.35 2.74 10.79.16 14.33-5.8-5.31 11.76-1.77 22.38 6.6 24.48-4.03-8.21 4.99-12.08 2.1-17.39 5.3 2.25 9.97 9.5 9.81 14 6.93-7.72-5.15-18.03-2.9-25.27l-23.82-6.76zm-83.39 82.74c-7.89-6.92-11.25 1.81-15.13-1.2-3.62-2.82-8.45-3.23-10.3-.41 6.76.24 3.46 5.47 16.58 6.76-13.13.89-10.7 15.54-19.48 14.81 9.33 8.86 14.16-7.89 21.73-5.15-2.25.64 3.54 5.96-.48 13.04 6.52-.16 9.17-9.18 9.98-13.84l-2.9-14.01zm-173.7 75.18c-2.9-2.41-11.27-3.54-14.49-1.6-3.22 1.92-2.09 2.4 1.77 2.73 3.87.32 8.86 6.57.49 6.92-3.87.16-2.58 9.5-10.63 10.14 3.3 4.03 12.72 1.37 16.1-3.06-.65 3.62 4.18 6.92 2.25 11.27 5.96.65 2.5-12.07 11.92-11.43-3.87.49-2.26 9.18 4.5 6.92-4.02 1.94-1.93 6.6 2.58 5.48-2.9.96-3.87 4.66.16 6.76 3.86-5.31-.48-24.3-14.65-34.13zm350.62-177.62a22.31 22.31 0 1 0 0-44.62 22.31 22.31 0 0 0 0 44.62z"/><path d="M579.3 284.02c6.76-6.44 17.07-9.66 24.15-4.83 7.08 4.83 30.58 10.63 42.17 2.58 11.6-8.05 17.07-12.24 22.22-11.27 3.86 5.8 8.53 8.53 14.33 9.01 1.77 1.93 8.05 3.54 11.59 3.06 5.15 1.29 11.43-.32 16.42-5.8 7.73 1.13 14.97-4.66 17.7-13.36 8.21-.96 8.7-10.14 3.55-16.25-4.83-.97-1.13-17.23-18.68-14.01 7.4 4.5 1.77 13.52 7.9 17.7-4.2 0-9.59 1.78-10.87 8.06 1.6-4.35-.25-7.25-1.38-8.21.17-3.7-8.04-12.8-15.77-9.5 5.55 1.2 2.42 10.14 6.44 13.52-2.9.16-5.96 1.61-7.73 4.19-2.09-3.7-9.5-7.57-14-7.9 0-1.28-.24-3.85-.8-5.14-2.02-3.87-3.71-8.45-2.9-14.33-3.87 4.19-7.09 9.98-9.02 14.17-6.12-4.19-21.25 1.93-28.33 3.54-7.08 1.6-30.91-2.26-36.38-8.05-5.48-5.8-16.1-9.34-26.08-12.23-13.72-3.99-13.85-19-28.98-29.3-.32 18.67 28.01 77.91 34.45 84.35zm-157.76 142.3a21.57 21.57 0 1 0 0-43.14 21.57 21.57 0 0 0 0 43.14z"/><path d="M370.02 409.74c4.35 5.63 11.75 5.31 14.81 4.83 2.58 6.76 10.79 6.6 14.33 10.3 3.54 3.7 15.61 3.38 19.15 1.29-3.21-.32-7.4-2.25-11.43-5.64-4.85-4.07-2.57-12.23-6.44-15.13 2.9-3.22 3.39-8.53 2.74-10.62 3.06-1.77 5.31-4.67 5.64-6.12 5.3-.32 9.98-3.06 11.9-5.15 2.75 2.58 9.67-.8 13.37 3.54.8-10.62-9.34-16.26-16.1-12.72-2.74-1.44-9.98-.48-11.27 1.45-2.25-.96-8.53 2.26-11.43 4.35 3.22-1.77 3.7-7.08 2.42-9.02 2.74-1.12 5.8-4.82 6.12-7.56 3.86.64 9.65-1.93 12.23-1.29-4.18-5.47-11.1-7.4-18.2-6.92-7.32.4-10.45 5.55-11.42 11.1-4.35 2.58-5.8 11.28-4.18 14.33-2.5-.08-4.83 2.34-5.8 3.7a33.38 33.38 0 0 0-11.67-2.49m1.53-8.77c-1.45-4.19.47-7.95 1.45-11.27 2.5-8.45.96-10.62-6.6-9.5-.64 4.03 3.22 17.23 5.15 20.77z"/><path d="M360.77 352.91c1.93 1.93 8.77 2.82 9.5-3.3.83-7.02-2.01-9.74-8.13-7-.48 1.6-1.05 8.2-1.37 10.3z"/><path d="M362.22 342.37c2.58 1.05 8.13 3.14 11.19-2.82 2.56-5-.8-8.85-6.12-8.53-1.29 1.45-3.86 6.6-5.07 11.35z"/><path d="M366.97 330.54c.64 1.93 7.24 8.37 12.07 3.7 4.83-4.67 4.83-11.59-2.41-14.16-1.93.32-7.73 7.08-9.66 10.46z"/><path d="M376.62 320.08c1.45 4.02 5.96 10.95 14.33 7.73 8.37-3.22 4.83-13.69.96-15.78-2.25.16-11.43 4.35-15.29 8.05z"/><path d="M391.92 312.03c-.64 3.54 0 13.2 11.43 13.04 11.43-.16 8.21-13.52 5.31-15.46-4.67 0-12.55.17-16.74 2.42z"/><path d="M409.14 310.09c-1.29 2.74-4.19 20.75 18.2 15.78 2.89-.65 10.45-17.23-18.2-15.78z"/><path d="M421.37 311.7c-2.25 2.25 3.54 20.44 18.68 17.39 15.13-3.06 2.41-20.29-18.68-17.39z"/><path d="M434.25 314.44c-2.41 4.99 1.21 19.8 19.88 19.8 16.92 0-.88-19.48-19.88-19.8z"/><path d="M448.9 318.79c-1.21 2.77-2.7 18.47 19.32 19.8 15.93.97 12.07-21.57-19.32-19.8z"/><path d="M472.57 325.39c-2.73 4.83-5.63 16.9 18.51 17.87 15.47.62 5.96-17.55-18.51-17.87z"/><path d="M492.69 329.09c-3.54 4.83-.93 14.3 8.05 16.1 11.27 2.25 12.87-8.37 5.15-13.52-7.73-5.16-13.2-2.58-13.2-2.58z"/><path d="M503.64 331.34c-2.58 4.5-.98 15.45 16.1 15.45 3.54 0 17.06-13.84-16.1-15.45zM371.48 541.27a25.04 25.04 0 1 0 0-50.09 25.04 25.04 0 0 0 0 50.09z"/><path d="M555.15 177.13c-1.93 1.93-5.95 7.73-6.76 9.98-8.37 25.11 13.97 43.87 27.04 70.83 10.3 21.25 9.02 54.73-7.08 75.98-5.5 7.27-3.86 9.34-10.95 16.74-2.71 2.85-5.8 6.44-4.83 16.75 4.51-1.61 10.95 2.57 12.24 6.11 3.22-1.6 7.73-.96 9.34.97 5.47-2.58 9.97-1.29 14.8 3.86 4.2-.64 8.7 0 12.88 4.51 2.26-4.5 6.76-6.12 9.98-5.15-.32-5.8 5.48-9.98 10.63-7.73a9.53 9.53 0 0 1 12.23-11.27c5.8-4.5 17.39-4.83 23.18 1.94-10.3-2.9-9.98 8.04-18.67 7.08 2.25 6.44-3.54 10.14-9.33 12.23 3.7-1.77 7.72-3.86 9-1.6 3.23-2.82 9.67-1.78 11.28-.33 4.26-1.37 8.37-.32 10.3 4.83 5.8 3.54 9.66 12.56 5.47 19.32-1.28-7.09-6.11-6.76-8.05-9.66-4.5 1.6-9.01 1.6-10.3-1.29-2.58 2.58-11.27 4.83-15.13.97-1.45 5.8-6.44 10.62-12.24 10.62 1.62 4.5-2.9 12.24-6.43 16.1 5.47 2.9 3.86 9.34 2.57 13.2 8.37 1.29 1.29 8.7 15.78 13.52-7.08 2.26-20.93 0-22.86-8.7-7.09-.31-11.92-7.4-11.6-14.8-5.47-5.15-6.27-12.56 1.3-17.7-6.44 1.92-9.99-8.38-19.32-4.2-4.65 2.09-16.9-1.44-16.74-5.79-1.94 3.22-13.69 1.93-15.3-3.54-3.86 2.1-12.88-1.45-12.72-6.76-4.99 2.25-11.75-1.77-11.42-6.92-4.67-.65-5.15-4.83-4.83-8.37-4.2-1.94-3.06-5.96-1.45-10.79-2.9-3.22-1.61-7.73.64-11.91-3.22-3.22-2.57-7.09-1.61-11.6-15.45-1.28-34.81-5-79.2-18.67-66.97-20.6-85 27.7-70.19 57.96 17.09 34.92-1.93 42.5 3.87 68.58 6.11 1.28 9.33 6.43 9.01 11.9 3.62.17 6.2 3.55 4.91 9.99 3.06-.57 7 .32 9.58 2.9 2.25-4.19 9.66-5.16 13.52-.33 8.37-.64 12.56 6.12 12.24 14.49 4.5 8.05 2.9 17.87-1.94 24.15.49-3.38 0-8.21-.15-11.1-.3-5.34-7.73-6.45-6.93-10.8-3.86.33-7.56-1.77-8.85-4.66a8.5 8.5 0 0 1-8.21 1.6c4.34 1.94 7.72 9.66 6.44 14.81 2.25 3.87 1.77 10.95-.97 14.01-1.29 6.28-6.12 8.53-12.4 5.8 3.55-2.26 4.84-6.28 4.67-9.66-2.25-1.93-3.38-5.64-3.54-7.9-6.28.97-14.97-4.34-16.57-6.44a25.04 25.04 0 0 0-25.04 25.05c-.65-5.16-7.16-10.23-6.36-14.58-3.86-11.91 1.61-23.02 17.39-25.27-1.93-4.5 4.83-9.18 2.25-14.33-3.29-6.58-9.34-15.13-18.35-25.11 5.47-9.34 3.86-21.9.64-29.62-4.62-11.1-9.01-8.37-25.43 9.66-26.76 29.38-62.46 21.25-94.01 40.56-8.39 5.14-16.74 7.09-7.73-1.92 9.02-9.02 32.84-18.03 48.3-25.76 28.93-14.47 53.44-38.64 63.1-85.64 22.7-110.46 106.24-74.05 159.04-53.45 49.57 19.35 40.56-24.47 15.45-50.87-30.18-31.73-24.14-56.66-9.98-76.62 25.44-3.54 74.22 5.31 64.4 13.84z"/><path d="M644.82 448.48a27.55 27.55 0 1 0 0-55.1 27.55 27.55 0 0 0 0 55.1z"/></g><g fill="none"><path d="M539.7 178.41c-6.12 27.05-.97 39.28 8.05 51.2 18.63 24.61 33.48 80.8 12.23 117.5"/><g stroke-linecap="round"><path d="M571.89 315.41c2.58-.97 7.4-4.02 8.53-9.34m-6.6-2.41c.8-4.67 8.05-6.68 8.2-11.67m-8.04-6.53c-.48-4.83 7.25-9.18 6.12-14m-10.3-3.38c-.65-2.74 6.44-7.89 4.5-12.23m-9.81-4.67c-1.45-3.06 3.38-6.6 1.29-9.82m-9.02-3.71c-.48-2.1 2.5-6.68.89-9.42m-8.62-6.51c.64-.8 3.22-2.74 2.17-5.15m-7.48-6.52c1.05-.56 4.18-1.53 3.78-3.86"/><path stroke-linejoin="round" d="M382.58 513.57c-6.44-2.25-14.49.97-16.1 6.44m4.83 4.99c.8-5.47 9.18-7.89 11.75-5.31-5.31-2.9-7.89 7.4-3.22 7.73m43.31-129.75c-3.86 1.93-4.99 9.02 0 14.33m5.79-12.72c-2.73 2.25-2.58 9.01 1.45 10.63-3.38-2.42 0-6.6 2.42-6.77 2.4-.16 4.02 2.74 1.12 5.64m221.19 6.43c-9.01-2.41-16.26 8.05-8.05 17.39-.16-9.02 6.28-14.97 14.17-13.37m-3.63 6.24a3.37 3.37 0 0 0-3.46 3.42c0 1.77 1.53 3.46 4.02 3.46 1.62 0 2.9-1.85 2.9-3.3m28.33-201.22c1.45 5.47 9.02 7.73 14.97 6.44m0-3.54c-4.67.16-8.53-4.19-8.2-7.89 0 2.74 6.27 4.03 8.2 2.26"/><path d="M384.83 414.57c-1.29-3.22 3.86-6.44 4.02-9.5.17-3.06 5.8-5.47 11.6.32m-2.74-34.28c-1.13.48-2.1 1.13-3.06 1.45m14.17 16.09c-1.37.08-4.19-.08-5.71-1.13m.08 7.25a28.8 28.8 0 0 1-5.07 1.85M347.97 492c-.16 2.9 2.74 7.08 4.35 8.37m8.21-15.29c-1.61 2.41-2.58 6.6-1.61 9.5m25.59.16c-2.9-1.93-.97-6.92-1.29-10.14-.32-3.22 3.38-8.37 10.63-4.03m-36.38-4.18c2.9-.48 5.96-.33 7.89.48m28.81-9.66a10.41 10.41 0 0 0-1.77 5m15.29-5.32c-2.25 0-4.19 1.6-5.15 3.22m-26.08-85.64c2.58.89 9.26 4.99 9.5 9.26m17.87-30.19c-7.89-.16-10.95-8.21-4.99-8.21M418 374.32c-3.06 1.29-1.6 6.6 2.74 9.18m-21.58 41.37c-1.53-1.93.48-7.56 5.47-5.88m6.28 64.64c.32-4.9 6.52-7.8 9.02-2.25m-31.88 16.25c-.4-5.4 2.33-7.16 4.75-7.48 2.41-.32 5.88 1.68 7.48 5.23m-60.2 6.28c.32-3.22 3.06-6.6 5.96-6.12m288.63-136.83c-2.1 1.53-3.46 8.37 4.5 9.02m-16.73 2.25c0 .8 1.05 1.93 1.7 2.41m36.29 10.47c-2.1-1.61-7.49 4.91-2.58 9.66m-48.61 44.43c-1.2-4.59 3.06-5.8 7.08-4.83m-17.38-27.69c2.41-1.61 4.83-3.38 7.89-4.19m-9.18 21.89c0-3.86 1.93-7.08 3.7-8.05m10.46-36.37c-.32 4.67 1.61 9.18 3.06 11.59m35.26-11.27c-2.34.72-4.43 1.61-5.31 3.54m2.73 9.66c1.13-.97 2.42-2.1 2.98-2.9m57.87-137.64c0 4.5-5.63 6.92-9.33 4.02m21.57-3.86c2.5 1.93 11.1.08 9.1-4.9m-19.57 30.82c-1.77-.32-4.83-2.25-6.12-3.86m23.83-9.5a9.4 9.4 0 0 1-6.28-.64m-39.44 16.74c1.6 0 5.47-.64 8.13-2.01m-12.96-26.48c-2.1-.24-3.63.16-4.83.97m37.27 6.91c-.56 2.01-2.01 5.15-3.78 6.52"/><path stroke-linejoin="round" d="M671.86 265.99c4.03-1.77 9.02 11.91 18.68 7.08m.8-14.17c-1.29 1.77-2.1 4.5-2.25 6.92"/></g><path d="M498.81 237.98c1.29-.16 3.54-.64 4.03-2.25M333.16 387.85c4.83 2.74 8.21 7.4 6.12 14.33M554.5 223.17c1.45.97 6.92.97 9.98-.16m3.87 3.38c-.16 2.25.48 10.79-3.86 12.56"/><path d="M566.1 237.82c4.03 1.29 12.07.8 14.65-6.6"/><path d="M575.11 237.49c2.1 3.22 2.73 9.5-3.54 12.88"/><path d="M576.72 242.81c4.67 1.61 15.45 1.77 14.32-7.4"/><path d="M587.35 242.81c3.22 4.5 17.39 9.82 15.13.48m-28.17 12.55c5.47 1.29 13.2-2.42 9.98-12.07"/><path d="M599.74 248.6c.8 3.7 18.83 7.57 16.42-.8"/><path d="M612.78 252.63c3.38 7.73 21.25 7.08 15.62-3.22"/><path d="M625.5 257.45c3.54 4.35 19.32 1.77 13.04-8.7"/><path d="M638.37 257.29c9.82 7.4 21.25-3.22 8.85-10.95"/><path d="M652.86 254.88c8.7 6.92 19.32-5.63 11.75-9.18m-80.49 6.28c2.74.8 8.53.48 9.82-4.5"/><path d="M591.77 250.85c-.32 7.33 12 10.14 15.13 1.7"/><path d="M602.8 257.13c2.25 4.83 13.04 6.76 14.8-.16"/><path d="M615.84 260.19c1.77 4.83 11.1 4.35 13.68-.64"/><path d="M626.14 262.77c2.9 6.28 14.8 6.28 17.55-2.9"/><path d="M641.6 263.89c4.67 2.9 14.65 1.77 13.84-7.24"/><path d="M653.51 263.09c6.92 5.63 16.74.16 11.91-9.34"/><path d="M664.94 270.49c3.7-.64 5.63-8.05 1.77-9.98m-87.57 11.27c7.72-4.19 9.18-11.27 3.86-18.19"/><path d="M585.74 264.7c4.83 2.9 14-.16 15.61-7.24"/><path d="M592.34 265.5c2.73 3.54 3.22 7.89-.33 11.91"/><path d="M594.59 270.01c8.53-5.31 19.15 4.5 11.27 10.46"/><path d="M604.41 269.53c1.93-.48 5.31-4.02 5.63-8.05m-1.77 11.75c3.54-3.7 27.7 3.86 12.4 11.59"/><path d="M619.54 263.09c4.67 1.77 7.08 8.37 0 10.63m6.12 5.47c5.15-5.31 21.25-1.93 15.45 4.83"/><path d="M637.25 277.09c2.9-9.82 20.12-3.7 14.49.32m-18.03-10.14c.48 1.93.64 6.76-2.58 9.34"/><path d="M648.2 265.34a7.68 7.68 0 0 1-.97 6.6m11.91-6.44c.97 1.77 2.58 5.15-.97 7.89m-136.82-81.94c.16 9.18 3.38 15.3 15.78 9.5"/><path d="M525.21 202.4c-6.12 8.21.8 17.06 12.88 8.21"/><path d="M506.37 206.42c8.37 9.01 23.34 2.41 13.68-11.27m10.15 19c-1.61 8.85 5.63 10.63 11.59 6.6m-42.82-12.88c1.52 8.9 10.63 15.94 19.48 10.46"/><path d="M509.92 220.11c0 12.72 17.55 14.17 21.57.97"/><path d="M525.21 229.12c5.63 11.59 17.87 6.92 21.9-.16m-34.3-18.35c2.25 5.63 6.76 11.91 17.23 7.24m-49.42-9.98c1.45 4.67 9.82 10.3 19.48 3.86"/><path d="M486.57 213.83c-5.15 7.57 5.15 14.65 17.55 3.38"/><path d="M492.69 223.17c2.1 10.63 6.28 19.16 21.4 5.47"/><path d="M506.53 234.11c5.47 6.76 13.85 10.95 21.73-.48m5.8 2.41c-.48 8.05 1.13 12.07 7.4 11.75 4.95-.25 9.66-4.18 12.4-8.37"/><path d="M540.34 247.8c-.16 9.18 7.08 16.42 20.6 7.08"/><path d="M545.97 258.58c-2.58 6.92 5.15 18.19 20.28 12.4m-52.31-30.75c-.96 8.85 7.25 14.81 20.45 3.38"/><path d="M520.38 250.05c.48 7.24 8.7 15.94 20.77 3.38"/><path d="M526.17 259.23c-.97 12.4 10.46 15.94 20.12 6.44m-37.34-15.62c2.58.16 4.67-2.1 5.95-3.7m-.48 12.71c2.25.48 6.12-1.61 7.4-4.19"/><path d="M520.06 273.71c2.58 2.74 11.27.8 12.4-2.9"/><path d="M529.72 273.55c4.83 11.27 17.7 10.79 23.02-1.93"/><path d="M550.32 276.13c2.41 6.6 8.53 10.79 18.51 8.53"/><path d="M555.15 282.89c-5.63 9.18 1.77 19.96 14.32 9.34"/><path d="M558.21 296.57c-.64 5.8 4.67 12.4 11.91 13.2m-35.74-30.1c-1.93 13.04 7.4 19.32 19.16 12.4"/><path d="M520.7 285.95c3.06 2.41 8.53 2.74 13.68.8m6.28 7.57c-2.9 10.95 8.37 18.84 18.03 6.6"/><path d="M525.05 287.72c.16 5.63 5.64 11.75 15.13 9.98m26.56 11.27c-6.44 4.35-7.73 12.07 1.29 17.06"/><path d="M550.96 306.71c.33 6.6 3.38 10.3 10.63 10.95"/><path d="M541.47 303.33c-9.66 8.85-.16 19.16 11.27 10.46"/><path d="M548.23 316.53c-3.22 10.14 8.85 16.26 15.3 5.96m-35.26-27.53c-3.54 9.98.97 16.58 9.18 15.94"/><path d="M515.55 293.03c.48 5.96 5.63 8.05 11.43 6.76"/><path d="M519.25 299.31c-4.35 8.37 2.25 12.88 10.95 9.66m26.4 18.67c-1.45 5.31-.65 9.18 7.24 10.95"/><path d="M557.08 335.21c-9.5 4.35-10.3 13.52-2.9 19.48"/><path d="M549.43 324.99c-4.99 4.5-4.03 12.31 1.45 15.37m-43.7-44.75c-5.47 5.4-.24 20.28 11.83 12.15"/><path d="M538.57 314.44c-7.4 6.12-4.03 17.23 8.2 14.17"/><path d="M526.33 309.77c-3.86 10.95-.16 14.81 8.53 14.97m-35.73-29.62c-6.6 4.99-4.83 12.07-1.93 15.3 2.9 3.21 8.37 1.76 10.14-2.42"/><path d="M485.28 290.78c-7.4 9.5 0 20.77 10.47 17.39m29.14 10.78c-7.57 2.74-13.34 9.6-8.7 15.62 2.74 3.54 14.65 4.02 18.03-9.66"/><path d="M511.2 310.09c-4.35 6.28-2.9 12.23 5.15 15.3"/><path d="M510.72 321.85c-4.67 2.58-7.73 5.63-6.6 11.27"/><path d="M500.26 312.03c-1.77 7.57.32 12.23 4.99 14.49"/><path d="M500.1 321.04c-7.25-.48-10.95 2.58-8.53 9.66"/><path d="M492.21 322.81c-7.08-2.58-8.21-8.7-5.15-15.13"/><path d="M486.09 317.18c-7.73.32-11.1 4.19-11.1 9.5m.63-39.61c-5.63 2.41-7.4 9.98-5.31 14.17 2.1 4.18 8.7 4.5 12.72 1.77"/><path d="M459.85 281.12c-5.15 5.8.8 17.06 9.98 14.33"/><path d="M446.65 276.61c-4.83 6.76.48 18.03 12.88 14.81m.64 31.39c-1.29-8.05 7.08-13.36 17.39-2.9"/><path d="M472.57 303.66a12.64 12.64 0 0 0-4.03 10.63m-35.09-41.54c-5.31 9.02 1.13 17.23 12.56 14m17.22 8.37c-7.57 7.57-5 15.13.64 19.48"/><path d="M458.4 303.98c-11.43.16-12.07 13.36-2.73 17.55"/><path d="M449.71 290.78c-4.67 3.22-6.12 12.07 1.93 15.62m-2.25 4.18c-4.83-2.25-10.63.48-10.14 6.12"/><path d="M442.14 310.74c-4.35-10.3-17.06-8.53-15.93 2.1"/><path d="M445.68 298.02c-2.73.48-8.2 2.1-10.3 6.28"/><path d="M436.19 286.43c-5.15 5.8-1.13 12.72 3.06 14.17m-18.35-30.43c-.97 6.92 1.77 10.3 10.46 9.66"/><path d="M423.95 279.03c-3.38 8.37 1.13 12.07 9.82 11.59"/><path d="M425.88 289.33c-5.15 6.12-1.6 12.72 3.38 15.45"/><path d="M423.47 297.06c-9.18-1.13-10.63 9.5-7.57 14.49m.16-42.18c-5.63 2.41-8.85 9.5-5.8 13.84 3.07 4.35 9.18 2.9 12.56.65"/><path d="M412.2 285.14c-4.67 7.08-.48 12.4 4.5 14.49m-22.53-31.07c-3.7 3.86-1.45 11.75 7.57 11.91 7.25.13 10.94-6.76 8.69-11.59"/><path d="M400.45 280.47c-2.9 6.44-1.13 13.36 9.82 12.23m4.67 10.15c-6.76-3.06-15.78 0-11.91 8.05"/><path d="M402.06 291.42c-2.74 3.86-1.77 9.34 1.29 12.72"/><path d="M401.58 301.72c-4.5.8-8.85 3.22-6.12 10.3"/><path d="M394.81 306.23c-5.8-1.77-13.2 2.41-8.7 8.37"/><path d="M385.16 308.97c-4.99-.8-10.95 4.5-6.12 9.82"/><path d="M377.11 314.44c-4.5 1.13-9.82 6.28-5.15 10.3m27.85-35.57c-6.44 2.9-7.08 10.14-4.02 15.45"/><path d="M393.04 275.81c-9.66 3.7-9.5 16.58 1.13 20.6"/><path d="M389.66 293.51c-5.8 3.38-6.92 9.82-3.06 14m-7.08-36.53c-3.86 1.29-3.54 13.2 6.76 12.88"/><path d="M368.9 275c-7.73 5.15 1.61 18.19 14.17 8.85"/><path d="M376.14 287.07c-1.13 5.31.32 11.1 8.85 11.75"/><path d="M376.62 294.16c-6.12 2.25-7.24 14.81 3.86 15.78m-23.33-27.21c-7.89 7.24 6.44 13.52 11.75 3.06"/><path d="M346.2 294.8c-3.86 4.67 9.66 16.9 15.62-3.54m1.44-.32c.32 4.83 3.22 7.73 9.18 8.05m-.16 4.67c-9.5 1.45-12.56 13.36-1.93 15.94"/><path d="M354.73 302.05c-.32 4.5 4.35 8.21 9.66 7.4m4.83 9.82c-8.7 1.93-9.82 13.2-2.1 12.56"/><path d="M363.1 342.29c-7.24-2.17-7.4-10.79-.97-14"/><path d="M357.15 334.72c-6.12 3.7-3.7 12.56-.48 13.84 3.22 1.3 5.8-.32 6.11-3.05"/><path d="M362.3 357.9c.64 4.19-14.9 2.58-6.92-10.46"/><path d="M355.29 358.63c-5.23 8.21 3.3 14.89 8.7 7.89"/><path d="M356.02 368.53c-2.1 6.6 5.88 11.35 11.03 6.2m-28.42-68.02c-2.9 5.96 11.59 8.21 12.56-4.02"/><path d="M334.61 315.57c-2.9 11.59 19 9.18 13.36-5.8"/><path d="M348.45 317.5c3.06 1.77 12.23 1.93 14.49-7.89"/><path d="M356.34 317.82c.64 3.06 3.38 6.76 5.96 7.89m-16.42-4.83c-.97 6.28 5.31 11.43 12.56 10.95"/><path d="M347 327c-3.54 4.83-4.67 14.17 6.44 14.81"/><path d="M330.1 328.61c-1.77 4.99 8.7 10.14 14.81 1.93"/><path d="M326.88 341.32c-.89 3.78 8.53 8.85 13.84-7.24"/><path d="M336.54 342.29c2.25 4.02 9.82 7.24 14.49-.64"/><path d="M343.46 346.48c-1.93 5.63 3.38 10.95 9.82 9.34"/><path d="M331.39 345.19c-1.29 8.05 8.05 12.72 13.84 8.53"/><path d="M325.27 348.73c-2.74 10.3 10.46 14.17 15.45 6.44"/><path d="M337.35 358.23c.48 5.8 9.5 10.79 16.58 5.96m-32.68-1.13c-.64 2.58 10.14 5.15 11.75-3.86"/><path d="M327.53 365.31c2.58 6.6 11.27 8.21 16.26.16"/><path d="M340.89 368.69c1.13 6.12 9.02 9.5 15.94 5.31m2.89 2.42c-1.77 8.21 6.76 14.81 12.07 10.3"/><path d="M346.04 374.97c-2.58 9.02 8.7 14.17 14.97 9.18"/><path d="M332.52 370.46c-.64 8.37 5.96 13.36 13.52 9.66"/><path d="M318.19 371.27c-2.25 5.47 9.66 9.98 15.3 5.31"/><path d="M310.78 386.24c3.06 3.54 13.68 0 14.65-7.89"/><path d="M322.54 384.14c3.86 4.5 13.04 6.92 16.74-2.74"/><path d="M336.06 386.4c-.16 6.92 12.23 11.91 16.26-.8m14.56 2.49c-1.13 3.38 1.53 8.77 7.08 9.42"/><path d="M356.66 386c-.8 3.86 4.83 9.26 10.79 7.08m1.13 1.61c-1.61 4.19-.24 10.22 5.4 10.14"/><path d="M369.14 402.5c-4.19 3.54-2.42 9.82 3.62 10.06"/><path d="M366.97 408.45c-5.96 4.02-3.86 12.88 4.02 12.4m-22.05-29.46c0 8.7 10.79 9.98 12.88 1.93"/><path d="M357.63 398.47c-1.61 5.15 2.58 10.14 9.18 8.7m-7.89 53.44c1.45 2.1 7.4-1.45 5.8-4.99s-7.92-1.61-7.25 2.1"/><path d="M363.26 454.17c.8-7.08-7.57-8.2-9.66-2.1"/><path d="M356.66 448.54c2.1-3.54-4.99-8.37-7.89-3.22"/><path d="M351.35 443.22c1.93-5.15-6.12-7.4-6.76-2.74"/><path d="M342.82 433.72c.97-2.58 9.98-.97 6.12 4.35m6.92 6.44c3.54-3.22-2.41-9.82-6.12-7.4m29.94 17.22c-2.82.32-5.72 2.17-3.62 8.13 1.45 4.13 7.64 4.35 8.53 1.85"/><path d="M375.58 457.31c-2.74-1.77-8.7 1.2-5.96 7 2.06 4.37 7.25 2.58 8.05.33"/><path d="M360.2 465.6c1.37 2.41 8.2 1.37 9.42-1.29m-4.75-6.68c1.45-.97 4.1.24 4.67 1.45m-5.15-41.13c-4.67 3.06-1.77 12.4 5.47 9.98"/><path d="M362.94 425.52c-3.7 2.9-.32 11.91 6.6 8.53"/><path d="M364.07 434.05c-2.58 2.58-.08 9.74 6.6 8.37"/><path d="M363.1 437.59c-1.45-.65-5.23-.16-6.84 2.25m2.66-34.85c-3.54 3.38-1.85 10.3 4.75 10.87"/><path d="M357.63 412.07c-5.07 2.5-5.07 12.55 5.07 12.96"/><path d="M357.23 423.42c-2.82 2.25-1.45 10.95 5.8 9.82"/><path d="M359.56 432.92c-1.05 1.05-1.2 3.7-.32 4.83m-2.9-8.13c-2.58.08-5.96 1.93-6.84 4.59"/><path d="M344.83 424.87c.97-2.58 8.94-2.41 9.5 5.15"/><path d="M355.13 421.01c-1.13.24-3.3 1.29-3.86 3.46m.4-27.04c-3.46 3.14-5.15 13.04 5.4 14.97m-12.4 5.47c0-2.66 7.16-4.91 9.66-.97"/><path d="M340.08 403.46c1.05 2.01 6.04 4.75 9.1 2.5m-35.02-18.27a7.93 7.93 0 0 0 9.02 8.21c5.3-.64 6.43-5.31 4.82-8.37m-4.02 8.53c-3.54 4.35.8 10.46 4.83 8.7"/><path d="M328.01 393c2.1-.8 9.02-1.77 11.1 1.45m-33.48-.16c-1.61 2.41 8.37 4.83 11.75.16"/><path d="M314 396.86c-.32 3.22 1.29 8.7 9.5 6.44"/><path d="M324.79 408.29c1.29-2.74-4.83-7.24-9.5-2.25s.65 10.62 3.54 8.69m-15.45-17.22c-2.41 4.19 6.92 11.83 12.23 4.75"/><path d="M297.18 404.75c-3.38 3.46.8 9.82 5.88 7.89 5.07-1.93 4.58-7.25 3.38-8.61"/><path d="M290.66 411.19c-2.74 2.5-.08 8.37 3.7 8.37 3.78 0 6.12-2.98 5.4-6.76m6.27-2.09c-.48 3.7 4.99 6.28 8.53 2.82m.17-6.77c.48-.8.08-2.17-.72-2.82"/><path d="M284.79 416.18c-3.14 2.5 3.62 9.42 7.89 3.06m16.33-4.43c-2.01 1.93 1.2 7 4.43 5.47"/><path d="M297.99 418.35c.48 3.46 7.24 6.03 11.51.72"/><path d="M301.69 421.81c-1.05 2.17 1.05 5.64 3.62 5.15m60.45 14.74c-2.5 4.9 5.47 10.63 11.27 4.67"/><path d="M371.55 449.02c-1.2 2.65.24 6.36 2.41 7.72"/><path d="M363.99 454.57c.56-2.42 4.02-4.67 7.16-3.54m-11.35-2.82c.48-2.17 3.38-4.35 5.55-3.78m184-96.67c-11.43.16-6.6 18.51 3.22 14.81"/><path d="M545.65 361.29c-2.25 3.7 2.1 9.58 6.92 6.12"/><path d="M551.29 368.13c-3.38 5.63 8.7 14.25 13.52 5.4"/><path d="M560.95 376.9c.16 5.31 15.61 8.7 13.36-1.93"/><path d="M572.86 380.76c3.7 6.28 17.55 6.92 16.1-2.41"/><path d="M585.9 384.79c2.9 4.19 16.42 6.76 15.94-1.93M531 331.83c1.93 4.99 8.53 6.76 15.78 3.86m-19.96-.32c4.5 2.9-2.1 16.1-9.01 10.79"/><path d="M526.82 343.58c5 2.42 11.1.64 12.88-6.44"/><path d="M536.64 342.61c.48 3.7 5.8 6.6 12.72 5.15m-25.12-1.28c6.44 5.47-2.9 16.74-7.08 11.59"/><path d="M526.66 350.66c3.06 2.25 10.95.97 11.75-4.99"/><path d="M534.87 350.66c.65 3.86 3.7 5.31 8.05 5.47"/><path d="M524.89 355.97c3.22 4.5 11.27 5.8 14.8-.16"/><path d="M536.15 359.19c-.32 4.35 4.5 7.89 9.5 6.92m-27.04 2.74c4.18 2.1 8.7-5.8 5.15-11.27"/><path d="M523.44 377.22c5 .32 5.63-7.24.97-11.43"/><path d="M534.87 384.14c4.19-.97 2.9-10.14-7.25-10.95"/><path d="M547.58 390.91c4.03-1.13.8-11.27-10.3-10.63"/><path d="M562.88 394.45c2.73-4.19-6.28-11.27-13.68-7.57"/><path d="M570.44 400.24c5 1.45 8.37-11.75-7.4-9.66"/><path d="M579.62 400.24c4.35-1.13 7.4-9.02-5.3-6.44"/><path d="M589.28 400.89c3.86 1.93 5.63-9.34-6.12-6.28m-58.76-28.82c4.83 2.74 12.4-.48 11.75-6.6"/><path d="M534.22 364.51c1.61 2.9.97 8.53-2.1 9.98"/><path d="M534.7 371.27c3.22 1.29 7.57.16 10.14-4.99"/><path d="M540.34 371.27c.96 2.25 1.29 6.76-.8 9.02"/><path d="M541.15 375.13c3.54 1.93 7.72-.64 9.5-4.35"/><path d="M548.39 374c2.58 1.61 4.83 9.18.48 12.23"/><path d="M551.29 382.7c3.06.16 7.57.16 10.46-3.7"/><path d="M559.66 381.09c2.74.8 5.95 5.31 4.83 9.34"/><path d="M564.65 388.97c3.06-.32 8.37-2.42 9.82-6.12"/><path d="M573.02 385.27a8.29 8.29 0 0 1 4.03 8.05"/><path d="M577.04 390.74c3.06-.16 5.8-1.77 6.6-5.15m-.8 2.26c2.25.8 5 3.38 5.15 6.44"/><path d="M587.67 392.35c2.25-.32 3.86-1.77 5.31-4.02m6.12-.32c2.9 2.9-.96 12.56-6.92 10.79m-54.9-205.9c-5.96 3.54-22.86 2.41-14.5-11.59"/><path d="M538.89 183.4c-11.75 4.67-26.24-4.35-11.1-14.17"/><path d="M523.76 166.02c-9.82 0-16.42 15.78-3.22 21.25m-34.93-14.65c-2.58 4.99 6.6 10.46 12.88 5.47 4.86-3.86 4.5-14.32 1.6-18.35"/><path d="M480.62 184.53c-3.22 10.62 20.45 11.27 16.74-5.63"/><path d="M479.33 200.31c.8 8.05 22.7 5.47 15.61-10.79m2.58-4.51c1.77 2.41 6.6 6.6 14.8 5.8m-10.94-17.23c.72 2.9 5.63 5.15 11.91 2.98M281.73 418.51c-5.55 3.95 2.98 10.14 6.12 3.3"/><path d="M277.38 421.57c-5.55 3.94 2.98 10.14 6.12 3.3"/><path d="M272.79 424.55c-5.55 3.95 2.98 10.14 6.12 3.3"/><path d="M267.96 427.29c-5.31 2.82.88 9.74 6.28 3.62"/><path d="M262.73 429.95c-5.31 2.81.89 9.74 6.28 3.62m20.69-11.92c-.08 4.1 7.73 5.8 10.54-.33"/><path d="M294.61 425.44c-2.41 3.06 2.01 6.84 4.43 5.47"/><path d="M284.22 424.87c-.24 3.46 6.52 5.47 9.82 1.7"/><path d="M287.93 428.5c-2.17 2.82 2.1 6.6 4.83 5.47"/><path d="M279.72 428.01c.24 2.74 4.1 5.88 8.29 4.1"/><path d="M282.21 431.71c-1.61 1.45-.8 4.83 1.45 5.88"/><path d="M273.84 431.47c-.64 2.5 3.62 6.92 7.97 4.03"/><path d="M274.72 434.37c-2.58 2.01-2.25 5.07 1.05 5.47"/><path d="M268.53 434.05c-.32 1.69 1.85 4.42 4.59 4.1m-18.36-4.26c-2.58 1.37 4.02 8.37 8.13 1.85"/><path d="M248.4 436.78c-3.22 1.53 4.75 9.26 8.3 1.37m12.55-1.69c-2.5.56-4.1 4.19-2.01 5.63"/><path d="M261.12 437.75c-.32 1.45 2.74 3.86 5.23 2.98m-7.32-2.33c-2.41 1.53-1.13 5.8 1.7 5.15m-10.31-2.34c-2.25 1.69-.72 5.07 2.41 4.27"/><path d="M254.52 440.97c.08.88 2.1 2.25 3.78 1.7m-15.69-3.15c-2.82 1.2-2.66 8.3 6.84 4.43"/><path d="M236.25 442.34c-3.94 1.93-2.66 7.25 5.96 2.17m.72.41c-1.05.8-2.17 4.35 1.77 2.98"/><path d="M235.69 446.6c-1.61 1.45-.56 4.43 2.98 3.3m-11.27-2.81c-2.9 1.7 3.46 3.95 7.73-.56"/><path d="M229.33 449.18c-1.29 1.29-1.29 5.07 2.1 3.7"/><path d="M221.12 450.71c-1.93 1.45 1.37 3.38 7.4.72"/><path d="M223.53 452.8c-2.25 1.85-2.01 4.18 1.29 3.46"/><path d="M216.85 453.85c-2.5 2.25 1.13 3.78 5.47 1.93"/><path d="M216.93 456.35c-4.27 1.93-2.42 5.47.24 4.1m142.23 8.21c-.99 2.13 2.25 3.86 5.31 3.38 2.94-.46 5.75-2.88 3.54-6.28"/><path d="M368.41 469.95c2.9 2.25 8.05-.32 8.05-3.7"/></g><g fill="#fff"><path d="M545.97 128.83c-12.88-6.44-39.6-18.35-47.17-8.7 6.92-2.89 27.2.17 43.95 15.62l3.22-6.92z"/><path d="M553.78 128.15c-14.9-17.35-23.66-13.46-34.37-19.44-10.06-5.61-26.08-6.76-29.18 2.17 14.7-7.16 28.18 3.85 36.47 5.18 11.38 1.83 17.8 10.63 21.14 14.67l5.94-2.58zm56.1-2.22c-7.73-17.7-24.25-13.08-31.55-20.6-10.63-10.95-37.5-21.1-48.62-13.53 24.47-1.28 34.9 16.87 47.97 23.18 9.34 4.51 19.32 14.17 32.2 10.95z"/><path d="M580.91 124c-13.2-16.42-33.49-30.9-42.82-25.43 12.23.64 16.1 9.17 24.8 14.64 8.68 5.48 4.82 13.37 18.02 10.79zm-62.79 28.98c-13.85-5.15-40.89-7.73-53.45 8.05 20.93 3.54 52.48 1.6 53.45-8.05z"/><path d="M515.55 159.1c-13.85-6.44-24.66 2.56-37.67 1.29-24.79-2.42-42.5-.97-44.75 10.94 14.17-12.71 38-2.25 47.65-4.82 9.66-2.58 45.4-.33 56.66 4.5-5.8-7.08-14.8-9.01-21.89-11.91zm43.46-36.87c-3.22-10.63-3.06-21.9 12.88-21.09-4.03-4.99-18.83-7.56-21.25 11.11-17.55-12.88-36.7-15.13-40.24-4.02 9.01-7.73 23.01-2.1 39.76 16.9 1.45-.8 5.3-2.42 8.85-2.9z"/><path d="M534.87 136.88c-9.98-6.44-23.5-16.9.16-21.09-10.14-5.47-24.95-3.06-23.34 15.62-27.05-10.95-46.47-7.26-50.55 3.54-4.5 11.91 12.24 18.51 15.13 10.95-3.05 1.28-13.52-2.26-8.05-9.02 5.48-6.76 33.53-1.69 60.21 12.24 7.4 3.86 32.84 3.21 6.44-12.24z"/><path d="M527.78 154.59c-7.7-15.72-32.68-1.45-37.71-16.68-6.88 22.31 35.52 9.97 37.71 16.68zm158.89 17.06c5.24 2.6 9.77-1.49 1.75-4.7 5.25 2.6 9.82-1.39 1.8-4.6 5.25 2.6 9.82-1.4 1.8-4.6-2.13 2.15-5.2 10.04-5.35 13.9zm2.73-30.26c11.6-12.23-.96-16.42 13.2-28.98 11.6-10.27 2.21-17.12 13.2-25.1 3.55-2.58 11.27-7.74 11.92-12.89 4.66 11.6-14.5 13.2-13.2 31.88.81 11.89-7.22 10.85-10.3 30.9-.65 4.19-3.55 13.53-14.82 4.19z"/><path d="M694.56 146.86c6.44-13.84 13.83-13.58 17.38-19 6.77-10.3 21.1 1.78 33.17-7.4-2.1 13.04-18.35 8.37-25.44 16.74-7.08 8.37-12.88 12.24-25.11 9.66z"/><path d="M696.17 151.37c11.27-9.02 19.57-3 27.37-7.73 19.63-11.91 27.53 2.42 45.07-3.22-4.67 11.27-30.59 1.61-41.85 9.98-11.27 8.37-50.87 16.42-30.59.97zm-32.84 64.23c-.16-5.15-5-11.75-11.75-12.56-6.76-.8-9.66-7.88-14.81-8.2-5.15-.33-8.54-10.63-15.62-10.47-7.08.16-9.98 9.34 6.6 17.7 16.58 8.38 34.93 18.04 35.58 13.53zm-20.93 4.35c-7.08.32-8.05 10.63-14.8 10.95 9.33 4.99 16.09-2.26 20.92-8.7l-6.12-2.25z"/><path d="M648.2 221.23c-6.12 5.15-7.89 15.94.97 19-5.32-7.33 9.33-10.63 4.83-17.4l-5.8-1.6z"/><path d="M654.31 221.56c-4.83 9.34 7.57 10.46 4.35 17.55 7.08-1.61 8.2-14.97 1.77-18.52l-6.12.97z"/><path d="M606.98 201.59c11.6-.64 22.2 5.63 29.3 15.78 4.5 6.43 19.64 9.01 24.8 3.86 5.14-5.15 2.25-16.1-10.63-12.56-3.22-5.47-12.56-3.54-17.07-8.05-4.5-4.5-21.9-17.38-26.4.97z"/><path stroke-linecap="round" d="M650.45 208.68c-3.06.64-4.03 5.96-2.1 8.7m8.7-5.48c.97 1.61.32 3.86-.16 4.99m-31.55-14.81c5.95.32 7.08 4.67 13.52 6.28"/><path d="M621.4 187.43c20.57 5.15 36.9 9.66 47.01 15.45 10.12 5.8 25.8 7.4 39.5 3.55 13.72-3.87 40.16-7.4 38.86 9.65 7.18-8.53-1.96-17.7-20.24-19.31.32-8.37-8.63-15.94-15.08-10.95 5.96-.8 11.1 10.3-.65 14.8 2.29-8.36-6.04-15.93-14.69-12.22 5.55 1.6 11.17 10.91-1.25 14.48-7.84 2.26-19.27-.64-27.75-5.8-8.49-5.14-56.16-23.82-45.71-9.65z"/><path d="M673.31 179.06c-6.44 2.9-2.25 9.66-12.23 13.52-9.99 3.87-16.9 12.72-14.65 20.28 6.76-14.8 18.67-14.16 22.86-19.96 4.18-5.8 10.3-14.32 4.02-13.84z"/><path d="M675.08 180.02c-.32 11.75-9.57 7.47-5.96 23.99 1.13 5.15 3.22 13.52-.32 21.89 10.38-7.57 3.7-23.46 8.37-29.46 2.26-2.9 5.15-7.4 6.28-11.27-2.42 6.76-2.25 19.32 4.35 22.54-5.32-12.56 14.33-22.86.8-37.35-1.93 3.54-8.05 9.82-13.52 9.66zm-32.84-11.75c1.61 2.41 3.22 8.53 1.77 11.91 3.22-1.93 7.9-6.92 9.34-10.3 6.6.97 9.17 9.18 2.9 12.72 3.86 0 10.46 0 14.16-4.35-4.5-4.99-18.5-12.72-28.17-9.98z"/><path d="M542.11 145.18c-1.04-.95-2.8-1.85-5.95-2.5-9.75-2-4.72-10.78 3.58-10.7 17.7-19.32 27.65-4.43 49.22-10.55 7.55-2.14 12.73-1.5 16.84.27 9.66-6.44 20.99-4.64 29.2 2.93a6.59 6.59 0 0 1 3.86-3.04c7.56-2.1 13.68 4.35 15.77 12.72 5.9-1.1 12.63 1.83 17.06 5.85 6.13-3.15 10.36-3.29 11.91-.05 5.48-2.58 12.57-4.19 16.11 4.5 3.54 8.7-8.37 6.12-10.3 24.47-1.2 11.32-13.85 15.78-23.83 9.02-15.97-10.82-31.55-12.56-39.28 3.86-7.72 16.42-13.78 25.96-32.51 20.6-6.76-1.93-15.46.65-20.93 8.05-5.47 7.4-13.85.49-23.82 1.3 12.55-1.94 7.74-5.1 18.67-5.8 9.98-.65 7.4-9.98 13.84-11.27-25.11 6.44-24.14-2.9-44.75 3.54 9.01-11.6 23.18-5.15 30.27-11.91-18.68-.32-27.03-12.52-35.42-7.4-13.2 8.04-7.41 30.96-41.86 28.97-16.74-.97-27.36 1.29-37.34 11.27 17.39-36.06 41.04-16.25 52.48-27.7 6.76-6.75 11.91-11.9 15.45-18.34 1.25-2.27 2.93-3.56 5.04-4.07-28.65-9.01-11.32-23.05 16.7-24.02z"/><path stroke-linecap="round" d="M683.59 140.11c.44.9.66 2.08.66 3.53 0 7.09-10.62 7.4-11.26 17.87-.34 5.47-.97 8.53-4.68 7.89-3.7-.64-6.92-6.44-3.37-13.2"/><path d="M547.42 134.63a13.62 13.62 0 0 0-7.72-2.66m66.04-10.32c8.53 3.7 12.68 12.55 25.07 12.98 11.92.42 19.32 17.7 39.28 6.44.54-.3 1.07-.6 1.58-.85"/><path d="M635 124.63c-1.78 2.83-2.18 6.78-1.7 10.24m-37.26 26.16c-15.13 0-19 7.73-19 15.13s7.09 17.07 19.65 17.07c12.55 0 19.31-7.73 19.31-16.1s-7.73-16.1-19.96-16.1z"/><path d="M598.77 192.9c-.32-4.19-7.89-3.54-7.57-6.76.32-3.22 4.2-4.5 4.2-9.02 0-4.5 6.75-4.83 9-1.28 2.26 3.54 9.02 10.46 10.47 6.92"/><path d="M604.41 175.84a12.37 12.37 0 0 0-.48 16.42m5.31-10.95c-1.13 2.41-1.45 6.12-.16 8.37"/><path fill="none" d="M669.36 169.48c11.83.97 13.85-12.07 5-12.88m-19.56-22.29c-4.1-5.23-13.52-7-13.68 4.1"/><path d="M639.99 151.05c-4.03-9.98-14.33-11.43-19.8-6.44-4.56 4.15-4.67 14.97 5.15 17.23 3.38-4.03 9.98-9.34 14.65-10.79z"/><path d="M635.56 144.77c-5.8-5.15-14.33 4.59-6.6 13.52m-103.65 10.87c3.88-.92 9.55.98 18.25 5.07 5.47 2.57 21.9 8.05 32.2 2.57-10.63 3.87-18.68-12.23-26.73-10.3-8.05 1.93-22.78 4.91-28.97-.97 15.12.97 23.26-11.02 40.56-.64 4.83 2.9 10.95 4.83 16.42 4.5-14.16-17.06-32.84-6.11-34.77-19.95 8.53 9.17 29.38-2.1 40 15.13"/><path d="M545.33 152.01c-2-2.48-1.1-4.95-3.23-6.9"/></g><path d="M654.8 134.31c-3.54-3.78-11.27-.8-9.1 6.84 1.7-3.54 5.32-6.52 9.1-6.84zm-21.89 20.62c2.44-1.77 4.95-3.22 7.08-3.88a15.54 15.54 0 0 0-4.76-6.54c-1.84-1.27-7.14 5.85-2.32 10.42z" stroke="none"/><g fill="none" stroke-linecap="round"><path d="M623.4 141.87c-5.8-3.86-11.1-3.54-12.88-.32-4.18-.16-7.64 2.9-7.8 9.01"/><path d="M611.65 153.14c-6.92-4.75-16.42-2.98-15.78 7.65m-4.18 6.03c3.38-2.74 8.2-4.67 11.91.16m39.77-10.62c-1.29 1.77-2.25 4.5-.16 8.7-2.58-3.39-9.02-3.39-15.94 5.63m31.39-14.81c-8.37.97-8.2 6.44-1.45 8.85m-58.11-29.3c-7.08-1.45-12.23 2.74-2.41 6.28m15.93-11.11c-9.98-2.41-14 .16-9.5 2.41m-19.32 37.68c-.32 3.54 1.6 8.21 7.4 2.9m-5.46 7.72c0 .97-.16 2.1-.8 2.9m-22.39-50.07c-6.12-1.77-7.24-7.4-.16-6.92m-1.93 19.96c-6.76-2.25-6.76-8.85-1.13-8.21m13.69 4.83c-7.89-1.93-8.2-7.4-2.25-6.6m3.21-10.14c-4.18-.32-10.63 4.35.16 7.08m11.6 2.26c-9.82-1.45-9.66 2.58-3.87 5.15m11.27-14.49c-7.57-1.45-10.14 3.06-5 4.99m-18.82 22.86c-1.85-1.53-3.38-8.85 5.47-6.68m12.88 4.43c-5.95-1.61-11.59 4.19-6.12 7.57m14-14.49c-6.28-1.13-11.59.64-8.2 2.9"/></g><path fill="#fff" d="M654.46 134.31c-3.54.66-6.7 2.73-8.76 6.84"/></g></svg>