<svg xmlns="http://www.w3.org/2000/svg" xmlns:xlink="http://www.w3.org/1999/xlink" viewBox="0 0 1000 600"><linearGradient id="a"><stop offset="0" stop-color="#fbd55f"/><stop offset="1" stop-color="#cb8e32"/></linearGradient><radialGradient id="f" cx="416.38" cy="814.57" gradientTransform="matrix(1 0 0 1.0057 0 -4.64)" gradientUnits="userSpaceOnUse" r="7.42" xlink:href="#a"/><radialGradient id="e" cx="393.34" cy="837.95" gradientTransform="matrix(1 0 0 .99109 0 7.47)" gradientUnits="userSpaceOnUse" r="7.51" xlink:href="#a"/><radialGradient id="d" cx="416.58" cy="860.97" gradientTransform="matrix(1 0 0 1.0082 0 -7.06)" gradientUnits="userSpaceOnUse" r="7.42" xlink:href="#a"/><radialGradient id="c" cx="439.62" cy="837.58" gradientTransform="matrix(1 0 0 .98778 0 10.24)" gradientUnits="userSpaceOnUse" r="7.51" xlink:href="#a"/><radialGradient id="b" cx="416.51" cy="837.65" gradientTransform="matrix(1 0 0 .98848 0 9.65)" gradientUnits="userSpaceOnUse" r="11.15" xlink:href="#a"/><radialGradient id="g" cx="760.54" cy="474.25" gradientTransform="matrix(1 0 0 .99305 0 3.3)" gradientUnits="userSpaceOnUse" r="12.04" xlink:href="#a"/><radialGradient id="h" cx="731.81" cy="474.25" gradientTransform="matrix(1 0 0 .99305 0 1.88)" gradientUnits="userSpaceOnUse" r="12.04" xlink:href="#a"/><radialGradient id="i" cx="703.46" cy="474.25" gradientTransform="matrix(1 0 0 .99305 0 3.3)" gradientUnits="userSpaceOnUse" r="12.04" xlink:href="#a"/><radialGradient id="j" cx="771.02" cy="499.67" gradientTransform="matrix(1 0 0 .991 0 4.5)" gradientUnits="userSpaceOnUse" r="12.04" xlink:href="#a"/><radialGradient id="k" cx="742.68" cy="499.67" gradientTransform="matrix(1 0 0 .991 0 4.5)" gradientUnits="userSpaceOnUse" r="12.04" xlink:href="#a"/><radialGradient id="l" cx="714.14" cy="499.67" gradientTransform="matrix(1 0 0 .991 0 4.5)" gradientUnits="userSpaceOnUse" r="12.04" xlink:href="#a"/><radialGradient id="m" cx="772.18" cy="526.29" gradientTransform="matrix(1 0 0 .99305 0 3.65)" gradientUnits="userSpaceOnUse" r="12.04" xlink:href="#a"/><radialGradient id="n" cx="745.39" cy="525.29" gradientTransform="matrix(1 0 0 .99305 0 3.65)" gradientUnits="userSpaceOnUse" r="12.04" xlink:href="#a"/><radialGradient id="o" cx="716.86" cy="525.29" gradientTransform="matrix(1 0 0 .99305 0 3.65)" gradientUnits="userSpaceOnUse" r="12.04" xlink:href="#a"/><radialGradient id="p" cx="768.04" cy="552.78" gradientTransform="matrix(1 0 0 .98916 0 6)" gradientUnits="userSpaceOnUse" r="11.38" xlink:href="#a"/><radialGradient id="q" cx="741.28" cy="552.78" gradientTransform="matrix(1 0 0 .99234 0 4.24)" gradientUnits="userSpaceOnUse" r="11.35" xlink:href="#a"/><radialGradient id="r" cx="714.26" cy="552.78" gradientTransform="matrix(1 0 0 .989 0 6.08)" gradientUnits="userSpaceOnUse" r="11.38" xlink:href="#a"/><radialGradient id="s" cx="761.91" cy="580.39" gradientTransform="matrix(1 0 0 .99259 0 4.3)" gradientUnits="userSpaceOnUse" r="10.89" xlink:href="#a"/><radialGradient id="t" cx="737.53" cy="577.5" gradientTransform="matrix(1 0 0 .99205 0 4.59)" gradientUnits="userSpaceOnUse" r="10.89" xlink:href="#a"/><radialGradient id="u" cx="711.71" cy="576.36" gradientTransform="matrix(1 0 0 .99259 0 4.27)" gradientUnits="userSpaceOnUse" r="10.89" xlink:href="#a"/><radialGradient id="v" cx="751.9" cy="604.02" gradientTransform="matrix(1 0 0 .98919 0 6.53)" gradientUnits="userSpaceOnUse" r="10.46" xlink:href="#a"/><radialGradient id="w" cx="729.67" cy="600.54" gradientTransform="matrix(1 0 0 .99915 0 .51)" gradientUnits="userSpaceOnUse" r="9.95" xlink:href="#a"/><radialGradient id="x" cx="706.08" cy="597.51" gradientTransform="matrix(1 0 0 .99726 0 1.64)" gradientUnits="userSpaceOnUse" r="8.12" xlink:href="#a"/><radialGradient id="y" cx="741.9" cy="625.39" gradientTransform="matrix(1 0 0 .99915 0 .54)" gradientUnits="userSpaceOnUse" r="9.95" xlink:href="#a"/><radialGradient id="z" cx="720.45" cy="618.78" gradientTransform="matrix(1 0 0 1.0069 0 -4.27)" gradientUnits="userSpaceOnUse" r="8.35" xlink:href="#a"/><radialGradient id="A" cx="700.55" cy="614.7" gradientTransform="matrix(1 0 0 .99645 0 2.18)" gradientUnits="userSpaceOnUse" r="7.03" xlink:href="#a"/><radialGradient id="B" cx="731.65" cy="644.12" gradientTransform="matrix(1 0 0 .99834 0 1.07)" gradientUnits="userSpaceOnUse" r="9.33" xlink:href="#a"/><radialGradient id="C" cx="712.98" cy="635.08" gradientTransform="matrix(1 0 0 1.00597 0 -3.8)" gradientUnits="userSpaceOnUse" r="7.79" xlink:href="#a"/><radialGradient id="D" cx="695.15" cy="628.49" gradientTransform="matrix(1 0 0 .99767 0 1.46)" gradientUnits="userSpaceOnUse" r="6.64" xlink:href="#a"/><radialGradient id="E" cx="718.42" cy="660.82" gradientTransform="matrix(1 0 0 1.00252 0 -1.67)" gradientUnits="userSpaceOnUse" r="8.62" xlink:href="#a"/><radialGradient id="F" cx="702.21" cy="650.42" gradientTransform="matrix(1 0 0 .999 0 .65)" gradientUnits="userSpaceOnUse" r="7.3" xlink:href="#a"/><radialGradient id="G" cx="686.7" cy="642.53" gradientTransform="matrix(1 0 0 1.0069 0 -4.43)" gradientUnits="userSpaceOnUse" r="6.09" xlink:href="#a"/><radialGradient id="H" cx="707.38" cy="674.82" gradientTransform="matrix(1 0 0 .9913 0 5.87)" gradientUnits="userSpaceOnUse" r="7.95" xlink:href="#a"/><radialGradient id="I" cx="693.57" cy="664.01" gradientTransform="matrix(1 0 0 1.01302 0 -8.65)" gradientUnits="userSpaceOnUse" r="6.62" xlink:href="#a"/><radialGradient id="J" cx="680.18" cy="655.53" gradientTransform="matrix(1 0 0 1.00534 0 -3.5)" gradientUnits="userSpaceOnUse" r="5.65" xlink:href="#a"/><radialGradient id="K" cx="694.25" cy="686.15" gradientTransform="matrix(1 0 0 1.00986 0 -6.76)" gradientUnits="userSpaceOnUse" r="6.75" xlink:href="#a"/><radialGradient id="L" cx="682.92" cy="676.43" gradientTransform="matrix(1 0 0 1.00582 0 -3.94)" gradientUnits="userSpaceOnUse" r="5.72" xlink:href="#a"/><radialGradient id="M" cx="671.83" cy="668.65" gradientTransform="matrix(1 0 0 1.02442 0 -16.33)" gradientUnits="userSpaceOnUse" r="4.78" xlink:href="#a"/><radialGradient id="N" cx="682.71" cy="696.23" gradientTransform="matrix(1 0 0 1.00802 0 -5.58)" gradientUnits="userSpaceOnUse" r="6.28" xlink:href="#a"/><radialGradient id="O" cx="673.31" cy="686.5" gradientTransform="matrix(1 0 0 1.01694 0 -11.63)" gradientUnits="userSpaceOnUse" r="5.29" xlink:href="#a"/><radialGradient id="P" cx="663.89" cy="678.28" gradientTransform="matrix(1 0 0 1.00862 0 -5.84)" gradientUnits="userSpaceOnUse" r="4.49" xlink:href="#a"/><radialGradient id="Q" cx="671.6" cy="705.18" gradientTransform="matrix(1 0 0 1.0059 0 -4.17)" gradientUnits="userSpaceOnUse" r="6.28" xlink:href="#a"/><radialGradient id="R" cx="662.2" cy="695.65" gradientTransform="matrix(1 0 0 1.01055 0 -7.34)" gradientUnits="userSpaceOnUse" r="5.29" xlink:href="#a"/><radialGradient id="S" cx="654.58" cy="687.37" gradientTransform="matrix(1 0 0 1.01672 0 -11.49)" gradientUnits="userSpaceOnUse" r="4.49" xlink:href="#a"/><radialGradient id="T" cx="646.03" cy="696.48" gradientTransform="matrix(1 0 0 1.02355 0 -16.4)" gradientUnits="userSpaceOnUse" r="4.14" xlink:href="#a"/><radialGradient id="U" cx="653.02" cy="704.68" gradientTransform="matrix(1 0 0 1.00552 0 -3.9)" gradientUnits="userSpaceOnUse" r="4.49" xlink:href="#a"/><radialGradient id="V" cx="660.59" cy="713.14" gradientTransform="matrix(1 0 0 1.0171 0 -12.2)" gradientUnits="userSpaceOnUse" r="4.85" xlink:href="#a"/><radialGradient id="W" cx="637.01" cy="705.72" gradientTransform="matrix(1 0 0 1.01093 0 -7.71)" gradientUnits="userSpaceOnUse" r="3.87" xlink:href="#a"/><radialGradient id="X" cx="642.62" cy="712.94" gradientTransform="matrix(1 0 0 1.01384 0 -9.87)" gradientUnits="userSpaceOnUse" r="4.13" xlink:href="#a"/><radialGradient id="Y" cx="649.42" cy="720.03" gradientTransform="matrix(1 0 0 1.0073 0 -5.25)" gradientUnits="userSpaceOnUse" r="4.41" xlink:href="#a"/><radialGradient id="Z" cx="628.35" cy="711.82" gradientTransform="matrix(1 0 0 1.02676 0 -19.05)" gradientUnits="userSpaceOnUse" r="3.52" xlink:href="#a"/><radialGradient id="aa" cx="633.37" cy="718.62" gradientTransform="matrix(1 0 0 1.02113 0 -15.18)" gradientUnits="userSpaceOnUse" r="3.87" xlink:href="#a"/><radialGradient id="ab" cx="639.59" cy="726.09" gradientTransform="matrix(1 0 0 1.03175 0 -23.06)" gradientUnits="userSpaceOnUse" r="4.05" xlink:href="#a"/><radialGradient id="ac" cx="621.03" cy="717.31" gradientTransform="matrix(1 0 0 1.01622 0 -11.63)" gradientUnits="userSpaceOnUse" r="3.42" xlink:href="#a"/><radialGradient id="ad" cx="625.6" cy="723.58" gradientTransform="matrix(1 0 0 1.01891 0 -13.68)" gradientUnits="userSpaceOnUse" r="3.63" xlink:href="#a"/><radialGradient id="ae" cx="629.94" cy="730.32" gradientTransform="matrix(1 0 0 1.0334 0 -24.4)" gradientUnits="userSpaceOnUse" r="3.9" xlink:href="#a"/><radialGradient id="af" cx="614.05" cy="721.3" gradientTransform="matrix(1 0 0 1.00982 0 -7.09)" gradientUnits="userSpaceOnUse" r="3.05" xlink:href="#a"/><radialGradient id="ag" cx="617.69" cy="727.85" gradientTransform="matrix(1 0 0 1.0159 0 -11.57)" gradientUnits="userSpaceOnUse" r="3.26" xlink:href="#a"/><radialGradient id="ah" cx="621.24" cy="734.22" gradientTransform="matrix(1 0 0 1.00532 0 -3.9)" gradientUnits="userSpaceOnUse" r="3.47" xlink:href="#a"/><radialGradient id="ai" cx="606.69" cy="724.91" gradientTransform="matrix(1 0 0 1.0049 0 -3.55)" gradientUnits="userSpaceOnUse" r="2.95" xlink:href="#a"/><radialGradient id="aj" cx="609.28" cy="730.85" gradientTransform="matrix(1 0 0 1.01859 0 -13.59)" gradientUnits="userSpaceOnUse" r="3.12" xlink:href="#a"/><radialGradient id="ak" cx="612.94" cy="737.49" gradientTransform="matrix(1 0 0 1.01562 0 -11.52)" gradientUnits="userSpaceOnUse" r="3.38" xlink:href="#a"/><radialGradient id="al" cx="600.03" cy="728.91" gradientTransform="matrix(1 0 0 1.0265 0 -19.31)" gradientUnits="userSpaceOnUse" r="2.51" xlink:href="#a"/><radialGradient id="am" cx="602" cy="734.39" gradientTransform="matrix(1 0 0 .98882 0 8.21)" gradientUnits="userSpaceOnUse" r="2.72" xlink:href="#a"/><radialGradient id="an" cx="604.74" cy="740" gradientTransform="matrix(1 0 0 1.00265 0 -1.96)" gradientUnits="userSpaceOnUse" r="2.91" xlink:href="#a"/><radialGradient id="ao" cx="685.79" cy="453.08" gradientTransform="matrix(1 0 0 .99658 1.77 2.96)" gradientUnits="userSpaceOnUse" r="8.11" xlink:href="#a"/><g stroke-width="1.2"><path d="M0 0h1000v600H0z" fill="#002b7f"/><path d="M0 100h1000v400H0z" fill="#fff"/><path d="M0 200h1000v200H0z" fill="#ce1126"/><ellipse cx="300" cy="300" fill="#fff" rx="75" ry="87.5"/></g><g transform="translate(235.94 234.47) scale(.15382)"><g stroke="#000" stroke-linecap="round" stroke-linejoin="round" stroke-width="3"><path d="m105.36 349.34 11-20.25-26-7.25-8 18zm622.24 0-11-20.25 26-7.25 8 18z" fill="#cea849"/><path d="m409.48 91.44-40.1 1.16c-25.6 2.41-35.33 12.29-19.43 30.96-41.27 6.47-81.64 15.9-118.94 35.63-10.49-1.74-22.66 4.13-26.16 14.23-2.9 8.16 4.2 16.83 16.82 13.39-8.35 21.98-107 19.42-109.5 56.05 7.47-6.37 15.7-11.77 23.9-6.32l-5.65 17.1c-14.37 4.28-24.46 6.65-30.47 22.37-6.22 15.77-15.13 39.83-21.35 51.67-4.08 5.47-5.06 11.28-5.06 14.17 0 6.81 4.87 16.33 16.12 16.33 11.46 0 17.1-7.18 17.1-14.4-.67-5.01-2.65-10.9-14.75-10.22 20.32-4.87 37.88 1.95 49.69 9.48 16.3 12.04 20.38 35.38 10.87 54.58-9.32 18.65-33.01 29.54-68.34 15.76-28.74-11.29-57.65 3.49-67.16 29.15-43.3 117.15 32.4 212.17 118.22 267.58 89.3 57.7 105.21 73.42 129.09 101.62 24.07 28.16 47.37 60.4 82.31 60.4 5.44 0 10.68-1.56 15.35-4.1 22 0 23.42 8.21 52.93 8.73v.03c.51 0 1-.02 1.5-.03.5 0 .96.03 1.47.03v-.03c29.55-.51 30.97-8.73 52.97-8.73a32.09 32.09 0 0 0 15.31 4.1c34.95 0 58.25-32.24 82.32-60.4 23.88-28.2 39.82-43.92 129.12-101.62 85.8-55.41 161.5-150.44 118.22-267.58-9.52-25.66-38.45-40.44-67.2-29.15-35.32 13.78-58.98 2.9-68.3-15.76-9.52-19.2-5.43-42.54 10.87-54.58 11.8-7.53 29.34-14.35 49.66-9.48-12.1-.68-14.06 5.21-14.72 10.23 0 7.21 5.64 14.39 17.1 14.39 11.25 0 16.09-9.51 16.09-16.33 0-2.88-.95-8.7-5.03-14.17-6.22-11.84-15.17-35.9-21.38-51.67-6.01-15.72-16.1-18.09-30.47-22.36l-5.62-17.11c8.2-5.45 16.43-.05 23.9 6.32-2.5-36.63-101.18-34.07-109.53-56.05 12.63 3.44 19.76-5.23 16.85-13.4-3.5-10.09-15.67-15.96-26.16-14.22-37.27-19.72-77.67-29.16-118.94-35.63 15.89-18.68 6.16-28.55-19.44-30.97l-40.1-1.15-7-.22-6.96.22z" fill="#dca842"/><g fill="none"><path d="M365.36 93.1c38.57.11 30.02 46.14-5 48.24-43.15 5.04-96.2 3.62-125 15.5m-99 61.25c33.31-9.38 69.2-1.8 91-11.75s26.49-42.9 3-47.25"/><path d="M349.11 123.59c7.68-1.77 15.89-2.04 19.98-5.77 4.09-3.73 5.31-10.4-4.48-11.23m-142.99 80.5c7.16-12.05 4.84-20.45-4.52-14.67m250.5-79.33c-38.57.12-30.02 46.15 5 48.25 43.15 5.04 96.2 3.62 125 15.5m99 61.25c-33.31-9.38-69.2-1.8-91-11.75s-26.49-42.9-3-47.25"/><path d="M483.85 123.59c-7.68-1.77-15.89-2.04-19.98-5.77-4.09-3.73-5.31-10.4 4.48-11.23m142.98 80.5c-7.16-12.05-4.84-20.45 4.52-14.67M219.23 742.45c61.74 43.66 70.67 100.43 134.54 103.15"/><path d="M354.55 854.5c-37.66 8.11-62.32-12.36-92.02-56.82-15.15-22.4-54.94-53.9-122.9-96.38C32.87 634.64 1.23 518.4 35.98 454.64c8.54-15.67 30.48-21.85 43.1-18.34 32.8 8.85 87.94 0 88.14-53.16.2-29.92-24.27-64.88-55.91-64.88-19.23 0-29.52 6.38-34.56 13.15"/><path d="M349.89 831.9a6.18 6.18 0 0 1 6.21-5.98c3.69 0 6.99 3.26 6.99 7.32 0 8.9-5.05 13.7-15.72 11.57-8.74-1.73-12.62-11.18-8.94-20.67 3.7-9.65 16.12-15.63 29.51-9.65 13.4 6.19 11.84 26.66 7.19 38.28-2.72 6.72-8.16 12.36-14.76 16.02m253.35-126.34c-61.73 43.66-70.66 100.43-134.73 103.15"/><path d="M478.41 854.5c37.66 8.11 62.32-12.36 92.02-56.82 14.95-22.4 54.94-53.9 122.89-96.38 106.77-66.66 138.42-182.92 103.67-246.66-8.54-15.67-30.48-21.85-43.1-18.34-32.8 8.85-87.94 0-88.14-53.16-.2-29.92 24.27-64.88 55.91-64.88 19.22 0 29.52 6.38 34.56 13.15"/><path d="M495.88 830.52c0-26.46-44.84-34.76-79.2-34.76-34.17 0-79.21 8.3-79.21 34.76"/><path d="M483.07 831.9a6.18 6.18 0 0 0-6.21-5.98c-3.69 0-6.99 3.26-6.99 7.32 0 8.9 5.05 13.7 15.72 11.57 8.74-1.73 12.62-11.18 8.94-20.67-3.7-9.65-16.12-15.63-29.51-9.65-13.4 6.19-11.84 26.66-7.19 38.28 2.72 6.72 8.16 12.36 14.76 16.02"/><path d="M460.16 857.17c-18.06 0-17.47 19.44-43.68 19.44-26.01 0-25.43-19.44-43.49-19.44"/></g></g><g stroke="#000" stroke-width="3"><path d="M416.48 828.14c-12.81 0-12.81 19.04 0 19.04s13-19.04 0-19.04" fill="url(#b)"/><path d="M439.58 831.66c-7.96 0-7.96 11.83 0 11.83s8.16-11.83 0-11.83" fill="url(#c)"/><path d="M422.5 860.99c0-8-11.84-8-11.84 0 0 7.95 11.84 7.95 11.84 0" fill="url(#d)"/><path d="M393.38 843.89c7.96 0 7.96-11.88 0-11.88s-8.16 11.88 0 11.88" fill="url(#e)"/><path d="M410.46 814.57c0 7.95 11.84 7.95 11.84 0s-11.84-7.95-11.84 0" fill="url(#f)"/></g><g id="ap" stroke="#000"><path d="M154.05 272.66c2.18.12 4.4.67 6.44 1.53 3.61 1.52 6.78 4.13 7.9 7.75l.04.06c31.9 88.55 14.84 126.3-13.5 183.6-40.96 82.5-11.1 205.41 80.37 259.15 44.98 26.3 79.66 35.27 106.22 41.91 13.28 3.32 24.56 6.07 34.1 10.16 9.2 3.94 18.7 11 24.7 19.17-9.2.76-24.2 3.28-31.56 5.45-10.7-13.6-37.63-26.11-65.49-35.6-27.86-9.47-56.92-16.22-72.68-19.34h-.04c-51.28-14.87-99.1-48.25-135.12-90.65-38.13-44.9-57.62-106.35-50.09-167.97 1.69-14.1 7.3-22.72 15.28-27.4 7.99-4.7 18.1-5.5 28.81-4.79 19.48 1.12 38.56-4.2 56-14.94 22.5-13.84 31.7-38.32 31.35-64.9-.36-26.58-10.4-55.14-26.31-76.41-5.7-7.66-7.97-13.4-7.85-17.84.12-4.45 3-7.38 6.53-8.41a13.7 13.7 0 0 1 2.75-.5 16.09 16.09 0 0 1 2.16-.03z" fill="#825123" stroke-width="3"/><path d="M760.57 462.8c15.34 0 15.34 22.91 0 22.91s-15.53-22.91 0-22.91" fill="url(#g)" transform="matrix(-1 0 0 1 833.41 0)"/><path d="M731.84 461.38c15.34 0 15.34 22.91 0 22.91s-15.53-22.91 0-22.91" fill="url(#h)" transform="matrix(-1 0 0 1 833.41 0)"/><path d="M703.5 462.8c15.34 0 15.34 22.91 0 22.91s-15.53-22.91 0-22.91" fill="url(#i)" transform="matrix(-1 0 0 1 833.41 0)"/><path d="M771.06 488.24c15.34 0 15.34 22.86 0 22.86s-15.53-22.86 0-22.86" fill="url(#j)" transform="matrix(-1 0 0 1 833.41 0)"/><path d="M742.71 488.24c15.34 0 15.34 22.86 0 22.86s-15.53-22.86 0-22.86" fill="url(#k)" transform="matrix(-1 0 0 1 833.41 0)"/><path d="M714.17 488.24c15.34 0 15.34 22.86 0 22.86s-15.53-22.86 0-22.86" fill="url(#l)" transform="matrix(-1 0 0 1 833.41 0)"/><path d="M772.22 514.84c15.34 0 15.34 22.91 0 22.91s-15.53-22.91 0-22.91" fill="url(#m)" transform="matrix(-1 0 0 1 833.41 0)"/><path d="M745.43 513.84c15.34 0 15.34 22.91 0 22.91s-15.53-22.91 0-22.91" fill="url(#n)" transform="matrix(-1 0 0 1 833.41 0)"/><path d="M716.89 513.84c15.34 0 15.34 22.91 0 22.91s-15.53-22.91 0-22.91" fill="url(#o)" transform="matrix(-1 0 0 1 833.41 0)"/><path d="M768.14 542.02c14.37 0 14.37 21.52 0 21.52-14.56 0-14.75-21.52 0-21.52" fill="url(#p)" transform="matrix(-1 0 0 1 833.41 0)"/><path d="M741.35 542.02c14.36 0 14.36 21.52 0 21.52-14.56 0-14.56-21.52 0-21.52" fill="url(#q)" transform="matrix(-1 0 0 1 833.41 0)"/><path d="M714.37 542.02c14.37 0 14.37 21.52 0 21.52-14.56 0-14.76-21.52 0-21.52" fill="url(#r)" transform="matrix(-1 0 0 1 833.41 0)"/><path d="M762.43 570.11c13.78.55 12.81 21.17-.97 20.57-13.79-.6-13.01-21.37.97-20.57" fill="url(#s)" transform="matrix(-1 0 0 1 833.41 0)"/><path d="M738.05 567.22c13.78.6 12.81 21.17-.97 20.57-13.79-.54-13.01-21.12.97-20.57" fill="url(#t)" transform="matrix(-1 0 0 1 833.41 0)"/><path d="M712.23 566.07c13.79.6 12.82 21.17-.97 20.57-13.78-.6-13-21.37.97-20.57" fill="url(#u)" transform="matrix(-1 0 0 1 833.41 0)"/><path d="M752.61 594.2c13.2 1 11.84 20.57-1.36 19.63-13.2-.8-12.03-20.57 1.36-19.63" fill="url(#v)" transform="matrix(-1 0 0 1 833.41 0)"/><path d="M730.29 591.12c12.62.74 11.26 19.58-1.16 18.84-12.62-.8-11.46-19.64 1.16-18.84" fill="url(#w)" transform="matrix(-1 0 0 1 833.41 0)"/><path d="M706.61 589.93c10.1.6 9.12 15.95-.97 15.16-10.1-.6-9.32-15.7.97-15.16" fill="url(#x)" transform="matrix(-1 0 0 1 833.41 0)"/><path d="M742.52 615.97c12.62.74 11.26 19.58-1.16 18.84-12.62-.8-11.46-19.63 1.16-18.84" fill="url(#y)" transform="matrix(-1 0 0 1 833.41 0)"/><path d="M720.97 610.9c10.49.8 9.32 16.5-.97 15.76-10.48-.8-9.51-16.5.97-15.76" fill="url(#z)" transform="matrix(-1 0 0 1 833.41 0)"/><path d="M700.97 608.22c8.74.35 7.76 13.57-.78 12.97-8.73-.4-7.96-13.57.78-12.97" fill="url(#A)" transform="matrix(-1 0 0 1 833.41 0)"/><path d="M733.59 635.55c11.46 2.54 7.57 19.83-3.88 17.1-11.46-2.54-7.57-19.59 3.88-17.1" fill="url(#B)" transform="matrix(-1 0 0 1 833.41 0)"/><path d="M714.56 628c9.51 2.14 6.21 16.5-3.1 14.16-9.52-2.13-6.41-16.5 3.1-14.16" fill="url(#C)" transform="matrix(-1 0 0 1 833.41 0)"/><path d="M696.51 622.58c7.96 1.74 5.24 13.77-2.72 11.83-7.96-1.74-5.24-13.77 2.72-11.83" fill="url(#D)" transform="matrix(-1 0 0 1 833.41 0)"/><path d="M721.16 653.24c10.1 3.48 4.66 18.84-5.44 15.16-10.1-3.53-4.85-18.84 5.44-15.16" fill="url(#E)" transform="matrix(-1 0 0 1 833.41 0)"/><path d="M704.47 644.1c8.54 2.93 3.88 15.76-4.47 12.62-8.54-2.88-4.07-15.7 4.47-12.62" fill="url(#F)" transform="matrix(-1 0 0 1 833.41 0)"/><path d="M688.55 637.34c6.99 2.29 3.3 12.97-3.69 10.44-6.99-2.49-3.3-13.17 3.69-10.44" fill="url(#G)" transform="matrix(-1 0 0 1 833.41 0)"/><path d="M710.49 668.2c8.93 4.08 2.72 17.44-6.21 13.17-8.93-3.88-2.72-17.25 6.21-13.17" fill="url(#H)" transform="matrix(-1 0 0 1 833.41 0)"/><path d="M696.12 658.46c7.38 3.33 2.14 14.56-5.04 11.08-7.38-3.28-2.33-14.56 5.04-11.08" fill="url(#I)" transform="matrix(-1 0 0 1 833.41 0)"/><path d="M682.34 650.91c6.21 2.93 1.74 12.03-4.27 9.3-6.22-2.89-1.94-12.23 4.27-9.3" fill="url(#J)" transform="matrix(-1 0 0 1 833.41 0)"/><path d="M697.09 680.63c7.38 3.68 1.56 14.91-5.63 11.03-7.38-3.67-1.75-14.9 5.63-11.03" fill="url(#K)" transform="matrix(-1 0 0 1 833.41 0)"/><path d="M685.25 671.88c6.21 3.08 1.36 12.43-4.66 9.1-6.21-3.09-1.36-12.43 4.66-9.1" fill="url(#L)" transform="matrix(-1 0 0 1 833.41 0)"/><path d="M673.79 664.87c5.05 2.73.97 10.29-3.88 7.6-5.05-2.53-1.17-10.48 3.88-7.6" fill="url(#M)" transform="matrix(-1 0 0 1 833.41 0)"/><path d="M685.83 691.46c6.4 4.08 0 13.82-6.21 9.54-6.4-4.07-.2-13.81 6.21-9.54" fill="url(#N)" transform="matrix(-1 0 0 1 833.41 0)"/><path d="M675.93 682.57c5.24 3.48 0 11.43-5.24 7.95-5.25-3.48 0-11.68 5.24-7.95" fill="url(#O)" transform="matrix(-1 0 0 1 833.41 0)"/><path d="M666.03 674.96c4.47 2.93 0 9.54-4.27 6.61-4.46-2.88 0-9.5 4.27-6.61" fill="url(#P)" transform="matrix(-1 0 0 1 833.41 0)"/><path d="M674.73 700.43c6.4 4.27 0 13.77-6.21 9.5-6.4-4.08-.2-13.78 6.21-9.5" fill="url(#Q)" transform="matrix(-1 0 0 1 833.41 0)"/><path d="M664.83 691.66c5.24 3.53 0 11.48-5.24 7.95-5.25-3.48 0-11.43 5.24-7.95" fill="url(#R)" transform="matrix(-1 0 0 1 833.41 0)"/><path d="M656.71 684.11c4.46 2.93 0 9.5-4.27 6.61-4.47-2.93 0-9.74 4.27-6.61" fill="url(#S)" transform="matrix(-1 0 0 1 833.41 0)"/><path d="M647.98 693.4c4.08 2.54 0 8.75-3.89 6.21-4.07-2.68 0-8.9 3.89-6.21" fill="url(#T)" transform="matrix(-1 0 0 1 833.41 0)"/><path d="M655.16 701.4c4.46 2.88 0 9.5-4.27 6.56-4.47-2.88 0-9.5 4.27-6.56" fill="url(#U)" transform="matrix(-1 0 0 1 833.41 0)"/><path d="M662.92 709.55c4.85 3.28 0 10.49-4.66 7.16-4.86-3.09 0-10.49 4.66-7.16" fill="url(#V)" transform="matrix(-1 0 0 1 833.41 0)"/><path d="M638.85 702.94c3.69 2.54 0 7.95-3.69 5.62-3.69-2.54 0-8.15 3.69-5.62" fill="url(#W)" transform="matrix(-1 0 0 1 833.41 0)"/><path d="M644.57 709.92c4.08 2.73 0 8.75-3.88 6.01-4.08-2.68 0-8.7 3.88-6.01" fill="url(#X)" transform="matrix(-1 0 0 1 833.41 0)"/><path d="M651.55 716.84c4.27 2.68 0 9.3-4.27 6.41-4.27-2.93 0-9.34 4.27-6.41" fill="url(#Y)" transform="matrix(-1 0 0 1 833.41 0)"/><path d="M630 709.28c3.3 2.14 0 7.4-3.3 5.07-3.3-2.14 0-7.36 3.3-5.07" fill="url(#Z)" transform="matrix(-1 0 0 1 833.41 0)"/><path d="M635.21 715.78c3.69 2.54 0 8.15-3.69 5.67-3.68-2.54 0-8.15 3.69-5.67" fill="url(#aa)" transform="matrix(-1 0 0 1 833.41 0)"/><path d="M641.53 723.19c3.88 2.54 0 8.75-3.88 5.82-3.88-2.54 0-8.75 3.88-5.82" fill="url(#ab)" transform="matrix(-1 0 0 1 833.41 0)"/><path d="M622.74 714.97c3.1 2.34-.4 7-3.5 4.67-2.91-2.33.4-7 3.5-4.67" fill="url(#ac)" transform="matrix(-1 0 0 1 833.41 0)"/><path d="M627.45 721.07c3.3 2.54-.39 7.55-3.69 5.02-3.3-2.48.39-7.55 3.69-5.02" fill="url(#ad)" transform="matrix(-1 0 0 1 833.41 0)"/><path d="M631.97 727.58c3.5 2.73-.39 8.35-4.08 5.47-3.49-2.74.4-8.35 4.08-5.47" fill="url(#ae)" transform="matrix(-1 0 0 1 833.41 0)"/><path d="M615.7 719.44c2.52 2.14-.78 6.06-3.3 3.73-2.52-2.34.78-6.02 3.3-3.73" fill="url(#af)" transform="matrix(-1 0 0 1 833.41 0)"/><path d="M619.58 725.92c2.52 2.29-.97 6.56-3.69 3.88-2.72-2.34.97-6.61 3.69-3.88" fill="url(#ag)" transform="matrix(-1 0 0 1 833.41 0)"/><path d="M623.18 732.05c2.91 2.73-.97 7-3.88 4.27-2.91-2.48.97-6.95 3.88-4.27" fill="url(#ah)" transform="matrix(-1 0 0 1 833.41 0)"/><path d="M608.34 723.22c2.33 2.14-.97 5.62-3.3 3.48-2.33-2.34.97-5.82 3.3-3.48" fill="url(#ai)" transform="matrix(-1 0 0 1 833.41 0)"/><path d="M611.02 729c2.52 2.54-.97 6.21-3.5 3.68-2.52-2.34.98-6.21 3.5-3.68" fill="url(#aj)" transform="matrix(-1 0 0 1 833.41 0)"/><path d="M614.9 735.44c2.72 2.73-1.16 6.8-3.88 4.08-2.72-2.54.97-6.81 3.88-4.08" fill="url(#ak)" transform="matrix(-1 0 0 1 833.41 0)"/><path d="M601.5 727.58c1.74 1.94-1.17 4.67-2.91 2.73-1.75-1.93.97-4.87 2.91-2.73" fill="url(#al)" transform="matrix(-1 0 0 1 833.41 0)"/><path d="M603.61 732.94c1.94 2.14-1.16 5.02-3.3 2.88-1.74-2.13 1.17-5.02 3.3-2.88" fill="url(#am)" transform="matrix(-1 0 0 1 833.41 0)"/><path d="M606.49 738.49c2.13 2.34-1.36 5.42-3.5 3.13-2.13-2.34 1.36-5.67 3.5-3.13" fill="url(#an)" transform="matrix(-1 0 0 1 833.41 0)"/><path d="M687.6 446.92c10.1 0 10.1 15.16 0 15.16s-10.29-15.16 0-15.16" fill="url(#ao)" transform="matrix(-1 0 0 1 833.41 0)"/></g><use height="500" transform="matrix(-1 0 0 1 832.96 0)" width="833.33" xlink:href="#ap"/><path d="M182.15 433.08c11.26-37.47 16.9-85.63.97-148.3 70.08-45.23 119.4-86.58 233.55-86.58 113.96 0 167.73 31.41 233.55 86.58-15.72 62.67-10.09 110.63.97 148.3H181.77" fill="#89c5e3" stroke="#000"/><path d="m235.5 341.84-5.22 56.66h-.16L210 342.34l9.7 59.31-.23.1L197 372.1l13.5 35.25-16.5-11.5 10.03 18.8c-.09.14-.19.25-.28.38L192 413.6l7.28 10.22a38.86 38.86 0 0 0-2.28 13.17c0 .2.06.4.07.62h77.62c0-.21.06-.41.06-.63 0-4.63-.79-9.1-2.28-13.21l15.3-14.67-19.26 6.72c-.15-.24-.3-.49-.47-.72 2.96-3.64 31.91-39.25 30.72-39.25-1.23 0-36.6 30.34-37.84 31.4l-.19-.15 27.78-61.5-38.44 55.18-.37-.15 11.32-58.28-20.25 56-5.25-56.5z" fill="#fcdd09"/><path d="M181.82 433.08c-6.21 20.77-13.97 38.47-20.77 53.58-17.67 39.8-21.36 132.4 43.87 197.85 96.88 96.86 170.66 57.85 207.73 110.63h7.57c37.08-52.78 110.85-13.77 207.73-110.63 65.23-65.46 61.74-158.04 43.88-197.85-6.6-14.96-14.56-32.8-20.78-53.58H181.63" fill="#0f47af" stroke="#000"/><path d="M323.62 343.97c-1.12-5.43-13.8-4.39-12.88-13.13-8.42-1.34-6.85-16.4 8.88-15.37 1.66-2.99 20.67-9.84 18.38-.38 9.54-8.31 16.45-.7 11.12 3 3.68 3.7 5.54 12.12-5.75 11.38 4.32 7.68-5.71 7.4-12.38 5.25.17 2.91-.33 5.22-4.12 4.5-2.4 1.62-.58 3.7-.25 5.63zm174.6 5.93c.1-6.85-12.81-4.76-12.33-12.57-7.01-1.07-6-15.6 8.5-14.72-.8-4.2 19.51-9.58 17.6-.36 7.08-7.5 14.06-.5 9.78 2.87 3.52 3.53 7.8 9.6-4.64 10.9 5.02 4.85-5.47 7.08-11.85 5.02.16 2.79-1.69 3.75-5.32 3.06-2.3 1.55.82 4.8 1.13 6.64l-2.87-.84zm100.68 23.69c1.2-5.19-10.66-4.73-10.35-10.64-5.39-.82-4.6-11.81 6.53-11.15-.62-3.18 13.87-8.5 12.9-.77 5.44-5.69 11.43.13 8.14 2.67 2.7 2.68 6 7.27-3.56 8.25 3.85 3.68-4.2 5.37-9.1 3.8.11 2.12-.56 2.47-3.35 1.95-1.76 1.17 2.13 4 2.37 5.4l-3.58.49z" fill="#fff"/><path d="M-308.88 472.49c2.91-15.16 15.34-29.12 16.7-40.95 1.16-10.69 3.3-15.16 9.51-26.4 6.21-11.27 8.73-16.5 10.1-24.3 1.93-10.08 9.5-12.22 13-1.93 3.3 10.29 9.9 36.13 13.4 42.14 3.3 6.02 6.8 14.37 6.2 18.44-.57 4.08 4.48 5.62 7.39 8.55 2.91 2.73 3.3 12.22 11.84 20.37s18.05 13.97 26.01 18.04c7.19 16.16 12.04 40.61 10.87 68.54h-533.29c-.2-7.36 0-14.56.39-21.52 47.37-12.23 65.04-43.49 85.03-41.35 10.87-15.16 24.07-31.46 33.2-39.8 10.87-9.9 32.22-49.3 37.66-73.41 5.44-23.86 13.4-36.68 19.41-35.34 6.02 1.4 8.55 2.53 15.73 24.1 9.9 29.67 16.7 33.2 24.27 54.52 6.6 18.5 20.38 51.64 41.54 68.94 13.2-9.9 28.35-20.98 33.2-28.73 4.08-6.8 10.3-17.3 17.67-22.31 3.3-9.9 7.57-27.59 11.06-31.86 3.3-3.88 4.66-7.75 5.05-14.56.2-6.81 5.44-21.18 12.62-33.2 7.18-11.83 16.7-15.7 20.97 0 4.07 15.75 13.58 48.75 22.52 69.33 3.68 8.55 10.48 25.4 25.43 43.09l1.6 1.9c.31-.53.62-.92.92-2.3z" fill="#509164" stroke="#000" transform="matrix(1.00186 0 0 1 867.91 0)"/><g fill="#034418"><path d="M497.2 528.38c-9.92-9.54-25.67-7.4-33.64-14.96-7.78-7.35-20.23-2.33-47.08-15.9a69.65 69.65 0 0 1-9.91-6.41c-21.2-17.3-35.01-50.5-41.62-68.94-7.4-21.17-14.4-24.65-24.32-54.57-5.25-15.9-8.17-20.77-11.67-22.51 9.14 9.94 4.28 25.45 11.67 42.14 2.92 6.61-1.94 6.61-3.5 4.48-1.36-2.14-5.83-3.13-7.97-2.93 3.89 3.33 4.47 11.67 8.36 20.37 3.7 8.75-2.92 7.8 5.06 20.23 2.13 3.48 2.92 8.7-.2 10.83-3.3 1.94-5.64-6.01-10.5-3.28 1.36 3.13 7 8.75 10.7 12.03 3.7 3.33.2 5.07-2.73 3.53-3.1-1.6-7.2-3.13-9.33-4.87 0 2.53 3.11 5.42 7.39 9.3 4.47 3.72 1.56 6.4-8.76 6.4 1.56 2.34.98 8.15-3.7 8.95 6.43.4 11.3 12.23 19.26 13.02 7.79.55 8.56 6.01.98 7.36-7.59 1.34-22.95-10.89-30.54-18.84-1.94 2.73-6.03 3.88-8.94 2.34-.2 3.67.97 12.62 4.47 18.43-3.7-1.54-8.56-6.4-13.42-12.42-4.67-5.62-7.78 2.73-3.7 7.75 4.09 5.07 6.81 9.15.2 13.02-6.42 3.68-10.5 2.34-15.37-4.47-6.8 5.67-9.53 6.01-14.78 5.07 0 3.28-5.64 11.08-8.17 16.9-5.64 11.23 250.13 34.54 242.93 7.35"/><path d="M681.16 530.1c-67.3-5.86-104.44-31.86-125.45-56.7-14.98-17.5-21.78-34.55-25.48-43.1-8.94-20.57-18.47-53.57-22.56-69.33-1.36-5.21-3.3-8.35-5.64-9.49-3.5-1.74-1.75 4.28.78 7.36 2.72 2.93 2.53 5.66-.97 3.53-3.5-1.94-5.26 1.93-1.95 6.76 3.11 4.67 7.98 10.13 8.95 15.35.97 5.07 1.36 9.5 3.89 12.03 2.33 2.53-6.42 3.13-10.12-2.88-.2 3.87.98 9.49 3.5 8.9 2.34-.4 3.12 1.73-.2 7.6-3.3 5.61-2.9 7.55-1.74 10.09 1.75 3.87 6.22-11.48 8.95-2.74a60.6 60.6 0 0 0 5.83 12.43c2.14 3.13 1.95 5.07-1.17 5.07s-5.83-7.8-6.22-1.2c-.2 6.42 4.86 8.55 10.11 8.15 5.06-.2 5.84 1.74 5.06 4.48-.58 2.73 1.55 5.41 4.47 4.87 2.73-.8 7 1.74 9.34 8.35 2.33 6.6-1.55 9.49-7.2 4.82-5.64-4.82-13.8-9.1-14.59-12.63-.58-3.08-2.91 1.4-.38 5.67 2.33 4.27 3.7 6.21 6.8 7.95 3.11 1.54-.2 7.95-5.44 3.88-5.06-3.88-7.4-2.93-8.95 1.54-2.53 7.2-10.11 5.47-7.78 9.34 2.34 3.88 1.36 10.1-2.14 11.63-3.7 1.54-7.97-.74-7.58-7.55-.97 1.34-4.67 1.94-7.59 1.14-.39 9.54-3.1 12.82-8.95 10.29-.19 2.14-.38 5.81-3.3 8.55 6.42-.95 7.78 3.48 8.36 6.2.4 2.74 1.36 2.35 5.06 2.74 3.5.2 7.97 4.82 1.36 3.68-6.62-.94-16.92 1.34-22.95-3.08 6.22 5.62 23.92 5.81 31.31 12.97 53.88 22.17 148.8 29.92 186.33 19.63.2-4.47-.39-14.76-.78-18.04"/><path d="M603.03 372.77c1.55.74 3.11 2.88 4.47 6.21 3.3 10.29 9.92 36.08 13.42 42.1 3.31 6.01 6.81 14.36 6.23 18.44-.59 4.07 4.47 5.66 7.39 8.54 2.92 2.74 3.3 12.23 11.86 20.38 8.56 8.15 18.1 14.02 26.06 18.1 4.87 10.82 8.56 25.39 10.11 42.48-22.94-1.74-51.73-8.54-66.12-14.96.58-2.13.58-4.82-.2-8.9-.97-4.07-.2-7.2 4.09-11.07 4.28-3.88 2.91-10.5.58-14.17-2.33-3.48-2.14-5.61-.2-7.75 1.76-1.94 1.76-5.47-2.33-9.35-4.28-3.87-1.36-7.95.97-11.43 2.34-3.53 5.84-9.54 3.31-17.3-2.53-7.54-6.42 1.75-9.53-1.13-1.95-2-3.11-5.67-.97-8.75 2.14-2.93.78-8.55-1.75-12.82 5.64-1.54-3.9-18.04-5.45-25.05-1.55-7 1.75-10.49-1.94-13.22"/></g><path d="M358.31 435.81c0 3.68-.97 8.95-1.94 10.69 2.33 3.67 5.44 11.23 5.05 13.56 3.12-2.88 9.15-.6 10.5 7.4 1.37 8.16 2.73 15.71 1.95 20.19 2.73 2.33 8.56 6.4 9.53 10.88.97 4.27 3.9 3.68 6.81 3.28 9.14-1.34 8.36 9.7 17.9 8.15 13.41-1.94 5.05 8.75 18.47 8.35 7.78-.4 18.48 1.14 23.93 8.75 6.02-8.15 11.28-5.07 16.72-2.94 5.45 1.94 12.26 1.4 6.23-2.88-6.23-4.47-18.48-5.07-23.93-3.73-5.45 1.4-13.61.4-19.25-4.62-5.45-5.07-14.98-9.34-20.82-9.54-5.83-.2-7.19-.55-11.66-7.16-4.28-6.4-11.28-5.66-14.79-6-3.3-.2-5.83-4.48-1.94-8.56 5.64-6.01-2.34-6.8.58-10.48 2.92-3.68 1.37-8.55-6.42-9.15-7.77-.6-4.86-3.08-3.7-8.55 2.73-12.97-14.78-10.83-13.41-17.04m305.56 69.28c.78-7.95-5.25-11.23-6.61-17.3-1.17-6-10.7-6.2-13.23-4.42.97 1.74 0 4.82-1.17 6.56-1.16 1.6-1.16 2.54 1.17 3.33 2.53.6 4.67 1.15 4.86 3.28.2 1.94 1.37.2 2.34-2.33.78-2.49 7.58 3.13 8.36 8.15.59 5.07 3.31 8.54 4.09 2.53m-31.32-8.35c1.17 2.93 5.45 7 7.78 7s5.84 1.75 6.42 4.48c.4 2.34 2.33 5.62 4.86 6.01 2.53.4 1.17 2.34-1.94 2.14-3.31-.2-8.36-2.14-8.75-4.47 1.16 4.87-.4 7-3.5 3.48-2.93-3.28-4.48-7.96-8.37-8.55 2.92-.55 3.3-1.34 1.94-4.28-1.16-2.88-.19-10.63 1.56-5.81" fill="#509164"/><path d="M-716.69 545.89c6.38-3.13 16.23-1.94 19.9 1.34 1.93-3.68 5.03-6.4 10.83-5.42 4.65-5.07 8.51-7.6 11.22-5.07 2.71-5.02 11.8-6.2 14.9-3.08 3.28-5.07 9.86-7.4 14.3-4.67 5.8-7.6 16.06-10.29 22.25-6.4 5.41-4.08 11.6-3.29 14.31-.6 2.7 2.53 8.51-2.69 10.83 2.13 4.06-.94 11.8-1.14 13.35 3.13.96-2.33 4.44-3.72 6.38-1.94 0-8.94 6.38-15.75 15.28-13.61 4.25-6.42 11.6-9.1 15.09-6.81 3.67-3.68 11.21-1.15 14.5 3.33 7.16-.2 10.64 3.08 14.31 9.49 3.68 6.41 14.32 10.29 21.08 7.4 6.77-2.53 12.96-3.33 15.28-.2 4.06-3.67 8.52-2.73 11.22-.2 4.64 4.08 9.09-3.12 11.8-.39 4.26 4.47 8.12-4.08 15.66.4 7.36 4.47 21.86 11.23 33.08 11.23s20.12-13.77 27.27-4.08c7.16-4.82 17.99-7.15 25.53-3.08 4.45-4.07 14.7-5.41 18.76-1.54 4.06-6.21 11.8-9.94 18.37-7.8 3.68-6.36 18.38-7.36 22.83 1.59 3.67 0 9.47 3.28 9.47 7.36 3.68 0 9.48 2.33 9.48 6.6 4.06-.99 9.09 1.55 9.87 6.42 8.12-.6 14.7 2.73 18.37 9.49 2.71-2.34 1.16-8.35 7.35-9.5 6.19-.99 8.12.95 9.86 3.09 6.77-5.02 16.25-4.43 24.18 2.73 5.8-2.33 11.22-1.34 12.96 1.54 2.51-2.33 6.57-2.88 10.64-2.88a204.8 204.8 0 0 1-3.87 42.3H-713.8a212.13 212.13 0 0 1-3.68-41.95" fill="#078930" stroke="#000" transform="matrix(1.00186 0 0 1 867.91 0)"/><path d="m416.28 245.04-5.24 16.9h-17.86l14.56 10.48-5.44 16.9 14.17-10.48 14.37 10.48-5.44-16.9 14.37-10.09H422.1l-5.43-16.9m-67.95 5.23-2.53 17.5-17.46 2.73 15.92 7.95-2.72 17.44 12.42-12.62 15.73 8-8.16-15.75 12.62-12.43-17.47 2.73-8.15-15.75m-66.2 16.7.2 17.7-16.9 5.6 17.09 5.28v17.64l10.1-14.56 16.89 5.27-10.68-14.22 10.29-14.36-16.9 5.66-10.67-14.2m-61.74 27.17 3.1 17.5-15.72 8.34 17.66 2.34 2.92 17.44 7.57-15.9 17.47 2.34-12.81-12.43 7.77-15.75-15.73 8.35-12.81-12.23m264.41-43.48 2.52 17.5 17.47 2.73-15.92 7.95 2.72 17.44-12.42-12.62-15.73 8 8.15-15.75-12.42-12.43 17.47 2.73 8.16-15.75m66.01 16.7-.2 17.7 16.9 5.6-17.09 5.28v17.64l-10.1-14.56-16.88 5.27 10.68-14.22-10.3-14.36 16.7 5.66 10.68-14.2m61.93 27.17-3.1 17.5 15.72 8.34-17.67 2.34-2.9 17.44-7.58-15.9-17.47 2.33 12.81-12.42-7.77-15.76 15.73 8.35 12.81-12.22" fill="#fff"/><path d="m387.19 672.52 1.93-129.86c0-6.21 1.17-7.2 1.37-.4l.38 131.65" fill="#865800"/><path d="m387.19 672.52 1.93-129.86c0-6.21 1.17-7.2 1.37-.4l.38 131.65" fill="#704d25" stroke="#000" stroke-linecap="round" stroke-linejoin="round"/><path d="M390.68 542.46c4.46-3.88 14.75 4.87 21.15 1.2-3.88 12.57-19.4 2.68-21.15 7.35v-8.55" fill="#fff"/><path d="M390.68 542.46c4.46-3.88 14.75 4.87 21.15 1.2-3.88 12.57-19.4 2.68-21.15 7.35v-8.55" fill="none" stroke="#000" stroke-linecap="round" stroke-linejoin="round"/><path d="m431.06 672.72 1.93-129.66c0-6.21 1.17-7.4 1.37-.2l.38 131.4" fill="#865800"/><path d="m431.06 672.72 1.93-129.66c0-6.21 1.17-7.4 1.37-.2l.38 131.4" fill="#704d25" stroke="#000" stroke-linecap="round" stroke-linejoin="round"/><path d="M434.75 542.86c4.46-3.88 14.75 4.87 21.16 1.14-4.08 12.63-19.42 2.74-21.16 7.4v-8.54" fill="#fff"/><path d="M434.75 542.86c4.46-3.88 14.75 4.87 21.16 1.14-4.08 12.63-19.42 2.74-21.16 7.4v-8.54" fill="none" stroke="#000" stroke-linecap="round" stroke-linejoin="round"/><path d="m472.6 679.93 1.94-129.91c0-6.21 1.16-7.16 1.36-.15l.38 131.4" fill="#865800"/><path d="m472.6 679.93 1.94-129.91c0-6.21 1.16-7.16 1.36-.15l.38 131.4" fill="#704d25" stroke="#000" stroke-linecap="round" stroke-linejoin="round"/><path d="M476.1 550.02c4.46-3.88 14.75 4.87 21.16 1-4.08 12.62-19.41 2.73-21.16 7.35v-8.5" fill="#fff"/><path d="M476.1 550.02c4.46-3.88 14.75 4.87 21.16 1-4.08 12.62-19.41 2.73-21.16 7.35v-8.5.15z" fill="none" stroke="#000" stroke-linecap="round" stroke-linejoin="round"/><path d="M487.55 694.84c-4.47 0-10.1-2.09-11.65-5.62-3.3 3.14-17.08 4.87-22.52.2-3.69 3.13-15.14 5.27-20.97 1.54-4.66 4.08-18.44 3.73-25.63-.54-2.9 3.08-11.26 5.41-15.72 5.81-6.4-9.14-23.69-23.7-34.56-29.12-12.23-6.02-36.69-17.7-49.7-23.31-7.57-3.28-14.56-8.95-.19-2.73 15.34 6.6 40 16.5 56.69 23.9 23.88 10.49 119.2 8.95 134.92 7.55 8.15-.54 19.02-6.76 26.6-11.43 5.82-3.53 6.02-1.39.39 1.54-6.22 3.28-13.01 5.82-17.87 12.63-6.6 9.14-15.72 13.22-19.22 19.23" fill="#704d25"/><path d="M487.55 694.84c-4.47 0-10.1-2.09-11.65-5.62-3.3 3.14-17.08 4.87-22.52.2-3.69 3.13-15.14 5.27-20.97 1.54-4.66 4.08-18.44 3.73-25.63-.54-2.9 3.08-11.26 5.41-15.72 5.81-6.4-9.14-23.69-23.7-34.56-29.12-12.23-6.02-36.69-17.7-49.7-23.31-7.57-3.28-14.56-8.95-.19-2.73 15.34 6.6 40 16.5 56.69 23.9 23.88 10.49 119.2 8.95 134.92 7.55 8.15-.54 19.02-6.76 26.6-11.43 5.82-3.53 6.02-1.39.39 1.54-6.22 3.28-13.01 5.82-17.87 12.63-6.6 9.14-15.72 13.22-19.22 19.23l-.58.35z" fill="#704d25" stroke="#000" stroke-linecap="round" stroke-linejoin="round"/><path d="m496.48 572.18-30.87-3.33c-5.44 9.14-6.21 20.57-3.3 28.58 9.9-9.35 27.76-4.48 36.7.34-2.92-8.15-7.39-19.18-2.34-25.4" fill="#fff"/><path d="m496.48 572.18-30.87-3.33c-5.44 9.14-6.21 20.57-3.3 28.58 9.9-9.35 27.76-4.48 36.7.34-2.92-8.15-7.39-19.18-2.34-25.4l-.2-.19z" fill="none" stroke="#000" stroke-linecap="round" stroke-linejoin="round"/><path d="M498.8 597.58c-9.11.2-30.86-.35-37.66-.35-7.37 9.5-3.3 23.86-1.55 29.32 8.15-13.02 33.98-6.06 43.88 3.28-5.05-9.54-8.93-17.69-4.47-32.4" fill="#fff"/><path d="M498.8 597.58c-9.11.2-30.86-.35-37.66-.35-7.37 9.5-3.3 23.86-1.55 29.32 8.15-13.02 33.98-6.06 43.88 3.28-5.05-9.54-8.93-17.69-4.47-32.4l-.2.15z" fill="none" stroke="#000" stroke-linecap="round" stroke-linejoin="round"/><path d="M503.28 630.23c-8.93-1.59-37.67-3.53-43.5-5.07-4.65 9.7-8.53 22.32-10.47 34.4 13.97-15.36 46.4-4.08 53.19 10.83-6.8-12.83-13.6-32.2.97-40.16" fill="#fff"/><path d="M503.28 630.23c-8.93-1.59-37.67-3.53-43.5-5.07-4.65 9.7-8.53 22.32-10.47 34.4 13.97-15.36 46.4-4.08 53.19 10.83-6.8-12.83-13.6-32.2.97-40.16h-.2z" fill="none" stroke="#000" stroke-linecap="round" stroke-linejoin="round"/><path d="m464.84 562.84-40.78-5.42c-5.82 6.81-10.1 18.84-9.5 32.8 8.53-8.15 39.79-4.87 47.75 6.81-2.72-12.62-6.21-28.52 2.72-34.39" fill="#fff"/><path d="m464.84 562.84-40.78-5.42c-5.82 6.81-10.1 18.84-9.5 32.8 8.53-8.15 39.79-4.87 47.75 6.81-2.72-12.62-6.21-28.52 2.72-34.39l-.2.2z" fill="none" stroke="#000" stroke-linecap="round" stroke-linejoin="round"/><path d="m461.73 598.18-45.24-6.01c-7.18 9.14-6.8 22.11-5.05 35.93 10.3-8.55 43.88-3.88 51.84 7.55-4.85-16.7-8.93-26.59-1.36-37.47" fill="#fff"/><path d="m461.73 598.18-45.24-6.01c-7.18 9.14-6.8 22.11-5.05 35.93 10.3-8.55 43.88-3.88 51.84 7.55-4.85-16.7-8.93-26.59-1.36-37.47h-.2z" fill="none" stroke="#000" stroke-linecap="round" stroke-linejoin="round"/><path d="m463.09 635.65-46.01-4.67c-7.19 8.94-12.04 18.09-10.49 31.46 7.18-11.83 37.66-3.28 50.67 9.89-7.76-10.29-8.54-25.05 5.83-36.68" fill="#fff"/><path d="m463.09 635.65-46.01-4.67c-7.19 8.94-12.04 18.09-10.49 31.46 7.18-11.83 37.66-3.28 50.67 9.89-7.76-10.29-8.54-25.05 5.83-36.68z" fill="none" stroke="#000" stroke-linecap="round" stroke-linejoin="round"/><path d="M388.15 562.84c-5.05 3.88-12.82 17.3-13.98 20.97 8.54-3.48 26.6-4.47 37.86 3.88-3.3-6.41-4.47-17.64-1.56-22.32-4.46-1.93-16.3-2.93-22.13-2.33" fill="#fff"/><path d="M388.15 562.84c-5.05 3.88-12.82 17.3-13.98 20.97 8.54-3.48 26.6-4.47 37.86 3.88-3.3-6.41-4.47-17.64-1.56-22.32-4.46-1.93-16.3-2.93-22.13-2.33l-.2-.2z" fill="none" stroke="#000" stroke-linecap="round" stroke-linejoin="round"/><path d="M369.32 590.02c11.84-.2 36.1 2.73 46.59 5.62-6.21 9.34-5.44 25.24-2.91 35.13-16.11-15.9-42.71-15.5-58.44-10.83 2.91-7.2 10.1-22.17 14.56-30.12" fill="#fff"/><path d="M369.32 590.02c11.84-.2 36.1 2.73 46.59 5.62-6.21 9.34-5.44 25.24-2.91 35.13-16.11-15.9-42.71-15.5-58.44-10.83 2.91-7.2 10.1-22.17 14.56-30.12l.2.2z" fill="none" stroke="#000" stroke-linecap="round" stroke-linejoin="round"/><path d="M416.3 634.31c-11.46.4-40.77-4.67-54.17-11.28-4.66 12.62-6.8 33.6-7.18 41.15 13-17.45 44.85-7.75 54.94 10.09-.97-9.5-4.47-32.8 6.4-40.16" fill="#fff"/><path d="M416.3 634.31c-11.46.4-40.77-4.67-54.17-11.28-4.66 12.62-6.8 33.6-7.18 41.15 13-17.45 44.85-7.75 54.94 10.09-.97-9.5-4.47-32.8 6.4-40.16v.2z" fill="none" stroke="#000" stroke-linecap="round" stroke-linejoin="round"/><path d="M388.15 562.84c-32.23 19.43-56.7 58.65-65.82 85.83 9.13-.2 20.58 2.73 24.66 10.88 9.51-39.06 22.9-75.14 41.16-96.9" fill="#fff"/><path d="M388.15 562.84c-32.23 19.43-56.7 58.65-65.82 85.83 9.13-.2 20.58 2.73 24.66 10.88 9.51-39.06 22.9-75.14 41.16-96.9v.19zm.97-18.84c-26.4 26.59-63.87 74-77.46 99.8m184.82-71.62c7.18 34.94 8.93 81.9 6.01 99.2" fill="none" stroke="#000" stroke-linecap="round" stroke-linejoin="round"/><path d="M534.69 635.28c-8.19 4.08-23.7-7.34-31.03-2.15v-4.53c7.11-4.96 22.63 6.46 31.03 2.16v4.74" fill="#00009e"/><path d="M534.69 635.28c-8.19 4.08-23.7-7.34-31.03-2.15v-4.53c7.11-4.96 22.63 6.46 31.03 2.16v4.74-.22z" fill="#002b7f"/><path d="M534.69 640.02c-8.19 4.08-23.7-7.34-31.03-2.37v-4.75c7.11-4.96 22.63 6.46 31.03 2.15v4.75" fill="#fff"/><path d="M534.69 640.02c-8.19 4.08-23.7-7.34-31.03-2.37v-4.75c7.11-4.96 22.63 6.46 31.03 2.15v4.75z" fill="none"/><path d="M534.69 644.77c-8.19 4.3-23.7-7.12-31.03-2.15v-4.75c7.11-4.96 22.63 6.46 31.03 2.38v4.52" fill="#ff0016"/><path d="M534.69 644.77c-8.19 4.3-23.7-7.12-31.03-2.15v-4.75c7.11-4.96 22.63 6.46 31.03 2.38v4.52" fill="#ce1126"/><path d="M534.69 649.51c-8.19 4.3-23.7-7.12-31.03-2.15v-4.75c7.11-4.74 22.63 6.46 31.03 2.15z" fill="#fff"/><path d="M534.69 649.51c-8.19 4.3-23.7-7.12-31.03-2.15v-4.75c7.11-4.74 22.63 6.46 31.03 2.15z" fill="none"/><path d="M534.69 654.04c-8.19 4.3-23.7-7.12-31.03-2.15v-4.75c7.11-4.96 22.63 6.46 31.03 2.15v4.53" fill="#00009e"/><path d="M534.69 654.04c-8.19 4.3-23.7-7.12-31.03-2.15v-4.75c7.11-4.96 22.63 6.46 31.03 2.15v4.75z" fill="#002b7f"/><g stroke-width="1.83"><path d="m404.08 440.14.7-46.08c0-2.21.4-2.56.48-.15l.13 46.72" fill="#865800"/><path d="m404.08 440.14.7-46.08c0-2.21.4-2.56.48-.15l.13 46.72" fill="#704d25" stroke="#000" stroke-linecap="round" stroke-linejoin="round" stroke-width=".65"/><path d="M405.32 393.98c1.59-1.37 5.24 1.73 7.51.43-1.38 4.46-6.89.95-7.5 2.6v-3.03" fill="#fff"/><path d="M405.32 393.98c1.59-1.37 5.24 1.73 7.51.43-1.38 4.46-6.89.95-7.5 2.6v-3.03" fill="none" stroke="#000" stroke-linecap="round" stroke-linejoin="round" stroke-width=".65"/><path d="m419.65 440.2.69-46c0-2.2.41-2.63.48-.07l.14 46.62" fill="#865800"/><path d="m419.65 440.2.69-46c0-2.2.41-2.63.48-.07l.14 46.62" fill="#704d25" stroke="#000" stroke-linecap="round" stroke-linejoin="round" stroke-width=".65"/><path d="M420.96 394.13c1.58-1.38 5.24 1.72 7.51.4-1.45 4.48-6.89.97-7.51 2.63v-3.03" fill="#fff"/><path d="M420.96 394.13c1.58-1.38 5.24 1.72 7.51.4-1.45 4.48-6.89.97-7.51 2.63v-3.03" fill="none" stroke="#000" stroke-linecap="round" stroke-linejoin="round" stroke-width=".65"/><path d="m434.4 442.76.68-46.1c0-2.2.41-2.53.48-.05l.14 46.63" fill="#865800"/><path d="m434.4 442.76.68-46.1c0-2.2.41-2.53.48-.05l.14 46.63" fill="#704d25" stroke="#000" stroke-linecap="round" stroke-linejoin="round" stroke-width=".65"/><path d="M435.63 396.67c1.59-1.38 5.24 1.72 7.51.35-1.44 4.48-6.88.97-7.5 2.6v-3" fill="#fff"/><path d="M435.63 396.67c1.59-1.38 5.24 1.72 7.51.35-1.44 4.48-6.88.97-7.5 2.6v-3 .05z" fill="none" stroke="#000" stroke-linecap="round" stroke-linejoin="round" stroke-width=".65"/><path d="M439.7 448.06c-1.59 0-3.58-.74-4.14-2-1.17 1.11-6.06 1.73-7.99.07-1.3 1.12-5.37 1.87-7.44.55-1.65 1.45-6.54 1.32-9.1-.2-1.02 1.1-3.99 1.93-5.57 2.07-2.27-3.25-8.4-8.41-12.26-10.34a514.67 514.67 0 0 0-17.64-8.26c-2.69-1.17-5.17-3.18-.07-.97 5.44 2.34 14.2 5.85 20.12 8.48 8.47 3.72 42.3 3.17 47.87 2.68 2.9-.2 6.75-2.4 9.44-4.06 2.07-1.25 2.14-.5.14.55-2.2 1.16-4.62 2.06-6.34 4.48-2.34 3.24-5.58 4.69-6.82 6.82" fill="#704d25"/><path d="M439.7 448.06c-1.59 0-3.58-.74-4.14-2-1.17 1.11-6.06 1.73-7.99.07-1.3 1.12-5.37 1.87-7.44.55-1.65 1.45-6.54 1.32-9.1-.2-1.02 1.1-3.99 1.93-5.57 2.07-2.27-3.25-8.4-8.41-12.26-10.34a514.67 514.67 0 0 0-17.64-8.26c-2.69-1.17-5.17-3.18-.07-.97 5.44 2.34 14.2 5.85 20.12 8.48 8.47 3.72 42.3 3.17 47.87 2.68 2.9-.2 6.75-2.4 9.44-4.06 2.07-1.25 2.14-.5.14.55-2.2 1.16-4.62 2.06-6.34 4.48-2.34 3.24-5.58 4.69-6.82 6.82l-.2.13z" fill="#704d25" stroke="#000" stroke-linecap="round" stroke-linejoin="round" stroke-width=".65"/><path d="m442.87 404.53-10.96-1.18c-1.93 3.24-2.2 7.3-1.17 10.14 3.51-3.32 9.85-1.59 13.02.12-1.03-2.89-2.62-6.8-.83-9" fill="#fff"/><path d="m442.87 404.53-10.96-1.18c-1.93 3.24-2.2 7.3-1.17 10.14 3.51-3.32 9.85-1.59 13.02.12-1.03-2.89-2.62-6.8-.83-9l-.06-.08z" fill="none" stroke="#000" stroke-linecap="round" stroke-linejoin="round" stroke-width=".65"/><path d="M443.7 413.54c-3.24.07-10.96-.12-13.37-.12-2.62 3.37-1.17 8.46-.55 10.4 2.89-4.62 12.05-2.15 15.57 1.17-1.8-3.39-3.17-6.28-1.59-11.5" fill="#fff"/><path d="M443.7 413.54c-3.24.07-10.96-.12-13.37-.12-2.62 3.37-1.17 8.46-.55 10.4 2.89-4.62 12.05-2.15 15.57 1.17-1.8-3.39-3.17-6.28-1.59-11.5l-.07.05z" fill="none" stroke="#000" stroke-linecap="round" stroke-linejoin="round" stroke-width=".65"/><path d="M445.28 425.13c-3.17-.56-13.37-1.25-15.43-1.8a46.57 46.57 0 0 0-3.72 12.2c4.96-5.44 16.46-1.44 18.87 3.85-2.4-4.55-4.82-11.43.35-14.25" fill="#fff"/><path d="M445.28 425.13c-3.17-.56-13.37-1.25-15.43-1.8a46.57 46.57 0 0 0-3.72 12.2c4.96-5.44 16.46-1.44 18.87 3.85-2.4-4.55-4.82-11.43.35-14.25h-.07z" fill="none" stroke="#000" stroke-linecap="round" stroke-linejoin="round" stroke-width=".65"/><path d="m431.64 401.22-14.47-1.93c-2.07 2.42-3.58 6.69-3.38 11.64 3.04-2.89 14.13-1.73 16.95 2.42-.96-4.48-2.2-10.12.97-12.2" fill="#fff"/><path d="m431.64 401.22-14.47-1.93c-2.07 2.42-3.58 6.69-3.38 11.64 3.04-2.89 14.13-1.73 16.95 2.42-.96-4.48-2.2-10.12.97-12.2l-.07.07z" fill="none" stroke="#000" stroke-linecap="round" stroke-linejoin="round" stroke-width=".65"/><path d="m430.54 413.76-16.06-2.14c-2.55 3.25-2.4 7.85-1.79 12.75 3.65-3.03 15.57-1.37 18.4 2.68-1.73-5.92-3.17-9.43-.49-13.3" fill="#fff"/><path d="m430.54 413.76-16.06-2.14c-2.55 3.25-2.4 7.85-1.79 12.75 3.65-3.03 15.57-1.37 18.4 2.68-1.73-5.92-3.17-9.43-.49-13.3h-.07z" fill="none" stroke="#000" stroke-linecap="round" stroke-linejoin="round" stroke-width=".65"/><path d="m431.02 427.05-16.33-1.66c-2.55 3.18-4.27 6.42-3.72 11.17 2.55-4.2 13.36-1.17 17.98 3.5-2.75-3.64-3.03-8.88 2.07-13" fill="#fff"/><path d="m431.02 427.05-16.33-1.66c-2.55 3.18-4.27 6.42-3.72 11.17 2.55-4.2 13.36-1.17 17.98 3.5-2.75-3.64-3.03-8.88 2.07-13z" fill="none" stroke="#000" stroke-linecap="round" stroke-linejoin="round" stroke-width=".65"/><path d="M404.43 401.22c-1.8 1.37-4.55 6.13-4.97 7.44 3.04-1.24 9.44-1.59 13.44 1.37-1.17-2.27-1.59-6.26-.55-7.91-1.59-.7-5.79-1.04-7.86-.83" fill="#fff"/><path d="M404.43 401.22c-1.8 1.37-4.55 6.13-4.97 7.44 3.04-1.24 9.44-1.59 13.44 1.37-1.17-2.27-1.59-6.26-.55-7.91-1.59-.7-5.79-1.04-7.86-.83l-.07-.07z" fill="none" stroke="#000" stroke-linecap="round" stroke-linejoin="round" stroke-width=".65"/><path d="M397.74 410.86c4.2-.07 12.81.97 16.54 2-2.2 3.3-1.93 8.95-1.04 12.46-5.72-5.64-15.15-5.5-20.73-3.84 1.03-2.56 3.58-7.87 5.16-10.69" fill="#fff"/><path d="M397.74 410.86c4.2-.07 12.81.97 16.54 2-2.2 3.3-1.93 8.95-1.04 12.46-5.72-5.64-15.15-5.5-20.73-3.84 1.03-2.56 3.58-7.87 5.16-10.69l.07.07z" fill="none" stroke="#000" stroke-linecap="round" stroke-linejoin="round" stroke-width=".65"/><path d="M414.41 426.58c-4.06.14-14.46-1.66-19.22-4-1.65 4.47-2.4 11.92-2.55 14.6 4.62-6.2 15.92-2.76 19.5 3.58-.34-3.37-1.58-11.64 2.27-14.25" fill="#fff"/><path d="M414.41 426.58c-4.06.14-14.46-1.66-19.22-4-1.65 4.47-2.4 11.92-2.55 14.6 4.62-6.2 15.92-2.76 19.5 3.58-.34-3.37-1.58-11.64 2.27-14.25v.07z" fill="none" stroke="#000" stroke-linecap="round" stroke-linejoin="round" stroke-width=".65"/><path d="M404.43 401.22c-11.44 6.9-20.12 20.8-23.36 30.45 3.24-.07 7.3.97 8.75 3.86 3.38-13.86 8.13-26.66 14.6-34.38" fill="#fff"/><path d="M404.43 401.22c-11.44 6.9-20.12 20.8-23.36 30.45 3.24-.07 7.3.97 8.75 3.86 3.38-13.86 8.13-26.66 14.6-34.38v.07zm.34-6.69c-9.37 9.44-22.66 26.26-27.49 35.41m65.59-25.41c2.54 12.4 3.17 29.06 2.13 35.2" stroke-width=".65" fill="none" stroke="#000" stroke-linecap="round" stroke-linejoin="round"/><path d="M456.43 426.92c-2.91 1.45-8.41-2.6-11.01-.76v-1.6c2.52-1.77 8.03 2.28 11 .76V427" fill="#00009e"/><path d="M456.43 426.92c-2.91 1.45-8.41-2.6-11.01-.76v-1.6c2.52-1.77 8.03 2.28 11 .76V427v-.08z" fill="#002b7f"/><path d="M456.43 428.6c-2.91 1.45-8.41-2.6-11.01-.84v-1.68c2.52-1.76 8.03 2.29 11 .76v1.69" fill="#fff"/><path d="M456.43 428.6c-2.91 1.45-8.41-2.6-11.01-.84v-1.68c2.52-1.76 8.03 2.29 11 .76v1.69z" fill="none"/><path d="M456.43 430.29c-2.91 1.53-8.41-2.53-11.01-.77v-1.68c2.52-1.76 8.03 2.3 11 .84v1.6" fill="#ff0016"/><path d="M456.43 430.29c-2.91 1.53-8.41-2.53-11.01-.77v-1.68c2.52-1.76 8.03 2.3 11 .84v1.6" fill="#ce1126"/><path d="M456.43 431.97c-2.91 1.53-8.41-2.52-11.01-.76v-1.69c2.52-1.68 8.03 2.3 11 .77z" fill="#fff"/><path d="M456.43 431.97c-2.91 1.53-8.41-2.52-11.01-.76v-1.69c2.52-1.68 8.03 2.3 11 .77z" fill="none"/><path d="M456.43 433.58c-2.91 1.53-8.41-2.53-11.01-.77v-1.68c2.52-1.76 8.03 2.3 11 .76v1.61" fill="#00009e"/><path d="M456.43 433.58c-2.91 1.53-8.41-2.53-11.01-.77v-1.68c2.52-1.76 8.03 2.3 11 .76v1.69z" fill="#002b7f"/></g><path d="M650.12 284.78c-24.66 97.46 2.91 159.19 21.94 201.88 17.86 39.8 21.35 132.4-43.88 197.85-96.87 96.86-170.65 57.85-207.73 110.63m-7.95.19c-37.08-52.78-110.85-13.76-207.73-110.63-65.23-65.45-61.73-158.04-43.87-197.85 19.02-42.49 46.59-104.22 21.94-201.88" fill="none" stroke="#000" stroke-width="3"/><g stroke="#000" stroke-linecap="round" stroke-linejoin="round" stroke-width="3"><path d="M427.55 39.79c1.36 6.3 3.1 23.32-6.21 25.75 17.08 21.08 41.74 24.1 85.03 24.1 27.18 0 49.12-.2 65.23 0 0 5.4-1.75 11.17-1.75 17.91 0 6.5 6.8 9.51 16.7 7.27 9.9-2.25 31.06-8.6 42.51 1.48 19.22 17.2 54.56 20.16 64.07 31.01-2.91-13.1-15.34-26.33-29.12-37.37 13-1.86 29.9-.52 35.72 3.92-14.76-16-41.55-16.38-55.14-24.22-13.6-7.84-26.6-14.77-36.7-17.4 0-4.44-.58-8.02-4.46-10.6-8.54-5.98-25.24-8.03-38.83-8.8 1.94-2.05 2.33-4.49 2.33-8.22V23.55c0-7.31.78-9.18-7.57-14.38-32.22-19.79-71.44-33.98-142.88-33.98-71.25 0-110.47 14-142.88 33.97-8.54 5.21-7.57 7.08-7.57 14.39v21.07c0 3.73.2 6.17 2.33 8.23-13.59.57-30.09 2.62-38.83 8.79-3.68 2.58-4.46 5.97-4.46 10.6-9.9 2.44-22.91 9.37-36.7 17.4-13.59 7.84-40.37 8.22-55.13 24.23 5.63-4.44 22.52-5.97 35.53-3.92-13.6 10.85-26.02 24.09-29.12 37.37 9.5-10.84 44.84-13.8 64.26-31.01 11.26-10.09 32.42-3.92 42.51-1.48 9.9 2.24 16.7-.58 16.7-7.27 0-6.73-1.75-12.52-1.75-17.92 15.92-.38 37.86 0 65.23 0 43.1 0 67.76-3 85.03-24.08-9.51-2.44-7.76-19.26-6.21-25.76-20.19-4.5-30.28-12.14-46.6-12.14-16.1 0-19.02 8.55-19.02 11.76v2.62c-12.81 0-30.87-3.2-35.33-11.6 24.85-10.1 61.74-19.22 112.4-19.22 50.67 0 87.55 9.13 112.4 19.21-4.46 8.41-22.52 11.61-35.33 11.61v-2.62c0-3.01-2.72-11.76-19.03-11.76s-26.4 7.46-46.59 12.14h-.77z" fill="#89c5e3"/><g fill="none"><path d="M260.98 89.97c-12.62.19-21.55.95-26.4 2.43-7.77 2.44-8.54 6.55-3.5 8.8m108.13-59.02v9.75c0 6.3 6.8 14.52 17.28 14.52 25.82 0 30.87-4.44 50.09-3.92"/><path d="M406.38 62c-17.86-3-32.03-12.51-47.76-12.51-15.53 0-18.83 7.07-16.11 10.46M224.48 72.81v19.21c0 5.26 3.69 12.52 17.67 9.75 12.23-2.25 20.19.52 20.19 5.78"/><path d="M267.96 53.22c2.91 2.96 9.32 5.59 23.5 10.65 26 9.51 85.8 16.01 124.63-.95m112.79-32.5c5.05 2.06 9.7 4.11 13.79 6.17 24.26 12.13 26 14.95 17.47 19.59m11.65 33.79c12.62.19 21.55.95 26.4 2.43 7.77 2.44 8.54 6.55 3.5 8.8M493.36 42.17v9.75c0 6.3-6.8 14.52-17.28 14.52-25.82 0-30.87-4.44-50.09-3.92"/><path d="M426.18 62c17.87-3 32.04-12.51 47.77-12.51 15.53 0 18.83 7.07 15.92 10.46m118.22 12.86v19.21c0 5.26-3.69 12.52-17.67 9.75-12.23-2.25-20.2.52-20.2 5.78"/><path d="M564.61 53.22c-2.91 2.96-9.32 5.59-23.5 10.65-26 9.51-85.8 16.01-124.63-.95"/></g><path d="M416.28 66.45c11.84 0 12.23-8.93 12.23-17.15 0-8.03-.39-17.02-12.23-17.02s-12.23 8.99-12.23 17.02.39 17.15 12.23 17.15z" fill="#89c5e3"/><path d="M304.55 30.44c-5.17 2.05-9.94 4.1-14.11 6.15-24.85 12.13-26.63 14.94-17.89 19.57" fill="none"/></g><g id="aq" fill="#078930" stroke="#000" stroke-width="3"><path d="M387.94 192.56c16.3-10.49 36.5-28.13 43.87-39.8 10.1-16.31 11.46-8.36 19.22-9.7-18.25 19.98-40.96 41.35-57.07 52.63l-6.02-3.13m-136.48 39.21c-40.77-23.11-56.3 1-65.81 2.14 11.26 2.73 20.77 20.77 65.81-2.14z"/><path d="M269.71 218.4c-38.83-26.24-56.1-3.33-65.82-2.73 11.07 3.48 19.23 22.31 65.82 2.73z"/><path d="M297.47 202.84c-38.25-26.99-56.1-4.47-65.82-4.08 11.07 3.88 18.64 22.52 65.82 4.08z"/><path d="M320.38 189.08c-35.14-31.06-55.33-10.49-64.84-11.28 10.48 5.07 16.11 24.45 64.84 11.28z"/><path d="M349.69 178.99c-33.58-32.85-54.74-13.22-64.26-14.56 10.3 5.41 14.95 25.4 64.26 14.56z"/><path d="M380.37 175.66c-27.76-37.67-51.83-21.92-61.15-24.65 9.13 7.2 10.48 27.38 61.15 24.65z"/><path d="M385.42 177.2c-1.36-8.5-17.28-19.38-18.64-23.46 4.08-.4 4.66-5.27 2.92-7-1.37-1.35-4.67-.6-6.41 1.19-1.75 2.13-3.5 7.15 2.13 11.43 5.83 4.27 13.2 12.02 15.54 17.84"/><path d="M214.38 234.5c11.06-3.33 25.04-1.74 34.75-2.73m-16.69-13.57c11.45-2.54 25.04 0 34.94 0m-7.18-16.35c11.45-2.09 25.04.6 34.94.6M283.5 184c11.65-.94 24.85 3.33 34.56 4.47m-5.05-16.5c11.64-.4 24.66 4.47 34.36 6.21m-1.94-15.16c11.65 1.2 23.69 8.55 32.81 11.48" stroke-linecap="round" stroke-linejoin="round"/></g><use height="100%" transform="matrix(-1 0 0 1 832.76 0)" width="100%" xlink:href="#aq"/><g stroke="#000" stroke-linecap="round" stroke-linejoin="round" stroke-width="3"><g fill="#fff"><path d="M416.49 190.46c9.13 0 16.89 0 22.52-.74v-13.03c0-4.27 15.14-9.34 38.05-4.87 89.7 17.5 101.92 58.05 170.07 81.36.77.2 3.3 1 6.21 1.54 1.75-4.08 3.69-8.15 5.83-13.17 1.16-3.73 11.06-3.53 19.8.55 10.1 4.87 14.56 10.48 12.81 13.42-1.75 4.27-3.5 7.75-5.05 11.23 15.92 5.66 44.85 14.21 35.34 52.43-7.38-7.16-25.24-14.96-36.3-14.96-12.62 0-26.22-4.82-21.94-18.64-2.33-1.14-6.41-3.28-8.55-3.67-.38 1.2-.96 2.33-1.55 3.48-2.91 7.2-15.53 9.74-28.15 5.46-71.06-24.25-93-77.87-176.86-78.62v2.33c0 6.76-8.74 12.98-32.23 12.98-23.3 0-32.22-6.22-32.22-12.97v-2.34c-83.67.55-105.81 54.17-176.86 78.62-12.43 4.28-25.04 1.54-28.15-5.46-.4-1.15-.97-2.29-1.56-3.48-2.13.4-6.2 2.53-8.54 3.67 4.08 13.62-9.12 18.64-21.94 18.64-11.06 0-28.73 7.8-36.3 14.96-9.51-38.02 19.03-46.57 35.33-52.43-1.55-3.48-3.1-6.96-5.05-11.23-1.55-2.94 2.72-8.55 12.82-13.42 8.73-4.28 18.44-4.48 19.8-.55 2.14 4.82 3.88 8.9 5.83 13.17 2.9-.55 5.23-1.34 6.2-1.54 67.96-23.3 80.38-63.86 170.07-81.36 22.72-4.47 38.05.6 38.05 4.87v13.02c5.63.55 13.4.75 22.52.75z"/><path d="M393.78 189.71c-6.02-.6-9.51-1.94-9.51-4.27 0-5.82 9.51-3.88 9.51-8.75m-228.51 76.89c3.5 8.35 7.96 19.04 12.04 28.13m-20.58-23.86c3.5 8.15 10.1 22.12 12.04 27.93"/></g><path d="M140.62 255.71c2.33 4.08 14.56-1.94 16.11 1.94 1.36 4.07-2.32 6.21-10.87 9.3m27.57-25.4c1.74 5.22-10.49 7.36-7.96 12.03 1.55 3.08 8.35 2.13 13.78.94" fill="none"/><path d="M384.06 185.24v26.99m55.14-22.52c5.83-.6 9.51-1.94 9.51-4.27 0-5.82-9.51-3.88-9.51-8.75m228.5 76.89c-3.5 8.35-7.96 19.04-12.04 28.13m20.58-23.86c-3.5 8.15-10.1 22.12-12.04 27.93" fill="#fff"/><path d="M692.36 255.71c-2.33 4.08-14.56-1.94-16.11 1.94-1.36 4.07 2.32 6.21 10.87 9.3m-27.57-25.4c-1.74 5.22 10.49 7.36 7.96 12.03-1.55 3.08-8.35 2.13-13.79.94" fill="none"/><path d="M448.91 185.24v26.99" fill="#fff"/></g><path d="m203.96 281.77-7.52-26.88 9.37-2.63c2.4-.67 4.17-.9 5.34-.7 1.16.19 2.24.79 3.23 1.8 1 1 1.72 2.34 2.19 4 .59 2.1.56 3.94-.1 5.5a6.99 6.99 0 0 1-3.62 3.63c1.15.41 2.15.94 3 1.58.85.64 2.1 1.86 3.77 3.66l4.15 4.5-5.3 1.48-4.87-4.95a40.24 40.24 0 0 0-3.47-3.3 3.62 3.62 0 0 0-1.63-.73c-.52-.08-1.3.03-2.33.32l-.91.25 3.14 11.23zm.1-16.76 3.3-.92c2.02-.56 3.27-1.01 3.77-1.34.5-.33.85-.82 1.04-1.45.2-.63.17-1.4-.08-2.29-.24-.86-.6-1.5-1.1-1.92a2.72 2.72 0 0 0-1.69-.68c-.45-.02-1.67.25-3.67.8l-3.48.98zm24.61 9.54-12.4-25.02L231.5 242l2.1 4.24-11.1 5.49 2.75 5.55 10.3-5.1 2.1 4.2-10.31 5.11 3.37 6.81 11.47-5.68 2.09 4.21zm20.14-10.63-15.13-23.46 6.24-4.03c2.33-1.5 3.92-2.36 4.78-2.6a6.15 6.15 0 0 1 4.32.5c1.5.7 2.86 1.99 4.07 3.86a10.3 10.3 0 0 1 1.79 4.88 6.64 6.64 0 0 1-.85 3.97c-.66 1.08-2.16 2.38-4.5 3.9l-2.55 1.63 5.7 8.85zm-8.7-22 4.3 6.67 2.14-1.39c1.44-.92 2.36-1.66 2.74-2.2a3.1 3.1 0 0 0 .57-1.91 4.28 4.28 0 0 0-.76-2.26 4.25 4.25 0 0 0-1.78-1.64 3 3 0 0 0-1.96-.26c-.62.14-1.74.74-3.36 1.78zm10.44-12.15 3.78-2.64 8.66 12.4a37.37 37.37 0 0 0 2.77 3.66c.87.9 1.81 1.4 2.83 1.5a4.46 4.46 0 0 0 3.07-.9 4.42 4.42 0 0 0 1.72-2.09c.28-.77.28-1.58 0-2.4-.28-.84-1.22-2.4-2.8-4.68l-8.85-12.66 3.79-2.65 8.4 12.02c2.14 3.07 3.53 5.4 4.16 7a6.9 6.9 0 0 1 .1 4.88c-.55 1.65-1.77 3.13-3.66 4.45-1.95 1.36-3.73 2.08-5.31 2.15-1.6.06-3.08-.37-4.46-1.3s-3.28-3.1-5.67-6.53zm19.27-13.94 7.7-4.96c2.1-1.35 3.7-2.1 4.8-2.27 1.11-.17 2.27.04 3.48.64s2.21 1.5 3 2.73c.73 1.13 1.14 2.32 1.22 3.55s-.13 2.33-.65 3.28a6.18 6.18 0 0 1 4.03.36 7.6 7.6 0 0 1 3.27 2.96c1.1 1.71 1.62 3.42 1.56 5.13s-.57 3.06-1.51 4.06c-.66.7-2.4 1.95-5.24 3.78l-6.55 4.22zm6.39 1.41 3.5 5.43 2.55-1.65a34 34 0 0 0 2.8-1.91 2.9 2.9 0 0 0 1.02-1.84c.08-.7-.13-1.43-.63-2.21a3.4 3.4 0 0 0-1.55-1.4 2.26 2.26 0 0 0-1.62-.1c-.5.18-1.78.92-3.83 2.24zm6 9.34 4.05 6.28 3.6-2.32c1.58-1.02 2.54-1.75 2.88-2.2.34-.46.51-1.03.5-1.71 0-.68-.25-1.4-.73-2.14a4.05 4.05 0 0 0-1.71-1.59 2.97 2.97 0 0 0-1.96-.19c-.66.16-1.82.78-3.48 1.85zm20.59.56-12.79-24.56 4.09-2.13 10.61 20.39 10.2-5.31 2.18 4.17zm17.29-9.33-10.8-25.75 4.25-1.78 10.8 25.75zm18.42-16.67 4.78.38c.23 3.19-.23 5.7-1.37 7.56s-2.86 3.1-5.13 3.79a8.9 8.9 0 0 1-7.94-1.23c-2.8-1.93-4.85-5.05-6.14-9.37-1.37-4.56-1.4-8.44-.12-11.63a9.13 9.13 0 0 1 6.2-5.51 8.68 8.68 0 0 1 6.92.67c1.54.84 2.93 2.35 4.18 4.53l-4 2.59a6.18 6.18 0 0 0-2.66-2.83 4.38 4.38 0 0 0-3.3-.28 4.9 4.9 0 0 0-3.32 3.3c-.6 1.72-.42 4.2.56 7.45 1 3.37 2.22 5.61 3.64 6.74s2.93 1.45 4.53.97a4.2 4.2 0 0 0 2.62-2.26c.58-1.16.76-2.79.55-4.87zm30.13 3.41-4.94.92-3.13-5.86-8.99 1.68-.68 6.58-4.83.9 3.63-29.08 4.8-.9zm-10.4-9.3-4.99-9.6-1.15 10.76zm39.06-1.31 8.2.62c2.08.16 3.63.51 4.65 1.06a7.9 7.9 0 0 1 2.74 2.56c.8 1.17 1.4 2.65 1.77 4.44.38 1.8.46 4 .27 6.6a20.8 20.8 0 0 1-1.27 6.06 12.32 12.32 0 0 1-2.33 3.97 7.85 7.85 0 0 1-3.13 2.07c-1.2.42-2.7.56-4.51.43l-8.45-.65zm4.13 4.94-1.36 17.99 3.37.25a8.6 8.6 0 0 0 3.17-.17 3.8 3.8 0 0 0 1.69-1.1c.45-.52.86-1.37 1.23-2.53.36-1.17.61-2.72.76-4.66.15-2.01.13-3.61-.06-4.8a6.32 6.32 0 0 0-1.09-2.83 4.14 4.14 0 0 0-2.04-1.48c-.61-.2-1.82-.38-3.63-.52zm19.34 23.6-1.72-27.19 16.54-1.05.29 4.6-12.05.77.38 6.02 11.2-.7.29 4.57-11.2.71.47 7.4 12.46-.79.29 4.58zm50.4-26.02 4.38 1.97c-.86 3.08-2.14 5.3-3.84 6.65s-3.73 1.97-6.1 1.84a8.88 8.88 0 0 1-7.07-3.82c-1.99-2.76-2.87-6.39-2.63-10.9.25-4.74 1.51-8.41 3.8-10.99a9.13 9.13 0 0 1 7.7-3.1 8.67 8.67 0 0 1 6.28 2.96c1.17 1.3 1.97 3.2 2.41 5.68l-4.63 1.09a6.19 6.19 0 0 0-1.56-3.56 4.38 4.38 0 0 0-3-1.37 4.9 4.9 0 0 0-4.25 1.99c-1.14 1.41-1.8 3.81-1.98 7.2-.18 3.5.2 6.03 1.17 7.57a4.76 4.76 0 0 0 3.93 2.44 4.2 4.2 0 0 0 3.23-1.25c.94-.9 1.66-2.37 2.16-4.4zm10.29-2.53c.8-3.23 1.93-5.77 3.4-7.63 1.47-1.85 3.1-3.1 4.89-3.75 1.8-.64 3.78-.7 5.98-.15a9.9 9.9 0 0 1 6.88 5.55c1.4 2.93 1.56 6.63.45 11.12-1.11 4.53-3.05 7.82-5.8 9.85-2.41 1.8-5.21 2.3-8.4 1.52-3.23-.8-5.49-2.53-6.8-5.22-1.5-3.08-1.7-6.84-.6-11.29zm4.67.95c-.77 3.12-.75 5.6.05 7.46a5.5 5.5 0 0 0 3.82 3.42c1.77.43 3.42.02 4.96-1.24s2.7-3.5 3.49-6.7c.77-3.15.78-5.61.02-7.4a5.44 5.44 0 0 0-3.87-3.34c-1.83-.45-3.5-.05-5.02 1.18s-2.67 3.44-3.45 6.62zm19.44 10.39 4.36 1.27c-.92 3.49-.09 5.78 2.5 6.88a4.7 4.7 0 0 0 3.46.28 3.53 3.53 0 0 0 2.17-2.03c.25-.59.33-1.14.25-1.66-.09-.51-.34-1.02-.75-1.5s-1.5-1.47-3.26-2.95a14.06 14.06 0 0 1-3.22-3.47c-.57-1-.88-2.13-.93-3.39s.17-2.49.68-3.69a8.18 8.18 0 0 1 2.57-3.38c1.11-.85 2.35-1.33 3.71-1.42s2.87.2 4.52.9c2.48 1.05 4.13 2.54 4.95 4.48.82 1.93.74 4.17-.24 6.7l-4.36-1.58c.4-1.45.4-2.59.02-3.4a4.2 4.2 0 0 0-2.3-1.95 4.62 4.62 0 0 0-2.95-.4 2.42 2.42 0 0 0-1.59 3.52c.35.72 1.42 1.79 3.2 3.22 1.88 1.53 3.15 2.83 3.8 3.92.67 1.09 1.02 2.28 1.07 3.58s-.27 2.7-.92 4.25c-.95 2.23-2.43 3.82-4.45 4.75s-4.49.79-7.4-.45c-5.17-2.2-6.8-6.35-4.89-12.48zm21.51 20.02 11.3-20.25-5.94-3.32 2.3-4.12 15.89 8.86-2.3 4.12-5.93-3.3-11.3 20.25zm29.75 18.53-4.2-2.76 1.8-6.4-7.64-5-5.06 4.26-4.1-2.69 22.75-18.46 4.1 2.68zm-1.06-13.9 3.05-10.39-8.28 6.96zm10.27 20.56 15.93-22.92 8 5.55c2.04 1.42 3.35 2.64 3.94 3.66.6 1.02.82 2.23.67 3.64a9.05 9.05 0 0 1-1.7 4.24c-1.24 1.8-2.67 2.94-4.3 3.44-1.61.5-3.31.33-5.1-.49.41 1.15.64 2.26.7 3.32.04 1.06-.1 2.8-.43 5.24l-.82 6.06-4.52-3.14.71-6.9c.27-2.5.38-4.1.34-4.8-.04-.7-.2-1.27-.47-1.71a6.26 6.26 0 0 0-1.73-1.59l-.78-.54-6.66 9.57zm12.98-10.6 2.81 1.96c1.72 1.2 2.87 1.88 3.45 2.05.57.18 1.16.14 1.77-.12a4.11 4.11 0 0 0 1.71-1.52c.5-.73.77-1.42.79-2.07a2.72 2.72 0 0 0-.56-1.74c-.27-.36-1.26-1.13-2.96-2.31l-2.97-2.07zm5.89 23.62 15.36-23.31 3.85 2.54-15.36 23.3zm25.3 3.49 3.02 3.73c-2.15 2.36-4.3 3.76-6.42 4.2a8.72 8.72 0 0 1-6.28-1.1 8.88 8.88 0 0 1-4.59-6.59c-.53-3.36.32-7 2.56-10.9 2.36-4.14 5.14-6.84 8.34-8.11a9.13 9.13 0 0 1 8.27.69 8.68 8.68 0 0 1 4.28 5.48c.45 1.69.32 3.74-.4 6.15l-4.63-1.11c.5-1.46.57-2.75.21-3.88a4.37 4.37 0 0 0-2.07-2.58 4.9 4.9 0 0 0-4.68-.14c-1.66.75-3.33 2.6-5.01 5.54-1.74 3.05-2.53 5.48-2.37 7.29s.97 3.12 2.42 3.95c1.05.6 2.2.72 3.44.34 1.25-.38 2.55-1.37 3.91-2.96zm21.63 20.25-4.7-1.76.34-6.64-8.56-3.2-3.99 5.27-4.6-1.72 18.13-23.02 4.58 1.71zm-4.1-13.33.69-10.8-6.54 8.61zM307.37 23.48l-3.88 1.76-3.75-4.2-7.05 3.19.76 5.55-3.79 1.7-2.86-24.63 3.78-1.7zm-10.41-5.55-6.04-6.89 1.22 9.07zm12.35 4.96L301.91.45l5.56-1.83 8.38 14.2-1.74-16.39 5.57-1.84 7.4 22.44-3.44 1.13L317.8.5l2.17 18.87-3.58 1.18-9.45-16.46 5.82 17.66zm21.57-6.83-5.65-22.94 13.95-3.44.96 3.88-10.17 2.5 1.25 5.1 9.45-2.33.95 3.86-9.45 2.33 1.54 6.24 10.52-2.59.95 3.86zm17.55-4.2-4.2-23.26 8.11-1.46c2.07-.37 3.6-.43 4.55-.17a5 5 0 0 1 2.58 1.77A7.66 7.66 0 0 1 361-7.7a7.02 7.02 0 0 1-.52 4.63 5.9 5.9 0 0 1-3.34 2.77 9.8 9.8 0 0 1 2.4 1.57 28 28 0 0 1 2.89 3.38l3.13 4.12-4.58.83-3.7-4.56a34.24 34.24 0 0 0-2.67-3.06c-.45-.4-.88-.64-1.32-.75a5.2 5.2 0 0 0-1.98.1l-.79.13 1.75 9.7zm1.42-14.12 2.85-.51c1.75-.32 2.84-.6 3.3-.83.44-.24.77-.62.98-1.14.21-.52.25-1.16.11-1.93a3.26 3.26 0 0 0-.76-1.7 2.3 2.3 0 0 0-1.38-.72 15.2 15.2 0 0 0-3.15.4l-3.02.53zm17.71 10.87-3.2-23.4 3.86-.53 3.2 23.4zm19.11-10.9 3.9 1.1c-.33 2.68-1.12 4.7-2.37 6.04s-2.88 2.12-4.88 2.3a7.51 7.51 0 0 1-6.4-2.31c-2-2.06-3.19-5-3.55-8.79-.39-4 .21-7.23 1.8-9.67a7.72 7.72 0 0 1 6.06-3.56c2.16-.2 4.03.36 5.63 1.7 1.14.94 2.05 2.42 2.73 4.44l-3.75 1.5a5.23 5.23 0 0 0-1.74-2.8 3.7 3.7 0 0 0-2.7-.76 4.14 4.14 0 0 0-3.3 2.19c-.77 1.33-1.03 3.42-.75 6.27.28 2.97.92 5.03 1.92 6.2s2.2 1.68 3.6 1.55a3.55 3.55 0 0 0 2.54-1.45c.67-.87 1.1-2.19 1.26-3.95zm25.38 7.38-4.25.17-1.9-5.3-7.73.32-1.38 5.42-4.16.17 6.6-23.9 4.13-.17zm-7.57-9.05-3-8.65-2.28 8.86zm29.88.83 3.73 1.6c-.68 2.62-1.72 4.51-3.14 5.68a7.38 7.38 0 0 1-5.13 1.66 7.51 7.51 0 0 1-6.04-3.12c-1.73-2.3-2.53-5.36-2.4-9.17.14-4.03 1.15-7.15 3.04-9.37a7.72 7.72 0 0 1 6.46-2.74c2.17.07 3.96.87 5.37 2.4 1 1.09 1.72 2.68 2.13 4.76l-3.9 1a5.24 5.24 0 0 0-1.38-2.99 3.7 3.7 0 0 0-2.57-1.1 4.14 4.14 0 0 0-3.55 1.74c-.95 1.22-1.47 3.26-1.56 6.12-.1 2.98.26 5.1 1.1 6.4a4.02 4.02 0 0 0 3.37 2A3.55 3.55 0 0 0 432.6.61c.78-.77 1.37-2.02 1.76-3.75zm6.83 9.04 2.05-23.53 14.32 1.24-.35 3.98-10.43-.9-.46 5.21 9.7.84-.34 3.97-9.7-.84-.56 6.4 10.8.94-.35 3.96zm18.01 1.65 3.34-23.39 3.77.54 5.61 16.74 2.24-15.62 3.6.52-3.34 23.38-3.9-.55L465-7.18l-2.2 15.25zm23.54 3.76 3.87-19.25-5.64-1.13.78-3.92 15.09 3.03-.79 3.92-5.62-1.13-3.86 19.24zm11.97 2.46 6.04-22.83 7.96 2.1c2.03.54 3.43 1.13 4.2 1.77a5 5 0 0 1 1.59 2.7 7.73 7.73 0 0 1-.12 3.86 7.02 7.02 0 0 1-2.43 3.98 5.91 5.91 0 0 1-4.2 1.09c.66.8 1.16 1.6 1.5 2.44.36.83.75 2.26 1.2 4.28l1.09 5.06-4.5-1.19-1.43-5.7a33.1 33.1 0 0 0-1.13-3.9 3 3 0 0 0-.87-1.23 5.32 5.32 0 0 0-1.83-.76l-.78-.2-2.52 9.53zm7.26-12.18 2.8.74c1.71.46 2.82.67 3.33.64.5-.03.97-.23 1.38-.6.41-.39.72-.96.92-1.72.19-.72.2-1.35.02-1.86a2.3 2.3 0 0 0-.94-1.23 15.5 15.5 0 0 0-3.02-.98l-2.96-.78zm28.1 22.96-4.02-1.38.15-5.62-7.32-2.52-3.25 4.56-3.93-1.35 14.8-19.9 3.92 1.35zm-3.77-11.18.33-9.15-5.33 7.44zm5.77 12.05 9.4-21.45 3.58 1.56-7.81 17.81 8.91 3.91-1.6 3.65z"/></g></svg>