<svg xmlns="http://www.w3.org/2000/svg" xmlns:xlink="http://www.w3.org/1999/xlink" viewBox="0 0 900 600"><path d="M0 0h900v600H0z"/><path fill="#fff" d="M0 0h900v400H0z"/><path fill="#ce1126" d="M0 0h900v200H0z"/><g fill="#fff" stroke="#c09300"><path stroke-width="1.27" stroke-linejoin="round" d="m450.81 302.4 68.49 63.58-4.88-115.47c-.71-17.5-15.92-13.49-26.97-7.17-11.19 7.17-23.96 7.17-37.44 2.43-13.49 4.74-26.26 4.74-37.45-2.43-11.04-6.32-26.25-10.33-26.97 7.17l-4.88 115.47 70.1-63.58z"/><path d="m393.47 246.49-4.73 112.32-8.04 7.17 4.88-115.47c2.3-1.58 6.31-4.02 7.89-4.02zm9.62 8.04-4.02 93.95-8.03 8.23 4.88-108.5c1.58 1.58 6.31 5.46 7.17 6.32zm8.75 7.17-3.15 78.36-6.46 6.31 4.02-89.4c1.57 1.57 4.73 3.87 5.59 4.73zm9.47 4.02-3.16 66.79-6.3 5.12 3.15-74.35c1.58.72 4.73 2.44 6.31 2.44zm8.75 0-2.3 55.66-6.45 6.31 2.44-61.25c1.57 0 5.6 0 6.31-.72z" id="a" fill="#c09300" stroke="none"/><use xlink:href="#a" transform="matrix(-1 0 0 1 900 0)"/><path fill="#c09300" stroke-width="1.07" d="m453.16 315.06 9.61 43.76-3.15 3.15-3.3-2.44-5.46-39.02 2.3 39.02-3.16 4.02-3.15-4.02 2.3-39.02-5.46 39.02-3.3 2.44-3.15-3.16 9.6-43.75h6.32z"/><g id="b" fill="none" stroke-width="1.27" stroke-linejoin="round"><path fill="#fff" stroke-width="1.19" d="m428.48 295.84-19.08 67.7 26.26 4.02 11.18-50.92-18.36-20.8z"/><path d="m422.17 318.94 2.3 5.6 12.4-11.86"/><path d="m430.76 304.92 2.6 24.35 7.89-10.33m-3.16 4.01 4.31 14.88m1.69-5.47-8.72 13.24m2.72 13.22-2.79-13.2-2.43-13.42-5.85 7.9-2.56-9.11-8.17 8.38 4.16 15.25 5.73-9.43 3.16 9.6 5.89-9.15"/><path d="m414.99 361.97 5.3-7.44 3.45 11.45 4.74-8.03 3.15 9.61"/></g><use xlink:href="#b" transform="matrix(-1 0 0 1 900 0)"/><g stroke-width="1.27" stroke-linejoin="round" stroke-linecap="round"><path stroke-width="2.38" d="M450 393.81c19.94 0 39.02-1.58 50.21-4.73 4.74-.86 4.74-3.3 4.74-6.46 4.73-1.58 2.3-7.17 5.6-7.17-3.3.86-4.02-5.6-8.04-4.73 0-5.6-5.6-6.31-10.33-4.74-9.47 3.16-26.26 3.88-42.18 3.88-15.92-.72-32.57-.72-42.18-3.88-4.73-1.57-10.33-.86-10.33 4.74-4.01-.86-4.73 5.6-8.03 4.73 3.3 0 .86 5.6 5.6 7.17 0 3.16 0 5.6 4.87 6.46 11.05 3.15 30.13 4.73 50.07 4.73z"/><path d="M422.89 363.54c6.45.86 13.63 1.58 19.23.86 3.15 0 5.44 5.45-.87 6.31-5.6.72-14.34 0-19.08-.86-4.01-.72-12.77-2.3-18.36-3.87-5.6-2.44-1.58-7.17 1.58-6.46a104.85 104.85 0 0 0 17.5 4.02zm54.23 0c-6.46.86-13.63 1.58-19.08.86-3.3 0-5.6 5.45.72 6.31 5.6.72 14.34 0 19.07-.86 4.02-.72 12.77-2.3 18.37-3.87 5.6-2.44 1.58-7.17-1.58-6.46a105.28 105.28 0 0 1-17.5 4.02z"/><path d="M403.09 360.39c-4.88-.86-7.17 4.73-5.6 7.89.72-1.58 4.02-1.58 4.74-3.16.86-2.44-.72-2.44.86-4.73zm19.08 14.67c0-3.15 3.15-2.77 3.15-5.92 0-1.58-.85-4.02-2.43-4.02a3.4 3.4 0 0 0-3.16 3.16c-.72 3.15 2.44 3.63 2.44 6.78zm22.71-9.08c4.73 0 4.26 6.31 1.97 9.47 0-2.3-4.02-3.16-4.02-4.73 0-2.44 3.63-2.44 2.05-4.74zm52.03-5.59c4.88-.86 7.17 4.73 5.6 7.89-.72-1.58-4.02-1.58-4.74-3.16-.86-2.44.72-2.44-.86-4.73zm-19.08 14.67c0-3.15-3.15-2.77-3.15-5.92 0-1.58.86-4.02 2.43-4.02a3.4 3.4 0 0 1 3.16 3.16c.72 3.15-2.44 3.63-2.44 6.78zm-22.71-9.08c-4.73 0-4.26 6.31-1.97 9.47 0-2.3 4.02-3.16 4.02-4.73 0-2.44-3.63-2.44-2.05-4.74z"/><path d="M404.67 361.97c1.58 0 4.02.72 4.74 1.58l-4.74-1.58zm7.88 2.44c.86 0 4.02.72 5.6 1.58l-5.6-1.58zm28.7 3.15c-1.58 0-4.73 0-5.6.72l5.6-.72zm-8.75 0c-.86-.86-4.02-.86-5.6 0h5.6zm62.84-5.59c-1.58 0-3.87.72-4.74 1.58l4.74-1.58zm-7.89 2.44c-.86 0-4.02.72-5.6 1.58l5.6-1.58zm-28.7 3.15c1.58 0 4.74 0 5.6.72l-5.6-.72zm8.75 0c.86-.86 4.02-.86 5.6 0h-5.6z" stroke-width=".89"/><g fill="#c09300" stroke="none"><path d="M403.34 374.58c-.53-.1-.81-.52-.68-1.02.16-.61.65-.96 1.11-.8.3.1.83.65.83.84 0 .22-.28.75-.4.75-.05 0-.13.05-.18.1-.1.12-.41.18-.68.13zm54.93 3.92c-.2-.07-.52-.52-.51-.72 0-.4.57-1.02.92-1.03.18 0 .66.25.84.44.32.34.25.9-.16 1.2-.2.16-.8.22-1.09.11zm.36 2.48c-.42-.14-.57-.35-.6-.81-.04-.49 0-.56.52-.84l.36-.2.35.15c.48.21.7.45.7.77.03.35-.23.7-.63.88-.35.16-.37.16-.7.05z"/><path d="M407.75 370.09c-.35-.01-.82.3-1.1.47-.64.15-1.4.55-2.02.12-.62-.19-1.44-.04-1.54.72.16.65 1.08 1.03 1.63.6.4-.54 1.53-.86 1.65.06-.45.7-.4 1.6-.78 2.34-.06.46-.25.9-.5 1.28-.46.05-.95 0-1.34.28-.63.04-1.26.35-1.63.88-.4.58-.78 1.17-.9 1.88.1.72.94.93 1.56.96.67.19 1.34.43 2 .63 1.09.24 2.1.63 3.19.87 1.58.48 3.25.7 4.84 1.13.17.05.33.1.5.12.66.14 1.01-.58 1.06-1.12.33-1.16.58-2.34.91-3.5.23-.47.5-1.52-.4-1.28-.52.3-.96.77-1.6.81-.87.05-.37.95-.03 1.31.08.59-.11 1.3-.5 1.75-.52.33-1.17-.05-1.72-.18-.57 0-1.72-.29-1.19-1.07.2-.57.21-1.2.44-1.78.3-.61.34-1.28.47-1.94-.36-.77-.98.26-1.47.35-.34.23-1.6.33-.94.94.58.43.14 1.2.03 1.75-.03.77-.83.95-1.46.78-.63-.03-1.5-.5-.97-1.2.12-.57.32-1.13.43-1.71.24-.7.44-1.36.7-2.06.1-.62.32-1.21.62-1.75.01-.69.48-1.28.47-1.97-.05-.34-.2-.46-.41-.47zm-3.6 7.25a.4.4 0 0 1 .22.03c.25.1.26.31 0 .53-.1.1-.23.2-.28.19-.46-.04-.6-.11-.62-.28-.02-.15.03-.2.34-.35.16-.07.26-.1.35-.12zm-1.03 5.02c-.5-.47-.42-.8.32-1.35.31-.24.5-.21.86.12.55.5.57.82.09 1.25-.24.22-.35.26-.63.26-.3 0-.38-.03-.64-.28zm3.05.92a.86.86 0 0 1-.62-1.09c.13-.43.2-.47.84-.48.71 0 .85.11.86.74 0 .35-.03.44-.2.6-.2.2-.6.3-.88.23zm89.11.08c-.23-.19-.27-.27-.28-.51 0-.42.24-.72.75-.95.68-.3.96-.26 1.22.19.34.6.32.84-.09 1.25-.22.22-.26.24-.78.24-.5 0-.57 0-.82-.22zm-85.06 1.15c-.36-.1-.55-.37-.56-.8 0-.34.02-.4.26-.58.15-.11.39-.22.57-.24.27-.04.37-.02.58.14.55.38.67.77.35 1.14-.34.4-.66.48-1.2.34zm21.92.98c-.08-.1-.26-.16-.28-.29.03-.55.06-1.11.24-1.65.1-.52.01-1.06.2-1.57.18-.93.18-1.89.4-2.8 0-.48.05-.96.19-1.41.15-.72.01-1.48.22-2.2-.02-.26.29-.98.56-.55.4.57.91 1.04 1.42 1.51.44.26.04.63-.27.75-.41.17-.51.62-.48 1.03-.06.41-.23.8-.24 1.23-.1.62-.08 1.25-.16 1.87-.18.61-.1 1.26-.17 1.89 0 .4-.18.76-.15 1.16-.05.4-.07.9-.41 1.17-.33.17-.8.14-1.07-.14zm29.7-9.8c-.48.36-.91.8-1.34 1.22-.6.45.48.7.62 1.1.16.58.15 1.2.19 1.8.18.56.26 1.14.22 1.72-.05.63-.87.5-1.22.85-.5.2-.69.69-1.06 1.03a4.15 4.15 0 0 0-.35 1.62c.04.45-.3.95 0 1.35l.13.19c.1.14.34.02.5.06.5-.03 1.03.04 1.5-.16 1.2-.2 2.43-.22 3.65-.28.75.02 1.47-.24 2.22-.22.59.13.85-.5.85-.97-.34-.65-.05-1.43-.32-2.1-.23-.66-.14-1.42-.25-2.12-.01-.54-.7-.75-1.06-.34-.34.35-.9.41-1.16.84-.3.6.63.6.79 1.07.17.46.11.98.15 1.47.12.59-.53.62-.94.68-.53.2-1.29.34-1.59-.31-.19-.48-.16-1-.22-1.5-.01-.9-.23-1.77-.28-2.66-.05-1.1-.24-2.18-.31-3.28-.01-.45-.07-1.2-.72-1.06zm-.63 8.25.32.03.03.38.03.37-.4.13c-.22.06-.41.09-.41.09s-.1-.05-.19-.13c-.22-.15-.16-.38.12-.68.17-.17.24-.2.5-.19zm-29.96-9.28c-.38.14-.86.7-1.25.69-.88.06-.76.92-.13 1.22.09.26.01.58.04.87.12.8-.38 1.43-.29 2.22-.04.87-.3 1.72-.34 2.6-.25.9-.25 1.83-.4 2.74-.1.83-.7.54-1.22.32 0-.36-.03-.7-.04-1.07.22-.81-.44-1.05-1.09-1.15-.68.06-1.02-.53-.87-1.13.3-.35 1.03-.25 1.5-.31.98.2.94-1.11.43-1.56-.34-.64-1.2-.91-1.43-1.56.1-.87-.48-1.74-1.2-2.16-1.08-.08-1.9.86-2.3 1.78-.46.13-.9.27-1.35.44-.7.18-1.72 1.4-.75 1.87.55.15 2.2.53 1.47 1.28-.41.71-1.2.72-1.9.54-.73 0-1.53-.36-1.5-1.2-.15-.74-.13-1.55-.47-2.24-.15-.84-1.1-.65-1.16.12-.73.54-.64 1.4-.13 2.03.32.73 0 1.58-.3 2.25-.2.88-1.16.9-1.85 1.2-.34.12-1.63-.09-1.16.65.76.26 1.65.5 2.44.31.82-.1 1.54-.66 1.94-1.37.55-.56 1.5-.27 2.22-.29.77 0 1.56.55 2.3.2.23-.57 1.23-1.5 1.54-.54-.05.86.7 1.33 1.5 1.22.86-.05.54.61.53 1.12.06.94.66 1.43 1.44 1.82a2 2 0 0 0 .81 0c.75-.24 1.55-.57 1.78-1.41.3-.68.31-1.45.53-2.16.18-1.13.41-2.26.44-3.4.28-1.04.2-2.14.4-3.19.14-.78.24-1.56.32-2.34-.1-.42-.27-.5-.5-.41zm-6.78 4.16c.15.01.23.2.25.53.01.36.2.66.44.72.18.04.16.24-.03.37-.12.08-.33.13-.7.13a1.6 1.6 0 0 1-1.24-.47l-.19-.19.28-.19c.14-.1.4-.33.56-.5.29-.29.48-.42.63-.4zm66.03-7.88c-.57.03-1.14.12-1.66.25-1.04-.06-1.56 1.03-.56 1.56.6 1.54 1.54-.31 2.5-.19 1.44.28 1.56 1.84 1.78 3 .08 1.16.42 2.29.75 3.38.96 1.07-.72 1.74-1.44.9-.6-.66-1.92-1.47-2.65-.56-.9.39-.94 1.6-1.69 1.94-1.2.37-1.36-1.12-2-1.75-.59-.82-1.7-.9-2.62-1.19-.43-.86-.2-2.34-1.1-2.93-.74.3-2.11 1.7-.97 2.34 1.12.96-.48 1.4-1 2.06-.73.82-.84 1.94-.96 2.97-1.26.7-1.5-.79-1.66-1.72-.1-1.1-1.04-.78-1.69-.37-.95.38-1.43 1.29-2.1 2-.07.65.04 1.35.04 2.03.22.81 1.2.43 1.81.37.98-.4 1.38.63.6 1.22-.54.68-2.22.33-2.07 1.4.55.07 1.11.05 1.66 0 1.09-.29 2.26-1.06 2.37-2.27.15-1.06 1.67-.87 2.5-1.1 1.04-.3 2.3-.37 2.53.94.71.75 2.25 1.59 3.04.56a2.4 2.4 0 0 0 1.12-2.25c-.16-.78 1.27-.8 1.63-.37.52.86 2.15.6 2.93.12.84-.61 1.02-1.7 2.22-1.72 1.78-.53 3.64-.84 5.38-1.5 1.4-.3-.21-1.2-.57-1.71-1.07-.53-2 1.64-3.21.56-.94-.72-.88-2.08-1.22-3.13-.24-1.35-.18-2.92-1.16-4-.67-.71-1.58-.88-2.53-.84zm-6.81 9.47c.12 0 .27.06.5.19.44.24.75.64.75.97 0 .2-.06.22-.38.37-.2.1-.42.19-.5.19-.18 0-.62-.36-.62-.5 0-.06-.06-.29-.13-.47-.12-.32-.1-.32.06-.53.1-.14.2-.22.32-.22zm6.53.34c.37-.02.6.1.75.38.18.33.06.58-.4.78a2.5 2.5 0 0 1-.45.16c-.03 0-.2-.1-.37-.22-.27-.18-.31-.27-.31-.47 0-.32.35-.6.78-.63zm-8.94.1c.11-.02.21.04.34.15.18.16.24.28.29.6.03.22.02.5 0 .62-.05.23-.06.22-.57.22-.64 0-.7-.06-.68-.66 0-.37 0-.47.21-.68.17-.17.3-.24.41-.25zm-5.5 1.43c.2.05.39.2.44.44.06.32 0 .46-.25.6-.22.1-.74.15-.88.06a.61.61 0 0 1-.18-.19c-.07-.12-.06-.18.03-.25.06-.05.12-.12.12-.16 0-.03.07-.16.16-.28.14-.2.36-.26.56-.22zm9.25 1.2a.6.6 0 0 1 .44.15c.18.16.18.4-.03.56-.14.1-.87.1-1.13 0-.11-.04-.15-.1-.15-.22 0-.14.03-.23.28-.34.2-.1.41-.16.6-.16zm-17.17 4.81c-.1-.06-.24-.12-.1-.22.18-.3.52-.4.83-.52a3.44 3.44 0 0 0 1.37-1.12c.05-.33.43-.51.43-.86 0-.48.03-.96-.09-1.43a1.76 1.76 0 0 0-.83-.97c-.25-.2-.67-.26-.76-.62-.06-.34.25-.6.36-.9.22-.43.4-.87.65-1.28.26-.29.66-.02.79.26.19.28.36.58.45.9.3.33.57.72.68 1.16.15.31.38.6.37.97 0 .41.23.79.22 1.2.01.56.01 1.15-.2 1.68-.13.3-.41.47-.6.73-.32.3-.67.58-1.08.74-.29.09-.46.42-.82.34-.51.01-1.03.08-1.55 0 .04.05-.15-.1-.12-.06zm-6.85.45c-.24-.25-.3-.36-.3-.6 0-.25.05-.35.28-.59.44-.44.66-.45 1.41-.07.73.37.97.4 1.04.14.06-.25.47-.48.87-.48.25 0 .4.05.6.2.24.2.26.23.26.69 0 .46 0 .48-.29.73-.28.25-.32.26-.66.23-.44-.05-.7-.25-.77-.6-.06-.24-.14-.3-.21-.13-.02.05-.13.12-.24.15-.2.05-.55.27-.8.5-.09.09-.25.13-.51.13-.36 0-.4-.02-.68-.3zm-19.82-8.9c-.66 0-1.38.57-1.47 1.22.15.75.78 1.49.38 2.28.27 1.01-.77 1.4-1.47.81-.43-.97-.65-2.03-1.28-2.9-.8-.23-1.16 1.05-1.72 1.5.28.75 1.1 1.43 1.18 2.37.2.92-.36 1.93-1.15 2.4-.69.66-1.63.43-2.47.57-1.02.6.75.82 1.22.84 1.05.11 2.13-.03 2.9-.8.77-.38.71-1.7 1.63-1.85 1.59-.07 3.16.24 4.75.28.85.2 2.16-.1 2.75.53 0 1.1.94 1.79 1.84 2.22.5.14 1.03-.48 1.53-.6.97-.3.68-1.5 1.25-1.96 1.66-.1 3.32-.07 4.97-.1.32.01.41-.44.63-.62-.04-.64-.06-1.28-.16-1.9-.32-.82.05-1.85-.53-2.54-.83-.23-1.54.53-2.37.6-.93.4-1.71 1.26-1.75 2.3-.55.9-1.43-.15-1.13-.9-.03-.33.07-.7-.03-1-.5-.6-1.4-.4-2.1-.5-1.01.04-2-.18-3.02-.16-.9-.06-1.83.08-2.7-.15-1.02-.03-.88-1.04-1.06-1.75a.93.93 0 0 0-.62-.19zm2 3.69c.34 0 .67.05 1 .1.43.06.89-.16 1.31 0 .98.16 1.96.12 2.94.21.26 0 .45.18.63.34v2.07c-.03.25.07.6-.16.78a.7.7 0 0 1-.25.12 1.1 1.1 0 0 1-.69-.5c-.04-.35.02-.7.03-1.06 0-.1.04-.24 0-.31a1.25 1.25 0 0 0-.72-.25c-.85-.03-1.68-.1-2.53-.13-.7-.04-1.43.06-2.12-.12-.27-.1-.62-.07-.78-.35-.24-.27.1-.6.34-.72a2.3 2.3 0 0 1 1-.18zm11.28.25c.16 0 .21.05.28.34l.13.5c.03.12-.02.16-.19.22-.5.19-.99.17-1.16-.06-.07-.1.02-.44.16-.56.29-.26.61-.44.78-.44z"/></g></g><path stroke-width="1.15" d="M449.98 327.23c32.64-25.1 29.84-61.88 29.84-61.88-.86.17-1.68.26-2.54.26-6.84 0-23.18-3.92-26.99-8.9-4.08 4.5-20.77 8.9-27.57 8.9-.86 0-1.72-.1-2.54-.26 0 0-2.84 36.77 29.8 61.88z"/><path stroke-width=".92" d="M477.22 268.04c-.28.02-.56.03-.85.03-6.2 0-20.62-3.19-26.17-7.96-5.82 4.4-20.47 7.96-26.58 7.96a4.7 4.7 0 0 1-.85-.09 73.11 73.11 0 0 0 2.63 18.7 71.06 71.06 0 0 0 24.58 37.15 71.17 71.17 0 0 0 24.6-37.19 73.17 73.17 0 0 0 2.64-18.6z"/><path fill="#c09300" d="M439.38 265.03c-5.87 1.84-12.23 3.03-15.75 3.03-.29 0-.56-.04-.84-.1-.02 1.4.07 2.85.15 4.16.33 4.9 1.17 9.8 2.47 14.53a71.03 71.03 0 0 0 13.97 26.79v-48.41zm20.62-.09v49.25a71.11 71.11 0 0 0 14.6-27.56 72.95 72.95 0 0 0 2.62-18.6c-.28.02-.56.04-.84.04-3.73 0-10.42-1.17-16.38-3.13z" stroke="none"/><g stroke-width="1.27"><path stroke-width="1.22" d="M462.31 253.09c.67.04-.9-3.57-.9-3.57 1.76 1.8 8.43 2.24 8.43 2.24-4-1.77-8-15.1-7.53-25.72.43-10.67-1.53-14.86-3.1-16.43-2-2-8.43-3.77-12.66-4-2.4-.12-2 1.8-2 1.8-4.43-1.13-8.86-1.57-10.86-.23-1.88 1.25-2.28 7.52-.9 6.43 3.33-2.67 6.23-.24 8.23 2.66 1.76 2.55 1.65 9.77-.9 18.2-2.67 8.86-9.96 17.72-9.96 17.72 3.96 0 9.53-3.53 9.53-3.53l-1.34 5.53c4.2-2 7.53-5.1 7.53-5.1l4 4.2c1.33-1.77 4-4.2 4-4.2s3.33 3.53 8.43 4z"/><path fill="none" d="M446.12 227.57s-2.23 16.43-6.43 21.1m9.96-21.53s-.86 16.62-3.76 21.96m6.89-21.29s0 18.2 1.1 21.29m2.86-20.39s.9 15.3 4.67 20.82"/><path fill="#c09300" stroke-width=".35" d="M442.08 219.61a7.93 7.93 0 0 0-1.06-3.33c-2-2.9-4.9-5.33-8.23-2.67 0 0 1.13-3.53 3.57-3.65 1.88-.11 6.15 1.42 9.92 7.85 0 0-2.79-.63-3.45-.04-1.26 1.1-.75 1.84-.75 1.84z"/><path fill="#c09300" stroke-width=".35" d="M432.44 209.26c.27-.9.7-1.73 1.25-2.08 2-1.33 6.43-.9 10.86.24 0 0-.39-1.92 2-1.8 4.24.23 10.67 2 12.67 4a7.89 7.89 0 0 1 1.49 2.38h-.08c-.98-1.37-3.76-1.29-4.43-1.21-1.06.12-1.73.08-3.14.43-.66.16-1.68.35-2.23.78-.43.36-.79 1.65-1.45 1.65-1.06 0-.98-.27-1.26-.59-.35-.43-.55-1.06-.9-1.02-1.1.2-2.86-.66-5.1-2.43-2.23-1.76-3.1-2.2-6-2-2.86.24-3.76 1.85-3.76 1.85l.08-.2z"/><circle cx="448.82" cy="210.67" r="1.18" stroke="none"/></g></g></svg>