<svg xmlns="http://www.w3.org/2000/svg" viewBox="0 0 1200 600"><clipPath id="b"><path d="M0 0v150h700v150H600zm0 300v100h300V0h300z"/></clipPath><clipPath id="a"><path d="M0 0h650v350H0z"/></clipPath><path fill="#012169" d="M0 0h1200v600H0z"/><path d="m0 0 600 300M0 300 600 0" stroke="#fff" stroke-width="60" clip-path="url(#a)"/><path d="m0 0 600 300M0 300 600 0" stroke="#c8102e" stroke-width="40" clip-path="url(#b)"/><path d="M300 0v400M0 150h700" stroke="#fff" stroke-width="100"/><path d="M300 0v400M0 150h700" stroke="#c8102e" stroke-width="60"/><path d="M0 300h600V0h600v600H0z" fill="#69b3e7"/><g stroke-miterlimit="4.8"><path fill="#fff" d="M778.8 143.94v205.09c0 67.08 121.2 106.91 121.2 106.91s121.2-39.83 121.2-106.91V143.94z"/><path fill="#c8102e" d="M883.2 216v92.34H778.8v33.6h104.4v107.6l16.8 6.4 16.8-6.4v-107.6h104.4v-33.6H916.8V216z"/><path fill="#c8102e" d="M778.8 143.94h242.4v79.2H778.8z"/><g stroke-miterlimit="3"><g fill="#fff" stroke="#000" stroke-width=".81"><ellipse stroke-width=".8" cx="798.23" cy="192.21" rx="13.62" ry="10.96"/><ellipse cx="798.23" cy="186.53" rx="12.11" ry="6.12"/><ellipse cx="798.23" cy="198.77" rx="12.11" ry="6.12"/><ellipse cx="798.23" cy="192.21" rx="12.11" ry="6.12"/></g><path fill="#fedd00" stroke="#000" stroke-width="1.2" d="m1015.2 207.43-1.99-5.48s-5.43-2.21-5.84-5.1c-.97-7.7-3.72-10.58-7.83-11.68-4.13-1.1-6.87.7-6.87.7-1.24 1.78-7.43 1.78-10.86 1.91-3.43.14-3.5-1.49-3.5-1.49a4.36 4.36 0 0 1-3.78-1.94c-1.75-3.49-3.05-4.8-3.91-5.23 4.46.06 7.81-2 12.84-7.27 5.5-5.77 9.42-3.54 9.42-3.54-2.67 5.39.89 4.91.89 4.91 7.28-3.7.96-13.05-1.24-12.64-2.2.41-2.83-1.07-2.83-1.07.07 1.68-2.44 2.35-2.44 2.35 1.88-10.68-4.49-13.5-4.49-13.5a8.03 8.03 0 0 0-1.51 2.88c-1.78 6.46-7.7 5.5-14.3 2.33-6.58-3.15-24.17 3.3-29.66 5.5-5.5 2.2-15.53 5.63-24.6.55-9.06-5.09-11.27-4.12-14.84-3.16-3.57.96-9.89 2.48-12.22 1.24-2.34-1.24-5-1.32-5-1.32.63-.35-.36-1.84-.36-1.84-2.75-3.71.36-5.98.36-5.98s-5.12 1.44-3.08 10.16l.93 1.31s.69 2.75 2.2 3.57l-.05.6s1.3-.6 1.7 1.19c.42 1.78 2.34.14 3.16-1.37 0 0-1.37 7.97 8.52 9.89 0 0-1.1-1.24-.7-2.06.42-.83-1.23-1.52-1.09-2.75.14-1.23-2.47-1.78-.41-2.75 2.06-.96 3.03-2.89 7.42-.28s7.83 2.07 7.83 2.07-2.68-5.5-1.2-5.5c1.48 0 8.12 8.23 11.4 7.82 3.27-.4 9.59-4.11 12.75-2.74 0 0 .27-1.65 12.36-3.7 12.09-2.07 27-8.1 32.6-2.82 0 0 .65 4.19 2.98 5.29 0 0-.41 8.65-15.38 3.84l-5.43-1.43s-.84-2.63-29.3 4.7c0 0-1.68.58-2.78 1.4-1.1.83-2.61-.4-8.25 1.65-5.63 2.07-26.65 8.94-39.56 6.46l-.02.04c-2.84-.85-5.5-.41-5.61-.86-.14-.55 1.5.14 1.5.14-.95-1.1-1.36-1.2-1.36-1.2-10.86-1.18-8.94-6.09-8.94-6.09l.55 1.51c1.79-2.33-.69-7.83-.69-7.83l-.1.02a5.68 5.68 0 0 0-.1-.5l.9-.62a24.59 24.59 0 0 1 11.26-5.22c-3.57-4.4-11.13-2.06-11.13-2.06.14-5.36-2.06-11.54-2.06-11.54-7.42.82-11.68 7-11.68 7-.27-5.49-7.28-8.65-7.28-8.65 2.6 3.16.96 10.72.96 10.72l.27.14h-.68l-.16 1.62-.26-.11s-2.6.96-5.63 7.83c0 0-.3 1.62-1.47 3.09-.01-.2.01-.36-.01-.56 0 0-3.38 4.42-11.18 0 0 0-10.6-6.3-14.32-6.06-3.73.23-6.18 1.98-5.94 3.03 0 0-8.5-.7-11.41 4.19 0 0-6.4 2.33-.93 7.57 0 0 .73 2.27 2.32 3.5 0 0-.22-4.79.94-3.38 0 0 .3.47.87.8.15.67.67 2.53 1.8 3.48l.83-.26c.12-1.2.38-2.7.64-3.33l.27.03-.1.09 1.51 2.33 1.75-.93c.81-.12 1.86.7 1.86.7l1.98-1.64-.04-.04c1.95.33 2.49-3.45 2.49-3.45a6.11 6.11 0 0 0 4.78-.9c.85 3.13 7.8 6.5 7.8 6.5l.3-.03c-.6.38-.95.66-.95.66 3.16 2.2 9.07 1.65 9.07 1.65-2.47.96-2.12 5.54-2.12 5.54a2.6 2.6 0 0 0-1.59 2.01c4.81 1.92 8.1.33 8.1.33.26 1.57-.13 1.74-.13 1.74-1.92 4.12-2.75 8.1-2.75 8.1l.14.04c-.06.11-.14.22-.18.33 0 0-8.38 2.9-12.11 6.98 0 0-.35-1.16-1.4-1.16-1.05 0-4.3-2.68-5.82-3.15-1.51-.46-3.73.47-4.31-.23-.53-.63-.29-5.4-1.3-6.17h.02l-1.05-2.9c-.7 1.5-3.6 1.16-3.6 1.16-.12.07-.57.4-1.2.86-.58.04-1.25-.17-1.25-.17-.3.07-.6.9-.81 1.72l-.36.27v-.82c-.58.47-1.74-.23-2.2-.23-.24 0-.52.66-.75 1.35-1.18.22-2.75.28-2.75.28-.47.23-.12 3.84-.12 3.84-3.37 1.86-1.75 4.66-1.75 4.66 1.87 9.08 17.35 5 18.52 6.17 1.16 1.17 3.84 1.4 5.24 1.4 1.4 0 3.14 3.37 5.12 3.72 1.98.35 0-2.67 9.18-4.87s12.24-5.96 12.24-5.96c2.88-.55 3.68-4.04 3.9-5.46.02.65.1 1.37.2 2.2.42 3.16-1.77 4.3-1.77 4.3l7.96-2.38c3.15-.83 2.74-3.58 2.74-3.58 3.02 8.66 8.52 9.2 8.52 9.2 1.1-3.29.97-4.25.97-4.25l2.47-.14c.1-1.86-1.55-3.22-2.5-3.86l3.87 2.35 1.5-.27c0 1.37 2.07 2.6 2.07 2.6l.28-1.78c1.79 2.34 5.08 1.51 5.08 1.51a11.04 11.04 0 0 0-.29-1.28c7.04 4.35 18.29-1.19 18.29-1.19 3.02.69 3.43-1.1 3.43-1.1 3.43.41 4.23-1.94 4.23-1.94 8.08-.7 13.77-6.44 13.77-6.44 3.98-.28 4.11-3.12 4.11-3.12s4 .78 7.84-4.03c8.93-12.77 22.28-6.12 22.28-6.12l-7.72.49c-20.2-.14-11.82 13.6-11.82 13.6l1.25-.14c1.92.42 8.51 5.64 6.08 9.53l-.13.19c-4.12 5.64-11.75.26-13.92-4.5-2.2-4.8-6.6-3.7-6.6-3.7s-11.4 1.92-6.73 10.99h.17c.09 2.22 1.48 4.74 5.54 7.24 2.29 3.23 9.8 3.57 15.31 2.38 2.57-.56 16.12-6.39 16.12-6.39.99-2.95 4.36-2.27 7.38-6.53s-4.26-5.77-5.91-8.1c-1.65-2.34.41-1.93.41-1.93 6.6 3.58 7.14-7.83 7.14-7.83a9.9 9.9 0 0 0 6.46 8.38c3.57-3.57.97-10.85.97-10.85 8.52 15.25 13.68 12.82 13.68 12.82-4.6-2.84-2.28-6.64-2.28-6.64 4.11 16.21 21.02 2.06 21.02 2.06-.82 2.34 0 3.7 1.51 5.22 1.51 1.51 3.3 2.2 2.48 4.95-.83 2.75-8.65 2.2-8.65 2.2s-7.7-.41-7.01 6.04c.4 1.51 5.49 2.06 7.41 1.65 0 0-.8.18 2.05.56.96.12 2.1.14 3.28.1 3.28-.1 6.77-.66 6.77-.66 4.39-.96 3.7-2.47 3.7-2.47 6.73-1.24 7.42-5.78 7.42-5.78z"/><path d="M791.95 179.3c0-.01.36-.85 1.04-.96.53-.07 1.16.31 1.83 1.13l.37-.28c-.02-.02-1.81-2.64-1.1-4.5.32-.82 1.12-1.38 2.36-1.66l-.1-.45c-1.4.32-2.3.98-2.69 1.95a3.13 3.13 0 0 0-.2 1.14c0 .9.32 1.82.65 2.52-.41-.25-.8-.36-1.19-.3-.69.1-1.02.6-1.2.93zM1004 215.27c-4.59.73-11.33 1.13-11.86-.26-.1-.24-.11-1.24 3.64-3.68l-.43-.68c-3.14 2.05-4.4 3.52-3.96 4.65.96 2.5 10.8 1.07 12.76.76zm-87.8 2.65c-1.05-1.6-.58-3.8 1.4-6.52l-.65-.47c-2.2 3.02-2.67 5.52-1.42 7.43z"/><path d="M910 211.02c.1 2.77 2.06 5.34 5.8 7.63l.42-.68c-3.5-2.15-5.32-4.5-5.42-6.98-.14-3.81 3.9-6.75 3.93-6.78l-.47-.65c-.18.12-4.42 3.21-4.26 7.46zm78.29 1.03a6.1 6.1 0 0 0-.82 4.2l.79-.15c0-.02-.37-2.03.7-3.6a4.59 4.59 0 0 1 3.1-1.84l-.15-.79a5.37 5.37 0 0 0-3.62 2.18zm-179.37-35.16-.25-.06-.03.25c0 .03-.36 2.47-1.47 3.13-.3.18-.64.2-1.02.07l-1.88-1.15c-.38-.33-.7-.57-1.24-.41a2.71 2.71 0 0 1-.52-2c.14-1.1.9-2.15 2.3-3.14l-.27-.38c-1.5 1.08-2.34 2.24-2.48 3.48a3.35 3.35 0 0 0 .7 2.45l.1.13.16-.07c.41-.19.54-.08.94.28l2.03 1.23c.51.2.99.16 1.42-.1 1.15-.68 1.55-2.68 1.64-3.23 4.88 1.05 8.8-4.88 8.97-5.14l-.39-.25c-.03.06-4.04 6.13-8.71 4.91z"/><path d="M797.23 175.98c-.24.99-.08 1.96.49 2.88.54.88 1.07 1.35 1.62 1.42.67.1 1.21-.4 1.69-.84.34-.33.67-.63.94-.61l.42.29.36-.29-.75-.46c-.47-.03-.86.33-1.29.73-.42.38-.85.8-1.3.73-.4-.06-.84-.47-1.3-1.2a3.24 3.24 0 0 1-.43-2.54c.52-2.18 3.12-3.77 3.15-3.79l-.24-.4c-.11.08-2.79 1.72-3.36 4.08zm-6.71 31.06c.23-.84.88-1.56 1.92-2.13-.2.02 1.02 1.01 2.07.9l.68-.37c.28.24 2.1 1.9 2.1 4 0 .43-.08.89-.28 1.34l.42.18c1.33-3.15-2.01-5.94-2.04-5.97l-.13-.1-.2.14-.6.32c-.86.1-1.98-.82-1.99-.82-1.4.61-2.13 1.43-2.4 2.4zm15.53-8.04c-1 .09-3.8.62-4.71 2.07-.34.53-.38 1.1-.14 1.73l.36.98c.87 2.34 1.78 4.77 2.77 5.31l.22-.4c-.84-.46-1.75-2.91-2.56-5.07l-.36-.98c-.19-.49-.16-.92.1-1.32.74-1.2 3.26-1.77 4.36-1.86.64-.05.85 2.31.97 3.73l.46-.04c-.18-2.09-.37-4.24-1.47-4.15z"/><path d="M798.38 201.3a1.58 1.58 0 0 0-.46 1.35c0 .22.26 6.07 3.04 7.28l.18-.42c-2.5-1.1-2.76-6.85-2.77-6.9 0-.04-.08-.62.32-.97.42-.37 1.26-.4 2.42-.08l.12-.45c-1.34-.37-2.3-.3-2.85.19z"/><path d="M796.18 201.78c-1.23.86-1.18 3.3-1.18 3.4h.46c0-.03-.04-2.31.98-3.02.39-.27.89-.28 1.5-.03l.17-.42c-.76-.32-1.41-.3-1.93.07zm66.15-32.29c.02.04 1.31 2.94 1.31 5.3 0 .42-.2.72-.3 1.09-.04-.14-.5-1.37-.5-1.37l-.38.99a3.4 3.4 0 0 0 .38 2.88c1.2 1.98 4.19 3.24 8.88 3.76l.07.06a.85.85 0 0 0-.39.13l-.19.16.03.4c.12.48.68.5 1.78.55.2 0 .5.05.7.07l.57.15-.1-.11c1.07.07 2.28.34 3.58.83l-1 .25 1.17.46c.09.03 8.65 3.47 12.2 6.3-1.02.87-5.3 4.08-12.75 2.25l-1.24-.31.84.96c.06.06 4.9 5.62 5.9 8.99-1.68.02-8.18-.04-10.45-1.97l-.59.53c.03.05 3.12 4.58 3.8 8.1-.88.12-3 .21-4.25-1.43l-.57-.75-.32 2.04c-.6-.46-1.36-1.14-1.36-1.87v-.48l-1.84.34-3.76-2.29a7.97 7.97 0 0 0-.6-.36l-.04-.02-.03-.02-.39.7.58.35c.8.53 2.18 1.67 2.32 3.2l-2.44.13.04.42v.07c0 .25-.08 1.3-.85 3.68-1.15-.28-5.37-1.74-7.85-8.87l-.78.19.01.26c0 .65-.23 2.28-2.46 2.86l-6.45 1.94a4.5 4.5 0 0 0 .82-2.68c0-.26-.02-.54-.05-.84a20.3 20.3 0 0 1-.22-2.62c0-1.5.36-2.4 1.4-3.03l-.36-.72c-.1.04-9.62 3.82-14.34 2.25.22-.92 1.02-4.16 2.63-7.61l-.21.2c.31-.14.63-.62.36-2.17l-.08-.53-.49.23c-.03.02-3.05 1.37-7.41-.23.09-.36.32-1 1.23-1.38l.27-.11-.03-.3v-.52c0-1.18.18-3.94 1.87-4.6l-.18-.78c-.05 0-5.16.41-8.25-1.31a11 11 0 0 1 4.5-1.88l.32-.04.02-.32a5.93 5.93 0 0 0-.5-2.3c1.18.33 2.6.62 3.1.25l.16-.13-.14-3.1-.8.04.12 2.56c-.5.03-1.8-.23-3.04-.62l-1.23-.4.8 1.03a4 4 0 0 1 .73 2.33 12.68 12.68 0 0 0-5.07 2.33l-.41.34.44.3c2.4 1.67 6.15 1.82 8.08 1.77-1.14 1.28-1.33 3.43-1.33 4.5v.38a3.13 3.13 0 0 0-1.57 2.18l-.03.3.28.12c4.13 1.64 6.94.85 7.9.5 0 .13.04.3.04.39 0 .38-.07.5-.07.5-2.03 4.24-2.88 8.28-2.89 8.32l-.07.33.32.13c3.83 1.53 10.7-.56 13.75-1.64-.4.7-.63 1.47-.63 2.43 0 .81.1 1.72.23 2.73.03.26.05.5.05.73 0 2.28-1.54 3.14-1.62 3.18l.3.74 7.96-2.4c1.84-.47 2.54-1.56 2.83-2.48 3.14 7.44 8.06 8.11 8.28 8.14l.32.03.1-.3c.77-2.3.95-3.45.98-4.02a439.55 439.55 0 0 0 2.46-.13l.02-.36v-.18c0-.66-.2-1.24-.48-1.76l1.37.83 1.32-.24c.35 1.33 1.93 2.37 2.13 2.5l.51.3.27-1.73c1.96 1.75 4.75 1.23 4.88 1.2l.36-.1-.06-.35c-.4-2.69-2.2-5.88-3.26-7.6 3.49 1.6 9.85 1.48 10.16 1.47l.48-.02-.1-.46c-.56-2.83-4.1-7.28-5.57-9.04 8.2 1.54 12.6-2.72 12.8-2.91l.29-.3-.32-.29c-2.76-2.4-9.11-5.19-11.67-6.25l.9-.23-.89-.5c-2.13-1.2-4.4-1.34-5.92-1.4l-.01-.02c-.97-1.11-1.46-1.29-1.59-1.32-5.55-.6-7.58-2.16-8.32-3.36-.06-.1-.03-.17-.07-.26l.24-.32c.54-.7.73-1.63.73-2.62 0-2.55-1.3-5.46-1.37-5.62l-.74.33z"/><path d="M836.8 167.86c-.02.08-.6 3.12-3.2 4.54-1.94 1.07-4.52.99-7.64-.26l-.35-.14.04.37a5 5 0 0 0 1.9 3.18c1.4 1.09 3.4 1.47 5.92 1.2-.84 1-3.54 4.45-3.54 7.8 0 .17 0 .35.02.53.35.24 4.58 1.39 6.55-1.12.07 1.08.38 4.52 1.72 5.87.74.73.91 1.8.91 2.66 0 .77-.14 1.37-.14 1.38l-.16.61.52-.37c.16-.12 4.05-2.97 5.3-6.7 0 0 .62-.95 1.82-1.33-.02.16-.04.33-.04.56 0 1.44.63 4.06 4.83 5.67l.35.13-.03-.36a7.13 7.13 0 0 1-.03-.73c0-1.05.14-3 1.15-4 .66-.66.86-1.4.86-2.05 0-.5-.11-.91-.23-1.22.85.22 2.86.87 3.67 2.4 1.19 2.22 5.34.45 5.52.37l-.14-.43c-.02 0-1.75.39-2.84-.36a2.11 2.11 0 0 1-.87-1.51l-.2-2.31c-.03-1.05-.18-1.71-.7-2.27.55-.05 1.65-.03 2.11 1 .74 1.61 3.26 1.77 3.36 1.78l.86.05-.72-.47c-.03-.02-2.2-1.46-1.82-3.34l.3-1.37c.6-2.48 1.6-6.64.79-9.19l-.44.14c.2.64.28 1.4.28 2.2 0 2.26-.64 4.94-1.07 6.74l-.32 1.4a2.6 2.6 0 0 0-.05.53c0 1.22.8 2.15 1.4 2.7-.73-.15-1.76-.5-2.14-1.36-.6-1.33-2.23-1.39-3-1.23l-.55.1.46.31c.73.49.75 1.06.8 2.3l.2 2.35c.11.8.47 1.42 1.06 1.83.51.35 1.12.4 1.67.44-1.24.32-2.93.52-3.54-.62-1.14-2.13-4.29-2.7-4.42-2.73l-.48-.08.24.42c.03.04.36.65.36 1.42 0 .55-.17 1.17-.73 1.74-1.12 1.12-1.3 3.16-1.3 4.3 0 .21.02.24.02.38-3.6-1.51-4.23-3.75-4.23-5.02 0-.54.1-.9.12-.94l.1-.36-.36.07a3.47 3.47 0 0 0-2.5 1.77c-1 2.99-3.71 5.36-4.7 6.14a6.88 6.88 0 0 0 .07-.9c0-.93-.2-2.12-1.05-2.97-1.43-1.43-1.62-5.97-1.62-6.02l-.03-.82-.4.72c-1.58 2.83-6.2 1.47-6.25 1.46-.2-3.58 3.87-8.16 3.91-8.21l.43-.47-.63.09c-2.65.38-4.71.03-6.12-1.06a4.63 4.63 0 0 1-1.65-2.5c3.08 1.15 5.66 1.21 7.65.11 2.77-1.53 3.38-4.67 3.4-4.8 2.92-6.6 5.46-7.65 5.49-7.66l-.16-.43c-.12.04-2.74 1.07-5.77 7.95z"/><path d="M843.45 158.07h-.2l-2.36 3.25.7.07c12.83 1.25 19.62 8.99 19.68 9.07l.3.34 2.33-2.53-.17-.26c-6.51-10.24-20.14-9.94-20.28-9.94zm.22.8c1.59 0 13.27.37 19.19 9.33l-1.28 1.4c-1.39-1.44-7.96-7.58-19.24-8.9a631.23 631.23 0 0 1 1.33-1.83z"/><path d="M841.6 164.84c-1.1 1.5-2.11 3.7-2.11 4.74 0 .2.03.36.12.45l.06.03c-1.34 1.2-2.13 3.2-2.13 5.46 0 1.24.22 2.54.68 3.77l.25.7c1.26 3.42 2.35 6.38 7.8 4.64 5.24-1.68 5.44-2.01 6.76-4.19l.35-.56c.72-1.17 1.5-1.4 2.34-1.66 1-.3 2.03-.6 2.94-2.4l.88-1.32c.96-1.31 2.15-2.94 2.29-5.02l-.46-.03c-.13 1.95-1.28 3.51-2.2 4.78l-.92 1.38a3.65 3.65 0 0 1-2.66 2.17 3.9 3.9 0 0 0-2.6 1.85l-.36.57c-1.27 2.1-1.43 2.37-6.5 4-5.03 1.6-5.95-.9-7.23-4.37l-.25-.7c-1.43-3.82-.31-7.67 1.55-9.05l.64-.48-.89.1-.02-.13c0-.62.68-2.6 2.04-4.46 1.16-1.58 3.89-3.14 3.92-3.16l-.23-.4c-.12.07-2.85 1.63-4.06 3.29z"/><path d="M839.16 178.65c.9.62 2.17.58 3.7 0 0 .54.12 1.7 1.07 2.54 1.12.99 2.96 1.18 5.5.57l-.1-.44c-2.38.56-4.1.4-5.1-.47a3.08 3.08 0 0 1-.91-2.47l.04-.39-.37.16c-1.53.66-2.74.7-3.57.12-1.5-1.04-1.38-3.75-1.38-3.79l-.46-.02c0 .13-.13 3 1.58 4.19z"/><path d="M842.07 174.99c-.66.16-.83.7-.83 1.13 0 .1.01.2.03.28.11 1.18 1.4 1.97 2.56 2.3 1.13.33 2.53.36 3.08-.35.22-.28.38-.8-.1-1.61-1.75-2.98-4.58-1.81-4.74-1.75zm1.89 3.27c-1.02-.29-2.14-.95-2.23-1.93-.03-.1-.14-.75.44-.9h.05a3.25 3.25 0 0 1 4.19 1.54c.28.48.33.85.13 1.1-.34.44-1.45.52-2.58.2zm-1.94-3.25.05-.02-.05.02zm1.63 5.97c-.3 2.51-.11 2.57.07 2.63l.16.05.18-.21 1.45-1.92-1.83-.87-.03.32zm.42.38.74.34-.85 1.11c.01-.37.06-.9.11-1.45zm-4.21-2.4-.1 2.38 2-2.42-1.89-.2-.01.24zm.45.27.55.06-.58.7.03-.76z"/><path d="M838.53 178.2c.02.03 1.48 2.9 1.75 3.95.16.66 1.01 1.42 2.02 1.8 1.01.37 1.96.31 2.66-.18l1.33-1.1c.44-.43.58-.55.94-.48l.08-.46c-.6-.1-.9.18-1.34.6l-1.27 1.06c-.78.55-1.74.32-2.24.12-.95-.35-1.63-1.02-1.74-1.48-.28-1.09-1.72-3.92-1.78-4.04l-.41.21zm1.91-8.6c-1.62.75-2.3 2.71-2.33 2.8l.43.15c0-.02.66-1.87 2.1-2.53a2.9 2.9 0 0 1 2.34.02l.17-.42c-.98-.4-1.89-.4-2.71-.02zm10.89 5.16c.13.1 3.19 2.41 1.43 5.24l.39.25c1.98-3.2-1.51-5.83-1.55-5.86l-.27.37zm-9.2.45s-.48 1.73 1.96 2.34c0 0-2.3-.02-2.44-.61-.15-.6.02-1.9.48-1.73zm7.44 2.07c0 .15-.12.27-.27.27a.28.28 0 0 1-.27-.27c0-.15.12-.27.27-.27.15 0 .27.12.27.27zm.27 1.08c0 .15-.12.27-.27.27s-.27-.12-.27-.27c0-.15.12-.27.27-.27s.27.12.27.27z"/><circle cx="848.01" cy="177.82" r=".27"/><path d="M848.75 179.45a.27.27 0 0 1-.54 0c0-.15.12-.28.27-.28.15 0 .27.13.27.28zm-7.1-7.32a.27.27 0 0 1-.55 0 .28.28 0 0 1 .55 0z"/><circle cx="841.65" cy="173.22" r=".27"/><circle cx="840.09" cy="172.68" r=".27"/><path d="M840.83 174.3a.28.28 0 0 1-.28.27.27.27 0 0 1 0-.54.28.28 0 0 1 .28.27zm4.74-9.55s3.52 2.17.13 6.23c0 0 1.67-1.24 1.84-3.36.18-2.13-1.2-3.82-1.97-2.87zm13.5 5.84c-1.13.58-2.76-.5-3.58-1.51-.81-1.02-2.5-1.28-3.55.58-1.05 1.86-2.56 2.56-2.56 2.56s1.48-.87 3-2.5c1.51-1.63 2.38-.32 3.87.46s1.72.96 2.76.55l.06-.14z"/><path d="M858.78 170.86a1.7 1.7 0 0 1-2.21-.09c-.9-.73-1.66-1.72-2.8-1.13-1.13.58-3.29 2.2-3.29 2.2s3.5-2.4 4.17-1.88c.67.52 2.24 1.8 3.2 1.43.96-.39.93-.53.93-.53z"/><path d="M856.1 172.34c-1.1-.84-2.21.99-3.14.76-.93-.24-1.7-1.78-1.7-1.78s.88 1.63 2.1 1.25c1.23-.37 2.07-1.13 2.83-.55.75.58-.09.32-.09.32z"/><path d="M854.37 172.57c-2.18.23-2.4-1.81-2.4-1.83 0 0 .69 1.78 2.62 1.45l-.22.38z"/><path d="M854.3 171.18c.14.55.11.8-.47.8-.6 0-.99-.2-.99-.76 0-.57 1.37-.4 1.46-.04zm-7.84-3.03c0 .38-.31.69-.7.69s-.46-.26-.46-.64.07-.73.46-.73.7.3.7.68z"/><path d="M844.05 165.71s3.74.04 1.89 4.72c0 0 1.42-2.33.53-4-.9-1.68-2.3-1.26-2.3-1.26s-.35.32-.12.54z"/><path d="M843.94 167.58c-.01.94.62 1.9 1.86 2.88l.28-.36c-1.12-.88-1.69-1.72-1.68-2.51 0-.79.61-1.25.62-1.26l-.28-.37c-.03.03-.79.6-.8 1.62z"/><path d="M844.77 168.37c.16.54.58.95 1.24 1.21l.17-.42c-.52-.21-.85-.52-.97-.92-.24-.8.4-1.72.41-1.73l-.37-.27c-.04.05-.78 1.12-.48 2.13zm5.13 2.6s.7 1.51-.32 3.14c-1.02 1.63-1 1.55-1 1.55s1.23-2.24.77-3.18c-.47-.93.55-1.51.55-1.51zm14.55 15.79c3.84.72 12.51 7.52 12.6 7.59l.5-.64c-.37-.28-8.92-6.98-12.95-7.74l-.15.79zm3.41 9.59c.26 3.41 3.97 5.53 4.13 5.61l.39-.7c-.04-.01-3.5-2-3.72-4.97l-.8.06zm-9.21.71c0 3.82 3.58 8.45 3.74 8.65l.63-.5c-.03-.04-3.57-4.6-3.57-8.15h-.8zm-12.15.43c.63 1.26.57 1.9.4 2.21-.19.36-.58.41-.6.42l.1.8c.3-.04.89-.24 1.2-.82.39-.7.26-1.7-.38-2.96l-.72.35z"/><g fill="#fff" stroke="#000" stroke-width=".36"><path d="M791.86 178.63s.23 2.56 2.21 4.08c0 0-.23-2.8.35-3.96 0 0-1.04-1.17-2.56-.12zm3.95 1.63s.47 2.33 1.87 3.38l.82-.24s.34-2.91.8-3.26c.47-.35-1.97 1.05-3.49.12z"/><path d="m799.31 180.14 1.51 2.33 1.75-.93-.35-2.8s-1.05-.23-2.91 1.4zm7.1.47-1.98 1.63s-1.05-.82-1.86-.7l.35-2.56s1.4-1.05 3.49 1.63zm-14.09 24.1s-.35-3.61.12-3.84c0 0 1.4.46 1.98-.12 0 0 .81 2.91.58 4.08-.23 1.16-1.63.7-2.68-.12zm8.97-3.73s-.12-3.03.47-3.38c0 0 2.9.35 3.6-1.16l1.05 2.91s-3.26-.35-5.12 1.63z"/><path stroke-width=".35" d="M798.15 201.56s.58-3.14 1.17-3.26c0 0 1.5.47 1.97-.12l-.11 3.85s.11-1.63-3.03-.47zm-3.38.47s.7-2.8 1.17-2.8c.46 0 1.63.7 2.2.24v2.1s-2.56-.59-2.9 2.9l-.47-2.44z"/></g></g><g fill="#00ad50" stroke="#000" stroke-width=".78"><path d="M840.16 260s7.91 7.35 5.84 13.76c0 0 5.1-10.93-.37-14.14-5.47-3.2-5.66-.75-5.47.38z"/><path fill="#862633" d="M830.17 267.15s-2.07 2.83.19 4.9c0 0-2.45 3.58-.56 6.6 0 0-1.51 3.2-1.13 6.6 0 0-1.33 5.27 1.5 7.73 0 0 3.02 1.5 4.34.19 0 0 2.64-3.96.94-8.11 0 0 1.88-3.4-.19-7.73 0 0 .57-2.45-1.13-5.27 0 0 1.13-1.9.19-3.4 0 0-3.77-3.96-4.15-1.51z"/><path d="M832.43 257.92s-9.42-18.09-16.02-18.85c-6.6-.75-6.97-7.16-6.97-7.16s.75 3.02 6.03 3.02 15.45 7.35 16.58 13c1.13 5.65 2.27 4.9 2.27 4.9l-1.89 5.09z"/><path d="M832.43 256.6s3.4-22.8 18.29-23.18c14.88-.38 9.98 1.13 13.56-1.32 0 0-9.98 5.28-16.2 6.03-6.22.75-11.31 12.8-11.12 15.08.18 2.26-3.4 6.6-5.1 5.09-1.69-1.51.57-1.7.57-1.7z"/><path d="M835.82 265.09s3.4-9.05 9.23-6.03c0 0-4.52-8.67-12.62-1.13 0 0 3.58 4.9 3.39 7.16zm-11.31-9.06s4.9 20.17-2.64 26.39c0 0 .19-10.36-4.33-16.59-4.52-6.22 4.52-13 6.97-9.8z"/><path d="M825.08 259.62s8.86 8.48 9.43 11.31c.56 2.83 2.63-8.48-1.51-11.68-4.15-3.21-8.67-3.78-8.67-3.78l.75 4.15z"/><path fill="#862633" d="M808.74 281.85s.8 3.56 2.99 4.25c0 0 .11 2.65 2.07 3.45 0 0-1.04 2.18.69 3.56 0 0-.35 4.36 1.26 5.29 0 0 3.91-.23 5.28-1.38 0 0 .81-2.87-1.37-5.75 0 0 .34-2.76-1.84-4.25 0 0 .69-3.68-2.07-5.06 0 0-.46-2.99-2.19-4.48 0 0-3.33 4.71-4.82 4.37z"/><path d="M813.1 277.48s-11.6-4.25-18.04 1.84c0 0 9.88 1.38 11.15 3.33 1.26 1.95 7.35-3.21 6.89-5.17z"/><path d="M809.54 284.72s-.92-.8-2.07-1.61c-1.15-.8-10.91-3.45-12.3 5.98 0 0-3.56-9.31 1.61-10.58 5.18-1.26 9.32 1.73 12.76 6.21m-7.64-19.26s3.58 7.73 4.9 8.1c1.32.38 2.26-.93 2.26-.93s-4.71-6.98-7.16-7.17zm-2.64-11.87s-3.02-9.99-6.6-7.35c-3.58 2.64-2.64 9.8-2.64 9.8s-7.16-7.35-3.01-13.2c4.15-5.84 12.25.57 12.25 10.75z"/><path fill="#862633" d="M807.37 274.13s0 1.89 1.32 2.45c1.32.56 3.77 1.5 3.77.38 0-1.13-1.88-5.47-2.64-4.9-.76.56-2.07.56-2.45 2.07z"/><path d="M805.11 262.45s-.38-8.67 5.27-11.88c0 0 1.14.2 1.7-1.5 0 0-4.52 10.93-3.2 16.4l-.19.75"/><path d="M806.24 251.89s10.18-21.11 22.62-13.76c0 0-13 2.64-17.72 11.87l-4.71 6.97-.19-5.08z"/><path d="M800.77 259.62s-3.02-14.13-4.9-16.02c-1.89-1.88-5.1-3.95-8.86-.75 0 0 6.6-5.85 13.57-.94 6.97 4.9 5.46 12.62 5.46 12.62l-.75 9.8-4.71-4.33"/><path d="M811.7 276.39s-12.44-23.55-20.54-6.78c0 0-1.51 4.33.18 6.03 0 0-4.52-3.4-2.45-11.69 2.07-8.29 15.83-4.52 19.8 2.27 3.95 6.78 5.08 10.18 4.52 10.55-.57.38-1.51-.38-1.51-.38zm35.06 6.79s9.05-18.66 14.32-10.18c0 0 1.51 4.14-.75 5.84 0 0-3.58-4.33-6.78.95-3.2 5.27-1.89 4.9-1.89 4.9s-3.4.94-4.9-1.51z"/><path d="M860.32 278.84s4.9 2.63 3.2 7.91c0 0 6.6-12.62-2.44-13.76 0 0 1.7 3.96-.76 5.85zm.57-12.81s11.88 3.39 12.25 8.48c0 0 2.08-9.8-4.7-12.82 0 0-8.12 1.33-7.55 4.34z"/><path d="M866.17 250.38c5.09-9.99 11.5 3.2 11.5 3.2s2.26-10.36-4.15-12.25c-6.4-1.88-10.55 22.05-10.55 22.05l-7.54 1.7s2.07-20.92 13.38-22.8l1.32.18"/><path d="M857.12 256.41s-7.16-14.7-12.06-16.2c-4.9-1.51 2.64-3.78 5.66-.95 3 2.82 8.66 6.4 8.1 13.95l-1.7 3.2zm-7.35 20.17s2.07-9.98 7.73-13c5.65-3.02 10.93-1.89 10.93-1.89s-6.79 1.5-7.92 4.9c-1.13 3.4-3.01 3.58-3.01 3.58l-7.73 6.41z"/><path fill="#862633" d="M846.76 283.18s-3.2 6.03-2.45 6.97c0 0-3.4 4.9-2.07 7.35 0 0 3.39 2.64 4.9 1.5 0 0 3.95-5.45 2.82-8.47 0 0 2.64-3.58 1.7-5.84 0 0-3.95.19-4.9-1.51z"/><path d="M830.18 272.41c.21.1 2.12 1.03 3.4.6l.91-.78-.72-.35c-.47.93-2.54.16-3.23-.18l-.36.71zm-.31 5.85-.16.79c.17.03 3.99.77 5.81-.85l-.53-.6c-1.52 1.36-5.08.67-5.12.66zm-.97 6.66-.47.65c.04.04 4.49 3.2 7.33-.26l-.62-.5c-2.36 2.86-6.08.23-6.24.11zm-17.26.96.17.43c.16-.06 3.92-1.58 4.16-4.33l-.46-.04c-.21 2.47-3.83 3.93-3.87 3.94zm2.13 3.44.03.46c.15-.01 3.63-.27 4.23-2.7l-.45-.12c-.52 2.1-3.78 2.36-3.81 2.36zm.72 3.56-.03.46c.17 0 4.06.21 5.39-1.95l-.4-.24c-1.18 1.93-4.92 1.73-4.96 1.73zm29.53-2.44c.07.07 1.75 1.73 3.71 1.66a3.46 3.46 0 0 0 2.53-1.3l-.6-.53a2.7 2.7 0 0 1-1.96 1.03c-1.6.05-3.1-1.41-3.11-1.43l-.57.57z" fill="#000" stroke="none"/></g><g fill="#862633" stroke="#000" stroke-width=".42"><path d="M961.06 304.22a1.66 1.66 0 0 0-.6.4l.6-.4zm13.86-3.47c-.13-.34-.22-.2-.4-.35-.25-.21-.4-.88-.62-1.13-.13-.15-.29 0-.43-.04-.32-.71-.7-1.46-1.05-2.15a.6.6 0 0 0 .1-.32l-.17-.6c-.1-.15-.25-.06-.35-.3-.1-.24-.02-.7-.06-.98-.03-.23-.12-.36-.1-.69.01-.28.16-.62.14-.87 0-.15-.19-.5-.24-.64a4.75 4.75 0 0 1-.44-1.7c-.03-.6.1-.98.14-1.5.06-.62-.28-.93-.28-1.5 0-.45.2-.94.25-1.34a9.95 9.95 0 0 0 .03-1.88c-.04-.53-.19-.85-.1-1.45.02-.15.08-.27.1-.47v-1.29c0-.28.03-.6 0-.86-.02-.23-.15-.46-.15-.64 0-.3.19-.45.15-.86-.03-.3-.07-.37-.14-.63-.13-.5-.04-1-.12-1.52-.04-.26-.12-.34-.15-.63-.03-.34.08-.45.1-.7.04-.24.08-.55.05-.8-.04-.31-.19-.53-.15-.86l-.1 3.78c-.1-3.3-.23-6.35-.23-6.35l-5.02-2.36s-.43 9.21-.32 10.5c.1 1.28.53 10.07.32 11.14-.22 1.07-.74 6.43-.74 6.43s-2.46 1.71-3.42 3.64c-.96 1.93-.75 2.57-1.07 2.57l2.38-.37-1.77 1.19a1.08 1.08 0 0 1 1.1.17c.04.03.31.26.34.26.1 0 .23-.24.34-.28.37-.13.68.57 1.03.51.2-.02.45-.22.6-.42.13-.17.18-.47.31-.59.12-.1.42.02.55.02h1.06c.46-.01.84-.67 1.27-1.04.4-.34.7-.46 1.13-.43.47.03.89.47 1.37.5.36.01.6.06.9-.32.2-.26.35-.66.54-.93l1.18-.19c.24.1.48.21.68.2.3-.01.61-.05.91 0 .12.01.34.28.44.21.06-.04.17-.4.23-.51-.02-.15-.07-.5-.12-.63z"/><path d="M964.77 304.05c.3 0 .58-.07.83.15l.12.24a.26.26 0 0 0 .25.03c.17.12.2.18.4.22.17.04.36 0 .53 0 .22 0 .33.08.54.17.35.14.59 0 .9-.22.36-.26.49-.06.83.27.26.24.2.22.44.05l.12-.22c.11-.05.23-.08.35-.1.19-.09.38-.08.56-.15.2-.07.33-.28.53-.25.18.04.38.18.54.23.16.06.23.09.36.19.24-.5.77-.64 1.11-.88.35-.25.68.05 1.06.05.2 0 .3-.12.44-.16.16-.06.35.02.5-.04.17-.06.2-.23.39-.25.34-.04.72.52 1.06.62.19.07 1.07.26.94-.39-.12-.62-.68-.19-.8-.62-.06-.25.07-.6 0-.88a1.08 1.08 0 0 0-.52-.6c-.2-.06-.33.15-.5-.02-.15-.13-.2-.64-.34-.84-.17.12-.27.24-.5.2-.26-.07-.23-.16-.42-.4-.42-.52-.66.31-1.05.18-.29-.1-.56-.83-.79-1.13-.12-.16-.47-.68-.64-.56-.3.2-.03.76-.19 1-.1.18-.5 0-.65.03-.22.05-.26.1-.43.38-.33.55-.52.98-1.03.92-.25-.03-.43-.28-.67-.19-.25.1-.4.37-.67.4-.2.02-.44.03-.64-.05-.19-.09-.4-.45-.59-.55a.23.23 0 0 0-.24-.05c-.02 0-.28-.17-.29-.17-.3-.09-.28-.07-.4.33-.08.26-.1.52-.2.76-.1.2-.3.45-.4.59-.22.23-.33.17-.6.25-.23.07-.53.43-.65-.03-.18-.68.5-1.7-.26-1.52-.2.05-.32.08-.44.38-.13.33-.03.55-.09.92-.08.47-.96 1.25-.79 1.67.12.3.52-.16.62-.09.18.13.13.42.26.62.27.41 1.07-.63 1.11-.07m-3.22-4.07-.02-.18c-.2-.03-.45-.26-.64-.26-.19-.01-.55.43-.67.65-.4.64-.28 1.52-.94 1.5-.16 0-.53-.1-.67-.01-.25.17-.1.69-.1 1.04 0 .33.16 0-.02.43-.05.12-.21.15-.25.31-.14.56.33.38.54.38a103.36 103.36 0 0 1 1.57 0c.32 0 .5-.1.8-.22.2-.07.61-.06.78-.24.06-.06.25-.5.27-.61.05-.22-.04-.48.01-.66.09-.31.37-.2.42-.62.14-1.05-.98-.26-.8-1.3"/></g><g stroke="#000" stroke-width=".78"><path d="M974.21 271.28c0 1.36-.93 2.45-2.08 2.45-1.13 0-2.07-1.1-2.07-2.45s.93-2.45 2.07-2.45c1.15 0 2.08 1.1 2.08 2.45zm-6.78-3.02c0 1.35-.93 2.45-2.07 2.45-1.15 0-2.08-1.1-2.08-2.45s.93-2.45 2.08-2.45c1.14 0 2.07 1.1 2.07 2.45z"/><path d="M971.01 269.2c0 1.36-.93 2.45-2.07 2.45s-2.08-1.1-2.08-2.45.93-2.45 2.08-2.45 2.07 1.1 2.07 2.45z"/><path d="M967.54 271.44c0 1.36-.93 2.45-2.08 2.45s-2.07-1.1-2.07-2.45.93-2.45 2.07-2.45 2.08 1.1 2.08 2.45z"/><path d="M970.76 273.31c0 1.35-.94 2.45-2.08 2.45-1.14 0-2.07-1.1-2.07-2.45s.93-2.45 2.07-2.45c1.14 0 2.08 1.1 2.08 2.45z"/></g><path fill="#00ad50" stroke="#000" stroke-width=".78" d="M971.76 246.58s20.92-29.2 43.35 1.13c0 0 .18 3.02-1.89 6.22l-.56-2.44-1.32.37-.38-1.5-2.45-.2.75-3.2-2.64 2.07.38-2.26-3.01 3.02.38-6.41-3.21 5.47.38-3.77-1.13 1.7-.68-2.2-1.02 2.2-1.51-1.14v1.51l-2.63-2.26-.95 3.01-1.32-3.2-.37 2.26-1.33-2.64-.18 2.83-4.34-1.88.94 2.63-2.07-1.5.38 1.5-2.82-.56.18 1.7-3.01-.57.56 1.5-4.14-.56 1.5 1.7-.42.69s22.66-7.47 24.17 20.8l-4.15 2.07 1.13-2.26-1.13-.76-3.39-2.63.94-3.59-1.13.38-.19-2.07-.56.38-1.32-2.08-.38.76-.94-2.45-.94 1.7-.57-4.15-1.5 2.64-.2-1.5-.56.93-1.89-2.26-.56 1.5-.76-1.12-.56 1.32-2.07-1.9v1.52l-1.32-1.13-.57.75-3.2-1.7-.2 1.51-1.69-1.5-.57 1.5s20.55 11.69 14.14 30.73l-1.13 2.44-.38-6.4-1.88 3.39 1.31-7.35-1.3 1.32-.2-2.83-1.7 2.83-.57-3.2-.75.94-1.13-4.9-.94 2.07-1.5-5.47-1.14 2.26-.75-4.7-.76 2.82-2.26-4.15-.38 1.7-1.31-3.4-.76 1.14s-3.77-.2-4.9-1.13c-1.13-.94-4.34 5.65-4.34 5.65l.38-3.96-1.31 2.64v-2.64l-2.46 7.92-.56-5.66-1.32 4.9-.57-1.5-.37 2.07-.76-.75-.66 2.22-1.23-.9v3.01l-1.13-1.5-.94 4.52-.56-1.88v2.07l-.94-1.13-.95 4.52-1.32-1.88-.18 3.2.56 2.45-1.5-.75.56 3.95s-5.84-10.92 1.13-21.48c6.97-10.55 16.4-13.38 16.4-13.38l-.95-.94-.19-.94-5.65 2.82.19-1.7-1.5 1.32-.38-1.88-.95 1.7-.18-.76-1.33 2.08-.75-3.02-.94 3.58-.9-2.5-1.93 5.33v-3.96l-1.5 4.15-.57-4.53-1.13 5.28v-4.71l-1.7 4.7-1.13-4.51-.76 4.33-1.12-3.4-1.14 5.1-1.7-4.53-.93 6.79-1.13-2.64-.2 4.9-1.3-3.02 1.3 6.4-1.69-2.44.57 3.96-2.45-4.34.19 5.1-1.32-1.7-.57 1.88s-.56-19.6 12.81-23.37c13.39-3.77 22.06 1.13 22.06 1.13l-5.09-4.14.57-1.33h-1.89l.76-1.5-3.96.19 1.13-1.51-3.02.37v-.94l-1.88 1.5.75-1.69-2.64 1.7-.16-2.51-1.35 2.13-.75-2.26-6.03 6.03 1.7-6.22-1.13 1.32-.19-1.32-1.7 2.64-.38-1.88-.75 2.26-.57-2.64-1.31 2.64-1.32-2.45-.57 3.2-.94-1.7-1.13 2.46-1.5-1.51-.2 1.5-3.01-1.31.75 2.26-2.26-1.88-.57 3.01-1.32-1.5-.94 3.76-.94-3.58-.94 2.83s11.78-30.29 41.6-10.53c0 0 3.25 3.18 4 5.44.76 2.26.2.38.2.38l-.57-20.92 1.13 9.04.75-3.2-.18 4.71 3-6.6s-3.57 10.94-2.25 14.9c0 0 1.32-12.63 5.85-14.14l-4.15 9.04 1.31-.19-.94 1.9h1.13l-1.36 2.98-.71 1.54.75 1.5 1.14-1.14z"/><path d="m968.66 258.87.6.54c.07-.09 1.94-2.07 5.07.57l.52-.62c-3.75-3.16-6.17-.52-6.19-.49zm-.91-10.26-.12.72 1.45-.62a360.89 360.89 0 0 1-1 1.75l2.17-.72a9103.73 9103.73 0 0 1-2.69 3.52l.64.5 4.28-5.6-2.66.88 1.14-2-2.3.98.48-2.87-.8-.14-.59 3.6z"/><path d="m963.76 248.84.93 2.04-1.48-.6 4.35 7.7.56-.71-.88 2.25.75.3 1.88-4.83-.7-.39-1.5 1.93-2.63-4.64 1.2.48-1.2-2.65 1.63 1.02v-2.87h-.8v1.42l-2.66-1.66.55 1.21zm-2.74 9.66.32.74c1.18-.5 2.15-.6 2.88-.24.87.41 1.13 1.3 1.13 1.31l.78-.2a3.06 3.06 0 0 0-1.55-1.83c-.95-.46-2.15-.39-3.56.22zm3.38 8.15-.66-4.21.8-.13.65 4.21zm5.78-.7-1.07-3.21.77-.26 1.07 3.22zm2.13 2.39-.8-3.22.77-.2.81 3.22z"/><path d="M811.41 365.04s-3.53-1.6-5.14-.43c-1.61 1.18-1.4 2.9-2.79 2.78 0 0 5.36 1.18 6.54-.21 1.17-1.39 1.39-1.82 1.39-1.82m.65 1.16s-2.33 3.11-1.52 4.93c.8 1.82 2.52 1.98 2.11 3.31 0 0 2.3-4.97 1.2-6.42-1.1-1.44-1.47-1.75-1.47-1.75m-4.24-8.68s-3.71 1.15-4.13 3.1c-.42 1.94.88 3.08-.23 3.93 0 0 4.78-2.68 4.74-4.51-.05-1.82-.16-2.28-.16-2.28m1.96 1.04s1.76-3.47.65-5.12c-1.1-1.66-2.83-1.52-2.66-2.9 0 0-1.41 5.3-.07 6.53 1.34 1.23 1.76 1.47 1.76 1.47m-3.32-1.24s.09-3.88-1.63-4.89c-1.72-1.01-3.21-.14-3.66-1.47 0 0 1.03 5.4 2.77 5.93 1.75.53 2.23.56 2.23.56m6.63 6.33s4.07-1.4 4.4 3c.31 4.39-.22 2.9-.22 2.9s-2.15-4.72-4.5-5.47l.32-.43z" stroke="#000" stroke-width=".78" fill="#00ad50"/><path d="M811.99 366.59c0 .1.43 3.41.43 3.41l.57-.07-.43-3.32 1.39-7.3-.57-.1-1.39 7.38z"/><path d="m808.29 365.51-.19.54c1.95.69 4.66-1.45 4.77-1.54l-.36-.45c-.02.02-2.57 2.03-4.22 1.45zm5.1-4.29-9.1-4.6.36-.72 9.1 4.6z"/><path d="m806.79 360.19-.57-.57 1.82-1.82.57.57zm3.19-.89-1.93-4.18.73-.33 1.92 4.18zm2.69 5.12.05.8c2.48-.16 3.08 1.44 3.09 1.46l.79-.17c-.1-.46-1.09-2.28-3.93-2.09z"/><path d="M854.43 366.27c3.04-1.7 3.64-7.66 3.64-7.66-.72 2.2-6.3 4.38-6.3 4.38 4.12-2.56 9.1-14.09 9.1-14.09-1.34 4.13-12.14 7.53-19.07 11.42-6.92 3.88-3.27 15.05-3.27 15.05-1.94-1.33-5.71-7.28-6.44-12.5-.73-5.23-2.8-7.29-7.53-7.9-4.74-.6-7.53 4.74-7.53 4.74l-7.04 3.64 7.16.24s5.1 1.7 5.1 5.71-4.48 20.04 2.92 29.02c5.15 6.25 24.16 9.84 24.16 9.84" stroke="#000" fill="#FFF"/><path d="M840.47 378.65s1.46-7.17 6.2-6.92c4.73.24 6.06-5.34 8.86-6.2 2.79-.84 17.24-4.73 18.82-11.65 0 0-1.34 11.42-14.57 17.12 0 0 10.68-3.52 11.9-5.83 0 0-4.74 10.2-16.28 11.78 0 0 10.81-.85 12.39-3.76 0 0-4.86 6.43-12.87 7.28 0 0 7.4 3.04 9.35.49 0 0-4 4.73-8.99 5.1l1.34.36s-4.73 5.59-9.96 1.82c-5.22-3.76-5.34.98-5.34.98" stroke="#000" fill="#FFF"/><path d="M851.25 389.45s6.1 10.2 6.7 15.66c0 0 11.66 12.88 16.03 13.6 0 0-2.06.85-5.83-2.3 0 0 3.16 3.27 3.77 3.4.6.12-2.55-.25-3.04-1.1 0 0 1.34 1.95 2.19 2.19l-.85-.24s-1.58-.25-2.31-.85-.24 1.57-.24 1.57-1.83-.49-2.43-1.1c-.6-.6.24 1.35.24 1.35l-1.57-.37-1.1.73s-.12.73-.85.12c-.73-.6-2.06 0-2.06 0s-.98.85-1.46.24c-.48-.6-2.32 2.34-2.32 2.34l-7.65-18.46" stroke="#000" fill="#FFF"/><path d="m858.5 422.93-9.66-18.4 1.02-.53 9.66 18.4zm8.45-1.24-16.53-18.51.85-.77 16.54 18.51zm3.77-1.63-18.87-17.58.79-.84 18.86 17.58zm-47.28-59.22s-1.23-2.2-2.3-1.38c-1.07.83-1.69.98-1.87.92 0 0 1.07.06 1.68-.52.62-.59 1.66-.22 2.49.98zm-6.66-1.01.69 1.42c-.07 0-.77 2.26-.77 2.26l.55.17.75-2.45c0-.22-.7-1.65-.7-1.65l-.52.25z"/><path d="M823.16 360.5s-.92 1.07-2.18.77l-1.25-.31 1.78.1c.7.02 1.62-.34 1.65-.56z"/><path d="M822.86 360.72s-1.13-1.2-1.9-.86c0 0 1.35-.43 2.12.73l-.22.13z"/><path d="M822.67 360.5s-1.29.89-2.7-.09l-.09-.07.19-.05s1.78.73 2.6.21z"/><circle cx="821.57" cy="360.28" r=".38"/><path d="M822.61 394.2s-1 1.83-.47 2.94c.52 1.1 2.89 1.67 3.2 3.15.32 1.47 1.1 1.47 2.2 1.26l1.32-.26s-4.62-2.48-5.83-6.46l-.42-.63z"/><g stroke="#000" fill="#862633" stroke-width=".48"><path d="M972.09 356.85s8.42-11.1 15.88-8.18c7.47 2.91 12.32 4.32 12.32 4.32s.14 7.47-3.83 7.47c-3.96 0-7.76-7.46-11.37-5.24-3.61 2.21-6.58 5.25-6.81 6.3-.24 1.04-9.57 1.28-6.19-4.67z"/><path stroke-width=".78" d="M940.14 410.37s-2.33 2.44-1.28 3.03c1.06.58 3.15-.12 3.15-.93 0-.82-1.4-2.33-1.87-2.1z"/><path stroke-width=".78" d="M938.28 412.7s-4.31-2.46-7.7 3.38c-3.38 5.83-6.18 15.27-8.16 16.56-1.98 1.28 19.24-9.33 19.48-13.76 0 0 1.4-5.72-.82-5.6-2.21.12-2.33.35-2.8-.58z"/><path d="M938.86 413.4s-4.43 1.04-5.36 7.34c-.93 6.3-7.12 9.56-7.46 9.8m74.26-77.55s-6.74 2.34-5.57 7.01"/></g><path fill="#fedd00" stroke="#000" stroke-width=".48" d="M948.54 366.64s.23-15.98 13.28-15.28c2.48.23 1.3 3.15 1.3 3.15s2.82-1.98 4.11 1.17c0 0 4.12-1.87 4.59 2.21 0 0 4.47-.58 3.88 3.04 0 0 3.05-.7 2.94 1.86 0 0 3.52-1.4 3.17 2.22 0 0 3.88-2.57 3.3 2.1 0 0 4-2.8 5.4 1.86 1.41 4.66-4 14.58-9.29 17.14"/><path d="M984.81 367.61c.02.13 1.76 12.5-5.26 17.03l.25.39c7.27-4.7 5.48-17.36 5.47-17.49l-.46.07zm-8.45 13.55.32.33c4.45-4.33 5.4-15.98 5.44-16.47l-.46-.04c0 .12-.97 11.98-5.3 16.18zm-4.15-2.77.46.04c.57-7.2 6.2-15.43 6.25-15.51l-.38-.26c-.05.08-5.75 8.41-6.33 15.73zm-3.26-2.1.46.05c.8-8.68 6.53-15.2 6.59-15.26l-.34-.31c-.06.06-5.9 6.69-6.71 15.52zm-4.55-2.9.46.02c.45-10.25 7.18-15.28 7.24-15.33l-.27-.37c-.06.05-6.96 5.2-7.43 15.68zm-4.2-2.55.46-.01c-.33-9.33 6.84-14.92 6.91-14.97l-.28-.37c-.07.06-7.43 5.78-7.09 15.35zm-7.57-3.41.45.06c1.25-10.1 10.24-12.73 10.33-12.75l-.12-.45c-.1.03-9.38 2.73-10.66 13.14z"/><path fill="#00ad50" stroke="#000" stroke-width=".48" d="M940.84 386s-2.21-14.81 6.65-19.47c0 0 1.64-.35 2.56 1.75 0 0 4.67-1.98 4.79 1.97 0 0 2.33-1.86 2.91.7 0 0 5.02-1.04 4.08 2.69 0 0 4.2-1.17 3.85 2.44 0 0 4.2-1.51 3.5 1.64 0 0 4.43-1.05 3.38 2.56 0 0 5.48-.58 3.85 3.27 0 0 4.08-1.05 3.14 2.1 0 0 5.37.93 2.92 4.31-2.45 3.38-8.63 8.51-14.69 10.73"/><path fill="#00ad50" stroke="#000" stroke-width=".48" d="M936.06 400.92s-3.62-12.36 3.27-15.5c0 0 1.27-.36 1.5.93 0 0 1.53-1.99 2.7-.24 0 0 3.49-1.63 4.31.93 0 0 2.33-1.98 3.5.93 0 0 2.21-.93 2.21 1.4 0 0 3.03-1.28 3.03 1.52 0 0 2.91-1.17 2.33 1.98 0 0 4.44.7 3.15 2.8 0 0 3.97 1.04 2.45 2.68 0 0 4.31-.46 1.98 2.45 0 0 3.27-1.05 1.4 2.57-1.86 3.61-7.69 7.58-11.77 8.04"/><path fill="#00ad50" stroke="#000" stroke-width=".48" d="M940.37 410.71s-7.7-7.46-4.08-9.68c0 0 1.63.47 2.22 2.1 0 0 1.86-2.68 2.91.12 0 0 2.8-.94 2.8.93l2.21 1.64s2.57-.24 2.1 1.4c0 0 2.8-.36 2.69 1.16 0 0 2.45.12 2.22 1.75 0 0 4.19.7 2.33 2.8 0 0-7.35 1.51-12.48-.59 0 0-2.69-.93-2.92-1.63z"/><path d="m966.76 398.38.16.43c4.56-1.76 12.48-12.57 12.82-13.03l-.37-.27c-.09.12-8.18 11.16-12.61 12.87zm-2.59-1.97.22.4c3.97-2.21 11.87-12.68 12.2-13.12l-.36-.28c-.08.11-8.18 10.83-12.06 13zm-2.25-.92.3.35c4.19-3.48 10.29-14.96 10.55-15.45l-.4-.22c-.07.12-6.33 11.9-10.45 15.32zm-2.06-2.65.46.06c.8-5.8 8.95-14.94 9.03-15.03l-.34-.31c-.34.38-8.34 9.34-9.15 15.28zm-16.33-7.06.46-.04c-.69-8.2 6.18-17.24 6.25-17.33l-.36-.28c-.08.1-7.05 9.27-6.35 17.65zm4.32.72.46-.08c-1.14-6.58 6.63-15.93 6.7-16.02l-.34-.3c-.33.4-7.99 9.6-6.82 16.4zm6.64 2.42.46-.01c-.23-7.51 6.98-15.03 7.05-15.11l-.33-.32c-.07.07-7.41 7.74-7.18 15.44zm-15.84 13.6.43-.16c-2.62-6.94 1.93-15.82 1.97-15.9l-.41-.22c-.05.1-4.68 9.15-1.99 16.28zm3.02.45.44-.14c-2.28-7.07 1.58-16.54 1.62-16.63l-.42-.18c-.04.1-3.97 9.73-1.64 16.95zm12.5 7.06.16.43c7.44-2.67 12.3-9.46 12.35-9.52l-.38-.27c-.04.07-4.82 6.74-12.13 9.36zm-1.53-1.62.19.42c5.93-2.68 11.46-10.14 11.52-10.22l-.37-.27c-.06.07-5.52 7.44-11.34 10.07zm-1.44-.56.27.37c4.64-3.36 10.6-11.98 10.67-12.07l-.38-.25c-.06.08-5.98 8.63-10.56 11.95zm-7.44-4.33.46-.07c-1.03-7.41 3.77-16.2 3.82-16.3l-.4-.21c-.05.09-4.93 9.01-3.88 16.58zm3.23 2.01.31.34c4.79-4.32 6.42-15.97 6.48-16.46l-.45-.07c-.02.12-1.67 11.98-6.34 16.19z"/><path d="m950.27 406.91.27.37c6.76-4.89 8.59-14.27 8.6-14.36l-.44-.09c-.02.1-1.82 9.3-8.43 14.08zm.78-20.23c0 .44.02.88.06 1.32 0-.04-5.12 16.58-5.12 16.58l.43.14 5.14-16.68c-.79-8.06 6.3-16.86 6.37-16.94l-.35-.3c-.08.09-6.53 8.1-6.53 15.88z"/><path d="M956.41 390.74c-.07.23-1.63 11.62-7.77 15.82l.26.38c6.32-4.32 7.85-15.55 7.91-16.02 2.73-3.24 9-14.62 9.07-14.73l-.4-.22c-.07.11-6.32 11.45-9.07 14.77zm-18.13 12.44c.05.24 1.07 5.9 2.25 7.9l.4-.24c-1.14-1.93-2.18-7.68-2.2-7.74l-.45.08zm2.91.07c.05 2.82.06 7.44-.1 7.85l.43.16c.24-.59.15-6.78.13-8.01h-.46z"/><path d="m941.45 411.32.42.19a36.76 36.76 0 0 0 2.58-7.28l-.45-.09c0 .02-.6 2.94-2.55 7.18z"/><path d="m941.89 411.45.23.4a9.9 9.9 0 0 0 4.54-5.98l-.45-.1c0 .04-.84 3.66-4.32 5.68zm.68.32.05.46c3.58-.36 6.02-4.72 6.13-4.9l-.4-.22c-.03.04-2.44 4.32-5.78 4.66z"/><path d="m942.93 412 .03.46c5.75-.36 8.34-3.8 8.45-3.94l-.38-.27c-.02.03-2.57 3.41-8.1 3.75z"/><path d="m943.34 412.12-.1.45c.32.07 7.65 1.62 10.16-2.2l-.39-.25c-2.33 3.56-9.6 2.01-9.67 2z"/><path fill="none" stroke="#000" stroke-width="4.2" d="M778.8 143.94v205.09c0 67.08 121.2 106.91 121.2 106.91s121.2-39.83 121.2-106.91V143.94z"/></g></svg>