<svg viewBox="0 0 1200 600" xmlns="http://www.w3.org/2000/svg" xmlns:xlink="http://www.w3.org/1999/xlink"><g fill="#012169"><path d="M0 0h1200v600H0z"/><path d="M0 300h600V0h600v600H0z"/><path d="M0 0h600v300H0z"/></g><path d="M0 0v33.54L532.92 300H600v-33.54L67.08 0zm600 0v33.54L67.08 300H0v-33.54L532.92 0z" fill="#fff"/><path d="M250 0v300h100V0zM0 100v100h600V100z" fill="#fff"/><path d="M0 120v60h600v-60zM270 0v300h60V0zM0 300l200-100h44.72l-200 100zM0 0l200 100h-44.72L0 22.36zm355.28 100 200-100H600L400 100zM600 300 400 200h44.72L600 277.64z" fill="#c8102e"/><path d="M998.1 481.75c-6.1-.97-11.38-3.72-17.28-9.84l-2.96-2.9-3.57 1.25c-18.61 6.27-40.54 10.62-66.67 11.05-33.92.57-63.05-4.42-80.1-11.84l-5.35-2.05-2.81 2.9c-6.17 6.66-12.37 10.03-19.43 10.57-6.73.5-15.93-2.83-20.56-7.47-1.9-1.9-2.22-2.56-3.12-6.5-.83-3.7-2.89-9.16-4.35-11.57-.66-1.1-2.2-3.2-3.42-4.7-5.95-7.29-6.15-7.74-4.39-10.5a14.13 14.13 0 0 1 10.05-6.52c1.34-.19 2.5-.41 2.59-.5.09-.08-.49-1.18-1.28-2.43-2.08-3.3-3.45-6.12-3.1-6.41.16-.14 1.92-1.4 3.9-2.81 7.76-5.5 9.82-8.7 12.66-19.72.86-3.33 1.94-6.7 2.4-7.47 1.91-3.2 5.74-5.05 11.01-5.34 4.06-.23 6.13.21 10.5 2.26 8.63 4.03 17.5 11.39 24.83 20.6l3.16 3.97-.22 3.43c-.7 11.02-1.65 17.1-3.53 22.68-.7 2.07-1 3.47-.8 3.68.5.48 10.48 3.52 15.59 4.74 7.89 1.9 17.55 3.38 28.49 4.38 6.85.63 32.7.63 39.2 0 10.5-1.01 22.61-3.06 30.36-5.14 6.44-1.72 13.73-4.12 13.73-4.52 0-.24-.23-.99-.51-1.67-1.63-3.9-2.95-11.9-3.42-20.73l-.32-6.1 2.92-3.62a101.8 101.8 0 0 1 13.57-13.58c4.03-3.18 9.73-6.64 13.24-8.01 6.88-2.71 15.98-1.2 19.06 3.17.55.78 2.02 4.26 3.29 7.74 4.08 11.26 5.82 13.7 13.34 18.74 1.54 1.03 2.8 2.13 2.8 2.43 0 .3-1.14 2.8-2.53 5.54a87.36 87.36 0 0 0-2.53 5.22c0 .12.7.23 1.56.23 4.65 0 10.44 3.6 12.4 7.73.77 1.6.5 2.58-1.4 5.02l-3.83 4.94a37.78 37.78 0 0 0-6.75 13.39c-2.08 7.15-2.18 7.36-4.56 9.56-2.5 2.32-8.12 5.2-11.9 6.1-2.98.72-7.56 1-9.96.62z" fill="#500" stroke="#500" stroke-width="1.32"/><path d="m987.01 436.64 10.92-9.88c-.05-4.72-2.76-8.62-6.48-10.05-3.27-1.26-6.41-1.33-10.16 2.75.4 7.44 1.7 11.22 5.72 17.18z" fill="none" stroke="#520" stroke-width=".16"/><path d="m999.72 451.52 3.44 5.25 2.32.41c-.42 3.5 1.57 8.64 1.57 8.64s-13.57 7.53-20.46 11.2c-3.59-2.62-6.92-6.23-10.05-10.84l-3.4-5.43c3.36-1.22 6.57-2.38 6.87-2.5l15.5-6.14z" fill="#951b1d"/><path d="M1003.57 456.84c9.13 1.7 19.2 2.53 19.84 12.04.35 7.17-13.11 12.71-21.52 13.23-7.13.45-13.65-3.21-19.49-8.88 6.66-3.33 20.27-7.96 21.16-16.39z" fill="#e2a950"/><path d="M1023.4 468.88c.34 7.17-13.1 13.28-21.52 13.24-9.98-.05-18.18-5.39-25.35-15.94l-10.85-17.33c-5.23-8.32-6.03-20.83-6.35-32.1 6.28-8.4 13.43-16.43 24.44-22.8 5.57-3.16 11.3-5.95 19.55-2.9 5.42 1.9 6.73 5.87 7.43 10.13-.5 17.55-1.76 34.92-11.05 50.34l3.44 5.25c9.24 1.75 19.61 2.46 20.26 12.1z" fill="none" stroke="#520" stroke-width=".16"/><path d="M983 428.9a25.33 25.33 0 0 0 3.19 6.46c-6.22 4.75-13.67 8.26-21.81 11.08l-.18-.37a32.04 32.04 0 0 1-.86-2l-.37-.94-.3-.87a40.04 40.04 0 0 1-.37-1.17l-.11-.4c7.15-4.1 13.74-7.64 20.81-11.79z" fill="#c98c26"/><path d="M1013.9 458.96c5.14 1.5 9.12 4.06 9.51 9.92.35 7.17-13.1 13.28-21.52 13.23a25.21 25.21 0 0 1-11.08-2.56c.32-.16 9.34-2 13.27-4.53 2.87-1.84 6.02-5.89 7.04-7.42 1.03-1.54 1.54-5.64 2.56-8.2a2.89 2.89 0 0 1 .22-.44z" fill="#ab1e2b"/><path d="M1013.9 458.96a25.13 25.13 0 0 1 2.52.87c-.12 2.25 1.35 4.15 1.13 6.26-.18 1.78-1 3.5-2 4.98a18.74 18.74 0 0 1-5.33 5.25c-2.34 1.52-5.1 2.32-7.79 3.08-2.74.77-4.33.75-8.42 1.45a25.23 25.23 0 0 1-3.2-1.3c1.68-.94 4.65-1.24 6.28-1.96 1.63-.73 3.9-1.54 5.8-2.63a25.17 25.17 0 0 0 3.98-2.8c.36-.36 3.35-3.8 3.62-4.26.27-.45 2.8-6.58 3.41-8.94z" fill="#c47645"/><path d="M980.72 395.82a79.58 79.58 0 0 1 .28 7.2v2.4l-.02 4v3.47c.01.91.02 1.83.05 2.73 0 .46.02.91.04 1.37.04.85.09 1.7.16 2.55v.02s-.11 6.21 1.02 9.37c.97 2.73 3.94 6.43 3.94 6.43l-13.81 7.68-8 3.4-.13-.26c-2.89-7.87-4.65-20.45-4.91-29.43 5.68-7.6 12.07-14.89 21.38-20.93z" fill="#ca6b5b"/><path d="M980.9 407.1c0 1.45.08 7.3.13 8.72a73.28 73.28 0 0 0 .2 3.72v.02c.3 3.74.97 7.36 2.3 10.72l-21.29 10.6-.01-.06-.04-.13a47.54 47.54 0 0 1-.46-1.68l-.01-.05-.08-.3c-.16-.66-.3-1.32-.45-2a.07.07 0 0 0 0-.02v-.02c-.09-.38-.15-.77-.22-1.15a70.04 70.04 0 0 1-.7-4.65 91.52 91.52 0 0 1-.11-.96 95.91 95.91 0 0 1-.23-2.2v-.07l-.01-.09c-.13-1.48-.24-2.98-.32-4.47z" fill="#e2b269"/><path d="M981.04 416.33a50 50 0 0 0 1.25 10.14c-6.04 2.85-17.17 8.28-21.1 10.16l-.25-1.3a70.31 70.31 0 0 1-.38-2.3l-.14-.93v-.04l-.03-.18a93.4 93.4 0 0 1-.46-4.17l-.03-.36z" fill="#f2d196"/><path d="M985.26 433.85c.3.5.59 1.02.93 1.51-6.22 4.75-13.67 8.27-21.82 11.09a31 31 0 0 1-.93-2.11z" fill="#951b1d"/><path d="M980.72 395.82c1.2 13.4-2.18 28.5 5.47 39.54-6.22 4.75-13.68 8.26-21.82 11.08-4.04-8.2-4.74-19.46-5.03-29.7 5.67-7.59 12.07-14.88 21.38-20.92z" fill="none" stroke="#520" stroke-width=".16"/><path d="M998.5 425.01a59.32 59.32 0 0 0 4.06-4.76c3.53-4.59 6.14-9.47 7.42-13.85.44-1.54.59-2.42.64-3.94.04-1.3.04-1.33-.16-2.3-.6-3.05-1.51-4.98-3.04-6.5-1.26-1.26-2.58-2-4.9-2.78-2.3-.77-4.3-1.08-6.56-1.01-3.56.1-6.63 1.11-11.37 3.74a64.9 64.9 0 0 0-3.64 2.2c-.11.08-.12.14-.07.7.19 2.02.22 3.64.22 11.62 0 5.97.03 8.63.1 9.6.04.74.09 1.38.1 1.44.03.06.24-.11.66-.52a10.2 10.2 0 0 1 2.73-2.02c2.03-1.02 4.12-1.03 6.7-.05a10.3 10.3 0 0 1 5.9 6.13 12.95 12.95 0 0 1 .68 2.72c.03.05.2-.1.53-.42z" fill="#faecbd"/><g stroke="#000"><path d="M982.2 418.37a9.38 9.38 0 0 1 4.23-2.4c.5-.1.52-.11.52-.38l.6-11.95c.33-6.41.57-11.68.54-11.71-.12-.12-4.82 2.4-6.58 3.55-.7.45-.67.33-.53 1.72.05.5.13 5.49.18 11.09.04 5.6.1 10.32.14 10.48.03.16.09.29.12.29s.38-.31.78-.69z" fill="#ae4c33" stroke-width=".01"/><path d="m991.7 416.57 1.8-13.32c1-7.29 1.78-13.27 1.74-13.3-.11-.12-2.35.25-3.41.55-.6.18-1.68.55-2.4.83l-1.31.51v.83c0 .87-.96 20.67-1.08 22.29l-.07.92.44-.08c.61-.1 2.32.17 3.4.54.49.17.9.27.9.23z" fill="#dba35a" stroke-width=".02"/><path d="M999.47 423.86c4.14-4.66 7.14-9.2 9.12-13.82 1.85-4.32 2.36-7.66 1.62-10.69-1.15-4.74-3.25-7-7.9-8.49a18.66 18.66 0 0 0-6.92-.91 557 557 0 0 0-1.43 10.3 8734.61 8734.61 0 0 1-1.79 13.32l-.41 3.07.77.42a10.66 10.66 0 0 1 5.26 7.23c.12.55.26 1 .31 1 .06 0 .67-.65 1.37-1.43z" fill="#e9be79" stroke-width=".02"/></g><path d="m988.32 432.11 5.46-4.15 2.62-2.32s1.34-.76 1.19-1.39c-.86-3.6-3.18-6.38-6.32-7.56-3.47-1.3-6.2-.75-8.95 1.85l-1.03.96.15 1.4c.53 5.27 1.58 9.28 3.82 12.95.35.58 1.36-.52 1.41-.52.06 0 1.64-1.22 1.64-1.22z" fill="#012169" stroke="#500" stroke-width=".99"/><path d="m813.01 435.62-10.92-9.88c.05-4.72 2.76-8.62 6.48-10.05 3.27-1.26 6.41-1.34 10.16 2.74-.4 7.45-1.69 11.23-5.72 17.19z" fill="none" stroke="#520" stroke-width=".16"/><path d="m800.3 450.5-3.43 5.24c-.77.15-1.55.28-2.32.42.41 3.5-1.58 8.64-1.58 8.64s13.57 7.53 20.46 11.2c3.59-2.62 6.92-6.23 10.05-10.84l3.4-5.43c-3.36-1.22-6.57-2.38-6.87-2.5l-15.5-6.15z" fill="#951b1d"/><path d="M796.46 455.82c-9.14 1.7-19.21 2.53-19.85 12.03-.34 7.18 13.12 12.72 21.52 13.24 7.13.44 13.66-3.21 19.5-8.88-6.66-3.34-20.28-7.96-21.17-16.4z" fill="#e2a950"/><path d="M776.61 467.86c-.34 7.17 13.1 13.27 21.52 13.23 9.98-.05 18.18-5.38 25.35-15.93l10.85-17.34c5.23-8.32 6.03-20.83 6.35-32.09-6.28-8.4-13.43-16.44-24.44-22.81-5.57-3.15-11.3-5.95-19.55-2.9-5.42 1.9-6.73 5.87-7.43 10.14.5 17.55 1.76 34.92 11.05 50.33l-3.44 5.25c-9.24 1.75-19.61 2.47-20.26 12.11z" fill="none" stroke="#520" stroke-width=".16"/><path d="M817.02 427.88a25.38 25.38 0 0 1-3.19 6.46c6.22 4.75 13.67 8.26 21.82 11.08l.17-.37c.31-.65.6-1.32.86-2l.37-.94.3-.87.37-1.18.12-.4c-7.16-4.1-13.75-7.64-20.82-11.78z" fill="#c98c26"/><path d="M789.26 400.16c-2.58 16.13-10.12 19.84-17.38 24.26 0 0 23 56.8 128.55 56.13 89.79 0 118.38-34.52 127.47-57.58-15.17-8.32-13.82-15.38-17.38-22.81 3.33 14.89-28.89 55.33-109.72 55.4-94.5.1-112.81-46.95-111.53-55.4z" fill="#eed3a6" stroke="#520" stroke-width=".16"/><path d="m1013.2 407.38-.51.94c-6.27 12.9-13.02 18.09-21.8 24.66-10.83 8.1-23.88 13-36.72 17.2-8.77 2.86-18 4.25-27.16 5.32a264.17 264.17 0 0 1-39.95 1.49 181.46 181.46 0 0 1-26.43-2.91 173 173 0 0 1-21.9-5.74c-5.93-1.93-11.85-4-17.42-6.79-6.3-3.16-17.95-11.21-17.95-11.21l-10.37-11.27-5.85-10.64c-3.48 9.35-9.46 12.45-15.27 15.99 0 0 23 56.79 128.55 56.12 89.8 0 118.38-34.51 127.46-57.57-10.2-5.6-12.9-10.63-14.69-15.59z" fill="#e6ba74"/><path d="M787.15 408.44c-3.48 9.34-9.46 12.44-15.27 15.98 0 0 7.66 18.8 34.22 34.63-.35-3.34-2.09-18.14-2.09-18.72 0-.64 0-9.48-.77-9.99-.77-.51-9.98-10.5-10.37-11.27-.27-.53-3.61-6.68-5.72-10.64z" fill="#e2a950"/><path d="M1018.6 416.85c2.74 2.55 5.81 4.28 8.84 6.12 0 0-1.27 6.2-7.24 13.52-.6-1.23-1.97-3.17-1.97-3.37 0-.64-1.15-5-1.15-6.15s.25-6.53.25-7.68c0-.3.52-1.23 1.27-2.44z" fill="#c98c26"/><path d="M789.26 400.16c-2.58 16.13-10.12 19.84-17.38 24.26 0 0 23 56.8 128.55 56.13 89.79 0 118.38-34.52 127.47-57.58-15.17-8.32-13.82-15.38-17.38-22.81 3.33 14.89-28.89 55.33-109.72 55.4-94.5.1-112.81-46.95-111.53-55.4z" fill="none" stroke="#520" stroke-width=".16"/><path d="M786.12 457.94c-5.13 1.5-9.12 4.06-9.51 9.91-.34 7.18 13.1 13.28 21.52 13.24 3.96-.02 7.64-.88 11.09-2.56-.33-.16-9.34-2-13.28-4.53-2.87-1.84-6.02-5.89-7.04-7.42s-1.53-5.64-2.56-8.2a2.89 2.89 0 0 0-.22-.44z" fill="#ab1e2b"/><path d="M786.12 457.94c-.88.26-1.72.54-2.52.87.12 2.25-1.34 4.15-1.13 6.26.18 1.78 1 3.49 2 4.98a18.73 18.73 0 0 0 5.33 5.25c2.34 1.52 5.1 2.32 7.79 3.08 2.74.77 4.33.75 8.42 1.45 1.1-.36 2.16-.8 3.2-1.3-1.68-.94-4.65-1.24-6.28-1.96-1.63-.73-3.9-1.54-5.8-2.63a25.2 25.2 0 0 1-3.98-2.8c-.36-.37-3.34-3.8-3.62-4.26a84.42 84.42 0 0 1-3.41-8.94z" fill="#c47645"/><path d="M819.3 394.8a80.54 80.54 0 0 0-.19 2.93 108.47 108.47 0 0 0-.09 4.26v2.4l.02 4v3.48l-.04 2.73-.04 1.36a68.94 68.94 0 0 1-.16 2.56v.02s.1 6.21-1.03 9.37c-.97 2.73-3.94 6.43-3.94 6.43l13.81 7.67 8 3.41.13-.26c2.9-7.87 4.66-20.45 4.91-29.43-5.67-7.6-12.07-14.89-21.38-20.93z" fill="#ca6b5b"/><path d="M819.12 406.09c0 1.44-.08 7.29-.13 8.7a73.84 73.84 0 0 1-.2 3.73v.02c-.3 3.74-.96 7.35-2.3 10.72l21.29 10.6.02-.06.03-.13c.17-.56.32-1.12.46-1.69l.02-.04.07-.3c.16-.66.31-1.32.45-2v-.02l.01-.03c.08-.37.14-.76.21-1.14a70.04 70.04 0 0 0 .7-4.65l.12-.96a95.91 95.91 0 0 0 .22-2.2v-.01l.01-.07v-.08c.14-1.48.24-2.98.32-4.47z" fill="#e2b269"/><path d="M818.99 415.3c-.13 3.5-.46 6.9-1.26 10.15 6.04 2.84 17.17 8.28 21.1 10.16.1-.43.17-.87.25-1.31.14-.76.27-1.52.38-2.3l.14-.92v-.04l.03-.18c.18-1.38.33-2.77.46-4.17l.03-.36z" fill="#f2d196"/><path d="M780.9 418.43c-2.74 2.54-5.81 4.27-8.84 6.11 0 0 2.16 5.3 8.14 12.63a15.83 15.83 0 0 0 1.07-2.48c0-.64 1.16-5 1.16-6.15 0-1.15-.26-6.52-.26-7.68 0-.29-.51-1.22-1.27-2.43z" fill="#c98c26"/><path d="m787.87 471.69-4.95-14.6 8.87 4.98 1.18 2.72-.27 2.53-.55 1.72-1.27 1.36z" fill="#f9e7d9" stroke="#500" stroke-width=".16"/><path d="M763.3 441.23c-1.04 1.62-.22 2.32 0 3.32 0 0 6.87 7.45 9.28 11.85 1.94 3.55 4.03 11.46 4.03 11.46-.59-2.85 4.66-7.39 8.45-7.69 2.95-.23 6.86 1.96 7.43 4.87a5.9 5.9 0 0 1-4.61 6.66c8.95-2.03 4.48-10.68 2.81-14.66 0 0-2.6-4.54-3.45-6.99-1.68-4.82-3.2-14.97-3.2-14.97-10.84-4.11-16.63-.3-20.75 6.15z" fill="#e6ba74"/><path d="M775.25 433.38c-4.03.17-7.05 1.92-9.5 4.6a1454.5 1454.5 0 0 0 10.66 17.95L768.8 438c2.9-3.22 6.59-3.73 10.86-2.17l-.25-2.08c-1.5-.29-2.88-.42-4.16-.37z" fill="#f9e7d9"/><path d="M780.13 433.88c1.12 7.78 2.91 21.04 3.65 26.54a6.65 6.65 0 0 1 1.28-.25c2.95-.23 6.86 1.96 7.42 4.87a5.91 5.91 0 0 1-3.68 6.38c7.66-2.41 3.5-10.55 1.9-14.39 0 0-2.6-4.53-3.46-6.98-1.68-4.82-3.2-14.97-3.2-14.97a29.25 29.25 0 0 0-3.9-1.2zm8.67 37.54c-.3.1-.59.2-.92.28a7 7 0 0 0 .92-.28z" fill="#c47645"/><path d="m781.06 434.13 5.68 26.17c2.58.48 5.28 2.36 5.74 4.74a5.91 5.91 0 0 1-3.68 6.38c7.66-2.41 3.5-10.55 1.9-14.39 0 0-2.6-4.53-3.46-6.98-1.68-4.82-3.2-14.97-3.2-14.97a29.98 29.98 0 0 0-2.98-.95z" fill="#ab1e2b"/><path transform="matrix(1.5221 0 0 1.5916 -108.47 -631.05)" d="M572.74 673.71c-.68 1.03-.14 1.47 0 2.1 0 0 4.51 4.67 6.1 7.44 1.28 2.23 2.65 7.2 2.65 7.2-.4-1.8 3.05-4.64 5.55-4.83 1.94-.15 4.5 1.23 4.88 3.06.34 1.66-.86 3.76-3.03 4.18 5.88-1.27 2.94-6.7 1.85-9.21 0 0-1.71-2.85-2.27-4.4-1.1-3.02-2.1-9.4-2.1-9.4-7.12-2.58-10.93-.19-13.63 3.86z" fill="none" stroke="#520" stroke-width=".1"/><path d="M814.77 432.82c-.3.51-.6 1.02-.94 1.52 6.22 4.75 13.67 8.26 21.82 11.09.33-.69.64-1.4.93-2.11z" fill="#951b1d"/><path d="M819.3 394.8c-1.2 13.4 2.18 28.5-5.47 39.54 6.22 4.75 13.67 8.26 21.82 11.08 4.04-8.2 4.74-19.46 5.03-29.7-5.67-7.59-12.07-14.88-21.38-20.92z" fill="none" stroke="#520" stroke-width=".16"/><path d="M996.54 430.92c-37.44 26.4-123.88 41.54-183.52 4.7l.29 27.42c19.5 9.9 47.5 17.76 87.13 17.5 46.36 0 76.37-9.2 95.84-21.28z" fill="#faecbd"/><path d="M812.5 448.46q-1.81 3.14-4.9 3.84-3.01.68-6.15-1.13l-3.6-2.1q1.42-1.35 2.99-4.05l2.94-5.09q1.42-2.46 2.21-4.96l1.42.84q9.23 5.49 5.1 12.65zm-2.26-1.38q1.51-2.62.78-5.09-.71-2.37-3.3-3.94l-6.37 11.04q6.02 2.95 8.89-2zm12.49 11.48-2.54 2.35-7.76-3.6q1.27-1.44 2.76-4.73l2.34-5.19q1.11-2.45 1.62-4.94l8.06 3.75-2.2 1.87q-1.14-1.48-2.79-2.25-.2-.1-1.05-.45l-2.18 4.82 4.79 2.23-2.44 1.76q-1.05-1.31-3.08-2.38l-2.34 5.17q2.7 1.03 3.35 1.2 1.7.49 3.46.39zm11.09 2.87q-.8 2.14-2.88 2.75-1.87.52-4.04-.3-1.4-.54-2.56-1.8l1.1-2.95q.36 1.19.78 1.8.56.8 1.52 1.16 1.06.4 2.07.04 1.06-.37 1.45-1.42.41-1.1-.6-2.78l-1.92-3.06q-.93-1.92-.3-3.6.72-1.96 2.6-2.57 1.73-.57 3.7.19 1.33.5 2.46 1.58l-1.01 2.73q-.58-1.17-.85-1.52-.52-.65-1.4-1-.93-.34-1.73-.03-.84.32-1.18 1.24-.39 1.04.63 2.7l1.9 3.1q.92 1.97.26 3.74zm5.89 6.7-3.41-1.11q1.17-1.89 1.8-3.83l2.2-6.96q.83-2.62.94-4.77l3.4 1.12q-1.15 1.8-1.99 4.42l-2.17 6.85q-.65 2.05-.77 4.28zm16.24 4.65-2.81-.78q-2.1-3.3-4.06-8.8l-.58 2.2q-.71 2.67-.79 5.12l-3.45-.95q.99-1.57 1.78-4.54l1.77-6.64q.53-2 .65-4.6l1.71.47q3.27.9 4.7 2 2.25 1.73 1.5 4.57-.73 2.72-4.11 3.21 1.25 4.2 3.7 8.73zm-2.17-12.53q.76-2.85-2.8-4.13l-1.71 6.38q1.6.26 2.74-.2 1.37-.55 1.77-2.05zM869 472.31l-1.97 2.86-8.34-1.81q.92-1.68 1.67-5.22l1.18-5.58q.56-2.63.52-5.18l8.67 1.88-1.75 2.32q-1.42-1.2-3.2-1.59-.22-.05-1.12-.2l-1.1 5.18 5.15 1.12-2 2.26q-1.3-1.06-3.52-1.65l-1.17 5.56q2.86.41 3.52.44 1.77.1 3.46-.39zm24.3-12.08-.94 2.75q-1.28-.64-2.2-.84-.74-.17-2.34-.24l-.34 9.65q-.13 3.77.38 5.8l-3.8-.14q.66-1.79.8-5.86l.35-9.55q-1.86.05-2.76.14-1.5.16-2.7.56l1.03-2.75zm16.58 16.98-3.8.1q.54-2.08.5-3.45l-.11-4.33-7.3.19.06 2.21q.07 2.9.74 5.54l-3.8.1q.53-2.07.45-5.09l-.18-6.83q-.08-3.1-.72-5.4l3.8-.1q-.54 2.37-.49 4.22l.08 3.2 7.3-.19-.06-2.25q-.07-2.6-.72-5.14l3.8-.1q-.54 2.25-.47 5.02l.17 6.43q.1 3.52.75 5.87zm15.26-4.57-1.14 3.5-9.02.73q.44-1.99.14-5.81l-.48-6.04q-.23-2.84-1.03-5.42l9.37-.75-1.08 2.89q-1.8-.78-3.73-.63l-1.2.13.44 5.6 5.57-.44-1.36 2.91q-1.63-.67-4.06-.59l.48 6.01q3.03-.46 3.7-.64 1.83-.44 3.4-1.45zm26.31-1.11-2.95.63q-3.47-2.05-7.83-6.2l.48 2.3q.59 2.82 1.66 5.1l-3.63.78q.18-1.92-.47-5.03l-1.45-6.98q-.44-2.1-1.53-4.55l1.8-.38q3.42-.73 5.26-.4 2.87.53 3.49 3.51.6 2.86-2.29 4.92 3.1 3.27 7.46 6.3zM943.64 461q-.63-3-4.51-2.48l1.4 6.7q1.6-.52 2.43-1.49 1-1.16.68-2.73zm14.05 8.75-3.58.97q-.03-2.3-.57-4.35l-1.95-7.3q-.74-2.76-1.84-4.69l3.58-.97q0 2.23.73 4.98l1.91 7.2q.58 2.15 1.72 4.16zm15.22-13.92q.04 1.37.27 2.33.14.6.72 2.28.6 1.74 1.22 2.76-2.56 1.96-5.15 2.87-3.67 1.3-6.61.01-3.06-1.34-4.33-5.03-1.32-3.8.29-7.04 1.58-3.2 5.32-4.52 1.84-.65 4.23-.77l.95 2.76q-2.59-.74-5 .11-2.55.9-3.41 3.36-.8 2.28.13 4.95.92 2.68 2.8 3.91 2.05 1.36 4.61.46 1.3-.46 2.94-1.8l-.71-2.07q-.67-1.93-1.77-3.34zm19.04.27-3.33 1.64q-.36-2.07-.93-3.27l-1.83-3.8-6.4 3.15.92 1.94q1.22 2.54 2.86 4.62l-3.33 1.64q-.35-2.04-1.62-4.7l-2.88-6q-1.3-2.73-2.8-4.53l3.34-1.64q.47 2.34 1.25 3.96l1.34 2.81 6.42-3.15-.95-1.98q-1.1-2.28-2.68-4.28l3.33-1.64q.42 2.22 1.58 4.65l2.71 5.66q1.48 3.1 3 4.92zm5.14-23.29.79 2.74q-1.38.22-2.23.58-.68.3-2 1.14l5.1 7.91q1.98 3.1 3.51 4.42l-3.1 2.05q-.47-1.8-2.61-5.13l-5.03-7.83q-1.46 1.1-2.13 1.69-1.1.98-1.83 1.98l-.71-2.78z" font-family="Narkisim" font-size="13.55" font-weight="400" letter-spacing=".93" text-anchor="middle" word-spacing="4.56" aria-label="DESIRE THE RIGHT"/><path d="M801.53 423.99a58.91 58.91 0 0 1-4.07-4.76c-3.53-4.59-6.14-9.47-7.41-13.86a13.73 13.73 0 0 1-.64-3.93 6.88 6.88 0 0 1 .15-2.3c.61-3.05 1.52-4.98 3.04-6.5 1.27-1.26 2.59-2.01 4.9-2.78 2.3-.77 4.3-1.08 6.56-1.01 3.57.1 6.63 1.1 11.37 3.74 1.15.64 3.36 1.97 3.64 2.2.11.08.12.14.07.7-.19 2.01-.22 3.63-.22 11.61 0 5.98-.03 8.63-.09 9.6-.04.75-.1 1.4-.11 1.44-.02.07-.24-.1-.66-.51a10.16 10.16 0 0 0-2.73-2.03c-2.03-1.01-4.12-1.03-6.7-.04a10.3 10.3 0 0 0-5.9 6.12c-.26.7-.52 1.7-.59 2.27-.02.2-.06.41-.09.45-.02.06-.2-.09-.52-.41z" fill="#faecbd"/><g stroke="#000"><path d="M817.82 417.35a9.36 9.36 0 0 0-4.23-2.4c-.5-.1-.52-.11-.52-.39l-.6-11.94c-.32-6.41-.57-11.69-.54-11.71.12-.13 4.82 2.4 6.59 3.55.7.45.66.33.52 1.72-.05.5-.13 5.48-.17 11.09-.05 5.6-.11 10.31-.15 10.47-.03.17-.08.3-.11.3-.04 0-.39-.32-.79-.69z" fill="#ae4c33" stroke-width=".01"/><path d="m808.32 415.55-1.8-13.33a716.57 716.57 0 0 1-1.74-13.3c.11-.11 2.35.25 3.41.56.6.17 1.68.54 2.4.83l1.32.51v.83c0 .86.96 20.66 1.08 22.28l.06.92-.44-.07a10 10 0 0 0-3.39.54c-.5.17-.9.27-.9.23z" fill="#dba35a" stroke-width=".02"/><path d="M800.55 422.84c-4.14-4.66-7.14-9.2-9.12-13.82-1.85-4.32-2.36-7.66-1.62-10.7 1.15-4.74 3.25-7 7.9-8.48a18.67 18.67 0 0 1 6.93-.91 557 557 0 0 1 1.42 10.3l1.79 13.32.42 3.07-.78.42a10.66 10.66 0 0 0-5.26 7.23c-.12.55-.26 1-.31 1-.05 0-.67-.65-1.36-1.43z" fill="#e9be79" stroke-width=".02"/></g><path d="M812.16 433.24a74.48 74.48 0 0 1-8.66-7.2 8.66 8.66 0 0 1-1.45-1.6c.06-.04.24-.59.39-1.21.85-3.6 3.17-6.38 6.31-7.57 3.47-1.3 6.2-.74 8.96 1.85l1.02.97-.14 1.4c-.53 5.27-1.9 9.68-4.14 13.35a5.37 5.37 0 0 1-.74 1.06c-.06 0-.75-.47-1.55-1.05zm-21.61 23.4a57.8 57.8 0 0 1-3.4-7.1 57.5 57.5 0 0 1-1.41-5.52l-.1-.58 1.25 1.2c3.03 2.89 7.07 6.3 9.89 8.32.65.47 1.18.9 1.18.95 0 .08-.86 1.44-1.1 1.74-.02.03-1.3.27-2.83.54s-2.9.52-3.06.56c-.15.04-.34-.01-.42-.11z" fill="#012169" stroke="#500" stroke-width=".99"/><path d="m1012.15 472.74 4.95-14.6-8.87 4.98-1.18 2.72.27 2.53.55 1.72 1.26 1.36z" fill="#f9e7d9" stroke="#500" stroke-width=".16"/><path d="M1036.73 442.27c1.04 1.63.21 2.33 0 3.33 0 0-6.87 7.44-9.28 11.84-1.95 3.55-4.04 11.46-4.04 11.46.6-2.84-4.65-7.38-8.45-7.68-2.95-.24-6.86 1.96-7.42 4.86a5.9 5.9 0 0 0 4.6 6.66c-8.95-2.02-4.47-10.67-2.8-14.66 0 0 2.6-4.53 3.45-6.99 1.68-4.82 3.2-14.97 3.2-14.97 10.83-4.1 16.62-.3 20.74 6.15z" fill="#e6ba74"/><path d="M1024.77 434.43c4.03.16 7.05 1.92 9.5 4.59-4.16 7.18-10.66 17.95-10.66 17.95l7.61-17.93c-2.9-3.21-6.59-3.73-10.86-2.17l.25-2.08c1.5-.28 2.88-.41 4.16-.36z" fill="#f9e7d9"/><path d="M1019.89 434.93c-1.12 7.78-2.9 21.03-3.65 26.54a6.61 6.61 0 0 0-1.28-.25c-2.95-.24-6.86 1.96-7.42 4.86a5.91 5.91 0 0 0 3.69 6.39c-7.67-2.42-3.5-10.55-1.9-14.39 0 0 2.6-4.53 3.46-6.99 1.67-4.82 3.2-14.97 3.2-14.97a29.25 29.25 0 0 1 3.9-1.19zm-8.66 37.54c.3.09.58.2.92.27a5.7 5.7 0 0 1-.92-.27z" fill="#c47645"/><path d="m1018.96 435.18-5.68 26.17c-2.58.48-5.28 2.36-5.74 4.73a5.91 5.91 0 0 0 3.69 6.39c-7.67-2.42-3.5-10.55-1.9-14.39 0 0 2.6-4.53 3.46-6.99 1.67-4.82 3.2-14.97 3.2-14.97a29.98 29.98 0 0 1 2.97-.94z" fill="#ab1e2b"/><path transform="matrix(-1.5221 0 0 1.5916 1908.5 -630.01)" d="M572.74 673.71c-.68 1.03-.14 1.47 0 2.1 0 0 4.51 4.67 6.1 7.44 1.28 2.23 2.65 7.2 2.65 7.2-.4-1.8 3.05-4.64 5.55-4.83 1.94-.15 4.5 1.23 4.88 3.06.34 1.66-.86 3.76-3.03 4.18 5.88-1.27 2.94-6.7 1.85-9.21 0 0-1.71-2.85-2.27-4.4-1.1-3.02-2.1-9.4-2.1-9.4-7.12-2.58-10.93-.19-13.63 3.86z" fill="none" stroke="#520" stroke-width=".1"/><path d="M1009.33 457.74c.41-.54 2.68-5.63 3.05-6.86.43-1.42 1.44-4.18 1.6-5.21l.09-.56-1.13 1.16a99.99 99.99 0 0 1-9.17 8.23c-.59.45-1.07.87-1.07.92 0 .08.71 1.08.93 1.37.02.02 1.17.26 2.55.52s2.63.5 2.76.54c.14.03.31-.02.39-.11z" fill="#012169" stroke="#500" stroke-width=".92"/><path d="M899.03 441.72S771.6 409.35 772.35 286.21l.98-162.78h251.41l.99 161.84c.74 123.14-126.7 156.45-126.7 156.45z" fill="#2a7fff" fill-rule="evenodd" font-size="12"/><path d="M859.96 271.5c-1.1-.33-1.65-.83-1.65-1.51 0-.34-.17-.53-.42-.48-.24.05-.62-.17-.85-.5-.4-.54-.3-.73 1.46-2.71l1.9-2.13.84-3.6c.88-3.78 2.16-11.53 2.48-15.1.21-2.27.42 2.31-.14 2.11-1.94-.27-2.8-3.68-5.76-3.84-3.1-.16-4.4-5.72-5.25-5.97-2.23-.68-6.3-1.6-10.15-5.47-3.5-3.51-3.74-3.87-5.61-8.13a33.04 33.04 0 0 0-2.3-4.1l-1.44-2.17-.33-4.55a68.7 68.7 0 0 0-.78-6.74c-.5-2.34-.45-3 .5-7.07.51-2.17.57-3.07.4-6.88l-.19-4.39-1.46-1.56c-1.9-2.03-2.56-3.59-2.85-6.79-.39-4.23-2.01-8.04-5.1-8.88-.81-.22-2.94-.26-6.63-.12-7.52.29-9.25 1.22-9.65-1.45a3.92 3.92 0 0 0-.76-1.78c-.44-.46-.68-1.37-.94-3.44l-.35-2.81.92-1.27c2.6-3.58 11.96-13.09 19.45-19.77.93-.83 1.23-1.34 1.36-2.27.18-1.36.77-1.94 2.24-2.19 2.02-.34 2.2-.43 2.68-1.3.54-.97 1-1.08 2.46-.54.85.3 1.04.28 1.63-.25.6-.54 1-.6 4.15-.55 3.01.05 3.64.14 4.54.7.57.34 2 .96 3.18 1.36 1.17.4 2.35.93 2.61 1.18s1.27.76 2.22 1.15c2.32.95 6.22 3.26 8.61 5.09 1.07.82 2.9 2 4.06 2.6 3.67 1.96 11.76 8.33 12.34 9.73.3.7.76 1.12 1.72 1.54.72.31 1.87 1.09 2.56 1.72l1.24 1.16 4.66.47c8.34.85 12.66 1.06 21.85 1.07 10.27 0 13.4-.21 23.42-1.62 11.67-1.64 16.47-2 23.29-1.8 6.47.2 7.85.39 10.48 1.46 3.7 1.5 10.08 5.82 13.42 9.08 2.74 2.67 6.28 10.14 8.28 17.47 1.17 4.3 1.5 7.4 1.04 9.9-.55 2.95-1.47 3.37-2.6 1.17-1.25-2.37-1.85-3.4-1.96-3.3-.06.07.03 1.01.21 2.1a8.08 8.08 0 0 1 0 3.47c-.59 2.52-.45 3.32 1.12 6.36l1.46 2.85-.3 2.94a72.56 72.56 0 0 0-.29 4.58v1.65l-1.34.52c-1.34.5-1.34.51-1.1 1.58.88 3.84-.45 7.75-3.27 9.64-.87.58-1.59 1.2-1.6 1.38-.16 1.79.91 9.13 1.76 12.07.66 2.3.74 4.43.29 8.06-.31 2.49-.7 3.52-2.53 6.58l-1.02 1.7.66 2.12c.37 1.16.68 2.56.7 3.13.02.98-.03 1.03-1.44 1.36-2.1.5-4.27.49-5.01-.04a1.84 1.84 0 0 0-1.3-.3c-.37.1-.86.04-1.1-.11-.35-.24-.25-.69.63-2.87a54.4 54.4 0 0 0 2.71-9.4c.1-.69-.02-2.78-.29-4.7-.58-4.26-1.56-6.49-4.42-10.05-1.56-1.94-2.42-2.72-3.98-3.6-1.1-.62-2.09-1.13-2.21-1.13s-.58.98-1.02 2.18c-.83 2.31-1.27 2.88-2.6 3.39-.84.32-.84.32-.7 2.44.07 1.17.5 3.26.95 4.64l.81 2.51-1.24 2.77a68.03 68.03 0 0 0-1.75 4.25c-.61 1.8-1.71 4-2.76 5.55l-.78 1.16.65 2.08c.36 1.14.66 2.53.68 3.1.03.98-.02 1.03-1.43 1.36-2.42.58-4.32.5-5.23-.23-.6-.47-.85-.54-1.02-.26-.24.4-1.46.16-1.46-.28 0-.14.43-1.36.97-2.7 1.18-2.97 1.92-5.73 3.1-11.67l.92-4.53-.64-1.78c-1.1-3.07-4.32-9.2-5.26-10a3.2 3.2 0 0 0-1.7-.75c-.63 0-1.16-.37-2.18-1.51l-1.35-1.51-2.54 1.22c-1.65.79-2.94 1.22-3.7 1.22-.64 0-2.05.08-3.14.19-1.78.17-2.02.27-2.4 1-.97 1.91-1.79 2.15-3.45 1l-1.07-.72-.85.62c-.73.55-1.07.6-2.72.44-1.62-.17-2.04-.1-2.95.43-.88.53-1.28.6-2.42.4a17.06 17.06 0 0 0-2.84-.17 6.43 6.43 0 0 1-2.77-.52c-1.04-.47-1.54-.53-2.46-.32-1.95.43-8.53.16-10.3-.44-1.3-.43-1.73-.46-2.62-.16-1.62.54-2.67.3-3.23-.73-1.08-1.98-2.56-.55-2.37 2.3.13 1.92-.44 2.55-2.32 2.55-1.23 0-1.45.1-1.9.86-.27.47-.8 1-1.17 1.16-.64.3-.66.42-.5 2.6.11 1.58.02 2.96-.32 4.49a45 45 0 0 0-1.22 8.97l-.18 3.54 1.2 2.7c.67 1.49 1.2 2.83 1.2 2.98 0 .16-.44.63-1 1.05-1.38 1.07-3.92 1.62-6.19 1.35-1.6-.2-1.95-.36-3.04-1.45l-1.22-1.22 1.5-2.18c2.07-2.99 2.4-4.4 2.38-10.45 0-6.15-.42-11.78-.9-12.07-.38-.24-1.58 2.02-1.74 2.19-.06.05-2.25.1-2.6 3.39-.7 6.68-1.22 9.14-2.74 12.72l-1.04 2.44.88 2.45c1.01 2.78.96 2.99-1.02 3.9-1.25.57-4.81.7-6.35.24z" fill="#333" stroke="#333" stroke-width="3.94"/><path d="M861.76 234.84c.39 1.29 1.8 6.83 1.8 8.5s-1.16 7.21-1.16 8.89c0 1.67-2.31 10.95-2.31 10.95l6.18 1.03 2.57-6.06s1.03-5.54 1.03-6.3c0-.78.9-11.09.9-11.09l-.38-6.7z" fill="#c27e50"/><path d="m868.97 236.77-6.05.13c.39.77.13 1.8 1.29 3.22 1.16 1.42 2.31 2.83 2.83 3.35.51.52.77 1.42.77 2.96 0 1.55.13 2.7.13 4.64s-1.16 5.8-1.42 6.82c-.25 1.03-2.06 5.8-2.06 5.8s1.4-.58 2.13-.24l2.25-5.3s1.03-5.54 1.03-6.31c0-.77.9-11.08.9-11.08l-.17-3.02z" fill="#ab612e"/><path d="m860.15 263.26-4 4.37c.14.44.72 1.29.98 1.68.09.13 2.08-2.45 2.18-2.32.16.19-1.94 2.65-1.75 2.83 1.36 1.23 3.56 1.91 6.51 1.54 2.36-.44 3.28-.86 4.1-2.27l-1.87-4.92z"/><path d="M861.53 264.74c-.16.29-3.18 4.64-3.1 4.74 2.23 2.39 8.31 2.02 8.45.07-3.18.46-5.25 1.2-7.21-1.24z" fill="#a1a1a1"/><path d="M850.43 236.05c1.28.64 3.62 5.32 3.62 5.32s1.28 2.34 2.34 2.55c1.06.22 0-1.06 2.34.64a31.81 31.81 0 0 0 5.32 2.98l4.26-.21s4.25-.85 5.1-1.28c.85-.42 1.28.21 1.92-2.13.64-2.34 1.49-2.76 1.7-5.95.21-3.2.21-8.73.21-8.73l-.85-3.61h-5.74l-7.66.42-5.54-.42-2.55 3.61z" fill="#acacac"/><g stroke="#000" stroke-width=".25"><path d="m849.36 154.7-1.98-2.92c-.31-.47-1.5-2.53-2.68-4.5-1.19-1.98-1.18-2.76-2.21-3.8a10.71 10.71 0 0 0-4.35-2.52c-2.44-.77-5.1-.74-7.66-.63-1.44.06-2.89.27-4.26.71-2.18.7-5.6 2.6-6.16 3-.55.4-3.71 3.56-3.71 3.56s-1.66 1.58-2.13 2.13c-.48.55-2.53 2.45-3.24 3-.71.55-2.84 3.4-3.32 3.79-.47.4-.7.7-1.34 1.34-.63.63-1.03 1.42-1.26 1.74-.24.31-.8 1.26-.8 1.26s0 1.34.24 2.06c.16.76-.06 2.57.56 3.63.32.55 1.5 1.18 1.5 1.18 3.84.1 7.54.58 7.26-1.9-.76 1.84-4.28 3.67-7.27 1.9l-.31 1.35c.12.6.1 1.25.87 1.65 2.12 1.04 3.82 1.15 5.53 1.27l4.9-.71c1.63-.19 6.26-.21 8.46 2.23 1.56 1.75 4.63 7.6 3.98 9.76l20.98-.56-.11-16.07-.43-8.5z" fill="#d7b5a0" stroke="#7d5035" stroke-width=".42"/><path d="M820.46 144.04c-.57.56-.74.82-1.77 1.6-1.03.8-1.95 1.7-3.8 3.73-1.84 2.03-3.63 2.83-2.07 3.6s.98 1.29 1.38 1.89c.4.6.21 1.8.94 3.65.73 1.85 4.33 2.13 4.33 2.13s2.84.6 3.03-.4c.2-1-.87-2.97 1.04-3.22 1.92-.25 2.58 1.12 3.85-.34 1.27-1.46.73-4.31 2.22-5.32 1.5-1 1.89-1.71 1.89-1.71s-2.99.72-3.97.68c-.98-.03-3.88-1.11-4.16-2.05-.29-.93-.88-4.9-.88-4.9z" fill="#d0a386" stroke="none"/><path d="m804.42 162.68 1.03-1.34c.73-.01 1.05.27 1.26.63.39.19.77.35 1.1-.08l-.07-1.27c.55.39 1.03.78 1.1 1.27-.22.62-.5 1.21-1.97 1.42-.74.19-1.57.95-2.15 1.88-.11-1-.08-1.89-.3-2.51z" stroke-width=".16"/><path d="M812.66 151.79c1.26.95 2.01.76 2.14 2.67.12 1.91-.4 1.7-.04 2.18.34.48 1.84 1.49 2.13 2.67a5.2 5.2 0 0 1 .18 2.58c-.17.73-.36 1.35-.26 1.78.11.43.59 1.9.59 1.9s-1.24-.37-1.64-1.53c-.4-1.16-.42-.46-2.1-1.3-8.19 11.41-3.7-3.79-4.08-4.38-.37-.6-2.3-1.5-2.3-1.5 1.8-1.77 3.78-4.46 5.38-5.07z" fill="#dec7b7" stroke="none"/><path d="M834.07 155.38c-.39.64-.9 1.93-2.06 2.57-1.16.65-3.6 1.16-4.64 1.16-1.03 0-1.93-1.16-2.57.13-.65 1.29-1.03 1.8-1.42 2.96-.39 1.16-2.45 1.16-2.58 1.93-.13.78-.77 1.16-.9 2.7a28.05 28.05 0 0 1-.39 2.84s1.03-2.57 2.32-2.7c1.3-.13 1.42 0 3.1-.13 1.67-.13 2.96-.26 3.86-1.42a6.69 6.69 0 0 1 4.12-2.32c1.42-.13 2.7-.38 3.35-2.06.64-1.67 1.16-1.67.64-2.96-.51-1.29-2.83-2.7-2.83-2.7zm-8.16-9.6c1.64 0 1.55-.18 2.37 0a2.9 2.9 0 0 1 1.82 1.27c.46.64.18 1.19 1.28 1.28 1.09.09 1.82.54 1.82.54s.36.91.73.82c.36-.09.45-1.82.45-2.64 0-.82-.82-2.37-.82-2.37l-1.64-.9s-.6-.25-1.68-.52-1.23.24-1.78.24c-.54 0-.82-.27-1.46.46-.63.73-1.18 1.45-1.18 1.45z" fill="#d0a386" stroke="none"/></g><path d="M823.68 149.51s.73-1.05 1.19-1.5c.34-.33.67-.74 1.13-.87.76-.2 1.62-.04 2.33.28.52.23.9.36 1.27 1.14.36.77.1.72.6 1.04.5.32.63.46.63.46l-1 .54c-.69.37-1.16.68-1.78.92-.45.17-.92.4-1.4.36-.62-.06-1.13-.53-1.7-.77-.25-.12-.77-.32-.77-.32s-.36.09-.59.5c-.23.4-.45.54-.68 1.09a27.97 27.97 0 0 1-.64 1.37l-.27.4s-.19-.68-.19-1.04c0-.37.05-.82.14-1.37a5.1 5.1 0 0 1 .73-1.45z" fill="#662900"/><path d="M874.38 240.64c0 2.06.64 6.18.77 9.01s.13 4.51.13 6.31v4.22l-.61 3.28 6.15-.03s-.5-1.3-.31-2.98c.3-2.73.7-6.43.7-7.06 0-1.03-.39-8.25-.39-8.25l-1.16-4.12z" fill="#c27e50"/><path d="M874.9 243.99s-.13 3.86.38 5.15c.52 1.29 3.48.64 4.12 2.7.65 2.06 1.3 4.38 1.3 4.38l.35-2.45.8-2.5.77-4.2-2.12-12.23s-7.4 0-7.4.77c0 .78 1.8 8.37 1.8 8.37z" fill="#ab612e"/><path d="m874.63 263.32-3.49 4.8c.2.42.87 1.2 1.17 1.55.1.13 1.79-2.67 1.9-2.55.18.17-1.63 2.86-1.41 3.01 1.5 1.07 3.75 1.5 6.64.8 2.3-.71 3.16-1.23 3.81-2.73l-2.41-4.68z"/><path d="M876.17 264.63c-.13.3-2.64 4.98-2.54 5.06 2.48 2.12 8.48 1.07 8.4-.88-3.12.82-5.08 1.78-7.31-.42z" fill="#a1a1a1"/><path d="M943.21 225.56c.91 4.92 2.37 10.2 4 12.93 1.65 2.73 4.56 9.65 4.56 9.65s-1.46 5.29-1.46 6.56-1.64 7.56-1.64 7.56l6.01-.64s2.92-4.19 3.47-6.74c.54-2.55 2.91-6 2.91-7.1s-1.64-4.92-1.64-4.92-.36-7.47-.36-8.74.18-9.1.18-9.1z" fill="#c27e50"/><path d="m959.24 225-12.2.43a46.64 46.64 0 0 0 4.18 7.77c2.19 3.28.92 2.2 3.1 6.56 2.19 4.37 1.46 4.92 3.1 6.92 1.64 2 2 3.65 2 3.65s.77-.88 1.57-2.19c.03-.13.07-.27.07-.37 0-1.09-1.64-4.91-1.64-4.91s-.36-7.47-.36-8.75c0-1.27.18-9.1.18-9.1z" fill="#ab612e"/><path d="m949.63 263.37-1.06 4.44c1.69 1.65 4.87.7 7.98-.13l-1.8-6.05-6.18.52-2.32 5.4c1.24.53 2.26.83 2.07.04z"/><path d="M954.36 262.92c.13.32 1.48 4.25 1.48 4.25-2.2.81-4.32 1.27-6.18.38l5.02-1.03z" fill="#8a8a8a"/><path d="M937.44 228.14c1.28.64 3.62 5.32 3.62 5.32s1.28 2.34 2.34 2.55c1.06.22 0-1.06 2.34.64a32.02 32.02 0 0 0 5.32 2.98l4.25-.21s4.26-.85 5.11-1.28c.85-.42 1.28.21 1.92-2.13.63-2.34 1.49-2.76 1.7-5.95.21-3.2.21-8.73.21-8.73l-.85-3.61h-5.75l-7.66.42-5.53-.42-2.55 3.61z" fill="#acacac"/><path d="M965.18 230.03c1.29 3.73 5.3 7.6 6.08 9.02.77 1.42.14.7 2.55 3.9.13 4.13 1.41 7.6.9 9.4-.52 1.81-1.68 6.96-1.68 6.96l5.67-.51s1.29-2.32 2.06-3.48c.77-1.16 1.93-4 1.93-4s-.12-5.27-.12-5.92c0-.64-1.55-7.98-1.55-7.98l-3.48-5.16-2.83-2.96z" fill="#c27e50"/><path d="M966.98 228.4c1.16 2.45 4.56 7.2 6.75 7.97 2.19.77 2.27 2.2 2.27 2.2s.64 1.17.51 3.48c-.13 2.32-1.29 3.35.52 5.41a8.42 8.42 0 0 0 3.73 2.58l1.82.98.43-6.8-1.35-4.23-.64-3.99-.74-5.99-5.7-3.41z" fill="#ab612e"/><path d="m974.04 260.15-1.07 4.44c1.7 1.65 4.88.7 7.99-.13l-1.8-6.05-6.19.51-2.32 5.41c1.25.52 2.26.83 2.07.03z"/><path d="m978.77 259.7 1.48 4.25c-2.2.81-4.33 1.27-6.19.38l5.03-1.03z" fill="#8a8a8a"/><path d="M820.59 143.7c1.2-1.95 2.12-2.09 3.2-3.1.71-.66 2.16-1.93 2.16-1.93s-.12-2 .5-2.64c1.02-1.06 4.29-.98 4.29-.98s.02-1.58.6-1.9c1.02-.54 3.34.95 3.34.95s.59-1.45 1.24-1.7c1.14-.4 3.54.85 3.54.85s1.64-.92 2.53-.84c1.22.11 1.84 1.37 3.22 1.8 1.38.42 2.7.55 3.9 1.18.66.34 1.74 1.37 1.74 1.37s2.01.53 2.95.97c.95.45 2.69 1.69 2.69 1.69s1.22.5 1.77.86c1.34.87 3.65 3.07 3.65 3.07s2.28 1.02 3.38 1.61c1.07.58 3.11 1.9 3.11 1.9s2.2 1.77 3.27 2.68c.95.8 2.8 2.43 2.8 2.43s1.82.74 2.41 1.47c.47.59.33 1.86.74 2.13s1.96.52 2.8 1.07c.86.56 2.16 2.2 2.16 2.2a201.09 201.09 0 0 0 43.26 1.09s17.1-2.91 25.73-3.01c5.34-.06 10.94-.33 15.95 1.5 5.51 2.03 14.44 10.09 14.44 10.09l4.52 8.12 3 9.33c2.52 8.5-.6 15.54-2.1 9.33-.8.83-3.28-8.1-3.16-8.28l-.9-4.96 1.65 9.4 1.2 5.34-.75 3.16-.75-1.95.75 4.2 2.86 4.97v2.26l-.45.6-.15 6.77-2.86.9c.81 2.22 1.38 4.36.6 6.17l-1.8 3.62-3.46 2.1c-.02 1.54.6 3.16-.9 4.52-1.25.3-2.31 1.57-3.92-.15 0 0-1.43 1.62-2.4 1.65-1 .04-2.56-1.5-2.56-1.5l-2.86.45-3.76-1.96-3.01 1.36h-1.96l-4.66-3.31s-4.07-.9-4.52 0c-.45.9-2.4 1.35-2.4 1.35l-3.77-1.2-3.6 1.05-1.66 1.2-3.01 2.1-2.7-.3s-3.32-.44-3.62.46c-.3.9-.77 2.83-1.96 3-1.23.2-2.86-2.4-2.86-2.4s-.77 1.52-1.5 1.8c-1.22.5-3.91-.44-3.91-.44s-1.45 1.5-2.4 1.65c-1.04.16-3.02-.9-3.02-.9s-1.48.71-2.25.6c-1.05-.15-2.71-1.66-2.71-1.66s-1.97.82-3.01.9c-1.52.13-4.52-.6-4.52-.6s-1.34.63-2.05.59c-1.4-.09-2.55-1.43-3.87-1.63-.86-.13-1.47 1.25-1.89 1.25a4.1 4.1 0 0 1-1.95-.57l-.61-1.48-1.13-.35-.68.39c1.01 1.32-.38.89-.76 1.2l.6 2.26c-.22.84.43 1.75-1.95 2.4 0 0-1.96-.74-2.1 0-.16.76-.9 1.66-.9 1.66s-2.63.04-2.42.6c.44 1.16.95 2.31 0 3.47 0 0-2.06.75-3.08.55-.92-.19-2.37-1.52-2.37-1.52l-1.02-2.8s-3.1-.11-4.36-.9c-1.4-.87-3-3.91-3-3.91h-2.87s-4.06-.15-4.66-.15c-.6 0-7.7.24-11.14-1.2-2.63-1.1-6.62-5.42-6.62-5.42s-3.16-2.96-4.2-4.82a18.38 18.38 0 0 1-1.21-3.76l-1.8-2.86s-1.87-2.24-2.26-3.6c-.18-.63 0-1.96 0-1.96l-.46-6.92s-1.04-2.67-1.05-4.07c-.01-1.9 1.36-5.56 1.36-5.56l.45-3.76-.6-3.77s.31-1.86 0-2.7c-.54-1.44-2.22-2.16-3.01-3.46a9.27 9.27 0 0 1-1.28-3.16c-.19-1.05.28-2.13.1-3.17-.24-1.44-1.56-4.08-1.56-4.08l.63-1.33s4.36-4.36 5.72-4.36c1.35 0 4.13.7 5.78-.3 2.04-1.24 3.76-3.8 3.61-6.17-.14-2.4-3.46-3.5-4.36-5.72-1.03-2.53-.97-8.13-.97-8.13l-1.36-3.3-1.95-2.26-5.57-1.06z" fill="#c9c9c9" stroke="#b3b3b3" stroke-width=".16"/><path d="M836 204.83c3.6.52 4.9.77 7.86-.13s5.8-2.19 5.8-2.19-1.68 2.58-3.1 3.35c-1.42.77-3.73 2.2-3.6 2.7.12.52.25.14 2.31-.64 2.06-.77 6.06-2.83 2.97.78-3.1 3.6-4.51 4.12-4.77 4.89-.26.77-1.67 2.7-1.55 3.86.13 1.16 5.03-.64 5.03-.64s-2.06 1.54-4.12 3.6c-2.06 2.07-3.1 2.97-3.1 2.97s-2.31-1.29-2.44-5.93c-.13-4.63-1.55-9.66-1.8-10.69-.26-1.03 0-2.31 0-2.31z" fill="#acacac"/><path d="M839.06 220.9c-.39.1-.09-.62-1.6-.62-1.32 0-2.18-.1-3-.28l.2.26 1.81 2.86s.56 2.62 1.2 3.76c1.05 1.86 4.22 4.82 4.22 4.82s3.99 4.31 6.62 5.41c3.44 1.45 10.53 1.2 11.13 1.2.54 0 3.55.12 4.2.14a26.34 26.34 0 0 1-.8-1.92c-1.8-4.81-2.4-3.3-3.6-4.51-1.2-1.2-1.2-.6-3.31-3.61-2.11-3.01-6.32-1.5-6.32-1.5s-3.31-.3-5.42-2.11c-2.1-1.8-.78-.49-2.59-2.6-.67-.79-2.63 2.86-2.74-1.3z" fill="#959595"/><path d="M836.26 134.3s-1.43 2.34-1.95 3c-.52.64-2.6.78-3.13.78l-3 1.69 4.57.13 3.78 3.52 3.26 6.12-1.44-6.25 5.48 1.43s.13 3.52-.13 4.17c-.26.66-2.1 4.05-2.61 5.35-.52 1.3 4.56 5.08 4.56 5.08v-4.04l6.39-4.04 4.82-3.65 3.52 2.74s3.52 5.47 3.52 6.13c0 .19-.32.83-.75 1.63-3.24 2.79-5.7 6.56-7.78 10.3-1.48 5.58-10.64 1.6-4.49-2.3 1.5-2.01 3.8-4.7 5.74-7.17-3.41 1.54-8.62.93-11.73 2.9-4.23 3.5-11.6 8.97-14.97 10.09 1.46.08 2.99-.2 4.4.23 6.78-1.16 2.4 4.93-2 4-6.46-.2 1.1 2.89 3.81 2.05 3.74-.43 11.93-.05 6.02 4.36 6.88 3.12 12.64-2.24 18.13-5.4 1.81 1.79-5.62 6.89-7.76 9.1-3.53 4.68-8.5 4.3-13.43 4.21-2.55 2.14 3.28 1.36 4.76 1.48.21 3.92-14.76 2.28-8.67 8.24 6.08.49 12.41.96 18.32-.97 4.66-1.63.62 2.12-.61 3.47 1.98 3.07 8.16-2.2 11.68-2.49 2.38 5.2-7.2 5.64-10.34 8.6 3.16.44 13.71.45 17.38-5.07 4.43-3.84 6.04 2.35 2.43 4.79-4.41 3.54-10.15 7.35-15.56 7.66-7.07-4.73-6.01 3.75-11.08 6.81 8.19 1.37.64 3.26 4.06 4.6 6.58 1.56 10.43-6.34 16.44-2.15 5.33 4.25 1.24-9.59 5.6-6.79-1.7-6.37 6.6-4.36 6.87.49.68 4.4 3.59 3.23 2.89-.68.32-3.34-.12-6.48-2.6-8.99-1.97-5.89 8.1-3.73 6.45 1.8 2.3 8.67.66-9.63 4.16-5.98 3.5 4.36 1.39 12.65 6.56 15.3 4.08-1.82 8.4 5 10.73 2.34 4.4-4.84.53-12.37 1.07-18.3 3.2-3.21 4.4 3.54 3.3 6.17.2 4.58-.43 9.28.36 13.77 1.9-.91 3.57-6.8 4.15-9.92.32-4.09-2.3-11.3 4.5-10.13-.35 4.8 1.6 7.63 5.26 10.2 4.55 5.2-1.6-8.22 4.13-4.7 1.28 1.56 5.19 13.22 4.89 7.37 1.36-6-1.03-11.47-1.16-17.34 2.96-1.34 5.94 5.98 6.44 9.27 2.07-.07-3.3-10.27-1.74-10.08 5.67 2.52 8.6 8.2 10.43 13.9 2.63 6.93-.4-3.77-.82-6.27 2.99 5.34 6.03 10.72 8.26 16.5.26-3.91-.41-7.73-1.4-11.5-1.6-8.34 4.14-.4 5.81 2.88 3.97 4.2 5.42 9.66 7.68 14.8.82 4.36 1.64.2 3.19-1.24 4.59-5.25-1.16-11.5-1.17-17.46 1.47-6.08 3.21 4.1 3.67 6.13 2.22.55 3.86 11.38 4.02 6.95.1-1.28.14-1.82.19-2.3.14-2.73.24-5.46.17-8.2 8.82 7.8 5.35-12.77-1.25-24.17-2.17-5.24 2.3.07 2.54 2.6 5.08 1.48-1.37-9.95 3.29-7.96 2.2 6.9.57-3.63 0-5.79-4.5-4.54-8.7-11.68-15.85-12.48.35.34.65.68.94 1.01.06.24.55.78 1.15 1.4l-.13-.19c.06.08.17.21.2.27 1.95 2 5.68 5.37 6.63 7.58 1.97 7.35-6.3-1.82-7.96-1.12 2.99 5.9-2.37 1.95-4.59.09-3.56-4.01-5.28-10.43-11.14-11.7-2.13 1.91 5.37 5.95 6.91 8.72 1.73 1.47 6.49 10.13 3.5 8.91-.77-.47-1.14-.73-1.5-.98-3.4-1.74-8.96-5.16-11.08-9-4.54-5.36-1.92 1.5 1.3 3.26.29 2.66 5 12.94-.38 10.21-5.66-4.3-7.21-11.33-11.4-16.65-1.44.98 1.87 8.6 1.25 12.28 1.12 6.81-2.89 1.64-4.5-1.52-4-1.88-2.09-10.7-5.26-10.6-1.55 4.72-1.69.9-3-1.57-1.85 3.88-.83 8.22-1.19 12.34.44 7.56-3.58-1.12-4.52-4.07.5-4.57-1.75-4.21-2.45-.13-.41 8.6-5.6-.69-5.34-4.3 2.27-5.04-6.86-8.44-6.4-2.73 2.13 4.81 3.57 12.31.37 17.35.87-6.6-6.27-10.95-5.17-17.8-1.6-5.26-3.4-.49-3.85 2.48.4 5.8-1.59 9.48-5.18 13.72-3.33 5.44-2.57-1.65-3.36-4.2-2.06-9.02-.86 4.12-2.91 6.64-2.67-3.2-2.85-10.52-2.71-15.44 1.9-5.99-2.06.78-2.43 1.54l-.31.49c-3.43 7.65-2.95-2-3.38-5.54-.16-4.5-.76-.77-.98 1.2l-.06.4c-.7 2.33-.43 14.09-3.6 7.96-1.52-1.55-1.22-11.89-2.01-6.92-.13 7.85-5.12-2.25-3.1-5.71.1-6.1-.15 1.3-1.14 3.11-2.77-3.66-1.92-7.67-.75-11.78a17 17 0 0 0-2.45 1.09c-.04-.5-.1-1.05-.16-1.35-.13-.65-.4-1.17-.52-3s.39-2.08.39-2.08-2.35-.27-2.87-.79-1.3 0-4.04-.65-6.52-3.91-7.95-5.47c-1.44-1.57-1.3-1.96-2.09-2.87-.78-.91-1.43 2.09-1.43 2.09s-2.87-.14-4.17-3.26c-1.3-3.13-1.3-1.44-1.3-1.44s-3 2.87-4.7.78c-1.7-2.08-1.44-3.39-1.44-3.39zm126.27 45.3a31.8 31.8 0 0 0 2.02.97c-1.92-1.42-3.53-2.03-2.02-.96zm8.16-11.49-.08-.07c.2.26.22.27.08.07zm8.93 53.51c-.07 1.23-.12 2.47-.2 3.7.2-2.34.38-5.64.2-3.7zm-123-62.7c1.87-.85 3.21-2.33 3.35-5.26-.28 1.16-1.67 3.12-3.35 5.26z" fill="#e5e5e5"/><path d="M843.48 157.15c-.4-1.8-.9-3.56.1-5.78.57-1.84 3.2-3.36 5.35-3.7 3.3-.54 8.4.1 9.6 2.84.8 1.83 1.23 4.25-2.4 5.42-2.7.99-5.3 4.29-8.3 4.7-1.23-1.19-1.64-2.53-4.35-3.49z" fill="#2c1c12"/><path d="M843.3 156.86c-.4-1.75-.88-3.47.1-5.63.55-1.8 3.12-3.29 5.21-3.62 3.22-.52 8.21.1 9.38 2.78.77 1.78 1.2 4.15-2.35 5.28-2.63.97-5.17 4.2-8.09 4.6-1.2-1.16-1.61-2.47-4.26-3.4z" fill="#d6b39d"/><path d="M845.9 155.48c1.25-.46 1.65 1.26 1.6 1.76 2.83-2.35 6.04-4.81 7.12-4.38.47-2.89-8.27-4.12-8.72 2.62z" fill="#181818" stroke="#6f3f1e" stroke-width=".16"/><path d="M826.93 147.58c-.92 0-1.74.48-2.05 1.2l-.06.22s-.13.3-.3.43c-.17.12-.63.37-.9.62-.4.4-.79.85-1.04 1.36-.21.41-.38 1.34-.38 1.34s.41-.92.68-1.34c.26-.4.53-.8.89-1.12.24-.22.82-.53.82-.53l.3.32-.2-.74c.15 1.34 1.33 1.83 2.24 1.83 1.2 0 2.17-.8 2.17-1.8 0-.99-.97-1.8-2.17-1.8z" fill-rule="evenodd" stroke="#000" stroke-width=".16"/><path d="M826.93 147.57a2.17 1.8 0 0 0-1.88.9l-.1.17a1.58 1.58 0 0 0-.16.41c1.01.3 3.11.28 4.29.06a1.52 1.52 0 0 0-.05-.2 1.59 1.59 0 0 0-.08-.19l-.1-.18a2.17 1.8 0 0 0-1.92-.97z" fill="#794d2f"/><path d="m825.8 149.45.1.35 1.93-.01s.32-.4.26-.35c-.05.04-2.29.01-2.29.01z" stroke="#000" stroke-width=".16"/><path d="M826.74 151.08a2.42 2.42 0 0 1-1.25-.46 1.95 1.95 0 0 1-.5-.58 9.82 9.82 0 0 1-.23-.75l.04-.07.04-.07.08.02c.22.06.6.11.95.15a15.2 15.2 0 0 0 2.5-.03c.18-.01.56-.07.62-.08.02 0 .02 0 .02.15 0 .26-.04.45-.16.68-.35.68-1.21 1.1-2.1 1.04zm1.12-1.22a.93.93 0 0 0 .14-.15c.18-.22.17-.22.16-.28 0-.05 0-.06-.05-.06a46.7 46.7 0 0 1-1.42 0h-.97v.05a2 2 0 0 0 .13.45 23.97 23.97 0 0 0 2-.01z" fill="#e6c74d"/><path d="M811.23 171.8a12.38 12.38 0 0 1-3.85-1c-.7-.33-.93-.61-1.07-1.32a2.2 2.2 0 0 1 .07-.98l.14-.62.52.15c.8.23 1.64.31 2.32.22.65-.08 1.13-.21 1.12-.3-.01-.04-.03-.06-.06-.05-.66.17-1.22.23-1.83.2a4.95 4.95 0 0 1-2.97-1.05 2.1 2.1 0 0 1-.87-1.38c-.08-.35-.08-.36.13-.67.3-.45 1.08-1.2 1.46-1.4a3.56 3.56 0 0 1 .8-.27c.84-.17 1.42-.6 1.65-1.2.13-.32.06-.57-.27-.95-.3-.33-.82-.72-.9-.66-.03.01-.04.33-.03.7l.03.67-.17.08c-.25.12-.65-.01-.83-.26-.18-.26-.6-.45-1-.46l-.32-.01-.35.45-.44.59c-.05.07-.1.1-.13.09a4.93 4.93 0 0 1-.07-.78l-.04-.74.26-.43c.97-1.59 1.4-2.15 2.44-3.23 1.2-1.23 1.07-1.17 1.9-.8.5.24.83.57.94.95.04.14.12.54.18.9s.17.8.25.98c.23.5 1.2 1.45 1.74 1.7.5.25 1.25.42 1.86.42.27 0 .52.04.67.1.32.16 2.14 2 2.4 2.45.25.4.62 1.79.74 2.74.12.95.05 3.54-.1 4.12l-.13.46-2.35.34c-2.53.37-2.66.37-3.84.24z" fill="#d4d4d4"/><path d="M843.86 153.96s1.57-3.96 3.3-4.87a8.69 8.69 0 0 1 7.67.06c.72.38 1.4 2.02 1.4 2.02s-1.7-.92-2.63-.92c-2.7-.03-4.34-.1-6.27.75-1.4.6-3.47 2.96-3.47 2.96z" fill="#c99472"/><path d="M830.85 181.4c3.6.25 6.18 0 7.21 0 1.03 0-.77-.27 1.29 1.8 2.06 2.06 0 1.54 2.83 2.31 2.84.78 8.76.26 8.76.26s-2.58 2.06-4.38 2.06c-1.8 0-6.95-.51-8.5 0-1.54.52-3.35 2.58-3.35 2.58l.77 2.57h-2.06l.78-5.4-2.32-3.61zm39.67-27.83s1.03 2.32 1.03 4.13c0 1.8.77 2.57.77 2.57l.52 1.8 2.57.26 1.8 4.12s0-6.18 2.06-5.15c2.07 1.03 1.8-1.55 2.84 1.29 1.03 2.83 2.06 5.4 2.06 5.4s-1.55-2.57 1.54-2.83c3.1-.25 4.64-1.03 4.9.52.26 1.54 0 1.8-.26 3.6s-1.03 4.38-.26 3.1c.78-1.3.26-2.84 1.55-2.32 1.29.51.77-1.55 2.06 2.32s1.29 4.38 1.29 4.38.51-.26 1.03-4.64c.51-4.38-1.29-4.9.51-6.7s2.76-4.43 5.34-3.14c2.57 1.29 2.39-1.5 3.68 4.43 1.29 5.92 2.32 7.73 2.32 7.73s0-1.8-.26-6.19a51.63 51.63 0 0 0-.52-5.66l-4.38-1.55s-6.95 1.03-7.98 1.03c-1.03 0-4.38 0-6.18-.77-1.8-.77-11.08-3.09-11.08-3.09l-5.92-3.35zm43.01 8.5c9.28 0 9.8-.51 15.46-.51s7.98-2.06 11.07-2.32 4.9-.26 9.28-.26c4.38 0 4.12-2.32 11.59-.25 7.47 2.06 8.24 2.57 9.53 3.09 1.29.51 6.18 3.6 6.18 3.6l5.93 5.93s-5.67-4.9-7.22-5.93c-1.54-1.03-8.5-2.57-8.5-2.57s-1.54-.26-1.54 1.54 2.83 4.64 2.83 4.64l5.15 3.09 1.8 3.6-4.63-4.12s-2.83-1.03-3.1.26c-.25 1.29.78 3.35.78 3.35s-2.83-3.09-4.12-5.67c-1.29-2.57-2.06-4.38-3.6-5.4-1.55-1.04-4.9-2.32-4.9-2.32s-6.7-2.06-5.67 0c1.03 2.06.78 1.03 2.06 3.6 1.3 2.58 2.32 1.8 5.41 6.44 3.1 4.64 3.87 5.41 1.55 3.1-2.32-2.33-2.84-2.84-4.38-5.16-1.55-2.32-2.83-3.86-4.64-4.12-1.8-.26-2.32-1.8-2.32.26s-1.54.77 0 3.35c1.55 2.57 1.3 2.31 2.06 5.15.78 2.83 3.35 7.47 3.35 7.47s-2.31-1.03-3.09-3.1c-.77-2.05-3.35-4.89-3.86-7.46-.52-2.58-2.58-5.41-2.58-5.41l-3.35-.52s-.77 1.03-.77 2.32-.51-1.03-.51 2.32c0 3.35.25 2.06.77 6.18.51 4.12 0 1.29-1.03-.52s-1.8-3.86-2.58-6.7a38.98 38.98 0 0 0-1.54-4.63l-2.06 2.06-1.55-2.32s-2.58-.51-2.58.52-1.28 3.6-1.28 5.92v7.47s-1.29-3.86-1.29-5.4c0-1.55-1.55-6.19-2.06-5.16-.52 1.03-3.6 1.03-3.6 2.32v3.1s1.54 0-1.04-4.9c-2.57-4.9-5.4-5.93-5.4-5.93z" fill="#acacac"/><path d="M902.77 183.12c0 2.18-1.09 4-1.27 7.46-.18 3.46-.91 4.56-.18 9.3.73 4.73 2.91 12.38 2.91 14.38s.18 7.29.55 0c.36-7.28-1.64-11.3-1.64-12.57 0-1.27-.36-4.19-.36-8.37 0-4.2.54-7.29.54-7.29l-.55-3.82zm11.66-4.92c.55 3.82.55 2.73-.18 8.2-.73 5.46-1.1 7.65-.91 9.1.18 1.46 1.1 7.29 1.46 10.02.36 2.73-.19 6.2.18 3.64.36-2.55-.37-9.29-.37-12.75 0-3.46-.36-3.82 0-7.28s.37-6.74.37-6.74zm9.66 5.28c0 2.55-.37 8.2-.37 11.11 0 2.92.73 7.29 1.64 10.57.91 3.27 1.27 6.74 1.27 6.74s2.55-2.55 0-7.47-2-10.93-2-12.75c0-1.82-.55-8.2-.55-8.2zm8.74-7.83c0 2.18-.55 4 .36 7.47s1.28 2.55.73 5.46c-.55 2.92-.9 2.92-.9 5.47s.17 4.18.17 4.18-.18-4.55.55-5.82c.73-1.28 1.27-5.1 1.27-6.38 0-1.27-.9-2.37-1.09-3.46-.18-1.1-.9-3.82-.9-3.82zm12.93 6.56c0 2-1.1 4.37-.73 8.2.37 3.82-1.1 3.45 1.46 6.91 2.55 3.46 2.37 4.01 4 6.74 1.64 2.73 3.1 8.2 3.1 8.2s-1.27-8.56-1.82-9.3c-.55-.72-3.64-6-3.82-7.1-.19-1.09-1.46-2.36-1.83-4-.36-1.64-.36-9.65-.36-9.65zm12.02 1.45c1.46 3.1.91 2 1.82 6.92s-.18 4.01 1.1 8.02 2 6 3.1 8.38c1.08 2.36.9 2.36 2.72 5.64a29.9 29.9 0 0 1 3.1 7.65c.36 1.64 1.1-.9.36-3.1-.72-2.18-1.82-4.37-2.73-7.64-.9-3.28-2.73-5.65-3.28-7.65-.54-2-2.36-4.37-2.36-5.65 0-1.27-1.28-7.83-1.28-7.83l-1.1-2.73zm-73.04-6c0 2.18-1.82 5.82-1.64 8.55.19 2.74 1.64 8.93 1.83 9.66.18.73 1.09 3.1 1.45 6.19.37 3.1.37 5.46.91 3.1.55-2.37.19-9.3-.72-12.03-.92-2.73-2-3.27-2-5.64v-4.56c0-1.09.17-5.28.17-5.28zM850.32 176c2.91-.18 4.92-.9 7.83-2.55 2.92-1.64 5.47-5.46 6.01-6.19.55-.73 1.64-6.01 1.64-4.74 0 1.28.37 4.01-1.46 6.74-1.82 2.74 1.28 1.82-3.27 3.83-4.56 2-1.83 1.46-4.92 2.18-3.1.73-5.83.73-5.83.73zm-.91 16.58c2.37-1.1 7.65-1.64 9.47-4.56 1.82-2.91.18-3.1 2.91-5.1 2.74-2 1.83-.9 4.56-3.82 2.73-2.91 3.46-5.1 3.46-5.1l-2.92 6.2s-2-.37-3.27 3.09c-1.28 3.46-.55 3.1-1.83 4.73-1.27 1.64 3.28.19-2.18 2.19-5.47 2-7.65 1.82-7.65 1.82zm13.11 4.92c2-.37 4-1.64 5.83-4.74 1.82-3.1 2.73-5.28 4.55-6.92 1.83-1.64 3.65-5.83 3.65-5.83s-.37 5.1-.91 5.83c-.55.73-3.46 1.27-3.65 2.55-.18 1.27.19 1.46-.72 3.1-.91 1.63-1.1 1.63-1.64 2.55a14.2 14.2 0 0 1-2.37 2.36l-2.73.73zm104.19-13.85c.36 2.37 1.09 6.2 2.36 8.02 1.28 1.82 4.01 5.83 4.92 8.2.91 2.36 3.1 10.2 3.1 10.2s.18-4.74-.18-6.02c-.37-1.27-1.46-4-1.83-5.46-.36-1.46-2.18-4.74-2.73-5.83-.54-1.1-2.37-2.73-2.55-3.83-.18-1.09-3.1-5.28-3.1-5.28zm4.19-3.64s1.27.36 2.18.91c.91.55 3.1.18 4.19 1.1 1.1.9 2.91 1.81 3.28 3.27l.55 2.19s-1.28-2.37-2.55-3.28c-1.28-.91-2.92-1.46-4.56-2a42.1 42.1 0 0 1-2.91-1.1z" fill="#c9c9c9"/><path d="M858.31 229.8c2.37-.54 2.03 2.5 7.67 1.95 5.65-.55 9.11-2.74 9.84-4.01.73-1.28.73-7.1 1.46-6.56.72.55 1.27 4.74 2.55 5.28 1.27.55 1.82 2.2 3.64.55 1.82-1.64 2.73-2.18 2.91-3.82.18-1.64-.18-5.65.73-4.92.91.73 3.28 7.28 3.28 7.28s0-6 1.1-4.55c1.08 1.46 2.72 5.28 2.72 5.28s1.1-4.39 2.61-4.56c.85-.1 1.95 2.8 4.3 3.58 6.56 2.19 3.96.53 6.51 1.8s-.9-3.34 3.3-3.34c1.68 0 2 3.1 3.22 4.12 1.8 1.52 2.62-1.28 2.62-1.28s3.13-3.6 3.67-4.5c.55-.92-.73-8.38 1.28-4.01 2 4.37 4.82 5.69 4.82 5.69l1.94 1.3s2.7-1.71 3.44-1.53c.73.18 2.19.66 3.1.66.9 0 1.87-1.73 2.6-2.55l2.16-2.45s-.46-3.3 4.48-3.68c2.33-.37 3.32 6.93 5.14 7.3 1.82.36-2.52-8.1.58-5.73 3.1 2.37 2.7 5.72 4.89 7.18 8.36 13.36.95 1.8 1.78 2.8l3.1 2.59s1.7 4.97.26 5.68c-2.4 1.18-3.24-1.77-3.24-1.77s-4.82-5.3-7.55-5.47c-2.73-.19-4.55-2.37-9.65 0-5.1 2.36-3.1 1.45-7.47 3.1-4.37 1.63-5.1 2.54-8.38 2.36-3.28-.18-4.9 1-8.36 1s1.14-.79-5.51.38c-5.24.93-10.43 1.77-15.04 1.28-1.32-.14-2.6.74-3.8.1-1.2-3.22 1.52-3.33 1.38-4.95-3.75 1.13-4.22 1.27-6 2.37-2.74 3.64-.88 3.6-3.25 5.06-2.37 1.46-4.77 4.6-4.77 4.6s-.37.54-3.28-2.74c-2.91-3.28 1.86-.54-3.79-2-5.64-1.45-.72-1.89-5.28-2.43-.45.2-2.75-2.12-2.75-2.12z" fill="#acacac"/><path d="M948.2 211.54s0 3.07-.75 4.54c-.75 1.46-1.8 0-5.11.36-3.31.37-1.96 4.04-1.96 4.04l-2.7 3.67-1.21.73-6.02 1.71s-3.31 0-4.97-1.34c-1.65-1.35-1.5-.98-2.85-1.96s-3.01 1.71-3.46 2.45c-.46.73-2.56 2.8-4.97 3.05-2.4.25-2.1-2.93-3-4.03-.91-1.1-.3 1.83-1.21 3.18-.9 1.34-1.66.24-4.82-1.1s-3.46.36-3.46.36l-5.11-4.52s-.3 2.57-1.06 5.62c-.75 3.06-3 3.8-4.06 7.58-.17.62-.81.7-.95 1.14.12.06 1.4.73 2.37.73.42 0 1.03-1.13 1.89-1.02 1.32.16 2.47 1.25 3.87 1.32.71.04 2.05-.47 2.05-.47s3 .59 4.52.49c1.04-.07 3-.74 3-.74s1.67 1.23 2.71 1.35c.77.09 2.26-.49 2.26-.49s1.98.87 3.01.73c.96-.12 2.4-1.34 2.4-1.34s2.7.76 3.92.37c.73-.24 1.5-1.47 1.5-1.47s1.63 2.1 2.86 1.96c1.19-.15 1.66-1.72 1.96-2.45.3-.73 3.61-.37 3.61-.37l3.02-.32 2.7-1.14 1.66-.98s2.37-.87 3.6-.86c1.3.02 2.48 1.1 3.77.98.88-.08 1.54-.91 2.4-1.1a9.7 9.7 0 0 1 4.52 0c1.13.3 3.04 1.76 3.04 1.76-.03-.05 3.06.04 3.03 0-1-.35-6.07-2.2-6.72-6.48-1.05-3.91-.84-2.04-2.65-5.58-1.8-3.55-2.64-10.36-2.64-10.36zm-75.62 21.37c1.8 0 4.25-.77 4.5-1.29s.13-1.8.65-1.67.39 1.93 1.42 2.06c1.03.13 4.76-2.45 3.6-.9-1.16 1.54-3.86 1.8-4 3.34-.12 1.55-.9 2.2-.9 2.2s-.9-1.8-1.54-2.07c-.64-.25-3.73-1.67-3.73-1.67z" fill="#959595"/><path d="M808.63 168.28a6.2 6.2 0 0 1-1.22-.16 3.09 3.09 0 0 1-.55-.23 3.55 3.55 0 0 1-.27-.15h.11a.47.47 0 0 1 .15.02l.54.17a6.36 6.36 0 0 0 1.1.16h.85c.33-.03.63-.08.95-.16a1.83 1.83 0 0 1 .14-.03c.02 0 .04.03.04.05 0 .07-.3.17-.77.25a4.73 4.73 0 0 1-1.07.08z"/><path d="M988.26 207.13c-.68.43-1.22 1.05-1.54 1.27-.68.45.15 3.3.23 4.51.07 1.2-1.88 2.7-3.84 3.09-1.96.37-.83 3.9-1.43 5.71-.6 1.8-.6 3.61-1.05 4.97-.45 1.35-3.46 2.48-3.84 3.76-.24.83.31 2.55 1.14 4.19.44-.18.87-.42 1.32-.52 1.5-1.36.9-2.98.9-4.52l3.47-2.1 1.8-3.61c.78-1.82.21-3.96-.6-6.17l2.86-.9.15-6.78.45-.6v-2.25z" fill="#959595"/><path d="M857.12 225.36c1.18.09 5.07 1.99 6.07 3.53 1 1.54.36 2.35 2.71 4.62 2.36 2.26 5.7 3.44 6.07 3.62.36.18 1.63 1.26 4.16 1.8 2.54.55 1.18 1.64 2.63 1.1 1.45-.55 1.36-1.1 2.53-2.63 1.18-1.54 2.45-3.53 3.17-3.99.73-.45 1.45-1.8 1.54-3.53.1-1.72 1.54-1.26.1-4.25-1.46-2.99-4.54-7.52-5.17-9.42-.63-1.9-1.9-4.7-2.35-4.52-.46.18-5.43 1.26-6.34 2.53-.9 1.27-4.62 3.53-5.25 4.26-.63.72-4.35 2.9-4.98 3.62-.63.72-4.53 3.35-4.89 3.26z" fill="#e5e5e5"/><path d="M859.41 222.07c3.86-.19 3.65-.73 6-.73 2.36 0 .36.15 4.34.15 3.99 0 5.07-.36 7.25-1.63 2.17-1.27 4.34-4.53 4.34-4.53s-1.81 3-3.8 5c-2 1.99-3.16 1.94-5.52 1.76-2.35-.18-6.25-.06-6.25-.06l-8.69.73zm5.64 5.21s3.63.14 5.44.08c2.18-.08 4.44.12 6.52-.55 1.4-.44 3.79-2.24 3.79-2.24s-1.74 1.37-2.7 1.88a13 13 0 0 1-3.82 1.48c-2.02.34-4.1-.03-6.14-.21a55.4 55.4 0 0 1-3.1-.44zm6.15 5.43s2.18.73 4.53 0c2.35-.72 2.17-.72 4.34-1.63 2.18-.9 3.44-2.17 2.72-1.44-.72.72-3.62 2.17-3.62 2.17l-4.53 1.09z" fill="#c9c9c9" stroke="#b3b3b3" stroke-width=".16"/><path d="m825.78 272.77 7.98-3.09c-3-4.3-3.74-9.13-3.6-14.16 3.3 3.02 6 6.38 8.91 10.37-4.83-6.04-4.5-9.17-4.22-15.07l6.13 9.33c-.3-3.12-.98-6.11 1.28-10.04 2.75 2.72 3.24 6.94 3.87 11.07.44-3.12 1.33-5.3 3.4-8.31 1.63 3.32 1.88 7.43 1.84 11.7 1.13-3.07 2.2-6.19 4.15-8.55a29.6 29.6 0 0 1 1.06 10.29c.91-4.03 3.75-4.91 6.94-5.22.52 1.03.35 2.56-.95 4.93 1.76-1.92 3.68-3.76 7-4.84-.19 1.92-.4 3.84-2.5 5.87 3.39-3.43 5.67-7.3 11.51-9.73l-3.73 10.53c2.56-5.1 5.9-9.97 13.26-13.62.01 2.4-.12 4.79-1.54 6.95 2.55-4.07 6.66-6.82 12.62-7.98-.4 2.7-2.3 5.05-4.38 7.21 3.23-2.84 6.11-6.33 12.1-7.47l-5.15 7.99c3.8-2.46 7.08-5.75 12.11-6.19.66 1.21-4.64 6.44-4.64 6.44s10.86-9.18 16.75-8.75c-1.68 3.91-3.37 6.21-7.47 9.01 3.4-2.5 6.1-5.84 11.07-6.44-.63 2.27.92 4.25-3.09 6.96 2.98-1.25 6.01-3.27 8.76-.58a8.91 8.91 0 0 1 2.32-4.77c3.07 2.4 3.86 3.46 4.9 5.86-.8-3.03-.49-5.81.25-8.5 4.11 2.41 3 6.24 3.67 9.6.6-3.64-1.54-8.13 3.54-10.37 1.3 2.7 1.52 5.03 1.3 7.21 3.83-1.55 6.36-3.18 7.46-4.9 1.49.62 1.69 2.06-.26 4.9 3.1-2.63 6.19-6.04 9.28-5.41-.53 1.4-.7 3.2-1.68 5.8 2.92-5.12 5.68-6.12 10.7-6.57-.4 2.18-2.37 5.03-5.16 8.24 5.24-6.86 10.64-10.05 16.23-9.01-1.42 3.1-2.18 6.31-7.21 8.75 4.28-2.27 8.45-5.83 13.39-1.54-2.64 2.92-7.12 4.24-12.5 4.76l12.24 11.2-.51 11.08-168.2-2.83z" fill="#3d6c1e"/><path d="M840.92 271.57s4.67 1.58 4.12-.24c-.54-1.82-2.36-5.65-2.36-5.65s1.64-.72 2.55 0c.9.73 2.36 1.46 2.36 1.46l.55-2.18-2.19-2.37s.91-1.27 1.82 0c.91 1.28 1.46 2 2.37 2.73.91.73 3.46 2.37 3.46 2.37l1.65-2.19 1.63 1.64 2.37-2.73 1.27 4 3.83-3.27s-.19 1.82 0 2.73c.18.92-.55 3.28 1.09 2.55 1.64-.73 4.55-3.28 4.55-3.28s-1.82 3.1-.72 3.46c1.1.37.9 2 2.54.37 1.65-1.64 1.65-1.83 2.92-3.1 1.28-1.28 1.82-4.37 1.82-1.82s.18 3.64.18 3.64.18 1.28 1.28 1.1c1.1-.19 1.64-.55 2.55-1.46.9-.91 1.46-3.1 2.73-3.46 1.28-.37 2.37-.18 4.01-1.1 1.64-.9 4.19-2 4.92-2 .72 0-1.83-1.28 1.82.37 3.64 1.64 4.18 1.27 4.91 1.82.73.54.92.36 5.29 2.73s3.58-4.14 3.58-4.14 10.52 11.7 11.72 11.8c.94.07-4.54-6.3-3.76-6.15 2.09.37 5.03 3.4 5.03 3.4l.86-2.17-4.64-3.12 6.28.14-3-2.87-.18-1.83s1.64-.18 2.36.18c.73.37-.9 2.19 3.64 2 4.56-.17 4.74-.72 4.74-.72s1.46-.73 2.37.91c.9 1.64-.04-.53 2.5.39 2.56.9 1.83 2.73 2.74.72.9-2 1.1-3.1 1.1-3.1l1.63 4.01s1.27.91 1.46.18c.18-.72.72-2.55.72-2.55l1.28 2.74 1.1-1.28 1.09-1.64 2.73-.9 2.55-.73 1.46.9.9-.54 2.01.18 1.64-.55 1.64.73 1.82.73 2.37 1.46s-1.46.54 1.46-.18c2.91-.73 3.28-2.2 5.46-2.2 2.19 0 5.47-1.27 6.56-.72 1.09.55.9-1.1 2.18 1.27 1.28 2.37 1.46 1.28 2.37 5.1.9 3.83.9 3.29.9 7.84s-.35 6.92-.35 6.92l-43.35-.18-63.2-1.28-25.5-.18-9.47-2.12-2.13-4.66 4.41 1.31z" fill="#294814" stroke="#007300" stroke-width=".16"/><path d="m850.04 273.34 1.9 14.22 7.3 4.42 11.92.12.23-8.46-2.8 1.35 1.9-4.53-3.26.77.97-3-4 1.42-1.15-4.12-2.06 2.57-.65-3.6-1.93 2.32.26-3.48-2.58 2.45-.9-3.61-1.68 4.38zm75.73-1.8.74 6.5-3.57-3.2 1.8 8.54 6.06 4.56 12.52 3.03-.52-2.88.72-3.73 3.2-1.64-3.05-2.81-2.7 1.28v-2.44l-2.45 1.67-.26-5.8-3.14 4.45.05-4.19-3.7 2.15.22-4.6-1.73 2.2-1.36-5.16-1.16 3.61zm20.35 8.62 7.34 4 12.06-3.73-1.5-10.96-2.06 3.22-.77-3.47-1.68 2.96-2.7-3.22v3.86l-3.61-4.25v6.57s-4.12-3.6-4.12-3.09c0 .52.64 3.35.64 3.35l-3.22.26 3.6 2.44z" fill="#98b432"/><path d="M832.2 260.98c.18.91-.36.82 1.1 3.1s1.27 2.18 2.36 3.91 1.46 2.64 1.46 2.64l-3.46.91 4.92-.45 1.27-.36s-1.82-1.19-2-1.64c-.19-.46-2.37-2.92-2.64-4.1a14.7 14.7 0 0 0-1.55-3.19z" fill="#3d6c1e"/><path d="M831.92 260.34c0 .37.46.46.91 1.83.46 1.36 1 2.64 1.19 3 .18.36 1 2 1.45 2.55.46.55 1.46 1.46 1.46 1.46l-.9-3.55s-1.2-2.1-1.38-2.74c-.18-.63-2.73-2.55-2.73-2.55zm3.65-4.73c-.1.36-.16 2.46.2 3 .37.55.25 1 .98 2.37s1.82 3.1 1.82 3.1zm6.55-3.1s-.6 1.92-.63 2.92c-.04 1.5.72 4.46.72 4.46zm7.3 1.91.86 3.96.39 5.06s-1.84-3.2-1.68-3.58c.16-.38.42-5.44.42-5.44zm5.76 3.67.64 3.32-.1 3.67s-.83-2.17-.93-3.32c-.1-1.22.39-3.67.39-3.67zm7.5 4.06.1 1.54-.55 1.71-1.26.42.68-1s.42-1.1.45-1.22c.03-.13.58-1.45.58-1.45zm6.11.06c.07.13-.06 1.61-.06 1.61l-.97 1.97-1.96 1.67 1.35-2.03 1.16-1.83zm8.44-3.46s-.91 2.19-.91 2.46-1.37 4.1-1.37 4.1l-.77 2s-2.96 1.73-2.69 1.69a7.21 7.21 0 0 0 2.19-2c.32-.65 1.27-3.56 1.5-3.88.23-.32 1.19-3.19 1.19-3.19zm10.24-3.05c.05.32-.27 2.6-.4 3.19-.14.59-.64 1.59-.87 2.1-.23.5-1.32 2.18-1.68 2.63-.37.46-1.64 1.1-2 1.46-.37.36-1.33.82-1.74 1.37-.4.54-2 2.5-2 2.5s.32-1.6.73-2.23c.4-.64-.1-1.23 1.23-2.05 1.32-.82 2.14-1.14 2.46-1.41.31-.28 1-1.19 1.4-1.78.42-.59 1.37-2.78 1.5-2.96.15-.18 1.38-2.82 1.38-2.82zm10.57-1.32c0 .27-.5 1.73-.68 1.96-.19.22-.96 1.36-1.32 1.86-.37.5-1.28 1.28-1.55 1.55s-.23.6-1.19 1.19-1.45.77-2 1.04l-2 1.05s1.55-1.55 2.23-1.87c.68-.32 1.64-.73 2.18-1.64.55-.9 2.33-2.73 2.33-2.73s.27-.77.95-1.14c.69-.36 1.05-1.27 1.05-1.27zm7.6-.32c-.36.41-.72.5-1.23 1.32-.5.82-.72 1-1.27 2s-.82 1.23-1.28 2.05c-.45.82-.68 1.32-1.13 1.78-.46.45-2.7 1.5-2.7 1.5s.6-.82 1.38-1.41c.77-.6 1.04-1.5 1.64-2.28.59-.77 2.5-3.64 2.5-3.64zm7.34 1.46c0 .18 0 .63-.6 1.18-.59.55-1.27.96-1.54 1.32-.28.37-.46.27-1.37 1.37-.91 1.09-1.55 1.4-2.1 2.23-.54.82-2.64 2-2.64 2s1.19-.95 2.05-1.86c.87-.91.78-1.73 1.87-2.55 1.1-.82 1.46-1.1 2.19-1.69.72-.6 2.14-2 2.14-2zm12.1-2.42c-.13.32-.58 1.14-1.22 2.19s-1.05 1.37-1.55 2.14-.77 1.23-1.14 2.14c-.36.9-.23 1-.73 1.6-.5.58-1.27.9-2.14 1.18-.86.27-2 .54-3.05.77-1.05.23-2.27 1-2.27 1s1.13-1.09 1.86-1.45a35.3 35.3 0 0 1 2.64-1.23 7.43 7.43 0 0 0 2.32-1.32c.41-.46 1.05-1.6 1.28-2.1.23-.5 1.37-2 1.6-2.23.22-.23.68-1 .86-1.32.18-.32 1.55-1.37 1.55-1.37zm3.6 3c-.09.37-.68.74-.63 1.56.04.82.23 1.36.04 1.77-.18.41-.32.55-.9 1.05-.6.5-1.37.6-1.7 1.23-.31.64-.54.86-.54.86s.18-1.45.68-2.09c.5-.64.96-.96 1.37-1.27.4-.32.5-.64.64-1.19.13-.54.09-1 .27-1.23.18-.23.77-.68.77-.68zm8.93 1.65s-.68.63-.77 1.36c-.1.73-.55 1.69-.32 2.42.22.73.36.86.4.36.05-.5 0-1.23.28-1.68.27-.46.64-1.87.64-1.87zm5.56-2.17c-.2.7-.64.39-.64 1.67 0 1.3-.2 1.1 0 2.13s.13 1.87.51 2.96c.39 1.1.71 1.87.71 1.87s-.26-2.06-.2-2.58c.07-.51-.06-1.67.07-2.44.13-.78 0-1.8 0-2.2a6.1 6.1 0 0 0-.45-1.41zm5.93-1.16s-.9.2-1.1.77c-.2.58-.84.39-.84 1.94 0 1.54-.06.9-.06 2.12 0 1.22-.13 3.48-.13 3.48s.45-.45.52-1.48c.06-1.03-.07-1.94.19-2.77.26-.84.2-1.61.45-2.06.26-.45.97-2 .97-2zm9.7 2.4c-.05.4-.05.82-.17 1.2-.16.51-.07.33-.71 1.42-.65 1.1-1.35 1.61-1.35 1.61s1.61-1.33 2.19-2.19c.28-.42.55-.9.58-1.41.02-.5-.46-1.43-.46-1.43l-.08.8zm7.67-1.39c-.03.36-.16 1-.21 1.53-.05.53-.26.92-.36 1.61-.1.7-.16 1.07-.41 1.45-.26.39-.36.36-.99.95-.62.6-.67.95-.13.61.55-.33.99-.54 1.3-1 .3-.44.57-1.47.77-2 .19-.54.25-1.28.33-1.76.08-.48-.08-1.01-.08-1.08 0-.06-.22-.3-.22-.3zm8.76-.45c-.05.36.1.86-.07 1.34s-.39.89-.6 1.48c-.2.6-.67.97-1.09 1.64-.42.68-.64.95-1.1 1.36-.45.4-1.85.9-1.85.9s1.52-1.18 1.92-1.53c.4-.36.5-1.18 1.05-1.79.54-.61.74-1.27.95-1.6.2-.31.41-1 .46-1.09l.33-.7zm11.38-1.01c-.14.23-.32.4-.55 1.18-.23.78-.27 1.19-.68 1.78-.41.59-.96 1.14-1.32 1.82-.37.68-.73.96-1.28 1.55-.55.59-3.14 1.4-3.14 1.4s.9-.5 1.82-1.36c.9-.86 1.41-1.77 1.91-2.5s.73-1.87 1.55-2.6c.82-.73 1.69-1.27 1.69-1.27zm5.82 6.6c-.63.32-1 .32-1.73 1.05s-2.36 1.23-3.14 1.45c-.77.23-2.91.41-3.28.5-.36.1-3.23.37-3.23.37s.73.55 1.91.5c1.19-.04 1.96-.45 2.83-.5.86-.05 1.54-.5 2.14-.55.59-.04 2.45-.9 2.64-1.04.18-.14.72-.32 1.09-.73s.77-1.05.77-1.05z" fill="#98b432"/><path d="M814.07 267.33c-18.06 0-24.08 15.76-42.15 15.76v31.51c3.2-.98 30.1-15.75 42.15-15.75 12.04 0 30.1 15.75 42.14 15.75s29.81-15.75 42.14-15.75c12.05 0 34.2 15.75 48.17 15.75 18.06 0 26.46-15.75 42.14-15.75 12.05 0 26.53 15.44 36.13 15.75 0-10.5 1.35-30.04 1.35-30.04l-.49-1.29c-5.15.19-18.93-15.94-36.99-15.94-18.06 0-30.1 15.76-45.98 15.08-15.89-.68-26.26-15.08-44.33-15.08-18.06 0-24.08 15.76-42.14 15.76s-24.08-15.76-42.14-15.76zm.25 64.88c-12.34.12-32.76 16.59-34.47 16.83 1.62.83 15.72 25.31 15.72 25.31s5.72-3.28 18.06-5.25c12.34-1.97 25.23 11.29 39.7 13.52 14.48 2.23 32.2-13.52 44.58-13.52 12.05 0 28.44 16.54 44.33 13.52 15.88-3.02 22.07-20 37.04-19.39 14.96.61 20.98 5.87 20.98 5.87l18.07-21.01s-18.08-14.28-33.12-15.02c-15.05-.74-21.07 15.02-39.13 15.02-24.08 0-30.21-15.76-48.17-15.76-18.06 0-24.08 15.76-42.14 15.76-18.06 0-28.72-16-41.45-15.88zm85.7 73.64a29.84 29.84 0 0 0-1.69 0c-18.36.54-24.98 15.76-49.96 15.76 0 1.3 43.72 21.01 49.96 21.01 6.25 0 60.72-22.16 49.97-21-24.2 0-31.18-15.3-48.28-15.77z" fill="#fff" fill-rule="evenodd" font-size="12"/><path d="M892.86 422.74c-15.79-2.99-28.28-11.32-37.04-24.7-4.7-7.17-7.9-14.74-8.67-20.48-.44-3.3-1.26-3.86-4.74-3.2-1.96.36-2.35.2-4.22-1.84-1.13-1.24-2.06-2.41-2.06-2.62 0-.2-.42-1.17-.93-2.15a5.27 5.27 0 0 1-.6-3.04c.27-1.11-.33-1.55-4.85-3.51-2.84-1.23-5.5-2.37-5.92-2.53-.55-.21-.38 1.47.62 6.18 1.41 6.65 1.41 7.37.04 7.37-.7 0-1.86-2.62-1.63-3.71.12-.57-2.09-11.25-2.37-11.46-.57-.42-13-5.76-13.4-5.76-.79 0-16.52-9.1-16.23-9.4.32-.32 11.53 4.36 21.6 9.02 3.94 1.82 7.26 3.21 7.38 3.1.12-.13-.2-2.49-.72-5.26-1.15-6.1-1.15-6.43-.15-6.43.52 0 1.25 2.02 2.1 5.83a992.28 992.28 0 0 0 1.49 6.64c.25 1.03 8.06 4.7 27.05 12.73a250.8 250.8 0 0 1 9.42 4.12c.57.32 1.32.58 1.66.58.86 0 .63-17.5-.25-18.08-.45-.3-.42-.44.1-.45 1.4-.02.75-2.17-1.07-3.52l-1.81-1.33-1.56 1.22c-2.11 1.66-4.06 1.55-5.52-.3-1.08-1.38-1.42-1.48-3.3-.96-1.7.47-2.15.4-2.44-.36-.45-1.16.47-1.76 3.4-2.26 1.25-.2 2.26-.56 2.26-.79 0-.22-.77-1.34-1.7-2.49-3.16-3.83-4.46-7.13-4.73-11.94-.22-3.88-.05-4.87 1.21-7.33.99-1.9 1.22-2.84.72-2.84-.67 0-1.77-1.73-1.35-2.11.15-.13 6.74-1.93 14.09-3.85 2.32-.6 2.54-.83 2.54-2.58 0-1.49-.48-2.31-2.14-3.63l-2.14-1.7-1.34 1.25c-1.76 1.65-4.03 1.6-5.65-.13-2.48-2.63-2.16-2.9 5.88-4.92l5.1-1.27v-2c0-2.1-1.38-3.3-5.51-4.76-1.65-.59-2.35-.47-5.15.85-3.98 1.88-4.1 1.88-6.31.03-3.07-2.58-4.73-3.2-7.15-2.65-3.2.72-3.14.16.13-1.28 2.29-1 3.5-1.18 6.23-.86 2.9.33 3.88.16 6.88-1.22 3.45-1.58 3.55-1.59 7.18-.7 2.03.5 3.83.77 4 .6.16-.18-.05-.45-.46-.6a1.25 1.25 0 0 1-.75-1.1c0-.62.8-.86 2.89-.86h2.88l-.26 6.58c-.14 3.62-.15 6.58-.03 6.58s2.1-.56 4.4-1.25c2.3-.68 4.86-1.34 5.68-1.46 1.7-.24 2.63.82 1.7 1.94-.35.42-.47.77-.26.77.2 0-.35.8-1.23 1.8-1.61 1.8-4.15 2.38-5.33 1.2-1-.98-5.05 5.07-5.05 7.53 0 1.72.2 2.05 1.05 1.8 3.21-.91 14.54-3.96 14.74-3.96.93 0 .75 2.08-.27 3.17-.67.72-2.21 3.31-3.42 5.75-1.76 3.55-2.2 5.1-2.18 7.77.03 3.74 1.84 7.88 4.98 11.35 1 1.12 1.7 2.23 1.55 2.48-.15.24-1.16.6-2.25.81-1.58.3-2.14.8-2.74 2.46-.88 2.44-2.44 3.44-4.93 3.18-1.48-.15-2.11.24-3.77 2.34-1.1 1.38-2.18 2.33-2.41 2.1.2 9.7.02 15.64-.27 22.6-.09 2.6.18 3.43 1.8 5.56 4.77 6.28 13.16 12.95 17.38 13.8.44.1 1.2.32 1.7.51s1.97.48 3.29.65c1.32.17 3.07.5 3.9.71a52.58 52.58 0 0 0 3.17.7l1.68.32c-.19-13.2-.04-26.42-.26-39.62-.1-4.65-.24-5.21-1.72-6.66-1.57-1.54-1.63-1.56-2.64-.45-1.3 1.44-3.65 1.44-5.83 0-.94-.61-2.25-.98-2.9-.8-.69.17-1.44-.05-1.74-.52-.81-1.28-.65-1.73.62-1.73.64 0 1.3-.25 1.5-.55.18-.3-.66-3.46-1.87-7.02-1.75-5.14-2.22-7.44-2.25-11.06-.04-4.26.13-4.92 2.5-9.46 2.16-4.16 2.36-4.82 1.34-4.5-.92.3-1.19.1-1.19-.83 0-.86.57-1.37 1.95-1.74 1.07-.3 4.3-1.16 7.18-1.92l5.24-1.38v-2c0-1.56-.25-2-1.13-2-.62 0-1.74-.5-2.5-1.1-1.31-1.07-1.38-1.07-2.45 0-1.44 1.43-2.97 1.4-4.92-.14-3.28-2.58-2.1-3.58 6.66-5.64 4.09-.96 4.34-1.12 4.34-2.67 0-1.43-.5-1.9-3.81-3.52-4.64-2.28-6.01-2.33-9.6-.32-3.35 1.87-4.65 1.66-8.22-1.33-2.5-2.07-2.75-2.15-6.2-1.87l-3.6.3 3-1.44c2.65-1.28 3.5-1.4 7.55-1.07 4.15.34 4.82.23 7.48-1.18 3.35-1.78 6.32-1.96 10.69-.63 2.06.62 2.75.67 2.24.17-1.29-1.29-.79-1.69 2.12-1.69h2.84l-.2 6.5-.2 6.48 5.74-1.5c3.16-.82 5.9-1.34 6.1-1.15.72.73-1.33 4.83-3.29 6.54-2 1.76-3.49 1.96-6.1.84-1.21-.53-2.35 1.86-2.35 4.95v2.27l8.53-2.3c4.7-1.27 8.87-2.18 9.28-2.02.86.33 1.03 2.12.2 2.12s-5.91 10.73-6.7 14.12c-.58 2.54-.5 3.67.56 7.88 1.56 6.14 3.37 10.29 4.5 10.29.47 0 1.03.43 1.23.95.5 1.3.53 1.27-1.07 1.67-.86.22-1.58.95-1.8 1.85-.2.82-1.33 2.43-2.48 3.6-2.22 2.2-4.14 2.63-6.42 1.41-1.09-.58-1.42-.47-2.2.73a28.6 28.6 0 0 1-2.22 2.8c-1.27 1.37-1.29 1.74-1.35 24.09l-.07 22.7 3.45-.03a37.1 37.1 0 0 0 6.14-.6l4.2-.9c.81-.19 2.27-.72 3.23-1.2a8.27 8.27 0 0 1 2.51-.86c.43 0 1-.38 1.26-.85s.69-.85.95-.84c4.9-2.96 7.03-4.63 10.26-6.04.75-.63.94-7.33.94-7.33s-.54-11.87-.58-21.38c-.03-1.56.35-1.76.58-3.03 0-.98-.32-1.79-.7-1.79-.4 0-1.32-.56-2.05-1.25-1.28-1.2-1.39-1.2-2.92-.2-1.52 1-1.69.99-3.8-.1a11.96 11.96 0 0 0-4.6-1.14c-1.66 0-2.4-.26-2.4-.84 0-.47 1.06-1.15 2.4-1.53 2.75-.8 2.76-.87.66-6.42a55.3 55.3 0 0 1-2.22-7.83c-.64-3.44-.58-4.26.59-8.09a141 141 0 0 1 1.68-5.26c.31-.82.1-.95-1.18-.7-1.06.2-1.68 0-1.91-.62-.48-1.25-.2-1.37 8.65-3.71l7.8-2.07v-2.24c0-1.83-.22-2.25-1.16-2.25-.64 0-1.58-.59-2.08-1.3-.86-1.24-.98-1.25-2.03-.3-.61.55-1.58 1-2.15 1-2.1 0-5.34-2.52-4.95-3.84.1-.3 2.84-1.25 6.12-2.12l5.95-1.56.18-2.12c.17-1.97-.01-2.22-2.55-3.57-2.67-1.4-2.79-1.41-4.57-.4-2.5 1.43-3.72 1.32-5.88-.5-1.46-1.22-2.23-1.46-3.79-1.17l-1.95.37 1.72-.97a7.06 7.06 0 0 1 4.19-.72 8.48 8.48 0 0 0 4.84-.91c2.01-1 2.77-1.08 5.09-.55 2.47.56 4.38.33 2.57-.31a1.25 1.25 0 0 1-.75-1.11c0-.62.8-.85 2.87-.85h2.88l-.25 5.68c-.14 3.12-.01 5.68.28 5.68.46 0 7.37-1.8 10.54-2.76.76-.22 1.05.03 1.05.92 0 1.32-1.07 2.86-3.87 5.6-1.39 1.36-2.17 1.68-3.6 1.45-1.55-.24-2 .01-3.16 1.78-1.46 2.24-1.82 5.58-.6 5.55 1.04-.01 13.44-3.39 14.2-3.86 1.62-1 1.12 1.92-1.04 6.12-4.98 9.68-5.25 12.7-1.86 20.77 1.61 3.84 2.07 4.46 3.06 4.15.94-.3 1.12-.11.96 1-.14.95-.77 1.51-2.06 1.85-1.2.3-2.47 1.35-3.56 2.91-1.9 2.75-4.56 4.4-6.24 3.86-.82-.26-1.4.14-2.2 1.46-.59 1-1.27 1.82-1.5 1.82-.25 0-.4 1.08-.35 2.4.19.74.13 1.52.1 2.28-.01.85.82 2.04.38 1.35-.32-.51-.55 4.02-.59 11.6-.05 12.42-.04 12.46 1.15 11.38.66-.6 1.2-1.45 1.2-1.89 0-.44.33-.74.74-.66.48.1.74-.66.74-2.23 0-1.46.3-2.42.76-2.47l1.35-.15c.87-.11.2-.95.31-2.11-.23-1.45-.1-2.08-.14-2.87.11-1.75.62-2.87-.16-2.87a.6.6 0 0 0-.61.6c-.64-1.2-.11-.48-.72-1.6-.16-.62.06-2.55.49-2.96.63-.58 12.65-2.55 17.9-3.46l1.64-.28c.24-.04.45-2.33.45-5.09 0-4.97-.02-5.01-1.76-5.73-1.38-.57-2.19-.57-3.82.02-1.85.67-2.24.62-3.64-.48-.92-.72-2.07-1.1-2.76-.93-.66.17-1.2.05-1.2-.28 0-.75 3.03-1.38 4.64-.96.67.18 2.04-.1 3.04-.62s2.18-.84 2.61-.7c.44.13 1.53.4 2.44.6l1.64.36v6.57c0 7.69-.84 7.2 8.68 5.04a83.27 83.27 0 0 1 8.99-1.63c2.36-.13 2.39-.1 2.3 1.86-.06 1.25-.55 2.32-1.3 2.84-2.57 1.8-3.06 13.94-.62 15.24 1.25.67 1.53 3.5.36 3.63-.4.05-4.27.02-8.57-.06l-7.83-.15-1.9 5.32c-5.55 15.49-17.48 29.45-30.94 36.21a79.6 79.6 0 0 1-16.15 5.63c-6.1 1.31-20.46 1.6-26.21.5zm-34.42-79.34c2.68-.65 2.84-.8 2.84-2.68 0-1.1-.18-1.99-.4-1.99-.74 0-6 3.6-7.14 4.89-1.13 1.27-1.13 1.28.36.87a204.87 204.87 0 0 1 4.34-1.1zm35.02-.57 4.94-1.29v-2.58c0-2.2-.15-2.53-1.05-2.21-1.4.5-8.1 5.22-9.08 6.41-1.03 1.24-.68 1.21 5.2-.33zm37.87.18c3.81-1.07 3.9-1.14 4.08-3.28.1-1.2-.05-2.2-.33-2.2-.68 0-5.36 3.07-7.64 5.01-2.19 1.86-1.4 1.96 3.89.47zm-59.06-3.34c2.91-.8 5.45-1.6 5.64-1.8.18-.18-2.54-.34-6.05-.34h-6.39v1.8c0 2.17.1 2.18 6.8.34zm42.5-2.54c3.23-.69.24-1.37-6.04-1.38l-6.14-.01v4.67l5.24-1.46c2.88-.8 6-1.62 6.93-1.82zm31.14 1.94c2.91-.8 5.45-1.6 5.64-1.8.18-.18-2.39-.33-5.72-.33s-6.19.22-6.35.5c-.38.6.23 3.08.76 3.08.2 0 2.76-.65 5.67-1.45z" fill="#280b0b" stroke="#280b0b" stroke-width="1.3"/><path d="M900.99 444.36S768.92 414.75 769.65 291.6V118.03h258.78l1.95 172.63c.73 123.14-129.4 153.7-129.4 153.7zm-.18-5.5s-126.93-29.5-126.2-152.65l.97-162.78h247.28l1.7 161.84c.73 123.14-123.75 153.6-123.75 153.6z" fill="#fff" fill-rule="evenodd" font-size="12" stroke="#000" stroke-width="1.23"/><g transform="matrix(1.4812 0 0 1.5488 323.94 -124.04)"><g fill="none" stroke="#512007"><g stroke-width=".39"><path transform="matrix(1 0 0 1.006 -8.77 -141.32)" d="m413.3 472.4 7.86-27.86 1.97-4.34m-6.41 30.3c0-.3 6.4-30.27 6.4-30.27m-3.39 27.46c.21-1.27 3.17-22.56 3.17-22.56l.22-4.9"/><path transform="matrix(1 0 0 1.006 1.92 -3.19)" d="m405.27 325.3 4.65.52m-3.58-4.4 4.13.66m-3.06-4.45 3.52.63m-2.54-4.41 3.1.58"/><path transform="matrix(1 0 0 1.006 -8.77 -141.32)" d="m420.23 447.36 2.48.55"/><path transform="matrix(1 0 0 1.006 1.92 -3.19)" d="m405.64 323.4 4.52.59m-3.4-4.47 4.13.66m-3.08-4.45 3.51.63m-2.6-4.42 3.08.58"/><path transform="matrix(1 0 0 1.006 1.92 -3.19)" d="m404.57 327.21 4.97.51m-5.52 1.4 5.3.5" stroke-width=".4"/></g><path d="m414.16 265.56 9.28 5.29 2.61 6.39" stroke-width=".27"/><g stroke-width=".32"><path transform="matrix(1.2162 0 0 1.2235 -125.57 -237.03)" d="m414.44 468.47 6.72-23.93 1.97-4.34m-6 28.99c0-.3 5.99-28.96 5.99-28.96m-3.63 29.16c.21-1.27 3.41-24.26 3.41-24.26l.22-4.9"/><path transform="matrix(1.2162 0 0 1.2235 -112.57 -69.05)" d="m405.27 325.3 4.65.52m-3.58-4.4 4.13.66m-3.06-4.45 3.52.63m-2.54-4.41 3.1.58"/><path transform="matrix(1.2162 0 0 1.2235 -125.57 -237.03)" d="m420.23 447.36 2.48.55"/><path transform="matrix(1.2162 0 0 1.2235 -112.57 -69.05)" d="m405.64 323.4 4.52.59m-3.4-4.47 4.13.66m-3.08-4.45 3.51.63m-2.6-4.42 3.08.58m-7.23 14.69 4.96.51m-5.51 1.4 5.3.5"/></g><path d="M336.13 310.08c11.19-14.07 19.47-27.86 27.42-42.95m-45.12 35.08c5.53-3.36 25.73-15.53 37.34-24.97a28.87 28.87 0 0 0 8.08-10.68m.87.22c-.3 0 8.57 6 8.57 6l1.6 6.79m56.4 30.52c-.3 0-33.14-41.33-33.14-41.62 0-.29-9.05-6.8-9.05-6.52l-7.62 10" stroke-width=".27"/><g font-size="12" stroke-width=".48"><path transform="matrix(.84711 0 0 .78432 5.02 -42.67)" d="m413.63 471 7.58-27.03 2.02-3.78m-7.04 31.61 6.16-27.54.88-4.07m-4.4 31.18 4.79-26.86-.4-4.32m-9.3 27.04 6.1.86" stroke-width=".47"/><path transform="matrix(.84711 0 0 .75482 34.96 74.7)" d="m380.15 325.92 5.19.74m-4.07-4.84 4.78.65m-3.74-4.78 4.28.55m-2.99-4.7 3.57.57"/><path transform="matrix(.84711 0 0 .78432 5.02 -42.67)" d="m419.95 447.42 3.57.62" stroke-width=".47"/><path transform="matrix(.84711 0 0 .75482 34.96 74.7)" d="m383.95 311.5 3.57.57m-4.74 3.58 4.28.56m-5.52 3.58 4.77.65"/></g></g><g stroke-width=".62"><path d="M412.8 266.4s-2.35-.84-3.56-.74c-1.17.1-2.1 1.14-3.25 1.3-1.02.15-2.06-.45-3.07-.29-.93.15-2.58 1.13-2.58 1.13s1.66-.58 2.48-.42c1.22.24 1.9 1.8 3.14 1.92 1.16.12 2.11-1.22 3.28-1.18 1.32.04 3.6 1.57 3.6 1.57z" fill="#fff" stroke="#512007" stroke-width=".54"/><path d="M409.24 265.66c-.06 0-.12.03-.19.04v.88c-1.1.13-1.9 1.32-3.02 1.39-1.03.06-1.9-.92-2.94-.95-.67-.02-1.7.32-2.33.55l-.05.02c.6-.2 1.66-.52 2.31-.46 1.1.1 1.9 1.32 3 1.34 1.09.02 1.9-1.18 2.99-1.22h.04v.87h.2c.12 0 .46.06.6.1v-.86c1.35.24 2.95 1.15 2.95 1.15v-1.16s-1.63-.63-2.95-.72v-.95a3.22 3.22 0 0 0-.6-.02z" fill="#a00"/></g><g stroke-width=".54"><path d="M388.07 262.28h2.41v72.95h-2.4z" fill="#dd8b59" stroke="#512007"/><path d="M388.48 262.26h1.6v72.98h-1.6z" fill="#e6ab87"/><path d="M388.9 262.26h.76v72.98h-.76z" fill="#efc9b2"/><path fill="#dd8b59" stroke="#512007" d="M387.35 261.27h3.86v.79h-3.86zm-24.27 5.55h2.41v72.95h-2.41zm-.73-1.12h3.86v.79h-3.86z"/><path d="M363.57 266.92h1.42v72.74h-1.42z" fill="#e6ab87"/><path d="M363.96 266.92h.65v72.74h-.65z" fill="#efc9b2"/><path d="M413.07 265.66h2.41v72.95h-2.41zm-.72-1.06h3.86v.79h-3.86z" fill="#dd8b59" stroke="#512007"/></g><path d="M413.48 265.67h1.6v72.98h-1.6z" fill="#e6ab87"/><path d="m323.84 304.7 10.79-2.11 16.43 14.76-13.12 2.08z" fill="none" stroke="#512007" stroke-width=".27"/><path d="M413.9 265.67h.76v72.98h-.76z" fill="#efc9b2"/><g fill="none" font-size="12" stroke="#512007" stroke-width=".48"><path transform="matrix(-.84711 0 0 .78432 772.98 -43.83)" d="m413.63 471 7.58-27.03 2.02-3.78m-7.04 31.61 6.16-27.54.88-4.07m-4.4 31.18 4.79-26.86-.4-4.32m-9.3 27.04 6.1.86" stroke-width=".47"/><path transform="matrix(-.84711 0 0 .75482 743.04 73.54)" d="m380.15 325.92 5.19.74m-4.07-4.84 4.78.65m-3.74-4.78 4.28.55m-2.99-4.7 3.57.57"/><path transform="matrix(-.84711 0 0 .78432 772.98 -43.83)" d="m419.95 447.42 3.57.62" stroke-width=".47"/><path transform="matrix(-.84711 0 0 .75482 743.04 73.54)" d="m383.95 311.5 3.57.57m-4.74 3.58 4.28.56m-5.52 3.58 4.77.65m-5.45 3.5 4.77.66"/></g><g fill-rule="evenodd" stroke="#512007" stroke-width=".54"><path d="M445.08 320.35c-.29-.87-.46-2.44-.56-3.67a15.47 15.47 0 0 1 0-3.49c.2-1.28 1.16-3.72 1.16-3.72s-25.29 3.62-25.29 3.9l-.15 6.9z" fill="#e98e01"/><path d="m439.85 312.36.01 6.57h3.2l-.02-7.12zm-4.64.67-.01 5.9 3.21-.07-.02-6.33zm-4.64 5.9.04-5.06 3.03-.48.12 5.54zm-4.51-.01-.02-4.38 3.03-.54.06 4.93zm-4.66.01.16-3.74 3.01-.46.03 4.2z" fill="#e9b001"/><path d="M333.95 301.38c0 .87 3.72 18.64 3.72 18.64.08.33 1.3.45 1.18-.34-.04-.28-4-18.36-4-18.36-.46-.42-.45-.12-.9.06z" fill="#dd8b59"/><path d="m323.44 303.82 24.46 10.78-.07 1.06-24.35-10.4-8.9-4.97 8.86 3.53z" fill="#dd8b59"/><path d="M354.22 286.54s-3.8 2.74-2.93 7.97 4.66 8.24 4.95 8.24c.29 0 3.9-3.66 7.39-4.53 3.49-.88 12.23-.36 12.23-.36s-4.45-4.63-3.58-8.99c.87-4.36 4.3-8.1 4.3-8.1s-21.49 5.77-22.36 5.77z" fill="#fec618"/></g><path d="m444.65 307.76-18.02-28.49" fill="none" stroke="#512007" stroke-width=".27"/><path d="M380.12 281.6c0 .58-3.93 4.83-3.69 9.52.23 4.44 3.2 11.15 3.5 11.15s4.9-4.64 8.67-5.51c3.78-.88 12.9.25 12.61.25s-3.23-7.32-3.23-10.52c0-3.2 4.8-11 4.8-11z" fill="#fec618" fill-rule="evenodd" stroke="#512007" stroke-width=".54"/><path d="M399.6 281.13a889.04 889.04 0 0 1-22.08 4.99 10.8 10.8 0 0 0-.72 3.2c0 1.38-.23 3.22.2 4.98l21.4-4.88a8.6 8.6 0 0 1-.55-3.3c.12-1.3.89-3.2 1.75-4.99z" fill="#fed65b"/><path d="m398.8 282.93-21.9 4.73c-.15.6-.36 1.17-.36 1.65 0 .95-.26 2.1.05 3.29l21.38-4.75a6.2 6.2 0 0 1-.12-1.73c.08-.87.45-2 .94-3.2z" fill="#fedf82"/><g transform="matrix(.9935 -.1088 .11896 .9935 -31.64 44.1)" stroke-width=".54"><use id="b" transform="matrix(.99572 .08841 -.09667 .99572 28.3 -28.34)" width="100%" height="100%" stroke-width=".54" xlink:href="#a"/><use transform="translate(5.67 -.53)" width="100%" height="100%" xlink:href="#b"/><use transform="translate(-5.7 .58)" width="100%" height="100%" xlink:href="#b"/></g><g fill="none" stroke="#512007" stroke-width=".27"><path d="M405.63 303.32s2.99 9.1 6.18 12.59c1.97 2.15 7.56 4.65 7.56 4.65M379.72 303s4.04 17.92 11.02 22.28a952.1 952.1 0 0 1 12.8 8.14"/><path d="M379.77 303.24s7.77 13.31 14.16 17.96c6.4 4.65 15.12 9.01 15.12 9.01m-53.49-27.61c2.04 3.49 1.75 10.17 4.07 12.5 2.33 2.32 5.82 7.56 5.82 7.56"/><path d="M356.15 302.89c1.16 1.74 4.4 10.43 6.4 13.08 1.45 2.33 16.27 17.15 16.27 17.15"/></g><g stroke="#512007" stroke-width=".54"><path d="M432.99 300.67h.47v11.36H433z" fill="#dd8b59"/><path d="M419.36 314.45c3.2 0 27.32-4.65 27.32-4.65s.88-2.9 0-2.9-27.32 5.52-27.32 5.52z" fill="#e96a01" fill-rule="evenodd"/><path id="a" transform="matrix(.673 -.09611 .1005 .64363 291.73 188.47)" d="m119.61 166.1-.43-1.42-1.48.06 1-1.09-.78-1.25 1.44.33.69-1.3.44 1.4 1.47-.05-1 1.09.78 1.25-1.43-.33z" color-rendering="auto" fill="red" fill-opacity="1" image-rendering="auto" shape-rendering="auto" stroke="#512007" stroke-linecap="butt" stroke-linejoin="miter" stroke-opacity="1" stroke-width=".81" text-rendering="auto"/></g><use transform="matrix(.99274 -.11507 .12581 .99274 -32.66 51.23)" width="100%" height="100%" stroke-width=".54" xlink:href="#b"/><g stroke="#512007" stroke-width=".54"><path fill="#dd8b59" d="M412.35 264.6h3.86v.79h-3.86z"/><path d="M405.15 275.57c-.23.6 1.54 1.92 2.92 1.81 1.38-.1 1.73-1.15 2.1-1.62.32.56.87 2.97 4.4 1.81 2.91-1.07 2.67-2.8 3.08-3.18.25.06.71.64 1.35.67 2.5.1 4.67-4.17 4.4-4.15-.28.02-17.67 4.9-18.25 4.66z" fill="#fec618" fill-rule="evenodd"/><path transform="matrix(.96841 -.24935 .271 .96258 0 0)" d="M315.06 367.11h19.72v.98h-19.72z" fill="#dd8b59"/><path d="M379.68 273.51s1.06 2 2.9 1.78c1.82-.22 1.85-2.08 1.85-2.08s1.1 2.87 3.94 2.26c2.84-.6 3.51-3.61 3.51-3.61s1.45 1.96 3.7.9c2.26-1.07 3.12-4.19 2.85-4.16-.26.03-18.75 4.91-18.75 4.91z" fill="#fec618" fill-rule="evenodd"/><path transform="matrix(.96841 -.24935 .271 .96258 0 0)" d="M291.35 358.74h19.72v.98h-19.72z" fill="#dd8b59"/><path d="M355.23 277.7c-.48.32.1 2.12 2.1 2.02 2.5-.29 2.72-2.62 2.72-2.62s.72 3.27 3.86 2.64c3.14-.63 4.8-4.83 4.8-4.83s.09 1.59 2.21 1.34c2.23-.6 2.57-3.22 2.57-3.22-6.05 1.6-12.17 3.1-18.26 4.67z" fill="#fec618" fill-rule="evenodd"/><path transform="matrix(.96841 -.24935 .271 .96258 0 0)" d="M266.32 356.8h19.72v.99h-19.72z" fill="#dd8b59"/></g><g stroke-width=".54"><path d="M387.68 262.82s-3.9-1.4-5.91-1.23c-1.94.17-3.47 1.89-5.4 2.16-1.69.24-3.4-.76-5.09-.49-1.54.24-4.27 1.87-4.27 1.87s2.75-.95 4.12-.69c2.01.39 3.14 2.98 5.19 3.19 1.93.19 3.5-2.03 5.45-1.97 2.18.07 5.97 2.6 5.97 2.6z" fill="#fff" stroke="#512007"/><path d="M381.77 261.59c-.1 0-.21.04-.32.06v1.47c-1.84.2-3.16 2.18-5.01 2.29-1.71.1-3.16-1.51-4.88-1.56-1.1-.04-2.82.52-3.85.9l-.09.04c1-.35 2.75-.88 3.83-.77 1.83.18 3.15 2.2 4.99 2.23 1.79.02 3.15-1.96 4.94-2.02h.07v1.44c.1-.01.21-.02.32-.01.2 0 .77.1 1 .16v-1.42c2.25.4 4.9 1.91 4.9 1.91v-1.93s-2.71-1.04-4.9-1.2v-1.57a5.3 5.3 0 0 0-1-.02z" fill="#a00"/></g><g stroke-width=".62"><path d="M362.9 267.57s-3.41-1.24-5.17-1.08c-1.7.15-3.05 1.65-4.74 1.9-1.48.2-2.98-.67-4.46-.43-1.35.2-3.74 1.63-3.74 1.63s2.41-.83 3.6-.6c1.77.34 2.77 2.6 4.56 2.79 1.7.17 3.07-1.78 4.77-1.72 1.92.06 5.23 2.28 5.23 2.28z" fill="#fff" stroke="#512007" stroke-width=".54"/><path d="M357.72 266.49c-.09 0-.18.03-.27.05v1.29c-1.62.18-2.78 1.91-4.4 2-1.5.1-2.77-1.32-4.27-1.36a11.3 11.3 0 0 0-3.38.78l-.07.04c.88-.3 2.4-.76 3.36-.67 1.6.16 2.76 1.92 4.36 1.95 1.57.03 2.77-1.72 4.33-1.77h.07v1.27a2.3 2.3 0 0 1 .27-.02c.19.01.68.1.88.14v-1.24c1.97.36 4.29 1.68 4.29 1.68v-1.7s-2.37-.9-4.29-1.04v-1.38c-.2-.04-.7-.04-.88-.02z" fill="#a00"/></g><g fill="#dd8b59" stroke="#512007"><g stroke-width=".54"><path transform="matrix(.96841 -.24935 .271 .96258 0 0)" d="M261.21 364.59h25.51v1.27h-25.51zm26.82 1.63h25.5v1.26h-25.5z"/><path transform="matrix(.96841 -.24935 .271 .96258 0 0)" d="M288.02 366.22h25.51v1.27h-25.51zm19.34 28.4h19.72v.98h-19.72z"/><path transform="matrix(.96841 -.24935 .271 .96258 0 0)" d="M307.37 394.62h19.72v.98h-19.72z"/></g><path transform="matrix(.79077 0 0 .75625 330.04 -113.63)" d="M21.13 565.72a2.38 2.38 0 0 0-1.08 4.49c-.07.22-.1.45-.1.68a2.37 2.37 0 0 0 2.17 2.36 2.37 2.37 0 0 0-.01.24c0 1.31 1.32 2.38 2.63 2.38 1.03 0 1.44-.89 1.74-1.03l3.07 1.1c-1.35 2.8 9.15 43.7 51.92 41.51 42.23-2.16 50.88-41.56 50.88-41.56l-19.39-.22c-.36 0-14.7 18.45-33.08 18.06-18.38-.38-24.26-5-28.3-8.84-4.05-3.84-7.73-9.6-7.73-9.6l-21.1-9.1c-1.42-.45-.9-.48-1.63-.48z" fill-rule="evenodd" stroke-width=".7"/></g><path d="M390.46 339.32c-9.84-.78-19.23-3.92-24.24-8.46-1.72-1.55-3.39-3.52-3.85-4.99-.18-.57-.21-1.39-.28-1.47-.07-.07-2.07-.58-4.32-1.23-6.21-1.8-5.95-1.92-6.62-2.2-.14-.33-.39-1.08-.5-1.08a1.87 1.87 0 0 1-.48-.11c-.2-.07-.3-.01-.3.16 0 .15.17.32.38.37.5.12.52.96.01 1.22-.61.31-1.29.21-1.9-.29-.7-.55-.78-1.12-.18-1.2.6-.09 1.2-.93 1.04-1.5-.08-.31-.25-.48-.5-.48-.47 0-.48.16-.06.46.3.22.3.26 0 .7-.6.89-2.05.58-2.53-.53-.36-.82-.37-.81.38-.81.36 0 .8-.05.96-.11.44-.16.91-1.12.77-1.54-.12-.36-.86-.51-.86-.18 0 .1.1.19.2.19.3 0 .22.67-.11.99-.75.71-2.38-.02-2.42-1.09a3.38 3.38 0 0 1 .12-.96c.15-.45 1.01-.95 1.64-.95.52 0 17.82 7.1 18 7.39.8 1.3 4.08 5.16 5.68 6.68 3.49 3.32 6.63 4.91 11.9 6 4.84 1 12.6 1.34 15.71.69 3.76-.8 7.37-2.29 10.8-4.46a45.02 45.02 0 0 0 7.66-6.02l2.6-2.44 1.86.05 1.86.05-1.1 1.37c-6.79 8.44-14.7 13.8-22.68 15.36-1.9.37-6.47.6-8.64.42z" fill="#fecf3e"/><g stroke="#512007"><g fill="none" stroke-width=".39"><path transform="matrix(-1 0 0 1.006 787.26 -141.85)" d="m413.68 471.05 7.48-26.51 1.97-4.34m-6.03 28.94c0-.3 6.02-28.91 6.02-28.91m-3 26.1c.2-1.27 2.78-21.2 2.78-21.2l.22-4.9"/><path transform="matrix(-1 0 0 1.006 776.58 -3.72)" d="m405.27 325.16 4.65.52m-3.58-4.45 4.13.65m-3.06-4.37 3.52.64m-2.54-4.35 3.1.58"/><path transform="matrix(-1 0 0 1.006 787.26 -141.85)" d="m420.23 447.36 2.48.55"/><path transform="matrix(-1 0 0 1.006 776.58 -3.72)" d="m405.64 323.28 4.65.52m-3.53-4.36 4.13.65m-3.08-4.39 3.51.64m-2.6-4.37 3.08.58"/></g><path d="M355.55 304.62c-.48.32.11 2.12 2.1 2.01 2.5-.28 2.72-2.01 2.72-2.01s1.06 2.43 4.2 1.8c3.14-.63 4.47-4 4.47-4s.08 1 2.2.75c2.24-.6 2.58-3.22 2.58-3.22-6.06 1.6-12.17 3.09-18.27 4.67z" fill="#fec618" fill-rule="evenodd" stroke-width=".54"/><path transform="matrix(.96841 -.24935 .271 .96258 0 0)" d="M256.26 382.41h25.51v1.27h-25.51z" fill="#dd8b59" stroke-width=".54"/></g><path d="M432.98 300.67s-1.75-.63-2.65-.55c-.88.08-1.56.85-2.43.97-.76.11-1.53-.34-2.29-.22-.7.11-1.92.84-1.92.84s1.24-.43 1.85-.3c.9.17 1.42 1.33 2.33 1.42.87.09 1.58-.9 2.45-.88.99.03 2.69 1.17 2.69 1.17z" fill="#fec618" stroke="#512007" stroke-width=".54"/><g stroke="#512007"><path d="M404.58 284.44s-2.31 4.72-2.33 7.25c-.02 3.76 3.07 10.82 3.37 10.82s4.77-4.63 8.26-4.92 11.22-.21 11.22-.21-3.28-5.68-3-8.88c.3-3.2 4.2-9.98 4.2-9.98z" fill="#fec618" fill-rule="evenodd" stroke-width=".54"/><path transform="matrix(.96841 -.24935 .271 .96258 0 0)" d="M309.91 375.05h25.51v1.27h-25.51z" fill="#dd8b59" stroke-width=".54"/><path d="M350.24 321.83c1.02-.48.84-1.82-.26-1.78m-4.32-2.45c2.46 1.05 2.84-1.84 1.85-1.5m-.22 3.88c2 .3 2.11-2.01 1.18-1.67" fill="none" stroke-width=".27"/><g fill="none" stroke-width=".32"><path transform="matrix(-1.2162 0 0 1.2235 903.72 -236.92)" d="M414.44 467.94c1-3.53 6.72-23.4 6.72-23.4l1.97-4.34M417 468.4c0-.29 6.1-28.17 6.1-28.17m-3.5 28.37c.2-1.27 3.3-23.47 3.3-23.47l.2-4.9"/><path transform="matrix(-1.2162 0 0 1.2235 890.72 -68.93)" d="m405.27 325.3 4.65.52m-3.58-4.4 4.13.66m-3.06-4.45 3.52.63m-2.54-4.41 3.1.58"/><path transform="matrix(-1.2162 0 0 1.2235 903.72 -236.92)" d="m420.23 447.36 2.48.55"/><path transform="matrix(-1.2162 0 0 1.2235 890.72 -68.93)" d="m405.64 323.4 4.52.59m-3.4-4.47 4.13.66m-3.08-4.45 3.51.63m-2.6-4.42 3.08.58m-7.23 14.69 4.96.51m-5.51 1.4 5.3.5"/></g><path d="M380.2 303.73s1.17 2.2 3.19 1.96c2.02-.24 2.04-2.3 2.04-2.3s1.21 3.17 4.35 2.5c3.13-.67 3.87-3.98 3.87-3.98s1.6 2.16 4.08.98 3.43-4.6 3.14-4.57c-.28.03-20.67 5.41-20.67 5.41z" fill="#fec618" fill-rule="evenodd" stroke-width=".54"/><path transform="matrix(.96841 -.24935 .271 .96258 0 0)" d="M281.44 387.93h25.51v1.27h-25.51z" fill="#dd8b59" stroke-width=".54"/><path d="M405.36 303.16s1.79 11.32 4.99 15.94c1.67 2.4 6.98 5.52 6.98 5.52" fill="none" stroke-width=".27"/><g stroke-width=".54"><path d="M405.3 303.98c-.23.6 1.54 1.92 2.92 1.8 1.38-.1 1.73-1.15 2.1-1.62.32.56.87 2.97 4.4 1.82 2.91-1.07 2.67-2.8 3.08-3.19.25.07.71.65 1.35.67 2.5.1 4.67-4.16 4.4-4.14-.28.02-17.67 4.9-18.25 4.66z" fill="#fec618" fill-rule="evenodd"/><path transform="matrix(.96841 -.24935 .271 .96258 0 0)" d="M304.5 394.39h25.51v1.27H304.5z" fill="#dd8b59"/><path d="m418.2 321.72 27.87.58c.52-1 .33-1.55.04-2.04l-27.9-.29z" fill="#e96a01" fill-rule="evenodd"/></g></g><path d="m352.25 304.4 23.97-6.17.18.64-23.98 6.17z" fill="#e6ab87"/><path d="m352.47 304.48 23.38-6.05.12.46-23.43 5.98z" fill="#efc9b2"/><path d="m352.39 285.97 23.96-6.16.18.64-23.98 6.16z" fill="#e6ab87"/><path d="m352.6 286.05 23.38-6.04.13.46-23.44 5.98z" fill="#efc9b2"/><path d="m355.17 277.17 18.1-4.65.13.48-18.1 4.65z" fill="#e6ab87"/><path d="m355.33 277.23 17.66-4.56.09.35-17.7 4.5z" fill="#efc9b2"/><path d="m379.98 272.73 18.1-4.66.14.49-18.11 4.65z" fill="#e6ab87"/><path d="m380.15 272.79 17.65-4.57.1.35-17.7 4.51z" fill="#efc9b2"/><path d="m405.08 274.96 18.1-4.65.13.48-18.11 4.66z" fill="#e6ab87"/><path d="m405.24 275.02 17.65-4.56.1.35-17.7 4.51z" fill="#efc9b2"/><path d="m378.63 280.86 23.97-6.17.18.64-23.98 6.17z" fill="#e6ab87"/><path d="m378.85 280.94 23.38-6.04.12.46-23.43 5.97z" fill="#efc9b2"/><path d="m402.33 283.93 23.96-6.16.18.64-23.98 6.16z" fill="#e6ab87"/><path d="m402.54 284.01 23.38-6.04.13.46-23.44 5.98z" fill="#efc9b2"/><path d="m378.04 303.44 23.97-6.17.18.64-23.99 6.17z" fill="#e6ab87"/><path d="m378.26 303.52 23.38-6.04.12.46-23.43 5.97z" fill="#efc9b2"/><path d="M373.27 285.87a2673.7 2673.7 0 0 1-21.92 5.35 8.71 8.71 0 0 0-.06 3.3 13.26 13.26 0 0 0 1.33 3.94l20.44-4.76a7.98 7.98 0 0 1-.78-4.83c.2-1.05.57-2.06.99-3z" fill="#fed65b"/><path d="M372.77 287.12c-2.65.67-15.25 3.85-21.59 5.37a9.08 9.08 0 0 0 .11 2.02c.2 1.17.54 2.21.95 3.15l20.44-4.9a7.33 7.33 0 0 1-.4-3.89c.12-.6.29-1.18.49-1.75z" fill="#fedf82"/><path d="M423.76 283.5a806.96 806.96 0 0 1-20.83 5c-.37 1.13-.67 2.3-.67 3.19-.01 1.39.4 3.22.95 4.99l19.42-4.89a9.04 9.04 0 0 1-.52-3.3c.12-1.3.84-3.2 1.65-4.98z" fill="#fed65b"/><path d="m423 285.3-20.5 4.74a7.9 7.9 0 0 0-.24 1.65c0 .94.18 2.09.48 3.28l19.5-4.74a6.53 6.53 0 0 1-.13-1.73c.08-.87.43-2 .9-3.2z" fill="#fedf82"/><path d="m402.2 303.9 23.97-6.17.18.64-23.98 6.16z" fill="#e6ab87"/><path d="m402.42 303.97 23.38-6.04.12.46-23.43 5.98z" fill="#efc9b2"/><g fill="#520" stroke="#2b1100"><use id="d" transform="translate(14.52 2.97)" width="100%" height="100%" fill="#520" stroke="#2b1100" xlink:href="#c"/><g transform="translate(-.14)"><ellipse id="e" cx="367.83" cy="328.84" rx=".95" ry=".91" fill="#520" fill-rule="evenodd" stroke="#2b1100" stroke-opacity="1" stroke-width=".54"/><use transform="translate(23.5 -8.53)" width="100%" height="100%" xlink:href="#d"/></g><g transform="translate(-.1)"><use id="c" transform="translate(8.71 5.55)" width="100%" height="100%" fill="#520" stroke="#2b1100" xlink:href="#e"/><use transform="translate(29.24)" width="100%" height="100%" xlink:href="#c"/></g></g></g><g fill="none" stroke="#512007"><path transform="matrix(1.4812 0 0 1.5488 419.01 -682.25)" d="m288.86 682.35 8.9 2.6c2.22 10.23 21.93 16.03 34.52 14.99 10.77-.9 19.98-8.55 26.77-17.52" stroke-width=".23"/><path transform="matrix(1.4812 0 0 1.5488 419.01 -682.25)" d="M296.07 684.5c.63 6.8 9.55 18.81 33.5 18.81 23.2 0 32.46-21.02 32.46-21.02" stroke-width=".23"/><path transform="matrix(1.4812 0 0 1.5488 419.01 -682.25)" d="M293.56 683.84c.73 7.87 8.27 24.19 36 24.19 26.87 0 36.46-25.46 36.46-25.46" stroke-width=".27"/><path transform="matrix(1.4812 0 0 1.5488 419.01 -682.25)" d="M291.32 683.18c-.23 5.8 8.84 29.47 38.19 29.07 26.03-.35 36.79-23.3 39.24-29.58" stroke-width=".3"/><g stroke-width=".04"><path d="M901.96 406.7c-12.3-.73-22.4-3.73-30.35-9.03a33.78 33.78 0 0 1-5.7-4.64c-4.19-4.13-6.95-8.87-7.88-13.52-.13-.64-.2-1.2-.17-1.24.04-.04.51.06 1.05.23l.99.3.16.73a16.8 16.8 0 0 0 1.84 4.23c1.96 3.23 5.22 6.34 9.41 8.98 1.9 1.2 6.2 3.34 8.58 4.28 11.15 4.4 24.7 6.26 34.16 4.66 9.48-1.59 18.61-6.77 27.38-15.54a86.1 86.1 0 0 0 8.5-9.8l1.06-1.41 1.83.02c1 .01 1.85.05 1.88.08.03.03-.37.87-.9 1.86a63.84 63.84 0 0 1-10.25 14.1c-8.87 9.25-19.84 14.6-32.04 15.65-1.54.13-7.62.17-9.55.05z"/><path d="M904.3 414.05c-7.37-.21-14.68-1.43-20.6-3.42a43.13 43.13 0 0 1-6.92-2.87c-8.74-4.36-15.03-10.57-19.11-18.87a36.4 36.4 0 0 1-3.46-11l-.1-.82.37.09 1.6.47 1.23.38.2 1.2c.1.66.43 1.94.73 2.84 2.7 8.13 10.1 15.44 20.16 19.88a64.9 64.9 0 0 0 16.13 4.5c5.93.88 13.96 1.1 18.85.5 13.36-1.6 25.1-8.45 34.4-20.04a61.18 61.18 0 0 0 6.5-9.93l1.05-2.03 2.7.1a58 58 0 0 1 2.74.14c.08.06-1.15 2.76-2.23 4.89a72.96 72.96 0 0 1-9.11 13.79 78.24 78.24 0 0 1-7.62 7.64c-8.3 6.87-17.35 10.86-27.54 12.15-1.88.24-6.62.52-7.93.48a361.97 361.97 0 0 0-2.05-.07z"/><path d="M902.88 420.57c-9.44-.55-16.68-2.36-23.9-5.95a53.34 53.34 0 0 1-23.07-22.54c-2.14-3.97-3.98-8.78-4.65-12.17-.38-1.95-.6-3.82-.42-3.82.05 0 .69.17 1.4.38l1.31.38.1.72a37.57 37.57 0 0 0 2.14 8.42c4.31 11 12.86 19.31 24.73 24.06 5.46 2.18 11.46 3.54 18.82 4.27 2.96.29 12.1.25 14.57-.07 11.25-1.45 20.76-5.8 29.52-13.48a77.3 77.3 0 0 0 6.35-6.53 75.15 75.15 0 0 0 11.02-17.73l.56-1.34h1.62c.9 0 1.67.05 1.73.1.27.27-3.27 7.93-5.35 11.57-5.91 10.4-13.33 18.7-21.75 24.34a54.78 54.78 0 0 1-25.82 9.2c-1.63.15-7.45.28-8.91.2z"/><path d="M900.26 423.1a62.23 62.23 0 0 1-13.24-2.24c-14.6-4.19-26.5-14.21-34.2-28.8-2.77-5.23-5.17-12.3-5.43-15.92l-.08-1.18.69.21c.38.12 1.02.32 1.42.43l.73.22.1 1.16c.49 5.78 3.57 13.49 8.05 20.12 8.96 13.27 22.57 21.5 38.92 23.55 22.39 2.8 41.34-5.01 55.5-22.89a88.04 88.04 0 0 0 11.82-20.25l.9-2.2 1.07-.04 1.08-.04-.22.75a74.35 74.35 0 0 1-6.54 15.22c-7.2 12.56-17.42 21.76-29.93 26.97a68.18 68.18 0 0 1-21.59 4.89c-1.86.13-7.5.16-9.05.05z"/></g></g><path d="M902.56 406.64c-12.89-.65-23.64-3.94-31.93-9.76-4.46-3.12-8.38-7.53-10.52-11.79-1.11-2.22-2.11-5.25-2.12-6.4v-.37l.82.22c.44.13.86.27.92.33.07.05.21.47.33.93a22.08 22.08 0 0 0 2.75 5.44c2.38 3.22 6.1 6.3 10.53 8.74 8.91 4.89 20.36 7.9 31.55 8.31 11.7.43 21.51-3.18 31.76-11.66 2.19-1.82 8.08-7.72 9.95-9.99a153.6 153.6 0 0 0 2.96-3.71l1.45-1.88h3.61l-.7 1.4c-4.04 8.05-11.37 16.5-18.7 21.56a48.7 48.7 0 0 1-21.52 8.3c-2.13.26-8.62.46-11.14.33z" fill="#fec413"/><path d="M904.68 414c-8.4-.27-15.84-1.6-22.64-4.03a65.3 65.3 0 0 1-8.65-4.18 41.46 41.46 0 0 1-11.59-10.32c-3.01-4-5.56-9.22-6.75-13.85-.41-1.59-.92-4.31-.83-4.4.02-.03.7.15 1.52.39l1.47.43.25 1.25a26.72 26.72 0 0 0 5.31 11.1c3.5 4.42 9.05 8.61 14.89 11.27 8.27 3.76 17.85 5.63 28.87 5.64 4.03 0 6.3-.16 9.12-.63 11.82-2 22.23-8.1 30.73-18a63.53 63.53 0 0 0 8.3-12.32l.65-1.3 1.23.01c.68.01 1.89.06 2.68.1l1.45.1-.5 1.13a86.65 86.65 0 0 1-4.16 8 69.43 69.43 0 0 1-12.18 15.14c-8.57 7.96-18.99 12.84-30.05 14.06a94.7 94.7 0 0 1-7.48.47 75.01 75.01 0 0 0-1.64-.06z" fill="#e9b001"/><path d="M899.54 420.24c-7.39-.8-12.94-2.23-18.66-4.82a53.33 53.33 0 0 1-28.91-33.05 28.56 28.56 0 0 1-1.05-5.58c0-.58.02-.62.3-.54.16.05.7.22 1.22.36.5.15.95.3.98.32.03.03.15.65.26 1.38a36.99 36.99 0 0 0 3.68 11.3 38.74 38.74 0 0 0 8.08 10.9c8.84 8.6 21.7 13.42 37.47 14.02 8.57.33 14.05-.28 20.65-2.3 10.75-3.29 20.89-10.68 28.52-20.79a76.44 76.44 0 0 0 8.75-14.8l.6-1.45h.54c.29 0 1.02.04 1.61.09 1.28.1 1.28-.19.06 2.66a97.78 97.78 0 0 1-7.5 14c-8.65 12.9-19.26 21.47-31.75 25.68a57.68 57.68 0 0 1-10.94 2.5c-2.3.31-11.37.4-13.91.12z" fill="#e98e01"/><path d="M900.93 423.06c-5.76-.43-9.5-1.04-13.75-2.26a52.73 52.73 0 0 1-22.64-13.13 60.91 60.91 0 0 1-12.13-16.63c-2.62-5.23-4.57-11.15-4.96-15.03l-.09-.94 1.28.38c.7.2 1.3.41 1.35.46.04.04.14.7.22 1.48.43 3.88 2 8.72 4.34 13.42a53.98 53.98 0 0 0 28.41 26.3c7.1 2.8 14.4 4.1 22.85 4.11 5.41 0 9.48-.45 14.18-1.6 13-3.15 24.12-10.66 33.32-22.5a100.8 100.8 0 0 0 6.11-9.13 115.7 115.7 0 0 0 5.23-10.54l.85-2.05.99-.04 1-.04-.22.67-.35 1.22c-.08.3-.47 1.4-.85 2.45-3.6 9.86-9.08 18.62-15.9 25.45-10.27 10.28-23.08 16.14-38.63 17.67-2.05.2-9.16.39-10.61.28z" fill="#d05f01"/></svg>