<svg xmlns="http://www.w3.org/2000/svg" viewBox="0 0 830 498"><path fill="#00ab39" d="M0 249h830v249H0z"/><path fill="#fff" d="M0 0h830v249H0z"/><g stroke="#000" stroke-width="1.8"><path d="m543.28 29.53-.03.06.1-.06h-.07zm-.03.06c-52.24 28.9-99 58.95-144.97 97.25-22.06 19.27-15.83 34.64-16.68 51.94.7 11.62-2.52 22.43-9.66 28.94-16.35 3.3-32.72 6.63-49.06 9.94-1.57-4.53-3.12-9.04-4.7-13.57 1.5-6.94 7.24-10.35 19.32-6 .95-8.92-6.23-12.55-14.62-15.65-2.89-2.25-6.47-3.97-6-11.69-1.42-17.47 26.61 1.25 26.87 1.25.26 0-.93-17.63-13.81-21.16-7.02-2.48-10-9.89-7.31-15.37 5.61-11.2 16.19.88 24.28 1.31-.3-7.31-2.39-12.53-8.69-18.44-3.4-2.08-11.72-3.65-11.94-7.15-.17-4.75 7.81-6.79 18.78-5.47-2.28-6.66-9.66-10.97-19.8-14.1l-6-10.43c-2.85-5.26-4.12-5.4 2.46-15.38 5.92-3.82 13.77-9.23 19.69-13.06l-6.53-.78c.87-7.13.97-9.53 2.62-21.38-6.34 8.68-14.27 7.13-21.4 10.7 0 0-20.33 3.6-26.88 12.24-.26 0-51.12-2.6-51.12-2.6-10.84 1.52-20.1 4.6-21.91 15.13-24.8 2.5-50.76.3-69.66 24 12.87-.6 24.14-3.67 38.6-1.8 0 0 12.32.22 14.87 13.27.26.52 4.19.53 4.19.53l4.69 3.66 1.8-4.97 4.2 2.88c.43-1.83.88-3.65 1.3-5.47 1.4.95 2.77 1.92 4.17 2.87.08-2.17.19-4.35.28-6.53l5.47 3.9v-8.59s20.19-.04 26.34 12.78c.26.27-56.67 10.47-111.66 5.75 5.3-2.6 10.6-5.23 15.9-7.84-20.04-4.08-38.9-7.76-56.58-21.66 6.67 25.14 41.18 54.67 48.25 54.54 0 .26-6.79-12.25-6.79-12.25l59.75 2.59c2.18 6.61 1.22 14.02 6.54 19.84 0 0-3.3 10.93 4.03 15.38.26.52 8.75-22.16 8.75-22.16s2.6 6.1 5.22 10.16c3.79-19.5 25.03-22.69 25.03-22.69s4.43 10.18 4.43 10.44c-6.63.96-14.89 14.48-10.43 21.9-4.45.09-12.35 13.2-9.91 20.35-3.74 3.72-13.06 8.68-10.69 24.28-7.33 1.57-11.67 15-9.4 29.22-11.35 10.56-8.57 29.95 1.56 37.81-4.2 3.74-6.8 6.62-6.78 11.22-4-1.49-7.68-.24-9.4 2.37-4.9-5.02-11.94-9.41-16.95-4.71-1.3-5.94-9.03-12.48-17.5-11.72a15.93 15.93 0 0 0-11.71-16.72s-1.82-29.36-10.72-38.88c-.88-5.32.5-8.94 7.84-13.3 7.32-3.92 8.88-6.94 8.34-18 2.9-7.4 5.08-14.95-3.9-20.07.27 8.8-2.43 13.03-6 16.94-4.27-.63-5.76 4.35-8.63 6.53-4.01-5.42 8.47-13.8-.78-25.85-.52-.52-6.46-15.72-21.12-15.37 6.97 4.08 9.92 10.95 9.9 18-4.62 13.04-6.97 23.13-2.34 38.1-6.1-9.14-9.55-26.49-14.6-29.5-4.42-.87-6.58-11.33-23.74-8.35 7.4 2 9.75 7.65 11.75 12.78-4.55 2.34-2.29 8.52 1.03 12.78-.63 10.02 5.37 15.87 14.34 19.6l-4.44 40.93c-3.56-.45-9.05 13.43-11.22 13.85-3.48 2.17-9.58 8-2.59 9.65-2.08 7.5-4 12.01-15.16 13.57 0 0 11.8 6.99 21.57-4.97 10.47-.27 7.03-12.76 12.09-18.25 0-.26 2.87-2.07 7.06-13.07 1.83 9.82 11.91 39.9 34.69 54.82 19.86 21.25 36.18 41.33 36 69.65 7.75-7.2 12.38-18.62 15.94-29.5 10.77-3.75 26.19-5.18 39.94-4.56-2.36 4.96-5 9.72-1.6 12.94-9.6 3.3-11.7 10.25-7.84 17.22-10.11 6.86-10.78 11.28-10.94 22.68-18.7 23.99-30.25 23.2-48.78 16.97-6.09-3.57-15.5-8.71-19.84-6-8-5.33-19.52-6.12-21.41 6 6-4.98 9.6-4.02 14.37.78-.96 2.44-1.76 4.87 1.82 6.25l-4.7 5.22c-8.6-1.32-20.18-1.25-23.21 11.22 4.42-3.66 14.24-4.52 22.16-1.03l4.43 1.56.54 6s-11.74-1.8-14.88 17.22c11-11.7 18.78-8.62 18.78-8.62 4.24 6.2 19.84 5.27 31.06-4.94 15.77-8.81 20.36 3.85 30.54-4.44 8.43-6.3 18.41-2.1 25.28 5.22 7.91 2.97 16.2 5.41 22.72 0 0 0 7.96-5.08 15.9 3.12.09-9.25-6.47-14.16-15.37-14.34l-2.63-2.62c-8.35-1.74-17.73-1.04-25.03-5.22 3.44-13.07 8.46-24.9 18.25-34.97 12.09-12.96 20.99-18.85 36.25-38.69-.59 11.21 8 23.68 12.53 35.06 0 0 9.12-14.55 10.44-26.37.26 0 11.42-5.81 16.19-10.75 10.05 6.24 26.44-5 37.03-14.28 6.52 2.47 11.48 2.29 19.06 0-6.09 12.39 3.52 23.88 18.78 28.68 1.41 10.94 12.46 13.23 29.22 13.32.7 6.43 10.69 7.31 10.69 7.31-6.31 2.94-9.6 5.89-9.38 12.53-6.46.04-11.36 1.67-13.06 9.13-8.88.15-17.92.83-25.56 5.21-8.18-1.26-18.12-4.65-24.53-11.21-3.31-2.79-4.13-6.8-9.91-8.35-3.66-4.32-8.04-3.36-9.4.78-3.79-2.95-17.98-4.32-20.35 9.13 6.62-4.85 12.56-6.7 16.72-.78-2.26 4.1 5.52 6.45 12.25 8.1 4.78.29 13.25 4.64 15.9 12-6.15 1.86-15.5 1.24-21.65-3.42-5.48-4.58-12.87-4.03-16.94-1.03-5.64-3.6-19.07 3.2-19.6 14.07 5.67-5.19 10.82-7.7 15.95-4.41-2.56.6-1.59.85-1.32 2.34l13.03 7.57c-6.39 1.68-12.4 4.23-9.62 16.15 0 0 5.2-10.3 16.94-6.5.26-.26 1.61 3.68 4.97 1.03 5.07-5.77 16.68-8.36 26.87-9.37 8.18-.98 16.35-3.39 23.47 1.28 6.34-3.26 13.4-5.46 20.62-.25 8.53 2.7 14.75 12.63 25.57 8.1 5.38-3.73 11.99-3.92 18.78 3.65.08-9.54-7.07-12.74-17.22-14.88l-7.03-4.18c-6.52-.96-13.07.2-19.6-2.88 34.14-8.82 58.07-27.86 74.91-55.03l16.16 5.72c3.82.24 4.11 1.57 12 3.94.3-11.62-4.7-23.58-25.57-24.78l-27.4-10.44c-5.82-6.14-8.45-19.15-1.03-26.88 7.25-6.46 8.52-5.69 13.3-13.56 5.83-.53 11.32 5.47 16.7 5.47 2.55 7.59 17.27 14.3 26.62 12 5.86 5.19 17 8.07 29.22 3.9 6.93 6.07 15.96 8.6 26.6 3.91 2.82 2.83 8.78 5.07 15.65 3.66.52 0 3.47 7.54 10.97 10.19-3.27 3.17-1.26 16.96 2.1 21.9-2.3 5.3-3.02 10.96-1.07 16.44-7.56 4.86-9.1 8.47-5.72 16.69-9.9 15.9-21.74 17.72-32.87 12.81-4-2.52-8-5.07-12-7.6l-12.78-12.5c-2.17-2.03-6.66-2.67-7.6 1.82 0 0-16.4-3.66-17.72 10.19 6.8-6.62 16.44-.8 16.44-.54s-2.3 1.83-.53 4.47c.4-.33 11.97 4.32 22.28 8.75 5.6 2.13 6.83 2.79 9.28 4.1a441.98 441.98 0 0 0-9.28-4.1c-6.28-2.38-12.39-4.28-14.19-3.8-5.84-.55-12.03-1.28-14.87 3.12-6.28 2.65-16.09 4.78-15.66 16.43 4.24-6.94 10.06-6.64 17.47-6l-.5 1.57c8.05 3.66 6.52-1 14.03-1.7 6.28-.57 15.17 1.68 19.88 3.26-5.92 1.74-13.96 1-17.75 5.22-.7 1.39-3.14.82-2.07 4.15 0 0-11.53-.3-14.62 15.66 11.73-7.5 20.61-7.28 20.87-7.28.27 0 3.66.78 3.66.78s14.08-9.4 14.34-9.4c.27 0 13.64-5.93 19.82.77 5.38 2.65 11.15 2.82 16.71-.53 10.97-4.77 21.24-5.1 31.32 1.6l9.12 5.47 3.9-2.63s10.34-2.92 17.92 6.28c-3.14-15.91-14.5-16.43-14.5-16.43l-2.63-2.35c-5.4-2.09-10.76-4.2-16.16-6.28-2.35-5.83-8.26-10.47-2.37-17.47 6.02-29.93 13.22-52.4 1.56-82.72 10.87 4.7 19 19.22 32.63 14.1 0-12.18-44.83-35.3-79.07-53.88 56.1-2.87 123.51-44.28 97.6-96.9L712.4 148c5.77 11.62 17.45 20.48 27.94 24.25-8.65-16.5-13.6-66.93-8.63-101.75-22.6 27.92-47.56 52.7-74.1 77.88 13.06 3.05 24.46.9 37.07-.66-3.57 7.3-7.03 14.63-10.6 21.94-34.47-20.19-74.94-5.04-75.24 21.9 1.17 31.42 40.02 35.89 62.43 24.94-4.44 28.65-70.28 18.1-70.28 18.1-23.4-8.07-45.61-6.69-70.19-6.5 5.11-15.72 33.46-29.66 55.07-23.5-30.25-33.91 4.27-76.01 45.9-88.97-45.37-14.97-6.3-49.56 27.66-74.35 0 0-97.66 41.1-106.56 40.97-27.78-2.09-20.21-34.97-9.63-52.66zM236.72 69.06c2.27.02 4.95.24 7.06.75 4.4 1.08 9.77 1.7 9.69 3-2.04 3.42-7.05 7.53-11.97 7.28-4.92-.24-7.76-3.2-9.4-10.59.5-.27 2.35-.45 4.62-.44zm411.1 115.88c6.4-.09 14.07 2.62 21.56 10.56-3.6 10.37-34.85 15.7-36.94.34-.63-4.64 6.02-10.77 15.37-10.9z" fill="#d21034"/><path d="m268.98 159.71 4.74 6.9m-.22.2s0 9.27 1.94 9.48m-4.3 4.96c.2.21 4.95 8.18 4.95 8.18m-13.57 2.15c.21 0 6.03 6.68 6.03 6.68m5.05-5.18c0 .21 5.5 10.56 5.93 10.56m-13.13-3.44s1.93 12.49 3.66 12.06m-11.8 10.83 5.55 8.34m4.74-17.23s3.01 11.84 5.38 10.76m2.37-17.88c.21.22 5.6 7.98 7.1 6.9m-1.28 3.02 5.17 10.33m-13.79-2.37c.22.44 4.3 12.28 4.3 12.28m-14.2-6.03s3.87 13.14 7.32 10.98m-8.83 6.46s.21 6.9 3.66 7.33m2.37-10.77c0 .21 3.44 4.95 3.44 4.95m6.4-13.15 2.86 4.54m6.25-12.92 4.3 5.38m-24.28-67.14c.21 5.82 9.43-2.05 13.1-7m-17.02 27.2s10.12-7.12 17.87-17.88m-21.1 34.88c7.1-1.93 20.18-17.75 22.76-26.15m-24.27 41.88c1.94.86 26.36-16.74 27.01-29.66m-27.66 43.22c0-.21 22.33-5.69 31.6-30.24m-32.8 48.83s35.66-21.38 37.6-37.1m240.77 73s-2.3 18.45-20.82 21.25m26.63 11.7c.22-.21 17.66-19.38 13.14-25.2m27.35 6.68s-.21 13.35-11.2 22.61M603 306.16s.43 16.15-6.46 22.6m26.49-12.91s-7.73 15.12-10.53 16.63m10.2 10.17s10.16 2.54 13.4-4.14m-10.77 26.09s9.4 1.7 13.7-7.35m-14.7 24.28s7.6 6.4 12.77-2M515.15 257.09s-.86 32.73 45.22 39.4c51.48 14.22 75.81 6.68 78.83 64.4-1.94 21.97-4.67 46.78-20.6 37.3M466.26 287.24s7.33 13.14 16.15 12.28c11.63-3.45 15.94 3.66 15.94 3.66m-63.53-2.8s19.38 9.47 35.96-5.82m-33.8-7.75c1.72 22.61-26.07 35.53-37.05 33.38m38.36 53.27c.22 0 15.05-8.9 12.04-15.15m-41.57 1.94c.43-.43 24.98-2.8 29.5-11.63m-40.91-24.56c0-.21 34.84.1 37.2 6.56m9.1-27.23s-34.03 58.15 28.86 58.15m-64.83-59.01s-7.32 21.75-17.66 29.07M371.51 295s12.64 24.44-.07 36.5m-32.88-29.62c.22.43 4.1 34.68-4.52 44.37m-11.84-43.29s1.29 21.75-5.17 29.5c-6.46 7.76 1.51 23.86 1.51 23.86m-78.5 10.46s4.62 8.11 11.09 5.31m-3.23-23.04s10.33 4.52 13.78 2.8m-2.59-39.41s-15.29 4.3-9.47 22.4c8.83 7.1 17.44 6.02 17.44 6.02m-38.12 48.46c-.21 0 1.73 14.21 11.63 3.45 6.9-14.43 28.65-55.14 33.6-69.14m10.12-6.67s-10.55-8.18-10.12 3.23c-.22 7.1 3.23 8.83 3.23 8.83.43 5.17 4.95 12.49 8.61 5.81 1.51-6.46-1.07-9.26-1.07-9.26m6.03-11.63c-9.48-.64-14.65 20.25 3.66 7.11m6.24-14.21s-2.36 3.23-6.03-.22c-1.93-3.44-8.82 15.5 3.24 16.15 2.15-5.6 8.83-7.1 8.83-7.1m5.6-17.88s-5.39 2.59-7.33 2.15c-6.46 1.51-5.17 16.59 3.02 15.73 2.8-3.23 5.81-7.76 5.81-7.76m-52.29-29.83c-.22 0-21.37 33.27 11.8 42.1m256.7-92.17s-12.92 10.98-.86 28.64c-40.06-.65-61.59 17.88-63.31 30.36-51.04-3.66-41.78 11.42-58.37 16.37-22.18-18.52-54.7-8.18-52.54 10.34-14.87-20.89-37.7-10.77-40.5-5.6-2.8 5.17-1.71-25.63-1.71-25.63s-14.86 6.68-25.2 18.95c.21-8.18 0-21.53 0-25.84-12.42 2.51-24.41 2.66-37.26 2.37m-33.6-9.48s18.52 10.34 41.35-3.66m-42.85-33.6s14.43 12.93 41.56 8.84m-32.52-38.55s3.23 10.55 34.24 11.2m-23.74-35.6s11.68 14.28 27.4 12.12m-17.44-32.52s4.52 7.76 21.75 9.05M255 134.1s9.05 9.9 19.39 8.18m34.43-88.7s4-4 10.68-2m-13.57 23.14s-12.47-.44-11.58-5.34c.9-5.56 13.13-9.56 13.13-9.56s16.25-10.46 18.7-14.02m-73.44 56.96 15.8 30.27 7.57-11.35 4 7.78 6.46-11.34 11.12 7.12-4.23-13.8 9.35-.67s-2.45-6.67-10.9-8c2.22-1.79 10-6.9 10-6.9s-4.44-5.12-11.34-5.35c2.23-2.44 5.34-8.45 5.12-8.45-.22 0-6.9-1.56-6.9-1.56s15.8 5.12 28.04-2m-30.25-24.47c.22.22-.9 6.23-4.23 9.8m-56.74 6.89s9.77-2.69 17.08-1.17a382.67 382.67 0 0 1 16.96 4.06s11.57-1.56 15.36-4.23m-73.66 7.8s-1.33 4.67-1.78 7.78c0 2.23-7.12 5.12-7.12 5.12m13.35-22.48s6.23 7.8 6.45 12.24c.23 4.45-4.67 7.8-4.67 7.8m-66.09 33.15-6.45-10.46 5.79-2m117.2 156.72c-5.17-6.68 3.87-109.2 23.04-135.9-6.68 48.25 15.5 97.56 21.1 97.35m-102.4-126s8.73 3.35 26.82-10.98m24.44 34.68 12.97.16m389.5-80.5S437.3 144.88 434.15 150.23c36.51-11.01 191.33-36.82 195.11-34.62-9.12 2.2-197 45.32-205.8 55.7 46.88-1.57 145.07 15.11 160.48 31.16-33.35-7.55-133.12-22.34-163.63-15.74 22.34 5.36 107.93 60.74 107.93 69.55-12.9-12.27-115.8-54.75-119.9-50.66 23.6 14.16 56.96 66.71 56.96 79.61-6.92-11-66.4-74.9-69.86-70.8 6.3 8.81 18.77 84.22 12.4 87.71 0-9.12-23.1-75.12-24.99-77.01-4.72 1.26-34.15 80.53-28.32 87.9-3.77-26.44.63-81.6 7.87-79.4-12.9 1.88-54.08 56.17-49.67 64.67 1.25-13.53 3.1-22.5 26.38-67.5-25.8 1.56-79.3 35.24-88.43 47.2 7.24-21.4 52.56-57.6 72.38-60.11m93.32-78.75c22.85-12.68 93.46-38.55 140.56-57.54M372.02 207.39s15.57-.22 31.15-42.5C418.52 107.04 540.24 42.5 542.7 30.49M166.02 265.56s-3.61 7.7-8.06 9.93m25.52 1.74s-4.83 9.38-5.94 13.83m22.65-9.24s4.05 12.8.71 18.81m-47.24-52.05c-12.23 6.9 6.97 50.5 65.04 54.72m-9.34-23.59s-1.56 7.8 9.34 23.37c-3.11 17.36 13.2 31 19.65 33.22m-33.67-213c0-.23 1.78-4.68 1.78-4.68l1.99 5.14 3.2-.08 2.1-5.16 1.73 5.18h3.17l1.96-5.75 2.96 5.44 2.5.13 1.98-6.63 4.08 4.75 1.48-.57 1.27-6.64 4.03 4.64 1.15-.68 1.87-6.53 3.35 4.86 1.68-.55 1.57-5.5 3.1 5.05m-50.53 8.15 24.28-.36c7.72-.11 20.44-10.82 34.68-7.48m-110.12 59.78s4 8.67 9.57 3.78m-18.91 2s-7.8 20.92 1.55 25.81m-12.68-48.95s0 4.9 10.24-2.67M97.63 268.37s8.24 2.45 6.9 8.68m-3.79-104.81s5.12 2.45 10.02-5.12m44.28 245.9c8-.45 9.73 3.16 17.02 3.16 8.4.26 16.58-3.17 27.26-6.06m68.76 19.36c-.22 0-3.78 7.56-.67 11.34m-113.49-10.68s12.69-10.45 19.36-4c6.46 2.23 10.02 1.78 10.02 1.78m-22.7-27.59s3.12 8.01-7.34 6.9m-3.11 11.57s6.67 4.23-.9 9.79m4.9 7.57s9.12 1.33 3.78 8.67m290.91-64.11s24.78 2.56 25.92 4.41c2.85-2.99 24.97-20.9-2.23-23.47-4.55 18.65-23.26 19.34-23.69 19.06zm-8.82 12.39c9.25 7.4 5.46 11.84 34.5-7.67m-47.75 16.92s13.67 14.67 23.64-3.13m-49.7 8.4-18.5 9.68m-33.33 13.67s11.25-9.68 16.52-4.55c5.27 5.12 27.62-4.42 27.62-4.42m-35.74-33.03s3.85 7.69-3.56 8.68m-11.1 15.38s3.9 7.23-3.65 9.23m12.33 10.42s11.68.57 7.55 9.4m101.67-10.96s-6.4 5.4-1.7 11.53m94.68-50.4s7.4 3.55-1.42 9.68m-7.4 12.81s5.55 5.84 1.85 10.68m13.67 11.68s7.68 2.13 6.83 8.54m100.81-14.24s-6.4 4.7-2.99 10.82M553.71 244.26c15.38-1.85 37.45 32.33 48.7 39.02m67.27-87.43s7.8 6.8.94 23.2m13.5-49.36c2.17 1.69 10.54 6.16 16.07 16.5m5.31-67.66c0 .14-10.82 29.2-10.82 29.2m22.93-30.62s-2.14 25.91-5.27 31.18m-42.96 47.22c-3.6 10.37-34.84 15.68-36.93.33-1.07-7.82 18.5-19.87 36.93-.33z" fill="none" stroke-linejoin="round"/><path d="m236.48 69.15 12.02 2.22s-8.46 11.35-12.02-2.22z" stroke-linejoin="round"/></g></svg>