<svg xmlns="http://www.w3.org/2000/svg" xmlns:xlink="http://www.w3.org/1999/xlink" viewBox="0 0 750 375"><defs><linearGradient id="b"><stop stop-color="#d5dfff" offset="0"/><stop stop-color="#FFF" offset="1"/></linearGradient><linearGradient id="a"><stop stop-color="#474747" offset="0"/><stop stop-color="#f50" offset="1"/></linearGradient><linearGradient id="f" y2="102.99" xlink:href="#a" gradientUnits="userSpaceOnUse" x2="228.97" gradientTransform="matrix(.74087 0 0 1.3286 40.51 0)" y1="102.99" x1="215.83"/><linearGradient id="c" y2="173.45" xlink:href="#a" gradientUnits="userSpaceOnUse" y1="218.47" gradientTransform="matrix(1.5101 0 0 .65184 40.51 0)" x2="110.94" x1="109.34"/><linearGradient id="d" y2="337.23" gradientUnits="userSpaceOnUse" y1="316.38" gradientTransform="matrix(1.2315 0 0 .79928 40.51 0)" x2="126.02" x1="125.91"><stop stop-color="#b50000" offset="0"/><stop stop-color="#ffc500" offset="1"/></linearGradient><linearGradient id="g" y2="1003.7" xlink:href="#b" gradientUnits="userSpaceOnUse" y1="1040.4" gradientTransform="matrix(2.5627 0 0 .38409 40.51 0)" x2="78.22" x1="117.6"/><linearGradient id="h" y2="226.38" xlink:href="#b" gradientUnits="userSpaceOnUse" y1="245.98" gradientTransform="matrix(.88634 0 0 1.1105 40.51 0)" x2="255.03" x1="264.72"/><linearGradient id="e" y2="147.35" xlink:href="#b" gradientUnits="userSpaceOnUse" y1="149.38" gradientTransform="matrix(.55904 0 0 1.7607 40.51 0)" x2="456.4" x1="407.87"/></defs><path fill="#012169" d="M0 0h750v375H0z"/><path d="M0 0v20.96L333.07 187.5H375v-20.96L41.93 0H0zm375 0v20.96L41.93 187.5H0v-20.96L333.07 0H375z" fill="#FFF"/><path d="M156.25 0v187.5h62.5V0h-62.5zM0 62.5V125h375V62.5H0z" fill="#FFF"/><path d="M0 75v37.5h375V75H0zM168.75 0v187.5h37.5V0h-37.5zM0 187.5 125 125h27.95l-125 62.5H0zM0 0l125 62.5H97.05L0 13.98V0zm222.05 62.5 125-62.5H375L250 62.5h-27.95zM375 187.5 250 125h27.95L375 173.52v13.98z" fill="#c8102e"/><path d="M552.67 265.56s-2.08 5.49-3.27 5.49-5.49-2.37-5.49-2.37-3.11 5.05-4.75 5.34c-1.63.3-5.93-.74-5.93-.74s-4.16 0-4.3-.6c-.16-.59.14-1.77.14-1.77s-5.94 4.74-7.27 4.44c-1.34-.29-5.79-5.93-5.79-5.93l-.74 2.97-8.46-.3-7.42-4.75s-4.16 6.83-4.3 6.68-7.27 1.63-7.27 1.63l-.45-1.33-4.75-2.82s3.71-5.2 3.71-5.34-1.78-.75-1.78-.75l-2.67 2.23-5.5 3.56-5.48-2.52 2.37-4.45.3-3.27 4.3-6.53 52.68-51.2 25.97 47.94-3.85 14.39z" stroke="#000" stroke-width=".83" fill="#6a4c2d"/><path d="m590.1 268.67 13.7-.5-5.83-2.88 52.25-1.97-7.38-2.81-6.54-8.87-27.08-2.03s-2.03-1.55-5.34-.78c-.14-2.1-2.67-4.85-2.67-4.85l-16.67-1.27-10.41 7.1 7.03 18.01 8.94.85z" stroke="#000" stroke-width=".83" fill="#FFF"/><path d="m121.32 150.76 2.22-7.56s3.89-6.56 3.89-9.46c0-2.89 2.9-6.33 2.9-6.33s8.89-2.56 10.78 2.89c9.57-14.46 20.8-.67 20.8-.67l3.11-3.67 6.34-7.78s9.01 8.45 9.12 9.89c.11 1.45 1.55.45 1.55.45l9.79-.78s4.64 3.64 3.67 10.56c3.45 2.04 6.56 14.01 6.56 14.01l-80.73-1.55z" stroke="#000" stroke-width="1pt" fill="url(#c)" transform="matrix(.621 0 0 .621 461.4 21.48)"/><path d="M590.1 170.97c1.05-.64 4.35-1.69 3.95-6.52s-4.59-5.4-6.92-5.24c-2.34.16-4.44 2.18-4.44 2.18l-7.73-4.91s3.87-24.41 7.98-25.94c3.9-2.81 4.59-4.03 4.59-4.67 0-.64-1.45-2.26-1.45-2.26l-25.21-2.98-23.84 2.82s-1.85 2.82-1.61 3.95c.24 1.12.32 2.33 4.59 5.64 4.72 3.63 7.97 24.48 7.97 24.48s-6.68 3.3-7.09 2.9c-.4-.4-2.41-.8-3.46-.64-1.04.16-4.5 1.93-4.5 6.52 0 4.6 3.46 7.25 3.46 7.25s22.79-2.66 26.17 3.62c3.3-7.57 24.97-4.9 27.54-6.2z" stroke="#000" stroke-width=".83" fill="#656263"/><path stroke-linejoin="round" d="M614.66 145.6s.25-2.65 2.14-3.91c1.9-1.26 14.5-1.9 17.54 0 3.02 1.9 4.16 11.23 4.16 11.23s1.9 3.28 2.02 5.67.37 4.04.37 4.04 10.1 13.12 10.22 24.98c1.14 8.07.88 29.64-2.27 37.83-.13 10.22-4.41 16.9-4.41 16.9s1 1.77.88 3.66c-.13 1.9-1.14 3.66-1.14 3.66l14.76 7.32-5.42-2.02s5.55 4.67 5.42 4.54c-.13-.13-6.18-2.9-6.18-2.9l3.66 3.66c-.13-.13-8.96-4.04-8.96-4.04s4.16 3.91 3.91 3.79c-.25-.13-6.68-3.16-6.68-3.16s4.03 4.3 3.9 4.04-5.8-2.52-5.8-2.52l.26 2.14s-4.54-.25-4.54-3.66a15.19 15.19 0 0 1-3.78-3.03l-10.47-1.76-11.87-35.45 2.78-59.91.76-3.03-1.26-8.07z" stroke-opacity=".98" stroke="#000" stroke-width=".78"/><path stroke-width=".82" d="M606.73 337.07s-6.07-12.77-9.1-12.95c-2.73-5.21 9.5-47.8 33.15-50.22 13 1.07 1.07 14.99-7.48 10.7 1.07 3.75 5.34 9.11 5.34 9.11s-16.92 7.32-21.9 43.36z" stroke="#000" fill="#fb0"/><path d="M525.3 338.94s5.04-14.55 8.09-14.73c3.05-.18-8.08-48.47-32.32-48.83-13.1 1.08-1.07 15.08 7.54 10.77-1.07 3.78-5.38 9.16-5.38 9.16s17.05 7.36 22.08 43.63z" stroke="#000" stroke-width=".83" fill="#fb0"/><path d="M547.54 248.1c-.06-.11-6.02 1.87-2.16 8.36.29-2.51 2.97-4.03 2.97-4.03s-4.08 4.85.24 8.93c.53-3.85 2.98-5.08 2.98-5.08s-3.04 8.94.06 10.75c.35-3.57 2.62-5.14 2.62-5.14s-2.74 8-.29 9.8c.3-3.02 2.33-4.37 2.33-4.37s-1.22 8.3 2 8.88c.05-2.93 2.39-5.78 2.39-5.78s-1.06 6.77 3.97 7.06c.06-2.57 1-5.49 1-5.49s2.27 7.18 5.6 6.02c-.06-2.1.06-6.08 0-6.08s2.1 6.83 6.07 5.55c-.58-1.93.23-4.2.23-4.2s2.1 4.26 5.9 2.86c.65-1.29-.17-3.8-.17-3.8s5.54 5.73 7.24 2.28-4.44-4.61-4.44-4.61h4.15s-1.34-3.5-6.95-4.27c1.92-.88 3.91-.23 3.91-.23s-1.17-4.38-6.9-4.85c2.23-.76 4.68-.23 4.68-.23s-.76-4.15-7.06-5.32c.99-1.1 3.67-.75 3.67-.75s-2.5-3.92-5.37-3.69c-2.86.24-28.73-2.62-28.67-2.57z" stroke="#000" stroke-width=".83" fill="#00713d"/><path d="M573.06 269.19s2.28 1.1 2.22 2.1m-.88-3.91s2.92 2.04 2.87 3.56m-.3-4.62s2.34 1.46 2.45 3.74m1.46-2.8s1.17 2.51.76 2.98m1.58-1.64c.17 1.99-.18 2.16-.18 2.16m-28.61-14.71s2.74 1.75 2.51 4.2m-2.69-2.1s1.29 1.23 1 2.04m2.4-4.08s1.8 2.5 1.22 4.26m1.87-2.63s.82 1.58.06 2.45m1.4-1.69s.99 1.58.11 2.1m-1.22 3.1s2.56.58 2.92 2.5m-1.4-4.25s2.68.17 2.98 3.03m.58-4.03c.06 0 1.8 3.1 1.51 4.09m1.94-3.8s.7 2.98.17 3.92m2.04-2.75.06 3.45m-3.44-8.12s1.69.64 1.57 2.28m0-3.8s2.16 1.23 1.93 3.57m.58-4.56s1.87 2.22 1.17 4.67m2.1-4.15s-.7 2.75-.41 3.86m2.4-1.99s-1.23.94-.59 2.1m-10.04 8.59s.4 2.1 0 2.45m-2.69-3.67s1.34 2.33.88 3.5m-3.74-3.62s1.52 1.75 1.46 3.15m-3.8-2.8s1.4 1.35 1.3 2.1m-2.52-.06s1.34 1.4 1.28 1.7" stroke-width=".78" stroke-linecap="round" stroke="#3ec26d" fill="none"/><path d="m529 173.49 19.32-.35s12.76 0 14.14 4.15c2.42-5.53 13.45-5.18 13.45-5.18l20-.69.35 48.3c-3.9 18.73-17.47 31.95-32.42 37.59-17.82-5.75-29.09-20.81-32.76-37.95L529 173.5z" stroke="#000" stroke-width=".83" fill="#FFF"/><path d="m535.88 173.31 28.14 74.98 25.42-76.61c-7.89.5-24.8-1.24-26.9 5.95-3.26-6.44-21.06-3.84-26.66-4.32z" stroke="#000" stroke-width=".83" fill="#006b00"/><path d="M555.03 213.9c1.1.57 1.06-20.35 2.48-21 .4-1.72.61-2.48 1.12-4.32-1.22-2.17-6.7-2.06-8.73-.22.91 2.92 1.32 3.9 1.32 3.9 2.74 4.44 2.2 22.12 3.82 21.65z" stroke="#006b00" stroke-linecap="round" stroke-width=".43" fill="#ffc900"/><path stroke-linejoin="round" d="M547.5 52.25s1.99-2.26 2.08-2.8c.09-.54 9.03-.9 14.36-10.84 2.98-5.24 0-2.17 0-2.17l-.18-2.53s3.7-3.52 2.35-5.42c-1.36-1.9-.9 2.44-3.07 2.35s-1-4.7-1-4.7-.17-.54-.8-.81c-.91.09-.64 1.72-1.45 1.9-.82.18-1.54-3.8-1.54-3.8s-1.35-1.8-2.53 3.89c.63 6.05 4.52 4.87 4.52 8.85 0 3.98-3.44 7.05-4.43 7.14-1 .09-.63-3.35-.63-3.35s-.54-1.62-.9-1.62 1.98-.36 1.62-4.88c-.81-5.42-1.44 1.26-2.89 1-1.45-.28-.36-4.98.18-5.52s-.63-2.8-3.8 2.98c-.27 2.8-.63-.72-1.26-.54-1.08 2.26-.9 3.89.63 5.96 2.26 2.08 3.71 4.16 3.62 5.24-.09 1.09-1.27 3.53-2.9 3.53-1.62 0 .1-2.98 0-3.98-.08-1-2.8-4.6-2.8-4.6s-1.9-3.08-1.71-3.17c.18-.09-.18-.54-1.08 2.62-.9 3.17-2-2.07-2-2.07s-1.26 3.88 1.45 6.23c-2.07-.27-2.25.54-2.25.54 0 1.09 2.8 1.54 3.16 3.43.36 1.9-2.9 2.99-2.9 2.99s1.36 1.9 5.15-1.81a5.94 5.94 0 0 1-1.44 3.97c1.26.58 2.25.52 2.43 2z" stroke="#000" stroke-width=".78" fill="#cdad56"/><path stroke-linejoin="round" d="M535.1 52.25s-1.69-2.5-1.76-3c-.08-.5-8.31.62-12.2-9.41-2.54-4.77 0-1.98 0-1.98l.15-2.3s-2.7-3.3-1.54-5.02.67 2.22 2.15 2.23c1.84-.09.85-4.28.85-4.28s.15-.5.69-.74c.76.08 1.08 2.56 1.77 2.72s2.12-2.9 2.56-3.54c.64-.09.61-2.55 1.61 2.63-.53 5.5-5.1 4.44-5.1 8.06s2.92 6.41 3.76 6.5c.84.07.54-3.05.54-3.05s.46-1.48.76-1.48c.31 0-2.68.58-2.37-3.53.7-3.85 2.22.24 3.45 0 1.23-.25-.14-4.07.2-4.66.09-.58 1.9-3.09 2.6 2.44.23 2.55 1.62-2.19 2.15-2.02.93 2.05-.4 4.8-1.7 6.69-1.92 1.89-2.8 3.96-2.71 4.95.07.98.53 2.2 1.91 2.2s.47-1.71.54-2.62 2.38-3.83 2.38-3.83c.45-.72.07-2.07.55-2.7.75.01 1.06-1.03 1.83 1.85s1.69-1.9 1.69-1.9 1.07 3.54-1.23 5.68c1.76-.25 1.92.5 1.92.5 0 .98-.84 1.39-1.15 3.12s.92 2.7.92 2.7-1.15 1.74-4.37-1.63a5.58 5.58 0 0 0 1.23 3.61c-1.09.52-1.92.47-2.08 1.81z" stroke="#000" stroke-width=".68" fill="#cdad56"/><path d="M584.74 184.5c-1.68-1.53-1.88-.2-2.7-.54-.41-.17-.73-.55-1.08-.9-.3-.31-.67-.44-1.08-.6l-.46 1.34c-.16.44.43 1.21.42 1.89-.12 1-.53 1.84-1.8 2.18.36-.71.57-.74.46-1.62-.05-.43-1.28-1.2-1.13-1.62.23-.66.61-1.43.33-2.1-.52.36-1.2.18-1.72.4-.44.19-.47 1-1.07 1.33-.62.3-2 .15-3.15-.5.7-.53 1.28-.17 1.98-.7.35-.27.34-1.4.69-1.67.35-.27 1.2-.55 1.54-.81-.32-.36-.3-.93-.62-1.29-.3-.36-1.7-.28-2.02-.64-.63-.72-.51-1.66-1.14-2.38 1.63.59 1.4 1.38 1.8 1.32.77-.37 1.54-.44 1.95-.27.4.17 1.18 1.18 1.58 1.34.16-.45.38-1.02.53-1.47.15-.46-.68-1.24-.54-1.7.31-.9 1.07-1.7 1.38-2.6.1.87.25 1.6.36 2.48.06.43.92.66.97 1.1.06.44-.45 1.44-.4 1.88.48-.09 1.15-.03 1.62-.12.47-.1.78-1.18 1.25-1.27a6.05 6.05 0 0 1 2.56.05c-.7.65-1.24.6-1.68 1.2-.35.27.14 1.14-.88 1.76-.38.22-1.38-.05-1.73.22l.95 1.08c.31.36 1.73.52 2.04.88.63.72.97 1.57.8 2.34zm-43.26.73c1.68-1.52 1.88-.19 2.71-.53.4-.17.72-.55 1.08-.9.3-.31.67-.44 1.07-.62l.46 1.36c.16.46-.42 1.2-.41 1.88.11 1.01.52 1.84 1.79 2.2-.36-.72-.57-.76-.45-1.63.05-.43 1.27-1.21 1.12-1.63-.22-.65-.6-1.42-.32-2.09.52.36 1.2.18 1.72.39.43.2.46 1 1.07 1.34.62.3 2 .15 3.14-.5-.7-.53-1.28-.17-1.98-.7-.35-.27-.33-1.41-.69-1.67-.34-.27-1.18-.55-1.54-.82.32-.35.3-.93.62-1.29.31-.35 1.71-.28 2.02-.64.64-.71.52-1.65 1.15-2.37-1.64.58-1.4 1.37-1.8 1.32-.78-.37-1.55-.45-1.96-.27-.4.16-1.18 1.17-1.58 1.34-.15-.45-.37-1.02-.53-1.48s.7-1.23.54-1.68c-.3-.91-1.07-1.7-1.38-2.61-.1.87-.25 1.6-.36 2.48-.06.43-.91.66-.97 1.1-.05.43.45 1.44.4 1.88-.48-.1-1.15-.03-1.62-.12-.46-.1-.77-1.19-1.25-1.28a6.07 6.07 0 0 0-2.56.05c.7.66 1.24.6 1.68 1.2.35.28-.13 1.15.88 1.77.38.22 1.38-.05 1.73.22a73.93 73.93 0 0 0-.94 1.07c-.32.36-1.74.53-2.05.89-.63.72-.97 1.57-.8 2.34z" fill="#ffc900"/><path stroke-linejoin="round" d="M583.23 189.33c-1.52 1.18-11.37 3.67-11.47 12.22-.1 8.55 1.72 10.5-.1 10.72-3.55 0-4.06-9.52-3.96-13.75.1-4.22.2-3.57.2-3.57s2.44.65 2.24 2.71c-.2 2.06 2.43-5.1 1.52-7.04 1.62 1.62 3.76.98 3.76.87 0-.1-1.22-1.4-1.73-2.38s1.82.54 1.82.54.1-1.63-1.93-1.52c-2.64 0 .41-.87.41-.87s1.52 1.41 2.54-.1c-1.11-1.2-2.74-1.85-2.74-1.85s-1.42-2.7-3.35-3.24c-2.23-.54-1.93.97-4.47.76-.5.97-.5 1.08.5 1.4-1.72 1.2-.8 3.57-.8 3.57s2.74-1.18 2.64.76c-.1 1.95-1.63 1.63-2.64.44-.92-.54-1.22.54-1.22.54l1.42 1.51s-2.74-.1-3.45 1.73c1.52-.1 2.33.33 2.33.33s-3.14 1.4-3.45 2.16-.4-.86-.5-.86a99 99 0 0 1-3.05-1.09l-1.02 4.69s2.04 2.03 3.15 1.38c1.12-.65 3.15-2.6 4.36-2.06-3.55 2.7-7.1 6.6-9.03 7.15-.5-.44-2.23-2.17-2.94-1.3-.71.86-.2 1.94.7 1.84.92-.11-2.93.86-2.13 2.49.82 1.62.72 1.51 1.43 1.08.7-.44-.61-.54 2.03-1.3s2.54-1.51 2.54-1.51-.51 1.18-1.94 1.51c-1.42.32-2.53.32-2.23.76.3.43.92 1.18.71 1.62s2.95-2.27 3.76-.1c2.13-.12 3.55-2.71 2.54-4.23.1 1.62 1.12 2.17.5 2.93-.6.75 4.78-2.5 2.14-4.44.7 1.62.81 2.92.81 2.92s1.22-.11 1.52-.54c.3-.43-.6 1.19-.2 1.51.4.33 2.33 2.17 1.52 3.46-.5-.75-.6-1.95-1.22-1.83-.6.1-3.15 1.95-4.67 2.05s1.83 5.64 1.83 5.64-2.34-.33-2.64-.12-1.83-1.95-2.13-.64c-.51 1.62.5.97.5.97s-1.31-.65-2.02.1c-.72.77-1.42 1.52-.92 1.85.5.32 2.74.32 3.05.21s-2.54.22-2.74.54c-.2.33-.6 1.52 0 1.95s2.13-.21 2.23-.54c.1-.33.2 1.19.2 1.19s2.64.22 2.64-2.48c0-2.71.2 1.94.2 1.94s2.65.43 2.75-2.27c.1-2.7.3 1.84.3 1.84s1.73-.55 1.73-.97c0-.44-.1 5.4-1.32 7.03-1.93-1.3-3.15.87-3.15.87s.1 3.13-.1 3.89c-.2.76 1.32-.43 1.42-.76.1-.32 1.93-1.18 2.03-1.4l.6-1.3s-.4 1.52-1.1 1.73c-.72.21-1.43.97-1.12 1.62s1.42 1.08 1.82 1.74c.4.64 1.83-3.8 1.83-3.8l.1.98s1.83-.43 2.04-1.3c.2-.86-1.93-1.62-.2-3.03 1.72-1.4 0 1.3 0 1.3s.6 2.06 1 2.06c.41 0 1.43-3.9.41-4.87-1.02-.98 1.52 1.19 1.52 1.19s1.43-4.01-.1-4.55c-1.52-.54-2.23-.76-2.23-.76s.81-1.08.4-1.18c-.4-.12 2.14 2.37 2.54 1.72.41-.64 1.02-2.6-1.92-3.67-2.95-1.08-.1-4.12-.1-4.12s1.82 2.17 3.14.97c1.32-1.18-.1-1.18-.1-1.18s3.75-2.39 3.86-3.58c-.72-.1-1.93.11-1.93.11s2.13-1.4 1.62-3.68c-.8 1.2-1.93 1.2-1.93 1.2s1.83-1.85 1.52-3.58c-1.1.86-1 1.52-1.72 1.3-.71-.22-1.93-7.04.92-7.47 2.83-.43 1.31 3.36 1.41 3.36.1 0 4.27-1.73 0-4.55 1.02-.33 3.15 1.62 3.15 1.62s-.91-4.76-5.48-1.83c1.12-1.2 1.83-1.95 2.74-1.74s4.16-.11 4.16-1.08c-.8-.65-2.53.33-3.45 0-.91-.33 6.5-.87 5.9-4.54z" stroke="#006b00" stroke-linecap="round" stroke-width=".43" fill="#ffc900"/><path d="M481.3 118.54s12.25-6.43 18.37 1.54m4.9 12.24c-.31 0-4.29 3.98-5.21 3.98m13.48 8.88s11.32.92 18.67-10.41" transform="matrix(.3316 0 0 .35352 391.45 150.23)" stroke="#006b00" stroke-linecap="round" stroke-width="1.25" fill="none"/><path d="M525.08 141.81s.92 6.13 2.76 6.13c1.83 0-3.06 1.53-4.9.3 2.14 2.76 3.37 7.66 0 9.49" transform="matrix(.3316 0 0 .35352 391.45 150.23)" stroke="#006b00" stroke-linecap="round" stroke-width="1.25" fill="none"/><path d="M519.26 218.97s-3.98 4.28-8.88 4.59" transform="matrix(.3316 0 0 .35352 391.45 150.23)" stroke="#006b00" stroke-linecap="round" stroke-width="1.25" fill="#e80000"/><path d="M523.86 199.37s-2.45-12.24-.92-15.31c.92-3.98 4.9-5.51 7.96-10.71m-8.27 17.14s-3.06 7.35-16.53 4.9m20.21-23.27s.91 9.8-11.33 6.13m-3.68-50.21s-4.9 4.28-3.06 10.1" transform="matrix(.3316 0 0 .35352 391.45 150.23)" stroke="#006b00" stroke-linecap="round" stroke-width="1.25" fill="none"/><path d="M567.09 191.7s2.13-.86 2.54-1.3c.4-.43 1.11-1.3 1.32-1.95.2-.64-1.43-1.62-.61-3.03.5-.65 1.21-.75 2.43 0 1.22.76-1.11-2.38-2.33-2.48-1.22-.11-2.03.86-2.34.64-.3-.21.1.87-.4.87s1.01.87.91 1.4c-.1.55 1.62 2.39 1.52 2.82-.1.43-2.54 2.92-3.04 3.03z" fill="#006b00"/><path stroke-linejoin="round" d="M534.27 97.11c2.79-.63 3.24.07 2.75 2.45-1.31-.66-1.79-1.22-2.75-2.45z" transform="matrix(.3316 0 0 .35352 391.45 150.23)" stroke="#ffc900" stroke-linecap="round" stroke-width="1.25" fill="#ffc900"/><path stroke-linejoin="round" d="M514.71 233.52s-1.03 6.41 1.49 6.94c-.13-2.48.54-4.17 1.16-4.83-.54-.25-2.53-2.07-2.65-2.11zm-5.68-7.89c-2.32-.33-6.23 1.59-5.11 3.91 1.89-1.62 3.63.13 4.95-1.52.4-.46.29-1.81.16-2.39zm-.02-4.58s-3.65-.58-4.16 1.95c2.52-.32 3.27-.59 4.11-.06.24-.54.01-1.76.05-1.89z" transform="matrix(.3316 0 0 .35352 391.45 150.23)" stroke="#006b00" stroke-width="1.25" fill="#e80000"/><path stroke-linejoin="round" d="M493.54 184.94s2.19.82 2.81 3.06c1.74-1.08 2.57-5.83-2.81-3.06zm-5.42 5.45c.09-.04 4.59-2.77 5.05-.16-.95.95-1.37 1.57-2.11 1.78-.58 0-1.74-1.78-2.94-1.62zm-.45 8.85c.08-.04 2.89-2.52 3.97-.87 1.07 1.66-.87 1.57-.87 1.57s-.99-.45-3.1-.7zm-3.97-49.28c-.04 0-3.6-1.37-5.09 1.11 2.36.29 3.19 1.12 4.26 1.95-.29-1.04-.78-2.61.83-3.06zm-6.9 18.56s.16-4.17 2.14-5.87c1.12.62 1.45 1.61 2.2 2.85-1.49.33-3.48.42-4.34 3.02zm9.5-2.98s-3.92 1.82-2.64 3.81c1.28-1.37 2.69-.95 2.69-.99s0-2.77-.05-2.82z" transform="matrix(.3316 0 0 .35352 391.45 150.23)" stroke="#006b00" stroke-width="1pt" fill="#e80000"/><path stroke-linejoin="round" d="M480.64 125.6c-1.41 1.58 1.74 5.01 5.04 4.51.83-3.72-4.21-5.66-5.04-4.51z" transform="matrix(.3316 0 0 .35352 391.45 150.23)" stroke="#006b00" stroke-width="1pt" fill="#ffc900"/><path d="M550.82 192.09c-.23.62.68 1.49 1.2 1.24.22-.63-.97-1.73-1.2-1.24z" fill="none"/><path stroke-linejoin="round" d="M484.28 122.75s.62 2.94 3.47 2.15c-.45-2.27-2.44-3.97-2.44-3.97-.12.67.41 1.7-1.03 1.82zm1.9 8.52s1.57 1.69 4.67-1.78c-1.4.41-3.88-.83-3.88-.83s0 2.4-.79 2.61z" transform="matrix(.3316 0 0 .35352 391.45 150.23)" stroke="#006b00" stroke-width="1pt" fill="#e80000"/><path stroke-linejoin="round" d="M480.46 118.86c-1.4 1.57.59 3.76 3.89 3.27.83-3.72-3.06-4.42-3.89-3.27z" transform="matrix(.3316 0 0 .35352 391.45 150.23)" stroke="#006b00" stroke-width="1pt" fill="#ffc900"/><path d="M144.62 266.62s7.04-2.01 10.78 1.01c3.73 3.01 3.73.28 3.73.28s5.46 2.01 7.04 1.58-1.15.15 1-1.15c2.16-1.29-4.31.29-4.88-2.44-1.01-1.72.14-3.88-2.15-3.16-1.58-2.01 1-3.44.43-5.6-1.58 1.15-2.45-.43-3.74 2.44-3.01-.57-.43-4.74-3.73-5.17 0 3.02-2.44 3.16-2.59 4.89-1.43 1-7.75 4.74-5.89 7.32z" fill="url(#d)" transform="matrix(.621 0 0 .621 461.4 21.48)"/><path d="M500.91 329.24c2.84-.69 18.2 3.4 24.12 9.74a96.6 96.6 0 0 0-4.39-19.97s-9.15-2.61-10.41-1.35c-1.84 1.93-7.38 7.75-9.32 11.58zM496.23 277c-1.08.18-2.16.9-3.23 2.7-1.26 3.04-2.16 10.76-3.95 12.56s-3.41 1.97-3.41 3.6c0 1.6.18 5.38 5.02 6.81 4.85.18 12.57-7.72 12.57-7.72s3.95-4.3 5.56-8.97c-9.33 3.23-15.97-5.4-12.56-8.98z" stroke="#000" stroke-width=".83" fill="#c01500"/><path stroke-width=".82" d="M631.24 327.44c-2.82-.68-18.35 3.37-24.23 9.68 1.24-11.24 4.36-19.86 4.36-19.86 1.08-.29 8.98-2.6 10.23-1.34 1.82 1.93 7.71 7.72 9.64 11.52zm4.35-51.94c1.07.18 1.45 1.59 2.32 3.37 1.24 3.03 2.53 7.46 4.31 9.24 1.78 1.79 3.39 4.43 3.39 6.03s-.38 3.78-5.19 5.2c-4.8.19-11.78-5.99-11.78-5.99s-3.92-4.28-5.52-8.92c9.27 3.21 15.26-5.06 12.47-8.93z" stroke="#000" fill="#c01500"/><path d="M490.84 319.37s9.7 6.64 9.88 9.7c26.03-38.6 92.45-50.64 130.32-2.7 5.04-6.65 10.24-8.8 10.24-8.8-39.85-52.06-119.2-45.6-150.44 1.8z" stroke="#000" stroke-width=".83" fill="#fb0"/><g stroke-width="1pt" stroke="#000" fill="#1e5aa6"><path d="m589.6 171.69 3.8-.1-6.78 8.59 8.13 9.49-16 20.14 15.1 18.16a47.32 47.32 0 0 1-6.15 11.12l-8.67-9.59 15.72-19.6-12.92-14.63 7.77-23.58zm-54.2 1.71-4.07.1 7.58 8.21-8.03 10.03 16.7 18.17-13.81 18.51a54.52 54.52 0 0 0 6.59 11.93l8.22-10.4-16.89-18.78 12.38-15.72-8.68-22.05z" stroke-width=".83"/><path d="m554.18 222.19-5.96 7.95 21.32 24.66a53.6 53.6 0 0 0 9.94-6.68l-11.11-12.83 4.52-13.28 6.5 7.5-20.33 25.93a44.69 44.69 0 0 1-10.57-6.51l10.75-13.64-5.06-13.1zm-6.6-12.38 3.9 4.88-2.54-6.6-1.35 1.72z" stroke-width=".83"/><path stroke-width=".8" d="m575.42 214.13 3.13-4.16-1.18-1.62-1.95 5.78z"/></g><g font-family="Timmons" font-size="14" font-weight="bold"><text y="362.4" x="-328.34" transform="matrix(.403 -.473 .473 .403 461.4 21.48)"><tspan y="362.4" x="-328.34">L</tspan></text><text y="384.27" x="-292.33" transform="rotate(-45.4 256.56 -540.87) scale(.621)"><tspan y="384.27" x="-292.33">E</tspan></text><text y="451.68" x="-239.78" transform="matrix(.4737 -.33822 .35254 .46837 461.4 21.48)"><tspan y="451.68" x="-239.78">O</tspan></text><text y="429.96" x="-188.53" transform="matrix(.51446 -.3478 .3478 .51446 461.4 21.48)"><tspan y="429.96" x="-188.53">T</tspan></text><text y="451.48" x="-115.43" transform="matrix(.56 -.268 .268 .56 461.4 21.48)"><tspan y="451.48" x="-115.43">E</tspan></text><text y="453.05" x="-94.11" transform="matrix(.567 -.252 .252 .567 461.4 21.48)"><tspan y="453.05" x="-94.11">R</tspan></text><text y="454.98" x="-68.37" transform="matrix(.576 -.232 .232 .576 461.4 21.48)"><tspan y="454.98" x="-68.37">R</tspan></text><text y="445.67" x="112.02" transform="rotate(-4.6 467.78 -5492.19) scale(.621)"><tspan y="445.67" x="112.02">R</tspan></text><text y="430.79" x="180.22" transform="matrix(.62 0 0 .62 461.4 21.48)"><tspan y="430.79" x="180.22">R</tspan></text><text y="275.22" x="414.76" transform="rotate(29.59 189.6 883.3) scale(.621)"><tspan y="275.22" x="414.76">R</tspan></text><text y="193.05" x="483.88" transform="rotate(39.8 201.03 648) scale(.621)"><tspan y="193.05" x="483.88">E</tspan></text><text y="414.03" x="309.12" transform="matrix(.59837 .11248 -.09645 .5911 461.4 21.48)"><tspan y="414.03" x="309.12">O</tspan></text><text y="459.27" x="105.06" transform="matrix(.56007 -.08172 .08475 .60547 461.4 21.48)"><tspan y="459.27" x="105.06">O</tspan></text><text y="455.83" x="-45.71" transform="matrix(.582 -.215 .215 .582 461.4 21.48)"><tspan y="455.83" x="-45.71">A</tspan></text><text y="144.72" x="518.35" transform="rotate(45.2 204.9 565.02) scale(.621)"><tspan y="144.72" x="518.35">A</tspan></text><text y="388.3" x="271.19" transform="rotate(11.36 122.69 2331) scale(.621)"><tspan y="388.3" x="271.19">A</tspan></text><text y="455.17" x="40.32" transform="matrix(.61 -.115 .115 .61 461.4 21.48)"><tspan y="455.17" x="40.32">M</tspan></text><text y="448.08" x="94.43" transform="matrix(.618 -.064 .064 .618 461.4 21.48)"><tspan y="448.08" x="94.43">P</tspan></text><text y="437.61" x="155.09" transform="matrix(.62 0 0 .62 461.4 21.48)"><tspan y="437.61" x="155.09">P</tspan></text><text y="276.67" x="405.13" transform="matrix(.54 .306 -.306 .54 461.4 21.48)"><tspan y="276.67" x="405.13">P</tspan></text><text y="409.79" x="232.09" transform="rotate(6.59 44.08 4020.83) scale(.621)"><tspan y="409.79" x="232.09">I</tspan></text><text y="132.09" x="530.39" transform="rotate(46.59 205.75 546.6) scale(.621)"><tspan y="132.09" x="530.39">T</tspan></text><text y="218.52" x="464.16" transform="rotate(36.82 198.43 703.93) scale(.621)"><tspan y="218.52" x="464.16">T</tspan></text><text y="361.96" x="313.73" transform="rotate(16.31 154.52 1615.24) scale(.621)"><tspan y="361.96" x="313.73">M</tspan></text><text y="123.25" x="513.7" transform="rotate(47.66 206.38 533.07) scale(.621)"><tspan y="123.25" x="513.7">G</tspan></text></g><path d="M620.34 146.27s3.75-3.21 6.42-3.3m-5.88 2.85c.09-.09 22.39-3.21 23.1-3.93m-23.01 4.1c.08-.08 24.97-2.13 24.97-2.13m-25.06 2.23s26.49-1.25 28.1.09m-28.2-.18s25.96.18 26.41.8m-26.31-.8 24.97 2.05m-25.24-1.87c.09 0 25.42 2.23 27.92 5.44m1.33 4.54c-.09-.08-8.65-10.25-29.34-10.07m.1.18s14.35.98 18.9 5.97m-18.64-6.15s9.27-1.79 19 9.9" stroke-width=".83" stroke="#fff700" stroke-linecap="round" fill="none"/><path d="M247.4 217.74s20.72.82 20.72 2.85-15.44 5.89-15.64 14.42 11.78 9.14 12.59 19.9c.81 10.77-9.34 12.39-11.37 15.24-2.04 1.42-6.91 16.65-6.3 25.59s3.25 39.2 7.92 45.3c3.66 2.84 9.14 11.98 15.03 9.14 5.89-2.85 1.83-13.2 1.22-16.05-.61-2.84 2.44-7.51 2.44-11.78s-2.24-7.72-2.03-8.73c.2-1.02 16.45 3.86 15.43 19.9-1.01 16.05-7.51 11.17-7.51 11.17s2.03 19.71-3.05 22.35c-9.14 4.87-15.84-1.02-15.84-1.02l.86 4.01-6.95-3.6s-8.94-12.8-10.97-18.49c-2.03-5.68-4.47-31.07-3.66-36.56.81-5.48 1.42-37.58 1.02-39.2-.41-1.63-2.03-28.44-1.02-32.5 1.02-4.06 7.31-21.94 7.11-21.94z" stroke="#000" stroke-width="1pt" fill="url(#e)" transform="matrix(.621 0 0 .621 461.4 21.48)"/><path d="M601.16 153.42s8.96-8.7 14.13-7.7c2.65 0 .12 1.9.12 1.9s4.54.38 5.18 2.4c.12.88-2.15 1.13-2.15 1.13s1.9.38 2.02 2.02c.13 1.64-19.17.37-19.3.25z" stroke="#000" stroke-width=".83" fill="#ff7000"/><path d="M601.66 153.04s9.6-1.26 13.63-5.3m-3.91 2.65s7.06-.25 7.06.76" stroke="#000" stroke-width=".83" fill="none"/><path stroke-linejoin="round" d="M636.48 253.57s6.05-1.39 7.7-3.53c1-.76 6.3 7.95-7.7 3.54z" stroke="#000" stroke-width=".78" fill="#FFF"/><path d="M634.84 203.5s.76 4.67-1.39 7.82c-1.13 1.26-4.54 3.4-4.54 4.92 0 1.51 1.26 3.53 1.01 5.3-.25 1.76-2.14 3.53-2.02 5.04 0 1.52 2.15 9.59 1.89 9.71m-6.05-47.93s-4.8 1.64-5.8 6.44" stroke="#FFF" stroke-linecap="round" stroke-width=".78" fill="none"/><path d="M621.72 150.4s1.64 4.54 6.94.24c-3.41-4.66-6.94-.12-6.94-.24z" stroke="#000" stroke-width=".83" fill="#c75b00"/><path d="M625.63 150.2c0 .25-.25.45-.57.45s-.56-.2-.56-.45c0-.24.25-.44.56-.44s.57.2.57.44z"/><path d="M578.4 139.86s10.05 10.87 16.55 10.75c1.18 3.2-2.95 6.16-4.6 7.58-3.32-1.06-6.3.2-13.99-9.26.48-6.03 2.16-8.84 2.04-9.07zm13.6-25.3c1.3-4.01 3.9-7.2 6.14-7.56-.6-3.07 4.73-16.66 20.21-21.87.95 6.98-6.62 13.83-6.62 13.83s22.81-3.9 27.42-9.69c-.47 2.6-5.08 18.8-29.43 18.67 9.22 8.75-2.95 15.73-8.15 13.6 9.57-7.33-2.72-11.7-9.57-6.98z" stroke="#000" stroke-width=".83" fill="#FFF"/><path d="M599.8 108.9c4.6-2.96 6.26-2.96 10.04-2.37-2.72.35-2.72.47-2.72.47s-.23.35 1.42 1.9c-1.89-.48-3.55-1.55-8.74 0z" stroke="#CCC" stroke-width=".83" fill="#cccccd"/><path d="M598.02 107s9.1-4.84 14.18-8.15" stroke="#000" stroke-width=".83" fill="none"/><path d="M590.22 158.18s12.53 3.42 13.95-14.54c-2.72-7.8-6.5-24.59-.71-29.43-5.32-3.66-11.11.12-11.11.12-.35.82-5.09 7.56 1.3 19.38-15.13-4.02-8.98 10.28-8.98 10.28.59-2.25 8.62-4.37 10.64 7.1.82 2.83-5.44 7.2-5.09 7.09z" stroke="#000" stroke-width=".83" fill="#00F"/><path d="M604.29 143.76s13.24-7.1 12.88-23.76c-11.23.24-15.25 14.77-15.25 14.77l2.37 8.99z" stroke="#000" stroke-width=".83" fill="#00F"/><path d="M544.96 142.93s-9.81 8.5-15.37 5.79c-4.13 2.48-8.98-1.89-8.98-1.89s5.67 20.92 26 5.79c-.35-4.6-1.42-9.33-1.65-9.69z" stroke="#000" stroke-width=".83" fill="#FFF"/><path d="M529.47 148.37c.83-4.38 4.26-6.5 6.98-2.37 3.66.71 7.33-14.3-5.68-11.82 3.67-19.62-7.32-26.94-7.32-26.94s-3.9 21.74-2.13 25.76c1.77 4.02-2.6-7.45-16.66-10.64-.24 16.43 15.72 24.12 15.72 24.12s4.49 4.13 9.1 1.88z" stroke="#000" stroke-width=".83" fill="#00F"/><path d="M530.77 134.06s-6.14 5.2-4.72 12.3m-4.61-13s-1.42 5.07 1.65 12.28m-2.6 1.66s2.84-4.6 8.98 1.3" stroke="#000" stroke-width=".83" fill="none"/><path d="M521.67 115.39c0-.12-9.33 0-3.78 9.46-4.13 1.3-13.35-4.73-6.97-12.77-20.92-.47-29.43-10.51-29.43-19.74 6.15 6.39 20.8 3.79 26 7.69-6.38-5.91-5.08-14.07-5.08-14.07s17.85 5.32 21.04 21.16c-1.07 3.07-1.54 8.5-1.78 8.27z" stroke="#000" stroke-width=".83" fill="#FFF"/><path d="M507.32 99.62c3.44 3.5 12.3 4.55 16.78 8.45" stroke="#000" stroke-width=".83" fill="none"/><path stroke-width=".59" d="M511.4 109.96s7.32-.95 9.44 1.65c-2.87 0-3.82-.71-7.96.83 1.17-.6.85-1.66 1.49-1.66s-2.66-.82-2.98-.82z" stroke="#CCC" fill="#cccccd"/><path d="M547.91 52.63s4.02-3.54 8.4-.35c-1.98 5.9-9.1 3.66-9.1 3.66s.23 2.96-.48 4.38c1.42 1.07 2.6 4.6 2.6 4.6s7.33-1.77 8.87 1.43c2.8-.4 4.84 0 4.84 0s5.68-1.42 7.68-1.42c2.01 0 8.4 1.65 8.98 2.83.6 1.18 2.72 9.1 4.14 8.98 1.42-.11-3.42 1.9-4.73-.11-1.3-2.01-.94 2.6-.94 2.6s4.01 4.25 4.49 5.2c.47.94-2.48 8.62-.24 13.94-1.97.18-2.12 2.25-2.12 2.25-.11 2.34-3.08 2.95-3.08 2.95l-.7-3.19-2.02 1.19.83-2.49s2.72-6.62 2.96-8.74c.23-2.13-2.49-5.91-4.61-5.91-2.13 0-3.67 6.73-3.67 6.73s-1.06 5.08-.7 5.56-1.43-1.66-1.43-1.66-.94 3.08-1.65 4.02-2.25 1.3-2.25 1.3-1.06-3.07-.7-4.25 5.79-5.8 5.32-9.1c-.48-3.31 0-2.48-.13-2.6-.11-.12-2.83-2.48-2.95-3.78-.11-1.3-3.54 1.65-8.03.7-1.38 2.4-1.54 8.4-1.54 8.4s-.47 7.2.47 8.03c.95.83-2.36 2.6-2.36 2.6l-2.37 3.2s-.82-2.01-.82-1.9-1.66 1.18-1.66 1.18l.95-2.36c-.06-1.79 2.3-6.68 2.3-10.81s.3-8.57.3-8.57-4.38-.24-4.26 4.25c.12 4.5-1.06 4.73-.82 6.03s1.41 4.96 1.06 6.03c-.36 1.06-1.77 1.42-1.77 1.42l-.36.59s-4.37 2-4.25 2.83-.12-2.36-.12-2.36l-.24-3.43s2.6-1.65 2.6-5.79-.6-4.72-.48-5.67c.12-.95.72-4.37.6-4.73-.12-.35-2.48.95-3.2.95-.7 0 1.31-2.49 1.55-4.26s-2.37 1.66-4.5-.35c1-2.18 2.49-2.84 2.72-4.5s-1.65 1.42-3.3.24c.13-1.58 1.77-2.95 1.77-2.95s-1.35-.17-1.9 0c-1.06-.36 1.19-2.01 1.3-4.37s-1.3-3.31-1.3-3.43-2.36-2.13-2.71-2.96-.35-1.77-.35-1.77-3.91 2.84-8.52-3.2c4.22-3.6 8.75-.94 8.75-.94s1.18-3.3 6.62-3.07c5.44.24 6.5 3.31 6.26 2.96z" stroke="#000" stroke-width=".83" fill="#923f00"/><path d="M577.64 113.77c.1 0 10.04.3 10.14 5.61.1 5.31-3.05 3.94-3.15 3.94s-7.28-.89-7.28-.89l.3-8.66z" stroke="#000" stroke-width=".83" fill="#00F"/><path d="M568 112.29s12.4-.1 11.7 5.32c-.68 5.41-3.83 4.33-3.83 4.33l-6-.5-1.88-9.15z" stroke="#000" stroke-width=".83" fill="#fffeff"/><path d="m561 111.7 7.2.59s4.32.59 4.13 4.73c-.2 4.13-4.44 4.23-4.44 4.23l-6.98-.4.1-9.15z" stroke="#000" stroke-width=".83" fill="#00F"/><path d="M544.18 113.77c-.1 0-10.04.3-10.14 5.61-.1 5.31 3.05 3.94 3.15 3.94s7.29-.89 7.29-.89l-.3-8.66z" stroke="#000" stroke-width=".83" fill="#FFF"/><path d="M553.82 112.29s-12.4-.1-11.7 5.32c.68 5.41 3.83 4.33 3.83 4.33l6-.5 1.87-9.15z" stroke="#000" stroke-width=".83" fill="#00F"/><path d="m560.82 111.7-7.19.59s-4.33.59-4.13 4.73 4.42 4.23 4.42 4.23l6.99-.4-.1-9.15z" stroke="#000" stroke-width=".83" fill="#FFF"/><path d="M580.05 171.46s5.17-7.61 7.35-6.8c1.9.63.45 6.53-.45 7.07l-6.9-.27zm-35.41 1.36c-1.63-2.27-3.99-8.52-6.16-6.8-1.9.63-.45 6.53.45 7.07l5.7-.27z" stroke="#000" stroke-width=".83" fill="#5e0043"/><path d="M548.06 157.76s10.07 6.2 13.37 6.37 13.77-8.06 13.77-8.06" stroke="#000" stroke-width=".83" fill="none"/><path d="m549.03 133.44 1.93-2.41 9.67 4.9 9.82-4.34 1.93 2.01-10.95 7.74-12.4-7.9z" stroke="#000" stroke-width=".83" fill="#5e0043"/><path stroke-linejoin="round" d="M541.35 133.31c.79.99 7.03 8.58 8.16 14.87 1.13 6.28-.64-8.62-.64-8.62s7.73 3.79 7.97 6.2 3.7-.16 3.86-.57l-22.38-14.54 3.03 2.66zm38.2-.43s-8.13 10.7-7.16 22.38c-1.68-5.58-.33-14.81-.33-14.81l-1.77 1.13s-1.85 7.89-4.19 9.1c-.4-.94-.32-1.3-.32-1.3s-2.5 3.23-2.98 3.55.16 10.87.16 10.87.84 7.65 1.8 7.57c-1.1.54-2.44 1.37-2.44 1.37l-1-20.41 2.28-2.3s3.07-3.7 3.3-7.33a7.21 7.21 0 0 1-2.81 1.45s-.4 5.16-1.61 5.88a2.66 2.66 0 0 0-1.24 2.07l-.29-6.73 18.6-12.5z" stroke="#474747" stroke-width=".78" fill="#474747"/><path d="m560.95 145.28 1.57 32.21" stroke="#000" stroke-linecap="round" stroke-width=".78" fill="none"/><path d="M541.14 160.66s3.7 2.18 5.07 8.78c12.08-.89 15.87 3.39 15.87 3.39s9.9-4.75 14.5-3.87c1.6-3.38 6.2-7.73 6.2-7.73" stroke="#000" stroke-width=".83" fill="none"/><path d="m536.08 129.09 24.87 16.27 22.39-15.06s4.67-2.58 4.27-4.43c-.4-1.85-2.02-1.13-2.82-.8-.8.32-23.44 16.35-23.44 16.35l-24.08-15.23s-1.77-.56-2.1.56c-.32 1.13.67 1.77.91 2.34z" stroke="#000" stroke-width=".83" fill="#b4b6b9"/><path stroke-linejoin="round" d="M580.55 124.87s-6.36-2.7-6.36-.36c0 2.33.18 2.57 1.2 4.08 1.02 1.5-.78 2.46-.78 2.46l-.6-1.69c-.36-1.02-3.79-1.74-4.08-2.93-.3-1.21.72-3.13-1.33-3.36-2.03-.25-4.01.83-4.44 3.18s-3.06 7.8-3.06 7.8l.36-12.42c4.48.31 12.8 1.3 19.2 2.03-1.91-.3.73.13.67.78-.18.54-.84.6-.78.43zm-22.51-3.13c-1.14 0-6.84.66-8.28 1.5-1.44.84 2.34 2.16 1.86 3.3s-.54 3.42-2.34 2.95c-1.8-.49-7.86-3.49-8.04-4.5s-1.44-1.09-1.44-1.09 17.4-2.34 18.24-2.16z" stroke="#474747" stroke-width=".78" fill="#474747"/><path d="m560.78 120.31-.04 15.27m-11.71-33.25s-6.97 11.32-7.11 11.67" stroke="#000" stroke-width=".83" fill="none"/><path d="M161.8 129.74s4.89 6.67 4.33 8.56c2 1.56 4.23 7.79 4.23 7.79" stroke="#000" stroke-width="1pt" fill="url(#f)" transform="matrix(.621 0 0 .621 461.4 21.48)"/><path d="M573.62 101.36s-6.56 9.25-6.36 9.94" stroke="#000" stroke-width=".83" fill="none"/><path d="M540.01 57.36c-.15.52-.98.72-1.86.45s-1.48-.9-1.33-1.43c.15-.51.98-.71 1.86-.44s1.48.9 1.33 1.42zm2.65-.18c.15.52.99.72 1.87.45s1.48-.91 1.33-1.43c-.15-.52-.99-.72-1.87-.45s-1.48.91-1.33 1.43z"/><path stroke-linejoin="round" d="M619.44 248.85s-2.44.46-2.36.68c.08.23-7.07.46-7.22.23-.15-.23-1.07 1.22-1.07 1.22l1.15-.68s1.74 1.82 2.28 1.67-.23.68-.08.83c.15.15.69-.3.69-.3l11.8-.2-5.2-3.45z" stroke="#000" stroke-width=".83" fill="#ff7000"/><path stroke-linejoin="round" d="m623.84 252.53-9.65.28s-2.43 2.2-2.58 2.73c-.15.53 1.6.68 1.6.68l.53 1.83 1.22-.46s8.2 1.22 15.73-.46c3.8-1.33 4.47-2.92 1.8-3.9-2.66-.96-8.57-.67-8.65-.7z" stroke="#000" stroke-width=".78" fill="#ff7000"/><path d="m208.37 403.93 27.97-1.25-5.21-4.42 75.65-3.05-2.61-6.01-84.7 3.4 10.19 4.76-22.88.68.68 2.38-6-.23s6.68 2.6 6.91 3.74z" stroke="#000" stroke-width="1pt" fill="url(#g)" transform="matrix(.621 0 0 .621 461.4 21.48)"/><path d="M239.73 249.42c-2.23-1.11-12-2.44-22.89 4.67l.45 25.11s15.99-8.67 23.77-6.67c-.45-7.78-.45-17.77-1.33-23.11z" stroke="#000" stroke-width="1pt" fill="url(#h)" transform="matrix(.621 0 0 .621 461.4 21.48)"/><path d="m514.23 223.71-40.96 40.66m59.22-40.36-33.25 43.78m31.76-55.2-44.37 53.71m-1.34-.74 4.3-5.04m49.87-20.93-17.22 23.75m-.74 3.11.45 9.05m25.37-27.6-18.25 22.86m15-1.79 7.41-12.17m-4.6-2.37-8.9 10.1m6.23-19.6-6.08 7.42m-1.79-18.25s-18.55 27.16-18.25 29.39m16.32-32.95c-.44.3-16.02 20.92-16.02 20.92m-.9 6.53-2.81 3.41m-3.57 5.2-4.3 5.64" stroke-width=".83" stroke="#000" fill="none"/><path d="M512.2 161.2s-1.25 3.96 0 5.93c1.26 1.98 9.16 17.95 9.16 17.95s5.39-6.64 7.36-6.82c1.98-.17 1.08 17.24 1.08 17.24s-3.23 3.05-5.2 2.87c-1.98-.18 4.84 6.82 4.66 12.75s-8.98 35.36-12.2 35.9c-3.24.54 1.43-5.39 1.25-7s-1.08-.54-1.8-2.34 1.08-4.49.72-6.28c-.36-1.8-1.97-1.44-2.15-2.7-.18-1.25 1.07-1.6.9-3.05-.18-1.43-2.16-1.07-1.98-2.33.18-1.26.36-.72.18-3.05s-.54 1.61-2.51 1.8-3.6 4.66-3.6 4.66-3.94 5.57-7.9 3.05c2.34 5.03.55 7.19-.35 7.36-.9.18.71 3.95-1.44 4.13s1.62 8.44-.9 9.16c2.7 1.26.54 2.87.54 2.87s-6.22.52-4.84 8.62c-18.32-6.46-27.3-17.6-27.11-28.9.18-11.32 3.77-21.54 12.56-25.31 2.52-9.34 6.83-19.4 6.83-19.4s-.72-4.13-.18-6.82c.54-2.69 3.05-5.38 3.05-5.38s-.36-6.46-.18-9.7c.18-3.23 1.44-4.66 1.61-6.46s-.53-10.95 1.26-12.57 5.2-1.43 7-2.5c1.8-1.09 4.13-3.06 6.47-2.88s4.3 1.8 4.3 1.8 8.8 0 9.34 3.4c.54 3.42-1.8 4.67-1.8 4.67s1.26 4.85-4.13 9.34z" stroke="#2b2b2b" stroke-width=".83" fill="#8a9396"/><path d="M504.4 148.77c.28.52-.37 1.41-1.44 2s-2.17.62-2.45.1c-.28-.52.36-1.41 1.43-2s2.17-.62 2.45-.1z" stroke="#2b2b2b" stroke-width=".83" fill="#cecfcf"/><path d="M502.9 149.68c0 .32-.3.6-.66.6-.37 0-.67-.28-.67-.6 0-.33.3-.6.67-.6.37 0 .66.27.66.6z"/><path d="M516.03 155.62s2.18 9.73-.43 16.45m1.1-20.71s4.25 5.62 3.7 12.62m-3.29-13.86c.14 0 3.57 3.02 3.43 5.08m-2.6-6.31s2.33 1.64 2.88 3.29" stroke="#2b2b2b" stroke-width=".39" fill="none"/><path d="M516.84 147.92s-8.37 13.6-7.28 22.1" stroke="#000" stroke-width=".83" fill="none"/><path d="M517.39 147.51s-11.12 6.6-13.18 28.14" stroke="#2b2b2b" stroke-width=".39" fill="none"/><path d="m516.15 151.5-4.39 3.29" stroke="#000" stroke-width=".83" fill="none"/><path d="M500.1 176.88s6.17-25.66 17.15-29.37" stroke="#2b2b2b" stroke-width=".39" fill="none"/><path d="M521.5 185.53s5.9-7.41 7.28-7.14.96 17.15.96 17.15-4.4 3.3-5.35 3.16c-.96-.14 4.94 7.96 4.8 10.98s-.28 3.01-.28 3.01 0-1.78-1.37-4.66-.55-6.18-9.47-13.45c-2.2-4.53 4.4 2.74 5.76 1.65 1.38-1.1-2.46-10.57-2.33-10.7z" stroke="#2b2b2b" stroke-width=".83" fill="#2b2b2b"/><path d="M511.01 143.8s-2.48.67-2.82 1.68c-.33 1.02-1.8 2.03-2.59 1.7a13.48 13.48 0 0 1-2.25-1.59" stroke="#2b2b2b" stroke-width=".83" fill="none"/><path stroke-linejoin="round" d="M496.92 152.48s-3.72 3.72-1.92 4.17c1.8.45 3.72-2.93 3.72-2.93s0 5.75 1.58 4.84c1.58-.9 6.2-4.17 6.2-4.17s1.58-.11 1.92 0c.34.12 4.29 3.5 6.88 2.26-1.47 3.83-3.16 4.28-3.16 4.28s-2.7 3.5-6.2 2.7c-3.5-.78-4.4-2.25-4.4-2.25s-2.93.23-3.83-1.12c-.9-1.36-1.24-2.15-1.24-2.15s-1.7 1.7-2.15.9c-.45-.78 0-5.41 2.6-6.53z" stroke="#2b2b2b" stroke-width=".78" fill="#2b2b2b"/><path d="M518 147.29s-6.87-2.03-9.24 1.35-1.8 5.3-.56 5.64" stroke="#2b2b2b" stroke-width=".83" fill="none"/><path d="M519.07 147.1c0 .8-.58 1.47-1.3 1.47s-1.3-.66-1.3-1.47.58-1.47 1.3-1.47 1.3.66 1.3 1.47z"/><path d="M499.05 164.65s2.8 4.31 6.15 5.5-2.32 2.21-5.67-.05c-2.42-3.3-1.78-5.66-1.78-5.66s.65-.66 1.3.2zm24 25.46s-7.88-10.95-10.14-11.55c-2.27-.59 1.73-1.07 4.15 1.25 2.43 2.31-.64-3.78-.64-3.78l6.63 14.08z" stroke="#2b2b2b" stroke-width=".83" fill="#2b2b2b"/><path stroke-linejoin="round" d="M498.3 253.38c3.01-.81 16.17 7.55 19.14 9.65 2.97 2.1 9.17.75 9.17.75s-2.86 1.73-4.64 2.16c-1.78.43 5.29.43 5.29.43s-16.83 4.64-33.93-4.36c-1.56-7.01 3.67-8.58 4.96-8.63z" stroke="#2b2b2b" stroke-width=".78" fill="#2b2b2b"/><path d="M517.55 192.8s-2.21-.43-3.35-1.72c-1.13-1.3-2.75-4.48-4.42-5.83-1.67-1.34-10.03-5.93-13.05-5.6s-3.94-.33-4.32-.7-1.61.15-1.4 1.72c.22 1.56-2.32 5.02-1.4 6.63.92 1.62 5.23 8.2 6.1 8.42.86.21.32 3.83.32 3.83s3.83 3.88 4.8 4.1c.97.21 1.94.92 1.83 1.83-.1.92-4.2 5.94-4.2 5.94s-4.43 2.31-4.48 3.6c-.06 1.3 1.08 4 4.58 4.86 3.5.86 12.95.16 13.43-.65.49-.8 1.24-5.66.92-6.14s-2.64-1.95-3.83-1.73c-1.19.22-2.26 1.19-2.16 1.4.11.22-1.67 1.13-1.67.27s3.5-4.74 3.83-4.42c.32.32 5.29.8 6.2 3.29.92 2.48.92 4.26 3.5 4 2.6-.28 6.21-2.65 6.53-7.61s-2.9-8.31-3.72-8.8-3.5-2.1-3.72-2.85c-.21-.76-.75-3.24-.32-3.84z" stroke="#2b2b2b" stroke-width=".83" fill="#2b2b2b"/><path d="M470.9 214.7s8.35-2.15 10.51-2.1c2.16.05 10.3 3.83 12.68 6.15 2.37 2.31 7.22 7.82 10.4 7.33 3.19-.48 4.1-1.13 4.1-1.13l-1.24 2.38s-2.59.7-3.88.37a13.74 13.74 0 0 1-6.36-3.61c-2.54-2.49-10.36-9.17-17-8.69-6.63.5-10.46 7.02-10.46 7.02s.06-3.19.33-3.89-1.4 1.51-1.4 1.51l2.31-5.33z" stroke="#2b2b2b" stroke-width=".83" fill="#2b2b2b"/><path d="M501.69 221.18c.06.05 2.1.59 5.56.59s5.28-1.51 5.28-1.51l-.21-1.35.54-1.89s2.64 2.7 2.58 3.24-1.07.76-1.07.76l-.38-1.3-.92 1.13s-5.02 4-7.77 3.4c-2.75-.6-5.28-2.37-4.58-2.8.7-.43 1.08-.27.97-.27zm-12.19 7.06s-3.02-.05-4.37.6-1.83 1.45-2.75 1.34c-.91-.1-1.62-1.29-1.35-1.77.38-.76 2.16-1.73 5.56-1.46 3.4.27 2.91 1.3 2.91 1.3zm10.57 8.2c0-.16-.21-4.42-1.89-6.15a5.06 5.06 0 0 0-4.63-1.51c-.92.22 3.4 2.1 3.83 3.35s1.83 4.69 1.45 5.55c-.38.86-1.08-2.42-3.72-3.34s-6.31-.43-5.55.75 3.72.1 5.23 2.64 2.64 5.24 2.64 5.24l.48-1.84 1.35-.37.17-3.51.64-.8z" stroke="#2b2b2b" stroke-width=".83" fill="#2b2b2b"/><path stroke-linejoin="round" d="m497.92 250.25-2.75-5.5s-.87-3.5-3.19-4.48c-2.32-.97-5.4-.81-5.45.37s4.97 2.7 5.29 3.35c.32.65.16 1.73-.27 1.78-.43.05-2.64-.8-3.77-.54-1.14.27-1.78 1.73-3.46 1.3-1.67-.44-3.07-5.77-2.42-6.31.64-.54-1.24.97-1.62-.44s.54-5.77-.11-6.3c-.65-.55-3.77-2.43-3.83-2.81-.05-.38.16-21.47 17.8-4-7.55-8.95-10.52-7.98-11.92-8.03-1.02 0-7.87.6-9.6 9.33-1.73 8.74-3.78 3.3-3.78 3.3s-.37 3.77 1.46 4.85c1.83 1.07-.86 4.2-.86 4.2s-3.3-8.03-2.8-11.54c-.65 2.8-.6 9.76 3.55 17.37 4.86 5.12 9.44 9.87 21.63 15.2 6.42-9.8 6.1-11 6.1-11.1z" stroke="#2b2b2b" stroke-width=".78" fill="#2b2b2b"/><path stroke-linejoin="round" d="M486.37 250.3s3.56.43 4.53 2.27c.97 1.83 1.4 4.64 1.4 4.64.6-1.19.87-2.21 2.06-3.08s2.05-.97 2-1.62-3.79-4.58-5.67-4.8-5.18 2.05-5.18 2.05-.6.86.86.54z" stroke="#2b2b2b" stroke-width=".78" fill="#8a9396"/><g stroke-width="1.25" stroke-linecap="round" fill="none"><path d="M494.5 259.58s9.23 4.2 24.42 4.48" stroke="#8a9396" stroke-width=".78"/><path d="M525.3 216.75s-.79 7.75-6.74 23.02" stroke="#2b2b2b" stroke-width=".78"/><path d="M524.12 221.52s-1.8 5.56-6.75 9.72" stroke="#2b2b2b" stroke-linecap="butt" stroke-width=".83"/></g></svg>