<svg xmlns="http://www.w3.org/2000/svg" viewBox="0 0 1000 600"><path fill="#d21034" d="M0 0h1000v600H0z"/><path fill="#00209f" d="M0 0h1000v300H0z"/><path fill="#fff" d="M405.17 222.41h189.66V377.6H405.17z"/><path fill="#016a16" d="M499.61 332.12v.08c-4.08.43-47.87 5.23-59.77 14.11-12.48 9.32-34.67 19.08-34.67 19.08v11.98h189.66v-11.98s-22.19-9.76-34.67-19.08c-11.9-8.88-55.7-13.68-59.77-14.1v-.1l-.39.05-.39-.04z"/><g fill="red" stroke="#000"><path fill="#fff" stroke-width=".3" d="M455.74 112.4c-.6-1.58-5.58-1.46-9.47-.24-3.88 1.2-6.07.85-14.44.97s-13.1 2.06-13.84 2.3c-.73.25-13.35 6.44-18.2 8.01-4.86 1.58-9.47 0-9.47 0s5.58 5.47 13.47 1.1c0 0-6.55 3.64-10.8 4.12 0 0 6.34 1.33 11.7-.98.48-.21.95-.45 1.4-.72a93.76 93.76 0 0 1 9.05-3.96c15.36-5.71 21.33-2.07 31.86-4.78" transform="matrix(.86366 0 0 .84072 74.33 265.06)"/><path fill="#fff" stroke-width=".31" d="M455.71 112.17c-.72 1.4-4.85.6-7.5 1.47.64.57 2.46 1.55 7.58 2.53.85-3.19-.08-4-.08-4z" transform="matrix(.86366 0 0 .84072 74.33 265.06)"/><path fill="none" stroke-width=".3" d="M414.55 122.7c-4.93 1.67-7.31 3.2-10 4.21m9.4-5.13c-4.28 1.52-6.74 2.98-9.37 4m8.76-4.92c-3.63 1.37-6.16 2.76-8.71 3.78m8.1-4.7c-2.97 1.22-5.58 2.53-8.06 3.56m7.46-4.49a292.84 292.84 0 0 1-7.42 3.35" transform="matrix(.86366 0 0 .84072 74.33 265.06)"/><path fill="none" stroke-width=".27" d="M420.34 120.26s6.9-2.08 12.25-1.43m-11.47.13s6.48-1.82 12.18-1.34m-11.4.04s6.06-1.57 12.12-1.24m-11.34-.07s5.64-1.3 12.06-1.14m-11.28-.16s5.22-1.04 12-1.04" transform="matrix(.86366 0 0 .84072 74.33 265.06)"/><path fill="none" stroke-width=".3" d="M441.84 113.88s3.12-.76 6.25-1.22c2.67-.38 5.35-.55 6.13.17M441.25 115s3.64-.41 6.58-1.14m-7.16 2.24s4.16-.05 6.9-1.06m-7.49 2.17s4.7.3 7.23-.99m-7.82 2s5.22.58 7.57-.82" transform="matrix(.86366 0 0 .84072 74.33 265.06)"/></g><g stroke="#000"><path fill="#f1b517" stroke-width="1.23" d="m1763.45 81.89 28.52 60.3 6.52-3.26 50.93 96.16.4-16.3-48.3-85.02 2.26-1.76-3.26-3.67-1.58.9-.05-.09s-3.26-.4-3.66.82z" transform="matrix(.2285 0 0 .22244 73.83 264.55)"/><path fill="#fff" stroke-width=".57" d="m1763.45 81.89 28.52 60.3 6.52-3.26-3.44-9.23zm57.77 86.56c-1.65.6-4.12 1.58-5.72 2.6l7.03 13.28c1.17-.86 3.42-2.33 5.7-2.61a.78.78 0 0 0 .42-.19z" transform="matrix(.2285 0 0 .22244 73.83 264.55)"/><path fill="none" d="m1800.53 128.34-1.47.84 2.5 4.55 2.22-1.72z" transform="matrix(.2285 0 0 .22244 73.83 264.55)"/><path fill="none" stroke-width="1.23" d="m1763.45 81.89 28.52 60.3 6.52-3.26 50.93 96.16.4-16.3-48.3-85.02 2.26-1.76-3.26-3.67-1.58.9-.05-.09s-3.26-.4-3.66.82z" transform="matrix(.2285 0 0 .22244 73.83 264.55)"/><path fill="#f1b517" stroke-width="1.23" d="m1763.45 81.89 28.52 60.3 6.52-3.26 50.93 96.16.4-16.3-48.3-85.02 2.26-1.76-3.26-3.67-1.58.9-.05-.09s-3.26-.4-3.66.82z" transform="scale(.2285 .22244) rotate(5.72 -9735.03 4083.15)"/><path fill="#fff" stroke-width=".57" d="m1763.45 81.89 28.52 60.3 6.52-3.26-3.44-9.23z" transform="scale(.2285 .22244) rotate(5.72 -9735.03 4083.15)"/><path fill="none" d="m1800.53 128.34-1.47.84 2.5 4.55 2.22-1.72z" transform="scale(.2285 .22244) rotate(5.72 -9735.03 4083.15)"/><path fill="none" stroke-width="1.23" d="m1763.45 81.89 28.52 60.3 6.52-3.26 50.93 96.16.4-16.3-48.3-85.02 2.26-1.76-3.26-3.67-1.58.9-.05-.09s-3.26-.4-3.66.82z" transform="scale(.2285 .22244) rotate(5.72 -9735.03 4083.15)"/><path fill="#fff" stroke-width=".15" d="m471.5 15.64 5.92 16.63 1.8-.69-.66-2.51z" transform="matrix(.86366 0 0 .84072 73.83 264.55)"/><path fill="none" stroke-width=".27" d="m480.04 28.85-.41.18.54 1.27.63-.4z" transform="matrix(.86366 0 0 .84072 73.83 264.55)"/><path fill="#fff" stroke-width=".57" d="M1824.68 136.95a13.6 13.6 0 0 0-5.09 2.95l5.42 13.27c1.62-1 3.76-1.9 5.69-2.63z" transform="matrix(.2285 0 0 .22244 73.83 264.55)"/><path fill="none" stroke-width=".33" d="m471.5 15.64 5.92 16.63 1.8-.69 10.87 26.66.54-4.28-10.48-23.65.65-.4-.76-1.06-.44.2-.02-.03s-.84-.2-.98.12z" transform="matrix(.86366 0 0 .84072 73.83 264.55)"/><path fill="#f1b517" stroke-width="1.23" d="m1763.45 81.89 28.52 60.3 6.52-3.26 50.93 96.16.4-16.3-48.3-85.02 2.26-1.76-3.26-3.67-1.58.9-.05-.09s-3.26-.4-3.66.82z" transform="matrix(.22512 .03815 -.03919 .21915 92.82 190.77)"/><path fill="#fff" stroke-width=".57" d="m1763.45 81.89 28.52 60.3 6.52-3.26-3.44-9.23z" transform="matrix(.22512 .03815 -.03919 .21915 92.82 190.77)"/><path fill="none" d="m1800.53 128.34-1.47.84 2.5 4.55 2.22-1.72z" transform="matrix(.22512 .03815 -.03919 .21915 92.82 190.77)"/><path fill="none" stroke-width="1.23" d="m1763.45 81.89 28.52 60.3 6.52-3.26 50.93 96.16.4-16.3-48.3-85.02 2.26-1.76-3.26-3.67-1.58.9-.05-.09s-3.26-.4-3.66.82z" transform="matrix(.22512 .03815 -.03919 .21915 92.82 190.77)"/><path fill="#fff" stroke-width=".15" d="m471.5 15.64 5.92 16.63 1.8-.69-.66-2.51z" transform="matrix(.8614 .06088 -.06254 .83851 81.43 234.17)"/><path fill="none" stroke-width=".27" d="m480.04 28.85-.41.18.54 1.27.63-.4z" transform="matrix(.8614 .06088 -.06254 .83851 81.43 234.17)"/><path fill="#fff" stroke-width=".57" d="M1824.68 136.95a13.6 13.6 0 0 0-5.09 2.95l5.42 13.27c1.62-1 3.76-1.9 5.69-2.63z" transform="matrix(.22791 .0161 -.01655 .22186 81.43 234.17)"/><path fill="none" stroke-width=".33" d="m471.5 15.64 5.92 16.63 1.8-.69 10.87 26.66.54-4.28-10.48-23.65.65-.4-.76-1.06-.44.2-.02-.03s-.84-.2-.98.12z" transform="matrix(.8614 .06088 -.06254 .83851 81.43 234.17)"/></g><g transform="matrix(-.86366 0 0 .84072 925.67 265.06)"><path fill="#d20014" d="m522.65 69.81-1.6 15.76-20.02-1.34z"/><path fill="#0a328c" d="M561.11 52.43s-1.46 25.13-9.1 37.75l-31.2-4.61.85-15.3 39.45-26.82z"/><path fill="#0a328c" stroke="#000" stroke-width=".27" d="M531.9 13.85c-1.85.82-3.53.16-3.53.16s-.82 1.07 1.39 1.19c0 0 .88.08.29 1.06"/><path fill="#d20014" stroke="#000" stroke-width=".3" d="M534.53 11.94s-3.34-2.72-5.45-2.56c-2.1.17-2.2.13-2.4.5a3.7 3.7 0 0 0 .4 3.31c.94 1.25 1.33.95 1.5.68.15-.27 1.48-1.05 4-.47"/><path fill="#0a328c" stroke="#000" stroke-width=".15" d="M529.28 9.38h-.2c-2.1.17-2.2.13-2.4.5a3.82 3.82 0 0 0-.15 2.07c.32-.3.97-.59 2.3-.52a8.68 8.68 0 0 1 4.22 1.23l.27.19 1.2-.9s-3.12-2.56-5.24-2.57z"/><path fill="#d20014" d="m495.6 74.46 23.87-21.75c5.33 2.34 4.92 6.6 1.23 11.94l.11 5.35-19.52 13.61-5.35-1.34-.23-4.9zm.73-14 14.63-18.85 3.7 8.2-1.16 7.76-17.46 16.42z"/><path fill="#0a328c" d="M511.02 41.95s2.95 6.77 2.48 15.5l17.81-16.6 8.5-7.68-.17.11-1.1-5.32-.52-3-1.39.34v-1.73l-.23-1.5-1.21-2.38-.99-2.54-.23-2.14.46-2.54-.63.29z"/><path fill="#0a328c" stroke="#000" stroke-width=".27" d="M563.75 43.23s1.73 1.73 1.96 5.66c.24 3.94.18 6.65.18 6.65s-2.84 1.68-5.5.99c0 0 .47-1.16.52-2.78.06-1.62-.05-10-.05-10z"/><path fill="#d20014" stroke="#000" stroke-width=".15" d="m562.13 43.75-1.27.08c0 .16.11 8.32.05 9.92-.05 1.62-.52 2.77-.52 2.77.98.26 1.97.2 2.84.01.02-.31.34-5.12.29-7.64-.06-2.6-1.39-5.14-1.39-5.14z"/><path fill="#f1b517" d="M584.63 114.8c.53-1.37 1.97-1.7 1.97-1.7s.1-.1-.32-1.11c-.43-1.01-.21-1.76-.21-1.76.16-5.37-.38-6.81-.38-6.81.38 0 2.08 2.02 2.08 2.02-.05-5.1-7.61-7.5-7.61-7.5 2.77 7.02 1.7 7.82 1.7 7.82 1.76-.74 1.97-1.91 1.97-1.91.32 1.91.05 5.64.05 5.64s.11 1.75-1.54.9c-1.65-.85-8.3-4.04-8.3-4.04l-.7 1.38 9.16 4.26s1.33.58.96 1.6c-.37 1-.59 1.17-.59 1.17z"/><path fill="none" stroke="#000" stroke-width=".3" d="M583.88 109.49s.27-3.73-.05-5.64c0 0-.21 1.17-1.97 1.91 0 0 1.07-.8-1.7-7.82 0 0 7.56 2.4 7.61 7.5 0 0-1.7-2.02-2.08-2.02 0 0 .54 1.44.38 6.81"/><path fill="none" stroke="#000" stroke-width=".15" d="M584.63 114.8c.53-1.37 1.97-1.7 1.97-1.7s.1-.1-.32-1.11c-.43-1.01-.21-1.76-.21-1.76.16-5.37-.38-6.81-.38-6.81.38 0 2.08 2.02 2.08 2.02-.05-5.1-7.61-7.5-7.61-7.5 2.77 7.02 1.7 7.82 1.7 7.82 1.76-.74 1.97-1.91 1.97-1.91.32 1.91.05 5.64.05 5.64s.11 1.75-1.54.9c-1.65-.85-8.3-4.04-8.3-4.04l-.7 1.38 9.16 4.26s1.33.58.96 1.6c-.37 1-.59 1.17-.59 1.17"/><path fill="#f1b517" stroke="#000" stroke-width=".15" d="M570.68 104.47c-.2 0-.63.05-.97.32a.98.98 0 0 0-.37.61c-.04.27.01.58.18.94a2.06 2.06 0 0 0 1.67 1.1 3.6 3.6 0 0 0 1.08-.02l-.09-.44s-.43.08-.93.01c-.5-.06-1.04-.27-1.32-.85-.15-.3-.17-.52-.15-.67a.5.5 0 0 1 .2-.32c.22-.17.6-.23.7-.23.19 0 .35-.03.65.12.3.15.73.5 1.3 1.28l.36-.27a4.4 4.4 0 0 0-1.46-1.4c-.4-.2-.71-.18-.85-.18z" color="#000" font-family="sans-serif" font-weight="400" overflow="visible"/><path fill="#f1b517" stroke="#000" stroke-width=".15" d="M571.38 109.27s.2-3.5 2.44-4.73c0 0 .54.05.59.48.05.42-2.08 4.15-2.08 4.15z"/><path fill="#f1b517" stroke="#000" stroke-width=".13" d="M571.63 108.88s.18-2.93 2.04-3.95c0 0 .44.05.49.4.04.36-1.73 3.46-1.73 3.46z"/><circle cx="551.15" cy="100.31" r="2.39" fill="#f1b517" stroke="#000" stroke-linecap="round" stroke-width=".15"/><path fill="#d20014" d="M581.87 75.42s4.03.23 3.99 2.22c-.05 2-.65 3.94.7 4.31 1.34.37 4.11.37 4.8 1.11.7.75.7 1.58.7 1.58s-3.47-1.25-5-.37c-1.53.88-3.13-.51-3.38-.97-.56-1.02-.23-3.01-1.3-3.38-1.06-.37-4.44-.42-4.44-.42z"/><path fill="#0a328c" d="M552.63 48c.63-10.86-1.26-23.61-1.26-23.61l-.15-1.9-32.6 31.19s2.2 3.31 1.88 16.53l2.52-1.73z"/><path fill="none" stroke="#000" stroke-width=".27" d="M552.63 48c.63-10.86-1.26-23.61-1.26-23.61l-.15-1.9"/><g fill="#f1b517" stroke="#000"><path stroke-width=".3" d="m543.91-1.2-4.36 10.18s-1.27-1.3-2.3.04l-1.02 1.34m7.66-11.57-8.42 7.19s1.6.83.64 2.2l-.97 1.38 1.09.8"/><path stroke-width=".3" d="m532.89 7.3 6 4.39-1.58 2.15-6-4.38z"/><path stroke-width=".15" d="m533.02 7.97 5.2 3.8-1.04 1.41-5.2-3.8z"/></g><g fill="#f1b517" stroke="#000"><path stroke-width=".3" d="m563.29 11.4-5.93 9.37s-1.05-1.48-2.27-.32l-1.22 1.15m9.4-10.2-9.46 5.75s1.46 1.08.28 2.29l-1.17 1.2.95.96"/><path stroke-width=".3" d="m551.06 18.06 5.22 5.28-1.9 1.87-5.22-5.28z"/><path stroke-width=".15" d="m551.08 18.73 4.53 4.58-1.25 1.23-4.53-4.57z"/></g><g fill="#f1b517" stroke="#000"><path stroke-width=".3" d="m575.9 32.69-7.44 8.2s-.78-1.63-2.19-.7l-1.4.93m11.01-8.45-10.3 4.06s1.25 1.3-.12 2.3l-1.36.97.77 1.12"/><path stroke-width=".3" d="m562.7 37.15 4.25 6.1-2.19 1.51-4.24-6.1z"/><path stroke-width=".15" d="m562.62 37.81 3.67 5.28-1.44 1-3.67-5.27z"/></g><path fill="#f1b517" stroke="#000" stroke-width=".3" d="m534.07 11.47-37.87 48.1.59.46 37.87-48.1zm16.35 11.76-54.76 50.79.51.55 54.76-50.8zm8.81 20.34-58.29 39.9.42.62 58.3-39.9z" color="#000" font-family="sans-serif" font-weight="400" overflow="visible"/><path fill="#0a328c" stroke="#000" stroke-width=".27" d="M552.99 23.9s-5.5-1.05-6.83-.24 2.34.86 3.06.62l-1.39 1.39s-3.15-.77-3.68-3.73c-.52-2.97 1.58-2.97 2.06-2.92.47.05 3.25.48 6.78 4.88z"/><path fill="#d20014" stroke="#000" stroke-width=".15" d="M545.1 20.78c-.6.18-1.06.6-.9 1.4 0 0 .24.9.48 1.38a.3.3 0 0 1 .07-.08c.18.28.39.53.6.75a6.4 6.4 0 0 1 .54-.18c-.06-.1 0-.23.27-.4.15-.08.35-.15.58-.2 1-.38 2.5.02 2.81-.03l1.67.1s-4.98-3.07-6.12-2.73z"/><path fill="none" stroke="#000" stroke-width=".15" d="M550.8 23.32s-6.13-1.83-6.13-.06"/><path fill="none" stroke="#000" stroke-width=".3" d="M552.99 23.9s-5.5-1.05-6.83-.24 2.34.86 3.06.62l-1.39 1.39s-3.15-.77-3.68-3.73c-.52-2.97 1.58-2.97 2.06-2.92.47.05 3.25.48 6.78 4.88z"/><path fill="#0a328c" stroke="#000" stroke-width=".15" d="M552.27 23.85a7 7 0 0 0-.22 2c1.8 4.58 4.23 4.68 3.27 10.23l1.89-.05c.2-2.58-.2-5.02-.68-6.1a7.6 7.6 0 0 0-1.34-1.82c-.58-.63-1.2-1.24-1.64-1.71-.89-.95-.27-2.17-.27-2.17z"/><path fill="#d20014" stroke="#000" stroke-width=".27" d="M551.1 23.41s-.33.88-.33 2.1c0 .62.09 1.32.34 2.04.24.72.46 1.44.63 2.23.35 1.6.54 3.5.59 6.38l3-.08c.95-5.55-1.49-5.65-3.27-10.22a7 7 0 0 1 .22-2z"/><path fill="none" stroke="#000" stroke-width=".3" d="M553.28 24.23s-.61 1.22.27 2.17c.44.47 1.06 1.08 1.64 1.71a7.5 7.5 0 0 1 1.34 1.82c.48 1.08.88 3.52.68 6.1m0 0-4.88.13a31.93 31.93 0 0 0-.6-6.38 19.6 19.6 0 0 0-.62-2.23 6.26 6.26 0 0 1-.34-2.04c0-1.22.34-2.1.34-2.1l2.17.82"/><path fill="none" stroke="#000" stroke-width=".15" d="M553.89 36.1s.67-3.06-.89-5.77c-1.57-2.77-2.04-7-1.22-6.71"/><path fill="#f1b517" stroke="#000" stroke-width=".16" d="m548.43 80.4-4.22 7.38-16.67 1.24-1.57.2s-2.43 5.75-5.14 6.51c-2.7.77-20.78 6.4-20.78 6.4L499.5 98l11.71-3.78s3.44-1.26 4.46-2.6 9.54-9.5 9.54-9.5z"/><g stroke="#000" stroke-width=".3"><path fill="#f1b517" d="m540.96 61.58-24.22 40.37.51.3 24.22-40.36z" color="#000" font-family="sans-serif" font-weight="400" overflow="visible"/><path fill="#fff" d="M540.47 63.2s.68.66 1.53-.38 3.34-5.31 3.81-6.09c.48-.78 1.09-1.42.28-1.94-.8-.52-1.93.13-2.86 2.07-.93 1.94-3.98 5.31-2.76 6.35z"/></g><path fill="#f1b517" stroke="#000" stroke-width=".16" d="M561.9 68.75c.91-.12 2.46 1.65 2.87 4.73.41 3.07.02 5.66-.89 5.78-.33.05-.7-.25-1.06-.85l-48.35 6.5-1.02-9.14 47.98-5.7c.15-1.17.02-1.25.48-1.32z"/><path fill="#f4cf0e" stroke="#000" stroke-linecap="round" stroke-width=".15" d="M262.96 61.76s-.2.67-.27 1.08m-.73-1.05s-.2.66-.27 1.08m-.73-1.06s-.2.66-.28 1.08m-.72-1.06s-.21.67-.28 1.09m-.73-1.06s-.2.66-.28 1.08m-.72-1.06s-.2.67-.28 1.09m-.72-1.06s-.21.66-.28 1.08m-.73-1.06s-.2.67-.28 1.08m-.72-1.05s-.2.66-.28 1.08m-.73-1.06s-.2.66-.27 1.08m-.73-1.05s-.2.66-.28 1.08m-.72-1.06s-.2.66-.28 1.08m-.73-1.06s-.2.67-.27 1.08m-.73-1.05s-.2.66-.28 1.08m-.72-1.06s-.2.67-.28 1.08m-.73-1.05s-.2.66-.27 1.08m-.73-1.06s-.2.66-.28 1.08m-.72-1.06s-.21.67-.28 1.09m-.73-1.06s-.2.66-.27 1.08m-.73-1.06s-.2.67-.28 1.08m-.72-1.05s-.21.66-.28 1.08m-.73-1.06s-.2.67-.27 1.08m-.73-1.05s-.2.66-.28 1.08m-.72-1.06s-.21.66-.28 1.08m-.73-1.06s-.2.67-.27 1.09m-.73-1.06s-.2.66-.28 1.08m-.72-1.06s-.21.67-.28 1.08m-.73-1.05s-.2.66-.27 1.08m-.73-1.06s-.2.67-.28 1.08m-.72-1.05s-.21.66-.28 1.08m-.73-1.06s-.2.66-.27 1.08m-.73-1.06s-.2.67-.28 1.08m-.72-1.05s-.21.66-.28 1.08m-.73-1.06s-.2.67-.27 1.08m-.73-1.05s-.2.66-.28 1.08m-.72-1.06s-.21.67-.28 1.08m-.73-1.05s-.2.66-.28 1.08m-.72-1.06s-.2.66-.28 1.08m-.73-1.06s-.2.67-.27 1.09m-.73-1.06s-.2.66-.28 1.08m-.72-1.06s-.2.67-.28 1.08m-.73-1.05s-.2.66-.27 1.08m-.73-1.06s-.2.67-.28 1.08m-.72-1.05s-.2.66-.28 1.08m-.73-1.06s-.2.66-.27 1.08" transform="matrix(-1.0402 .13993 .09807 .729 782.84 -6.23)"/><path fill="none" stroke="#000" stroke-width=".28" d="m563.08 73.08-48.97 6.6m49.12-5.5-48.98 6.6m49.12-5.5-48.97 6.6m49.05-6.05-48.97 6.6m49.04-6.05-48.97 6.6m49.05-6.05-48.98 6.6m49.05-6.05-48.97 6.6m49.04-6.05-48.97 6.6"/><path fill="#f1b517" stroke="#000" stroke-linecap="round" stroke-width=".16" d="M554.63 70.1a1.54 5.1-4 0 1 1.9 4.99 1.54 5.1-4 0 1-1.2 5.17 1.54 5.1-4 0 1-.48-.21 1.54 5.1-4 0 0 .68-4.83 1.54 5.1-4 0 0-1.41-4.76 1.54 5.1-4 0 1 .5-.35zm-34.25 4.61a1.54 5.1-4 0 1 1.9 4.98 1.54 5.1-4 0 1-1.2 5.18 1.54 5.1-4 0 1-.48-.22 1.54 5.1-4 0 0 .68-4.82 1.54 5.1-4 0 0-1.4-4.77 1.54 5.1-4 0 1 .5-.35z"/><path fill="#f1b517" stroke="#000" stroke-width=".16" d="m513.2 78.8-2.72-.18s-1.68.57-1.78 1.29c-.1.71-.17 1.77-.03 2.06.14.28 3.32.85 4.44-.15z"/><path d="M508.7 79.9c1.09.27 3.02.17 4.47.03l-.06 1.89c-1.12 1-4.3.43-4.44.15a5.85 5.85 0 0 1 .03-2.06z"/><path fill="#f1b517" stroke="#000" stroke-linecap="round" stroke-width=".16" d="M513.71 75.53a1.07 4.92-3.74 0 1 .34.2 1.07 5.21-3.99 0 0-.18 4.38 1.07 5.21-3.99 0 0 .95 4.66 1.07 4.92-3.74 0 1-.45.58 1.07 4.92-3.74 0 1-1.4-4.82 1.07 4.92-3.74 0 1 .74-5z"/><g transform="matrix(-1 0 0 1 984.99 .74)"><path fill="#f1b517" stroke="#000" stroke-linecap="round" stroke-width=".15" d="M443.73 74.86v.03c.55.13.96.62.96 1.21v8.27l-5.84-5.85a1.24 1.24 0 0 1-.18-1.53l-.02-.03-2.53 2.54h0a1.23 1.23 0 0 1 1.65.1l5.95 5.94h-8.47c-.59 0-1.08-.41-1.2-.96H434v3.58h.02c.07-.62.58-1.1 1.22-1.1h8.41l-5.98 5.98a1.24 1.24 0 0 1-1.54.17l-.02.03 2.53 2.53.01-.01a1.23 1.23 0 0 1 .09-1.65l5.94-5.94v8.46c0 .6-.4 1.08-.96 1.21v.03h3.58v-.01a1.23 1.23 0 0 1-1.1-1.23v-8.6l6.08 6.08c.46.46.48 1.16.09 1.65l.01.01 2.53-2.53-.02-.03a1.24 1.24 0 0 1-1.54-.17l-5.98-5.98h8.4c.65 0 1.16.48 1.23 1.1h.02v-3.58h-.04a1.24 1.24 0 0 1-1.2.96h-8.47l5.95-5.94a1.23 1.23 0 0 1 1.64-.1h.01l-2.53-2.54-.02.03c.3.48.24 1.11-.17 1.53l-6 5.99V76.1c0-.64.49-1.16 1.11-1.23v-.01z"/><circle cx="445.45" cy="86.48" r="2.28" fill="#f1b517" stroke="#000" stroke-linecap="round" stroke-width=".15"/><path fill="#f1b517" stroke="#000" stroke-linecap="round" stroke-width=".15" d="M445.45 71.28a15.09 15.09 0 0 0-15.09 15.09 15.09 15.09 0 0 0 15.1 15.09 15.09 15.09 0 0 0 15.08-15.1 15.09 15.09 0 0 0-15.09-15.08zm0 3.84a11.25 11.25 0 0 1 11.25 11.25 11.25 11.25 0 0 1-11.25 11.25 11.25 11.25 0 0 1-11.25-11.25 11.25 11.25 0 0 1 11.25-11.25z"/><circle cx="445.45" cy="73.14" r=".48"/><circle cx="445.45" cy="99.46" r=".48"/><g transform="rotate(45 445.45 86.3)"><circle cx="445.45" cy="73.14" r=".48"/><circle cx="445.45" cy="99.46" r=".48"/></g><g transform="scale(-1 1) rotate(45 0 -989.12)"><circle cx="445.45" cy="73.14" r=".48"/><circle cx="445.45" cy="99.46" r=".48"/></g><g transform="rotate(90 359.15 0)"><circle cx="445.45" cy="73.14" r=".48"/><circle cx="445.45" cy="99.46" r=".48"/></g><g transform="scale(1 -1) rotate(-67.93 317.35 0)"><circle cx="445.45" cy="73.14" r=".48"/><circle cx="445.45" cy="99.46" r=".48"/></g><g transform="rotate(113.4 445.45 86.3)"><circle cx="445.45" cy="73.14" r=".48"/><circle cx="445.45" cy="99.46" r=".48"/></g><g transform="rotate(23.08 445.45 86.3)"><circle cx="445.45" cy="73.14" r=".48"/><circle cx="445.45" cy="99.46" r=".48"/></g><g transform="scale(-1 1) rotate(23.08 0 -2095.58)"><circle cx="445.45" cy="73.14" r=".48"/><circle cx="445.45" cy="99.46" r=".48"/></g></g><circle cx="556.96" cy="100.31" r="2.39" fill="#f1b517" stroke="#000" stroke-linecap="round" stroke-width=".15"/><path fill="#fff" stroke="#000" stroke-width=".15" d="M498.22 68.61s5.88 2.53 6.39-1.83c0 0 3.55 4.46-1.32 7.3 0 0 2.23-3.54-5.07-3.95 0 0-1.01.1-.91-.71.1-.81.91-.81.91-.81z"/><path d="M497.3 69.56c.84.07 2.74.28 5.69.87 1.3.27 2.22.1 2.87-.24 0 1.3-.57 2.73-2.57 3.9 0 0 2.23-3.56-5.07-3.96 0 0-.89.09-.92-.57z"/><path fill="#fff" stroke="#000" stroke-width=".15" d="m500.81 68.57.5.08-2.03 13.58-.5-.07z" color="#000" font-family="sans-serif" font-weight="400" overflow="visible"/><path fill="#fff" stroke="#000" stroke-width=".15" d="m500.62 68.54.89.14-.41 2.73-.9-.13z" color="#000" font-family="sans-serif" font-weight="400" overflow="visible"/><g stroke="#000" stroke-width=".15" transform="matrix(-1 0 0 1 984.55 0)"><ellipse cx="472.44" cy="104.75" fill="#fff" rx="3.57" ry="1.68"/><g fill="#f1b517"><path d="M472.76 84.82c-.33-.02-.65.04-.73.23-.18.4.35.49.35.49v2.24a332 332 0 0 1-.84 13.35 7.69 7.69 0 0 1-.46 1.85s-2.52.3-2.4 1.44c.14 1.14 1.5 1.9 3.79 1.85 2.81-.07 3.6-.66 3.73-1.37.13-.7-.66-1.36-1.85-1.58l-.61-3.51s.13.53 1.76.18c1.62-.36 1.58-2.81 1.58-2.81s.04-7.38-.05-8.74c-.08-1.37-.83-2.02-1.89-2.42-.83-.13-1.4.04-1.49.53-.09.48-.3.61-.44.44-.13-.18 0-1.5 0-1.5s.62-.3.35-.48a1.94 1.94 0 0 0-.8-.2zm2.12 2.52.57.3.18 1.59v7.99l-.1.53-.74.61-.83-.18-.44-.52-.3-7.16-.1-2.28 1.06-.7z"/><path fill="none" d="M474.57 104.16s-.96-2.46-1.18-8.92c-.22-6.45-.31-6.98 0-7.29.3-.3 1.18-.83 1.71-.52.53.3.4.4.48 1.49.1 1.1.1 8.21.1 8.21s-.27 1.19-.93 1.14c-.66-.04-1.14-.3-1.23-.79"/></g><path fill="none" d="M470.36 104.29s.92-1.1 1.18-3.16c.27-2.07.84-12.65.84-13.35v-2.24"/></g><g fill="#fff" stroke="#000"><path stroke-width=".27" d="M524.8 96.62s-3.22.1-4.26 2.08c-1.05 2-.48 3.9.76 4.65 1.23.76 3.88 1.33 5.12.57 1.23-.76 2.08-3.22.66-3.5-1.42-.3-3.8-.77-3.5-1.72.28-.94 1.5-.94 1.5-.94z"/><path stroke-width=".15" d="M491.59 178.41h.6v2.15h-.6z" transform="matrix(.98736 -.15849 .21856 .97582 0 0)"/></g><path fill="#fff" stroke="#000" stroke-width=".3" d="m570.12 86.25-13.62 7.09.08.14.95.17 12.94-6.73z" color="#000" font-family="sans-serif" font-weight="400" overflow="visible"/><path fill="#fff" stroke="#000" stroke-width=".3" d="m570.52 86.59-7.67 13.58 1.25-.68 7.08-12.54z" color="#000" font-family="sans-serif" font-weight="400" overflow="visible"/><path d="M583.64 73.38a.38.38 0 0 0-.26.1l-12.93 12.84a.38.38 0 1 0 .53.53l12.7-12.61v-.86a.38.38 0 0 0-.04 0z" color="#000" font-family="sans-serif" font-weight="400" overflow="visible"/><path fill="#fff" stroke="#000" stroke-linecap="round" stroke-width=".3" d="M572.56 84.4a.38.38 0 0 0-.26.11l-12.83 12.74 1.12-.06 12.24-12.15a.38.38 0 0 0-.27-.64z" color="#000" font-family="sans-serif" font-weight="400" overflow="visible"/><circle cx="523.95" cy="109.88" r="2.39" fill="#f1b517" stroke="#000" stroke-linecap="round" stroke-width=".15"/><circle cx="529.65" cy="105.09" r="2.39" fill="#f1b517" stroke="#000" stroke-linecap="round" stroke-width=".15"/><circle cx="538.43" cy="105.66" r="2.39" fill="#f1b517" stroke="#000" stroke-linecap="round" stroke-width=".15"/><circle cx="545.1" cy="109.31" r="2.39" fill="#f1b517" stroke="#000" stroke-linecap="round" stroke-width=".15"/><circle cx="550.92" cy="109.31" r="2.39" fill="#f1b517" stroke="#000" stroke-linecap="round" stroke-width=".15"/><circle cx="556.74" cy="109.31" r="2.39" fill="#f1b517" stroke="#000" stroke-linecap="round" stroke-width=".15"/><circle cx="562.55" cy="109.31" r="2.39" fill="#f1b517" stroke="#000" stroke-linecap="round" stroke-width=".15"/><circle cx="548.07" cy="104.87" r="2.39" fill="#f1b517" stroke="#000" stroke-linecap="round" stroke-width=".15"/><circle cx="553.88" cy="104.87" r="2.39" fill="#f1b517" stroke="#000" stroke-linecap="round" stroke-width=".15"/><circle cx="559.7" cy="104.87" r="2.39" fill="#f1b517" stroke="#000" stroke-linecap="round" stroke-width=".15"/><path fill="#d20014" stroke="#000" stroke-width=".3" d="M535.73 13.09s-.18 1.88 1.41 3 3.47 2.35 4.22 5.54c.75 3.19.2 2.81.2 2.81l-4.98.85s.56-2.26-.66-4.04c-1.22-1.78-3-6.94-1.31-9z"/><path fill="#0a328c" stroke="#000" stroke-width=".15" d="M535.58 12.97c-.3.73-.82 2.45.34 3.68 1.5 1.6 2.91 2.35 3.47 4.5.34 1.3.56 2.63.7 3.54l1.46-.25s.56.38-.19-2.81-2.62-4.41-4.22-5.54c-1.6-1.12-1.4-3-1.4-3z"/><path fill="none" stroke="#000" stroke-width=".15" d="M534.98 12.15s-.93 2.16.1 4.32c1.03 2.15 2.06 3.19 2.63 4.6.56 1.4 0 2.71.65 3.75"/><path fill="#fff" stroke="#000" stroke-linecap="round" stroke-width=".15" d="M573.9 106.96a.2.2 0 1 0 .07.4s3.4-.54 5.92 2.03a.2.2 0 1 0 .29-.28c-2.68-2.72-6.28-2.15-6.28-2.15z" color="#000" font-family="sans-serif" font-weight="400" overflow="visible"/><path fill="#fff" stroke="#000" stroke-width=".15" d="M579.83 110.8s0 .53.43 1.04c.44.52 1.3 1 2.96 1.06l.02-.4c-1.6-.05-2.32-.5-2.67-.92-.35-.4-.34-.77-.34-.77z" color="#000" font-family="sans-serif" font-weight="400" overflow="visible"/><path fill="#f1b517" d="M584.63 114.8c.53-1.37 1.97-1.7 1.97-1.7s.1-.1-.32-1.11c-.43-1.01-.21-1.76-.21-1.76.16-5.37-.38-6.81-.38-6.81.38 0 2.08 2.02 2.08 2.02-.05-5.1-7.61-7.5-7.61-7.5 2.77 7.02 1.7 7.82 1.7 7.82 1.76-.74 1.97-1.91 1.97-1.91.32 1.91.05 5.64.05 5.64s.11 1.75-1.54.9c-.88-.45-5.16-2.53-5.16-2.53l-.4 1.46 5.72 2.67s1.33.58.96 1.6c-.37 1-.59 1.17-.59 1.17z"/><path d="m574.84 106.91.2.4.3.02a13.17 13.17 0 0 0-.2-.41 8.3 8.3 0 0 0-.3-.01zm1.01.08.14.42.3.06a12.51 12.51 0 0 0-.14-.43 8.17 8.17 0 0 0-.3-.05zm1.1.23.06.43.28.1-.06-.45-.28-.08zm1.09.4-.02.43.26.13a12.7 12.7 0 0 0 .02-.43l-.26-.14zm1 .55-.09.42.23.17.1-.42a7.1 7.1 0 0 0-.24-.17zm1.44 3.3-.2.4.2.2.18-.38-.1-.1a1.6 1.6 0 0 1-.08-.13zm.54.5-.05.43.25.12.05-.42a2.54 2.54 0 0 1-.25-.14zm.63.28.08.44a5 5 0 0 0 .28.07l-.07-.43a4.03 4.03 0 0 1-.29-.08zm.57.15.19.43.3.04-.18-.43-.31-.04z" color="#000" font-family="sans-serif" font-weight="400" overflow="visible"/><path fill="#0a328c" stroke="#000" stroke-width=".3" d="M560.74 38.89s-3-1.45-3.7-.23c-.7 1.21-.98 3.64 0 5.09 0 0 4.28.52 6.48-.23l.29-.18z"/><path fill="#d20014" stroke="#000" stroke-width=".15" d="M557.76 40.22a3 3 0 0 0-1.3.3 4.77 4.77 0 0 0 .58 3.23s3.79.46 6.07-.11c-1.1-.35-2.99-2.16-4.28-3.07a1.9 1.9 0 0 0-1.07-.35z"/><path fill="none" stroke="#000" stroke-width=".15" d="M556.46 42.65s1.45-.98 3.76.06c2.31 1.04 2.31.86 2.31.86"/><path fill="none" stroke="#000" stroke-width=".3" d="M560.74 38.89s-3-1.45-3.7-.23c-.7 1.21-.98 3.64 0 5.09 0 0 4.28.52 6.48-.23l.29-.18z"/><path fill="none" stroke="#000" stroke-width=".15" d="M561.6 43.8s.47 1.97.59 6.08c.11 4.1-.76 6.88-1.1 6.82"/><path fill="none" stroke="#000" stroke-width=".27" d="M563.75 43.23s1.73 1.73 1.96 5.66c.24 3.94.18 6.65.18 6.65s-2.84 1.68-5.5.99c0 0 .47-1.16.52-2.78.06-1.62-.05-10-.05-10"/><path fill="none" stroke="#000" stroke-width=".3" d="M537.9 24.95s1.39 5.73 1.56 8.39"/><path fill="none" stroke="#000" stroke-width=".15" d="M527.16 13.2s1.41-1.93 5.59-.25"/></g><path fill="#016a16" stroke="#000" stroke-width=".29" d="m499.14-5.19.83-27.05 3.84-2.06 1.1 29.11z" transform="matrix(.79646 0 0 .7753 100.07 273.8)"/><path fill="#0a328c" stroke="#000" stroke-width=".33" d="M500.72-57s-.37 0-.99-.61c-.62-.62-.99-.62-.5-1.49.5-.86 1.12-1.98 3.22-1.85 2.1.12 3.72.24 4.46 2.47.74 2.23.99 8.17.37 10.65-3.22-.13-8.05-2.73-8.79-4.46-.74-1.73 2.23-4.7 2.23-4.7z" transform="matrix(.79646 0 0 .7753 100.07 273.8)"/><g stroke="#000"><path fill="#f1b517" stroke-width="1.23" d="m1763.45 81.89 28.52 60.3 6.52-3.26 50.93 96.16.4-16.3-48.3-85.02 2.26-1.76-3.26-3.67-1.58.9-.05-.09s-3.26-.4-3.66.82z" transform="matrix(-.2285 0 0 .22244 925.38 264.55)"/><path fill="#fff" stroke-width=".57" d="m1763.45 81.89 28.52 60.3 6.52-3.26-3.44-9.23zm57.77 86.56c-1.65.6-4.12 1.58-5.72 2.6l7.03 13.28c1.17-.86 3.42-2.33 5.7-2.61a.78.78 0 0 0 .42-.19z" transform="matrix(-.2285 0 0 .22244 925.38 264.55)"/><path fill="none" d="m1800.53 128.34-1.47.84 2.5 4.55 2.22-1.72z" transform="matrix(-.2285 0 0 .22244 925.38 264.55)"/><path fill="none" stroke-width="1.23" d="m1763.45 81.89 28.52 60.3 6.52-3.26 50.93 96.16.4-16.3-48.3-85.02 2.26-1.76-3.26-3.67-1.58.9-.05-.09s-3.26-.4-3.66.82z" transform="matrix(-.2285 0 0 .22244 925.38 264.55)"/><path fill="#f1b517" stroke-width="1.23" d="m1763.45 81.89 28.52 60.3 6.52-3.26 50.93 96.16.4-16.3-48.3-85.02 2.26-1.76-3.26-3.67-1.58.9-.05-.09s-3.26-.4-3.66.82z" transform="matrix(-.22737 .02218 .02279 .22133 917.25 220.46)"/><path fill="#fff" stroke-width=".57" d="m1763.45 81.89 28.52 60.3 6.52-3.26-3.44-9.23z" transform="matrix(-.22737 .02218 .02279 .22133 917.25 220.46)"/><path fill="none" d="m1800.53 128.34-1.47.84 2.5 4.55 2.22-1.72z" transform="matrix(-.22737 .02218 .02279 .22133 917.25 220.46)"/><path fill="none" stroke-width="1.23" d="m1763.45 81.89 28.52 60.3 6.52-3.26 50.93 96.16.4-16.3-48.3-85.02 2.26-1.76-3.26-3.67-1.58.9-.05-.09s-3.26-.4-3.66.82z" transform="matrix(-.22737 .02218 .02279 .22133 917.25 220.46)"/><path fill="#fff" stroke-width=".15" d="m471.5 15.64 5.92 16.63 1.8-.69-.66-2.51z" transform="matrix(-.86366 0 0 .84072 925.38 264.55)"/><path fill="none" stroke-width=".27" d="m480.04 28.85-.41.18.54 1.27.63-.4z" transform="matrix(-.86366 0 0 .84072 925.38 264.55)"/><path fill="#fff" stroke-width=".57" d="M1824.68 136.95a13.6 13.6 0 0 0-5.09 2.95l5.42 13.27c1.62-1 3.76-1.9 5.69-2.63z" transform="matrix(-.2285 0 0 .22244 925.38 264.55)"/><path fill="none" stroke-width=".33" d="m471.5 15.64 5.92 16.63 1.8-.69 10.87 26.66.54-4.28-10.48-23.65.65-.4-.76-1.06-.44.2-.02-.03s-.84-.2-.98.12z" transform="matrix(-.86366 0 0 .84072 925.38 264.55)"/><path fill="#f1b517" stroke-width="1.23" d="m1763.45 81.89 28.52 60.3 6.52-3.26 50.93 96.16.4-16.3-48.3-85.02 2.26-1.76-3.26-3.67-1.58.9-.05-.09s-3.26-.4-3.66.82z" transform="matrix(-.22512 .03815 .03919 .21915 906.4 190.77)"/><path fill="#fff" stroke-width=".57" d="m1763.45 81.89 28.52 60.3 6.52-3.26-3.44-9.23z" transform="matrix(-.22512 .03815 .03919 .21915 906.4 190.77)"/><path fill="none" d="m1800.53 128.34-1.47.84 2.5 4.55 2.22-1.72z" transform="matrix(-.22512 .03815 .03919 .21915 906.4 190.77)"/><path fill="none" stroke-width="1.23" d="m1763.45 81.89 28.52 60.3 6.52-3.26 50.93 96.16.4-16.3-48.3-85.02 2.26-1.76-3.26-3.67-1.58.9-.05-.09s-3.26-.4-3.66.82z" transform="matrix(-.22512 .03815 .03919 .21915 906.4 190.77)"/><path fill="#fff" stroke-width=".15" d="m471.5 15.64 5.92 16.63 1.8-.69-.66-2.51z" transform="matrix(-.8614 .06088 .06254 .83851 917.77 234.17)"/><path fill="none" stroke-width=".27" d="m480.04 28.85-.41.18.54 1.27.63-.4z" transform="matrix(-.8614 .06088 .06254 .83851 917.77 234.17)"/><path fill="#fff" stroke-width=".57" d="M1824.68 136.95a13.6 13.6 0 0 0-5.09 2.95l5.42 13.27c1.62-1 3.76-1.9 5.69-2.63z" transform="matrix(-.22791 .0161 .01655 .22186 917.77 234.17)"/><path fill="none" stroke-width=".33" d="m471.5 15.64 5.92 16.63 1.8-.69 10.87 26.66.54-4.28-10.48-23.65.65-.4-.76-1.06-.44.2-.02-.03s-.84-.2-.98.12z" transform="matrix(-.8614 .06088 .06254 .83851 917.77 234.17)"/></g><path fill="none" stroke="#000" stroke-linecap="round" stroke-width=".29" d="M505.05-56.08s-2.6.5-2.47 1.73" transform="matrix(.79646 0 0 .7753 100.07 273.8)"/><path fill="none" stroke="#000" stroke-width=".29" d="M503.81-58.85s-2.97.74-3.96 3.34m2.6-2.97s-1.73 1.49-2.47 1" transform="matrix(.79646 0 0 .7753 100.07 273.8)"/><path fill="#d20014" stroke="#000" stroke-width=".29" d="m499.53-54.9-.17.01-.35.1c-.5.84-.83 1.78-.52 2.5.06.12.13.25.22.38l.28-.13s5.7-.5 8.17 3.84l.15.26c.23-1.03.33-2.57.32-4.2-3.95-2.72-7.31-2.79-8.1-2.76z" transform="matrix(.79646 0 0 .7753 100.07 273.8)"/><path fill="none" stroke="#000" stroke-linecap="round" stroke-width=".29" d="M506.17-54.72s-1.37.62-1.37 1.24" transform="matrix(.79646 0 0 .7753 100.07 273.8)"/><path fill="#f1b517" stroke="#000" stroke-width=".3" d="M495.56 5.5s1.67 54.98.3 75.64m-.3-75.65c-1.98-.3-5.3 0-5.3 0s-1.68 55-.31 75.65c0 0 3.63-.45 5.91 0" transform="matrix(.87833 0 0 .8407 67.04 265.06)"/><path d="M499.83 271.8a65.1 65.1 0 0 0-2.25.06v.22a66.84 66.84 0 0 1 4.8-.01v-.22a66.16 66.16 0 0 0-2.55-.04zm-.02 1.63a68.62 68.62 0 0 0-2.27.04v.22a71.53 71.53 0 0 1 4.88 0v-.22a70.7 70.7 0 0 0-2.61-.04zm-.03 1.62a78.73 78.73 0 0 0-2.29.04v.22a77.03 77.03 0 0 1 4.98 0v-.22a76.24 76.24 0 0 0-2.68-.04zm-.02 1.62a86 86 0 0 0-2.31.03v.22a83.6 83.6 0 0 1 5.06.01v-.22a82.8 82.8 0 0 0-2.75-.04zm-.95 1.62c-.51 0-.97.02-1.4.03v.22a91.3 91.3 0 0 1 5.14.02v-.23a91.81 91.81 0 0 0-3.74-.04zm-.02 1.62-1.42.02v.22c1.36-.03 3.17-.04 5.22.02v-.22a100.96 100.96 0 0 0-3.8-.04zm-.02 1.62c-.53 0-1 0-1.44.02v.22c1.37-.03 3.21-.03 5.3.03v-.23a113.6 113.6 0 0 0-3.86-.04zm-.03 1.62-1.45.01v.22c1.38-.02 3.26-.02 5.38.03v-.22c-1.45-.04-2.79-.05-3.93-.04zm-.02 1.61-1.46.01v.23c1.38-.02 3.29-.02 5.45.03l-.01-.22c-1.47-.04-2.83-.05-3.98-.05zm-.02 1.62-1.48.01v.22c1.4-.01 3.33 0 5.52.04v-.22a177.5 177.5 0 0 0-4.04-.05zm-.03 1.62h-1.48v.23c1.4-.01 3.36 0 5.58.04v-.22a221.78 221.78 0 0 0-4.1-.05zm-.02 1.62h-1.5v.22c1.43 0 3.3 0 5.65.05v-.22a295.02 295.02 0 0 0-4.15-.05zm-1.52 1.62v.22c1.43 0 3.32.01 5.7.05v-.22a407.87 407.87 0 0 0-5.7-.05zm-.03 1.6v.23c1.41 0 2.98.02 5.76.06v-.23a679 679 0 0 0-5.76-.05zm-.03 1.62v.22l5.82.06v-.22l-5.82-.06zm-.02 1.61v.22c1.41.03 3.02.05 5.86.07v-.22c-2.84-.02-4.44-.05-5.86-.07zm-.02 1.62v.22c1.44.03 3.42.06 5.9.07v-.23c-2.48 0-4.45-.04-5.9-.06zm-.03 1.6v.23c1.46.03 3.45.07 5.96.07v-.22c-2.52 0-4.5-.04-5.96-.07zm-.02 1.63v.22c1.45.04 3.56.07 6 .07v-.22c-2.44 0-4.55-.03-6-.07zm-.01 1.6v.23c1.45.05 3.57.09 6.02.07v-.22c-2.45.01-4.57-.03-6.02-.07zm-.02 1.62v.23c1.46.05 3.59.09 6.06.07v-.23c-2.47.03-4.6-.02-6.06-.07zm-.01 1.62v.22c1.46.06 3.6.1 6.08.08v-.23a118.69 118.69 0 0 1-6.08-.07zm-.01 1.61v.22c1.46.07 3.6.12 6.1.08v-.22c-2.5.04-4.64-.02-6.1-.08zm-.01 1.62v.22a91.3 91.3 0 0 0 6.12.08v-.23a90.99 90.99 0 0 1-6.12-.07zm0 1.61-.01.22c1.47.08 3.6.14 6.14.08v-.22c-2.53.06-4.67 0-6.14-.08zm0 1.62v.22c1.46.08 3.6.15 6.12.07v-.22c-2.53.07-4.67 0-6.13-.07zm0 1.61v.22c1.46.09 3.6.16 6.12.08v-.23a67.15 67.15 0 0 1-6.13-.07zm0 1.62v.22a61.8 61.8 0 0 0 6.12.07v-.22a61.61 61.61 0 0 1-6.12-.07zm0 1.61v.22c1.47.1 3.59.18 6.11.07v-.22a57.02 57.02 0 0 1-6.1-.07zm.02 1.62v.22c1.46.1 3.56.18 6.08.07v-.22c-2.52.11-4.63.03-6.08-.07zm.01 1.62v.22c1.46.1 3.55.19 6.05.06v-.22c-2.5.12-4.6.04-6.05-.06zm.03 1.61v.23c1.44.1 3.52.19 6 .06v-.23a46.24 46.24 0 0 1-6-.06zm.02 1.62v.22c1.45.12 3.5.2 5.95.06v-.22a43 43 0 0 1-5.95-.06zm.04 1.62v.22a41.35 41.35 0 0 0 5.87.06v-.23a40.97 40.97 0 0 1-5.87-.05zm.04 1.62v.22a39.15 39.15 0 0 0 5.79.05v-.22c-2.4.15-4.38.07-5.79-.05zm.06 1.62v.23c1.4.12 3.34.2 5.67.04v-.23a36.86 36.86 0 0 1-5.67-.04zm.06 1.63.01.22c1.38.12 3.27.2 5.53.03l.01-.22c-2.27.16-4.17.09-5.55-.03zm.08 1.62.01.23c1.36.12 3.2.18 5.37.02l.02-.22c-2.2.16-4.05.1-5.4-.03z" color="#000" font-family="sans-serif" font-weight="400" overflow="visible"/><path fill="none" stroke="#000" stroke-width=".6" d="M493.1 79.06c.37.05.78.09 1.23.12m-1.23-2.03c.38.04.8.08 1.26.11m-1.25-2.02c.38.04.8.07 1.27.1m-1.27-2.02c.39.04.82.08 1.3.1m-1.3-2 1.32.09m-1.31-2.01 1.34.09m-1.34-2 1.36.08m-1.35-2 1.38.08m-1.38-2 1.4.08m-1.4-1.99 1.43.07m-1.42-1.98 1.45.06m-1.44-1.97 1.46.06m-1.46-1.98 1.49.06m-1.48-1.97 1.5.05m-1.5-1.96 1.53.04m-1.53-1.96 1.55.04m-1.54-1.95 1.57.03m-1.57-1.94 1.6.02m-1.64-1.94 1.62.02m-1.66-1.93 1.63.02m-1.67-1.93h1.65m-1.7-1.92h1.68m-1.71-1.9h1.7m-1.75-1.92h1.72m-1.76-1.92h1.74m-1.78-1.9c.5-.02 1.1-.02 1.76-.03m-1.8-1.9 1.78-.01m-1.82-1.9 1.8-.02m-1.84-1.89 1.82-.03m-1.87-1.88 1.85-.04m-1.89-1.87 1.86-.05m-1.9-1.87 1.88-.05m-1.92-1.86 1.9-.06m-1.94-1.85a86.34 86.34 0 0 1 1.92-.06M492.47 14c.55-.02 1.2-.05 1.94-.06m-1.99-1.85c.56-.03 1.22-.05 1.97-.07m-2-1.84a75.4 75.4 0 0 1 1.98-.08m-2.03-1.84a72.1 72.1 0 0 1 2-.08" transform="matrix(.87833 0 0 .8407 68.09 264.39)"/><path fill="none" stroke="#000" stroke-width=".6" d="M493.74 79.06c.37.05.78.09 1.23.12m-1.27-2.03c.37.04.8.07 1.25.1m-1.3-2.02 1.29.1m-1.32-2.02 1.3.1m-1.34-2.02 1.32.1m-1.36-2.02 1.34.09m-1.37-2.01 1.36.08m-1.4-2 1.38.08m-1.42-2 1.4.07m-1.44-1.99 1.43.07m-1.47-1.99 1.45.07m-1.49-1.99 1.47.06m-1.5-1.98 1.48.06m-1.52-1.98 1.5.05m-1.54-1.96 1.53.04m-1.57-1.96 1.55.03m-1.56-1.95 1.57.03m-1.53-1.95 1.59.02m-1.56-1.94 1.61.02m-1.58-1.94 1.63.02m-1.6-1.94 1.66.01m-1.62-1.93h1.67m-1.64-1.92h1.7m-1.67-1.92h1.72M493.4 33l1.74-.01m-1.7-1.91 1.75-.02m-1.72-1.9 1.78-.02m-1.75-1.9 1.8-.03m-1.77-1.89c.52-.01 1.13-.03 1.82-.03m-1.79-1.89 1.84-.04m-1.8-1.88 1.86-.04m-1.83-1.88 1.88-.05m-1.85-1.87a90.8 90.8 0 0 1 1.9-.05m-1.87-1.86a86.34 86.34 0 0 1 1.93-.06m-1.9-1.86 1.95-.07m-1.91-1.85a76.7 76.7 0 0 1 1.96-.07m-1.93-1.85a75.4 75.4 0 0 1 1.99-.08m-1.96-1.84a72.1 72.1 0 0 1 2-.08" transform="matrix(.87833 0 0 .8407 63.97 264.48)"/><g transform="matrix(.86366 0 0 .84072 74.33 265.06)"><path fill="#d20014" d="m521.42 70.27-.36 15.3-20.03-1.34z"/><path fill="#0a328c" d="M561.11 52.43s-1.46 25.13-9.1 37.75l-31.2-4.61.85-15.3 39.45-26.82z"/><path fill="#0a328c" stroke="#000" stroke-width=".27" d="M531.9 13.85c-1.85.82-3.53.16-3.53.16s-.82 1.07 1.39 1.19c0 0 .88.08.29 1.06"/><path fill="#d20014" stroke="#000" stroke-width=".3" d="M534.53 11.94s-3.34-2.72-5.45-2.56c-2.1.17-2.2.13-2.4.5a3.7 3.7 0 0 0 .4 3.31c.94 1.25 1.33.95 1.5.68.15-.27 1.48-1.05 4-.47"/><path fill="#0a328c" stroke="#000" stroke-width=".15" d="M529.28 9.38h-.2c-2.1.17-2.2.13-2.4.5a3.82 3.82 0 0 0-.15 2.07c.32-.3.97-.59 2.3-.52a8.68 8.68 0 0 1 4.22 1.23l.27.19 1.2-.9s-3.12-2.56-5.24-2.57z"/><path fill="#d20014" d="m495.6 74.46 23.87-21.75L523 60.9l-2.19 9.1-19.51 13.61-5.35-1.34-.23-4.9zm.73-14 14.63-18.85 3.7 8.2-1.16 7.76-17.46 16.42z"/><path fill="#0a328c" d="M511.02 41.95s2.95 6.77 2.48 15.5l17.81-16.6 8.5-7.68-.17.11-1.1-5.32-.52-3-1.39.34v-1.73l-.23-1.5-1.21-2.38-.99-2.54-.23-2.14.46-2.54-.63.29z"/><path fill="#0a328c" stroke="#000" stroke-width=".27" d="M563.75 43.23s1.73 1.73 1.96 5.66c.24 3.94.18 6.65.18 6.65s-2.84 1.68-5.5.99c0 0 .47-1.16.52-2.78.06-1.62-.05-10-.05-10z"/><path fill="#d20014" stroke="#000" stroke-width=".15" d="m562.13 43.75-1.27.08c0 .16.11 8.32.05 9.92-.05 1.62-.52 2.77-.52 2.77.98.26 1.97.2 2.84.01.02-.31.34-5.12.29-7.64-.06-2.6-1.39-5.14-1.39-5.14z"/><path fill="#f1b517" d="M584.63 114.8c.53-1.37 1.97-1.7 1.97-1.7s.1-.1-.32-1.11c-.43-1.01-.21-1.76-.21-1.76.16-5.37-.38-6.81-.38-6.81.38 0 2.08 2.02 2.08 2.02-.05-5.1-7.61-7.5-7.61-7.5 2.77 7.02 1.7 7.82 1.7 7.82 1.76-.74 1.97-1.91 1.97-1.91.32 1.91.05 5.64.05 5.64s.11 1.75-1.54.9c-1.65-.85-8.3-4.04-8.3-4.04l-.7 1.38 9.16 4.26s1.33.58.96 1.6c-.37 1-.59 1.17-.59 1.17z"/><path fill="none" stroke="#000" stroke-width=".3" d="M583.88 109.49s.27-3.73-.05-5.64c0 0-.21 1.17-1.97 1.91 0 0 1.07-.8-1.7-7.82 0 0 7.56 2.4 7.61 7.5 0 0-1.7-2.02-2.08-2.02 0 0 .54 1.44.38 6.81"/><path fill="none" stroke="#000" stroke-width=".15" d="M584.63 114.8c.53-1.37 1.97-1.7 1.97-1.7s.1-.1-.32-1.11c-.43-1.01-.21-1.76-.21-1.76.16-5.37-.38-6.81-.38-6.81.38 0 2.08 2.02 2.08 2.02-.05-5.1-7.61-7.5-7.61-7.5 2.77 7.02 1.7 7.82 1.7 7.82 1.76-.74 1.97-1.91 1.97-1.91.32 1.91.05 5.64.05 5.64s.11 1.75-1.54.9c-1.65-.85-8.3-4.04-8.3-4.04l-.7 1.38 9.16 4.26s1.33.58.96 1.6c-.37 1-.59 1.17-.59 1.17"/><path fill="#f1b517" stroke="#000" stroke-width=".15" d="M570.68 104.47c-.2 0-.63.05-.97.32a.98.98 0 0 0-.37.61c-.04.27.01.58.18.94a2.06 2.06 0 0 0 1.67 1.1 3.6 3.6 0 0 0 1.08-.02l-.09-.44s-.43.08-.93.01c-.5-.06-1.04-.27-1.32-.85-.15-.3-.17-.52-.15-.67a.5.5 0 0 1 .2-.32c.22-.17.6-.23.7-.23.19 0 .35-.03.65.12.3.15.73.5 1.3 1.28l.36-.27a4.4 4.4 0 0 0-1.46-1.4c-.4-.2-.71-.18-.85-.18z" color="#000" font-family="sans-serif" font-weight="400" overflow="visible"/><path fill="#f1b517" stroke="#000" stroke-width=".15" d="M571.38 109.27s.2-3.5 2.44-4.73c0 0 .54.05.59.48.05.42-2.08 4.15-2.08 4.15z"/><path fill="#f1b517" stroke="#000" stroke-width=".13" d="M571.63 108.88s.18-2.93 2.04-3.95c0 0 .44.05.49.4.04.36-1.73 3.46-1.73 3.46z"/><circle cx="551.15" cy="100.31" r="2.39" fill="#f1b517" stroke="#000" stroke-linecap="round" stroke-width=".15"/><path fill="#d20014" d="M581.87 75.42s4.03.23 3.99 2.22c-.05 2-.65 3.94.7 4.31 1.34.37 4.11.37 4.8 1.11.7.75.7 1.58.7 1.58s-3.47-1.25-5-.37c-1.53.88-3.13-.51-3.38-.97-.56-1.02-.23-3.01-1.3-3.38-1.06-.37-4.44-.42-4.44-.42z"/><path fill="#0a328c" d="M552.63 48c.63-10.86-1.26-23.61-1.26-23.61l-.15-1.9-32.6 31.19s2.36-2.52 1.57 10.4l2.83 4.4z"/><path fill="none" stroke="#000" stroke-width=".27" d="M552.63 48c.63-10.86-1.26-23.61-1.26-23.61l-.15-1.9"/><g fill="#f1b517" stroke="#000"><path stroke-width=".3" d="m543.91-1.2-4.36 10.18s-1.27-1.3-2.3.04l-1.02 1.34m7.66-11.57-8.42 7.19s1.6.83.64 2.2l-.97 1.38 1.09.8"/><path stroke-width=".3" d="m532.89 7.3 6 4.39-1.58 2.15-6-4.38z"/><path stroke-width=".15" d="m533.02 7.97 5.2 3.8-1.04 1.41-5.2-3.8z"/></g><g fill="#f1b517" stroke="#000"><path stroke-width=".3" d="m563.29 11.4-5.93 9.37s-1.05-1.48-2.27-.32l-1.22 1.15m9.4-10.2-9.46 5.75s1.46 1.08.28 2.29l-1.17 1.2.95.96"/><path stroke-width=".3" d="m551.06 18.06 5.22 5.28-1.9 1.87-5.22-5.28z"/><path stroke-width=".15" d="m551.08 18.73 4.53 4.58-1.25 1.23-4.53-4.57z"/></g><g fill="#f1b517" stroke="#000"><path stroke-width=".3" d="m575.9 32.69-7.44 8.2s-.78-1.63-2.19-.7l-1.4.93m11.01-8.45-10.3 4.06s1.25 1.3-.12 2.3l-1.36.97.77 1.12"/><path stroke-width=".3" d="m562.7 37.15 4.25 6.1-2.19 1.51-4.24-6.1z"/><path stroke-width=".15" d="m562.62 37.81 3.67 5.28-1.44 1-3.67-5.27z"/></g><path fill="#f1b517" stroke="#000" stroke-width=".3" d="m534.07 11.47-37.87 48.1.59.46 37.87-48.1zm16.35 11.76-54.76 50.79.51.55 54.76-50.8zm8.81 20.34-58.29 39.9.42.62 58.3-39.9z" color="#000" font-family="sans-serif" font-weight="400" overflow="visible"/><path fill="#0a328c" stroke="#000" stroke-width=".27" d="M552.99 23.9s-5.5-1.05-6.83-.24 2.34.86 3.06.62l-1.39 1.39s-3.15-.77-3.68-3.73c-.52-2.97 1.58-2.97 2.06-2.92.47.05 3.25.48 6.78 4.88z"/><path fill="#d20014" stroke="#000" stroke-width=".15" d="M545.1 20.78c-.6.18-1.06.6-.9 1.4 0 0 .24.9.48 1.38a.3.3 0 0 1 .07-.08c.18.28.39.53.6.75a6.4 6.4 0 0 1 .54-.18c-.06-.1 0-.23.27-.4.15-.08.35-.15.58-.2 1-.38 2.5.02 2.81-.03l1.67.1s-4.98-3.07-6.12-2.73z"/><path fill="none" stroke="#000" stroke-width=".15" d="M550.8 23.32s-6.13-1.83-6.13-.06"/><path fill="none" stroke="#000" stroke-width=".3" d="M552.99 23.9s-5.5-1.05-6.83-.24 2.34.86 3.06.62l-1.39 1.39s-3.15-.77-3.68-3.73c-.52-2.97 1.58-2.97 2.06-2.92.47.05 3.25.48 6.78 4.88z"/><path fill="#0a328c" stroke="#000" stroke-width=".15" d="M552.27 23.85a7 7 0 0 0-.22 2c1.8 4.58 4.23 4.68 3.27 10.23l1.89-.05c.2-2.58-.2-5.02-.68-6.1a7.6 7.6 0 0 0-1.34-1.82c-.58-.63-1.2-1.24-1.64-1.71-.89-.95-.27-2.17-.27-2.17z"/><path fill="#d20014" stroke="#000" stroke-width=".27" d="M551.1 23.41s-.33.88-.33 2.1c0 .62.09 1.32.34 2.04.24.72.46 1.44.63 2.23.35 1.6.54 3.5.59 6.38l3-.08c.95-5.55-1.49-5.65-3.27-10.22a7 7 0 0 1 .22-2z"/><path fill="none" stroke="#000" stroke-width=".3" d="M553.28 24.23s-.61 1.22.27 2.17c.44.47 1.06 1.08 1.64 1.71a7.5 7.5 0 0 1 1.34 1.82c.48 1.08.88 3.52.68 6.1m0 0-4.88.13a31.93 31.93 0 0 0-.6-6.38 19.6 19.6 0 0 0-.62-2.23 6.26 6.26 0 0 1-.34-2.04c0-1.22.34-2.1.34-2.1l2.17.82"/><path fill="none" stroke="#000" stroke-width=".15" d="M553.89 36.1s.67-3.06-.89-5.77c-1.57-2.77-2.04-7-1.22-6.71"/><path fill="#f1b517" stroke="#000" stroke-width=".16" d="m548.43 80.4-4.22 7.38-16.67 1.24-1.57.2s-2.43 5.75-5.14 6.51c-2.7.77-20.78 6.4-20.78 6.4L499.5 98l11.71-3.78s3.44-1.26 4.46-2.6 9.54-9.5 9.54-9.5z"/><g stroke="#000" stroke-width=".3"><path fill="#f1b517" d="m540.96 61.58-24.22 40.37.51.3 24.22-40.36z" color="#000" font-family="sans-serif" font-weight="400" overflow="visible"/><path fill="#fff" d="M540.47 63.2s.68.66 1.53-.38 3.34-5.31 3.81-6.09c.48-.78 1.09-1.42.28-1.94-.8-.52-1.93.13-2.86 2.07-.93 1.94-3.98 5.31-2.76 6.35z"/></g><path fill="#f1b517" stroke="#000" stroke-width=".16" d="M561.9 68.75c.91-.12 2.46 1.65 2.87 4.73.41 3.07.02 5.66-.89 5.78-.33.05-.7-.25-1.06-.85l-48.35 6.5-1.02-9.14 47.98-5.7c.15-1.17.02-1.25.48-1.32z"/><path fill="#f4cf0e" stroke="#000" stroke-linecap="round" stroke-width=".15" d="M262.96 61.76s-.2.67-.27 1.08m-.73-1.05s-.2.66-.27 1.08m-.73-1.06s-.2.66-.28 1.08m-.72-1.06s-.21.67-.28 1.09m-.73-1.06s-.2.66-.28 1.08m-.72-1.06s-.2.67-.28 1.09m-.72-1.06s-.21.66-.28 1.08m-.73-1.06s-.2.67-.28 1.08m-.72-1.05s-.2.66-.28 1.08m-.73-1.06s-.2.66-.27 1.08m-.73-1.05s-.2.66-.28 1.08m-.72-1.06s-.2.66-.28 1.08m-.73-1.06s-.2.67-.27 1.08m-.73-1.05s-.2.66-.28 1.08m-.72-1.06s-.2.67-.28 1.08m-.73-1.05s-.2.66-.27 1.08m-.73-1.06s-.2.66-.28 1.08m-.72-1.06s-.21.67-.28 1.09m-.73-1.06s-.2.66-.27 1.08m-.73-1.06s-.2.67-.28 1.08m-.72-1.05s-.21.66-.28 1.08m-.73-1.06s-.2.67-.27 1.08m-.73-1.05s-.2.66-.28 1.08m-.72-1.06s-.21.66-.28 1.08m-.73-1.06s-.2.67-.27 1.09m-.73-1.06s-.2.66-.28 1.08m-.72-1.06s-.21.67-.28 1.08m-.73-1.05s-.2.66-.27 1.08m-.73-1.06s-.2.67-.28 1.08m-.72-1.05s-.21.66-.28 1.08m-.73-1.06s-.2.66-.27 1.08m-.73-1.06s-.2.67-.28 1.08m-.72-1.05s-.21.66-.28 1.08m-.73-1.06s-.2.67-.27 1.08m-.73-1.05s-.2.66-.28 1.08m-.72-1.06s-.21.67-.28 1.08m-.73-1.05s-.2.66-.28 1.08m-.72-1.06s-.2.66-.28 1.08m-.73-1.06s-.2.67-.27 1.09m-.73-1.06s-.2.66-.28 1.08m-.72-1.06s-.2.67-.28 1.08m-.73-1.05s-.2.66-.27 1.08m-.73-1.06s-.2.67-.28 1.08m-.72-1.05s-.2.66-.28 1.08m-.73-1.06s-.2.66-.27 1.08" transform="matrix(-1.0402 .13993 .09807 .729 782.84 -6.23)"/><path fill="none" stroke="#000" stroke-width=".28" d="m563.08 73.08-48.97 6.6m49.12-5.5-48.98 6.6m49.12-5.5-48.97 6.6m49.05-6.05-48.97 6.6m49.04-6.05-48.97 6.6m49.05-6.05-48.98 6.6m49.05-6.05-48.97 6.6m49.04-6.05-48.97 6.6"/><path fill="#f1b517" stroke="#000" stroke-linecap="round" stroke-width=".16" d="M554.63 70.1a1.54 5.1-4 0 1 1.9 4.99 1.54 5.1-4 0 1-1.2 5.17 1.54 5.1-4 0 1-.48-.21 1.54 5.1-4 0 0 .68-4.83 1.54 5.1-4 0 0-1.41-4.76 1.54 5.1-4 0 1 .5-.35zm-34.25 4.61a1.54 5.1-4 0 1 1.9 4.98 1.54 5.1-4 0 1-1.2 5.18 1.54 5.1-4 0 1-.48-.22 1.54 5.1-4 0 0 .68-4.82 1.54 5.1-4 0 0-1.4-4.77 1.54 5.1-4 0 1 .5-.35z"/><path fill="#f1b517" stroke="#000" stroke-width=".16" d="m513.2 78.8-2.72-.18s-1.68.57-1.78 1.29c-.1.71-.17 1.77-.03 2.06.14.28 3.32.85 4.44-.15z"/><path d="M508.7 79.9c1.09.27 3.02.17 4.47.03l-.06 1.89c-1.12 1-4.3.43-4.44.15a5.85 5.85 0 0 1 .03-2.06z"/><path fill="#f1b517" stroke="#000" stroke-linecap="round" stroke-width=".16" d="M513.71 75.53a1.07 4.92-3.74 0 1 .34.2 1.07 5.21-3.99 0 0-.18 4.38 1.07 5.21-3.99 0 0 .95 4.66 1.07 4.92-3.74 0 1-.45.58 1.07 4.92-3.74 0 1-1.4-4.82 1.07 4.92-3.74 0 1 .74-5z"/><g transform="matrix(-1 0 0 1 984.99 .74)"><path fill="#f1b517" stroke="#000" stroke-linecap="round" stroke-width=".15" d="M443.73 74.86v.03c.55.13.96.62.96 1.21v8.27l-5.84-5.85a1.24 1.24 0 0 1-.18-1.53l-.02-.03-2.53 2.54h0a1.23 1.23 0 0 1 1.65.1l5.95 5.94h-8.47c-.59 0-1.08-.41-1.2-.96H434v3.58h.02c.07-.62.58-1.1 1.22-1.1h8.41l-5.98 5.98a1.24 1.24 0 0 1-1.54.17l-.02.03 2.53 2.53.01-.01a1.23 1.23 0 0 1 .09-1.65l5.94-5.94v8.46c0 .6-.4 1.08-.96 1.21v.03h3.58v-.01a1.23 1.23 0 0 1-1.1-1.23v-8.6l6.08 6.08c.46.46.48 1.16.09 1.65l.01.01 2.53-2.53-.02-.03a1.24 1.24 0 0 1-1.54-.17l-5.98-5.98h8.4c.65 0 1.16.48 1.23 1.1h.02v-3.58h-.04a1.24 1.24 0 0 1-1.2.96h-8.47l5.95-5.94a1.23 1.23 0 0 1 1.64-.1h.01l-2.53-2.54-.02.03c.3.48.24 1.11-.17 1.53l-6 5.99V76.1c0-.64.49-1.16 1.11-1.23v-.01z"/><circle cx="445.45" cy="86.48" r="2.28" fill="#f1b517" stroke="#000" stroke-linecap="round" stroke-width=".15"/><path fill="#f1b517" stroke="#000" stroke-linecap="round" stroke-width=".15" d="M445.45 71.28a15.09 15.09 0 0 0-15.09 15.09 15.09 15.09 0 0 0 15.1 15.09 15.09 15.09 0 0 0 15.08-15.1 15.09 15.09 0 0 0-15.09-15.08zm0 3.84a11.25 11.25 0 0 1 11.25 11.25 11.25 11.25 0 0 1-11.25 11.25 11.25 11.25 0 0 1-11.25-11.25 11.25 11.25 0 0 1 11.25-11.25z"/><circle cx="445.45" cy="73.14" r=".48"/><circle cx="445.45" cy="99.46" r=".48"/><g transform="rotate(45 445.45 86.3)"><circle cx="445.45" cy="73.14" r=".48"/><circle cx="445.45" cy="99.46" r=".48"/></g><g transform="scale(-1 1) rotate(45 0 -989.12)"><circle cx="445.45" cy="73.14" r=".48"/><circle cx="445.45" cy="99.46" r=".48"/></g><g transform="rotate(90 359.15 0)"><circle cx="445.45" cy="73.14" r=".48"/><circle cx="445.45" cy="99.46" r=".48"/></g><g transform="scale(1 -1) rotate(-67.93 317.35 0)"><circle cx="445.45" cy="73.14" r=".48"/><circle cx="445.45" cy="99.46" r=".48"/></g><g transform="rotate(113.4 445.45 86.3)"><circle cx="445.45" cy="73.14" r=".48"/><circle cx="445.45" cy="99.46" r=".48"/></g><g transform="rotate(23.08 445.45 86.3)"><circle cx="445.45" cy="73.14" r=".48"/><circle cx="445.45" cy="99.46" r=".48"/></g><g transform="scale(-1 1) rotate(23.08 0 -2095.58)"><circle cx="445.45" cy="73.14" r=".48"/><circle cx="445.45" cy="99.46" r=".48"/></g></g><circle cx="556.96" cy="100.31" r="2.39" fill="#f1b517" stroke="#000" stroke-linecap="round" stroke-width=".15"/><path fill="#fff" stroke="#000" stroke-width=".15" d="M498.22 68.61s5.88 2.53 6.39-1.83c0 0 3.55 4.46-1.32 7.3 0 0 2.23-3.54-5.07-3.95 0 0-1.01.1-.91-.71.1-.81.91-.81.91-.81z"/><path d="M497.3 69.56c.84.07 2.74.28 5.69.87 1.3.27 2.22.1 2.87-.24 0 1.3-.57 2.73-2.57 3.9 0 0 2.23-3.56-5.07-3.96 0 0-.89.09-.92-.57z"/><path fill="#fff" stroke="#000" stroke-width=".15" d="m500.81 68.57.5.08-2.03 13.58-.5-.07z" color="#000" font-family="sans-serif" font-weight="400" overflow="visible"/><path fill="#fff" stroke="#000" stroke-width=".15" d="m500.62 68.54.89.14-.41 2.73-.9-.13z" color="#000" font-family="sans-serif" font-weight="400" overflow="visible"/><g stroke="#000" stroke-width=".15" transform="matrix(-1 0 0 1 984.55 0)"><ellipse cx="472.44" cy="104.75" fill="#fff" rx="3.57" ry="1.68"/><g fill="#f1b517"><path d="M472.76 84.82c-.33-.02-.65.04-.73.23-.18.4.35.49.35.49v2.24a332 332 0 0 1-.84 13.35 7.69 7.69 0 0 1-.46 1.85s-2.52.3-2.4 1.44c.14 1.14 1.5 1.9 3.79 1.85 2.81-.07 3.6-.66 3.73-1.37.13-.7-.66-1.36-1.85-1.58l-.61-3.51s.13.53 1.76.18c1.62-.36 1.58-2.81 1.58-2.81s.04-7.38-.05-8.74c-.08-1.37-.83-2.02-1.89-2.42-.83-.13-1.4.04-1.49.53-.09.48-.3.61-.44.44-.13-.18 0-1.5 0-1.5s.62-.3.35-.48a1.94 1.94 0 0 0-.8-.2zm2.12 2.52.57.3.18 1.59v7.99l-.1.53-.74.61-.83-.18-.44-.52-.3-7.16-.1-2.28 1.06-.7z"/><path fill="none" d="M474.57 104.16s-.96-2.46-1.18-8.92c-.22-6.45-.31-6.98 0-7.29.3-.3 1.18-.83 1.71-.52.53.3.4.4.48 1.49.1 1.1.1 8.21.1 8.21s-.27 1.19-.93 1.14c-.66-.04-1.14-.3-1.23-.79"/></g><path fill="none" d="M470.36 104.29s.92-1.1 1.18-3.16c.27-2.07.84-12.65.84-13.35v-2.24"/></g><g fill="#fff" stroke="#000"><path stroke-width=".27" d="M524.8 96.62s-3.22.1-4.26 2.08c-1.05 2-.48 3.9.76 4.65 1.23.76 3.88 1.33 5.12.57 1.23-.76 2.08-3.22.66-3.5-1.42-.3-3.8-.77-3.5-1.72.28-.94 1.5-.94 1.5-.94z"/><path stroke-width=".15" d="M491.59 178.41h.6v2.15h-.6z" transform="matrix(.98736 -.15849 .21856 .97582 0 0)"/></g><path fill="#fff" stroke="#000" stroke-width=".3" d="m570.12 86.25-13.62 7.09.08.14.95.17 12.94-6.73z" color="#000" font-family="sans-serif" font-weight="400" overflow="visible"/><path fill="#fff" stroke="#000" stroke-width=".3" d="m570.52 86.59-7.67 13.58 1.25-.68 7.08-12.54z" color="#000" font-family="sans-serif" font-weight="400" overflow="visible"/><path d="M583.64 73.38a.38.38 0 0 0-.26.1l-12.93 12.84a.38.38 0 1 0 .53.53l12.7-12.61v-.86a.38.38 0 0 0-.04 0z" color="#000" font-family="sans-serif" font-weight="400" overflow="visible"/><path fill="#fff" stroke="#000" stroke-linecap="round" stroke-width=".3" d="M572.56 84.4a.38.38 0 0 0-.26.11l-12.83 12.74 1.12-.06 12.24-12.15a.38.38 0 0 0-.27-.64z" color="#000" font-family="sans-serif" font-weight="400" overflow="visible"/><circle cx="523.95" cy="109.88" r="2.39" fill="#f1b517" stroke="#000" stroke-linecap="round" stroke-width=".15"/><circle cx="529.65" cy="105.09" r="2.39" fill="#f1b517" stroke="#000" stroke-linecap="round" stroke-width=".15"/><circle cx="538.43" cy="105.66" r="2.39" fill="#f1b517" stroke="#000" stroke-linecap="round" stroke-width=".15"/><circle cx="545.1" cy="109.31" r="2.39" fill="#f1b517" stroke="#000" stroke-linecap="round" stroke-width=".15"/><circle cx="550.92" cy="109.31" r="2.39" fill="#f1b517" stroke="#000" stroke-linecap="round" stroke-width=".15"/><circle cx="556.74" cy="109.31" r="2.39" fill="#f1b517" stroke="#000" stroke-linecap="round" stroke-width=".15"/><circle cx="562.55" cy="109.31" r="2.39" fill="#f1b517" stroke="#000" stroke-linecap="round" stroke-width=".15"/><circle cx="548.07" cy="104.87" r="2.39" fill="#f1b517" stroke="#000" stroke-linecap="round" stroke-width=".15"/><circle cx="553.88" cy="104.87" r="2.39" fill="#f1b517" stroke="#000" stroke-linecap="round" stroke-width=".15"/><circle cx="559.7" cy="104.87" r="2.39" fill="#f1b517" stroke="#000" stroke-linecap="round" stroke-width=".15"/><path fill="#d20014" stroke="#000" stroke-width=".3" d="M535.73 13.09s-.18 1.88 1.41 3 3.47 2.35 4.22 5.54c.75 3.19.2 2.81.2 2.81l-4.98.85s.56-2.26-.66-4.04c-1.22-1.78-3-6.94-1.31-9z"/><path fill="#0a328c" stroke="#000" stroke-width=".15" d="M535.58 12.97c-.3.73-.82 2.45.34 3.68 1.5 1.6 2.91 2.35 3.47 4.5.34 1.3.56 2.63.7 3.54l1.46-.25s.56.38-.19-2.81-2.62-4.41-4.22-5.54c-1.6-1.12-1.4-3-1.4-3z"/><path fill="none" stroke="#000" stroke-width=".15" d="M534.98 12.15s-.93 2.16.1 4.32c1.03 2.15 2.06 3.19 2.63 4.6.56 1.4 0 2.71.65 3.75"/><path fill="#fff" stroke="#000" stroke-linecap="round" stroke-width=".15" d="M573.9 106.96a.2.2 0 1 0 .07.4s3.4-.54 5.92 2.03a.2.2 0 1 0 .29-.28c-2.68-2.72-6.28-2.15-6.28-2.15z" color="#000" font-family="sans-serif" font-weight="400" overflow="visible"/><path fill="#fff" stroke="#000" stroke-width=".15" d="M579.83 110.8s0 .53.43 1.04c.44.52 1.3 1 2.96 1.06l.02-.4c-1.6-.05-2.32-.5-2.67-.92-.35-.4-.34-.77-.34-.77z" color="#000" font-family="sans-serif" font-weight="400" overflow="visible"/><path fill="#f1b517" d="M584.63 114.8c.53-1.37 1.97-1.7 1.97-1.7s.1-.1-.32-1.11c-.43-1.01-.21-1.76-.21-1.76.16-5.37-.38-6.81-.38-6.81.38 0 2.08 2.02 2.08 2.02-.05-5.1-7.61-7.5-7.61-7.5 2.77 7.02 1.7 7.82 1.7 7.82 1.76-.74 1.97-1.91 1.97-1.91.32 1.91.05 5.64.05 5.64s.11 1.75-1.54.9c-.88-.45-5.16-2.53-5.16-2.53l-.4 1.46 5.72 2.67s1.33.58.96 1.6c-.37 1-.59 1.17-.59 1.17z"/><path d="m574.84 106.91.2.4.3.02a13.17 13.17 0 0 0-.2-.41 8.3 8.3 0 0 0-.3-.01zm1.01.08.14.42.3.06a12.51 12.51 0 0 0-.14-.43 8.17 8.17 0 0 0-.3-.05zm1.1.23.06.43.28.1-.06-.45-.28-.08zm1.09.4-.02.43.26.13a12.7 12.7 0 0 0 .02-.43l-.26-.14zm1 .55-.09.42.23.17.1-.42a7.1 7.1 0 0 0-.24-.17zm1.44 3.3-.2.4.2.2.18-.38-.1-.1a1.6 1.6 0 0 1-.08-.13zm.54.5-.05.43.25.12.05-.42a2.54 2.54 0 0 1-.25-.14zm.63.28.08.44a5 5 0 0 0 .28.07l-.07-.43a4.03 4.03 0 0 1-.29-.08zm.57.15.19.43.3.04-.18-.43-.31-.04z" color="#000" font-family="sans-serif" font-weight="400" overflow="visible"/><path fill="#0a328c" stroke="#000" stroke-width=".3" d="M560.74 38.89s-3-1.45-3.7-.23c-.7 1.21-.98 3.64 0 5.09 0 0 4.28.52 6.48-.23l.29-.18z"/><path fill="#d20014" stroke="#000" stroke-width=".15" d="M557.76 40.22a3 3 0 0 0-1.3.3 4.77 4.77 0 0 0 .58 3.23s3.79.46 6.07-.11c-1.1-.35-2.99-2.16-4.28-3.07a1.9 1.9 0 0 0-1.07-.35z"/><path fill="none" stroke="#000" stroke-width=".15" d="M556.46 42.65s1.45-.98 3.76.06c2.31 1.04 2.31.86 2.31.86"/><path fill="none" stroke="#000" stroke-width=".3" d="M560.74 38.89s-3-1.45-3.7-.23c-.7 1.21-.98 3.64 0 5.09 0 0 4.28.52 6.48-.23l.29-.18z"/><path fill="none" stroke="#000" stroke-width=".15" d="M561.6 43.8s.47 1.97.59 6.08c.11 4.1-.76 6.88-1.1 6.82"/><path fill="none" stroke="#000" stroke-width=".27" d="M563.75 43.23s1.73 1.73 1.96 5.66c.24 3.94.18 6.65.18 6.65s-2.84 1.68-5.5.99c0 0 .47-1.16.52-2.78.06-1.62-.05-10-.05-10"/><path fill="none" stroke="#000" stroke-width=".3" d="M537.9 24.95s1.39 5.73 1.56 8.39"/><g stroke="#000" stroke-width=".12"><path fill="#d20014" d="M522.28 69.16s1.58-1.7 1.68-2.43c.1-.72.07-1.92-.9-1.95-.98-.02-5.61-.8-7.01.33-1.4 1.12-1.66 1.7-1.38 2.27.28.58 1.43 1.5 2.38 1.46.95-.05 1.88.37 2.25.15.38-.23 2-2.16 2.43-.43l.05.58z"/><path fill="#f1b617" d="M517.8 75.64s.96-4.54 2.54-6.54c0 0 2-.53 2.74 0 .74.52-.1-.64.74.42.84 1.05.84 5.06.84 5.06l1.06.95c-2.74 1.26-7.91.1-7.91.1z"/><path d="M525.5 75.4c-2.53 1.37-7.7.32-7.7.32s-.84 2 0 1.69c.85-.32.43.74 1.27 0 .84-.74.84-.95.84-.95s4.86 0 5.8-.32z"/><path fill="none" d="M520.88 69.75s.34.09.77.13m-.8.44s.34.08.77.12m-.79.45s.33.08.77.1m-.79.47s.32.07.76.1m-.78.46s.31.07.76.1m-.78.47s.3.07.75.08m-.78.49s.3.06.76.07m-.78.5s.3.05.75.05m-.77.51s.29.06.75.05m-.77.52s.28.05.75.04m-.77.53s.27.04.74.03m1.05-5.47c.32-.05.61-.17.78-.42m-.83.97c.37-.06.72-.2.97-.47m-1.01 1.01c.4-.07.81-.21 1.14-.5m-1.18 1.05c.44-.08.9-.24 1.3-.56m-1.35 1.1a3.56 3.56 0 0 0 1.5-.6m-1.54 1.15c.52-.09 1.1-.28 1.66-.65m-1.7 1.2a5.15 5.15 0 0 0 1.83-.7m-1.88 1.25a6.01 6.01 0 0 0 2.02-.75m-2.06 1.3a6.92 6.92 0 0 0 2.19-.8m-2.24 1.34a7.87 7.87 0 0 0 2.37-.84M522 75.46a8.85 8.85 0 0 0 2.54-.9"/><path fill="#d20014" d="m520.55 67.36-1.67 1.6m.6-1.64-1.12 1.59m.03-1.62-.54 1.56m-.54-1.6.03 1.55m-1.11-1.58.6 1.52m-1.68-1.56 1.17 1.5m-.55-1.37.73 1.43"/></g><path fill="none" stroke="#000" stroke-width=".15" d="M527.16 13.2s1.41-1.93 5.59-.25"/></g><path fill="#fff" stroke="#000" stroke-width=".33" d="M453.63 111.75c-.6 2.24-1.8 7.92-1.8 7.92 11.97 5.55 45.73 5.8 48.87 5.82h.6c3.15-.01 37.92-.26 49.9-5.82 0 0-1.19-5.68-1.79-7.92 0 0-1.5 5.08-48.41 5.97-46.92-.9-47.37-5.97-47.37-5.97z" transform="matrix(.79646 0 0 .7753 100.07 273.8)"/><g stroke="#000"><path fill="#fff" stroke-width=".3" d="M455.74 112.4c-.6-1.58-5.58-1.46-9.47-.24-3.88 1.2-6.07.85-14.44.97s-13.1 2.06-13.84 2.3c-.73.25-13.35 6.44-18.2 8.01-4.86 1.58-9.47 0-9.47 0s5.58 5.47 13.47 1.1c0 0-6.55 3.64-10.8 4.12 0 0 6.34 1.33 11.7-.98.48-.21.95-.45 1.4-.72a93.76 93.76 0 0 1 9.05-3.96c15.36-5.71 21.33-2.07 31.86-4.78" transform="matrix(-.86366 0 0 .84072 924.56 265.06)"/><path fill="none" stroke-width=".3" d="M414.55 122.7c-4.93 1.67-7.31 3.2-10 4.21m9.4-5.13c-4.28 1.52-6.74 2.98-9.37 4m8.76-4.92c-3.63 1.37-6.16 2.76-8.71 3.78m8.1-4.7c-2.97 1.22-5.58 2.53-8.06 3.56m7.46-4.49a292.84 292.84 0 0 1-7.42 3.35" transform="matrix(-.86366 0 0 .84072 924.56 265.06)"/><path fill="none" stroke-width=".27" d="M420.34 120.26s6.9-2.08 12.25-1.43m-11.47.13s6.48-1.82 12.18-1.34m-11.4.04s6.06-1.57 12.12-1.24m-11.34-.07s5.64-1.3 12.06-1.14m-11.28-.16s5.22-1.04 12-1.04" transform="matrix(-.86366 0 0 .84072 924.56 265.06)"/><path fill="none" stroke-width=".3" d="M441.84 113.88s3.12-.76 6.25-1.22c2.67-.38 5.35-.55 6.13.17M441.25 115s3.64-.41 6.58-1.14m-7.16 2.24s4.16-.05 6.9-1.06m-7.49 2.17s4.7.3 7.23-.99m-7.82 2s5.22.58 7.57-.82" transform="matrix(-.86366 0 0 .84072 924.56 265.06)"/><path fill="#fff" stroke-width=".31" d="M455.71 112.17c-.72 1.4-4.85.6-7.5 1.47.64.57 2.46 1.55 7.58 2.53.85-3.19-.08-4-.08-4z" transform="matrix(-.86366 0 0 .84072 924.56 265.06)"/></g><g stroke="#000" stroke-width=".15"><path fill="#f1b517" stroke-linecap="round" d="M459.2 168.02h17.7v16.52h-17.7z" transform="matrix(.86366 0 0 .84072 95.74 195.34)"/><path fill="#d20014" stroke-linecap="round" d="M467.95 183.89c1.16 0 2.29-.06 3.32-.17m-3.32-.72c1.16 0 2.29-.06 3.32-.16m-3.32-.72c1.16 0 2.29-.06 3.32-.17m-3.32-.72c1.16 0 2.29-.06 3.32-.16m-3.32-.72c1.16 0 2.29-.06 3.32-.17m-3.32-.72c1.16 0 2.29-.06 3.32-.16m-3.32-.72c1.16 0 2.29-.06 3.32-.17m-3.32-.72c1.16 0 2.29-.06 3.32-.17m-3.32-.72c1.16 0 2.29-.05 3.32-.16m-3.32-.72c1.16 0 2.29-.06 3.32-.17m-3.32-.72c1.16 0 2.29-.06 3.32-.16m-3.32-.72c1.16 0 2.29-.06 3.32-.17m-3.32-.72c1.16 0 2.29-.06 3.32-.16m-3.32-.72c1.16 0 2.29-.06 3.32-.17m-3.32-.72c1.16 0 2.29-.06 3.32-.16" transform="matrix(.86366 0 0 .84072 95.74 195.34)"/><path fill="#fff" stroke-linecap="round" d="M476.78 182.35c-.67.38-1.6.71-2.72.98m2.72-1.88c-.67.39-1.6.72-2.72.98m2.72-1.87c-.67.38-1.6.71-2.72.98m2.72-1.88c-.67.38-1.6.72-2.72.98m2.72-1.87c-.67.38-1.6.71-2.72.98m2.72-1.88c-.67.38-1.6.72-2.72.98m2.72-1.87c-.67.38-1.6.71-2.72.98m2.72-1.88c-.67.39-1.6.72-2.72.98m2.72-1.87c-.67.38-1.6.72-2.72.98m2.72-1.88c-.67.39-1.6.72-2.72.98m2.72-1.87c-.67.38-1.6.72-2.72.98m2.72-1.88c-.67.39-1.6.72-2.72.98m2.72-1.87c-.67.38-1.6.72-2.72.98m2.72-1.88c-.67.39-1.6.72-2.72.98m2.72-1.87c-.67.38-1.6.72-2.72.98" transform="matrix(.86366 0 0 .84072 95.74 195.34)"/><path fill="none" stroke-linecap="round" d="M463.88 171.24a16.2 16.2 0 0 1-4.12-1.04m4.13 1.93c-1.67-.23-3.1-.59-4.13-1.04m4.13 1.93c-1.67-.22-3.1-.59-4.13-1.04m4.13 1.93c-1.67-.22-3.1-.58-4.13-1.04m4.13 1.93c-1.67-.22-3.1-.58-4.13-1.03m4.13 1.93a16.2 16.2 0 0 1-4.13-1.04m4.13 1.93a16.7 16.7 0 0 1-4.13-1.04m4.13 1.93c-1.67-.23-3.1-.59-4.13-1.04m4.13 1.93c-1.67-.23-3.1-.59-4.13-1.04m4.13 1.93a16.2 16.2 0 0 1-4.13-1.04m4.13 1.93c-1.67-.22-3.1-.59-4.13-1.04m4.13 1.93a16.2 16.2 0 0 1-4.13-1.04m4.13 1.93c-1.67-.22-3.1-.58-4.13-1.03m4.13 1.93a16.7 16.7 0 0 1-4.13-1.04m4.13 1.93a16.2 16.2 0 0 1-4.13-1.04" opacity=".98" transform="matrix(.86366 0 0 .84072 95.74 195.34)"/><path fill="#d20014" stroke-linecap="round" d="M467.95 163.1a9.07 2.36 0 0 0-9.07 2.37 9.07 2.36 0 0 0 .15.4v2.26a9.07 2.36 0 0 0-.15.4 9.07 2.36 0 0 0 .15.42v.43h.46a9.07 2.36 0 0 0 8.46 1.52 9.07 2.36 0 0 0 8.46-1.52h.56v-.6a9.07 2.36 0 0 0 .05-.25 9.07 2.36 0 0 0-.05-.22v-2.62a9.07 2.36 0 0 0 .05-.22 9.07 2.36 0 0 0-9.07-2.36zm0 1.6a9.07 2.36 0 0 1 .57.01 9.07 2.36 0 0 1 .46.01 9.07 2.36 0 0 1 .4.02 9.07 2.36 0 0 1 .5.02 9.07 2.36 0 0 1 .4.03 9.07 2.36 0 0 1 .45.03 9.07 2.36 0 0 1 .46.04 9.07 2.36 0 0 1 .38.04 9.07 2.36 0 0 1 .46.06 9.07 2.36 0 0 1 .35.05 9.07 2.36 0 0 1 .45.07 9.07 2.36 0 0 1 .31.05 9.07 2.36 0 0 1 .39.08 9.07 2.36 0 0 1 .24.05h-.01a9.07 2.36 0 0 1 2.72 1 9.07 2.36 0 0 1-8.53 1.57 9.07 2.36 0 0 1-8.52-1.56 9.07 2.36 0 0 1 6.76-1.52 9.07 2.36 0 0 1 .9-.03 9.07 2.36 0 0 1 .86-.01z" transform="matrix(.86366 0 0 .84072 95.74 195.34)"/><path fill="#fff" stroke-linecap="round" d="M467.95 164.7a9.07 2.36 0 0 0-8.52 1.57 9.07 2.36 0 0 0 8.52 1.56 9.07 2.36 0 0 0 8.53-1.56 9.07 2.36 0 0 0-8.53-1.56z" transform="matrix(.86366 0 0 .84072 95.74 195.34)"/><path fill="#fff" stroke-linecap="round" d="M467.75 163.11a9.07 2.36 0 0 0-.72.01v1.6a9.07 2.36 0 0 1 .73-.01zm4.97.35v1.6a9.07 2.36 0 0 1 .73.14v-1.6a9.07 2.36 0 0 0-.72-.14zm-10.06.1a9.07 2.36 0 0 0-.72.15v1.6a9.07 2.36 0 0 1 .72-.16zm11.03 3.74a9.07 2.36 0 0 1-.84.16v3.06a9.07 2.36 0 0 0 .84-.16zm-8.36.43v3.06a9.07 2.36 0 0 0 .85.06v-3.06a9.07 2.36 0 0 1-.85-.06z" transform="matrix(.86366 0 0 .84072 95.74 195.34)"/><path fill="#d20014" stroke-linecap="round" d="M476.97 182.93a9.72 2.36 0 0 1-1.35.57 9.07 2.36 0 0 1-7.67 1.11 9.07 2.36 0 0 1-7.65-1.1 9.72 2.36 0 0 1-1.27-.52v1.92a9.07 2.36 0 0 0-.15.4 9.07 2.36 0 0 0 .15.42v.43h.46a9.07 2.36 0 0 0 8.46 1.52 9.07 2.36 0 0 0 8.46-1.52h.56v-.6a9.07 2.36 0 0 0 .05-.25 9.07 2.36 0 0 0-.05-.22z" transform="matrix(.86366 0 0 .84072 95.74 195.34)"/><path fill="#d20014" d="M459.21 169.6v2.65l3.25 11.87a9.07 2.36 0 0 0 .76.14z" color="#000" font-family="sans-serif" font-weight="400" overflow="visible" transform="matrix(.86366 0 0 .84072 95.74 195.34)"/><path fill="#d20014" d="m465.36 170.8-2.86 13.33a9.07 2.36 0 0 0 .69.13l2.88-13.42a9.07 2.36 0 0 1-.7-.04zm8.08-.4a9.07 2.36 0 0 1-.76.14l-3.5 14.05a9.07 2.36 0 0 0 .72-.03z" color="#000" font-family="sans-serif" font-weight="400" overflow="visible" transform="matrix(.86366 0 0 .84072 95.74 195.34)"/><path fill="#d20014" d="m465.35 170.8 3.59 13.8a9.07 2.36 0 0 0 .71-.03l-3.56-13.73a9.07 2.36 0 0 1-.74-.05z" color="#000" font-family="sans-serif" font-weight="400" overflow="visible" transform="matrix(.86366 0 0 .84072 95.74 195.34)"/><path fill="#d20014" stroke-linecap="round" d="M473.64 170.37a9.07 2.36 0 0 1-.7.13l3.52 12.43.44-.13v-.88z" transform="matrix(.86366 0 0 .84072 95.74 195.34)"/><path fill="#fff" stroke-linecap="round" d="M476.96 182.94a9.72 2.36 0 0 1-.8.37v3a9.07 2.36 0 0 0 .25-.15h.55zm-14.6 1.17v3.06a9.07 2.36 0 0 0 .8.14v-3.06a9.07 2.36 0 0 1-.8-.14zm7.38.46a9.07 2.36 0 0 1-.8.03v3.06a9.07 2.36 0 0 0 .8-.03z" transform="matrix(.86366 0 0 .84072 95.74 195.34)"/></g><path fill="none" stroke="#000" stroke-width=".3" d="M494 4.62h1.56m-1.6-.9h1.57m-1.6-.89h1.56m-1.6-.9h1.56m-1.6-.88h1.56m-1.6-.9h1.56m-1.6-.9h1.56m-1.6-.88h1.57m-1.6-.9h1.56m-1.6-.89h1.56m-1.6-.9h1.56m-1.6-.89h1.56m-1.6-.89h1.56m-1.6-.89h1.56m-1.6-.9h1.56m-1.6-.89h1.56m-1.6-.89h1.57m-1.6-.9h1.56m-1.6-.88h1.56m-1.6-.9h1.56m-1.6-.89h1.56m-1.6-.9h1.56m-1.6-.89h1.56m-1.6-.89h1.56" transform="matrix(.86366 0 0 .84072 74.2 265.06)"/><g fill="#016a16" stroke="#000"><path stroke-width=".3" d="M852.88-341.34c-14.79-1.95-19.46-.51-20.14-.26-.68.26-10.2 2.9-13.93 9.18-3.74 6.29-.85 8.67-.85 8.67-.68-1.45 1.78-6.8 1.78-6.8-1.2 2.21.34 5.95.34 5.95-.51-1.1.6-4.42.6-4.42l.84 2.63c0-1.53.77-5.18.77-5.18.08 4.76 1.02 5.6 1.02 5.6-.85-1.18.6-8.49.6-8.49-.86 4.34.5 5.27.5 5.27 0-5.1 2.47-7.73 2.47-7.73-2.64 2.97-.77 7.3-.77 7.3.26-5 4.08-9 4.08-9-3.57 3.82-1.44 6.37-1.44 6.37.08-3.23 5.6-7.9 5.6-7.9-2.38 2.3-2.3 5.1-2.3 5.1.94-1.79 4.51-5.27 4.51-5.27-.85 1.19-1.61 4.33-1.61 4.33l1.1-.68 3.06-3.73-1.87 2.88 1.87-.85 2.13-1.95-.94 1.27 1.53-.42 1.53-1.78-.93 1.27h2.2l.94-.93-.43 1.02 1.62.08.5-.94-.08.94h.77l.68-1.36-.26 1.36s1.79 0 2.13.42c.34.43-10.88 3.49-10.88 3.49s2.47 0 2.64.68c.17.68-5.61 1.61-5.61 1.61l2.8 1.2-5.6.76 4.07.5-7.05 1.7h6.46l-6.8 1.36 4.33.6-5.69.85 5.44.5-5.86 2.47 3.14-.5c-6.2 5.94-4 10.19-4 10.19.43-1.87 3.24-6.2 3.24-6.2-.68 5.52.85 7.47.85 7.47.17-1.53 2.12-9.34 2.12-9.34.34 1.78.5 6.88.5 6.88 1.45-1.2.86-7.14.86-7.14l2.3 2.21c-1.11-1.87-.86-6.2-.86-6.2.68.76 1.53 3.74 1.53 3.74l.77-5.7c0 1.79 1.36 5.27 1.36 5.27l.5-5.95c.09 1.45 1.7 4.34 1.7 4.34v-6.46l1.1 2.89.18-4.5.5 5.27.94-1.11-.76-.09.34-.16.93-5.19 1.45 2.38.5-1.53-.33-2.46c.5.17 1.27 1.7 1.27 1.7v-3.15l1.36.6 2.04-2.98-1.27 2.38 1.95-1.19-2.3 1.79 1.45.6-3.23.33v.85l2.9.26c-4.09.68-4.17 1.87-4.17 1.87l3.9-.17c-3.05-.09-5.26 2.12-5.26 2.12l4.67-.17c-4.33.34-6.12 2.04-6.12 2.04l5.44.34c-2.72-.25-5.7 2.72-5.7 2.72l3.58.08c-3.32.34-4.08 2.21-4.08 2.21l2.89.09c-2.98 1.7-3.15 4.59-3.15 4.59l3.32-2.64c-3.49 3.06-2.3 5.61-2.3 5.61l2.13-2.46c-2.98 2.88-2.3 4.92-2.3 4.92l2.21-2.38c-1.1 7.23.43 7.4.43 7.4l.5-7.31c1.88.93 3.07 5.18 3.07 5.18l-1.62-6.71c1.79 1.28 2.3 3.9 2.3 3.9.68-3.05-2.13-7.04-2.13-7.04l3.49 4.42-2.64-6.72 3.06 4.6a10.85 10.85 0 0 0-2.38-7.06l3.74 3.23c-.17-1.36-2.12-4.93-2.12-4.93.76.6 2.2 2.38 2.2 2.38-.5-2.13-2.63-4.59-2.63-4.59 1.02.26 2.72 2.38 2.72 2.38 0-1.19-1.19-5.6-1.19-5.6l1.28 2.71-.51-4.42 1.1 1.7-.25-3.06.76.17.5-3.65-.25 3.74-.85-.34.26 2.97 2.63-2.89-1.53 5.19 2.64-2.47-2.13 4.5 3.06-3.56-2.3 5.86 2.47-2.12-2.3 4.24c1.28 0 3.83-2.8 3.83-2.8-1.27.76-3.14 5.44-3.14 5.44 1.61 0 2.72-2.9 2.72-2.9l-2.64 4.85c1.62-.5 3.4-3.57 3.4-3.57.34 1.7-2.8 7.22-2.8 7.22 1.02 0 2.63-1.35 2.63-1.35s.26-1.11-.85.93c-1.1 2.04-3.65 4.5-3.65 4.5 2.2.09 4.33-2.89 4.33-2.89.34 1.36-2.63 6.72-2.63 6.72 2.12-.17 3.9-6.12 3.9-6.12.69.76 1.11 7.65 1.28 6.8.17-.85.09-9.35.09-9.35.42.6 2.16 4.48 2.16 4.48.12-1.9-1.9-9.24-1.9-9.24l2.4 4.43-2.9-8.48 3.54 4.3-4.43-8.6 2.28 3.41c-.76-5.82-4.56-5.82-4.56-5.82 4.56-.64 4.94 5.06 4.94 5.06 1-.25.88-3.16.88-3.16l.25 1.39.76 4.81.51-4.18v5.2c0 .5 1.52-3.05 1.52-3.05.38.64.38 4.94.38 4.94l1.27-3.42c.76 2.03.25 5.45.25 5.45 1.27 0 1.65-3.04 1.65-3.04l1.52 4.43-.13-3.29c-.13-3.3-4.56-9.75-5.7-10.38-1.14-.64-5.57-2.03-5.57-2.03l-4.18-3.93 4.18 3.93c.5-.63-.5-3.8-.5-3.8l3.28 4.3c.76-1.51-.76-4.05-.76-4.05a98.92 98.92 0 0 1 3.93 5.32c.38-1.52-.76-4.94-.76-4.94.89.89 4.05 6.08 4.05 6.08-.12-.5-1.9-5.7-1.9-5.7 2.16 1.9 4.3 7.98 4.3 7.98.64-2.02-.88-7.34-.88-7.34l3.68 8.73c.38-1.77-.26-5.31-.26-5.31 1.14 1 3.04 5.57 3.04 5.57-.25-2.66-1.01-5.95-1.01-5.95l3.29 6.07-.63-4.05 2.02 4.43-1.01-3.92 2.79 3.92-2.28-4.17 3.29 3.29s-4.81-5.95-5.83-6.84c-1-.89-10-4.18-12.03-5.2-2.02-1-10.89-.5-10.89-.5l2.66-.13-.5-1.14.5 1.02h1.78l-1.02-1.02.76 1.14h3.04l-2.02-1.77c1 .5 2.02 1.65 2.02 1.65l1.52.12-1.01-2.15 1.52 2.4 2.53.51c-.38-1.14-1.9-2.9-1.9-2.9a21.94 21.94 0 0 1 2.28 3.03l2.15.76c0-1.14-1.77-3.67-1.77-3.67 1.52 1.26 2.79 3.92 2.79 3.92.12-1-.76-4.05-.76-4.05 1 .63 2.66 4.56 2.66 4.56.12-1.14-.13-4.56-.38-4.43.76.88 2.4 5.44 2.4 5.44v-4.43c.5 0 1.9 4.81 1.9 4.81.76-1.77-.13-5.44-.13-5.44a74.03 74.03 0 0 1 2.03 5.32l.25-1.78.38 3.3.38-2.79 1.14 3.04c-.12-1.77-1.52-6.59-1.52-6.59 1.02 1.02 3.68 6.97 3.68 6.97v-2.15l.76 3.42c1.14-3.42-1.27-7.22-1.27-7.22a17.3 17.3 0 0 1 2.4 5.82l.77-1.77c.76 1.27.76 4.56.76 4.56 1-3.55-1.02-6.71-1.02-6.71 2.16 1.64 3.42 8.36 3.42 8.36l.38-5.2a55.78 55.78 0 0 1 1.84 5.21c.29-2.2-.64-5.9-1.85-7.51-1.22-1.62-2.2-3.3-9.83-4.92-7.64-1.62-26.08-.23-26.08-.23l2.95-.63c1.9-1.5 6.3-.23 6.3-.23l1.1.05-.23-1.73c-.06-.46 2.08 1.5 2.08 1.5l.75.06v-2.2l3.12 2.37 1.16.18-2.02-2.72c1.15 1.1 4.62 2.48 4.62 2.48-.23-.98-2.83-3.06-2.83-3.06.87 0 4.45 3.24 4.45 3.24l-2.14-2.49 5.15 2.43a21.96 21.96 0 0 0-2.08-2.43c2.02 1.85 6.18 2.95 6.18 2.95l-4.91-3.93 6.13 4.8c-.99-3-4-5.67-4-5.67 1.51.23 7.23 5.9 7.23 5.9 0-2.26-2.14-4.92-2.14-4.92 1.5.52 5.32 5.73 5.32 5.73.18-1.39-2.02-5.03-2.02-5.03 1.16.58 4.28 5.09 4.28 5.09.7-2.6-2.26-4.92-2.26-4.92l5.92 3.25c-3.08-4.63-9.31-6.17-10.06-6.46-.74-.28-6.23-.28-10.97-.11-4.74.17-10.8 2.91-11.09 2.97a410 410 0 0 0-5.14 1.55l-1.32-.52 1.66.4 2.29-.63-2.29-1.43 2.97 1.15 1.55-.58-2.23-1.3 2.4 1.08 3.54-1.32-4.06-1.54 6.4.06-4.85-1.72 7.88 1.32c-.68-.86-2.91-1.6-2.91-1.6 1.6 0 5.26.85 5.26.85-.69-.8-3.83-2.23-3.83-2.23 1.71.35 6.29 1.72 6.29 1.72l-3.38-2.35 3.26 1.26c-.57-1.03-2.4-1.88-2.4-1.88.74 0 6.23 2.68 6.23 2.68-1.2-1.94-3.83-4.68-3.83-4.68l3.37 2.11-1.94-2.23 5.03 2.34c-1.72-2.4-5.54-3.77-6.69-3.94-1.14-.17-9.2.74-15.54 5.26-6.35 4.51-7.1 8.69-7.1 8.69s-6.5-14.1-17.88-14.94c0 0 1.79 1.7 5.27 2.46 0 0-3.82.85-4.76 2.21 0 0 4.25-.34 6.97.42 0 0-4.5.94-5.19 2.13 0 0 4.85-.51 7.4-.09 0 0-4.34.6-4.5 1.62 0 0 6.7 0 6.96 1.27 0 0-4.59-.17-5.78.6 0 0 6.04.85 7.23 1.7l-3.74.6s4.84 1.01 5.43 2.37c0 0-10.7-4.67-19.45-5.6-8.75-.94-11.39 1.35-12.92 2.63-1.53 1.27-5.01 4.59-4.42 7.3 0 0 1.87-3.65 6.38-6.54l-4.08 4.93 4.59-3.74s-2.8 3.82-2.8 5.1c0 0 4.33-7.05 6.2-8.33 0 0-3.15 4-3.06 5.53 0 0 6.03-5.95 6.62-5.87 0 0-4.58 4.17-4.5 6.89 0 0 5.27-5.61 6.88-6.12 0 0-3.99 2.3-3.23 4.25l4.34-4-2.64 4.25 1.28-.42s1.87-3.57 4.5-3.49l-3.48 3.32 1.78-.17s2.04-2.55 4.5-3.4c0 0-3.56 2.89-3.73 3.4l1.1.08s2.13-2.2 3.74-2.63l-1.53 2.46h.76l2.04-1.95-1.44 1.87 1.87.17 1.36-1.2-1.1 1.37h1.35l.85-.68-.08.85 2.2.08.6-1.19-.08 1.02z" transform="matrix(.86366 0 0 .84072 -239.03 532.41)"/><path d="m3187.5-1289.78-5.78 6.74-.64.18v.79s-22.48 8.34-39.18 22.8c-16.7 14.45-26.97 30.5-28.9 38.21-1.93 7.7-2.25 29.22-2.25 29.22s3.21-17.98 5.14-20.55c0 0 0 11.24 1.6 13.8 0 0 1.29-19.58 1.93-22.47.64-2.89.64 16.06 4.18 17.66 0 0-.97-20.23 1.6-26.65 0 0-.96 10.92.97 13.8 0 0 2.89-25.36 9.63-32.1 0 0-8.03 13.16-2.9 31.79l1.56-7.1-2.2.35 2.33-.98 2.17-9.94 3.22 7.68 1.3-.55.81-6.68-8.22-.77 9.85-1.47.1-3.33-4.81-.66 4.86-.97.14-4.16h-3.72l3.75-.9.1-3.6.43 3.47 5.27-1.28.73-3.48.72 3.13.43-.1.89-5.46-1.08-.13 1.12-.16.81-4.98.63 4.79 2.5-.34 1.37-7.02 1.6 6.42s4.18-13.8 7.39-15.41l.25 8.4 1.5-.28 6.92-11.98-.13 3.91 2.72-.75 2.87-6.69 1.92 5.14 3.22-3.86 1.52 2.71c12.17-3.5 27.52-8.15 26.74-9.13-1.29-1.6-8.03-1.6-8.03-1.6l.96-5.14-2.57 5.14h-2.89l.32-3.54-1.92 3.54-6.1-.32 1.6-3.86-3.53 3.53h-8.35zm-12.03 20.3-.17 5.39 2.22-5.2a38.66 38.66 0 0 0-2.05-.18zm-21.29 16.32.6 4.53.75-.19.8-4.07zm-9.49 8.02.47 3.9 3.53-.7.67-3.2zm.73 6.01.34 2.8 1.8-.26.46-2.18zm-2.93 5.39 1.02 4.33.13-4.22zm3.62.34.29 2.38.48-2.3zm-5.12 8.68-.23.03.18.42z" transform="matrix(.2285 0 0 .22244 -239.03 532.41)"/></g><path fill="#f1b517" stroke="#000" stroke-width=".33" d="m503-51.5-.81 11.13c.89 1.5 1.35 2.5 1.35 2.5s.16-.85.88-2.2l-.35-11a8.85 8.85 0 0 0-1.07-.43zm1.51 14.37-.4.09.41.11z" transform="matrix(.79646 0 0 .7753 100.07 273.8)"/><path fill="#fff" stroke="#000" stroke-width=".29" d="M602.72 231.4s3.53-2.44 5.54-.1l-.67 1.72-3.44.3z" transform="matrix(.86627 0 0 .69822 -49.34 161.59)"/><path fill="green" stroke="#000" stroke-width=".16" d="m605.25 226.1-.07 6.6.7.02.06-6.61z" color="#000" font-family="sans-serif" font-weight="400" overflow="visible" transform="matrix(.86627 0 0 .69822 -49.34 161.59)"/><path fill="green" stroke="#000" stroke-width=".27" d="M602.83 233.56s.7.36.56 1.64c-.14 1.28-.42 5.9 2.28 5.9 2.7 0 2.34-4.48 2.34-5.2s.21-2.05.21-2.05v-2.56s-2.7 2.41-5.4-.07z" transform="matrix(.86627 0 0 .69822 -49.34 161.59)"/><path fill="#fff" d="M474.9 325.38s-.2 1.11-.2 2.23c0 .56.05 1.12.2 1.56.08.22.18.41.33.57a.85.85 0 0 0 .12.09 2 2 0 0 0 .54-.07l-.01-.2c-.1 0-.17-.01-.25-.1a1.05 1.05 0 0 1-.23-.4 5.1 5.1 0 0 1-.17-1.45c0-1.08.18-2.17.18-2.17z" color="#000" font-family="sans-serif" font-weight="400" overflow="visible"/><path fill="#fff" stroke="#000" stroke-width=".57" d="M2298.69 881.55c-9.24 3.65-15.93 2.45-20.3.43v.78s1.28.64 1.9 2.61c8.55 5.02 15.24.95 18.49-1.95z" transform="matrix(.2292 0 0 .18474 -49.34 161.59)"/><path d="m467.71 363.84-.55-.1-.79 3.99 2.63.49.1-.48-2.08-.39zm2.18 1.85.42.07.24-1.42-.42-.07zm4.04-.88-.36 2.54q-.05.33-.17.52-.12.21-.3.31-.36.2-.77.13-.19-.02-.36-.1-.18-.08-.32-.23-.13-.14-.2-.37-.06-.23-.01-.55l.35-2.53-.56-.08-.37 2.69q-.1.58.24 1.05.32.48 1.14.6.86.1 1.33-.28.46-.38.55-1.01l.37-2.61zm3.72 3.7h-.01l-1.73-3.47-.66-.07-.44 4.04.55.05.35-3.26 1.77 3.48.63.06.43-4.04-.54-.05zm2.35-3.09-.56-.05-.36 4.05.56.05zm4.01 2.33q-.05.72-.47 1.16-.41.43-1.1.39-.68-.05-1.02-.54-.36-.49-.3-1.2.05-.74.47-1.17.41-.43 1.1-.39.68.06 1.03.54.34.48.3 1.21zm.58.04q.03-.34-.04-.71-.08-.38-.28-.72-.21-.34-.58-.57-.4-.22-.97-.27-.29-.02-.53.01-.25.04-.45.12-.4.18-.67.5-.25.3-.38.66-.13.36-.15.7-.03.33.05.7.07.38.28.72.21.34.59.57.37.24.95.28.3.02.54-.02.25-.04.45-.12.4-.18.66-.49t.39-.67q.12-.36.14-.69zm3.32 1.42-1.92-3.38-.66-.03-.22 4.05.54.03.18-3.28h.01l1.95 3.39.63.03.22-4.05-.55-.03zm3.7-.91 2.04.06.01-.49-2.04-.06.04-1.24 2.32.07.02-.48-2.89-.1-.13 4.06.56.02zm4.8.78.38 1.19.61.01-1.42-4.09h-.64l-1.65 4.02.58.01.46-1.17zm-1.5-.52.7-1.77h.02l.58 1.8zm3.72-2.33h-.56l-.03 4.05h.56zm.4.49 1.41-.02.05 3.58.56-.01-.04-3.57 1.4-.02v-.49l-3.38.04zm6.05-.6-.56.02.13 4.06 2.67-.08-.01-.49-2.12.06zm5.08 2.7.46 1.16.62-.03-1.7-3.99-.63.03-1.39 4.12.58-.02.38-1.2zm-1.52-.42.58-1.82h.02l.7 1.76zm5.23-.44 2.04-.13-.03-.48-2.04.12-.08-1.24 2.32-.14-.03-.49-2.89.18.27 4.06.56-.04zm6.14-.63q.05.72-.29 1.2-.34.5-1.02.56-.69.05-1.1-.38-.43-.43-.49-1.15-.06-.73.29-1.21.33-.49 1.02-.55.68-.05 1.1.38.42.42.49 1.15zm.57-.05q-.03-.34-.15-.7-.13-.36-.4-.66-.25-.31-.66-.48-.42-.17-1-.12-.28.02-.52.09-.24.07-.42.18-.38.24-.58.59-.2.33-.27.71-.08.38-.05.72.03.33.17.68.13.36.38.67.27.3.68.48.4.18.98.14.3-.03.53-.11.24-.07.43-.19.37-.23.58-.58.2-.34.27-.72.06-.37.03-.7zm1.28.16 1.35-.14q.25-.03.41.02.16.04.24.14.09.1.13.22l.04.26.08.46.06.3.08.24.68-.07v-.09q-.14-.06-.19-.14-.05-.08-.07-.24l-.12-.73q-.03-.2-.08-.34-.06-.13-.14-.2-.08-.08-.17-.11l-.19-.06q.1-.06.2-.16.08-.08.16-.2.07-.12.1-.28.03-.16.01-.38-.08-.63-.52-.82-.43-.19-.96-.12l-1.92.2.45 4.04.56-.06zm-.2-1.83 1.39-.15q.23-.03.49.05.12.05.21.17.1.13.12.37.03.22-.03.36-.06.15-.17.24-.11.09-.26.12-.14.05-.3.07l-1.3.14zm6.96-.1q-.13-.53-.61-.85-.48-.34-1.28-.24-.9.14-1.32.78-.43.64-.3 1.59.18 1.14.82 1.56.62.42 1.35.32.13-.02.38-.1.26-.07.53-.26.27-.2.46-.55.2-.36.2-.93l-.53.07q-.02.36-.12.6-.1.23-.27.37-.16.14-.32.21-.17.07-.31.1-.75.1-1.14-.35-.37-.42-.47-1.14-.11-.8.22-1.26.32-.45.9-.53.15-.02.33-.02.18 0 .36.07t.33.22q.16.15.25.4zm4.12 1.64-2.47.46-.27-1.34 2.25-.41-.1-.48-2.24.42-.24-1.22 2.43-.46-.1-.47-2.98.55.79 3.99 3.02-.56z" font-family="Helvetica" font-size="6.73" font-weight="400" letter-spacing="0" word-spacing="0"/></svg>