<svg viewBox="0 0 600 300" xmlns="http://www.w3.org/2000/svg" xmlns:xlink="http://www.w3.org/1999/xlink"><clipPath id="c"><path d="M0 0v75h350v75h-50zm300 0H150v200H0v-50z"/></clipPath><clipPath id="b"><path d="M0 0h300v150H0z"/></clipPath><path d="M0 0h600v300H0z" fill="#fff"/><path id="a" d="M600 260.88c-6.72 4.04-12.5 13.5-30.36 13.5-35.71 0-44.64-19.9-71.43-19.9-17.85 0-26.78 19.9-44.64 19.9-35.71 0-44.64-19.9-71.43-19.9-17.85 0-26.78 19.9-44.64 19.9-35.71 0-44.64-19.9-71.43-19.9-17.86 0-26.78 19.9-44.64 19.9-35.72 0-44.64-19.9-71.43-19.9-17.86 0-26.79 19.9-44.64 19.9-35.72 0-44.65-19.9-71.43-19.9-17.86 0-23.22 14.18-33.93 14.18v25.62c10.71 0 16.07-14.18 33.93-14.18 26.78 0 35.71 19.9 71.43 19.9 17.85 0 26.78-19.9 44.64-19.9 26.78 0 35.71 19.9 71.43 19.9 17.86 0 26.78-19.9 44.64-19.9 26.79 0 35.72 19.9 71.43 19.9 17.86 0 26.79-19.9 44.64-19.9 26.79 0 35.72 19.9 71.43 19.9 17.86 0 26.79-19.9 44.64-19.9 26.79 0 35.72 19.9 71.43 19.9 17.86 0 23.64-5.64 30.36-9.68z" fill="#012169"/><use transform="translate(0 -49.75)" xlink:href="#a"/><use transform="translate(0 -99.5)" xlink:href="#a"/><use transform="translate(0 -149.26)" xlink:href="#a"/><use transform="translate(0 -199.01)" xlink:href="#a"/><use transform="translate(0 -248.77)" xlink:href="#a"/><path d="M0 0h290v152H0z" fill="#fff"/><g clip-path="url(#b)"><path d="M0 0h300v150H0z" fill="#012169"/><path d="m0 0 300 150m0-150L0 150" stroke="#fff" stroke-width="30"/><path d="m0 0 300 150m0-150L0 150" clip-path="url(#c)" stroke="#c8102e" stroke-width="20"/><path d="M150 0v200M0 75h350" stroke="#fff" stroke-width="50"/><path d="M150 0v200M0 75h350" stroke="#c8102e" stroke-width="30"/></g><path d="m446.52 79.22-2.07 204.16c-.28 11.59 10.35 11.63 10.35 0l-2.07-204.16z" fill="#a24300" stroke="#000" stroke-width=".75"/><g transform="matrix(.43857 0 0 .37683 122.2 25.06)"><g transform="matrix(-.31451 .10485 -.13829 -.30324 1046.5 373.32)"><g id="d" fill="none" stroke="#000"><path d="m673.23 325.16 17.72 70.87 35.43-53.15-17.72 88.58 35.44-35.43-35.44 88.58 35.44-35.43-35.44 88.58 35.44-35.43-35.44 106.3 35.44-35.44-35.44 106.3 35.44-35.43-35.44 106.3-17.71 53.15-17.72 17.72-17.72-17.72-17.71-53.15-35.44-106.3 35.44 35.43-35.44-106.3 35.44 35.43-35.44-106.3 35.44 35.44-35.44-88.58 35.44 35.43-35.44-88.58 35.44 35.43-17.72-88.58 35.43 53.15z" fill="#006d00" stroke-width="4.45"/><path transform="translate(177.17 -224.05)" d="M496.06 549.21v496.07M425.2 868.11l70.87 106.3 70.86-106.3"/><path transform="translate(177.17 -224.05)" d="m425.2 797.24 70.87 106.3 70.86-106.3"/><path transform="translate(177.17 -224.05)" d="m425.2 726.38 70.87 106.3 70.86-106.3"/><path transform="translate(177.17 -224.05)" d="m425.2 673.23 70.87 88.58 70.86-88.58"/><path transform="translate(177.17 -224.05)" d="m425.2 620.08 70.87 88.58 70.86-88.58"/><path transform="translate(177.17 -224.05)" d="m442.91 566.93 53.15 106.3 53.15-106.3"/></g></g><use transform="matrix(.23652 -.28186 .29496 .22762 354.57 204.65)" xlink:href="#d"/><use transform="matrix(.15164 .33524 -.3329 .16731 907.54 -153.47)" xlink:href="#d"/><use transform="matrix(-.20952 .30246 -.3147 -.19945 1141.4 167.58)" xlink:href="#d"/><use transform="matrix(-.20772 -.25838 .23618 -.23515 689.99 567.28)" xlink:href="#d"/><g transform="matrix(-.36218 -.09947 -.20981 .31773 1222.4 -24.23)"><g id="e" fill="none" stroke="#000"><path d="m744.09 425.19 28.64 70.87 42.23-53.15-10.19 88.58 27.9-35.43-17.71 88.58 25.24-35.43-25.24 88.58 35.43-35.43-35.43 106.3 35.43-35.44-35.43 106.3 35.43-35.43-35.43 106.3-17.72 53.15-17.72 17.72-17.71-17.72-17.72-53.15-35.43-106.3 35.43 35.43-35.43-106.3 35.43 35.43-35.43-106.3 35.43 35.44-45.62-88.58 45.62 35.43-53.15-88.58 42.97 35.43-25.25-88.58 35.43 53.15z" fill="#006d00" stroke-width="3.34"/><path transform="translate(283.46 -124.02)" d="m467.21 584.65 28.86 124.02v336.62"/><path transform="translate(283.46 -124.02)" d="m436.23 885.83 59.83 88.58 60.68-88.58"/><path transform="translate(283.46 -124.02)" d="m434.53 814.96 61.53 88.58 60.68-88.58"/><path transform="translate(283.46 -124.02)" d="m435.38 744.1 60.68 88.58 59.84-88.58"/><path transform="translate(283.46 -124.02)" d="m432.84 690.94 63.23 70.87 53.15-70.87"/><path transform="translate(283.46 -124.02)" d="m425.2 637.8 70.87 70.86 45.4-70.86"/><path transform="translate(283.46 -124.02)" d="m436.12 593.24 53.15 86.89 35.33-95.48"/></g></g><use transform="matrix(.36088 .10411 .01321 .38052 452.76 -239.27)" xlink:href="#e"/><g fill="none" stroke="#000"><path d="m354.33 531.5 88.58 88.58 17.72-53.15v88.59l35.43-35.44-17.71 88.59 35.43-35.44-17.72 88.59 35.44-35.44-17.72 106.3 35.43-35.43-35.43 106.3 35.43-35.43-17.72 106.3-17.71 53.15-17.72 17.72-17.71-17.72-17.72-53.15-53.15-82.3 35.43 11.43-35.43-106.3 35.43 35.44-53.15-106.3 35.44 35.43-53.15-88.59 53.15 35.44-70.87-88.58 53.15 35.43-70.87-70.87 70.87 35.44z" fill="#006d00" stroke-width="3.52" transform="matrix(.04613 -.36474 .32602 .0648 386 315.21)"/><path d="m378.96 560.02 63.95 95.5 17.72 53.15 8.86 45.2 8.85 78.81 9.32 70.87 8.4 141.74" transform="matrix(.04613 -.36474 .32602 .0648 386 315.21)"/><path d="m425.2 903.54 63.66 70.87 50.75-88.59" transform="matrix(.04613 -.36474 .32602 .0648 386 315.21)"/><path d="m417.08 814.96 70.58 88.58 50.75-88.58" transform="matrix(.04613 -.36474 .32602 .0648 386 315.21)"/><path d="m407.48 752.44 70.87 80.23 45.95-88.58M372.05 637.8l88.58 70.87 25.83-70.87" transform="matrix(.04613 -.36474 .32602 .0648 386 315.21)"/><path d="m360.62 602.36 82.3 53.15 10.51-53.15m-63.67 88.58 81.1 70.87 33.94-70.87" transform="matrix(.04613 -.36474 .32602 .0648 386 315.21)"/></g></g><path d="M451.75 194.52h28.45s1.87-4.25 2.08-6.13a11.1 11.1 0 0 0-.28-5.07 10.65 10.65 0 0 0-2.68-5.08 10 10 0 0 0-4.9-2.67c-1.65-.4-3.5-.58-4.94-.26-2.74.6-4.51 1.57-7.49 2.58a20.8 20.8 0 0 1-5.95 1.1c-1.32.09-2.85-.27-4.29-.6zm-4.24 0h-28.45s-1.87-4.25-2.08-6.13a11.1 11.1 0 0 1 .28-5.07 10.65 10.65 0 0 1 2.68-5.08 10 10 0 0 1 4.9-2.67c1.65-.4 3.5-.58 4.94-.26 2.74.6 4.51 1.57 7.48 2.58 2.15.73 3.79.98 5.95 1.1 1.33.09 2.86-.27 4.3-.6z" color="#000" fill="#fff" opacity=".99"/><path d="M445.74 220.31c-4.03.05-8.06.14-12.06.41-2.95.24-6.32.51-9.19.96l-.73.14c-1.8.37-2.06 2.7-1.11 3.96 1.94 2.62 13.4 4.65 26.96 4.65 13.54 0 25.01-2.03 26.95-4.65.95-1.26.7-3.59-1.11-3.96l-.73-.14c-2.86-.45-6.24-.72-9.2-.96-3.99-.27-8.02-.36-12.05-.4h-3.86z" fill="#fff"/><path d="M452.32 222.8a28.86 28.86 0 0 1-4.97-1.34c.21.36.51.72 1.24.99a4.42 4.42 0 0 0-1.65.36 5 5 0 0 0 1.68.34c-.71.27-.98.63-1.14 1a25.3 25.3 0 0 1 4.84-1.34zm-10.57.06a24.94 24.94 0 0 1-4.98-1.2c.2.36.5.7 1.25.96-.6 0-1.36.27-1.63.4.29.13 1.1.33 1.68.3-.7.29-.97.67-1.12 1.02a24.61 24.61 0 0 1 4.8-1.48zm-10.43.54a27.8 27.8 0 0 1-5.06-.81c.22.34.55.66 1.32.85a4.8 4.8 0 0 0-1.6.53c.3.09 1.1.24 1.7.17-.7.34-.93.74-1.06 1.11a23.18 23.18 0 0 1 4.7-1.84zm31.52-.37a28.94 28.94 0 0 0-5 1.21c.21-.35.51-.71 1.26-.95a4.86 4.86 0 0 1-1.64-.41 5.1 5.1 0 0 1 1.69-.31c-.7-.3-.97-.65-1.11-1.03a21.1 21.1 0 0 0 4.8 1.49zm10.44.94a27.61 27.61 0 0 0-5.07.82 2.1 2.1 0 0 1 1.34-.85 4.77 4.77 0 0 1-1.62-.53c.3-.1 1.11-.26 1.71-.17-.68-.35-.93-.74-1.06-1.11a28.15 28.15 0 0 0 4.7 1.84z"/><path d="M449.63 225.27c-16.15 0-25.94 1-25.13 1.78 5.66 2.54 16.82 3.36 25.13 3.38 8.3-.02 19.46-.84 25.13-3.38.8-.77-8.99-1.78-25.13-1.78z" fill="#ccc"/><path d="M1143.5 822.71c.32-.85-1.1-1.1-2.59-1.28a344.11 344.11 0 0 0-17.9-1.66 523.2 523.2 0 0 0-26.93-.85h-17.26c-9 .1-18 .28-26.94.85-5.7.42-12.12.92-17.9 1.66-1.48.18-2.9.43-2.58 1.28" fill="none" stroke="#000" stroke-width=".62" transform="matrix(.44777 0 0 .48232 -37.32 -169.71)"/><path d="M1078.8 808.64c-9 .1-18 .28-26.93.85-6.6.5-14.11 1.06-20.52 1.99l-1.64.28c-4.04.78-4.6 5.6-2.48 8.22 4.33 5.42 29.95 9.64 60.22 9.64 30.23 0 55.85-4.22 60.18-9.64 2.12-2.62 1.56-7.44-2.48-8.22l-1.63-.28c-6.38-.93-13.93-1.5-20.52-1.99-8.93-.57-17.94-.74-26.94-.85h-8.61z" fill="none" stroke="#000" stroke-width=".62" transform="matrix(.44777 0 0 .48232 -37.32 -169.71)"/><g stroke-width="2.42"><path d="m471.4 216.48 1.95-6.14.79-2.54 1.95-1.3 1.98-4.85.93-1.27.15-4.46s-1.37-3.17-3.48-4.3c-3.03-1.63-7.14-1.4-7.14-1.4s-.95-2.71-2.69-3.76c-1.74-1.06-3.67-1.3-5.7-1.3s-5.67 1.95-7.64 2.52c-1.02.3-3.33 1.3-3.33 1.3s-2.31-1-3.34-1.3c-1.96-.57-5.6-2.53-7.63-2.53-2.03 0-3.9.22-5.7 1.3-1.68 1.02-3.98 3.76-3.98 3.76s-2.64-.38-4.5.82c-2.3 1.5-3.93 4.64-3.93 4.64l.16 4.88.36 1.86 1.5 1.85 1.94 3.74 1.4 3.68 1.49 4.8z" fill="#c8102e" fill-rule="evenodd"/><path d="m1219.6 702.3 17.56-48.6 7.09-20.12 17.57-10.35 17.8-38.35 8.39-10.03 1.3-35.33s-12.3-25.06-31.34-34.06c-27.22-12.87-64.17-11.1-64.17-11.1s-8.54-21.4-24.2-29.72c-15.65-8.33-33.04-10.33-51.29-10.33s-51 15.46-68.7 20c-9.2 2.37-30 10.34-30 10.34s-20.8-7.97-30-10.34c-17.7-4.54-50.45-20-68.7-20s-35.06 1.7-51.29 10.33c-15.09 8.02-35.8 29.72-35.8 29.72s-23.72-3.05-40.38 6.45C772.66 512.66 758 537.6 758 537.6l1.43 38.6 3.28 14.76 13.43 14.63 17.5 29.54 12.55 29.15 13.42 38.03z" fill="none" stroke="#000" transform="matrix(.11116 0 0 .12634 335.83 127.75)"/></g><g stroke-width="1.18"><g color="#000"><path d="M473.9 173.8c2.12.51 4.37 1.51 6.14 3.4a13.9 13.9 0 0 1 3.36 6.32c.58 2.34.6 3.74.34 6.07-.34 3-2.05 6.02-2.05 6.02l-2.96-.56s1.78-4.05 1.98-5.84c.24-2.16.24-2.85-.26-4.83a10.14 10.14 0 0 0-2.55-4.84 9.53 9.53 0 0 0-4.68-2.54 10.92 10.92 0 0 0-4.7-.25c-2.6.58-4.3 1.5-7.12 2.46-2.05.69-3.6.93-5.67 1.05-1.26.08-2.72-.26-4.1-.57s-2.5-.64-2.5-.64l.76-3.18s1.1.3 2.39.6 2.9.54 3.27.52c1.95-.12 3.1-.3 4.92-.92 2.62-.89 4.48-1.88 7.44-2.54 1.99-.45 4.03-.2 6 .27z" fill="#fed100"/><path d="M358.41 213.62c-9.02 2-18.59 5.97-26.13 13.44-6.98 6.92-11.63 15.08-14.3 25-2.51 9.28-2.59 14.8-1.48 24.04 1.44 11.9 8.75 23.83 8.75 23.83l12.62-2.25s-7.6-16.01-8.46-23.1c-1.03-8.53-1-11.26 1.13-19.12 2.2-8.13 5.38-13.72 10.87-19.15 5.18-5.13 12.47-8.3 19.94-10.03 6.66-1.55 14.19-2.2 20.03-1 11.1 2.28 18.3 5.9 30.37 9.72 8.7 2.74 15.36 3.68 24.16 4.18 5.38.3 11.6-1.03 17.44-2.28s10.72-2.53 10.72-2.53l-3.28-12.6s-4.67 1.24-10.16 2.41-12.36 2.13-13.97 2.03c-8.3-.47-13.17-1.16-20.97-3.62-11.17-3.53-19.07-7.43-31.69-10.06-8.5-1.78-17.21-.77-25.59 1.1z" fill="none" stroke="#000" transform="matrix(-.23459 0 0 .25269 557.99 119.83)"/></g><g stroke-width="1.77" fill="#fff" stroke="#000"><path transform="matrix(-.15612 0 0 .16816 903.66 60.07)" d="M2700.2 785.03a10.49 10.66 0 1 1-20.98 0 10.49 10.66 0 1 1 20.98 0z"/><path transform="matrix(-.15612 0 0 .16816 904.45 55.85)" d="M2700.2 785.03a10.49 10.66 0 1 1-20.98 0 10.49 10.66 0 1 1 20.98 0z"/><path transform="matrix(-.15612 0 0 .16816 904.21 51.36)" d="M2700.2 785.03a10.49 10.66 0 1 1-20.98 0 10.49 10.66 0 1 1 20.98 0z"/><path transform="matrix(-.15612 0 0 .16816 902.61 47.11)" d="M2700.2 785.03a10.49 10.66 0 1 1-20.98 0 10.49 10.66 0 1 1 20.98 0z"/><path transform="matrix(-.15612 0 0 .16816 899.62 43.77)" d="M2700.2 785.03a10.49 10.66 0 1 1-20.98 0 10.49 10.66 0 1 1 20.98 0z"/><path transform="matrix(-.15612 0 0 .16816 895.89 41.6)" d="M2700.2 785.03a10.49 10.66 0 1 1-20.98 0 10.49 10.66 0 1 1 20.98 0z"/><path transform="matrix(-.15612 0 0 .16816 891.62 40.44)" d="M2700.2 785.03a10.49 10.66 0 1 1-20.98 0 10.49 10.66 0 1 1 20.98 0z"/><path transform="matrix(-.15612 0 0 .16816 887.25 40.67)" d="M2700.2 785.03a10.49 10.66 0 1 1-20.98 0 10.49 10.66 0 1 1 20.98 0z"/><path transform="matrix(-.15612 0 0 .16816 875.4 44)" d="M2700.2 785.03a10.49 10.66 0 1 1-20.98 0 10.49 10.66 0 1 1 20.98 0z"/><path transform="matrix(-.15612 0 0 .16816 883.09 41.93)" d="M2700.2 785.03a10.49 10.66 0 1 1-20.98 0 10.49 10.66 0 1 1 20.98 0z"/><path transform="matrix(-.15612 0 0 .16816 879.25 43.2)" d="M2700.2 785.03a10.49 10.66 0 1 1-20.98 0 10.49 10.66 0 1 1 20.98 0z"/></g><g color="#000"><path d="M425.33 173.8a12.18 12.18 0 0 0-6.13 3.4 13.9 13.9 0 0 0-3.35 6.32c-.6 2.34-.61 3.74-.35 6.07.34 3 2.05 6.02 2.05 6.02l2.96-.56s-1.78-4.05-1.98-5.84c-.24-2.16-.24-2.85.26-4.83a10.14 10.14 0 0 1 2.55-4.84 9.53 9.53 0 0 1 4.68-2.54c1.56-.39 3.33-.55 4.7-.25 2.6.58 4.3 1.5 7.13 2.46 2.04.69 3.6.93 5.66 1.05 1.26.08 2.72-.26 4.1-.57s2.5-.64 2.5-.64l-.76-3.18s-1.1.3-2.39.6-2.9.54-3.27.52a16.3 16.3 0 0 1-4.92-.92c-2.62-.89-4.48-1.88-7.43-2.54-2-.45-4.04-.2-6 .27z" fill="#fed100"/><path d="M358.41 213.62c-9.02 2-18.59 5.97-26.13 13.44-6.98 6.92-11.63 15.08-14.3 25-2.51 9.28-2.59 14.8-1.48 24.04 1.44 11.9 8.75 23.83 8.75 23.83l12.62-2.25s-7.6-16.01-8.46-23.1c-1.03-8.53-1-11.26 1.13-19.12 2.2-8.13 5.38-13.72 10.87-19.15 5.18-5.13 12.47-8.3 19.94-10.03 6.66-1.55 14.19-2.2 20.03-1 11.1 2.28 18.3 5.9 30.37 9.72 8.7 2.74 15.36 3.68 24.16 4.18 5.38.3 11.6-1.03 17.44-2.28s10.72-2.53 10.72-2.53l-3.28-12.6s-4.67 1.24-10.16 2.41-12.36 2.13-13.97 2.03c-8.3-.47-13.17-1.16-20.97-3.62-11.17-3.53-19.07-7.43-31.69-10.06-8.5-1.78-17.21-.77-25.59 1.1z" fill="none" stroke="#000" transform="matrix(.23459 0 0 .25269 341.25 119.83)"/></g><g stroke-width="1.77" fill="#fff" stroke="#000"><path transform="matrix(.15612 0 0 .16816 -4.42 60.07)" d="M2700.2 785.03a10.49 10.66 0 1 1-20.98 0 10.49 10.66 0 1 1 20.98 0z"/><path transform="matrix(.15612 0 0 .16816 -5.2 55.85)" d="M2700.2 785.03a10.49 10.66 0 1 1-20.98 0 10.49 10.66 0 1 1 20.98 0z"/><path transform="matrix(.15612 0 0 .16816 -4.97 51.36)" d="M2700.2 785.03a10.49 10.66 0 1 1-20.98 0 10.49 10.66 0 1 1 20.98 0z"/><path transform="matrix(.15612 0 0 .16816 -3.37 47.11)" d="M2700.2 785.03a10.49 10.66 0 1 1-20.98 0 10.49 10.66 0 1 1 20.98 0z"/><path transform="matrix(.15612 0 0 .16816 -.38 43.77)" d="M2700.2 785.03a10.49 10.66 0 1 1-20.98 0 10.49 10.66 0 1 1 20.98 0z"/><path transform="matrix(.15612 0 0 .16816 3.35 41.6)" d="M2700.2 785.03a10.49 10.66 0 1 1-20.98 0 10.49 10.66 0 1 1 20.98 0z"/><path transform="matrix(.15612 0 0 .16816 7.62 40.44)" d="M2700.2 785.03a10.49 10.66 0 1 1-20.98 0 10.49 10.66 0 1 1 20.98 0z"/><path transform="matrix(.15612 0 0 .16816 12 40.67)" d="M2700.2 785.03a10.49 10.66 0 1 1-20.98 0 10.49 10.66 0 1 1 20.98 0z"/><path transform="matrix(.15612 0 0 .16816 23.84 44)" d="M2700.2 785.03a10.49 10.66 0 1 1-20.98 0 10.49 10.66 0 1 1 20.98 0z"/><path transform="matrix(.15612 0 0 .16816 16.15 41.93)" d="M2700.2 785.03a10.49 10.66 0 1 1-20.98 0 10.49 10.66 0 1 1 20.98 0z"/><path transform="matrix(.15612 0 0 .16816 20 43.2)" d="M2700.2 785.03a10.49 10.66 0 1 1-20.98 0 10.49 10.66 0 1 1 20.98 0z"/></g><path d="M185.96 37.05c1.57-1.99 3.44-3.46 4.96-5.48 1.6-2.12 2.8-4.8 3.43-7.5a21.4 21.4 0 0 0-7.57 3.5c-2.01 1.52-3.49 3.39-5.47 4.96V7.12c1.98 1.56 3.46 3.43 5.47 4.95a21.4 21.4 0 0 0 7.57 3.5 20.39 20.39 0 0 0-3.43-7.5c-1.52-2.02-3.4-3.5-4.96-5.47h28.15c-1.57 1.98-3.44 3.45-4.95 5.47a20.39 20.39 0 0 0-3.44 7.5 21.4 21.4 0 0 0 7.57-3.5c2.02-1.51 3.49-3.39 5.47-4.95v25.4c-1.98-1.56-3.45-3.43-5.47-4.95a21.4 21.4 0 0 0-7.57-3.5 20.4 20.4 0 0 0 3.44 7.5c1.51 2.02 3.38 3.5 4.95 5.48z" fill="#fed100" stroke="#000" transform="matrix(.28385 0 0 .30575 392.84 156.53)" stroke-width=".97"/><path transform="matrix(.1889 0 0 .20348 -58.47 2.87)" d="M2700.2 785.03a10.49 10.66 0 1 1-20.98 0 10.49 10.66 0 1 1 20.98 0z" fill="#fff" stroke="#000" stroke-width="1.46"/><g stroke-width=".67"><path d="M454.17 172.73a4.5 4.84 0 1 1-9 0 4.5 4.84 0 1 1 9 0z" fill="#fed100"/><path transform="matrix(.42877 0 0 .4544 -703.6 -183.98)" d="M2700.2 785.03a10.49 10.66 0 1 1-20.98 0 10.49 10.66 0 1 1 20.98 0z" fill="none" stroke="#000" stroke-width=".65"/></g><g stroke-width="1.25"><path d="M448.66 167.51v4.07h-3.78v2.07h9.48v-2.07h-3.79v-4.07z" fill="#fed100"/><path d="M195.84 28.44V45.5h-17.06v8.69h42.81v-8.7h-17.1V28.45z" fill="none" stroke="#000" transform="matrix(.22124 0 0 .23831 405.33 160.73)"/></g><g transform="matrix(.23459 0 0 .25269 403.88 167.74)"><rect x="182.33" y="34.93" width="25.32" height="71.72" ry="6.39" fill="#fed100" fill-rule="evenodd"/><rect x="182.33" y="34.93" width="25.32" height="71.72" ry="6.39" fill="none" stroke="#000"/></g><g stroke-width="1.15"><g transform="matrix(.26907 0 0 .22912 385.93 -39.1)"><rect x="221.33" y="941.22" width="7.04" height="79.26" ry="3.8" fill="#fed100" fill-rule="evenodd"/><path d="M224.85 941.22c1.95 0 3.52 1.7 3.52 3.8v71.66c0 2.1-1.57 3.8-3.52 3.8s-3.52-1.7-3.52-3.8v-71.66c0-2.1 1.57-3.8 3.52-3.8z" fill="none" stroke="#000"/></g><g transform="matrix(.26907 0 0 .22912 387.16 -39.1)"><rect x="240.49" y="941.22" width="7.04" height="79.26" ry="3.8" fill="#fed100" fill-rule="evenodd"/><rect x="240.49" y="941.22" width="7.04" height="79.26" ry="3.8" fill="none" stroke="#000"/></g></g><g stroke-width="1.77" fill="#fff" stroke="#000"><path transform="matrix(.15612 0 0 .16816 29.7 44.94)" d="M2700.2 785.03a10.49 10.66 0 1 1-20.98 0 10.49 10.66 0 1 1 20.98 0z"/><path transform="matrix(.15612 0 0 .16816 29.7 48.5)" d="M2700.2 785.03a10.49 10.66 0 1 1-20.98 0 10.49 10.66 0 1 1 20.98 0z"/><path transform="matrix(.15612 0 0 .16816 29.7 52.07)" d="M2700.2 785.03a10.49 10.66 0 1 1-20.98 0 10.49 10.66 0 1 1 20.98 0z"/><path transform="matrix(.15612 0 0 .16816 29.7 55.65)" d="M2700.2 785.03a10.49 10.66 0 1 1-20.98 0 10.49 10.66 0 1 1 20.98 0z"/><path transform="matrix(.15612 0 0 .16816 29.7 59.22)" d="M2700.2 785.03a10.49 10.66 0 1 1-20.98 0 10.49 10.66 0 1 1 20.98 0z"/></g><path d="M479.03 202.55c-1.58 3.8-2.84 7.5-4.08 11.31h-50.82c-1.2-3.68-2.41-7.65-3.92-11.31 0 0 3.17 4.77 5.54 5.92a5.6 5.6 0 0 0 4.32.3c1.79-.68 4.17-4.18 4.17-4.18s2.15 2.7 3.6 3.41c1.37.67 2.97.7 4.47.62 1.33-.06 2.8-.12 3.89-.93 1.66-1.23 3.31-5.43 3.31-5.43s1.6 3.3 2.88 4.5a8.1 8.1 0 0 0 3.75 2.02c1.37.3 2.86.2 4.18-.31 1.78-.7 4.6-3.57 4.6-3.57s1.95 2.6 3.32 3.26a6.5 6.5 0 0 0 4.32.46c1.5-.37 2.74-1.54 3.89-2.63 1.02-.98 2.58-3.44 2.58-3.44z" fill="#fed100"/><path d="M-147.29 1086.9c-6.72 15.02-12.1 29.69-17.38 44.78h-216.62c-5.1-14.59-10.3-30.28-16.7-44.78 0 0 13.48 18.86 23.58 23.43 5.6 2.53 12.62 3.29 18.42 1.23 7.64-2.72 17.8-16.58 17.8-16.58s9.14 10.7 15.35 13.5c5.83 2.64 12.65 2.75 19.04 2.46 5.65-.25 11.92-.47 16.58-3.68 7.05-4.87 14.12-21.5 14.12-21.5s6.84 13.08 12.28 17.81a35.42 35.42 0 0 0 15.97 7.99 33.85 33.85 0 0 0 17.8-1.23c7.6-2.74 19.65-14.13 19.65-14.13s8.3 10.3 14.13 12.9a29.69 29.69 0 0 0 18.42 1.84c6.35-1.5 11.7-6.1 16.58-10.44 4.35-3.87 10.98-13.6 10.98-13.6z" fill="none" stroke="#000" transform="matrix(.23459 0 0 .25269 513.58 -72.1)"/><g fill="#fed100"><path d="M449.62 204.72s-1.16 1.92-1.87 2.58a7.33 7.33 0 0 1-2.91 1.9c-1.27.42-3.04.66-4.37.59a9.52 9.52 0 0 1-3.77-1.09c-1-.52-2.6-2.05-2.6-2.05a8.88 8.88 0 0 1-2.72 2.42 6 6 0 0 1-3.66.72c-2.55-.15-4.93-1.87-6.83-5.35a92.43 92.43 0 0 0-4.44-9.68c2.05-.78 4.43-1.2 7.08-1.34-1.08 3.27-2.2 6.45-1.8 9.08 2.23-1.79 2.95-4.23 3.71-6.65l2.59 9.8c-1.57-.3-.74-.64-4.86-1.48.83 1.67 2.72 3.74 4.8 3.95 1.4.13 2.42-.33 3.31-1.16.64-.6 1.22-1.4 1.22-2.28l-.02-1.53c0-.33-.38-.8-.68-.8-.29 0-.37.5-.45.8-.15.6.16 1.28 0 1.88-.17.66-.5 1.19-1.04 1.55-.45.3-1.54.38-1.54.38l.35-1.45c.24-1.02-.68-1.81-.9-2.84a3.87 3.87 0 0 1 0-2.03c.24-.7.72-1.36 1.34-1.66.23-.11.5-.13.75-.11.35.03 1.04.27 1.04.27s-.2-1.04-.15-1.66a10.46 10.46 0 0 1 2.55-5.07c.1.1 1.06 1.07 1.69 2.14.38.65.76 1.58.87 2.33.1.62.06 1.94.06 1.94s1.03-.46 1.37-.51c.25-.04.52-.04.75.05.64.26 1.17.89 1.45 1.56.26.61.23 1.36.13 2.03-.15 1.04-.72 1.84-.4 2.84l.43 1.42s-1.09.01-1.56-.26a2.52 2.52 0 0 1-1.14-1.47c-.2-.59-.08-1.31-.42-1.82-.15-.22-.36-.47-.65-.44-.3.02-.51.56-.53.88l-.05 1.38c-.02.43.16.87.37 1.2a4.48 4.48 0 0 0 2.15 1.73c.94.41 1.78.57 2.8.58.84.01 2.3-.14 3.1-.43a5.82 5.82 0 0 0 2.33-1.57 4.1 4.1 0 0 0 .9-1.65c.22-.7.15-1.88.15-1.88-.98.4-1.84.94-2.6 1.57a17 17 0 0 0-2.35 2.4l-.07-11.85c1.02 1.22 1.76 2.3 2.78 3.22.86.77 1.3 1.06 2.17 1.36-.25-.95-.33-1.53-.97-2.49-.88-1.32-1.73-2.74-2.8-4.06 1.96-.35 3.92-.45 5.9-.45 2 0 3.95.1 5.91.45-1.06 1.32-1.92 2.74-2.8 4.06-.63.96-.71 1.54-.96 2.49.86-.3 1.3-.6 2.16-1.36 1.02-.92 1.77-2 2.79-3.22l-.07 11.86a17 17 0 0 0-2.35-2.41 10.12 10.12 0 0 0-2.6-1.57s-.08 1.19.14 1.88c.19.6.48 1.22.9 1.65a5.82 5.82 0 0 0 2.33 1.57c.8.3 2.27.44 3.11.43a6.8 6.8 0 0 0 2.8-.58 4.48 4.48 0 0 0 2.15-1.72c.2-.34.38-.78.37-1.2l-.06-1.39c0-.32-.22-.86-.52-.88-.3-.03-.5.22-.65.44-.34.51-.23 1.23-.42 1.82a2.52 2.52 0 0 1-1.14 1.47c-.47.27-1.56.26-1.56.26l.44-1.42c.3-1-.26-1.8-.42-2.84-.1-.67-.13-1.42.14-2.03.28-.67.8-1.3 1.44-1.56.24-.1.5-.09.75-.05.35.05 1.38.5 1.38.5s-.04-1.3.05-1.93c.11-.75.5-1.68.88-2.33.63-1.07 1.6-2.03 1.69-2.14a10.46 10.46 0 0 1 2.54 5.06c.05.63-.15 1.67-.15 1.67s.7-.24 1.05-.27c.25-.02.52 0 .74.1.62.31 1.1.98 1.35 1.67.22.63.14 1.37 0 2.03-.22 1.03-1.14 1.82-.9 2.84l.35 1.45s-1.09-.07-1.54-.38a2.56 2.56 0 0 1-1.05-1.55c-.15-.6.16-1.27 0-1.88-.07-.3-.15-.8-.44-.8-.3 0-.68.47-.69.8v1.53c-.02.89.57 1.68 1.2 2.28a4 4 0 0 0 3.32 1.16c2.08-.2 3.97-2.28 4.8-3.95-4.12.84-3.29 1.19-4.86 1.48l2.59-9.8c.76 2.42 1.48 4.86 3.7 6.65.4-2.63-.72-5.8-1.8-9.08 2.65.14 5.04.56 7.09 1.34a92.4 92.4 0 0 0-4.44 9.68c-1.9 3.48-4.28 5.2-6.83 5.35a6 6 0 0 1-3.66-.72 8.88 8.88 0 0 1-2.72-2.42s-1.6 1.53-2.6 2.05a9.78 9.78 0 0 1-3.77 1.09c-1.33.07-3.1-.17-4.37-.6a7.33 7.33 0 0 1-2.91-1.9 16.74 16.74 0 0 1-1.87-2.57z"/><path d="M427.72 209.77c-2.55-.14-4.93-1.86-6.83-5.34a92.43 92.43 0 0 0-4.44-9.68c2.05-.79 4.44-1.2 7.08-1.34-1.07 3.27-2.2 6.45-1.8 9.08 2.23-1.79 2.95-4.23 3.71-6.66l2.59 9.81c-1.57-.3-.74-.64-4.86-1.49.83 1.68 2.72 3.75 4.8 3.96zm43.55-1.66c2.08-.2 3.97-2.28 4.8-3.95-4.12.84-3.29 1.19-4.86 1.48l2.59-9.8c.76 2.42 1.48 4.86 3.7 6.65.4-2.63-.72-5.8-1.8-9.08 2.65.14 5.04.55 7.09 1.34a92.4 92.4 0 0 0-4.44 9.68c-1.9 3.48-4.28 5.2-6.83 5.35l-.05.1z"/><path d="M440.47 209.77a9.52 9.52 0 0 1-3.76-1.08c-1.01-.52-2.62-2.05-2.62-2.05a8.88 8.88 0 0 1-2.71 2.42 6 6 0 0 1-3.66.71l-.04.48.3-2.14a4 4 0 0 0 3.3-1.16c.64-.6 1.22-1.4 1.22-2.28l-.02-1.53c0-.33-.37-.8-.68-.8-.29 0-.37.5-.45.8-.15.6.16 1.28 0 1.88-.17.66-.5 1.19-1.04 1.55-.45.3-1.54.38-1.54.38l.35-1.45c.24-1.02-.68-1.81-.9-2.84a3.87 3.87 0 0 1 0-2.03c.24-.7.72-1.36 1.34-1.66.23-.12.5-.13.75-.11.35.03 1.04.27 1.04.27s-.2-1.04-.15-1.66a10.46 10.46 0 0 1 2.55-5.07c.1.1 1.06 1.07 1.69 2.14.38.65.76 1.58.87 2.33.1.62.06 1.94.06 1.94s1.03-.46 1.37-.51c.25-.04.52-.04.76.05a2.9 2.9 0 0 1 1.44 1.56c.26.61.23 1.36.13 2.03-.15 1.04-.72 1.84-.4 2.84l.43 1.42s-1.09.01-1.56-.26a2.52 2.52 0 0 1-1.14-1.47c-.2-.59-.08-1.31-.42-1.82-.15-.22-.36-.47-.65-.44-.3.02-.51.56-.53.88l-.05 1.38c-.02.42.16.86.37 1.2a4.48 4.48 0 0 0 2.15 1.73c.94.41 1.78.57 2.8.58z"/></g><path d="m465.76 204.62-.03-.05c-.04-.65.17-1.76.17-1.76.11-.56.55-1.15 1.1-1.36.3-.12.65-.16.96 0 .2.1.35.19.48.33s.2.33.3.6c.12.4.07.8 0 1.15-.1.58-.1 1.09.06 1.48.1.28.32.48.6.66-.05-.2-.09-.3-.12-.51-.04-.33.01-.66.13-.96.2-.5.48-.91.67-1.36.18-.43.27-.92.24-1.38a2.04 2.04 0 0 0-.33-1.04 1.5 1.5 0 0 0-.88-.6c-.3-.07-.78.04-1.17.17-.39.14-.68.29-.68.29l-.34.17.05-.4c.2-1.35.38-2.04 0-3.3a6.62 6.62 0 0 0-.85-1.77c-.22-.32-.46-.7-.73-1.07a8.07 8.07 0 0 0-1.49 2.65c-.3.98-.32 2.27-.25 3.32l.03.41-.33-.2s-.37-.26-.82-.49a3.44 3.44 0 0 0-1.24-.42c-.44.04-.74.27-1.02.66a2 2 0 0 0-.35 1.1c-.03.29.04.84.08 1.2.05.41.28.85.35 1.38.02.18.07.32.1.49.05.17.07.36.02.6-.03.16-.07.27-.13.47l.25-.13c.22-.17.3-.47.45-.83.07-.2.09-.37.1-.58s.02-.45.12-.72c.16-.46.36-1 .8-1.34.35-.28.83-.35 1.24-.21a1 1 0 0 1 .55.43c.13.19.21.4.3.6.12.26.18.66.24 1s.08.64.08.64v.07l-.3 1.09-.4-.1.3-1.03-.08-.6a4.98 4.98 0 0 0-.2-.89c-.09-.2-.17-.39-.26-.53a.62.62 0 0 0-.35-.27 1 1 0 0 0-.9.15c-.3.24-.5.7-.66 1.15-.07.2-.07.38-.08.58-.01.21-.02.46-.13.72-.13.34-.24.74-.59 1.01-.25.2-.72.4-.72.4l-.41.18.14-.45s.21-.66.25-.9a.95.95 0 0 0-.01-.41c-.03-.14-.1-.3-.12-.53-.05-.42-.28-.86-.34-1.39-.04-.34-.13-.89-.08-1.3.05-.48.12-.9.42-1.31a1.8 1.8 0 0 1 1.3-.82c.44-.05.98.21 1.45.45.3.16.4.23.55.33-.05-1-.03-2.16.27-3.12a8.55 8.55 0 0 1 1.72-3.01l.15-.17.15.17c.39.45.66.95.9 1.32.46.7.75 1.31.92 1.88.36 1.2.23 2.03.05 3.15.14-.06.18-.1.42-.17.41-.15.92-.28 1.35-.2.45.1.85.4 1.12.76.27.37.4.85.42 1.28.04.55-.07 1.1-.28 1.59-.2.5-.49.9-.66 1.36-.1.23-.14.49-.1.72.04.36.21.93.21.93l.13.4-.38-.13c-.61-.23-1.01-.63-1.2-1.13s-.2-1.1-.09-1.72a2 2 0 0 0 .01-.93 1.2 1.2 0 0 0-.2-.44 1.32 1.32 0 0 0-.37-.24c-.17-.09-.44-.07-.66.01-.36.14-.8.67-.84 1.04a3.9 3.9 0 0 1-.53 1.73zm11.43-.77.1-.22-.21-.08c-1.64-.56-3.15-.14-4.58.51.58-1.7 1.02-3.39 1.33-5.08 1.55 3 2.87 3.99 4.11 4.6l.23.11.05-.27c.37-2.05.4-4.79-1.17-8.86 1.76.1 3.5.33 5.23 1.16l.16-.4c-1.9-.9-3.8-1.13-5.67-1.22l-.32-.02.13.32c1.6 4.01 1.6 6.63 1.28 8.64-1.19-.62-2.4-1.56-3.94-4.73l-.27-.55-.1.62a35.62 35.62 0 0 1-1.56 5.98l-.18.5.44-.23c1.44-.7 2.9-1.16 4.47-.72l.04.03zm-54.67.06c1.57-.44 3.02.02 4.46.72l.44.22-.17-.49c-.7-2-1.23-3.99-1.56-5.98l-.1-.62-.28.55c-1.54 3.17-2.75 4.1-3.94 4.73-.32-2.01-.32-4.63 1.3-8.64l.12-.32-.32.02a14.2 14.2 0 0 0-5.67 1.22l.16.4a13.4 13.4 0 0 1 5.22-1.16c-1.56 4.07-1.53 6.8-1.16 8.86l.04.27.24-.11c1.24-.61 2.56-1.6 4.11-4.6.31 1.7.75 3.39 1.33 5.08-1.43-.65-2.94-1.07-4.58-.51l-.22.08.1.22-.04.02.52.04zm12.88.96-.23-.93a5.7 5.7 0 0 1 .27-1.46c.1-.2.18-.39.27-.53.1-.13.18-.22.34-.27a1 1 0 0 1 .9.15c.3.24.5.7.67 1.15.07.2.07.38.08.58.01.21.02.46.13.72.13.34.23.74.58 1.01.26.2.73.4.73.4l.4.18-.14-.45s-.2-.66-.25-.9a.95.95 0 0 1 .02-.41c.03-.14.08-.3.11-.53.05-.42.28-.86.34-1.39.05-.34.14-.89.1-1.3-.06-.48-.13-.9-.43-1.31a1.8 1.8 0 0 0-1.3-.82c-.44-.05-.98.21-1.45.45-.3.16-.4.23-.55.33.05-1 .03-2.16-.27-3.12a8.55 8.55 0 0 0-1.73-3.01l-.14-.17-.15.17c-.4.45-.67.95-.9 1.32-.47.7-.75 1.31-.92 1.88-.36 1.2-.23 2.03-.06 3.15-.13-.06-.17-.1-.4-.17a2.71 2.71 0 0 0-1.36-.2c-.45.1-.85.4-1.12.76-.28.37-.4.84-.42 1.28-.04.55.07 1.1.28 1.59.2.5.49.9.66 1.36.1.23.13.49.1.72-.05.36-.21.93-.21.93l-.13.4.38-.13c.61-.23 1.01-.63 1.2-1.13s.2-1.1.09-1.72a2 2 0 0 1-.01-.93c.08-.24.13-.36.2-.44.07-.08.18-.14.36-.24.18-.09.45-.07.67.01.36.14.76.67.84 1.04 0 .01.18 1.14.16 1.65l.47.1c-.04-.72-.25-1.83-.25-1.83a1.94 1.94 0 0 0-1.09-1.36c-.3-.12-.66-.16-.97 0-.2.1-.34.19-.47.33a1.6 1.6 0 0 0-.3.6c-.13.4-.07.8-.01 1.15.1.58.1 1.09-.06 1.48-.1.28-.31.48-.6.66.06-.2.1-.3.12-.51.05-.33 0-.66-.12-.96-.2-.5-.48-.91-.67-1.36a3.1 3.1 0 0 1-.25-1.38c.03-.37.13-.77.33-1.04.22-.3.56-.54.9-.6.29-.07.76.04 1.15.18.39.13.69.28.69.28l.34.17-.06-.4c-.2-1.35-.38-2.04 0-3.3.16-.53.41-1.1.85-1.77.22-.32.46-.7.74-1.06a8.4 8.4 0 0 1 1.49 2.64c.3.98.31 2.27.24 3.32l-.02.42.33-.22s.36-.25.82-.48a3.28 3.28 0 0 1 1.24-.42c.44.04.74.27 1.02.67a2 2 0 0 1 .35 1.09c.03.29-.05.84-.1 1.2-.04.41-.26.86-.33 1.39-.02.17-.07.3-.1.48a1.3 1.3 0 0 0-.03.6c.03.16.07.27.13.47l-.25-.13c-.22-.17-.3-.47-.45-.83a1.7 1.7 0 0 1-.1-.58c0-.2-.01-.45-.1-.72-.18-.46-.37-1-.8-1.34a1.36 1.36 0 0 0-1.25-.21c-.25.08-.43.24-.56.43-.13.19-.2.4-.3.6-.1.26-.17.66-.23 1s-.09.64-.09.64v.04l.01.03.24.95.11.02.28-.11zm15.17-3.5v-.27l.25.06a9.1 9.1 0 0 1 2.67 1.17c.9.57 1.56 1.21 2.26 1.83l.12-7.13c-.6.71-1.15 1.47-1.97 2.07a7.3 7.3 0 0 1-3.1 1.29l-.28.03.06-.29c.16-.8.16-1.36.53-2.31.36-.9 1.1-2.22 2.6-4.41-1.3-.15-2.42-.32-4.1-.32-1.67 0-2.79.17-4.08.32 1.5 2.2 2.24 3.5 2.6 4.4.37.96.37 1.52.53 2.32l.06.3-.28-.04a7.3 7.3 0 0 1-3.1-1.29c-.82-.6-1.38-1.35-1.97-2.06l.12 7.12c.7-.62 1.36-1.26 2.25-1.84a9.8 9.8 0 0 1 2.67-1.16l.25-.06v.27l-.4.3c-.94.29-1.7.63-2.31 1.03-.99.63-1.7 1.36-2.54 2.08l-.31.27v-.43l-.13-8.14-.02-.54.35.38c.78.84 1.36 1.76 2.26 2.43.56.4 1.65.96 2.66 1.15-.12-.65-.17-1.15-.47-1.92-.35-.9-1.07-2.2-2.73-4.62l-.2-.3.34-.04c1.43-.16 2.6-.37 4.46-.37 1.85 0 3.03.21 4.45.37l.35.04-.2.3c-1.66 2.41-2.39 3.73-2.74 4.62-.3.77-.34 1.28-.46 1.93 1-.2 2.1-.75 2.65-1.16.9-.67 1.5-1.59 2.26-2.43l.35-.38v.54l-.14 8.14v.43l-.32-.27c-.84-.72-1.55-1.45-2.53-2.08a9.04 9.04 0 0 0-2.31-1.02z" color="#000"/><path d="M-272.65 1095.5s-4.94 7.6-7.98 10.2c-4.21 3.6-6.99 5.78-12.4 7.49a58.16 58.16 0 0 1-18.62 2.35 42.97 42.97 0 0 1-16.05-4.28c-4.3-2.07-11.13-8.13-11.13-8.13-3.32 4.32-7.55 7.34-11.58 9.58-5.15 2.86-10.24 3.12-15.59 2.83-10.86-.58-21-7.37-29.13-21.13a353.82 353.82 0 0 0-18.92-38.35c8.73-3.09 18.9-4.73 30.19-5.27-4.59 12.93-9.35 25.53-7.67 35.94 9.48-7.1 12.55-16.77 15.82-26.35l11.02 38.8c-6.7-1.17-3.13-2.55-20.7-5.88 3.52 6.64 11.58 14.83 20.46 15.64 5.97.54 10.31-1.3 14.1-4.6 2.74-2.36 5.22-5.49 5.19-9.01l-.06-6.06c0-1.3-1.6-3.13-2.9-3.15-1.24-.02-1.58 1.99-1.91 3.18-.66 2.38.66 5.03 0 7.42a10.12 10.12 0 0 1-4.45 6.14c-1.93 1.2-6.57 1.49-6.57 1.49l1.48-5.73c1.05-4.03-2.87-7.17-3.82-11.23-.6-2.62-.94-5.54 0-8.05 1.02-2.72 3.08-5.37 5.73-6.58a6.7 6.7 0 0 1 3.18-.42c1.5.1 4.45 1.06 4.45 1.06s-.85-4.09-.64-6.57c.26-3 2.8-8.58 4.24-11.23a44.69 44.69 0 0 1 6.6-8.81c.42.41 4.52 4.23 7.2 8.47 1.62 2.55 3.28 6.23 3.74 9.21.39 2.46.25 7.66.25 7.66s4.36-1.8 5.85-2a6.67 6.67 0 0 1 3.2.2c2.72 1.02 4.96 3.51 6.17 6.16 1.11 2.44.98 5.38.56 8.03-.66 4.12-3.08 7.3-1.76 11.26l1.88 5.6s-4.65.05-6.66-1.01a10.12 10.12 0 0 1-4.86-5.83c-.83-2.33-.35-5.18-1.8-7.19-.63-.88-1.52-1.87-2.75-1.76-1.3.1-2.2 2.22-2.26 3.51l-.23 5.45c-.07 1.68.7 3.42 1.6 4.78 2.2 3.32 5.46 5.33 9.15 6.83 4 1.61 7.6 2.24 11.91 2.29 3.6.04 9.85-.55 13.26-1.7 4.2-1.42 6.67-3.22 9.92-6.24 1.83-1.7 3.06-4.17 3.86-6.53.93-2.72.6-7.42.6-7.42a43.94 43.94 0 0 0-11.1 6.2 69.9 69.9 0 0 0-9.99 9.53l-.3-46.91c4.36 4.8 7.52 9.1 11.87 12.71 3.67 3.05 5.55 4.21 9.22 5.4-1.05-3.78-1.4-6.06-4.1-9.84-3.75-5.23-7.4-10.85-11.94-16.09 8.36-1.39 16.7-1.76 25.17-1.76 8.46 0 16.81.37 25.17 1.76-4.54 5.24-8.19 10.86-11.94 16.1-2.7 3.77-3.05 6.05-4.1 9.83 3.67-1.19 5.55-2.35 9.22-5.4 4.35-3.61 7.51-7.91 11.87-12.71l-.3 46.91a69.9 69.9 0 0 0-10-9.53 43.92 43.92 0 0 0-11.09-6.2s-.33 4.7.6 7.42c.8 2.36 2.03 4.83 3.86 6.53 3.25 3.02 5.72 4.82 9.92 6.24 3.4 1.15 9.66 1.74 13.25 1.7 4.32-.05 7.92-.68 11.92-2.3 3.69-1.49 6.96-3.5 9.15-6.82.9-1.36 1.66-3.1 1.6-4.78l-.23-5.45c-.06-1.3-.97-3.4-2.26-3.51-1.23-.1-2.12.88-2.76 1.76-1.44 2.01-.96 4.86-1.79 7.2a10.12 10.12 0 0 1-4.86 5.82c-2 1.06-6.66 1.02-6.66 1.02l1.88-5.6c1.32-3.96-1.1-7.15-1.76-11.27-.42-2.65-.55-5.59.56-8.03 1.2-2.65 3.45-5.14 6.17-6.16 1-.37 2.15-.35 3.2-.2 1.48.2 5.85 2 5.85 2s-.14-5.2.25-7.66c.46-2.98 2.12-6.66 3.74-9.21 2.68-4.24 6.78-8.06 7.2-8.47.43.42 4.22 4.4 6.6 8.8 1.43 2.66 3.98 8.23 4.24 11.24.21 2.48-.64 6.57-.64 6.57s2.96-.95 4.45-1.06a6.67 6.67 0 0 1 3.18.42c2.65 1.2 4.7 3.86 5.73 6.58.94 2.51.6 5.43 0 8.05-.95 4.06-4.87 7.2-3.82 11.23l1.48 5.73s-4.64-.28-6.57-1.49a10.12 10.12 0 0 1-4.45-6.14c-.66-2.39.66-5.04 0-7.42-.33-1.2-.67-3.2-1.9-3.18-1.3.02-2.9 1.85-2.92 3.15l-.05 6.06c-.03 3.52 2.45 6.65 5.18 9.02 3.8 3.29 8.13 5.13 14.1 4.6 8.9-.82 16.95-9.01 20.47-15.65-17.57 3.33-14 4.71-20.7 5.89l11.02-38.81c3.27 9.58 6.33 19.25 15.81 26.35 1.69-10.41-3.07-23-7.66-35.94 11.28.54 21.46 2.18 30.19 5.27a353.7 353.7 0 0 0-18.92 38.35c-8.13 13.76-18.27 20.55-29.13 21.13-5.35.3-10.44.03-15.59-2.83-4.03-2.24-8.26-5.26-11.58-9.58 0 0-6.84 6.06-11.13 8.13a42.97 42.97 0 0 1-16.05 4.28 58 58 0 0 1-18.61-2.35c-5.42-1.7-8.2-3.88-12.41-7.49-3.04-2.6-7.98-10.2-7.98-10.2z" fill="none" stroke="#000" transform="matrix(.23459 0 0 .25269 513.58 -72.1)"/><g stroke-width="1.61" fill="#fff" stroke="#000"><path transform="matrix(.17173 0 0 .18498 -12.28 55.5)" d="M2700.2 785.03a10.49 10.66 0 1 1-20.98 0 10.49 10.66 0 1 1 20.98 0z"/><path transform="matrix(.17173 0 0 .18498 -40.78 58.24)" d="M2700.2 785.03a10.49 10.66 0 1 1-20.98 0 10.49 10.66 0 1 1 20.98 0z"/><path transform="matrix(-.17173 0 0 .18498 940.02 58.24)" d="M2700.2 785.03a10.49 10.66 0 1 1-20.98 0 10.49 10.66 0 1 1 20.98 0z"/></g><path d="m432.27 203.64 3.96-.23.57.93-.47.99-3.96.23-.68-.92z" fill="#fed100"/><path d="M-346.46 1090.7h16.9l2.2 3.8-2.2 3.81h-16.9l-2.7-3.8z" fill="none" stroke="#000" transform="matrix(.23424 -.0137 .01271 .25232 499.56 -76.3)"/><path d="m466.97 203.64-3.96-.23-.57.93.47.99 3.96.23.68-.92z" fill="#f6e078"/><path d="M-346.46 1090.7h16.9l2.2 3.8-2.2 3.81h-16.9l-2.7-3.8z" fill="#fed100" stroke="#000" transform="matrix(-.23424 -.0137 -.01271 .25232 399.68 -76.3)"/><path d="M424.62 220.2s2.83-.23 7.81-.53c4.98-.3 10.32-.46 13.04-.46h8.3a299.4 299.4 0 0 1 20.8 1.02l1.74-8.34s-17.76-1.73-26.69-1.73-26.68 1.73-26.68 1.73z" fill="#fed100" fill-rule="evenodd"/><path d="M496.5 341.73c38.01-.02 76.02 2.04 113.86 6.23l-6.93 33.32c-37.64-3.38-68.45-4.29-106.5-4.58m.5-34.97c-38.02-.02-76.02 2.04-113.86 6.23l6.92 33.32c37.64-3.38 68.46-4.29 106.51-4.58" fill="none" stroke="#000" transform="matrix(.23459 0 0 .25269 333.04 123.9)"/><g stroke-width="1.33" color="#000"><path d="M432.34 210.46h-.01c-3.17.25-6.84.52-10.05.99-.45.58-.49 1.11.34 1.54 3.07-.46 6.7-.73 9.87-.98 4.3-.26 8.64-.43 12.97-.48h8.3c2.6 0 8.06.17 12.98.49 4.89.32 9.88.97 9.88.97.86-.47.76-1 .3-1.54 0 0-5.04-.67-10.04-1a238.2 238.2 0 0 0-13.11-.48h-8.3c-4.39.01-8.76.23-13.13.49z" fill="#fed100"/><path d="m-644.32 561.77-.03.03h-.03c-13.37 1.26-28.84 2.63-42.35 5.03-1.9 2.98-2.06 5.7 1.41 7.88 12.96-2.31 28.25-3.71 41.62-4.97a874.9 874.9 0 0 1 54.7-2.47h35c10.9 0 33.96.87 54.68 2.5a622.79 622.79 0 0 1 41.69 4.94c3.6-2.4 3.2-5.08 1.25-7.88 0 0-21.26-3.4-42.31-5.06-20.96-1.65-43.99-2.5-55.32-2.5h-35c-18.46.07-36.9 1.21-55.3 2.5z" fill="none" stroke="#000" transform="matrix(.2372 0 0 .19554 585.17 100.6)"/></g><g stroke-width="1.38" color="#000"><path d="M433.56 219.15h-.01c-2.95.25-6.36.52-9.34.99-.42.58-.46 1.11.3 1.54 2.87-.46 6.24-.73 9.19-.98 4-.26 8.03-.43 12.06-.48h7.72c2.4 0 7.49.17 12.06.49 4.55.32 9.2.97 9.2.97.79-.47.7-1 .27-1.54 0 0-4.69-.67-9.33-1a206 206 0 0 0-12.2-.48h-7.72c-4.07.01-8.14.23-12.2.49z" fill="#fed100"/><path d="m-644.32 561.77-.03.03h-.03c-13.37 1.26-28.84 2.63-42.35 5.03-1.9 2.98-2.06 5.7 1.41 7.88 12.96-2.31 28.25-3.71 41.62-4.97 18.15-1.38 36.44-1.78 54.7-2.02h35c10.9 0 33.96.42 54.68 2.05a622.79 622.79 0 0 1 41.69 4.94c3.6-2.4 3.2-5.08 1.25-7.88 0 0-21.26-3.4-42.31-5.06a777.22 777.22 0 0 0-55.32-2.05h-35c-18.46.08-36.9.76-55.3 2.05z" fill="none" stroke="#000" transform="matrix(.22054 0 0 .19554 575.66 109.3)"/></g><g stroke-width="2.66" transform="matrix(.1186 0 0 .09777 107.5 131.63)"><rect x="2840.1" y="823.57" width="89.49" height="59.17" ry="3.01" fill="none" stroke="#000"/><rect x="2849.7" y="831.33" width="70.26" height="43.64" ry="5.18" fill="#012169" fill-rule="evenodd" stroke="#a0892c"/><path d="M2918.5 873.46a5.16 5.16 0 0 1-3.66 1.51h-59.91a5.16 5.16 0 0 1-5.18-5.17v-33.3c0-1.43.58-2.72 1.51-3.66.94-.94 68.18 39.67 67.24 40.61z" fill="#2b96f6" fill-rule="evenodd" stroke="#a0892c"/><g fill="#012169" fill-rule="evenodd" stroke="#000"><path d="M2918.5 873.46a5.16 5.16 0 0 1-3.66 1.51h-59.91a5.16 5.16 0 0 1-5.18-5.17v-33.3c0-1.43.58-2.72 1.51-3.66.48-.48 18.04 9.76 35.1 20.07 16.54 10 32.6 20.08 32.14 20.54z"/><path d="M2918.5 832.84a5.16 5.16 0 0 1 1.51 3.66v33.29a5.16 5.16 0 0 1-5.17 5.17h-59.91a5.16 5.16 0 0 1-3.67-1.51c-.93-.94 66.3-41.55 67.24-40.61z"/><path d="M2918.5 873.46a5.16 5.16 0 0 1-3.66 1.51h-59.91a5.16 5.16 0 0 1-3.67-1.51c-.47-.47 16.6-11.16 33.66-21.46 0 0 34.52 20.52 33.58 21.46z"/></g><rect x="2849.7" y="831.33" width="70.26" height="43.64" ry="5.18" fill="none" stroke="#000"/><rect x="2865.2" y="841.29" width="39.37" height="22.3" ry="0" fill="#012169" fill-rule="evenodd" stroke="#000"/></g><g transform="matrix(.20308 -.0215 .0319 .19463 320.52 157.94)" stroke-width="1.43"><rect x="494.63" y="340.21" width="35.83" height="22.67" ry="10.77" fill="#fed100" fill-rule="evenodd" stroke="#000"/><rect x="497.57" y="343.28" width="29.95" height="16.54" ry="8.27" fill="#306947" fill-rule="evenodd"/><rect x="497.57" y="343.28" width="29.95" height="16.54" ry="8.27" fill="none" stroke="#000"/></g><g stroke-width="1.36"><path d="m626.17 310.88-23.7-12.77 23.7-12.08 2.88 13.14z" fill="#fed100" stroke="#000" transform="matrix(-.19192 .03609 .03628 .22389 532.88 127.03)"/><path d="m423.85 218.46 2.97-2.69-3.62-1.34-.77 2.12z" fill="#c8102e"/><path d="m423.85 218.46 2.97-2.69-4.36.78z" fill="#c8102e"/><path transform="matrix(-.19192 .03609 .03628 .22389 504.56 143.33)" d="m452.4 250.56 22.95-.02" fill="none" stroke="#000"/><path d="m626.17 307.47-17.18-9.26 17.18-8.76 5.84 8.4z" fill="none" stroke="#000" transform="matrix(-.19192 .03609 .03628 .22389 532.88 127.03)"/></g><g stroke-width="3.23" fill="#fff" stroke="#000"><path transform="matrix(.0855 0 0 .0921 211.76 141.24)" d="M2700.2 785.03a10.49 10.66 0 1 1-20.98 0 10.49 10.66 0 1 1 20.98 0z"/><path transform="matrix(.0855 0 0 .0921 211.94 144.32)" d="M2700.2 785.03a10.49 10.66 0 1 1-20.98 0 10.49 10.66 0 1 1 20.98 0z"/><path transform="matrix(.0855 0 0 .0921 199.7 141.95)" d="M2700.2 785.03a10.49 10.66 0 1 1-20.98 0 10.49 10.66 0 1 1 20.98 0z"/><path transform="matrix(.0855 0 0 .0921 199.88 145.03)" d="M2700.2 785.03a10.49 10.66 0 1 1-20.98 0 10.49 10.66 0 1 1 20.98 0z"/></g><g transform="matrix(-.20308 -.0215 -.0319 .19463 578.72 157.94)" stroke-width="1.43"><rect x="494.63" y="340.21" width="35.83" height="22.67" ry="10.77" fill="#fed100" fill-rule="evenodd" stroke="#000"/><rect x="497.57" y="343.28" width="29.95" height="16.54" ry="8.27" fill="#306947" fill-rule="evenodd"/><rect x="497.57" y="343.28" width="29.95" height="16.54" ry="8.27" fill="none" stroke="#000"/></g><g stroke-width="1.36"><path d="m626.17 310.88-23.7-12.77 23.7-12.08 2.88 13.14z" fill="#fed100" stroke="#000" transform="matrix(.19192 .03609 -.03628 .22389 366.36 127.03)"/><path d="m475.39 218.46-2.97-2.69 3.62-1.34.77 2.12z" fill="#c8102e"/><path d="m475.39 218.46-2.97-2.69 4.36.78z" fill="#c8102e"/><path transform="matrix(.19192 .03609 -.03628 .22389 394.68 143.33)" d="m452.4 250.56 22.95-.02" fill="none" stroke="#000"/><path d="m626.17 307.47-17.18-9.26 17.18-8.76 5.84 8.4z" fill="none" stroke="#000" transform="matrix(.19192 .03609 -.03628 .22389 366.36 127.03)"/></g><g stroke-width="3.23" fill="#fff" stroke="#000"><path transform="matrix(-.0855 0 0 .0921 687.48 141.24)" d="M2700.2 785.03a10.49 10.66 0 1 1-20.98 0 10.49 10.66 0 1 1 20.98 0z"/><path transform="matrix(-.0855 0 0 .0921 687.3 144.32)" d="M2700.2 785.03a10.49 10.66 0 1 1-20.98 0 10.49 10.66 0 1 1 20.98 0z"/><path transform="matrix(-.0855 0 0 .0921 699.55 141.95)" d="M2700.2 785.03a10.49 10.66 0 1 1-20.98 0 10.49 10.66 0 1 1 20.98 0z"/><path transform="matrix(-.0855 0 0 .0921 699.36 145.03)" d="M2700.2 785.03a10.49 10.66 0 1 1-20.98 0 10.49 10.66 0 1 1 20.98 0z"/></g></g></svg>