<svg xmlns="http://www.w3.org/2000/svg" viewBox="0 0 1000 600"><path d="M0 0h1000v600H0z" fill="#ee2737"/><path d="M454.87 259.27a212.98 212.98 0 0 0-35.23-17.44 96.75 96.75 0 0 0-16.6 54.36 95.62 95.62 0 0 0 4.4 28.79 183.18 183.18 0 0 1 19.31-33.87 188.2 188.2 0 0 1 28.11-31.84zm-29.8-24.55a227.57 227.57 0 0 1 38.1 17.44c2.7-2.37 5.58-4.4 8.3-6.44a220.4 220.4 0 0 0-40.65-17.27 66.64 66.64 0 0 0-5.76 6.27zm11.85-12.03a205.35 205.35 0 0 1 43.52 16.94c3.22-2.04 6.44-3.9 9.48-5.76a209.85 209.85 0 0 0-45.89-16.77 57.42 57.42 0 0 0-7.11 5.6zm14.4-10.16a200.13 200.13 0 0 1 48.26 16.26 205.18 205.18 0 0 1 48.26-16.26 95.84 95.84 0 0 0-96.53 0zm103.8 4.74a209.36 209.36 0 0 0-45.9 16.6q4.8 2.79 9.5 5.76a212.65 212.65 0 0 1 43.52-16.93 43.84 43.84 0 0 0-7.12-5.42zm13.21 11.35a213.24 213.24 0 0 0-40.64 17.1q4.34 3.07 8.47 6.43a219.88 219.88 0 0 1 37.93-17.44 39.13 39.13 0 0 0-5.76-6.1zM579.51 242a198.14 198.14 0 0 0-35.06 17.27 195.97 195.97 0 0 1 28.12 31.84 204.8 204.8 0 0 1 19.3 33.87 102.06 102.06 0 0 0 4.23-28.79A95.8 95.8 0 0 0 579.5 242zm-8.3 66.39a204 204 0 0 0-35.9-43.36c-3.05 2.2-6.27 4.4-9.15 6.6a208.15 208.15 0 0 1 53.01 79.26 104.38 104.38 0 0 0 7.28-12.53 227.03 227.03 0 0 0-15.24-29.98zm-53.68-44.03c3.04-2.2 6.1-4.4 9.31-6.44a164.07 164.07 0 0 0-8.47-6.77c-3.21 2.03-6.43 4.06-9.65 6.26h.17c2.88 2.2 5.76 4.57 8.64 6.94zm-17.95-13.56c3.21-2.03 6.6-4.06 9.65-5.93a296.96 296.96 0 0 0-9.65-5.92c-3.22 1.86-6.27 3.9-9.49 5.92 3.22 1.87 6.27 3.9 9.49 5.93zm-9.15 6.6c-3.22-2.2-6.26-4.23-9.48-6.27l-8.64 6.6c3.22 2.2 6.27 4.24 9.32 6.44q4.29-3.51 8.8-6.76zm9.15 6.77c-2.88 2.2-5.76 4.58-8.8 7.12a184.1 184.1 0 0 1 8.8 7.45c2.88-2.54 5.75-5.08 8.8-7.45-2.88-2.36-5.76-4.9-8.8-7.1zm0 31.67a213.9 213.9 0 0 0-33.36 47.59 204.88 204.88 0 0 0-14.9 36.58 98.05 98.05 0 0 0 96.52 0 204.92 204.92 0 0 0-14.9-36.58 208.55 208.55 0 0 0-33.36-47.59zm-55.89 64.19a216.3 216.3 0 0 1 47.25-73c-2.88-2.7-5.76-5.24-8.8-7.95a214.08 214.08 0 0 0-53.18 82.8 94.39 94.39 0 0 0 10.33 9.83c1.35-3.9 2.88-7.79 4.4-11.69zm64.52-73a219.33 219.33 0 0 1 47.42 73c1.52 3.89 2.88 7.79 4.23 11.68a96.1 96.1 0 0 0 10.5-9.82 216.39 216.39 0 0 0-53.34-82.81 366.2 366.2 0 0 0-8.8 7.96zm-88.23 63.85a205.98 205.98 0 0 1 53.18-79.08q-4.55-3.53-9.32-6.77a209.34 209.34 0 0 0-35.9 43.52 215.03 215.03 0 0 0-15.24 29.8 92.6 92.6 0 0 0 7.29 12.53zm80.1-159.19a108.21 108.21 0 1 1-108.2 108.22 108.41 108.41 0 0 1 108.2-108.21zm47.76-23.7a64 64 0 0 0-9.82 15.4 10.27 10.27 0 0 1-.34-6.43c.84-7.79 3.05-12.53 7.11-19.14 1.35-2.37 2.71-4.4 3.39-6.94a29.57 29.57 0 0 0-3.56-25.74 32.8 32.8 0 0 1-4.9 21 9.88 9.88 0 0 1-1.7 2.03 64.12 64.12 0 0 0-11.35 13.89 66.35 66.35 0 0 0-7.45 16.76 10.15 10.15 0 0 1-1.19-6.1c-.34-7.96 1.02-12.87 3.9-20.15a29.35 29.35 0 0 0 2.37-7.45c1.19-7.79-.84-17.78-7.62-24.73a32.73 32.73 0 0 1-1.52 21.51 25.1 25.1 0 0 1-1.35 2.2 72.82 72.82 0 0 0-9.15 15.41 74.05 74.05 0 0 0-4.57 17.78 9.72 9.72 0 0 1-2.2-5.92c-1.53-7.8-1.02-12.87.68-20.5a23.17 23.17 0 0 0 1.18-7.61 29.92 29.92 0 0 0-11.35-23.36 33.26 33.26 0 0 1 1.86 21.68c-.34.67-.67 1.52-1.01 2.2-2.04 4.23-4.4 8.3-6.6 16.76a73.97 73.97 0 0 0-1.87 18.3 12.98 12.98 0 0 1-3.05-5.43c-2.7-7.62-3.04-12.53-2.37-20.49a38.12 38.12 0 0 0 0-7.62c-1.35-7.96-6.43-16.76-14.9-21.34a33.2 33.2 0 0 1 5.08 21l-.5 2.54a72.92 72.92 0 0 0-3.9 17.62 65.58 65.58 0 0 0 1.02 18.29 12.57 12.57 0 0 1-3.9-4.92c-3.9-7.1-4.91-12.02-5.6-19.8a23.3 23.3 0 0 0-1.35-7.63c-2.37-7.62-8.8-15.58-17.95-18.63 5.93 6.6 8.3 14.23 8.3 19.82a12.77 12.77 0 0 1-.17 2.54 74.44 74.44 0 0 0-1.01 17.95 71.98 71.98 0 0 0 3.9 17.95 12.47 12.47 0 0 1-4.74-4.24c-4.91-6.26-6.6-11-8.47-18.62a29.78 29.78 0 0 0-2.54-7.46c-3.56-6.94-11.18-13.88-20.66-15.58 6.77 5.76 10.33 13.04 11.34 18.46a12.85 12.85 0 0 1 .17 2.54 83.49 83.49 0 0 0 1.87 17.95 65.42 65.42 0 0 0 6.6 16.94 12.13 12.13 0 0 1-5.25-3.39c-5.93-5.42-8.47-9.82-11.35-17.1a33.57 33.57 0 0 0-3.56-6.94c-4.74-6.27-13.2-11.86-23.03-12.03 7.8 4.58 12.37 11.01 14.23 16.26l.5 2.54c.85 4.57 1.36 9.32 4.58 17.45a65.85 65.85 0 0 0 9.31 15.75 11.65 11.65 0 0 1-5.75-2.55c-6.6-4.4-9.83-8.46-14.06-15.07a23.85 23.85 0 0 0-4.57-6.26c-5.6-5.6-14.9-9.83-24.56-8.47 8.3 3.39 13.89 9.14 16.6 14.06.34.67.68 1.52 1.02 2.37 1.52 4.23 2.7 8.8 7.11 16.42a67.5 67.5 0 0 0 11.69 14.23 13.8 13.8 0 0 1-6.1-1.7c-7.29-3.38-11.01-6.77-16.1-12.7a43.65 43.65 0 0 0-5.58-5.58c-6.44-4.58-16.26-7.29-25.57-4.4 8.8 2.03 15.24 6.77 18.46 11.17a5.99 5.99 0 0 1 1.35 2.2 72.62 72.62 0 0 0 9.82 15.07 62.54 62.54 0 0 0 13.55 12.37 12.17 12.17 0 0 1-6.26-.85c-7.62-2.03-11.86-4.91-17.79-10a42.4 42.4 0 0 0-6.26-4.56 30.44 30.44 0 0 0-26.08-.34 33.14 33.14 0 0 1 20.15 8.13 21.07 21.07 0 0 1 1.53 2.03c2.88 3.55 5.42 7.62 12.02 13.38a69.27 69.27 0 0 0 15.4 9.99 11.19 11.19 0 0 1-6.26.17c-7.96-.85-12.53-3.05-19.3-7.12-2.37-1.35-4.4-2.7-6.94-3.38a29.21 29.21 0 0 0-25.58 3.55 33.1 33.1 0 0 1 21 4.91 8.92 8.92 0 0 1 1.87 1.7c3.38 3.22 6.6 6.77 13.88 11.35a63.27 63.27 0 0 0 16.77 7.45 11.6 11.6 0 0 1-6.1 1.35c-7.96.17-12.87-1.18-20.15-4.06a29.35 29.35 0 0 0-7.46-2.37c-7.79-1.19-17.78.84-24.72 7.62 8.64-2.2 16.6-.85 21.5 1.52a25.1 25.1 0 0 1 2.2 1.36 65.71 65.71 0 0 0 33.2 13.71 9.64 9.64 0 0 1-5.76 2.2c-7.96 1.7-12.87 1.02-20.66-.68a28.67 28.67 0 0 0-7.62-1.18c-7.96 0-17.44 3.56-23.2 11.35a32.72 32.72 0 0 1 21.5-1.87c.85.34 1.53.68 2.38 1.02a72.4 72.4 0 0 0 16.76 6.6 71.52 71.52 0 0 0 18.12 1.86 12.97 12.97 0 0 1-5.42 3.05c-7.45 2.71-12.53 3.05-20.32 2.37a39.84 39.84 0 0 0-7.79 0c-7.79 1.36-16.6 6.44-21.17 15.07a32 32 0 0 1 21-5.25c.85.17 1.53.34 2.37.51a66.76 66.76 0 0 0 35.9 2.88 12.57 12.57 0 0 1-4.9 3.9c-6.95 3.9-12.03 4.91-19.82 5.59a37.7 37.7 0 0 0-7.62 1.35 29.56 29.56 0 0 0-18.63 17.95 32.61 32.61 0 0 1 19.98-8.3 12.76 12.76 0 0 1 2.54.17 73.09 73.09 0 0 0 17.95 1.02 62.92 62.92 0 0 0 17.79-3.9 10.2 10.2 0 0 1-4.24 4.74c-6.26 4.91-11 6.6-18.63 8.47a28.62 28.62 0 0 0-7.28 2.54 29.7 29.7 0 0 0-15.58 20.66 32.67 32.67 0 0 1 18.3-11.35 12.84 12.84 0 0 1 2.53-.16 82.54 82.54 0 0 0 17.95-1.87 68.52 68.52 0 0 0 17.1-6.6 11.64 11.64 0 0 1-3.56 5.25c-5.41 5.93-9.82 8.47-17.1 11.35a51.65 51.65 0 0 0-6.77 3.55c-6.43 4.75-12.02 13.21-12.2 23.04a32.48 32.48 0 0 1 16.43-14.23c.85-.17 1.53-.34 2.37-.5 4.58-.85 9.32-1.36 17.45-4.58a74.7 74.7 0 0 0 15.92-9.14 12.19 12.19 0 0 1-2.71 5.58c-4.4 6.6-8.3 9.83-15.07 14.06a31.06 31.06 0 0 0-6.27 4.57 29.84 29.84 0 0 0-8.3 24.56 32.5 32.5 0 0 1 13.89-16.6c.84-.34 1.52-.68 2.37-1.02a65.77 65.77 0 0 0 16.42-7.11 67.5 67.5 0 0 0 14.23-11.69 10.45 10.45 0 0 1-1.7 6.1c-3.38 7.28-6.77 11.01-12.7 16.1a33.82 33.82 0 0 0-5.41 5.58c-4.58 6.44-7.29 16.26-4.4 25.57 1.86-8.8 6.6-15.24 11.17-18.46a14.1 14.1 0 0 1 2.03-1.35 77.44 77.44 0 0 0 15.25-9.82 67.25 67.25 0 0 0 12.19-13.55 13.74 13.74 0 0 1-.68 6.26c-2.2 7.62-4.91 11.86-10.16 17.79a28.8 28.8 0 0 0-4.4 6.43c-3.56 7.11-4.74 17.1-.5 25.91.67-8.97 4.4-16.09 8.3-19.98a8.9 8.9 0 0 1 1.86-1.7c3.72-2.87 7.62-5.42 13.37-12.02a69.27 69.27 0 0 0 10-15.41 12.88 12.88 0 0 1 .33 6.26c-1.01 7.96-3.04 12.54-7.1 19.31a29.95 29.95 0 0 0-3.57 6.94c-2.37 7.62-1.86 17.78 3.73 25.74-.85-8.97 1.7-16.6 4.91-21.16a18.02 18.02 0 0 1 1.53-1.87c3.21-3.38 6.77-6.6 11.51-13.88a69.98 69.98 0 0 0 7.28-16.77 11.6 11.6 0 0 1 1.36 6.1c.34 7.96-1.02 12.87-4.07 20.15a38.16 38.16 0 0 0-2.37 7.46c-1.18 7.79.85 17.78 7.62 24.72-2.2-8.64-.84-16.6 1.7-21.5a9.1 9.1 0 0 1 1.18-2.2 64.5 64.5 0 0 0 9.15-15.59 62.87 62.87 0 0 0 4.74-17.6 12.44 12.44 0 0 1 2.2 5.75c1.52 7.96 1.02 12.87-.85 20.66a28.67 28.67 0 0 0-1.18 7.62 29.55 29.55 0 0 0 11.51 23.2c-3.55-8.13-3.55-16.09-1.86-21.5a13.27 13.27 0 0 1 .85-2.38 72.4 72.4 0 0 0 6.6-16.76 71.52 71.52 0 0 0 1.86-18.12 11.37 11.37 0 0 1 3.05 5.42c2.88 7.45 3.05 12.53 2.54 20.49a23.04 23.04 0 0 0 0 7.62 29.52 29.52 0 0 0 14.9 21.33c-4.74-7.62-5.93-15.58-5.08-21a6.79 6.79 0 0 1 .5-2.54 73.02 73.02 0 0 0 3.9-17.6 82.08 82.08 0 0 0-1.01-18.3 14.33 14.33 0 0 1 3.89 4.91c3.9 6.95 4.91 12.03 5.59 19.82a28.65 28.65 0 0 0 1.18 7.62 29.84 29.84 0 0 0 18.12 18.63c-5.92-6.78-8.3-14.4-8.46-19.99a12.76 12.76 0 0 1 .17-2.54 65.46 65.46 0 0 0 1.01-17.95 68.01 68.01 0 0 0-3.72-17.78 11.93 11.93 0 0 1 4.57 4.23c4.9 6.27 6.77 11.01 8.64 18.63a28.22 28.22 0 0 0 2.37 7.28c3.72 7.12 11.17 13.9 20.83 15.58a32.14 32.14 0 0 1-11.52-18.29 12.84 12.84 0 0 1-.17-2.54 71.54 71.54 0 0 0-1.7-17.95 70.17 70.17 0 0 0-6.77-17.1 10.81 10.81 0 0 1 5.25 3.56c5.93 5.42 8.47 9.82 11.52 17.1a28.92 28.92 0 0 0 3.56 6.78c4.74 6.43 13.2 12.02 22.86 12.19a32.88 32.88 0 0 1-14.06-16.43 12.51 12.51 0 0 1-.68-2.37 67.99 67.99 0 0 0-4.57-17.44 64.28 64.28 0 0 0-9.14-15.75 10.33 10.33 0 0 1 5.76 2.54c6.6 4.4 9.82 8.3 13.88 15.07a32.99 32.99 0 0 0 4.57 6.27 29.84 29.84 0 0 0 24.56 8.3c-8.3-3.22-13.89-8.98-16.43-13.89a7.18 7.18 0 0 1-1.01-2.37 75.23 75.23 0 0 0-7.29-16.43 71.44 71.44 0 0 0-11.51-14.22 12.82 12.82 0 0 1 6.1 1.7c7.11 3.38 11 6.76 16.09 12.7a27.42 27.42 0 0 0 5.42 5.41 30.1 30.1 0 0 0 25.57 4.57c-8.64-2.03-15.07-6.77-18.46-11.34a14.1 14.1 0 0 1-1.36-2.04c-2.2-4.06-4.06-8.46-9.65-15.24a74.3 74.3 0 0 0-13.72-12.19 13.52 13.52 0 0 1 6.27.68c7.62 2.2 11.85 5.08 17.95 10.16a32.13 32.13 0 0 0 6.27 4.4c7.1 3.55 17.1 4.74 25.9.5-8.97-.67-15.91-4.4-19.98-8.3a8.9 8.9 0 0 1-1.69-1.86 72.18 72.18 0 0 0-11.85-13.38 78.44 78.44 0 0 0-15.41-9.99 12.75 12.75 0 0 1 6.26-.34c7.8 1.02 12.53 3.05 19.14 7.29a37.62 37.62 0 0 0 6.94 3.38c7.62 2.37 17.78 1.87 25.74-3.72-8.97.84-16.42-1.7-21-4.91l-2.03-1.53a69.02 69.02 0 0 0-13.89-11.52 67.01 67.01 0 0 0-16.76-7.28 12 12 0 0 1 6.1-1.36c8.13-.34 13.04 1.02 20.15 4.07a38.16 38.16 0 0 0 7.45 2.37c7.8 1.18 17.78-.85 24.73-7.62-8.64 2.2-16.43.84-21.51-1.7a13.94 13.94 0 0 1-2.2-1.18 72.82 72.82 0 0 0-15.41-9.15 79.12 79.12 0 0 0-17.78-4.74 12.41 12.41 0 0 1 5.92-2.2c7.8-1.52 12.87-1.01 20.5.85a28.67 28.67 0 0 0 7.62 1.18 30.46 30.46 0 0 0 23.36-11.34c-8.3 3.39-16.26 3.39-21.5 1.7a9.8 9.8 0 0 1-2.38-.85c-4.23-2.04-8.3-4.4-16.76-6.6a73 73 0 0 0-18.3-1.87 11.38 11.38 0 0 1 5.43-3.05c7.62-2.88 12.7-3.04 20.49-2.54a24.07 24.07 0 0 0 7.79 0 29.55 29.55 0 0 0 21.17-14.9c-7.63 4.75-15.42 5.93-21 5.25a14.14 14.14 0 0 1-2.54-.67 73.26 73.26 0 0 0-17.45-3.9 74.03 74.03 0 0 0-18.29 1.18 10.81 10.81 0 0 1 4.92-4.06c6.94-3.9 11.85-4.91 19.64-5.59a28.65 28.65 0 0 0 7.62-1.19c7.62-2.54 15.58-8.8 18.63-18.12a32.17 32.17 0 0 1-19.82 8.47 12.77 12.77 0 0 1-2.54-.17c-4.57-.68-9.31-1.7-17.95-1.01a65.05 65.05 0 0 0-17.95 3.9 12.47 12.47 0 0 1 4.24-4.75c6.26-4.9 11-6.77 18.62-8.63a29.38 29.38 0 0 0 7.46-2.37c6.94-3.73 13.88-11.18 15.58-20.83-5.76 6.94-12.87 10.5-18.46 11.51a12.84 12.84 0 0 1-2.54.17 69.78 69.78 0 0 0-17.78 1.7 65.31 65.31 0 0 0-17.1 6.77 10.46 10.46 0 0 1 3.38-5.25c5.42-5.93 9.82-8.47 17.1-11.52a26.95 26.95 0 0 0 6.95-3.55c6.26-4.74 11.85-13.21 12.02-22.86-4.57 7.62-11 12.19-16.26 14.05a14.11 14.11 0 0 1-2.54.68c-4.57.85-9.31 1.35-17.44 4.57a71.1 71.1 0 0 0-15.75 9.15 12.34 12.34 0 0 1 2.54-5.76c4.4-6.6 8.47-9.82 15.07-13.89a28.41 28.41 0 0 0 6.27-4.57c5.59-5.59 9.82-14.9 8.46-24.56-3.38 8.3-9.14 13.89-14.05 16.6a11.78 11.78 0 0 1-2.2.85 79.4 79.4 0 0 0-16.6 7.28 71.44 71.44 0 0 0-14.23 11.52 13.75 13.75 0 0 1 1.7-5.93c3.38-7.28 6.77-11 12.7-16.26a33.78 33.78 0 0 0 5.59-5.42c4.57-6.43 7.28-16.25 4.4-25.57-2.04 8.64-6.78 15.08-11.18 18.46a9.63 9.63 0 0 1-2.2 1.36c-4.07 2.2-8.47 4.06-15.07 9.65a63.75 63.75 0 0 0-12.19 13.7 10.3 10.3 0 0 1 .68-6.26c2.2-7.62 4.9-11.85 9.99-17.95 1.7-2.03 3.39-3.73 4.57-6.27a30.06 30.06 0 0 0 .34-25.9 31.66 31.66 0 0 1-8.13 19.98 17 17 0 0 1-1.86 1.69 68.23 68.23 0 0 0-13.55 12.02z" fill="#fedd00"/></svg>