<svg xmlns="http://www.w3.org/2000/svg" xmlns:xlink="http://www.w3.org/1999/xlink" viewBox="0 0 2000 1000"><path fill="#00afca" d="M0 0h2000v1000H0z"/><g fill="#fec50c" transform="translate(1080.47 420)"><circle r="134.55"/><g id="c"><g id="b"><path id="a" d="M0-152.9c8-.1 11-5.1 11-11.1 0-8-11-46.1-11-46.1S-11-172-11-164c0 6 3 11.1 11 11.1z"/><use xlink:href="#a" transform="rotate(90)"/><use xlink:href="#a" transform="rotate(180)"/><use xlink:href="#a" transform="rotate(270)"/></g><use xlink:href="#b" transform="rotate(22.5)"/><use xlink:href="#b" transform="rotate(45)"/><use xlink:href="#b" transform="rotate(67.5)"/></g><use xlink:href="#c" transform="rotate(11.25)"/></g><g fill="#fec50c"><path d="M1056.47 711.47c-3.6.2-7.1.66-10.54 1.76-4.7.64-9.2 2.27-13.86 3.04l-1.87.3-3.13.3c.2.86.33 1.73.33 2.6 0 .9-.1 1.76-.33 2.5-.2.7-.84 1.56-1.34 2.1a7.35 7.35 0 0 1-2.2 1.76 7 7 0 0 1-2.6.64 6.73 6.73 0 0 1-5.2-1.87 22 22 0 0 1-2.8.5c-.93.1-1.8.1-2.63 0-.93-.27-1.9-.57-2.8-.93s-1.77-.84-2.6-1.37c-3.4 2-7.2 3.9-9.27 7.4-1.16 1.6-1.4 3.43-1.66 5.33-.17 2.34.43 4.8 1.43 6.97.37.63.67-2.3 1.8-2.7a17.7 17.7 0 0 1 6.67-3.33c2.03-1.04 1.76.06.93 1.66-.2.84-1.33 4 .2 2.4 6.77-3 14.27-3.6 21.57-4.16 10.6-1.1 21.23-1.34 31.86-1.47 10 .13 20 .27 30 .63 4.77.14 9.57 1.2 14.27.4 1.13-.3 2.9-.36 3.57-1.03-2.14-1.23-4.64-1.27-7-1.57h-19.07c-5.3-.53-10.83-.6-15.83-2.6-1.34-.53-2.57-1.8-3.84-.43-1.9.67-3.93 1.13-5.93 1.27a23 23 0 0 1-10.23-1.77c2.33-3.23 5.13-6.07 7.7-9.07a80.13 80.13 0 0 1-6.14-1.26c3.64-2.5 7-5.34 10.54-8z"/><path d="M1212.2 746.01c-7.25 4.35-12.78-3.36-18.83-5.68-4.33 2.35-4.73 10.21-8.77 13.93-4.84 5.5-10.76-1.53-10.32-6.96-5.78 4.87-8.7 15.92-18.06 14.45-4.43-3.62-7.72-11.2-11.1-2.57-2.76 4.22-10.11 10.23-13.92 3.86-1.18-5.63-4-12.25-7.06-3.31-2.1 6.32-8.85 10.98-15.38 8.2-3.57-2.91 2.86-13.72-1.69-12.95-6.8 4.5-10.75 15.66-20.24 14.76-3.68-4.13 2.24-11.14-1.8-15.73-4.77 6.12-10.07 15.09-18.32 15.73-3.99-3.23.16-12.5-2.39-13.87-8.46 5.08-17.4 14.13-28.05 11.3 4.15-15.88 21.5-21.45 36.07-22.69 25.1-3.08 51.49 2.59 75.63-6.47 3.9-2.37 13.35-5.73 9.98-11.24-2.98-4.35 7.76-2.65 8.79-7.72-.64-6.43 4.93-5.55 10.36-6.11 24.38-1.05 48.46 4.08 72.76 4.95 1.84 11.85-11.3 20.16-21.87 16.5-5.06.82-12.63-11.61-11.15-2.57-1.02 4.75-.3 11.02-4.64 14.2m-207.4-24.26c5.64 5.17 9.6-.97 14.87-3.21 17.7-6.09 33.13-16.72 48.35-27.35 9.22-7.63 17.21-17.52 29.6-20 24.15-7.3 49.83-6.41 74.08-13.15 18.46-25.28 49.82-34.3 76.1-48.83 5.9-1.84 8.17-6.7 10.06-12.05 10.02-15.83 23.69-29.86 39.84-39.44 7.65-4.18 16.77-6.58 25.42-4.67-.62 10.3-6.53 19.44-13.67 26.57 5.84-.13 10.86-3.82 16.76-3.61 2.03 10.57-9.4 16.11-15.47 22.7 3.38.78 16.35 1.77 9.28 5.16-9 6.25-19.29 10.54-27.6 17.8 7.67 1.37 8.54 3 .75 5.78-4.23 2.86-12.35 3.86-13.13 9.43 5.8 3.57-2.67 7.1-5.93 8.26-6.24 1.45-12.8 4.16-4.51 8.9-3.14 4.74-9.87 5.75-15.36 5.29 1.67 5.37 4.08 11.37-2.89 13.74-15.62 11.81-33.96 20.4-53.6 22.37 24.54 1.89 49.8-2.67 70.77-16.01 2.77-3.27 17.29-6.79 9.17-9.54-3.82-1.6-12.02-3.36-12.57-6.27 11.35-7 25.66-4.52 37.88-8.68.31-3.95-9.3-2.85-12.88-3.75-8.54-.7-8.04-2.88.2-3.7 10.42-2.75 22.23-3.3 31-10.09-7.15-3.3-16.12-.4-23.74-3.1 12.91-5.65 28.14-6.21 39.73-14.7 5.27-5.87-6.76-4.04-10.27-3.9-7.15 1.25-10.46-2.17-2.33-5.14 13.87-10.23 31.43-16.87 41.17-31.7 2.31-3.32 5.44-13.32-1.92-9.72-9.69 3.22-18.2 14.1-29.23 10.73 21.73-16.84 42.41-36.02 57.26-59.33.77-6.72-9.78-7.45-12.53-2.17-13.96 13.46-26.6 29.34-44.47 37.77 17.12-16.52 31.27-36.09 43.62-56.37 2.65-6.03 9.77-13.29 5.9-19.98-6.22-5.16-14.01-.44-17.24 5.73-10.86 14.17-19.1 30.7-33.06 42.25 12.22-23.32 24.87-48.15 25.18-75.05-.04-5.54-1.15-13.7-8.67-12.66-5.96 1.07-4.55 10-7 14.5-5.41 18.38-7.95 38.28-19.05 54.38 2.5-14.94 6.86-30.5 3.5-45.58-1.56-6.74-12.44-3.84-11.04 2.83-13 65.86-57.2 123.46-114.99 156.78-26.46 14.97-56.02 24.62-86.1 29-8.09 1.77-16.83.73-24.57 3.49-18.73 14.37-30.08 38.4-53.8 45.93-10.63 5.29-24.5 6.36-32.1 16.24a8.57 8.57 0 0 0-.77 4.12"/><path d="M1075.8 654.95c-3.5 6.35-5.56 13.66-10.06 19.35-13.54-12.32-33.17-11.92-50.35-12.74-14.17-.75-29.6-2.06-40.56-12.17-11.54-9.46-20.96-21.73-33.85-29.4-11.77-3.2-23.63-7.2-33.1-15.27-20.22-16.48-31.8-40.93-51.55-57.93-3.77-3.7-8.21-6.58-12.43-9.73-4.01.98-2.2 9.63-7.1 5.22-2.68-1.9-9.35-2.08-9.96.57 6.04 7.96 12.1 17.05 12.93 27.23-4.12.42-11.45-.87-13.49.67A84.26 84.26 0 0 0 846.73 592c-3.82.61-11.35.28-12.81 1.82 7.9 6.44 16.39 13.03 26.74 14.69 2.12 2.8-3.1 8.19 1.3 10.57 2.54 1.04 10.94 2.78 5.15 5.68-3.97 2.68-2.5 8.91 2.58 8.77 3.21 1.64 10.42 2.04 10.98 4.88-2.84 2.9-11.7 6.33-4.16 9.04 7.04 3.9 15.07 6.44 23.1 6.72-4.03 3.4-9 5.32-13.15 8.51 18.55 10.88 39.11 18.03 59.43 24.92 8.1 2.7 16.28 5.22 24.66 6.8-24.37-1.4-47.92-8.61-70.11-18.49a626 626 0 0 0-34.88-14.26c5.17-2.7 11.15-3.35 16.51-5.68-11.13-2.23-23.28-2.96-33.06-9.07 1.5-2.68 7.18-2.8 10.32-4.17 5.91-1.41 9.58-3.13 1.25-3.64-8.41-2.29-18.05-1.26-25.46-6.33.48-3.04 8.23-1.98 11.39-3.3 3.97-.68 8.4-1.25 11.57-3.93-13-5.38-29.99-1.57-40.17-13.04-2.34-4.37 7.3-.85 10.04-1.58 6.97 0 14.46 2.22 21.1-.6-18.93-8.3-39.21-16.09-53.65-31.47-1.6-2.47-6.4-9.22-2.53-10.06 11.24 1.5 19.37 13.76 31.4 11.85 1.6-2.15-6.99-5.68-9.13-8.76-17.53-15.04-34.54-31.36-46.83-51.07-.84-6.58 9.5-7.56 12.22-2.48 13.4 12.91 25.52 27.98 42.21 36.8 5.93 2.86-3.4-3.4-4.64-5.68-15.43-17.92-30.11-36.84-40.9-57.94-1.93-3.8-5.12-10.68.65-12.7 5.77-2.9 11.5 1.04 14.43 6 11.34 14.3 19.69 31.3 33.82 43.23-12.04-23.36-24.9-47.95-25.2-74.83.28-5.21.61-13.1 7.68-12.88 5.93-.9 5 6.7 6.94 10.32 5.84 19.74 8.4 41.12 20.12 58.55-2.59-14.65-6.4-29.73-3.87-44.62.59-4.9 6.09-6.37 9.68-3.42 2.9 7.11 3.51 15.9 6.16 23.5 15.06 51.51 48.88 96.83 92.94 127.23a244.75 244.75 0 0 0 123.32 42.35c3.97.34 7.96.46 11.93.7"/><circle cx="1020" cy="720.89" r="2.37"/><circle cx="1019.8" cy="720.51" r=".96" stroke="#00afca" stroke-width=".38"/></g><g fill="#fec50c"><g id="f"><g id="e"><path d="M120 72.92s-9.61-8.07-12.87-4.02c-5.25 6.51 16.14 38.96 16.14 50.4 0 18.75-12.52 23.85-27.98 26.53-10.37 1.8-27.26-.75-27.26-.75 3.18-4.27 5.25-5.53 10.61-5.87a22.33 22.33 0 0 1-12.04-20.29c0-16.14 6.64-22.79 6.64-40.98 0-10.1-8.27-22.94-8.27-22.94 14.63 1.46 21.88 15 17.75 25.83a7.14 7.14 0 0 0 6.26-1.9c1.07 3-.62 6.48-2.88 9.48 1.82.97 3.16.39 6.06-.21-.27 3.09-2.12 6.37-6.66 9.46 13.15-3.41 21.25 5.76 21.25 15.35 0 7.25-5.08 12.44-10.05 12.44-1.6 0-3.96-.66-5.29-1.65-.94 2-.45 4.67.51 6.66-3.64-.96-5.95-3.12-4.3-7.62-2.8-.26-5.02-1.2-6.53-3a7.78 7.78 0 0 1 6.53-3c-2.04-4.2.23-6.55 3.54-8.46 0 0-2.1 8.46 3.26 8.46 2.41 0 4.61-.79 4.61-4.34 0-3.1-2.7-7.4-8.96-7.12-6.26.28-11.33 4.32-11.33 14.3 0 9.22 7.43 13.8 17.22 14.1 8.84.28 15.5-4.5 15.5-13.62 0-12.13-17.5-39.77-17.5-50.58 0-8.11 7.29-12.64 14.42-12.64 9.26 0 17.06 9.16 17.06 9.16l-5.43 6.82z"/><path id="d" d="M122.02 292.14c0 20.27-18.2 30.69-32.5 30.69-19.26 0-29.52-11.52-29.52-26.6 0-8.55 1.56-13.91 5.5-22.1 0 0 31.79-66.08 44.16-91.65 1.54-3.18 2.04-6.81 2.04-12.13 0-8.22-7.97-14.94-16.33-15.14-7.62-.2-15.92 7.1-15.92 15.41 0 10.1 5.24 14.6 10.62 14.6 6.61 0 9.25-2.73 9.25-7.37 0-3.24-1.57-4.64-3.81-4.64-5.68 0-4.08 7.64-4.08 7.64a5.2 5.2 0 0 1-3.81-7.1 10.1 10.1 0 0 1-5.51-3.27 10.33 10.33 0 0 1 5.5-3c-1.32-4.38.45-6.53 4.3-7.43a7.65 7.65 0 0 0-.55 4.7c6.04-1.71 15.3 1.02 15.3 11.46 0 10.37-7.19 19.1-20.68 16.91 3.21 1.54 4.84 4.68 5.17 8.19-2.45-.96-5.17-1.1-5.17-1.1 1.58 2.79 3.77 5.18 3.68 10.64-2.5-1.13-4.83-3.24-8.03-1.9 5.03 9.9-1.15 23.5-16.87 26.73 5.75-6.75 8.57-14.03 8.57-21.28 0-23.5-6.53-27.45-6.53-43.78 0-6.84 3.51-14.22 10.48-19.23v.27c-4.6-1.23-7.55-3.5-9.25-6.58 10.52-2.98 25.8-2.92 34 .3 9.44 1.1 16.03 8.34 17.97 12 1.94 3.68 5.7 16.96 0 28.92-6.25 13.09-35.71 75.56-44.9 95.2a31.2 31.2 0 0 0-3.13 13.37c0 12.03 11.02 16.23 17.28 16.23 7.48 0 15.1-5.7 15.1-12.82 0-4.52-2.45-7.23-5.99-7.23-8.45 0-7.94 7.2-6.25 11.73-5.27-2.37-8.33-6.6-7.49-11.05-2.98-.41-5.81-1.82-8.43-4.77 2.06-2.6 4.57-4.57 8.43-4.64-1.68-6.91 2.94-9.84 7.49-11.46-1.44 5.07-2.38 10.91 6.25 10.91 6.3 0 11.26 1.1 14.15 5.19.17-5.46.68-27 .68-27 .37-8.1-10.83-7.88-17.95-5.46 2.68-9.33 8.2-14.38 20.95-13.1-3.1-1.3-6.4-4.2-6.4-9.82 0-7.6 6.17-16 10.2-18.49l2.03 79.05z"/><use xlink:href="#d" transform="matrix(1 0 0 -1 0 645.08)"/></g><use xlink:href="#e" transform="matrix(-1 0 0 1 240 0)"/></g><use xlink:href="#f" transform="matrix(1 0 0 -1 0 1000)"/></g></svg>