<svg xmlns="http://www.w3.org/2000/svg" viewBox="0 0 750 500"><path fill="#ed1c24" d="M0 0h750v500H0z"/><path fill="#fff" d="M0 125h750v250H0z"/><path fill="#00a651" d="M371.59 125c-5.37 11.3-15.47 19.2-25.13 26.67-1.6 1.39-5.54 4.08-2.68 6.12 2.46-2.74 9.2.9 5.28 3.84-3.5 3.29-8.34 4.49-12.23 7.2-3.45 1.87-6.95 3.83-9.69 6.7-.18 4.48 5.56 2 7.9 3.87 3.03 3.25-1.3 8.72-5.28 7.47-5.1.16-8.62 4.64-10.54 8.92-3.99 6.16-11.55 7.99-17.56 11.5-3.44 2-6.78 4.23-9.99 6.57-4.13 2.82-.53 8.41 3.86 7.04 4.75-.47 9.02-4.2 13.93-3.13 4.45 1.57 5.7 7.39 4.18 11.45-1.12 3.26-3.84 5.55-6.03 8.1a26.56 26.56 0 0 1-13.06 7.03 25.94 25.94 0 0 0-12.07 8.38c-3.6 3.62-7.18 7.3-11.31 10.32-1.3 3.33 2.38 6.17 5.45 6.08 6.47-.4 10.96-5.7 16.47-8.43 4.57-2.05 9.96 2.88 8.84 7.64-.35 4.64-4.7 7-8.56 8.42-11.34 5.7-21.2 13.97-29.94 23.1-1.8 3.69-6.78 2.6-9.46 5.17-1.74 3.26 2.63 4.98 5.25 4.64 11.22-1.35 21.7-6.1 31.62-11.31 3.69-1.77 7.15-4.09 10.99-5.5 3.6-.88 8.63.68 9.27 4.78 0 4.33-4.3 6.73-7.69 8.42-10.47 5.5-21.97 8.55-33.17 12.19-4.19-1.18-7.34 6.28-2.75 7.62 4.87 1.67 10.03.33 15 .11 15.39-2.35 28.84-10.67 43.21-16.05 5.98-1.95 13.03.77 15.98 6.37a15.87 15.87 0 0 1-.43 16.4c-4.94 10.57-12.45 20.28-22.53 26.36-6.33 3.13-13.72 4.33-19.14 9.13-5.02 1.65 2.51 8.43 3.6 3.05 3.02-4.1 8.33-5.34 13.15-5.5 7.25-.8 14.95-2.13 20.58-7.15 5.05-3.92 10.02-9.33 16.88-9.41 3.79.45 7.53 3.49 11.38 1.63 3.37-1.54 8.65-.64 9.53 3.5 1.6 4.85 6.6 7.05 10.55 9.64 1.44 2.01 6.2 7.2 7.3 2.63-.9-3.27.37-8.26 4.65-7.17 3.74.17 7.3 1.55 11.04 1.77 4.96 1.03 9.1 4.43 11.93 8.54 1.94 2.68 6.2 7.29 9.35 3.73 1.96-3.67-1.78-6.74-4.83-8.05-4.44-2.75-8.24-6.42-12.12-9.9-5.72-5.34-10.67-12.14-11.58-20.12-1.23-7.97-.58-16.09.46-24.03 1.3-5.11 7.85-7.9 12.42-5.19 6.43 2.94 12.82 7.14 20.2 6.68 10.65.23 21.6-1.81 32.02 1.28 10.13 3.2 17.38 11.74 27.25 15.44 2.2 1.35 5.03.07 5.84-2.3a4.77 4.77 0 0 0-1.75-6.04c-11.44-11.54-27.08-17.15-40.32-26.18-4.16-1.06-4.92-7.76-1.07-9.7 5.07-3.68 12.23-1.97 16.73 1.83 3.8 2.22 8.07 3.89 12.52 3.9 4.56-1.44 2.35-8.04-1.73-8.53-7.4-4.18-12.7-11.04-19.11-16.47-3.7-3.12-7.73-6.29-12.7-6.9-2.7-.49-5.48-.6-8.23-.41-2.57-2.8.86-7.09 4.2-6.74 3.41.23 6.81.49 10.22.01 3.82-.28 7.63-.67 11.46-.7 3.09 2.1 9.27-1.53 6.48-5.16-3.05-2.67-7.46-2.44-11.1-3.8-6.4-2.1-12.9-3.8-19.5-5.13-4.6-.28-4.04-6.35.01-7.02 2.66-.99 4.96 1.05 7.5 1.37 4.36.93 8.85.92 13.2 1.87 3.68-1.82.83-7.2-2.5-7.52-7.87-2.81-14.67-7.89-21.31-12.83-7.34-5.51-14-11.9-21.42-17.28-2.7-1.67-7.11-2.15-7.82-5.86-.25-3.4 3.76-4.95 6.6-4.15 4.03 1.19 7.78 3.26 11.89 4.28 3.22.54 6.55 1.5 9.65 1.1 3.94-2.49-1.69-4.07-3.73-4.93-5.26-2.83-9.93-6.61-14.66-10.22-4-3.4 3.4-4.92 5.93-3.6 4.25 1.78 4.74-4.42 1.56-5.98-3.74-1.59-6.96-4.23-10.35-6.53-6.14-4.37-13.08-7.82-20.62-8.78a28.08 28.08 0 0 1-20.83-12.94c-2.78-4.12-4.82-8.68-6.8-13.22zm-27.76 47.42c4.36.13 3.69 7.98-.6 7.45-4.17-.26-3.91-8.3.6-7.45zm41.1 4.23c4.23-.76 5.13 6.97.9 7.34-4.42.79-6.05-7.83-.9-7.34zm-12.04 1c4.3.85 3.53 8.34-.8 8.4-3.18.7-6.6 2.87-9.81 1.25-2.61-2.76 1.16-6.84 4.08-7.74 2.23-.45 4.29-1.47 6.53-1.9zm27.7.04c4.14 1.5 2.68 8.82-1.7 8.72-4.12.56-6.05-6.33-2.2-7.97 1.25-.44 2.56-.81 3.9-.75zm-46.73 8.29c3.05 2.9 1.25 8.49-2.5 9.83-2.71 1.5-6.4 5.06-9.35 2.13-1.6-3.58 2.41-6.27 4.78-8.26 2.1-1.64 4.43-3.12 7.07-3.7zm34.78 16.16c4.36 2.06 2.15 9.92-2.64 9.43-3.93-1-3.42-7.74.54-8.27.75-.29 1.44-.71 2.1-1.16zm-13.84.78c4.08 1.91.97 8.72-3.14 7.74-4.26-.5-4.18-7.99.52-7.31.88-.05 1.8-.07 2.62-.43zm29.83 3.9c4.47-1.38 9.85 3.22 8.4 7.9-2 3.61-6.92 4.07-10.45 2.72-4.05-.2-6.78-6.3-3.17-8.87a9.92 9.92 0 0 1 5.22-1.74zM338.6 208c3.7-2.01 7.62 4.03 4.48 6.7-2.08 3.05-7.43 4.3-9.79.9-1.95-3.32 1.21-8.9 5.31-7.6zm-17.05 2.86c4.2.57 6.92 4.38 8.47 8 .38 4.42-6.14 6.85-8.98 3.63-3.2-2-6-6.13-4.32-9.96a4.51 4.51 0 0 1 4.83-1.67zm102 15.97c4.55-1.2 7.86 6.07 3.95 8.7-3.57 3.24-10.52-1.05-8.65-5.68a5.98 5.98 0 0 1 4.7-3.02zm-57.9 8.3c3.81.48 2.58 7.09-.95 6.87-3.78-.7-2.92-7.25.95-6.88zm-19.35 3.5c3.11-2.2 7.12 3.18 4.54 5.68-3.1 2.18-7.13-3.1-4.54-5.68zm30.77.65c3.6 2.2 5.74 6.28 6.2 10.4-1.74 3.86-8.41 2.93-9.16-1.17-1.32-3.25-.1-7.42 2.96-9.23zm10.73 6.38c4.65-1.17 2.98 8.54-.9 5.18-1.29-1.54-.6-4.06.9-5.18zm-67.43 6.76c3.08-.9 7.56.05 8.41 3.58.36 3.32-3.29 5.05-5.96 5.87-4.29 1.32-8.48 3.5-13.1 3.2-3.45-1.97-4.69-6.01-5.92-9.54 3.34-3.13 8.25-2.2 12.38-3a96 96 0 0 1 4.2-.1zm104.6 15.22c3.93-1.92 8.15 4.31 4.86 7.22-4.1 4.73-12.02 5.61-16.94 1.64-.59-4.2 3.6-7.23 7.3-7.83 1.57-.44 3.12-1.1 4.78-1.03zm22.06 4.78c4.46-.76 7.98 5.6 4.8 8.9-3.02 4.54-10.21 5.73-14.32 2-1.6-3.76 1.65-7.7 5.1-8.9 1.5-.63 2.9-1.44 4.42-2zM336.1 279.2c4.13-.4 7.92 3.69 7.38 7.76 2.99 2.94-2.3 8.43-5.29 5.38-2.62-3.18-2.6-7.5-3.63-11.3-.04-.85.58-1.94 1.54-1.84zm31.71 2.37c4.27-1.84 9.8 3.27 7.47 7.6-1.66 3.51-8.13 2.33-7.92-1.75 0-1.95-.17-3.95.45-5.85zm-15.42 2.77c4.28-.98 8.2 4.57 5.83 8.27-4.27.38-6.49-4.69-5.83-8.27z"/></svg>