<svg xmlns="http://www.w3.org/2000/svg" xmlns:xlink="http://www.w3.org/1999/xlink" viewBox="0 0 1000 600"><path fill="#002b7f" d="M0 0h1000v600H0z"/><path fill="#ce1126" d="M0 300h1000v300H0z"/><g fill="#ffd83d" stroke="#000" stroke-width="2" stroke-linecap="round" stroke-linejoin="round"><g id="a"><path d="m216.38 122.29-1.84 62.5h-63.42c-7.8-15.17-14.25-28.05-14.25-45.5 0-14.6 11.49-26.2 28.04-26.2 17.52 0 36.77 5.91 51.47 9.2z" stroke="none"/><g stroke-width="1.5"><path d="M144.46 125.16v36.08m5.09-39.76v48.03m5.09-50.56v57.23m5.1-58.41v44.88m5.09-45.1v45.32m5.09-46.91v46.89m5.1-46.89v46.89m5.09-46.43v46.89m5.09-46.43v46.89m5.1-43.9v46.89m5.1-46.43v52.86m5.08-52.86v46.89m5.1-46.89v46.89"/><path d="M176.4 117.92c10.76 1.78 34.4 12.84 31.7 27.8-3.82 21.22-16.2 12.7-32.62 9.66l-12.41 4.13c-4.44 4.53-10.98 8.69-15.4 3.22h-7.35v28.72h81.34v-69.4z" fill="#000"/></g><circle cx="212.82" cy="112.98" r="4.94"/><circle cx="201.71" cy="110.31" r="4.94"/><circle cx="190.45" cy="107.48" r="4.94"/><circle cx="179.14" cy="105.6" r="4.94"/><circle cx="167.84" cy="104.48" r="4.94"/><circle cx="156.75" cy="105.11" r="4.94"/><circle cx="146.18" cy="108.73" r="4.94"/><circle cx="137.28" cy="115.28" r="4.94"/><circle cx="130.96" cy="124.41" r="4.94"/><circle cx="127.91" cy="135.16" r="4.94"/><circle cx="128.03" cy="146.3" r="4.94"/><circle cx="130.15" cy="157.22" r="4.94"/><path d="m215 119.53-.46 6.44c-12.3-1.89-29.72-8.74-45.96-8.74-15 0-26.65 6-26.65 21.14 0 14.92 6.32 28.49 14.7 42.28l-8.73 4.14c-7.8-15.17-14.24-28.05-14.24-45.5 0-14.6 11.48-28.95 31.25-28.95 17.52 0 35.39 5.9 50.09 9.2z"/></g><use xlink:href="#a" transform="matrix(-1 0 0 1 443.94 0)"/><path d="m221.97 53.13-5.16 9.65 5.16 9.63 5.16-9.63-5.16-9.66zm0 24.37-5.16 9.63 5.16 9.65 5.16-9.66-5.16-9.62zm-18.38-2.55 8.13 5.16 8.1-5.16-8.1-5.15-8.13 5.15zm20.52 0 8.1 5.16 8.14-5.16-8.13-5.15-8.1 5.15z"/><circle cx="221.97" cy="75.07" r="3.91"/><circle cx="221.97" cy="100" r="10.45"/><path d="M219.34 89.88c0 3.1-.02 4.92-.03 6.62-2.52.11-5 .38-7.44.78m20.2 0c-2.44-.4-4.92-.67-7.44-.78v-6.63m-12.79 12.7a61.4 61.4 0 0 1 20.25 0" fill="none" stroke-width="1.5"/><path d="M211.75 117.69c-1 17.08-3 34.48-9.66 47.12l10.82-4.37c3.77-14.33 4.57-32.85 5.72-41.6l-6.88-1.15zm20.44 0-6.88 1.15c1.15 8.75 1.94 27.27 5.72 41.6l10.81 4.37c-6.64-12.64-8.66-30.04-9.65-47.12z"/><path d="M221.95 154.69c-12.91 0-22.4 6.08-22.97 21.6-3.15-5.56-16.5-23.03-28.96-20.7-7.41 1.4-13.96 11.67-12.85 23.44-6.13-17.63-24.1-20.52-37.22-10.1 11.65 9.58 16.82 37.84 26.63 50.1h150.75c9.8-12.26 15.01-40.52 26.65-50.1-13.1-10.42-31.08-7.53-37.21 10.1 1.1-11.77-5.47-22.05-12.88-23.44-12.46-2.33-25.78 15.14-28.94 20.7-.57-15.52-10.08-21.6-23-21.6z"/><g stroke-width="1.5"><path d="M297.1 219.03c0 5.58-33.66 11.71-75.13 11.71-41.48 0-75.14-6.13-75.14-11.71 0-5.59 33.66-8.5 75.14-8.5 41.47 0 75.14 2.91 75.14 8.5z" fill="#000"/><circle cx="221.97" cy="114.44" r="3.5"/><circle cx="221.97" cy="122.03" r="3.73"/><circle cx="221.97" cy="130.18" r="4.08"/><circle cx="221.97" cy="139.26" r="4.65"/><circle cx="221.97" cy="149.37" r="5.11"/><path d="M219.94 159.2c-.56 0-1.08.46-.94 1.35.16 1.04.37 3 .56 4.31.22 1.5 1.1 1.13 1.32-.03.22-1.16.13-1.9.18-4.06.03-1.08-.57-1.56-1.12-1.56zm4.06 0c-.55.01-1.15.49-1.12 1.57.05 2.16-.04 2.9.18 4.06.22 1.16 1.1 1.53 1.32.03.19-1.32.4-3.27.56-4.31.14-.89-.39-1.35-.94-1.34zm-7.69.57c-.5.07-1.03.58-1 1.12.06 1 .33 2.2.44 3.7.11 1.54 1.2.94 1.31.05.11-.88.24-2.19.13-3.9-.04-.65-.32-.93-.66-.97a.84.84 0 0 0-.22 0zm11.1 0c-.34.04-.62.32-.66.97-.11 1.71.01 3.02.13 3.9.1.89 1.2 1.49 1.3-.06.11-1.5.39-2.7.45-3.69.03-.54-.5-1.05-1-1.12a.84.84 0 0 0-.22 0zm-15.44 1.75c-.46.12-.89.67-.75 1.31.28 1.27.53 2.68.53 3.97 0 1.1.94.71 1-.06.06-.78.16-2.42.16-3.9 0-1.12-.48-1.44-.94-1.32zm19.69 0c-.33.09-.63.47-.63 1.31 0 1.5.1 3.13.16 3.9.05.78 1 1.18 1 .07 0-1.3.25-2.7.53-3.97.14-.64-.29-1.2-.75-1.31a.55.55 0 0 0-.31 0zm-59.1.17c-.55-.02-.94.73-.56 1.56.6 1.33 1.25 2.17 1.88 3.6.55 1.27 1.4.47 1.12-.41-.28-.89-.58-1.87-1.4-3.75-.32-.7-.7-.99-1.04-1zm98.82 0c-.34.01-.73.3-1.04 1a28.65 28.65 0 0 0-1.4 3.75c-.28.88.57 1.68 1.12.4.62-1.42 1.27-2.26 1.88-3.59.38-.83-.01-1.58-.56-1.56zm-94.82.06c-.4.13-.65.64-.4 1.25.5 1.22 1.21 2.47 1.72 3.78.44 1.16 1.42.83 1.09-.22-.33-1.05-.43-1.66-1.1-3.65-.33-1-.9-1.28-1.3-1.16zm90.5 0c-.35.08-.75.41-1 1.16-.66 1.99-.76 2.6-1.1 3.65-.32 1.05.66 1.38 1.1.22.5-1.31 1.22-2.56 1.72-3.78.25-.6 0-1.12-.4-1.25a.6.6 0 0 0-.32 0zm-85.5.97c-.51.1-.91.88-.56 1.84.44 1.22 1.07 2.37 1.63 3.75.55 1.39 1.47 1.1 1.25.22-.23-.88-.5-2.35-1.16-4.56-.3-.97-.76-1.33-1.16-1.25zm80.82 0c-.4-.08-.87.28-1.16 1.25-.67 2.21-.94 3.68-1.16 4.56-.22.89.7 1.17 1.25-.22.56-1.38 1.18-2.53 1.63-3.75.35-.96-.05-1.74-.56-1.84zm-93.2.69c-.55.05-1.06.96-.71 1.65.55 1.11.9 1.49 1.44 2.66.55 1.22 1.16.27.93-.5-.22-.77-.5-1.68-.78-2.78-.2-.81-.54-1.07-.87-1.03zm105.57 0c-.33-.04-.67.22-.87 1.03-.28 1.1-.56 2-.79 2.78-.22.77.39 1.72.94.5.54-1.17.89-1.55 1.44-2.66.34-.69-.16-1.6-.72-1.65zm-67.03 2.8c-.58 0-1.2.77-1 1.5.33 1.16.84 2.19 1.22 3.68.33 1.33 1.27.67 1.22-.22a29.2 29.2 0 0 0-.6-3.96c-.14-.7-.5-1-.84-1zm28.5 0c-.35 0-.7.3-.84 1a28.69 28.69 0 0 0-.6 3.96c-.05.89.89 1.55 1.22.22.37-1.5.89-2.52 1.22-3.68.2-.73-.42-1.5-1-1.5zm-14.25 1.18c-.72 0-.82.97-.84 1.75a12.31 12.31 0 0 1-2.07 6.32c-.91 1.24-2.25.9-3.5.25a22.3 22.3 0 0 1-3.31-2.16c-1.33-1-2.33-.41-.75 1.84 4.62 6.58 9.63 12.2 9.63 22.94 0 1.39.24 1.81.84 1.81s.87-.42.87-1.8c0-10.74 4.98-16.37 9.6-22.95 1.58-2.25.57-2.84-.75-1.84a22.3 22.3 0 0 1-3.31 2.16c-1.25.66-2.6.99-3.5-.25a12.31 12.31 0 0 1-2.07-6.32c-.02-.78-.12-1.75-.84-1.75zm-35.28-1.6a.6.6 0 0 0-.19.02c-.27.09-.45.41-.34.97.18 1 .88 2.97 1.15 3.9.28.95 1.44.75 1.16-.52s-.26-1.66-.6-3.1c-.18-.78-.74-1.26-1.18-1.28zm70.56 0c-.44 0-1 .49-1.19 1.27-.33 1.44-.31 1.83-.6 3.1-.27 1.27.89 1.47 1.17.53.27-.94.97-2.9 1.15-3.9.1-.57-.07-.9-.34-.98a.6.6 0 0 0-.19-.03zm-91.53.4c-.58.04-1 .77-.4 1.84.63 1.16 1.71 2.61 2.21 3.44.5.83 1.36.27.75-.78-.6-1.05-.81-2.26-1.53-3.75-.27-.56-.68-.78-1.03-.75zm112.5 0c-.35-.03-.76.19-1.03.75-.72 1.5-.93 2.7-1.53 3.75-.61 1.05.25 1.61.75.78.5-.83 1.58-2.28 2.22-3.44.58-1.07.17-1.8-.41-1.84zm-144.19 3.33c-.67-.04-.88 1.17-.25 1.97a19.04 19.04 0 0 0 2.6 2.72c.82.74 1.07-.23.65-.97-.41-.75-1.01-1.5-1.84-2.75-.46-.68-.86-.96-1.16-.97zm175.88 0c-.3.01-.7.29-1.16.97-.83 1.24-1.43 2-1.84 2.75-.42.74-.18 1.71.65.97a19.04 19.04 0 0 0 2.6-2.72c.62-.8.41-2-.25-1.97zm-170.85 1c-.53 0-.88.4-.47 1.31.6 1.3 1.38 2.79 1.88 3.78.5 1 2.01 1.33 1.4-.22-.6-1.54-.72-2.34-1.28-3.78-.27-.72-1-1.1-1.53-1.1zm165.82 0c-.54 0-1.26.37-1.54 1.1-.55 1.43-.67 2.23-1.28 3.77-.6 1.55.91 1.22 1.4.22.5-1 1.29-2.47 1.88-3.78.42-.91.07-1.3-.46-1.31zm-175.57.34c-.77.01-.84.79-.15 1.28.9.67 2 1.4 3.06 2.25 1.24 1 1.72.08 1.06-.75-.66-.83-1.3-1.67-2.97-2.5-.41-.2-.74-.28-1-.28zm185.32 0c-.26 0-.59.08-1 .28-1.66.83-2.31 1.67-2.97 2.5-.67.83-.19 1.75 1.06.75 1.06-.85 2.15-1.58 3.06-2.25.69-.5.62-1.27-.15-1.28zm-109.66.72c-.43.06-.8.55-.63 1.19.34 1.16.71 2.39.94 3.6.22 1.15 1.57 1.17 1.35.12-.23-1.05-.34-2.37-.72-3.97-.15-.6-.45-.9-.75-.94a.64.64 0 0 0-.2 0zm33.81 0c-.3.05-.6.34-.75.94-.39 1.6-.5 2.92-.72 3.97-.22 1.05 1.12 1.03 1.35-.13.23-1.2.6-2.43.93-3.6.19-.63-.19-1.12-.62-1.18a.64.64 0 0 0-.19 0zm-63.9-1.98c-.34.09-.54.74-.29 1.65 1.41 5.06 1.85 7.73 1.6 8.97-.25 1.24-.93 1.42-1.85 1a18.84 18.84 0 0 1-2.8-1.6c-.84-.57-1.7.12-.5 1.1 6.05 4.98 10.24 10.66 11.87 17.56.33 1.41 1.21 1.58.97 0-1.38-8.69-1.64-15.83.43-20.3.78-1.7 0-3.3-1.25-.57-.83 1.82-2.17 2.54-3.25.97a48 48 0 0 1-3.97-7.7c-.25-.7-.55-1.04-.8-1.08a.35.35 0 0 0-.16 0zm94.03 0c-.26.04-.57.37-.82 1.09a48 48 0 0 1-3.96 7.69c-1.08 1.57-2.43.85-3.25-.97-1.25-2.74-2.03-1.12-1.25.56 2.07 4.48 1.8 11.62.43 20.31-.25 1.58.64 1.41.97 0 1.62-6.9 5.82-12.58 11.88-17.56 1.19-.98.33-1.67-.5-1.1-.83.59-1.9 1.19-2.82 1.6-.9.42-1.6.24-1.84-1-.25-1.24.18-3.9 1.6-8.97.25-.91.05-1.56-.29-1.65a.35.35 0 0 0-.15 0zm-124.47 2.42c-.55 0-1 .39-.75 1.22.4 1.33 1.22 2.76 1.5 3.6.27.82 1.16.43 1-.73-.17-1.16-.25-1.85-.47-3.12-.11-.64-.74-.98-1.28-.97zm155.06 0c-.55 0-1.17.33-1.28.97-.22 1.27-.3 1.96-.47 3.12-.17 1.16.72 1.55 1 .72.28-.83 1.1-2.26 1.5-3.6.25-.82-.2-1.2-.75-1.21zm-136.28-1.74c-.64-.11-.73 1.53-.19 2.2.72.88 1.72 1.95 2.72 3.15.83 1 1.34.1.84-.72-.5-.83-1.23-1.71-2.56-3.81-.33-.53-.6-.78-.81-.82zm117.5 0c-.21.04-.48.29-.81.82-1.33 2.1-2.07 2.98-2.57 3.8-.5.84.02 1.72.85.73 1-1.2 2-2.27 2.72-3.16.54-.66.44-2.3-.2-2.19zm-132 3.96c-.4-.03-.73.29-.56 1.1.23 1.1.56 2.03.84 3.08.28 1.06 1 .88 1-.12s-.18-2.1-.34-3.16a1.1 1.1 0 0 0-.94-.9zm146.5 0c-.4.02-.86.38-.94.9-.16 1.05-.34 2.16-.34 3.16s.72 1.18 1 .12c.27-1.05.61-1.97.84-3.09.17-.8-.17-1.12-.56-1.1zm-133.4 1.42c-.63.1-1.17.69-.44 1.62 1.16 1.5 2.43 2.54 2.87 3.1.44.55 1.56.35.84-.82-.73-1.18-1.84-2.61-2.34-3.5-.19-.33-.57-.46-.94-.4zm120.06 0a.88.88 0 0 0-.7.4c-.49.89-1.6 2.32-2.34 3.5-.72 1.17.4 1.37.85.82.44-.56 1.71-1.6 2.87-3.1.73-.93.18-1.53-.43-1.62a.89.89 0 0 0-.25 0zm-140.72 4.17c-.5-.04-.66.35 0 1.25 1.49 2.05 3.14 5.14 3.25 6.47.1 1.33-.55 1.31-1.16 1.31-1.82 0-2.72-1.33-4.37-1.72-1.66-.38-1.9.49-.72 1.35 6.08 4.42 12.18 9.36 14.62 13.84 1 1.83 2.34 2.5 1.6.75-2.3-5.34-2.85-9.86-2.35-12.6.5-2.73 1.18-4.57 1.1-6.15-.09-1.57-.98-1.47-1.35 0-.25 1-.73 2.32-1.06 2.81-.33.5-1.67.78-2.94-.93a48.05 48.05 0 0 0-5.53-5.85c-.4-.3-.8-.5-1.1-.53zm161.62 0c-.3.03-.7.22-1.1.53a48.05 48.05 0 0 0-5.52 5.85c-1.28 1.71-2.61 1.43-2.94.93a11.8 11.8 0 0 1-1.06-2.8c-.37-1.48-1.26-1.58-1.35 0-.08 1.57.6 3.41 1.1 6.15.5 2.73-.06 7.25-2.35 12.6-.74 1.73.6 1.07 1.6-.76 2.44-4.48 8.54-9.42 14.62-13.84 1.18-.86.94-1.73-.72-1.35-1.66.39-2.55 1.72-4.37 1.72-.61 0-1.27.02-1.16-1.31.11-1.33 1.76-4.42 3.25-6.47.66-.9.49-1.3 0-1.25z" fill="#000" stroke="none"/><path d="m150.13 212.65 1.95 6.18m2.06-7.35 1.73 6.24m2.6-6.95 1.19 6.36m2.83-7.17 1.27 6.35m3.89-6.85 1.03 6.39m4.45-6.39 1.11 6.38m4.24-8.19.8 6.43m4.24-6.1.8 6.42m4.08-7.07.8 6.42m4.09-6.93.44 6.46m4.79-6.46.38 6.46m4.36-6.79.32 6.47m4.9-6.8.27 6.48m5.75-6.64.27 6.47m79.04.18-1.95 6.18m-2.06-7.35-1.73 6.24m-2.6-6.95-1.19 6.36m-2.83-7.17-1.27 6.35m-3.89-6.85-1.03 6.39m-4.45-6.39-1.11 6.38m-4.25-8.19-.8 6.43m-4.23-6.1-.8 6.42m-4.08-7.07-.8 6.42m-4.09-6.93-.44 6.46m-4.79-6.46-.38 6.46m-4.36-6.79-.33 6.47m-4.9-6.8-.27 6.48m-5.74-6.64-.27 6.47m-7.2-6.89v7.13"/></g></g></svg>