<svg xmlns="http://www.w3.org/2000/svg" xmlns:xlink="http://www.w3.org/1999/xlink" viewBox="0 0 1200 600"><path d="M0 0h1200v600H0z" fill="#ffbe29"/><path d="M56 56h312v488H56z" fill="#eb7400"/><path d="M56 56h156v488H56z" fill="#00534e"/><path d="M424 56h720v488H424z" fill="#8d153a"/><path d="M502.25 449.22s-6.62 13.81-13.93 19.44c-10.84 8.34-33.05 7.74-42.49 17.47-11.3 11.48.88 26.64.78 27.95l-.62 8s7.62.1 10.83.62c4.82.77 6.7 4.8 15.68 4.2 22.59-1.5 21.68-22.36 22.95-40.19 1.14-6.78 3.76-15.63 5.25-22.41 1.28-5.82 1.55-15.08 1.55-15.08z" fill="#ffbe29" stroke="#000" stroke-width="2.1"/><g transform="matrix(1.04354 0 0 1.01818 -40.2 -5.81)"><use height="100%" width="100%" xlink:href="#a" stroke="#000" stroke-width="5.56"/><g id="a" fill="#ffbe29"><path d="m681.54 479.56 4.36-2.52 1.86 2.52c2.49 3.36 9.36 3.33 13.93-.07l3.48-2.6 2.92 2.6c3.84 3.41 11.02 3.42 15.6 0 3.2-2.38 3.65-2.43 5.77-.61 1.26 1.08 4.97 2.32 8.24 2.74 5.88.76 5.97.72 9.4-4.44 2.9-4.33 3.34-6.08 2.65-10.27-.45-2.78-.94-7.26-1.09-9.95-.26-4.87-.23-4.9 6.86-7.37a95.56 95.56 0 0 0 10.08-4.06c2.83-1.52 10.64-10.7 10.64-12.5 0-.49-3.05-1.22-6.78-1.64-14.83-1.66-17.34-9.63-7.7-24.42 15.72-24.13 25.21-47.63 25.28-62.6.03-6.69.4-8.93 1.27-7.48 3.51 5.95-2.78 30.88-12.32 48.78l-3.84 7.21 3.66-.84c2.02-.47 13.87-5.47 26.33-11.11 34.11-15.45 45.83-18.48 67.91-17.55 18.5.78 26.38 4.4 39.44 18.09 6.91 7.26 13.58 12.45 25.77 20.08 25.98 16.26 27.06 17.67 28.3 36.79 1.24 19.37.62 20.42-14.03 23.66-12.52 2.77-20.38 8.6-22.48 16.72-1.13 4.33 1.24 4.45 7.55.4l4.63-2.98 2.06 2.97c2.7 3.91 8.45 3.93 13.23.04l3.6-2.94 3.7 2.94c5.72 4.57 13.34 3.46 15.49-2.25.41-1.1 1.52-.75 3.75 1.2 4.19 3.63 14.91 5.2 16.07 2.33.44-1.09-.4-3.79-1.86-5.99-6.25-9.36-8.2-13.82-8.28-18.92-.11-7.08 2-10.5 10.06-16.26 9.8-7 12.82-16.04 5.37-16.04-4.6 0-9.23-4.06-12.19-10.68-6-13.46-4.83-28.55 4.19-53.66 9.16-25.5 10.18-30.2 10.21-47.26.03-13.79-.32-16.17-3.45-23.73a85.1 85.1 0 0 0-8.65-15.3l-5.16-6.88 6.62-5.5c20.24-16.76 16.1-44.2-8.26-54.76-7.45-3.24-9.31-3.52-22.37-3.43-7.84.05-19.78 1.08-26.55 2.29-6.9 1.23-18.57 2.22-26.58 2.25-12.73.05-14.89-.26-19.8-2.87-5.1-2.72-5.98-4.02-6.98-10.3-.2-1.3-1.11-2.6-2.01-2.87-1.74-.55-9.77 6.42-10.96 9.5-.59 1.53-1.06 1.42-2.78-.6-1.14-1.36-2.73-4.46-3.54-6.9-2.03-6.13.46-10.73 7.67-14.18l5.6-2.67-3.3-2.05c-6.8-4.22-18.39-1.33-22.57 5.64-1.19 1.97-2.48 3.58-2.87 3.59-.4 0-2.65-1.88-5-4.18-8.8-8.6-5.77-21.3 5.99-25.18 6.27-2.07 11.81-.49 12.97 3.7 1.76 6.37 7.24-2.02 6.26-9.6-.66-5.03-.56-5.2 2.93-5.2 4.84 0 15.16 6.36 18.35 11.32 3.7 5.75 3.44 14.82-.64 21.58l-3.2 5.3 4.19-.84c6.14-1.23 12.1-5.04 15.13-9.67 3.19-4.9 3.53-14.42.7-19.56-2.74-4.98-2.43-5.77 1.63-4.08 6.9 2.86 10.58 6.02 13.35 11.43 2.49 4.87 2.63 6.08 1.28 11.15-.83 3.13-2.68 7.25-4.11 9.15-2.23 2.96-2.3 3.46-.53 3.46 3.3 0 10.2-3.13 12.66-5.74 1.23-1.32 3.04-4.56 4-7.2l1.77-4.83 2.02 3.67c2.86 5.2 8.42 9.87 15.2 12.77 7.3 3.13 10.34 3.3 6.52.38-2.57-1.97-7.3-15.87-5.87-17.23.84-.8 10.74 6.81 22.05 16.96 10.7 9.6 17.41 12.75 27.24 12.75 12.55 0 19.85-10.92 14.21-21.25-3.29-6.02-10.61-6.86-14.9-1.7-1.96 2.37-2.5 4.25-1.93 6.74.71 3.05.43 3.46-2.34 3.46-3.65 0-10.84-4.67-23.6-15.33-19.48-16.24-43.14-30.02-60.22-35.05-10.96-3.22-34.38-4.48-45.53-2.45-12.06 2.21-26.33 9.11-34.1 16.5-13.77 13.1-14 30.52-.58 46.39l3.84 4.54-2.6 4.04c-3.79 5.88-3.46 13.79.8 19.61 1.88 2.57 3.77 4.67 4.21 4.67.44 0 .92-1.65 1.06-3.67.38-5.1 2.57-8.51 6.32-9.86 3.38-1.22 5.57-.65 21.05 5.53 16.3 6.5 43.08 6.95 71.57 1.2 13.96-2.82 30.43-2.66 37.67.38 13.28 5.56 16.36 20.03 6.6 31.02-4.23 4.76-8.3 6.7-21.99 10.45-10.41 2.86-12.88 3.05-36.54 2.8-20.22-.2-27.49.2-35.74 1.92-8.96 1.87-14.47 2.06-40.79 1.4l-30.43-.77 3.38 2.8a53.14 53.14 0 0 0 5.82 4.2c2.3 1.31 2.22 1.49-1.19 2.76-2 .74-6.45 1.35-9.89 1.35h-6.24l-.84 5.3c-.46 2.92-.43 6.33.08 7.57.74 1.84.46 2.1-1.47 1.4a84.2 84.2 0 0 0-8.13-2.09 49.98 49.98 0 0 1-9.44-3.03c-3.43-1.67-3.8-1.63-5.07.6-1.13 2-11.7 9.87-13.25 9.87-.25 0-.58-1.52-.72-3.37-.15-1.86-1.67-6.69-3.4-10.74a261.66 261.66 0 0 1-3.98-9.8c-.72-2.04-1.04-2.15-1.9-.62-.58 1.01-1.42 3.77-1.87 6.13a29.11 29.11 0 0 1-3.54 8.52l-2.72 4.23-1.74-3.61c-1.87-3.89-4.96-7.91-6.08-7.91-.38 0-1.03 1.24-1.44 2.76-.85 3.17-8.2 11.95-9.99 11.95-.66 0-1.2-2.48-1.2-5.51 0-3.04-.58-5.52-1.3-5.52s-1.29.78-1.29 1.74c0 2.34-6.27 9.3-8.37 9.3-.92 0-2.4.82-3.28 1.83-2.31 2.64-4.2 2.27-3.23-.63.45-1.36.16-4.53-.66-7.05l-1.93-5.96c-.31-.95-2.56-.7-7.31.83-7.69 2.46-10.26 2.02-6.31-1.07 1.44-1.13 3.64-5.05 4.88-8.71 1.24-3.66 3.07-6.9 4.07-7.22 1.4-.43 1.32.1-.32 2.33-1.18 1.59-2.14 3.73-2.15 4.76 0 1.03-.89 3.48-1.96 5.43-1.08 1.96-1.76 3.75-1.5 3.99.24.23 3.17-.88 6.5-2.47l6.03-2.9.03 2.6c.01 1.42.74 5.18 1.62 8.35l1.6 5.77 4.1-1.9c4.21-1.93 8.2-8.82 8.2-14.16 0-2.64 1.5-2.23 2.13.57.18.83 1.13 3.92 2.1 6.87l1.79 5.37 2.81-3.39a28.75 28.75 0 0 0 4.32-8.13c1.43-4.52 3.68-6.47 3.68-3.18 0 2.37 6.46 10.86 7.7 10.13.6-.35 1.8-3.54 2.67-7.08 1.8-7.37 4.7-12.38 6.54-11.3.7.4.96 1.19.6 1.74s1.12 5.35 3.3 10.65a4484.43 4484.43 0 0 1 4.88 11.85c.8 1.97 1.51 1.68 6.19-2.45 2.91-2.57 5.55-5.45 5.87-6.4.48-1.43 1.13-1.37 3.85.32 3.81 2.36 16.6 6.16 17.6 5.23.37-.35.75-3.71.84-7.47l.17-6.83 3.68.76c2.03.42 6.28.4 9.46-.06l5.78-.82-5.15-3.53c-2.83-1.94-5.7-4.46-6.37-5.59-.7-1.2-3.23-2.22-6.08-2.47-7.72-.65-21.39-8.32-21.39-12 0-.68 1.9.49 4.2 2.61 5.14 4.7 12.28 7.66 18.5 7.66h4.67l-2.89-3.83c-1.65-2.2-3.14-6.39-3.49-9.83-.55-5.48-1.13-6.35-6.85-10.33-3.44-2.39-7.7-5.97-9.47-7.96l-3.2-3.61-1.65 4.29c-.9 2.36-2 4.3-2.45 4.3-.44 0-2.17-1.39-3.85-3.07s-3.37-3.06-3.78-3.06c-.41.01-1.9 2.28-3.3 5.05l-2.54 5.04-1.97-2.9a44.23 44.23 0 0 0-5.68-6.28c-2.05-1.85-3.12-3.37-2.4-3.37s3.26 1.93 5.61 4.3l4.28 4.29 1.74-3.15a11.19 11.19 0 0 0 .95-7.05c-.68-3.38-.59-3.58.71-1.46.82 1.35 3.33 3.94 5.56 5.75l4.06 3.3 2.8-5.14c2.8-5.11 2.81-5.12 4.08-2.07 1.7 4.08 13.98 14.15 24.44 20.03 1.61.91.93-2.2-2.04-9.38a23.77 23.77 0 0 1-1.44-7.6c0-3.4-.98-4.9-5.31-8.2-6.26-4.77-8.28-8.15-9.46-15.84-.48-3.11-1.58-6.57-2.44-7.7-1.28-1.65-1.49-.72-1.15 5.06.23 3.89-.27 8.73-1.12 10.75l-1.55 3.68-1.19-3.06c-.66-1.69-3.56-4.62-6.45-6.52-2.9-1.9-4.93-3.77-4.51-4.16.4-.39 3.38 1.34 6.6 3.85 4.92 3.8 6 4.22 6.69 2.54.8-1.97 0-10.56-1.55-16.56-.77-3-.7-2.98 3 .72 2.72 2.72 4.23 5.97 5.4 11.65 1.48 7.2 2.23 8.4 8.9 14.25 4 3.52 7.48 6.2 7.73 5.95.26-.24.76-9.33 1.12-20.2.7-20.84-.09-25.8-5.1-32.23l-2.58-3.31 4.05-4.38c5.29-5.7 7.72-10.27 8.77-16.51l.86-5.08-4.58 4.34c-3.75 3.55-5.53 4.33-9.87 4.33-4.3 0-5.98-.72-8.87-3.8-3.48-3.7-9.63-7.27-15.55-9-2.19-.64-2.92-.36-2.92 1.12 0 1.08-1.2 4.2-2.68 6.95l-2.68 4.98-5.63-5.56c-3.45-3.4-7.54-6.06-10.59-6.86-7.78-2.05-8.2-1.84-8.2 3.95 0 8.8-3.75 10.43-10.5 4.59-5.16-4.45-9.43-5.42-19.2-4.35l-7.54.83 1.35 3.4c1.14 2.85.88 4.05-1.55 7.28-3.94 5.24-9.06 7.5-16.95 7.5-3.63 0-8.17.76-10.1 1.68-1.92.92-6.7 1.97-10.62 2.35-3.91.37-8.09 1.04-9.27 1.49-1.86.69-2.06.12-1.46-4.1.91-6.46-3.6-11.22-10.63-11.22-9.12 0-13.33 8.16-9.76 18.92a83.89 83.89 0 0 1 2 7.26c.43 1.99 4.54 7.28 9.57 12.32 4.85 4.85 9.44 9.9 10.19 11.22.75 1.32 3.24 3.43 5.53 4.7l4.16 2.3-.55-4.44c-.6-4.9.46-5.66 3.06-2.21.93 1.23 3.3 3.23 5.26 4.43 3.08 1.9 3.56 1.94 3.56.29 0-1.04.63-3.45 1.4-5.35l1.4-3.45 2.42 4.7c1.33 2.58 5.67 8.45 9.64 13.04 7.7 8.91 12.39 18.87 9.97 21.16-.98.93-3.64.86-9.14-.24-4.26-.86-9.54-1.31-11.72-1.01-4.46.62-4.81.04-2.07-3.39 2.9-3.62 2.43-4.22-3.25-4.22-6.58 0-22.9-3.15-29.17-5.63-6.1-2.41-7.5-1.81-9.3 3.97-.8 2.6-2.28 7.31-3.28 10.47l-1.81 5.75 6.59-.64a69.02 69.02 0 0 0 10.36-1.76c2.08-.62 3.96-.95 4.2-.74.22.22-.7 2.47-2.06 4.99l-2.47 4.6 4.1-.84a38.7 38.7 0 0 0 7.57-2.51c3.3-1.6 3.56-1.48 6.16 2.7 3.2 5.13 5.76 4.92 6.33-.53.59-5.63 2.44-4.8 5.93 2.67 3.35 7.18 6.84 9.71 7.5 5.46.23-1.42 2.03-3.72 4.02-5.11 4.01-2.83 7.04-1.98 8.77 2.46 1.8 4.6-2.2 9.33-13.85 16.39-23.33 14.14-36.89 33.48-40.76 58.13-3.5 22.23 7.41 45.2 29.3 61.7 10.46 7.9 27.1 16.23 26.03 13.05-4.48-13.5-4.34-39.27.25-43.62.7-.65.46 2.04-.52 5.98-3.65 14.67-2.06 26.36 7.28 53.76 8.45 24.78 7.28 35.37-4.68 42.38-3.84 2.24-6.31 2.61-16.64 2.49-11.21-.14-12.43.09-16.03 2.96-3.49 2.78-8 11.9-8 16.16 0 2.3 2.55 2 7.59-.9z"/><path d="m863.45 479.06 4.7-3.02 3.2 3.02c4.17 3.96 9.07 3.87 13.09-.24 1.75-1.79 3.32-3.03 3.5-2.76.17.28.95 1.6 1.73 2.96 1 1.7 3.04 2.56 6.73 2.82 4.44.32 5.63-.11 7.4-2.67l2.1-3.04 4.63 2.98c12.67 8.14 19.42-.4 13.75-17.41-2.88-8.65-1.3-13.52 7.99-24.52 3.9-4.65 7.11-9.6 7.12-11.02 0-2.25-.73-2.55-5.93-2.45-4.99.1-6.44-.43-9.07-3.32-4.26-4.7-4.01-10.08.76-16.05l3.8-4.76-6.75-4.6c-3.72-2.51-10.42-8.48-14.9-13.26-10.05-10.72-19.94-15.8-32.98-16.95l-8.74-.77.02 6.61c.01 8.52 4.01 16.71 14.92 30.59 12.4 15.78 13.27 18.22 13.77 38.85l.43 17.44-3.59 3.4c-3.24 3.08-4.7 3.47-15.17 4.08-9.97.57-12.06 1.09-14.99 3.68-3.88 3.44-5.04 5.3-6.24 10.06-.7 2.77-.41 3.37 1.58 3.37 1.34 0 4.55-1.36 7.14-3.02zM598.84 428.6c0-2.2.98-2.8 5.83-3.48l5.83-.83-3.9-3.1c-4.61-3.68-5.04-6.56-.97-6.56 4.06 0 10.93-4.21 11.97-7.33.49-1.45.18-3.38-.69-4.38-2.27-2.6-6.55-2.2-7.34.67-.85 3.1-2.28 3.1-5.52.03-4.87-4.61-4.98-14.16-.23-19.73 2.24-2.62 2.22-2.8-.63-5.5-3.08-2.91-5.27-8.67-3.83-10.04.46-.44 2.89-.09 5.4.77 3.56 1.22 4.97 1.24 6.44.09 4.45-3.5-.37-8-7.5-7-2.88.4-4.06 0-4.48-1.5-.3-1.13-2.82-2.6-5.65-3.32-5.06-1.28-5.1-1.26-5.1 2.22 0 3.82-2.17 4.54-6.31 2.1-3.37-2-6.63-.45-6.63 3.13 0 3.34 3.36 5 9.39 4.6 4.62-.3 4.79 3.14.4 8.08l-3.16 3.56 2.5 3.59c3.7 5.32 3.4 14.16-.65 18.55l-3.17 3.44-2.08-2.76c-2.9-3.84-6.85-3.58-7.94.51-.7 2.68-.12 3.9 3.24 6.75 2.25 1.9 5.55 3.47 7.32 3.47 4.37 0 4.2 3.44-.35 6.92l-3.56 2.72 5.5.86c3.03.47 5.5 1.35 5.5 1.96 0 2.34 1.43 9.44 5.05 9.61 3.22.16 5.24-4.75 5.32-8.1z"/><path d="M668.48 402.92c5-1.97 15.82-11.13 15.82-13.4 0-.71-2.99-4-6.64-7.3-7.68-6.95-16.04-18.66-18.2-25.5-1.13-3.57-6.58-9.68-21.95-24.58l-20.45-19.83-5.9 1.5c-3.23.81-7.19 1.5-8.78 1.53-2.74.04-2.7.2.95 3.02l3.85 2.98 5.4-3c5.23-2.9 5.41-2.92 6.06-.58.38 1.37-.44 3.74-1.88 5.48-1.4 1.69-2.2 3.6-1.78 4.25.43.65-.92 2.02-3 3.03-3.83 1.88-6.5 8.07-3.47 8.07 2.73 0 8.74-7.41 8.05-9.92-.36-1.29-.19-2.6.38-2.94 2.34-1.37 2.2 4.45-.18 7.32-1.4 1.69-2.2 3.6-1.78 4.25.43.66-.92 2.02-3 3.03-3.8 1.87-6.5 8.07-3.5 8.07 2.95 0 8.86-7.08 8.13-9.73-.38-1.4-.24-2.8.33-3.13 1.58-.92 2.43 3.68 1.1 5.93a4.28 4.28 0 0 0 .01 4.16c1.31 2.37-.02 6.91-2.43 8.32-1.03.6-.33 1.8 2.18 3.7 3.63 2.73 3.7 3.02 3.7 15.12 0 10.11.4 12.72 2.26 14.48 2.09 1.98 2.27 1.99 2.27.1 0-2.08 3.63-4.6 6.6-4.6.88 0 6.35 4.63 12.17 10.3 5.85 5.71 11.97 10.57 13.7 10.88l4.15.72c.56.1 3.18-.69 5.83-1.73zM605.96 354c0-3.26-6.72-6.74-14.77-7.64-6.49-.73-6.6-.69-6.6 2.55 0 2.69 1.02 3.75 5.5 5.7 7.2 3.13 15.87 2.8 15.87-.61z"/><path d="M613.33 353.7c3.28-2.98 4.83-6.52 2.86-6.52-2.27 0-8.3 5.41-8.3 7.45 0 3.17 1.13 2.98 5.44-.93zm-6.99-9.64c.28-1.84-.86-3.07-4.27-4.6-7.36-3.33-16.15-4.87-18.27-3.2-3.9 3.06-1.3 7.18 5 7.92 2.54.3 5.99 1.07 7.65 1.72 4.85 1.88 9.46 1.02 9.89-1.84zm0-9.85c.4-2.62-1.28-3.56-14.98-8.38-10.22-3.6-14.75-1.9-11.48 4.3 1.14 2.17 3.05 3.15 7.33 3.8 3.19.47 7.54 1.4 9.68 2.07 5.7 1.77 9 1.15 9.45-1.79zm6.86-9.23c2.07-2.1 3.76-4.57 3.76-5.5 0-3-8.16 2.32-9.2 6-1.25 4.42.77 4.23 5.44-.5zm-6.86-.62c.45-2.99-4.52-5.69-14.3-7.76-7.16-1.52-10.33-.66-9.8 2.67.3 1.82 2.69 3.15 9.47 5.26 10.84 3.39 14.1 3.35 14.63-.17zm9.56-13.91c12.53-5.58 13.6-19.64 1.8-23.33-4.9-1.53-8.04-.7-9.91 2.62-1.44 2.54-.48 7.17 1.49 7.17.66 0 1.2.85 1.2 1.9 0 4.88-19.12 7.1-26.96 3.12-2.76-1.4-3.96-5.02-1.66-5.02 1.71 0 2.9-3.7 2.02-6.31-1.2-3.56-4.78-4.8-9.98-3.43-11.74 3.07-11.41 16.86.54 22.72 9.8 4.8 31.29 5.09 41.46.56z"/><path d="M608.11 299.64c.72-.69.41-1.74-.8-2.7-2.67-2.1-2.53-5.2.4-8.77 2.19-2.67 2.46-6.68 3.22-47.07 1.3-69.61 6.47-121.97 13.3-134.53 2.71-5 2.33-5.02-4.69-.25-9.04 6.16-15.92 14.17-22.02 25.63C586 153.61 582 182.73 582 244.91c0 35.31.24 39.93 2.25 43.25 1.91 3.15 2.01 4.31.67 7.68-.87 2.18-1.26 4.27-.88 4.64 2.57 2.43 21.3 1.79 24.07-.83zm105.23-66.38c.4-.6-.47-3.64-1.93-6.75-2.26-4.84-3.17-5.65-6.4-5.65-10.1 0-26.34-4.51-43.08-11.97-9.67-4.31-13-5.3-14.16-4.2-2.96 2.8 1.95 9.45 9.57 12.94 6.75 3.1 25.63 6.91 34.24 6.91 5 0 5.12.23 2.28 4.34l-2.1 3.02 5.66.15c3.1.08 7.4.56 9.53 1.08 5.55 1.33 5.6 1.34 6.4.13z"/><path d="M772.35 264.63c0-1.8-5.28-6.67-10.64-9.82-4.2-2.46-4.9-2.54-4.9-.53-.02 3.06-2.74 10.73-3.8 10.73-.6 0-1.5-1.5-1.98-3.33-.49-1.83-2.53-5.45-4.53-8.03l-3.65-4.7-2.84 4.36c-2.64 4.05-7.23 8.02-9.26 8.02-.49 0-.58-2.13-.21-4.74.4-2.84.09-5.09-.77-5.6-.8-.46-1.45-.3-1.45.37 0 1.53-6.36 8.75-7.71 8.75-.56 0-1.33-2.07-1.73-4.6-.4-2.53-1.06-6.53-1.49-8.9-.42-2.35.48-.75 2.02 3.57l2.78 7.85 3.06-4.79c1.68-2.63 3.06-5.5 3.07-6.39 0-.88.57-1.27 1.26-.87.7.4 1.65 3.57 2.14 7.03l.88 6.3 3.37-3.7a54.35 54.35 0 0 0 4.81-6.03c1.43-2.3 1.51-2.3 4.35.1 1.59 1.35 4.04 4.58 5.43 7.17 1.4 2.6 2.73 4.53 2.96 4.3.23-.24.74-2.91 1.14-5.95.4-3.03.75-5.63.8-5.77.19-.75 10.12 5.71 13.8 8.98 2.36 2.1 4.6 3.53 4.99 3.17.38-.36.69-3.46.69-6.9 0-5.3-.56-6.73-3.82-9.64-3.74-3.34-3.84-3.36-5.22-.92-1.8 3.18-3.9 3.22-3.9.09 0-2.29-7.08-11.08-8.91-11.08-.48 0-1.97 1.93-3.31 4.3-1.34 2.35-2.79 4.28-3.2 4.28-1.82-.01-11.78-11.12-11.78-13.12 0-1.6.67-1.2 2.42 1.47a39.54 39.54 0 0 0 5.89 6.71c3.87 3.38 5.28 2.56 6.78-3.95.42-1.85 1.16-3.37 1.64-3.37 1.66 0 10.33 9.2 11.55 12.26l1.22 3.07.93-3.37c1.13-4.13 2.38-4.28 4.2-.52.75 1.57 4.49 4.84 8.3 7.26l6.92 4.41 1.4-4.43c.76-2.44 1.77-3.84 2.24-3.11.7 1.08-1.1 8.42-2.45 10-.2.24-2.45-1.07-4.99-2.9l-4.61-3.34-.02 5.97c-.01 3.28-.37 7.21-.8 8.73-.84 2.97-3.07 3.8-3.07 1.15zm-34.53-47.6c-8.23-6.87-9.48-8.45-9.3-11.7l.2-3.47.53 3.35c.32 1.95 2.5 4.88 5.27 7.04l4.73 3.7 2.91-3.37c1.6-1.85 2.93-4.05 2.96-4.9.06-2.2.46-2 6.03 2.83 4.95 4.3 5.03 4.31 5.76 1.53.42-1.55.27-4.47-.32-6.5-1.62-5.54-1.3-6.38 1.15-3.03a60.1 60.1 0 0 0 4.37 5.24c2.05 2.11 2.17 2.08 2.94-.62.44-1.55.8-4.39.81-6.3l.02-3.5 4.47 5.07c4.17 4.72 4.55 4.9 5.82 2.65.75-1.33 1.37-4.52 1.39-7.1 0-3.32.36-4.16 1.2-2.9 1.42 2.12.44 7.88-2.17 12.78l-1.87 3.52-2.46-3.82c-3.14-4.9-4.19-4.82-6.2.46-1.9 5-3.15 5.37-5 1.54-1.2-2.49-1.43-2.18-2.29 3.03l-.94 5.8-5.68-4.4-5.68-4.41-2.55 2.9c-1.4 1.6-2.58 3.6-2.6 4.43-.05 1.83-1.42 1.89-3.5.15zm73.22-25.6c-3-2.7-5.06-5.28-4.59-5.72.48-.45 1.01-.58 1.19-.29.18.3 2.63 2.87 5.44 5.73 6.48 6.57 5.15 6.76-2.04.28zm-97.53-10.08c-2.72-3.69-2.54-6.13.78-10.12 2.4-2.89 3.5-3.28 7.68-2.75 2.68.34 8.46 2.72 12.84 5.27 5.06 2.96 10.29 4.94 14.34 5.43 3.5.43 6.37.59 6.37.36 0-.23-1.45-2.6-3.24-5.28-4.22-6.34-4.08-7.02.69-3.22 4.9 3.9 10.75 5.04 23.84 4.64l6.39-.19-3.71-3.67c-5.19-5.12-3.6-5.58 2.14-.61 5.37 4.66 5.03 4.99-6.27 6.12-4.8.48-9.98.13-14.27-.96-6.43-1.64-6.68-1.61-5.46.54.7 1.24 1.84 2.26 2.53 2.26.68 0 1.25.63 1.25 1.4 0 2.36-13.88.28-20.52-3.08-15.15-7.67-17.05-8.33-20.66-7.2a7.97 7.97 0 0 0-4.7 4.34c-2.32 6.2 6.46 11 10.08 5.53 1.05-1.58.8-2.67-1.04-4.6-2.53-2.64-2.29-3.02 1.12-1.78 2.42.88 2.74 6.7.5 8.82-2.58 2.44-8.46 1.75-10.68-1.25z" fill="#000"/><path d="M773.19 166.07c-1.9-1.8-.41-2.23 8.09-2.4 10.5-.19 16.89-1.94 24.42-6.7 6.03-3.8 7.66-3.05 1.94.9-5.23 3.6-13.37 6.37-21.24 7.22-3.81.4-8.15.97-9.65 1.26-1.5.28-3.1.16-3.56-.28z" fill="#000"/></g></g><path d="M1065.8 449.33s6.61 13.8 13.92 19.42c10.83 8.33 33.03 7.72 42.45 17.44 11.29 11.46-.88 26.6-.78 27.91l.62 8s-7.6.1-10.82.6c-4.82.77-6.7 4.8-15.67 4.2-22.56-1.5-21.65-22.33-22.93-40.13-1.13-6.77-3.75-15.61-5.24-22.38-1.28-5.81-1.55-15.06-1.55-15.06z" fill="#ffbe29" stroke="#000" stroke-width="2.09"/><path d="M1065.75 150.77s6.62-13.81 13.93-19.44c10.84-8.34 33.06-7.74 42.48-17.47 11.3-11.47-.87-26.63-.77-27.95l.62-8s-7.62-.1-10.83-.6c-4.82-.78-6.7-4.8-15.68-4.2-22.58 1.5-21.67 22.35-22.95 40.17-1.13 6.78-3.76 15.63-5.25 22.41-1.28 5.82-1.55 15.08-1.55 15.08zm-563.5.01s-6.62-13.81-13.93-19.44c-10.84-8.34-33.05-7.74-42.49-17.47-11.3-11.48.88-26.64.78-27.95l-.62-8s7.62-.1 10.83-.62c4.82-.77 6.7-4.8 15.68-4.2 22.59 1.5 21.68 22.36 22.95 40.19 1.14 6.78 3.76 15.63 5.25 22.41 1.28 5.82 1.55 15.08 1.55 15.08z" fill="#ffbe29" stroke="#000" stroke-width="2.1"/></svg>