<svg xmlns="http://www.w3.org/2000/svg" xmlns:xlink="http://www.w3.org/1999/xlink" viewBox="0 0 1800 900"><path fill="#C8102E" d="M0 0h1800v900H0z"/><path fill="#FFD100" d="M0 0h1200v900H0z"/><path fill="#003DA5" d="M0 0h600v900H0z"/><path d="M847.69 183.24c-3.22 0-6.04.82-7.68 2.1a6.3 6.3 0 0 1 4.5 6.1v7.42h-7.42a6.3 6.3 0 0 1-6.09-4.46c-1.28 1.64-2.1 4.46-2.1 7.68 0 3.22.82 6.04 2.1 7.68a6.29 6.29 0 0 1 6.1-4.5h7.42v35.67a6.3 6.3 0 0 1-4.2 6c3.54.48 6.59 5.23 7.42 7.83.84-2.6 3.89-7.35 7.43-7.84a6.28 6.28 0 0 1-4.26-5.99v-35.68h7.43a6.3 6.3 0 0 1 6.1 4.46c1.27-1.64 2.09-4.46 2.09-7.68 0-3.23-.82-6.04-2.1-7.68a6.29 6.29 0 0 1-6.1 4.5h-7.42v-7.42a6.3 6.3 0 0 1 4.46-6.1c-1.64-1.27-4.46-2.1-7.68-2.1z"/><path fill="#FFD100" d="M847.69 184.78c-1.68 0-3.16.31-4.4.72a7.85 7.85 0 0 1 2.76 5.94v7.42c0 .1-.03.2-.05.3v1.18h-1.18c-.1.02-.2.05-.3.05h-7.43a7.85 7.85 0 0 1-5.88-2.7 13.53 13.53 0 0 0-.06 8.8 7.85 7.85 0 0 1 5.94-2.77h8.96c0 .16-.05.3-.05.46v.77c.02.1.05.2.05.3v35.69c0 2.32-1.2 4.14-2.76 5.58a11.98 11.98 0 0 1 2.91 2.56c.74.88 1.03 1.75 1.54 2.66.5-.9.8-1.78 1.54-2.66a12.04 12.04 0 0 1 2.86-2.5c-1.58-1.45-2.76-3.31-2.76-5.64v-37.17h1.23c.1-.02.2-.05.3-.05h7.43a7.86 7.86 0 0 1 5.88 2.71 13.58 13.58 0 0 0 .05-8.8 7.85 7.85 0 0 1-5.93 2.76h-7.43c-.1 0-.2-.03-.3-.05h-1.18v-1.18c-.02-.1-.05-.2-.05-.3v-7.43a7.86 7.86 0 0 1 2.71-5.88c-1.26-.42-2.7-.77-4.4-.77"/><path d="M940.6 313.99c-4.53-3.22-8.25-6.86-10.9-11.11-6.37-10.23-9.06-22.78-9.06-35.53 0-5.4 6.04-11.46 6.04-15.82 0-6.59-.61-10.54-.61-10.54 2.14.29 5.89 4.1 5.89 4.1s-.13-10.95-3.59-12.86c0 0 1.4-1.44 6.45-1.58-1.42-3.6-8.44-8-8.44-8 .35-.62 1-1.16 1.84-1.63a22.89 22.89 0 0 1 6.14-2 65.97 65.97 0 0 1-6.9-1.9 162.7 162.7 0 0 1-19.16-7.77c-11.73-5.63-20.66-6-25.6-6-3.57.01-8.83.1-11.92 2.16-2.82 1.88-2.6 4.32-3.58 5.17-2.33 2.02-6.32 1.95-8.25 1.95-12.44 0-12.9 13.3-12.9 13.3s3.19-4.8 8.8-4.8c9.36 0 16.44 5.09 16.44 7 0 .78-.96.93-1.02.93-6.1 0-15.33-3.52-20.22-3.69v2.4c10.93 3.81 22 9.2 22 32.92 0 14.95-1.78 30.2-9.26 42.19-2.64 4.24-6.41 7.88-10.95 11.1l44.38 8z"/><g id="a"><path d="m896.22 303.99-44.38 10c-2.02-.61-11.51-3.56-18.18-7.27-11.72-6.53-17.8-13.03-31.74-13.67v-10.6c0-5.66 2.05-10.76 2.05-16.17-5.87-1.58-22.17-21.51-37.21-30.36-22.13 14.33-39.27 37.86-39.27 48.68 0 0 .67 232.51 0 313.51 0 4.67-2.81 11.27-2.81 11.27 8.07-3.42 22.88-23.68 26-31.39v3.7c12.2-5.57 21.14-20.2 25.14-27.76l.25 3.84c10.9-9.55 24.78-66.03 24.78-66.03l23.12 22.72s-8.36 16.98-11.62 20.02c0 0 2.19.27 4.66.25-1.52 2.19-13.15 18.93-16.79 25.24-3.4 5.9-5.82 3.28-11.06 3.28-4.34 0-14.2 6.92-15.82 9.72-1.7 2.95-2.96 6.53-2.96 9.47 0 3.24 3.43 7.68 3.43 7.68.37-1.55 1.02-2.1 1.02-2.1s9.01 11.23 10.34 12.7c1.03 1.14 5.65 1.89 7.27.41 4.07-3.7 8-6.28 11.62-11.62 1.86-2.75 2-5.9 4.15-8.86a2914.9 2914.9 0 0 1 24.67-33.12l.61 3.43c3.7-7.46 21.46-21.7 21.46-21.7l18.57 8.54s-34.68 79.74-65.47 92c0 0 13.4 5.69 29.84 14.23a447.91 447.91 0 0 1 7.37 3.94 203.52 203.52 0 0 0 6.4-8.14 507.9 507.9 0 0 0 19.46-28.4c.67 3.95-4.53 16.18-13.31 31.27-1.73 2.97-3.53 6.07-5.53 9.21a333.74 333.74 0 0 1 6.65 3.9c16.3 9.8 31.6 21.07 37.27 31.43l4-10.01-4-10V317.25l2-5z"/><g fill="#AD7C59"><path d="M896.2 667.22c-5.75-6.24-17.77-13.85-31.28-20.89 16.34-29.31 24.43-75.65 20.63-84.88 0 0-6.7 24.04-14.9 37.73-7.58 12.69-16.92 26.95-25.95 37.53a205.68 205.68 0 0 0-20.78-7.68c27.06-20.84 54.72-89.74 54.72-89.74l-28.6-13.26s-10.71 12.48-14.19 14.8c0 0-1.48-6.21-2.35-8.4 0 0-4.1 3.1-6.35 3.17 0 0-.67-4.2-1.18-6.96-2.82 1.88-7.52 1.49-7.52 1.49 4.12-1.96 9-13.93 9-13.93l-27.31-36.34s-9.6 46.11-20.53 55.6v-198.6l8.65 8.04 13.1-12.24v-9.31l-11.62 10.85v-28.1a94.37 94.37 0 0 0 3.8-6.2c1.87 3.28 7.95 13.33 15.1 19.5 1.17-4.77 8.9-9.31 8.9-9.31s2.77 7.5 7.01 9.37c1.5-2.63 10.4-8.45 10.4-8.45s-7.62 1.16-10.7 4.04c-2.65-.59-3.33-11.05-3.33-11.05s-11.2 5.46-13.16 9.36c-2.13-.57-5.46-8.98-6.76-12.44a74.75 74.75 0 0 1 8.35-.46c3.2 0 7.28 1.52 11.57 3.54 4.7 2.21 9.63 5.02 14.03 7.01 5.63 2.55 14.15 3.07 16.63 3.17a73.8 73.8 0 0 1-9.36 5.53s13.4-.12 22.83-4.81c3.36-2.16 6.85-4.32 9.83-6.86a36.36 36.36 0 0 1-6.46 11.47c13.84-1.17 20.73-9.07 22.68-11.73a37.68 37.68 0 0 0 5.12 9.47h5v340zM794.25 267.3l.25 6.35v18.68c-5.02-1.72-11.32-9.97-14.38-14.33v-2.56c0-2.4 1.41-4.17 2.45-5.12l-3.02-1.07a8.8 8.8 0 0 0-2.4 5.78v1.49l-9.01 9.67-8.86-13.41v-3.28c0-2.2 1.7-4.67 3.13-6.35l-2.97-1.07c-1.5 1.94-3.08 4.56-3.08 7.01v2.66a10183.97 10183.97 0 0 1-10.18 10.5L741 271.14c6.2-8.6 16.26-18.22 25.75-25.13 0 0 20.56 18.89 27.49 21.29zm-52.12 18.12v15.41l-7.17 6.66V284.6c0-2.19.92-4.83 2.46-7.73z"/><path d="M764.45 291.36v9.52l-8.24 7.73v-29.8zm-11.16 17.2-8.25-7.68v-11.16l8.25-8.65zM790.9 297c-1.91 2.7-6.92 9.32-12.33 12.24v-26.16c1.24 2.06 6.93 11.27 12.33 13.92zm-15.25-12.6v24.17l-8.25-7.68v-8.55zm-33.53 25.76v24.11l-7.17-6.7v-10.7zm11.15 7.73v8.65l-8.24 7.68V310.2zm11.16-7.68v24.01l-8.24-7.73v-8.55zm11.21 7.73v8.55l-8.24 7.73V310.2zm11.16 16.33-8.24-7.73v-8.04c2.84-1.73 5.7-4.92 8.24-8.29zm-20.88 10.65 8.7-8.1v198.64s.6 9.86 1.02 16.28l-18.43 18.63v-233.6zm-13.68 218.03c0 6.38-11.66 21.27-17.3 24.68V336.87l8.6 8.04 8.7-8.09z"/></g><g fill="#C8102E"><path d="m824.53 541.39 6.35-4.35s.43 2.1.97 4.96a8632.32 8632.32 0 0 1-26.05 35.43c-1.92 2.58-3.54 9.16-3.54 9.16s-2.81-1.33-2.81-3.74c0-2.36.3-5.17.3-5.17s-2.1 2.41-5.73 2.41c0-2.9 5.62-6.05 5.84-10.19-4.28 3.18-8 1.55-12.95 3.08-5.4 1.66-6.9 3.92-8.55 3.84-.98-.06-1.86-1.74-1.49-2.77.65-1.79 7.32-6.73 11.98-7.63 1.12-.21 9.9 1.92 11.67-.81l20.28-31.28a6.66 6.66 0 0 0 2-.72s-.08 5.75 1.73 7.78z"/><path d="M783.72 576.45c.35.41.32 1-.05 1.33l-2.87 2.51c-.37.32-.98.26-1.33-.15-.35-.41-.32-1.01.05-1.33l2.87-2.51a.85.85 0 0 1 .66-.2c.24.02.5.15.67.35zm4.35 3.02c.86.99.8 2.39-.1 3.18l-6.96 6.09c-.91.79-2.37.63-3.23-.36-.86-.99-.8-2.44.1-3.22l6.97-6.05a2.2 2.2 0 0 1 1.22-.5 2.4 2.4 0 0 1 2 .86zm4 4.71c.85.99.8 2.39-.11 3.18l-7.01 6.09c-.91.78-2.32.63-3.18-.36-.86-.99-.8-2.44.1-3.22l6.97-6.05a2.07 2.07 0 0 1 1.17-.5c.72-.07 1.51.24 2.05.86zm2.4 3.74a2.37 2.37 0 0 1 2 .82c.85.99.8 2.44-.11 3.22L789.4 598c-.91.8-2.32.63-3.18-.35s-.85-2.4.05-3.18l7.02-6.09c.34-.3.75-.43 1.17-.46z"/></g></g><use xlink:href="#a" transform="matrix(-1 0 0 1 1792.4 0)"/><path fill="#AD7C59" d="M885.93 206.64c11.46 0 19.52 5.22 30.36 10.03a93.3 93.3 0 0 0 7.78 3.07c-1.46 1.3-2.6 2.6-2.92 3.69 0 0 4.86.9 7.07 4.96 0 0-4.62.53-5.38 3.23 2.6.2 5.16 3.46 5.17 6.6l-6.55-2.05s1.59 7.36 1.59 15.36c0 4.09-5.89 8.9-5.89 15.82 0 21.74 5.48 30.09 9.37 36.8 1.52 2.64 2.76 5.66 5.33 7.94-11.22-5.97-19.56-13.43-19.56-20.37v-26.26h-2.92v26.26c0 5.03 1.23 7.37 1.23 7.37 1.76 5.57 5.32 14.15 7.52 17.61-10.32-5.58-15.56-12.56-15.56-15.15v-36.1h-2.92v36.61l.57 2.5c-1.26 1.89-2.88 4.11-4 4.87-1.11-.76-2.69-2.99-3.94-4.86l.56-2.51v-36.6h-2.91v36.09c0 2.59-5.25 9.57-15.57 15.15 2.2-3.46 5.77-12.04 7.53-17.6 0 0 1.23-2.35 1.23-7.38v-26.26h-2.92v26.26c0 6.93-8.3 14.4-19.5 20.37 2.53-2.28 3.75-5.32 5.26-7.93 4.26-7.35 9.53-16.68 9.53-43.26 0-9.97-1.48-16.75-4.05-21.5-.78-1.57-1.83-5.73 4.15-5.73 3.1 0 10.19 5.47 10.19 5.47s-.3-4.37-3.9-6.86c-.6-.4-1.58-1.7-1.58-2.92 0-.9 1.55-3.13 2.76-3.68.84-.38-12.18-2.65-12.18-8.55 0-1.23.77-2.05 3.48-2.05 3.54 0 9.31 4.25 14.44 4.25 3.79 0 5.28-.92 9.16-.92 4.74 0 14.63 8.98 18.02 8.65-3.78-2.38-9.9-11.37-19.15-11.37-3.2 0-6.11.72-9.11.72-3.84 0-7.62-3.53-11.77-3.53-2.79 0-5.9.15-6.35-.57-.8-1.25-.08-1.98.66-3.02 1.41-1.95 5.37-2.52 9.27-2.66a77.95 77.95 0 0 1 3.43-.05c1.1.01 2.1.06 2.97.06z"/><path fill="#C8102E" d="M848.73 220.69s2.42-4.58 8.53-4.58c2.56 0 11-.18 11-.18 1.12 2.92 6.24 7.8 6.24 12.88 0 0-5.2-9.38-19.72-9.38-3.65 0-6.05 1.26-6.05 1.26zm23.61 9.91s-3.1 3.26-3.77 5c-3.06-1.16-8.4-6.66-8.4-6.66s4.53 2.64 12.17 1.66z"/><path d="M867.44 221.97s-3.57-1.14-3.57-2.34c0-1.53 1.74-1.53 2.77-.34.71.82.8 2.68.8 2.68z"/><ellipse cx="884.08" cy="223.93" rx="7.37" ry="5.6"/><circle fill="#FFD100" cx="884.07" cy="223.93" r="5.12"/><circle cx="884.08" cy="223.93" r="2.35"/><path d="m801.38 591.95 16.2 8.84-3.93 18.03-16.2-8.84z"/><path d="m725.9 418.73-5.84 2.66L786 565.81h7.01zm77.76 170.32-4.76 4.92 2.97 6.55 5.79-2.66z"/><path d="M746.39 532.6s5.55 11.47 9.78 13.04c-2.19-.59-9.28 2.01-9.28 2.01s12.5 11.17 23.1 11.9c9 .62 13.36-3.87 13.36-3.87l-1.8-9.52s-5.5-6.65-14.3-9.71c-8.9-3.1-20.86-3.85-20.86-3.85zm41.87-20.55s-7.67 6.57-9.77 14.17c-2.1 7.6 1.37 16.25 1.37 16.25l6.44 12.02s8.94-4.76 12.73-11.86c3.8-7.11 2.41-16.7 2.41-16.7s-7.08 2.63-7.98 3.8c1.5-7.89-5.2-17.68-5.2-17.68zm-24.65-3.07s-8.72 2.95-17.2 2.44c-8.06-.49-14.77-7.26-14.77-7.26s6.69-4.53 9.99-3.93c-3.63-1.32-8.9-10.42-8.9-10.42s7.49-2.26 14.12.24c6.63 2.5 12.42 9.77 12.42 9.77l4.34 9.16zm3-42.6s4.36 9.03 3.33 12.17c1.35-2.09 6.47-5.34 6.47-5.34s3.1 14.62.14 23.65-11.98 12.47-11.98 12.47L754.63 490s-1.48-7.17 1.62-12.84 10.36-10.78 10.36-10.78zm-56.75-23.91s9.43-.99 18.05 2.58c7.21 3 9.42 8.44 9.42 8.44l3.55 9.52s-10.26 3.84-18.37.9c-8.1-2.94-14.06-12.68-14.06-12.68s5.66-2.15 7.82-1.34c-3.14-1.4-6.4-7.42-6.4-7.42zm29.65-17.67s4.14 5.31 4.26 11.42c1.1-3.25 6.27-6.84 6.27-6.84s5.31 12.86 4.15 21.99c-1.17 9.12-8.81 14.52-8.81 14.52l-9.54-18.09s-3.1-7.41-2.19-13.17c.92-5.75 5.86-9.83 5.86-9.83zm-32.65-34.6s-1.7 9.85 1.2 15.53c2.6 5.06 4.25 6.18 4.25 6.18-4.95-3.27-12.44-3.56-12.44-3.56s2.66 10.73 9.03 15.62 16.2 3.74 16.2 3.74 6.46-8.6 6-17.86c-.44-9.27-7.8-19.2-7.8-19.2s-2.9 6.02-3.16 10.52c-1.87-4.64-13.28-10.97-13.28-10.97zm77 165.07.27 3.54c5.87.05 6.75-.53 8.25 1.32a4.98 4.98 0 0 0 5.79 1.21c2.4-1.1 3.47-3.97 2.38-6.37s-3.33-2.92-5.48-2.5c-1.32.26-2.18 1.32-3.3 1.9-2.13 1.1-7.91.9-7.91.9z"/><path d="m783.35 552.57 2.86 2.1c-3.07 5-4.02 5.44-3.25 7.7.51 1.5.16 4.1-2.04 5.55a4.84 4.84 0 0 1-6.67-1.35c-1.45-2.2-.71-4.37.79-5.97.92-.98 2.27-1.16 3.35-1.8 2.06-1.23 4.96-6.23 4.96-6.23zm-19.9-42 .26 3.54c5.88.05 6.75-.53 8.26 1.32a4.98 4.98 0 0 0 5.79 1.21 4.83 4.83 0 0 0 2.38-6.37c-1.1-2.4-3.33-2.92-5.48-2.5-1.32.26-2.18 1.32-3.3 1.9-2.13 1.1-7.91.9-7.91.9z"/><path d="m764.64 511.82 2.5 2.52c-3.8 4.47-4.82 4.75-4.41 7.1a4.97 4.97 0 0 1-2.87 5.17 4.84 4.84 0 0 1-6.38-2.38c-1.1-2.4-.03-4.42 1.7-5.77 1.06-.82 2.43-.8 3.6-1.26 2.22-.88 5.86-5.38 5.86-5.38zm-20.97-43.1.27 3.54c5.87.05 6.74-.53 8.25 1.32a5 5 0 0 0 5.79 1.21 4.84 4.84 0 0 0 2.38-6.37c-1.1-2.4-3.33-2.92-5.48-2.5-1.32.26-2.18 1.31-3.3 1.9-2.13 1.1-7.91.9-7.91.9z"/><path d="m745.3 467.98 2.5 2.52c-3.81 4.47-4.82 4.75-4.41 7.1a4.97 4.97 0 0 1-2.87 5.17 4.84 4.84 0 0 1-6.38-2.38c-1.1-2.4-.03-4.42 1.7-5.77 1.06-.83 2.42-.8 3.6-1.26 2.22-.89 5.86-5.38 5.86-5.38zm-22.7-43.44.26 3.54c5.88.05 6.75-.53 8.26 1.32a4.98 4.98 0 0 0 5.79 1.21c2.4-1.1 3.47-3.97 2.38-6.37s-3.33-2.92-5.48-2.5c-1.32.26-2.18 1.32-3.3 1.9-2.13 1.1-7.91.9-7.91.9z"/><path d="m724.23 423.8 2.5 2.52c-3.81 4.47-4.82 4.75-4.41 7.1a4.98 4.98 0 0 1-2.87 5.17 4.84 4.84 0 0 1-6.38-2.38c-1.1-2.4-.03-4.42 1.7-5.77 1.06-.82 2.42-.8 3.6-1.26 2.22-.89 5.86-5.38 5.86-5.38z"/><g fill="#FFD100"><path d="m803.71 597.06 10.05 5.48-2.44 11.19-10.05-5.49zm-43.99-96.97c-2.1.87-5.23-8.3-7.52-13.32-2.36-5.15-7.14-13.1-5.78-13.72 1.5-.68 3.45 3.5 5.86 8.77 2.4 5.27 9.41 17.45 7.44 18.27zm-21.63-48.29c-2.1.88-4.41-5.13-6.7-10.15-2.36-5.15-4.65-8.8-3.3-9.42 1.5-.68 3.7 3.84 5.63 8.06 1.86 4.09 6.34 10.69 4.37 11.51zm50.04 109.49c-1.65.44-8.87-14.66-14.7-27.44-5.84-12.78-10.18-23.12-8.82-23.74 1.49-.68 6.21 11.4 12.05 24.17 5.83 12.79 12.7 26.68 11.47 27.01z"/><circle cx="796.2" cy="556.98" r="2.61"/><circle cx="778.27" cy="563.93" r="2.61"/><circle cx="775.78" cy="512.25" r="2.61"/><circle cx="757.84" cy="522.24" r="2.61"/><circle cx="756" cy="470.41" r="2.61"/><circle cx="738.5" cy="478.4" r="2.61"/><circle cx="734.93" cy="426.24" r="2.61"/><circle cx="717.43" cy="434.22" r="2.61"/></g><path d="M709.76 396.19s-.26 7.2 2.13 11.29c2.38 4.08 7.7 5.71 7.7 5.71s.25-7.2-2.13-11.28c-2.38-4.09-7.7-5.72-7.7-5.72zm-4.98 16.29s6.25.37 9.87 3.14c3.6 2.76 5 8.53 5 8.53s-4.14.42-7.75-2.35c-3.61-2.76-7.12-9.32-7.12-9.32zm19.63-14.54s-2.08 4.77-1.84 9.91c.24 5.14 3.24 10.94 3.24 10.94s2.71-6.18 2.47-11.32c-.23-5.14-3.14-8.07-3.87-9.53zm-10.53 46.36s3.07 4.29 7.8 6.63c4.73 2.33 11.77 2.42 11.77 2.42s-3.51-4.56-8.24-6.9c-4.73-2.34-11.33-2.15-11.33-2.15zm1.52 9.96s2.26 4.42 6.38 6.32c4.13 1.9 12.58 1.74 12.58 1.74s-3.24-4.14-7.37-6.03c-4.13-1.9-11.6-2.03-11.6-2.03zm23.77-23.58s-2.5 4.12-2.25 8.67c.24 4.54 3.23 9.5 3.23 9.5s2.1-5.69 1.85-10.23-2.83-7.94-2.83-7.94zm9.19 5.83s-4.27 5.73-4.88 11.62c-.61 5.9 2.43 11.94 2.43 11.94s5.15-5.18 5.77-11.07c.6-5.89-3.32-12.49-3.32-12.49zm-11.77 54.4s.51 2.12 2.3 4.37c1.78 2.25 4.83 4.63 4.83 4.63s2.95-.95 6.62-.16c3.66.8 8.54 4.06 8.54 4.06s-5.25-7.83-10.7-10.87c-5.44-3.04-11.59-2.03-11.59-2.03zm-.54 13.46s6.8-2.9 12.39-2.15c5.6.75 10.64 5.17 10.64 5.17s-7.56 2.61-13.16 1.87c-5.6-.75-9.87-4.89-9.87-4.89zm28.71-31.58s-6 6.36-6.51 11.89c-.5 5.52 4.87 10.67 4.87 10.67s-.26-3.55.66-5.88c.93-2.33 2.9-4.82 2.9-4.82s.83-2.84.5-5.12c-.44-3.19-2.42-6.74-2.42-6.74zm8.62 7.37s-5.66 5.73-7.16 11.86c-1.5 6.14 1.17 12.68 1.17 12.68s5.15-4.06 6.65-10.2c1.5-6.13-.66-14.34-.66-14.34zm14.18 36.98s2.57 5.36 3.22 9.83c.65 4.48.04 6.03.04 6.03s-2.65 2.6-3.84 4.14c-1.53 1.97-1.75 5.58-1.75 5.58s-5.32-7.92-4.5-13.7c.82-5.8 6.83-11.88 6.83-11.88zm11.22 12.39s-6.82 4.5-9.52 9.12c-2.71 4.62-1.3 9.35-1.3 9.35s4.85-.43 7.56-5.04c2.7-4.62 3.26-13.43 3.26-13.43zm-44.8 19.02s9.83-.27 15.83 1.2c6 1.48 8.2 4.7 8.2 4.7s-6.76 3.17-12.76 1.69c-6.01-1.48-11.27-7.6-11.27-7.6zm-1.66-11.66s4.43 6.87 10.16 9.37c7.9 3.43 17.05 1.77 17.05 1.77s-4.97-6.1-11.8-8.78c-6.84-2.69-15.41-2.36-15.41-2.36z" fill="#007749"/><path d="m1088.74 401.94 1.28 2.72s-2.08.71-3.02 2.55c-.94 1.85.61 4.46.61 4.46s-10.8-.94-12.49.15c-1.52 1 .65 8.48-.36 14.8-1.4 8.8-4.87 8.07-5.01 9.78-.14 1.66 1.33 4.25 1.33 4.25s-2.03.63-2.46 1.48c-.7 1.36.48 3.88-.36 5.53l-16.23 31.84c-.64 1.26-2.36 1.74-3.22 3.43-.8 1.56-.16 3.84-.16 3.84s-3.04.18-4.1 2.25c-1.11 2.2-.45 5.17-.45 5.17s-1.93.25-2.87 2.1c-1 1.98.7 3.02.26 3.9l-17.87 35.06c-1.63 3.2-7.34 3.84-10.65 10.34a9.6 9.6 0 0 0 1.38 10.96s-4.77.43-6.04 2.92c-1.29 2.53-.27 6.38 3.18 8.14 3.44 1.75 7.2.33 8.5-2.2 1.26-2.5-1.28-6.61-1.28-6.61s6.46.93 9.67-5.38c3.31-6.5.52-11.44 2.15-14.64l17.87-35.06c.44-.88 2.27-.12 3.27-2.1.95-1.86 0-3.53 0-3.53s2.83-1.23 3.95-3.44c1.05-2.07-.56-4.65-.56-4.65s2.22-.8 3.01-2.36c.87-1.7.23-3.35.87-4.6l16.23-31.85c.85-1.65 3.56-2.22 4.25-3.58.43-.85-.25-2.87-.25-2.87s2.98-.3 4.24-1.38c1.3-1.12-1.33-3.52 4.97-9.83 4.52-4.53 11.82-7.2 11.72-9.01-.1-2.01-7.21-10.19-7.21-10.19s3-.25 3.94-2.1c.94-1.84.3-3.99.3-3.99l2.97-.51v-14.08zM990.6 598.02a3.5 3.5 0 0 0 0 3.12s-3.58-1.12-4.8-.51c-1.17.57 0 17.46 0 17.46s14.29-9.02 14.07-10.3c-.23-1.35-3.23-3.63-3.23-3.63a3.42 3.42 0 0 0 2.51-1.8c.47-.92.54-3.56-2.71-5.21a5.78 5.78 0 0 0-3.18-.72 3.4 3.4 0 0 0-2.66 1.59z"/><g fill="#FFD100"><path d="m1091.34 402.51 6.76 3.43-.1-8.14zm-2.61 4.92c-.87 1.7-.03 3.88 1.9 4.86 1.91.97 4.14.37 5.01-1.33.87-1.7.02-3.89-1.9-4.86a4.2 4.2 0 0 0-2.2-.47c-1.2.09-2.27.73-2.81 1.8zm-11.62 6.19c-.71.46.26 6.54.05 11.72-.2 4.88-1.76 6.26-2.61 7.94-.79 1.55-3.63 3.38-3.63 3.38l2.35 2.35s1.53-2.38 3.94-7.12c2.84-5.58 2.75-15.68 3.59-16.22.72-.47 6.65-1.95 6.65-1.95s-5.44-.3-8.45-.26c-1 .02-1.72.05-1.89.16z"/><path d="M1077.73 441.73s.79-2.2 3.53-7.58c3.31-6.5 10.38-11.21 10.55-12.4.17-1.2-2.46-6.9-2.46-6.9s-6.24 1.2-7.12 2.05c-.85.82-.47 9.26-3.79 15.76a77.76 77.76 0 0 1-4.09 7.38z"/><path d="M1093.65 422.22c.05.99-8.16 6.86-11 12.44a88.48 88.48 0 0 0-3.44 7.37l3.28.51s-.23-3.36.56-4.91c.86-1.68 1.08-3.73 4.92-6.76 4.07-3.2 9.57-6.01 9.52-6.86-.04-.78-6.14-8.34-6.14-8.34s2.25 5.69 2.3 6.55zm-24.06 36.5c4.94-9.69 6.44-10.35 7.07-11.57.66-1.31.5-3.08-1.7-4.2a3.77 3.77 0 0 0-2.14-.46 2.8 2.8 0 0 0-2.2 1.59c-.63 1.22-.29 2.85-5.23 12.54l-11.21 21.96s-1.18 2.16 1.02 3.28c2.2 1.12 3.18-1.13 3.18-1.13zm-19.81 25.19c-.61 1.2.44 2.96 2.36 3.94 1.91.98 4 .8 4.6-.4.61-1.2-.48-2.97-2.4-3.95a5.2 5.2 0 0 0-2.77-.62c-.83.08-1.48.43-1.79 1.03zm-4.15 6.24c-.8 1.56.44 3.79 2.77 4.97 2.32 1.18 4.84.89 5.63-.67.79-1.55-.45-3.78-2.77-4.96a6.32 6.32 0 0 0-2.56-.72c-1.37-.06-2.57.41-3.07 1.38zm-2.61 6.97c-.61 1.2.44 2.96 2.36 3.94 1.91.98 3.99.79 4.6-.41.61-1.2-.43-2.96-2.35-3.94a5.38 5.38 0 0 0-2.82-.62c-.83.08-1.48.43-1.79 1.03zm-1.69 6.65-16.84 33.12c-1.4 2.76-7.31 4.47-9.62 9.01-2.33 4.57-.7 8.85 2.35 10.4 3.04 1.55 7.5.42 9.83-4.15 2.31-4.54.23-10.35 1.64-13.1l16.84-33.13s1.23-2.15-.97-3.27a2.37 2.37 0 0 0-1.44-.26c-1.2.16-1.79 1.38-1.79 1.38zm-31.49 56.88c-.93 1.83.13 4.26 2.4 5.42 2.28 1.16 4.9.6 5.84-1.23.94-1.83-.18-4.27-2.45-5.42a5.3 5.3 0 0 0-2.56-.62c-1.4.04-2.65.7-3.23 1.85zm-16.58 37.42c-.71.02-1.3.25-1.54.72-.47.93.51 2.4 2.2 3.27 1.7.86 3.47.78 3.95-.15.47-.94-.51-2.42-2.2-3.28a4.98 4.98 0 0 0-2.41-.56zm-5.84 4.6v12.09l9.83-7.07s-1.33-2.35-4.25-3.84c-2.92-1.48-5.58-1.18-5.58-1.18z"/></g><path fill="#FFD100" d="M993.64 333.6c0-6.63 8.7-13.16 8.7-13.16H790.1s8.7 6.53 8.7 13.16v157.98a14.4 14.4 0 0 0 3.33 9.52c2.04 2.86 6.4 6.8 10.9 9.73 13.94 9.05 37.25 18.6 54.88 26.62 14.7 6.69 20.68 9.38 28.31 18.84 7.64-9.46 13.67-12.15 28.36-18.84 17.63-8.02 40.94-17.57 54.88-26.62 4.52-2.93 8.87-6.87 10.9-9.73a14.36 14.36 0 0 0 3.28-9.52z"/><path fill="#C8102E" d="M803.82 422.98V333.6c0-5.06-2.56-8.14-2.56-8.14h189.93s-2.56 3.08-2.56 8.14l.05 89.38-92.43 28z"/><path fill="#003DA5" d="m988.68 422.98-57.23-1.07h-70.4l-57.23 1.07v68.6c0 3.45 3.58 11.53 24.21 21.8 34.12 17 60.33 24.94 68.2 34.62 7.85-9.68 34.07-17.61 68.18-34.61 20.64-10.28 24.22-18.36 24.22-21.8z"/><path d="M930.06 419.4s33.02-8.32 33.02-43.62c0-27.56-33.1-41.23-34.04-47.81-3.24 11.38 11.06 27.1 11.06 45.71 0 24.1-17.77 25.24-17.77 25.24-4.16 0-5.84 2.97-7.47 2.97-3.5-.36-5.15-4.81-8.6-4.81-3.25 0-5.74 5.02-10.04 5.02-4.29 0-6.73-5.02-9.98-5.02-3.46 0-5.1 4.45-8.6 4.81-1.63 0-3.32-2.97-7.48-2.97 0 0-17.76-1.15-17.76-25.24 0-18.61 14.3-34.33 11.06-45.71-.94 6.58-34.04 20.25-34.04 47.81 0 35.3 33.02 43.62 33.02 43.62l-9.42 17.15s13.64.68 20.88 6.86c8.74 7.45 7.89 23.23 7.89 34.71 0 9.04-1.15 18.59-5.79 22.52-6.23 5.29-10.44 5.68-10.44 11.88 0 5.18 3.98 6.21 10.44 9.63 8.29 4.37 7.9 10.23 20.22 10.23 12.32 0 11.99-5.86 20.28-10.23 6.46-3.42 10.44-4.45 10.44-9.63 0-6.2-4.21-6.6-10.44-11.88-4.64-3.93-5.79-13.48-5.79-22.52 0-11.48-.85-27.26 7.89-34.7 7.24-6.19 20.88-6.87 20.88-6.87z"/><path d="m896.22 330.42-5.74 16.28-15.6-7.42 7.41 15.61-16.27 5.79 16.27 5.78-7.42 15.56 15.61-7.42 5.74 16.28 5.79-16.28 15.6 7.42-7.41-15.56 16.28-5.78-16.28-5.79 7.42-15.61L902 346.7l-5.79-16.28zm-35.17 91.49s-20.39-4.98-28-15.05c-13.31 11.98-29.23 16.13-29.23 16.13s16.6 7.5 29.23 17.04c5.82-8.33 28-18.12 28-18.12zm70.39 0s22.19 9.79 28 18.12c12.63-9.55 29.23-17.04 29.23-17.04s-15.91-4.16-29.23-16.13c-7.61 10.07-28 15.05-28 15.05zm-62.04 21.7-7.93 7.93 7.93 7.94 7.94-7.94-7.94-7.93zm53.7 0-7.93 7.93 7.93 7.94 7.94-7.94-7.94-7.93zm-55.7 46.33c0 10.03-.97 15.3-.97 15.3s11.19-3.29 13.42-14.63c1.04-5.32 2.2-24.92-3.18-28.26l-14.59-2.87c1.58 3.9 5.32 15.98 5.32 30.46zm48.43-27.6c-5.38 3.35-4.22 22.95-3.17 28.27 2.22 11.35 13.4 14.64 13.4 14.64s-.96-5.28-.96-15.3c0-14.5 3.74-26.57 5.32-30.47zm-82.82.58a9.4 9.4 0 0 0-6.81 11.41c.19.77.5 1.48.87 2.15a9.25 9.25 0 0 0-2.3-.46 9.55 9.55 0 0 0-.98 0 9.39 9.39 0 0 0-.3 18.74 9.4 9.4 0 0 0 2.25-.1 9.22 9.22 0 0 0-1.13 2 9.47 9.47 0 0 0 5.22 12.28 9.44 9.44 0 0 0 12.24-5.27 9.07 9.07 0 0 0 .56-2.2 9.28 9.28 0 0 0 1.59 1.68 9.43 9.43 0 0 0 13.26-1.17 9.36 9.36 0 0 0-1.18-13.21c-.6-.5-1.27-.9-1.95-1.23a9.32 9.32 0 0 0 2.1-.97 9.46 9.46 0 0 0 2.97-13 9.32 9.32 0 0 0-8.55-4.36 9.46 9.46 0 0 0-4.4 1.44 9.33 9.33 0 0 0-1.8 1.43 9.44 9.44 0 0 0-.25-2.3 9.42 9.42 0 0 0-9.52-7.12 9.52 9.52 0 0 0-1.9.25zm99.82 27.33c1.01 9.59 8.8 17.62 18.42 19.91a21.28 21.28 0 0 1-3.07-8.85c-1.2-11.37 7.59-20.58 19.6-20.58 1.9 0 3.74.23 5.54.66a24.83 24.83 0 0 0-20.89-11.77c-12.02 0-20.81 9.26-19.6 20.63z"/><g fill="#FFD100"><path d="M847.6 373.68c0 18.13 9.66 28.83 22.57 28.83 2.46 0 5.15 3.32 7.47 3.32 3.79 0 6.3-4.2 8.6-4.2 2.93 0 4.9 4.61 9.99 4.61 5.08 0 7.1-4.6 10.03-4.6 2.3 0 4.82 4.2 8.6 4.2 2.32 0 5.01-3.33 7.47-3.33 12.91 0 22.58-10.7 22.58-28.83 0-14.78-12.41-32.8-11.06-35.73 0 0 24.22 17.37 24.22 37.83 0 32.97-33.43 41.11-33.43 41.11l7.52 16.95s-10.36 1.55-16.68 6.65c-8.44 6.8-8.55 25.2-8.55 37.63 0 14.65.54 20.85 5.83 24.83 5.58 4.19 9.78 5.1 9.78 9.37 0 3.72-4.35 5.24-9.98 7.73-6.42 2.82-7.06 7.73-16.33 7.73-9.28 0-9.87-4.9-16.28-7.73-5.64-2.49-9.99-4.01-9.99-7.73 0-4.28 4.2-5.18 9.78-9.37 5.3-3.98 5.84-10.18 5.84-24.83 0-12.44-.11-30.82-8.55-37.63-6.33-5.1-16.7-6.65-16.7-6.65l7.53-16.95s-33.43-8.14-33.43-41.1c0-20.47 24.22-37.84 24.22-37.84 1.36 2.92-11.06 20.95-11.06 35.73zm35.98 136.13c-6.57 0-10.75 1.39-10.75 3.38 0 2 4.18 3.33 10.75 3.33 1.75 0 3.74-1.02 3.74-3.33s-2-3.38-3.74-3.38zm25.34 0c-1.75 0-3.74 1.07-3.74 3.38 0 2.3 1.99 3.33 3.74 3.33 6.57 0 10.75-1.34 10.75-3.33 0-2-4.18-3.38-10.75-3.38z"/><path d="m896.28 341.38 3.69 10.4 9.93-4.77-4.71 9.98 10.34 3.7-10.34 3.68 4.7 9.93-9.92-4.71-3.74 10.34-3.69-10.34-9.93 4.7 4.71-9.92-10.34-3.69 10.34-3.68-4.7-9.99 9.92 4.76 3.74-10.39zm-82.74 81.9s12.6 6.28 18.94 11.88l.36.3.2-.25c5.99-6.87 17.1-12.7 17.1-12.7s-10.68-2.94-17.4-10.65c-7.12 7.25-19.2 11.42-19.2 11.42zm165.4.02s-12.6 6.28-18.93 11.87l-.36.3-.2-.25c-6-6.87-17.1-12.7-17.1-12.7s10.67-2.94 17.4-10.64c7.11 7.25 19.2 11.41 19.2 11.41zM869.4 447.4l4.15 4.14-4.15 4.2-4.2-4.2 4.2-4.14zm53.7 0 4.2 4.14-4.2 4.2-4.15-4.2 4.15-4.14zm-48.07 18.12c2.9 4 2.4 10.46 2.4 19.45 0 9.07-6.8 12.54-6.8 12.54 0-21.79-2.25-27.03-3.43-33.63zm50.27-1.64c-1.18 6.6-3.43 11.84-3.43 33.63 0 0-6.8-3.47-6.8-12.54 0-8.99-.5-15.45 2.4-19.45l7.83-1.64z"/><path id="b" d="M842.83 472.13a7.1 7.1 0 0 1-.3 4.25 10.56 10.56 0 0 0-3.64-.62c-3.16 0-5.99 1.4-7.93 3.59a7.3 7.3 0 0 1-1.33-1.54 7.17 7.17 0 0 1-.98-2.15 7.3 7.3 0 0 1 6.81-9.06 7.29 7.29 0 0 1 7.37 5.53z"/><use xlink:href="#b" transform="rotate(72 838.89 486.47)"/><use xlink:href="#b" transform="rotate(144 838.89 486.47)"/><use xlink:href="#b" transform="rotate(216 838.89 486.47)"/><use xlink:href="#b" transform="rotate(288 838.89 486.47)"/><circle cx="838.89" cy="486.47" r="7.07"/><path d="M962.92 476.94c-11.72 2.27-20.17 12.63-18.94 24.73-3.74-3.1-6.47-7.27-6.96-11.88-.95-8.98 5.57-15.92 15.41-15.92a20.1 20.1 0 0 1 10.5 3.07z"/></g></svg>