<svg xmlns="http://www.w3.org/2000/svg" xmlns:xlink="http://www.w3.org/1999/xlink" viewBox="0 0 900 600"><path fill="#C8102E" d="M0 0h900v600H0z"/><path fill="#fff" d="M0 0h450v600H0z"/><path fill="#C8102E" d="M22.22 82.83v45.46h45.46c0 7.57 7.57 15.15 15.15 15.15v45.45h45.45v-45.45c7.58 0 15.15-7.58 15.15-15.15h45.46V82.82h-45.46c0-7.58-7.57-15.15-15.15-15.15V22.22H82.83v45.46c-7.58 0-15.15 7.57-15.15 15.15H22.22z"/><path fill="#96877d" d="M25.25 85.86v39.4h45.46c0 7.57 7.57 15.14 15.15 15.14v45.46h39.39V140.4c7.58 0 15.15-7.57 15.15-15.15h45.45v-39.4H140.4c0-7.57-7.57-15.14-15.15-15.14V25.25h-39.4v45.46c-7.57 0-15.14 7.57-15.14 15.15H25.25z"/><path fill="#ccc" d="M26.77 87.37v36.37h45.45c0 7.57 7.58 15.15 15.15 15.15v45.45h36.37V138.9c7.57 0 15.15-7.58 15.15-15.15h45.45V87.37h-45.45c0-7.57-7.58-15.15-15.15-15.15V26.77H87.37v45.45c-7.57 0-15.15 7.58-15.15 15.15H26.77z"/><g id="a" fill="#d0d0d0"><path fill="#96877d" d="M84.54 71.68c2.66 2.66 1.94 7.7-1.61 11.25s-8.59 4.27-11.25 1.6c-2.66-2.65-1.94-7.7 1.6-11.24s8.6-4.27 11.26-1.6z"/><path d="m71.14 79.72 1.07-1.08 4.29 2.15-2.14-4.29 1.07-1.07L79.7 84l-8.57-4.29zm6.43-6.43 1.07-1.07 6.43 6.42L84 79.72z"/></g><use xlink:href="#a" transform="rotate(90 105.56 105.56)"/><use xlink:href="#a" transform="rotate(180 105.56 105.56)"/><use xlink:href="#a" transform="rotate(270 105.56 105.56)"/><g fill="none" stroke="#96877d" stroke-width=".51"><circle cx="105.56" cy="105.56" r="31.82"/><circle cx="105.56" cy="105.56" r="24.25"/></g><circle cx="93.43" cy="131.31" r="1.51"/><circle cx="117.67" cy="131.31" r="1.51"/><path d="M104.55 131.31v1.58h-2.02c-2.02 0-2.02 1.58 0 1.58h2.02v1.58c0 1.64 1.76 1.84 1.9.14l.12-1.71h2.02c2.02 0 2.02-1.58 0-1.58h-2.02v-1.58c0-1.58-2.02-1.58-2.02 0zm-28.6-17.91 2.09-.5-.23-.96c-.06-.22-.14-.37-.27-.45-.12-.08-.33-.1-.63-.07l-.03-.15 1.8-.42.03.14c-.2.05-.35.12-.44.19a.52.52 0 0 0-.16.26c-.03.1-.02.24.02.42l.23.97 1.67-.4c.27-.07.44-.12.52-.18a.36.36 0 0 0 .13-.2.76.76 0 0 0 0-.38l-.04-.2.14-.03.54 2.27-.14.04-.04-.19c-.06-.22-.16-.36-.3-.43-.1-.04-.32-.03-.63.05l-3.43.82a1.9 1.9 0 0 0-.52.17.36.36 0 0 0-.13.2.75.75 0 0 0 0 .39l.04.18-.15.04-.94-3.95 1.16-.32.03.13c-.23.13-.4.25-.49.37a.8.8 0 0 0-.17.4c-.02.14 0 .35.06.62l.28 1.17zm-1.34-9.4c.04-.7.34-1.3.91-1.8.56-.48 1.25-.7 2.05-.66.83.05 1.5.35 2.02.9.51.56.75 1.2.7 1.94-.03.75-.34 1.37-.9 1.85s-1.26.7-2.1.64a2.75 2.75 0 0 1-2.07-1 2.6 2.6 0 0 1-.6-1.87zm.29.1c-.03.48.13.88.48 1.2.42.39 1.07.6 1.94.65.89.05 1.58-.1 2.08-.45a1.41 1.41 0 0 0 .61-1.12 1.58 1.58 0 0 0-.52-1.3c-.38-.36-1-.56-1.86-.61-.93-.05-1.64.1-2.12.43a1.5 1.5 0 0 0-.61 1.2zm7.9-9.96-.52 1.36-3.04.82a8.8 8.8 0 0 1-.15.42 4.25 4.25 0 0 1-.05.11l1.48.56c.32.13.53.17.63.13a.59.59 0 0 0 .33-.37l.08-.2.14.05-.83 2.19-.14-.06.07-.19c.08-.21.07-.4-.04-.54-.05-.08-.23-.18-.52-.29l-3.29-1.25c-.32-.12-.53-.16-.63-.12-.15.05-.26.18-.34.37l-.07.19-.14-.05.7-1.86c.21-.54.4-.92.58-1.15.18-.23.4-.39.69-.49s.56-.09.86.02c.3.12.54.33.7.62.15.3.19.67.12 1.13l1.86-.5c.43-.1.73-.23.9-.36.18-.13.34-.33.47-.6l.14.06zm-4 2.62a3.78 3.78 0 0 1 .08-.2c.19-.5.22-.9.1-1.23a1.08 1.08 0 0 0-.66-.67 1.12 1.12 0 0 0-.89 0c-.27.12-.47.35-.6.68-.05.14-.1.35-.15.61l2.12.81zm11.6-18.05 1.05 1.36-.12.08a2.35 2.35 0 0 0-.99-.51c-.44-.09-.88 0-1.3.28-.59.38-.88.9-.88 1.55 0 .56.17 1.1.52 1.64.28.44.62.78 1.02 1.03s.8.37 1.18.36a1.9 1.9 0 0 0 1-.3 2.21 2.21 0 0 0 .78-.86l-.86-1.32a1.43 1.43 0 0 0-.34-.41.42.42 0 0 0-.26-.06c-.1 0-.24.07-.43.2l-.08-.14 1.77-1.14.08.13-.08.05c-.18.11-.26.25-.25.41.01.11.1.29.25.54l.91 1.4a4.08 4.08 0 0 1-.57.8c-.2.23-.47.44-.77.64-.89.57-1.74.72-2.57.45A2.7 2.7 0 0 1 88 83.76a2.93 2.93 0 0 1-.46-1.35 2.95 2.95 0 0 1 .3-1.62c.2-.41.53-.77 1-1.06.16-.11.32-.2.47-.26.15-.06.39-.12.7-.2a1.12 1.12 0 0 0 .3-.08.16.16 0 0 0 .07-.13.6.6 0 0 0-.1-.27l.13-.08zm8.87.61-2.04.54-.14.93c-.03.23-.03.4 0 .5.01.07.07.13.16.17s.27.04.53 0l.04.14-1.66.44-.04-.15c.21-.1.34-.18.39-.26.1-.16.18-.45.24-.88l.7-4.82.13-.04 3 3.9c.24.3.44.5.59.57.14.08.33.09.55.05l.03.14-2.07.55-.04-.14c.2-.07.34-.14.4-.22a.28.28 0 0 0 .05-.25 1.67 1.67 0 0 0-.3-.5l-.52-.67zm-.19-.26-1.46-1.89-.35 2.37 1.81-.48zm9.63-.02.13.03-.53 1.46-4.21-.17v-.14h.2c.24.01.4-.06.51-.2.06-.09.1-.28.1-.6l.14-3.5c.02-.35-.01-.56-.08-.65a.62.62 0 0 0-.46-.2h-.2v-.15l2.47.1-.01.14c-.3-.01-.5 0-.61.06a.5.5 0 0 0-.25.2c-.05.09-.08.3-.09.62l-.13 3.42c-.01.22 0 .37.05.46.03.05.07.1.14.13s.27.05.62.06l.4.02c.42.01.71 0 .88-.06a1.15 1.15 0 0 0 .48-.31c.14-.15.3-.4.45-.73zm7.25 1.94.12.06-.9 1.26-4.01-1.32.04-.14.2.06c.22.07.4.05.54-.06.08-.06.17-.24.26-.54l1.1-3.33c.12-.33.15-.54.1-.65-.06-.14-.19-.25-.38-.31l-.2-.07.05-.14 2.34.78-.05.14c-.27-.1-.47-.13-.6-.12a.5.5 0 0 0-.3.13 2 2 0 0 0-.25.57l-1.07 3.25c-.07.2-.1.36-.09.45a.29.29 0 0 0 .1.17c.06.04.26.12.59.23l.38.13c.4.13.68.2.86.18.18 0 .36-.06.54-.16.18-.1.4-.3.63-.57zm5.85 3.1-1.72-1.23-.8.5c-.2.11-.33.22-.39.3a.35.35 0 0 0-.03.25c.03.1.15.23.35.4l-.08.12-1.4-1 .08-.12c.21.1.36.15.45.13.19-.02.46-.15.83-.38l4.15-2.55.12.08-1.07 4.8c-.09.38-.11.66-.07.82.03.16.14.3.32.45l-.1.12-1.75-1.24.09-.12c.18.11.32.17.42.16a.28.28 0 0 0 .23-.12c.06-.1.13-.28.19-.55l.18-.83zm.08-.31.52-2.34-2.05 1.25 1.53 1.09zm6.46 1.19.88 1.18-1.3 5.11 2.53-1.87c.27-.2.41-.35.44-.46.03-.15-.02-.3-.15-.48l-.11-.15.12-.09 1.13 1.53-.12.08-.12-.15c-.13-.19-.29-.28-.46-.27-.1 0-.28.1-.52.28l-3.69 2.73-.09-.11 1.39-5.5-2.7 2c-.27.2-.41.35-.44.46-.03.15.02.3.15.47l.11.16-.12.09-1.13-1.53.12-.08.12.15c.14.18.29.28.46.27.1 0 .28-.1.52-.28l3.05-2.26a2.62 2.62 0 0 0 .08-.5c0-.1-.03-.23-.08-.39a1.28 1.28 0 0 0-.19-.3l.12-.1zm6.87 12.66-1.18.48-.05-.14c.2-.1.34-.2.41-.28a.8.8 0 0 0 .22-.42 1.15 1.15 0 0 0-.08-.55l-.26-.73-3.92 1.4c-.32.1-.5.2-.56.3-.07.14-.07.3 0 .5l.06.18-.14.05-.77-2.18.14-.05.07.18c.07.22.2.35.36.4.1.02.3-.01.58-.12l3.93-1.38-.22-.62c-.09-.24-.17-.4-.24-.5a.74.74 0 0 0-.4-.23 1.19 1.19 0 0 0-.6.03l-.05-.15 1.22-.36 1.48 4.19zm-4.3 9.66-.08-1.45 2.44-1.97a8.87 8.87 0 0 1-.03-.45v-.12l-1.58.08c-.34.02-.55.07-.63.15-.11.1-.16.26-.15.46v.21l-.14.01-.12-2.33h.15v.2c.02.23.1.39.26.48.09.05.28.07.6.05l3.5-.18c.35-.02.56-.07.64-.15.11-.1.16-.26.15-.47v-.2l.14-.01.1 1.98c.04.58.02 1-.05 1.28s-.22.52-.43.73c-.22.2-.48.31-.8.33a1.27 1.27 0 0 1-.89-.29c-.25-.2-.45-.53-.57-.98l-1.5 1.2c-.35.28-.57.51-.68.7s-.17.44-.2.74h-.14zm2.59-4v.22c.03.52.17.9.4 1.16.24.25.54.37.88.35.34-.02.61-.14.82-.37.2-.22.29-.5.27-.86a3.54 3.54 0 0 0-.1-.62l-2.27.11zm1.5 11.2-.5 1.84-.13-.03.02-.1c.02-.07.02-.18-.01-.33s-.08-.28-.16-.42a3.62 3.62 0 0 0-.44-.53l-1.67-1.8-1.32-.34c-.33-.09-.54-.1-.64-.05-.13.07-.23.2-.29.42l-.04.17-.14-.04.58-2.24.15.04-.05.19c-.06.22-.03.4.08.52.06.08.25.16.54.24l1.25.33 2.59-.87c.3-.1.5-.18.57-.22.08-.04.2-.15.34-.32a.54.54 0 0 0 .1-.21l.14.03-.6 2.26-.14-.04.03-.12a.7.7 0 0 0 0-.35.29.29 0 0 0-.21-.22c-.1-.03-.28 0-.57.1l-1.99.65 1.36 1.46c.2.22.36.35.48.38a.36.36 0 0 0 .39-.13.8.8 0 0 0 .13-.3l.14.03z"/><g fill="#96877d" stroke="#000" stroke-width=".2"><path d="M122.85 110.19c.53-.14 1.41-.03 1.41-.03s.08.37-.16.5c.26.14 1.18.1 1.18.1l-.53.38c.33.03.74.46.74.46s-.77.13-1.1-.05c.2.4.18.77.18.77s-1.25-.31-1.7-1.13m-2.1-1.7c-.3.74-2.51-.64-2.51-.64s.97 1.54 2.43 1.72m-27.5 13.09h25.87l2-1.59-3.33-1.8-5.13-1.73-2.05-1.13-3.79.2-3.18 1.7-4.35.5L98.2 121l-3.23.26-5.07-.1 8.46 1.33-6.97-.36 1.8 1.54z"/><path d="M107.12 116.23c-3.24-1.74-4.19 2.55-5.58 3.59 1.88.32 3.3-1.45 4.91-2.3 1.23 3.32 3.16 1.12 3.16 1.12s2 3.19 4.68 1.74c.73.55 1.54.05 1.54.05s.98.18 1.18-.26c.51.18 1.08-.46 1.08-.46s1.11.02 1.33-.56c1.65.3 3.84-3.38 3.84-3.38l.67-1.28.97-.2s.07-.65-.46-.62c-.01-.39-.35-.6-.82-.51.09-.23-.26-.41-.26-.41-.92.23-.97 2.56-.97 2.56s-1.61 1.23-2.2 1.54c-.03-1.34-2.26-3.14-1.8-4 .46-.86 1.91 1.32 3.18.92 1.27-.4 1.9-2.05 1.95-3.33-.36-.87-1.23-2.3-1.23-2.3l-.82-.06-.72-1.74s-1.51.99-1.49 1.84c.03.86 1.6 1.6 1.6 1.6s-.9.56-1.75.3c-.08.87 1.03.7 1.44.72.2.63.82.97.82.97s.38.96-.62.87c-1-.09-2.18-2.39-3.59-1.33-1.5 1.13.67 3.18.67 3.18s-1.32.69-2.1 2.46c-3.2-2.7-5.06-1.44-8.61-.72z"/><path d="M102.46 111.67c1.33 1.25.4 3.34.92 3.74.55.42 1.33-.2 1.33-.2 1.4.37 3.9-.41 3.9-.41 1.1.61.66-.3 1.33-.26.6 1.51 2.56 1.23 2.56 1.23s-1.8-1.84-2.92-2.36c-.86.52-3.35.6-3.79.52-.49-.1-.18-.68-.4-1.03.9-.9.18-3.11-.32-3.95-2.03-1.35-4.47.97-2.61 2.72zm-8.86-3.75c-1.68.45-4.58-2.17-5.94-1.16s-.73 3.48.18 4.71c.88 1.2-1.3 1.64-1.89 2.36-.55.67.18 1.45.18 1.45l.62.4-.1.9.32 1.09s.3.26.4-.08c.28.29.03 1.1.72 1.2-.25-.52.18-1.96.18-1.96s1.22.1 1.53-.43c.3-.53-.3-1.67-.3-1.67h.37c-.41-.28-.55-1.12-.55-1.12s1.69-.54 1.67-1.81c-.02-1.28-2.73-2.64-1.74-3.3 1.1-.73 3.03 1.9 4.67.69 1.64-1.2.58-.04.58-.04s.75-1.68-.9-1.23zm8.65-17.95c-2.24-.93-6.82-1-9.38-2.25-1.12.07-1.62.95-1.66 1.3-1.18-.05-1.97 1.79-1.8 2.16-2.13-.87-3.12 2.5-2.43 3.2-1.82.08-1.6 2.4-1.77 3.05-.58 1.41.13 1.89 1.28 1.38.18.62-.07.96-.59 1.08 3.16 3.61 4.95-2.23 7.72-2.2 3.45-1.02 4.81-2.72 4.81-2.72l1.36.18 2.46-5.18z"/><circle cx="105.14" cy="87.38" r="3.31"/><path d="M99.33 113.41c-2.05-.37-5.44-2.5-5.79-5.28 1.9-7.5 11.75-3.58 12.6-9.22-.21-3.71.45-7.4 2.52-10.5.96-1.22 2.2-1.54 2.2-1.54s.22.79-.1 1.33c1.62-.18 3.85.73 5.38.82.44.9.4 1.24.3 1.8-.1.54-.71.4-.71.4-.4.38-.88.76-1.95.57-.8.61-2.51.76-2.51.76s3.56 3.76 2.97 4.92c.74.35 1.85 2 1.85 2s2.43-1.28 3.22-2.46c1.41 0 3.72 1.48 4.87 1.64l2.82 2.3s-1.68 1.11-2.4-.35c-.9.08-2.8-2.04-5.44-1.38-.08 2.34-2.66 4-2.66 4s2.41-.35 3.74.45a139.03 139.03 0 0 0 3.38 2.72l1.8 3.07s-1.65.29-2.26-1.84c-.62 1.72-.64-1.06-3.08-2.36-.74.1-1.11.14-1.74-.36-1.76.48-3.83 1.5-6.3 1.23-1.76.55-3.04 2.01-4.82 2.82-1.78.8-2.3.41-2.3.41l-1.44.05c-.2.87-.09 2.18-.87 2.41.5.54-.36 2.83-1.23 3.23.41 1.47 1.61 1.92 2.87 2.66 0 0 1.11-.5 1.84.16s1.49 2.56 1.49 2.56-1.52.1-2-.1-.52-.7-1.08-.57c-3.47-3.08-5.3-1.86-5.63-2.56-.34-.72.82-2.6.46-3.79z"/><path d="M90.99 99.66c.18-.23 1.45.25 1.45.25l2.32 1.45 4.7 3.04 1.67 2.43-3-.98-4.17-3.59-2.25-1.45s-.9-.93-.72-1.16zm27.86 7.71c-1.63-.41-5.64 4.46-5.64 4.46l3.03 3.28s.09-5.59 2.61-7.74z"/><path d="M99.02 93.79c-.88 1.14-.96 3.43.2 4.35.1 1.4 1.28 4.2 2.21 4.46 1.02.29 5.07 1.23 6.66.98-.3 2.57 1.72 4.64 3.59 6-.01.22-.02.5.2.8.2.27 1.2.32 1.23.16.44.62 2.55.89 2.7.61.15-.26-3.1-2.53-3.82-3.22a19.87 19.87 0 0 1-2.05-5.74c-1.6-1.9-4.34-1.86-4.34-1.86l.08-3.72.16-4.2-1.49-.77s.3-.14.46-.31c.36.16 1.04-.57 1.13-.77.34.12.65.12.71-.07.05-.16.12-.88.24-1.25 1.12-.99-.16-3.08-1.88-3.11-1.7-.04-2.07 2.02-2.04 2.18.16.64.12.97 0 1.12-.13.16-.72.52-.72.52s-.95-.45-2.1 0-2.45 1.05-2.51 1.79c-.53.08-1.38.76-1.54 1.33-.46-.09-1.06.3-2.05 1.9-1.77.78-1.87 4.56-1.87 4.56s-.48.7-.5 1.06c-.02.37.17.7.4.64.02.25.35.46.49.39.05.24.4.38.61.34.02.17.7.13.76-.02.06-.17-.07-1 .01-1.07.07-.06.64.38.8.26.15-.12-.04-.48-.12-.63-.08-.13-.57-.27-.68-.87s.3-1.43.3-1.43 1.93-1.52 2.15-2.81c1.44.14 2.21-1.12 2.62-1.6z"/><path d="M95.68 88.37c.44-1.07 2.02-.97 2.02-.97s.57-1.5 2.7-.6c.81-.63 2.93.26 2.93.26s.79-1.05 1.83-.93c1.92.22 2.24 1.99 2.13 2.3-1.06.26-2.88-.87-4.27-.55-.81.46-2.12.95-2.61 1.6-1.29.14-2.66-1.18-4.73-1.11zm4 1.78c.49-.3 1.67-.81 2.47-.18.84.9 2.12 1.74 2.12 1.74l1.47.62.66.4-.43 6.7c-1.36-1.39-2.62-1.63-3.6-3.26-.51-.7-.11-2.37-1.02-3.48-.9-1.11-1.86-1.86-1.66-2.54z"/><path d="M103.2 92.08s.77-.14.98.04c.27.09.52.17.6.4.29.08.49.23.49.45.27.07.38.56.38.56l-.26.38s-.29-.27-.32-.56c-.19-.09-.6-.19-.7-.45-.3-.03-.51-.2-.57-.47-.3.06-.6-.35-.6-.35z"/><path d="M109.68 87.72c-.44-.49-1.2-.13-1.2-.13l-2.05 3.53-.9.75-.08 2.76.75 2.6-.26 2s1.03-.98 1.15-1.52c.12-.52-.38-2.2-.38-2.2s-.62-1.05.13-3c.74-1.95 2.43-3.56 2.84-4.8z"/><path d="M114.74 90.87s-3.2 4.57-8.44 6.2c-1.45.34-.92-3.38-.92-3.38l-.36.1s-.8 3.65 1.13 3.69c5.26-1.04 9.21-6.58 9.21-6.58l-.63-.03zm2.17 26.29s-.49.36-1.13 0c-.33-.77-1.23-.82-1.23-.82s-.57-1.66-1.48-1.18c-.14-.86-1.13-.4-1.13-.4s-.03-1.25-1.18-1.08c.38-1.43-1.59-1.34-1.59-1.34s-.06-1.6-2.97-1.28c6.26-2.8 11.22 4.4 11.22 4.4m2.46 2.31s1.45 1.63 2.2 1.64c.76.01.82-1.59.82-1.59s.25.7.62.51c-.04.49.46.62.46.62s-1.3 3.04-5.02.15m-10.41-.71-.51 2.1s-.66.59-.46.72c.19.13 1.23-.2 1.23-.2s1.61-.2 2.1-.67c.33.75 1.07.82 1.07.82s.05-.32-.05-.51c.36.06.67-.06.67-.06s.2-.59-.26-.82c.05-.43.27-.82-.51-.76-.58.61-2 1.32-2.36 1.07-.36-.24 1.41-1.02.92-2.05"/></g></svg>