<svg xmlns="http://www.w3.org/2000/svg" xmlns:xlink="http://www.w3.org/1999/xlink" viewBox="0 0 1000 600"><defs><linearGradient id="e" gradientUnits="userSpaceOnUse" x1="498.74" y1="289.06" x2="500.63" y2="283.42"><stop stop-color="#510000" offset="0"/><stop stop-color="#8a0000" offset=".3"/><stop stop-color="#a00" offset="1"/></linearGradient><linearGradient id="f" gradientUnits="userSpaceOnUse" x1="501.44" y1="291.37" x2="502.93" y2="287.45"><stop stop-color="#ff2a2a" offset="0"/><stop stop-color="red" offset="1"/></linearGradient><linearGradient id="j" gradientUnits="userSpaceOnUse" x1="484.76" y1="311.71" x2="484.76" y2="317.65"><stop stop-color="#F5F549" offset="0"/><stop stop-color="#97C924" offset="1"/></linearGradient><linearGradient id="a"><stop stop-color="#025" offset="0"/><stop stop-color="#04a" offset=".5"/><stop stop-color="#025" offset="1"/></linearGradient><linearGradient id="g" xlink:href="#a" gradientUnits="userSpaceOnUse" x1="444.51" y1="317.49" x2="634.41" y2="317.49"/><clipPath id="b"><path d="M500 226.38 436.3 336.7h127.4z"/></clipPath></defs><path fill="#0067C6" d="M0 0h1000v600H0z"/><path fill="#fff" d="M0 200h1000v200H0z"/><path d="m410 299.33 9.98.67.1-1.46-3.93-.26c.1-1.6.24-3.2.3-4.81 1.4-1 2.78-2.01 4.17-3.02l.12-1.85-4.39 3.19c-.15-1.04-.72-2.11-1.76-2.47-.92-.33-2.03-.39-2.83.26-1 .74-1.18 2.06-1.3 3.21-.18 2.18-.3 4.36-.46 6.54zm1.52-1.36c.12-1.64.2-3.28.35-4.92.12-.8.27-1.74.98-2.25.64-.43 1.58-.11 1.85.61.52 1.25.29 2.62.22 3.93l-.19 2.84-3.21-.21zM411.3 284l9.74 2.28 2.21-9.48-1.38-.32-1.89 8.06-2.96-.7 1.7-7.26-1.38-.32-1.7 7.27-2.62-.61 1.81-7.77-1.39-.32-2.14 9.18zm3.5-13.07 9.45 3.28.48-1.38-3.71-1.29c.48-1.43 1.01-2.84 1.46-4.28.32-1.18.57-2.55-.13-3.65a3.07 3.07 0 0 0-2.55-1.3c-1.08.05-1.97.85-2.45 1.78-.72 1.34-1.12 2.82-1.64 4.24l-.9 2.6zm1.83-.91c.5-1.42.96-2.86 1.51-4.26.34-.75.76-1.63 1.62-1.87.7-.16 1.45.38 1.51 1.1.17 1.34-.4 2.6-.82 3.84l-.78 2.24-3.04-1.05zm3.39-11.19c1.78 1.04 3.55 2.1 5.34 3.11 1.01.54 2.3.85 3.35.25 1.44-.8 2.34-2.28 3.05-3.71.56-1.21.96-2.72.25-3.95-.76-1.24-2.15-1.8-3.34-2.54l-3.46-2.02-.73 1.25c1.7 1 3.4 1.98 5.08 2.99.81.49 1.48 1.38 1.34 2.36a7.42 7.42 0 0 1-1.5 3.17c-.56.77-1.49 1.4-2.47 1.18-1.03-.2-1.87-.87-2.77-1.35l-3.4-2-.74 1.26zm7.21-11.77 7.94 6.08 3.7-4.82c.71-1.03 1.37-2.36.89-3.6a3.08 3.08 0 0 0-2.57-1.83c-.5-.07-1.15.3-1.42.47.29-1.06-.59-2.06-1.57-2.35-1.18-.42-2.38.34-3.16 1.18-.92 1-1.69 2.13-2.53 3.2l-1.28 1.67zm2.01-.3c.93-1.19 1.81-2.42 2.78-3.57.46-.5 1.18-1.08 1.89-.7.64.27.8 1.08.49 1.66-.49 1.04-1.29 1.88-1.96 2.8l-1.09 1.43-2.1-1.62zm3.24 2.48c.96-1.23 1.87-2.51 2.89-3.7.52-.55 1.17-1.23 2-1.08.7.17 1.21.93.97 1.64-.4 1.31-1.38 2.31-2.17 3.4l-1.24 1.62-2.45-1.88zm3.75-12.78 6.87 7.26 5.88-5.55-.97-1.04-4.71 4.45-.12.11-.09-.09-5.8-6.14zm8.81-7.71 6.09 7.93 1.19-.91-6.1-7.93zm8.96-6.08a8.43 8.43 0 0 0-2.4 2.18 4.5 4.5 0 0 0-.26 5.28c.49.79 1.15 1.4 1.97 1.84.82.44 1.7.6 2.68.5a8.29 8.29 0 0 0 3.27-1.3 6.83 6.83 0 0 0 2.5-2.52c.49-.93.62-1.9.41-2.95l-1.38.54c.36 2-.92 2.96-2.37 3.88-2.26 1.37-4.46 1.27-5.8-.8-1.4-2.32.12-4.25 2.05-5.5 1.36-.85 2.7-1.43 3.98-.61l1.09-.97a3.98 3.98 0 0 0-2.56-.7 6.77 6.77 0 0 0-3.19 1.13zm11.8-5.9-1.04 11.2 1.56-.62.31-3.47 5.07-2.05 2.63 2.29 1.56-.63-8.53-7.35-1.55.63zm1.38 1.15 3.32 2.88-3.72 1.5.4-4.38zm20.55-7.32.62 9.97c1.8-.12 3.61-.2 5.41-.35 1.42-.17 2.94-.54 3.91-1.66 1.25-1.4 1.43-3.47.88-5.2a4.4 4.4 0 0 0-3.37-2.95c-1.53-.3-3.08-.07-4.62 0l-2.83.18zm1.54 1.32c1.43-.08 2.87-.22 4.3-.23.82-.02 1.63.22 2.3.7a3.4 3.4 0 0 1 1.45 3.13 3.36 3.36 0 0 1-2.44 3.02c-.78.2-1.58.26-2.37.34l-2.8.18-.44-7.14zm12.39-1.92-.57 9.98 9.72.56.08-1.42-8.26-.47.17-3.04 7.45.42.08-1.4c-2.48-.15-4.97-.3-7.45-.43l.15-2.7 7.96.46.08-1.42-9.4-.54zm26.11 4.17-3.61 9.32 1.28.5 2.87-7.4.15-.38.16.43 3.45 9.92 1.68.65 3.62-9.32-1.3-.5-2.86 7.39-.14.37-.16-.42-3.46-9.91zm13.43 5.77-4.54 8.9-1.33-.68 4.54-8.9zm7.55 4.42a8.43 8.43 0 0 0-2.98-1.28 4.5 4.5 0 0 0-4.9 1.97c-.51.78-.8 1.64-.85 2.57-.06.93.16 1.8.67 2.64a8.1 8.1 0 0 0 2.53 2.43 6.74 6.74 0 0 0 3.34 1.22c1.04.06 2-.23 2.85-.85l-1.07-1.03c-1.66 1.16-3.07.39-4.5-.54-2.2-1.48-3.03-3.52-1.71-5.6 1.53-2.25 3.92-1.66 5.85-.44 1.34.89 2.43 1.86 2.23 3.37l1.33.58c.15-.9.02-1.76-.43-2.62a6.77 6.77 0 0 0-2.36-2.42zm9.52 7.18-10.45 4.17 1.27 1.1 3.23-1.3 4.13 3.58-.84 3.38 1.27 1.1 2.66-10.93-1.27-1.1zm-.4 1.74-1.05 4.27-3.03-2.63 4.08-1.64zm7.96 5.21-7.72 6.36.93 1.13 3.03-2.5c1.03 1.23 2.03 2.48 3.08 3.7l-.95 5.05 1.17 1.43 1.01-5.33c.86.7 2.13 1.06 3.16.5.89-.42 1.67-1.23 1.72-2.25.1-1.38-.88-2.5-1.67-3.52l-3.77-4.57zm-.18 2.03c1.08 1.33 2.22 2.63 3.25 4 .48.7 1.07 1.7.52 2.53-.45.7-1.43.64-2.04.18-1.22-.82-2.03-2.08-2.98-3.18l-1.23-1.48 2.48-2.05zm11.87 13.88-11.24.52.84 1.45 3.48-.17 2.73 4.74-1.9 2.92.84 1.46 6.09-9.46-.84-1.46zm-.94 1.52-2.4 3.69-2-3.48 4.4-.21zm7.36 11.72c-.63-1.7-1.61-3.44-3.28-4.28a4.7 4.7 0 0 0-5.65 1.15c-1.14 1.36-1.2 3.28-.9 4.95a10.6 10.6 0 0 0 2.57 5.19l-.75.27.48 1.33 4.68-1.69-1.82-5.05-1.08.39 1.34 3.72-1.59.57a8.73 8.73 0 0 1-2.58-4.74c-.3-1.33-.32-2.92.69-3.96 1.15-1.2 3.2-1.58 4.59-.55a7.28 7.28 0 0 1 2.53 4.23c.26 1.06.22 2.32-.59 3.15-.22.16.14.4.2.6l.38.63a3.53 3.53 0 0 0 1.34-2.8 8.62 8.62 0 0 0-.56-3.11zm2.87 7.81-5.6 1.08c-1.03.2-1.8.54-2.33.97a3.12 3.12 0 0 0-1 1.87 8 8 0 0 0 .1 3.04 8 8 0 0 0 1.04 2.83c.45.7.99 1.15 1.63 1.36.65.2 1.5.22 2.53.02l5.6-1.09-.29-1.43-5.45 1.07c-2.45.47-3.28-.82-3.7-3.02v-.03c-.44-2.2-.16-3.7 2.3-4.18l5.45-1.07-.28-1.42zm3.07 17.02-10.35-4.43.12 1.68 3.21 1.36.4 5.45-2.98 1.8.12 1.68 9.6-5.87-.12-1.67zm-1.51.95-3.76 2.28-.29-4 4.05 1.72zm-170.62 24.92-1.45.38 1.6 6.1 1.45-.39zm164.53 0 1.45.38-1.6 6.1-1.45-.39zm-149.06 25.65-11.18 1.29.93 1.39 3.47-.4 3.04 4.53-1.7 3.05.94 1.4 5.43-9.87-.93-1.4zm-.84 1.57-2.14 3.85-2.23-3.33 4.37-.52zm5.12 4.54-7.13 6.66.95 1.02 6-5.62-3.14 8.67 1.09 1.17 8.61-2.61-5.9 5.51.95 1.02 7.13-6.66-1.45-1.55-8.75 2.61 3.28-8.46zm10.38 10.59-6.02 7.99 7.78 5.85.85-1.13-6.61-4.98 1.83-2.44 5.96 4.5.85-1.14-5.96-4.48 1.62-2.16 6.37 4.8.86-1.14-7.53-5.67zm9.78 7.16-4.7 8.82 1.28.7 1.85-3.48c1.42.75 2.83 1.53 4.26 2.25l1.04 5.04 1.64.87-1.1-5.3c1.06.32 2.37.16 3.1-.75.64-.7 1.07-1.7.77-2.64-.36-1.3-1.64-1.98-2.72-2.62l-5.42-2.89zm.62 1.95c1.5.82 3.05 1.58 4.52 2.46.69.46 1.56 1.09 1.47 2.02-.08.82-.96 1.26-1.7 1.08-1.46-.24-2.7-1.1-4-1.76l-1.8-.97 1.5-2.83zm10.68 3.96-3.78 9.25 1.39.57 3.78-9.26zm9.02 3.11a8.43 8.43 0 0 0-3.21-.45 4.5 4.5 0 0 0-4.23 3.18 5.15 5.15 0 0 0-.15 2.7c.18.9.63 1.69 1.33 2.36.7.68 1.72 1.24 3.08 1.7 1.3.43 2.47.53 3.54.3a4.3 4.3 0 0 0 2.53-1.56l-1.3-.72c-1.3 1.56-2.87 1.18-4.5.66-2.5-.86-3.82-2.62-3.1-4.98.9-2.56 3.36-2.61 5.55-1.93 1.52.5 2.83 1.17 3.02 2.67l1.43.22c-.08-.9-.43-1.7-1.1-2.42a6.77 6.77 0 0 0-2.9-1.73zm10.05 2.25-6.54 9.16 1.66.24 2.02-2.84 5.4.78 1.13 3.3 1.67.24-3.68-10.64-1.66-.24zm.6 1.68 1.43 4.16-3.97-.57 2.54-3.59zm22.84-1.6c-1.14.21-2.14.6-3.02 1.17a4.5 4.5 0 0 0-2.13 4.84c.18.9.57 1.72 1.19 2.42.6.7 1.37 1.17 2.32 1.42.94.25 2.1.24 3.51-.03a6.74 6.74 0 0 0 3.24-1.47 4.3 4.3 0 0 0 1.45-2.6l-1.49.01c-.38 2-1.92 2.43-3.6 2.77-2.6.48-4.62-.4-5.14-2.82-.47-2.67 1.64-3.92 3.89-4.4 1.57-.3 3.04-.36 3.94.85l1.36-.5a3.98 3.98 0 0 0-2.14-1.58 6.77 6.77 0 0 0-3.38-.09zm6.68-1.19 2.84 9.59 9.33-2.77-.4-1.36-7.94 2.35-.86-2.92 7.15-2.12-.4-1.35-7.16 2.12-.76-2.58 7.64-2.27-.4-1.37-9.04 2.68zm10.82-3.4 4.2 9.08 1.25-.58-3.5-7.57c3.23 1.47 6.45 2.98 9.68 4.46.21.19.43.06.64-.05l1.26-.58-4.2-9.08-1.25.58 3.5 7.56c-3.33-1.5-6.63-3.05-9.95-4.58l-1.63.76zm10.98-5.16.78 1.2 3.57-2.36.14-.09.07.1 4.64 7.07 1.22-.8-4.65-7.06-.07-.1.14-.1 3.59-2.36-.78-1.19zm10.05-6.89 6.79 7.36 1.07-1-2.66-2.89c1.17-1.09 2.37-2.16 3.53-3.27l5.1.67 1.35-1.25-5.37-.71c.66-.9.94-2.19.33-3.19-.47-.86-1.32-1.6-2.35-1.59-1.38-.03-2.45 1.02-3.42 1.86l-4.36 4.01zm2.05.06c1.27-1.15 2.5-2.36 3.81-3.46.68-.51 1.64-1.16 2.5-.66.73.4.72 1.4.3 2.02-.76 1.27-1.98 2.15-3.02 3.17l-1.41 1.3-2.18-2.37zm9.59-11.7 4.48 10.33 1.06-1.3-1.4-3.2 3.46-4.23 3.41.74 1.06-1.3-11-2.34-1.07 1.3zm1.76.35 4.3.92-2.55 3.1-1.75-4.02zm2.6-6.02 8.39 5.44 4.4-6.79-1.2-.77-3.51 5.43-.1.14-.1-.07-7.1-4.6z" fill="#c8a400"/><g clip-path="url(#b)"><path fill="#fff" d="m500 226.4-31.48 54.54-15.42 26.7h93.8l-14.71-25.48L500 226.41z"/><g id="d"><g id="c"><path fill="#17c0eb" stroke="#17c0eb" stroke-width=".13" opacity=".62" d="m500 226.4-2.36 4.09 2.36 54.98 2.36-54.98z"/><path fill="#fff" d="M500 277.48h-.13l.13 3.1.13-3.1H500z"/></g><use xlink:href="#c" transform="rotate(72 500 285.47)"/><use xlink:href="#c" transform="rotate(144 500 285.47)"/><use xlink:href="#c" transform="rotate(216 500 285.47)"/><use xlink:href="#c" transform="rotate(288 500 285.47)"/></g><use xlink:href="#d" transform="rotate(8 500 285.47)"/><use xlink:href="#d" transform="rotate(16 500 285.47)"/><use xlink:href="#d" transform="rotate(24 500 285.47)"/><use xlink:href="#d" transform="rotate(32 500 285.47)"/><use xlink:href="#d" transform="rotate(40 500 285.47)"/><use xlink:href="#d" transform="rotate(48 500 285.47)"/><use xlink:href="#d" transform="rotate(56 500 285.47)"/><use xlink:href="#d" transform="rotate(64 500 285.47)"/><path fill="red" d="M500 265.84a44.24 44.24 0 0 0-28.97 10.75L456.38 302c-.5 2.67-.75 5.43-.75 8.25h5.03a39.35 39.35 0 0 1 78.68 0h5.04c0-2.81-.25-5.58-.75-8.25l-14.66-25.4A44.25 44.25 0 0 0 500 265.83z"/><path fill="#f60" d="M500 266.66a43.46 43.46 0 0 0-30.28 12.25l-12.03 20.84a43.6 43.6 0 0 0-1.28 10.5h4.25a39.35 39.35 0 0 1 78.68 0h4.25c0-3.62-.44-7.16-1.28-10.53l-12.03-20.81A43.46 43.46 0 0 0 500 266.66z"/><path fill="#ff0" d="M500 267.47c-12.7 0-24.1 5.52-31.94 14.31l-8.72 15.1a42.73 42.73 0 0 0-2.12 13.37h3.44a39.35 39.35 0 0 1 78.68 0h3.44c0-4.67-.74-9.17-2.12-13.37l-8.72-15.1A42.66 42.66 0 0 0 500 267.47z"/><path fill="#0f0" d="M500 268.25a41.96 41.96 0 0 0-34.9 18.66l-2.82 4.87a41.82 41.82 0 0 0-4.28 18.47h2.66a39.35 39.35 0 0 1 78.68 0H542a41.9 41.9 0 0 0-4.28-18.44l-2.85-4.93A41.93 41.93 0 0 0 500 268.25z"/><path fill="#0cf" d="M500 269.06a41.19 41.19 0 0 0-41.19 41.19h1.85a39.35 39.35 0 0 1 78.68 0h1.85A41.19 41.19 0 0 0 500 269.06z"/><path fill="#00f" d="M500 269.84a40.4 40.4 0 0 0-40.38 40.41h1.35a39.03 39.03 0 1 1 78.06 0h1.38c0-22.3-18.1-40.4-40.41-40.4z"/><path fill="purple" d="M500 270.66a39.59 39.59 0 0 0-39.58 40.32h.8v-.73a38.79 38.79 0 1 1 77.56.73h.8v-.73a39.59 39.59 0 0 0-39.58-39.6z"/><path fill="#510000" d="M500.4 288.13c-.65-.12-1.23-.48-1.78-.6a2.2 2.2 0 0 0-.73 2.07c.26.14.31.36.88.86s.5.78.46 1.97c-.02.5.07 1.58.58 1.68.55.11.93-.35 1.09-1.16.15-.79.42-1.21.7-1.7.3-1.85-.2-2.5-1.2-3.12z"/><path fill="red" d="M497.17 283.52c-.6.02-1.53 1.02-1.95.48-.23-.3-.27-.9-.03-1.4a4.82 4.82 0 0 1 2.17-2.33c2.37-1.4 3.88-.95 5.07 1.06 1.1 1.77 2.15 3.73 2.25 5.37.02.5.28 1.41-.16 1.86-1.35 1.4-4.6-1.43-6.5-.98-.64.15-1.38.61-1.98.21-.47-.3-.08-1 .27-1.3.62-.51 1.5-2.36 1.38-3.16-.06-.44-.08.18-.52.2z"/><path fill="url(#e)" d="M496.93 282.55c-1.09.44-.97 1.07-1.51 1.59.15.06.76.3 1.36-.3.26-.22.55-.3.68-.37-.3.23-.53.56-.69.69a5.19 5.19 0 0 0-1.34 1.85c-.3.76-.43 1.67-.37 1.78.05.1.42.78 1.56 1.23 2.03.8 2.42 2.44 4.48 2.44 1.61 0 1.36-1.06 2.65-.83 1.12.19 1.71-.7.63-1.24-1.37-.46-4.09-.19-5.37.04-.41-4.09-.05-2.65-.15-4.4-.1-1.76-.62-1.87.07-3.29-.58.87-1.28.74-2 .8z"/><path fill="#ff2a2a" d="M500.94 279.8c-.04.22-.08.51-.06.6.09.33.18.69.28.99.11.33.16.58.24.93.08.36.4.5.7.72.36.28.08 1.04.3 1.07.2.02.5-1.07.5-1.25 0-.24 0-.43-.04-.65-.13-.3-.27-.58-.42-.87h-.01a3.65 3.65 0 0 0-.98-1.2l-.06-.04-.26-.2-.2-.1z"/><path fill="url(#f)" d="M501.25 287.4c-.72-.19-1.43-.54-2.04-.73-1.2-.36-2.48-1.13-3.36-.81-.32.14-.3.46-.4.9-.04.54-.59 1.33-.13 1.07.69-.38 2.5.73 3.1 1.1.28.18.89.53 1.08 1.03.19.5.09 1.76.04 2.3-.06.56.12 1.83.68 1.98.62.17 1.08-.32 1.32-1.23.23-.88.4-1.39.76-1.91s.75-.76 1.32-.87c.56-.1 1.38.47 1.38-.2 0-.44-.38-.85-.22-1.45.13-.47-.4-.38-.84-.58-1.04-.31-1.97-.41-2.7-.6z"/><path fill="#910000" d="M498.36 288.9c-.32-.18-2.31-1.48-3.04-1.07-.23.13-.32-.02-.32-.26 0-.24.1-.59.18-.86.08-.27.2-.8.52-1.06.69-.58 2.27.57 3.1.88-.06.44-.46 2.36-.44 2.37z"/><path fill="#ff3a3a" d="M501.76 291.36c.92-1.6 1.51-1.4 2.62-1.37.36 0 .47-.33.39-.67-.28.62-1.66-.07-2.42.26-1.57.7-1.28 3.77-2.02 4.07.77.65 1.12-1.74 1.43-2.29z"/><g fill="url(#g)"><path fill="#fff" d="m453.1 307.64-9.95 17.24h113.7l-9.95-17.24h-93.8z"/><g id="i"><path id="h" d="M449.7 321.36a38 38 0 0 0-4.7.36l-.5.84c2.44-.21 4.7-.65 7.15-.7 3.3.07 6.28.82 9.78.82 1.52.02 3.03-.03 4.53 0 3.5 0 6.49-.75 9.78-.83 3.3.08 6.3.83 9.8.83 1.53 0 3.18-.02 4.54 0 3.5 0 6.47-.75 9.76-.83 3.3.08 6.27.83 9.77.83 1.53.02 3.03-.03 4.54 0 3.5 0 6.5-.75 9.8-.83 3.29.08 6.27.83 9.77.83 1.52.02 3.03-.03 4.53 0 3.5 0 6.48-.75 9.77-.83 2.55.07 4.92.52 7.48.73l-.51-.9c-1.4-.16-2.84-.32-4.37-.32-1.53-.02-3.03.03-4.55 0-3.5 0-6.47.75-9.76.83-3.3-.08-6.28-.83-9.79-.83-1.51-.02-3.03.04-4.52 0-3.5 0-6.5.75-9.79.83-3.3-.08-6.28-.83-9.78-.83-1.52-.02-3.04.03-4.55 0-3.5 0-6.47.75-9.76.83-3.3-.08-6.27-.83-9.77-.83-1.53-.02-3.03.04-4.53 0-3.5 0-6.49.75-9.78.83-3.3-.08-6.29-.83-9.79-.83-1.52-.02-3.04.04-4.54 0z"/><use xlink:href="#h" y="-1.11"/><use xlink:href="#h" y="-2.23"/></g><use xlink:href="#i" y="-3.34"/><use xlink:href="#i" y="-6.69"/><path d="m453.23 307.46-.12.21h93.79l-.13-.21h-93.54zm-.22.38-.13.21h94.24l-.13-.21h-93.98zm-.2.34-.2.36h94.79l-.2-.36h-94.4zm-.32.55-.25.44h95.52l-.25-.44h-95.02zm-.4.7-.25.43h96.32l-.25-.44h-95.82zm-.4.68-.24.43h97.1l-.24-.43H451.7zm-.4.7-.24.43h97.9l-.24-.43H451.3zm-.42.74-.3.53h98.87l-.3-.53h-98.27zm6.49.74c3.45.66 3.78 0 3.78 0zm81.5 0s.33.66 3.78 0z"/></g><g fill="#ccd11e"><g id="k"><path fill="url(#j)" d="M530.63 297.04c-1.7 0-2.23.87-2.23.87-2.74 10.57-11.8 21.33-22.6 21.33h-8.08V330h61.52l-6.2-10.96c-9.7-1.45-17.63-11.37-20.16-21.14 0 0-.54-.87-2.25-.87z"/><path fill="#97c924" d="M530.63 297.46a2.9 2.9 0 0 0-1.54.36c-.26.16-.31.28-.32.29l-.02.01a33.61 33.61 0 0 1-8.33 14.71c-4.01 4.07-9.07 6.83-14.6 6.83h-7.68v9.92H559l-5.68-10.05c-4.7-.62-8.98-3.17-12.46-6.7a33.6 33.6 0 0 1-8.34-14.7l-.01-.02c-.01-.01-.07-.1-.34-.27a2.82 2.82 0 0 0-1.54-.37z"/><path fill="#ede71f" d="M530.63 297.46c.15 0 .28.03.4.04.03 3.02 0 8.1 0 10.8-.02 2.34-.82 4.22-2 6.44-.55 1.56-1 .96-2.36 2.86-1.83.65-3.18.9-5.13 1.21-2.52.4-8.13.75-10.9.14a23.06 23.06 0 0 0 9.78-6.12 33.66 33.66 0 0 0 8.33-14.7l.02-.02c0-.01.06-.13.32-.29.14-.09.33-.17.58-.24h.01a4 4 0 0 1 .95-.12z"/><path fill="#c6cb24" d="M529.94 298.9c-.41 6.04-2.28 13.2-6.65 17.81-1.6 1.34-3.66 2.55-5.64 2.26 6.77-5.51 10.88-13.95 12.29-20.07z"/><path fill="#9ecb34" d="M524.5 309.28c-1 2.72-4.8 6.75-8.85 10.05-1.15.03-1.76.1-2.8.03 2.47-.22 8.22-5.08 11.64-10.08z"/></g><use xlink:href="#k" x="-15.34"/><g fill="#c6cb24"><path fill="url(#j)" d="M502.22 297.91c2.73 10.58 11.79 21.33 22.58 21.33h8.09v10.77h-65.82v-10.77h8.06c10.8 0 19.87-10.75 22.6-21.33 0 0 .54-.86 2.25-.86s2.24.86 2.24.86z"/><path fill="#97c924" d="M499.98 297.46c.78 0 1.25.2 1.53.38.27.16.33.26.34.27l.02.01a33.6 33.6 0 0 0 8.33 14.71c4.02 4.07 9.09 6.83 14.63 6.83h7.64v9.92h-64.98v-9.92h7.67c5.54 0 10.6-2.76 14.6-6.83a33.62 33.62 0 0 0 8.34-14.7l.02-.02c0-.01.05-.12.32-.29.28-.17.75-.35 1.53-.35z"/><path fill="#ede71f" d="M499.26 297.53a3.4 3.4 0 0 0-.24.05H499c-.24.07-.43.16-.57.24-.26.17-.31.27-.32.29l-.02.01a31.73 31.73 0 0 1-3.2 7.83 33.63 33.63 0 0 1-5.13 6.88 23.04 23.04 0 0 1-9.77 6.12c2.76.61 4.03-.06 6.55-.45 1.95-.31 4.2-.57 6.04-1.22 1.36-1.9.9-1.3 1.45-2.86 1.18-2.21 2.9-4.22 3.33-6.68 1.62-3.02 1.9-8.61 1.9-10.21z"/><path d="M499.27 298.9c-.4 6.04-2.27 13.2-6.64 17.81-1.6 1.34-3.66 2.55-5.64 2.26 6.77-5.51 10.88-13.95 12.29-20.07z"/><path fill="#9ecb34" d="M493.83 309.28c-1 2.72-4.79 6.75-8.84 10.05-1.15.03-1.76.1-2.8.03 2.47-.22 8.22-5.08 11.64-10.08z"/><path fill="#ede71f" d="M500.95 297.58h.02c.24.07.43.16.57.24.26.17.31.27.32.29l.02.01a31.73 31.73 0 0 0 3.2 7.83 33.63 33.63 0 0 0 5.13 6.88c2.81 2.85 6.13 5.45 9.77 6.51-7.24.03-10.39-.63-13.02-4.01-2.63-3.39-3.6-4.87-4.14-6.94-.53-2.07-2.02-6.57-1.87-10.8z"/><path d="M501.48 298.9c.4 6.04 2.22 12 6.58 16.63 1.61 1.33 3.66 2.55 5.65 2.25-7.34-5-10.83-12.76-12.23-18.88z"/></g><g id="l"><path fill="url(#j)" d="M484.75 297.04c-1.71 0-2.25.87-2.25.87-2.52 9.74-11.82 22.31-21.5 23.8l-4.79 8.3h49.02v-11.35c-8.83-2.37-15.89-11.63-18.25-20.75 0 0-.52-.87-2.23-.87z"/><path fill="#97c924" d="M484.75 297.46c-.79 0-1.26.2-1.54.38a1.07 1.07 0 0 0-.35.28c-1.4 5.33-4.68 10.7-8.08 15-3.4 4.28-9.72 8.61-14.05 9.07l-4.28 7.4h48.06v-10.7a23.2 23.2 0 0 1-9.55-6.06 33.62 33.62 0 0 1-8.33-14.7l-.02-.02c0-.01-.06-.12-.32-.29a2.86 2.86 0 0 0-1.54-.35z"/><path fill="#93bc30" d="M483.44 298.9c-.61 9.05-5.65 20.46-11.34 22.42-1.85.64-5.1.87-6.22 1.01 9.95-4.73 15.83-15.85 17.57-23.43z"/><path fill="#ede71f" d="M484.75 297.46c-.15 0-.28.03-.41.04-.02 3.02 0 8.1 0 10.8.03 2.34.83 4.22 2.01 6.44l.2.5c.41 1.08.72 1.45 2.29 2.65 4.98 3.78 11.17 4.35 14.8 4.04-1.13-.9-2.35-1.72-3.43-2.47 1.72-.06 3.35-.25 4.52-.51a23.06 23.06 0 0 1-9.77-6.12c-.5-.5-.95-1.02-1.4-1.55l-.6-.82a34.97 34.97 0 0 1-3.14-4.5 34.16 34.16 0 0 1-2.6-5.84c-.23-.66-.42-1.33-.6-2l-.01-.01c-.01-.01-.06-.13-.33-.29a2.2 2.2 0 0 0-.57-.24h-.02a3.61 3.61 0 0 0-.94-.12z"/><path d="M485.45 298.9c.4 6.04 2.27 13.2 6.64 17.81 1.6 1.34 3.66 2.55 5.65 2.26-6.77-5.51-10.89-13.95-12.3-20.07z"/><path fill="#9ecb34" d="M489.61 307.25c2.37 5.83 8.37 11.29 14.55 14.95 1.15.04 1.49 0 2.53-.06-4.42-2.37-11.54-5.75-17.08-14.9z"/></g><use xlink:href="#l" x="-15.43" fill="#c6cb24"/></g><path fill="#fff" d="M556.5 324.7c-.57.2-4.42-.2-6.43-.05l-1.28.33c-1.13 0-2.24.03-3.33 0-3.6 0-6.65.95-10.08.95-3.43 0-6.47-.95-10.07-.95-1.12 0-2.24.03-3.33 0-3.6 0-6.65.95-10.08.95-3.43 0-6.47-.95-10.07-.95-1.14 0-2.25.03-3.35 0-3.6 0-6.63.95-10.06.95-3.43 0-6.46-.95-10.06-.95l-.77.02-.56-.02h-.7l-.52.02-.78-.02c-3.6 0-6.64.95-10.07.95-3.43 0-6.48-.95-10.08-.95l-.78.02-.52-.02h-.73l-.54.02-.77-.02c-2.88 0-6.22.61-8.94.85l-6.27 10.86h127.34z"/><path fill="url(#a)" d="M548 323.11h-.6c-3.24.1-5.57 1.12-11.2 1.12-5.64 0-6.22-1.02-12.59-.88-5.94.14-8.44 1.27-11.67 1.22-3.23-.04-8.47-.7-12.5-.27-4.04.42-8.84 1.28-11.98 1.29-3.9-.02-7.82-.73-11.9-.33-4.1.4-6 1.5-11.07 1.49-4.35-.01-9.08-.7-12.75-.7-3.43 0-7.26.96-10.08 1.45l-.84 1.46c2.24-.26 8.55-1.22 10.8-1.28 2.34-.06 10.71.49 15.33.33 4.62-.16 5.16-1.17 10.62-1.17 3.8 0 6.67.4 10.57.4 2.43 0 4.64-1.25 8.34-1.25.94-.02 1.86-.06 2.8-.09 3.11-.51 8.38.05 12.04.23 3.32.18 5.46-.61 8.92-.73 1.5-.06 3-.06 4.47-.14 3.46-.12 6.42.64 9.68.62 3.25-.2 6.4-.92 9.86-1.04 1.51-.07 3-.07 4.5-.14 2.28-.08 5.83.07 8.26.5l-.84-1.45c-2.38-.08-5.3-.64-8.18-.64z"/><g id="n"><path id="m" fill="url(#a)" d="M450.31 334.75c-3.46 0-6.4.85-9.65.94a31.95 31.95 0 0 1-3.53-.34l-.5.85c.5.03.98.06 1.5.06 1.5.02 2.98-.03 4.47 0 3.45 0 6.38-.85 9.63-.94 3.26.09 6.2.94 9.67.94 1.5.02 2.99-.03 4.47 0 3.46 0 6.41-.85 9.67-.94 3.25.09 6.23.94 9.68.94 1.5.02 3-.03 4.47 0 3.46 0 6.4-.85 9.66-.94 3.25.09 6.19.94 9.64.94 1.52.02 3-.03 4.5 0 3.45 0 6.4-.85 9.66-.94 3.26.09 6.21.94 9.67.94 1.5.02 3-.03 4.47 0 3.46 0 6.4-.85 9.65-.94 3.26.09 6.21.94 9.67.94 1.5.02 3-.03 4.47 0 .6 0 1.2-.03 1.78-.08l-.46-.8a28.9 28.9 0 0 1-3.24.31c-3.25-.09-6.2-.94-9.65-.94-1.5-.02-3 .03-4.49 0-3.46 0-6.4.85-9.65.94-3.25-.09-6.2-.94-9.66-.94-1.5-.02-3 .03-4.48 0-3.45 0-6.41.85-9.66.94-3.26-.09-6.21-.94-9.67-.94-1.5-.02-3 .03-4.5 0-3.45 0-6.39.85-9.64.94-3.25-.09-6.2-.94-9.65-.94-1.5-.02-3 .03-4.47 0-3.46 0-6.41.85-9.67.94-3.26-.09-6.2-.94-9.67-.94-1.5-.02-3 .03-4.49 0z"/><use xlink:href="#m" y="-1.29"/><use xlink:href="#m" y="-2.57"/></g><use xlink:href="#n" y="-3.87"/><use xlink:href="#n" y="-7.73"/><path fill="#97c924" d="m443.85 324.7-2.43 4.2c2.84-.47 7.1-1.7 10.63-1.71 3.67 0 8.09.9 12.44.92 5.07.01 6.98-1.08 11.06-1.49 4.09-.4 8 .53 11.91.55 3.14-.01 7.94-1.1 11.97-1.52 4.04-.42 7.74.3 12.6.37 4.87.08 5.64-1.18 11.58-1.3 6.37-.15 6.95.87 12.59.87 4.24.23 7.88-.85 11.66-1.12 3.79-.27 5.54.04 8.3.1l-1.83-3.24h-.1L453 323.55z"/><path fill="#fff" d="M550.07 324.65s2.7.15 3.84.27c1.14.13 2.96.26 2.96.26l-.37-.49c-.57.2-4.42-.19-6.43-.04z"/></g><path fill="#c8a400" d="m500 224.87-32.14 55.69-32.86 56.9h130l-32.15-55.68-32.85-56.9zm0 3 31.55 54.66 30.85 53.43H437.6l31.56-54.65z"/></svg>