<svg xmlns="http://www.w3.org/2000/svg" xmlns:xlink="http://www.w3.org/1999/xlink" viewBox="0 0 1200 600"><path fill="#db161b" d="M0 0h1200v600H0z"/><path fill="#fff" d="M300 0h900v200H300z"/><path fill="green" d="M300 400h900v200H300z"/><g id="a" fill="#fff" fill-rule="evenodd" stroke="#db161b" stroke-width=".35"><rect x="65.85" y="102.64" width="38.67" height="21.22" ry="3.02" rx="3.21" stroke-width=".38"/><rect x="66.85" y="103.52" width="36.69" height="19.45" ry="2.76" rx="3.05"/><path d="m83.9 108.83 1.86.06.08.84 1.52.77 1.18-.96 1.43.77-1.35.84.34 1.16 1.68-.06v1.55l-1.34-.07-.68.97 1.52 1.1-1.18.9-1.27-.97-1.85.39.09 1.42-2.03.13-.25-1.36-1.68-.71-.93.97-1.43-.71.84-1.1-1.01-.71h-1.43l-.09-2 1.44.13 1-1.16-1.17-.9 1.51-1.04 1.1.84 1.85-.25z" stroke-width=".22"/><ellipse transform="matrix(.18418 0 0 .1752 71.77 38.25)" ry="9.94" rx="11.05" cy="426.78" cx="68.94" stroke-width="1.33"/><path d="m71.8 104.41-2.97 2.65m4.96-2.65-2.98 2.65m4.96-2.65-2.98 2.65m4.96-2.65-2.97 2.65m4.95-2.65-2.97 2.65m4.96-2.65-2.98 2.65m4.96-2.65-2.97 2.65m4.95-2.65-2.97 2.65m4.96-2.65-2.98 2.65m4.96-2.65-2.97 2.65m4.95-2.65-2.97 2.65m4.96-2.65-2.98 2.65m-4.96-2.65-2.97 2.65m12.89-2.65-2.98 2.65m4.96-2.65-2.97 2.65m4.96-2.65-2.98 2.65m4.96-2.65-2.98 2.65m0-2.65 2.98 2.65m-4.96-2.65 2.98 2.65m-4.96-2.65 2.97 2.65m-4.96-2.65 2.98 2.65m-4.96-2.65 2.98 2.65m-4.96-2.65 2.97 2.65m-4.95-2.65 2.97 2.65m-4.96-2.65 2.98 2.65m-4.96-2.65 2.97 2.65m-4.95-2.65 2.97 2.65m-4.96-2.65 2.98 2.65m-4.96-2.65 2.97 2.65m4.96-2.65 2.98 2.65m-12.9-2.65 2.98 2.65m-4.96-2.65 2.98 2.65m-4.96-2.65 2.98 2.65m-4.96-2.65 2.97 2.65m0 12.37-2.97 2.66m4.96-2.66-2.98 2.66m4.96-2.66-2.98 2.66m4.96-2.66-2.97 2.66m4.95-2.66-2.97 2.66m4.96-2.66-2.98 2.66m4.96-2.66-2.97 2.66m4.95-2.66-2.97 2.66m4.96-2.66-2.98 2.66m4.96-2.66-2.97 2.66m4.95-2.66-2.97 2.66m4.96-2.66-2.98 2.66m-4.96-2.66-2.97 2.66m12.89-2.66-2.98 2.66m4.96-2.66-2.97 2.66m4.96-2.66-2.98 2.66m4.96-2.66-2.98 2.66m0-2.66 2.98 2.66m-4.96-2.66 2.98 2.66m-4.96-2.66 2.97 2.66m-4.96-2.66 2.98 2.66m-4.96-2.66 2.98 2.66m-4.96-2.66 2.97 2.66m-4.95-2.66 2.97 2.66m-4.96-2.66 2.98 2.66m-4.96-2.66 2.97 2.66m-4.95-2.66 2.97 2.66m-4.96-2.66 2.98 2.66m-4.96-2.66 2.97 2.66m4.96-2.66 2.98 2.66m-12.9-2.66 2.98 2.66m-4.96-2.66 2.98 2.66m-4.96-2.66 2.98 2.66m-4.96-2.66 2.97 2.66"/></g><use transform="scale(-1 1)" x="-300" xlink:href="#a" width="100%" height="100%"/><g id="b" stroke="#db161b"><path d="M126.51 147.12c-48.11 47.05-68.64 53-59 56.79 9.63 3.79 40.61-20.49 72.85-52.75 32.24-32.25 51.98-60.96 42.35-64.75-9.63-3.79-5.03 10.67-56.2 60.71z" fill="#fff" fill-rule="evenodd" stroke-width=".56"/><path d="m86 181.31 16.86 4.42C87 200.76 69.16 206.95 64.2 204.3c-4.96-2.65 8.92-8.84 21.8-22.99z" fill="#fff" fill-rule="evenodd" stroke-width=".33"/><path d="m86 183.08 13.89 3.54c-15.45 14.45-30.74 18.56-34.7 16.8-3.97-1.77 8.26-6.74 20.82-20.34z" fill="#fff" fill-rule="evenodd" stroke-width=".33"/><path d="M137.79 145.06c-.04.23-.15 1.24-.25 1.64 0 .56-.06.98-.12 1.42-.16.38-.13.73-.62.87a1.9 1.9 0 0 1-.98.77c-.3.23-.76.46-1.24.65-.49.19-.94.21-1.47.11-.44-.27-.75-.54-1.11-.76-.09-.35-.16-.86-.25-1.2.13.35.23.91.25 1.41-.05.55-.25.79-.49 1.2m1.72 1.2-.12-.11c.29.26.17.14-.5-.21a5.92 5.92 0 0 0-1.6-.44h-1.72c-.67 0-1.12.09-1.6.22-.35.31-.87.48-1.23.76-.38.23-.54.5-.74.87-.34.3-.56.76-.87.99-.13.5-.42.48-.61.87.58.04 1.05.11 1.35.43.52.24-.43-.23-.61-.43-.41-.11-.51-.22-1.11-.22-.56-.16-.9.13-1.48.22-.33.17-.43.22-.86.22m5.05 2.29c-.25.01-1.4.2-1.85 0-.5-.12-.8-.36-1.11-.77-.15-.29 0 .53 0 .88-.05.64-.27.65-.61 1.09-.36.2-.74.49-1.11.65-.31.24-.69.4-1.11.55-.37.15-.81.31-1.11.54-.41.26-.37.58-.61.98.04.54.14.84.49 1.1.14.36.47.73.74.98.3.5.64.73-.13.87-.42.16-.65.03-1.1 0m-.25.76c-.3-.06-1.38-.38-1.85-.54h-1.72c-.67.04-.8.22-1.36.43-.36.33-.61.56-1.11.77-.26.3-.78.81-.98 1.2-.15.37-.25.87-.25 1.42.01.63.2.74.25 1.31.14.46.36.89.74 1.3.05.14.09.18.24.22m.17 1.43c-.05 0-.17.28-.35.52-.39.4-.44.43-1.05.43-.54-.02-.49-.21-.87-.35-.18-.27-.41-.49-.61-.86-.14-.22-.27-.57-.44-.77-.16-.26-.36-.45-.53-.69-.16-.07-.22-.14-.43-.17.5.08.54.25.87.51.15.25.31.5.44.78.05.37.17.66.17 1.12 0 .47 0 .81-.17 1.2-.21.22-.36.44-.61.61-.21.19-.46.45-.62.68l-.78.52c-.27.15-.55.31-.96.35-.52-.04-.67-.18-1.05-.35-.33-.24-.59-.39-.88-.6a2.86 2.86 0 0 1-.61-.69c-.47-.12-.77-.07-1.05.17-.24.16-.45.37-.61.6-.15.07-.38.28-.53.35m1.04.2c.14.06.64.41.87.54.14.45.36.7.43 1.18.12.47.11.98.11 1.51-.12.55-.35.95-.54 1.39-.35.24-.52.4-.98.65-.43.06-.86.11-1.41.11-.34.11-.98.16-1.31 0-.48-.07-.84-.26-1.2-.43-.4-.23-.64-.44-1.08-.65-.22-.31-.55-.59-.87-.97-.27-.36-.47-.56-.65-.96.16.46.4.86.54 1.29.25.45.4.62.43 1.18.16.45.11.99.11 1.5-.04.35-.07 1.01-.21 1.29v.33m-10.32 1.71v.16c0-.42 0-.21.18.62.33.37 1.1.47 1.75.31.56-.41.54-.73 1.57-.93 1 .06 1.37.32 1.92.62.66.29.97.44 1.4 1.09.22.53.34.89-.35 1.09-.54.35-1.2.54-1.92.63-.8 0-1.4-.09-1.75.31-.56.51-.52.82-.52 1.71-.2.28-.23 1.1-.35 1.41-.49.2-.78.31-1.58.31-.19-.48-.4-1.35-.52-1.87-.14-.56-.18-1.34-.53-1.72a4.51 4.51 0 0 0-1.22-1.09 2.2 2.2 0 0 0-1.05-.62c.68.31.78.65.87 1.4-.6.27-.76.46-1.75.47-.96-.07-1.2-.29-1.57-.78-.07.78-.35 1.04-.52 1.72-.36.47-.52.95-.88 1.55.15.76.49.79.53 1.72.22.61.2 1.19.7 1.56.22.24.38.29.87.31a4.2 4.2 0 0 1-2.27-.47c-.52-.28-.92-.64-1.4-.93a7.12 7.12 0 0 0-2.1-.94c-.81 0-1.4-.08-1.75.31-.5.32-.83.86-1.05 1.56-.16.81-.22 1.35.17 1.87.3.61.37.84 0 1.56-.4.51-1 .57-1.92.78a6.68 6.68 0 0 1-1.75-.31" fill="none" stroke-width=".33"/><path d="M181.41 104.66c21.35-36.86 35.52-68.22 31.62-70.01-3.89-1.8-24.37 26.66-45.72 63.51z" fill="#fff" fill-rule="evenodd" stroke-width=".45"/><path d="M180 104.01c20.59-35.56 34.78-65.57 31.67-67-3.11-1.44-22.35 26.25-42.95 61.8" fill="#fff" fill-rule="evenodd" stroke-width=".39"/><path d="M176.46 85.46c-2.51 4.16-5.16 8.9-7.74 13.35l11.28 5.2c2.57-4.45 5.38-9.13 7.73-13.36z" fill="#fff" fill-rule="evenodd" stroke-width=".45"/><path d="M177.41 86.9c-2.5 4.15-4.25 7.33-6.82 11.78l8.45 3.89c2.58-4.44 4.48-7.55 6.83-11.78z" fill="#fff" fill-rule="evenodd" stroke-width=".45"/><path transform="matrix(-.90832 -.41827 -.50125 .8653 0 0)" fill="#fff" stroke-width=".45" d="M-205.69 6.56h6.2v9.98h-6.2z"/><path d="m183.55 91.71-10.64 6.05m5.63 2.59-.63-11.23m31.12-41.4-5.64-2.59" fill="#fff" fill-rule="evenodd" stroke-width=".45"/><circle cx="545.67" cy="92.13" transform="matrix(-.449 .1132 .10134 .39387 444.35 -55.8)" r="3.54" fill="#db161b" stroke-width="1.33"/></g><use transform="scale(-1 1)" x="-300" xlink:href="#b" width="100%" height="100%"/><path d="M135.26 84.96c0 30.94.18 42.6-2.1 44.2-2.16 1.71-62.35 0-62.35 8.84s49.58 17.68 64.45 17.68c19.83 0 29.75-8.84 29.75-26.52v-44.2z" fill="#fff" fill-rule="evenodd" stroke="#db161b" stroke-width=".41"/><path d="M135.26 93.8v4.42a100.63 100.63 0 0 0 29.75 0V93.8a100.63 100.63 0 0 1-29.75 0zm0-8.84v4.42a100.7 100.7 0 0 0 29.75 0v-4.42a100.7 100.7 0 0 1-29.75 0z" fill="#fff" fill-rule="evenodd" stroke="#db161b" stroke-width=".35"/><path d="M135.26 89.38v4.42a100.63 100.63 0 0 0 29.75 0v-4.42a100.7 100.7 0 0 1-29.75 0zm0 8.84v4.42a100.9 100.9 0 0 0 29.75 0v-4.42a100.63 100.63 0 0 1-29.75 0z" fill="#fff" fill-rule="evenodd" stroke="#db161b" stroke-width=".35"/><ellipse cx="256.89" cy="210.83" transform="matrix(.15263 0 0 .03588 97.4 84.33)" ry="26.57" rx="8.86" fill="#fff" stroke="#db161b" stroke-width="4.46"/><ellipse cx="292.32" cy="246.26" transform="matrix(.15263 0 0 .03588 97.4 83.53)" ry="26.57" rx="8.86" fill="#fff" stroke="#db161b" stroke-width="4.46"/><ellipse cx="327.76" cy="263.98" transform="matrix(.15263 0 0 .03588 97.4 83.37)" ry="26.57" rx="8.86" fill="#fff" stroke="#db161b" stroke-width="4.46"/><ellipse cx="363.19" cy="263.98" transform="matrix(.15263 0 0 .03588 97.4 83.37)" ry="26.57" rx="8.86" fill="#fff" stroke="#db161b" stroke-width="4.46"/><ellipse cx="398.62" cy="246.26" transform="matrix(.15263 0 0 .03588 97.4 83.53)" ry="26.57" rx="8.86" fill="#fff" stroke="#db161b" stroke-width="4.46"/><ellipse cx="434.06" cy="210.83" transform="matrix(.15263 0 0 .03588 97.4 84.33)" ry="26.57" rx="8.86" fill="#fff" stroke="#db161b" stroke-width="4.46"/><path d="m135.26 107.06 29.75 23.87m-26.78-23.87 26.78 21.21m-22.81-20.33 22.81 17.68m-19.83-17.68 19.83 15.03m-16.86-15.03 16.86 12.38m-13.89-12.38 13.89 9.73m-10.91-9.73 10.91 7.07m-7.94-7.07 7.94 5.31m-4.96-5.31 4.96 3.54m-1.99-3.54 1.99 1.77m-29.75 0 29.75 23.87m0-26.52-32.72 26.52m29.74-26.52-28.75 22.98m24.79-22.1-22.81 17.68m19.83-17.68-19.83 15.03m16.86-15.03-16.86 12.38m13.88-12.38-13.88 9.73m10.91-9.73-10.91 7.07m7.93-7.07-7.93 5.31m4.96-5.31-4.96 3.54m1.98-3.54-1.98 1.77m29.75 0-32.72 26.52m32.72-23.87-32.72 26.52m32.72-23.87-32.72 26.53m32.72-23.87-32.72 26.52m32.72-23.87-32.72 26.52m32.72-23.87-32.72 26.52m32.72-23.87-32.72 26.52m32.72-23.86-32.72 26.52m32.72-23.87-30.74 24.75m30.74-22.1-27.77 22.1m26.77-18.56L142.2 154.8m20.82-14.15-17.84 14.15m15.86-9.73-8.92 7.07m-16.86-39.78 28.75 22.99m-28.75-20.34L164.01 138m-28.75-20.33 27.76 22.1m-27.76-19.45 27.76 22.1m-27.76-19.45 26.77 21.22m-27.76-19.45 26.77 21.22m-26.77-18.57 24.79 19.45m-25.78-17.68 24.79 19.45m-25.78-17.68 23.79 18.56m-23.79-15.91 22.8 17.68m-22.8-15.03 19.83 15.91m-16.86-49.5v4.42a100.9 100.9 0 0 0 29.75 0v-4.42a100.9 100.9 0 0 1-29.75 0zm-2.97 36.24 17.84 14.15m-17.84-11.49 15.86 12.37m-15.86-9.72 13.88 10.61m-13.88-7.96 9.91 7.96m-9.91-5.31 7.93 6.19m-7.93-3.54 4.95 3.54" fill="#fff" fill-rule="evenodd" stroke="#db161b" stroke-width=".35"/><ellipse cx="256.89" cy="210.83" transform="matrix(.15263 0 0 .03588 97.4 97.59)" ry="26.57" rx="8.86" fill="#fff" stroke="#db161b" stroke-width="4.46"/><ellipse cx="292.32" cy="246.26" transform="matrix(.15263 0 0 .03588 97.4 96.8)" ry="26.57" rx="8.86" fill="#fff" stroke="#db161b" stroke-width="4.46"/><ellipse cx="327.76" cy="263.98" transform="matrix(.15263 0 0 .03588 97.4 96.63)" ry="26.57" rx="8.86" fill="#fff" stroke="#db161b" stroke-width="4.46"/><ellipse cx="363.19" cy="263.98" transform="matrix(.15263 0 0 .03588 97.4 96.63)" ry="26.57" rx="8.86" fill="#fff" stroke="#db161b" stroke-width="4.46"/><ellipse cx="398.62" cy="246.26" transform="matrix(.15263 0 0 .03588 97.4 96.8)" ry="26.57" rx="8.86" fill="#fff" stroke="#db161b" stroke-width="4.46"/><ellipse cx="434.06" cy="210.83" transform="matrix(.15263 0 0 .03588 97.4 97.59)" ry="26.57" rx="8.86" fill="#fff" stroke="#db161b" stroke-width="4.46"/><path d="m92.63 148.61 35.69-18.57m-37.68 17.68 33.71-17.68m-34.7 15.92 30.74-15.92m-31.73 14.15 26.77-14.15m-28.75 12.38 24.78-12.38m-23.8 9.73 16.86-8.84M86.68 138l12.89-7.07m-12.9 4.42 8.93-4.42m0 18.56 33.71-17.68m-30.74 18.57 31.73-16.8m-28.75 17.68 29.74-15.91m-26.77 16.79 24.79-13.26m-20.82 13.26 21.81-11.49m-18.84 12.38 18.84-9.73m-15.86 10.61 14.87-7.95m-10.91 7.95 11.9-6.19m-7.93 7.08 7.93-4.42m-3.96 4.42 4.95-2.66m1.99-22.98h-4.96a71.66 71.66 0 0 0 0 26.52h4.96a71.24 71.24 0 0 1 0-26.52zm-58.5 12.38 11.9-8.84m-11.9 2.65 11.9 10.61" fill="#fff" fill-rule="evenodd" stroke="#db161b" stroke-width=".35"/><path d="m92.63 130.93-5.95.88a32.4 32.4 0 0 0 0 15.91l5.94 1.77a43.92 43.92 0 0 1 0-18.56z" fill="#fff" fill-rule="evenodd" stroke="#db161b" stroke-width=".25"/><path d="M164.97 86.73v-4.46c-4.45.04-7.43-2.62-7.43-5.3l-14.85.03c0 2.65-2.97 5.3-7.43 5.3v4.43z" fill="#fff" fill-rule="evenodd" stroke="#db161b" stroke-width=".43"/><path fill="#fff" stroke="#db161b" stroke-width=".36" d="M143.75 71.7h12.73V77h-12.73zm1.06-5.3h10.61v5.3h-10.61zm0-5.31h10.61v5.3h-10.61zm1.06-7.07h8.49v7.07h-8.49z"/><path fill="#fff" stroke="#db161b" stroke-width=".38" d="M145.51 47.83h9.22v6.19h-9.22z"/><ellipse cx="237.4" cy="161.22" transform="matrix(.28916 0 0 .2495 81.98 1.86)" ry="33.66" rx="42.52" fill="#fff" stroke="#db161b" stroke-width="1.33"/><path d="M156.78 41.64c0 2.32 3.07 6.19 3.07 6.19a17.5 17.5 0 0 1-9.22 2.65c-3.39 0-7.62-.63-9.22-2.65 0 0 3.07-3.87 3.07-6.19 0-2.32-3.07-5.3-3.07-5.3a17.48 17.48 0 0 1 9.22-2.66 17.5 17.5 0 0 1 9.22 2.66s-3.07 2.98-3.07 5.3z" fill="#fff" fill-rule="evenodd" stroke="#db161b" stroke-width=".36"/><path d="M154.73 41.64c0 2.32 3.07 7.07 3.07 7.07-2.22 1.52-3.78 1.77-7.17 1.77s-5.57.25-7.17-1.77c0 0 3.07-4.75 3.07-7.07 0-2.32-3.07-6.19-3.07-6.19 2.22-1.52 3.78-1.77 7.17-1.77s4.95.25 7.17 1.77c0 0-3.07 3.87-3.07 6.19z" fill="#fff" fill-rule="evenodd" stroke="#db161b" stroke-width=".36"/><circle cx="194.88" cy="166.54" transform="matrix(.28916 0 0 .2495 81.98 .97)" r="10.63" fill="#fff" stroke="#db161b" stroke-width="1.33"/><circle cx="194.88" cy="166.54" transform="matrix(.28916 0 0 .2495 106.57 .97)" r="10.63" fill="#fff" stroke="#db161b" stroke-width="1.33"/><circle cx="194.88" cy="166.54" transform="matrix(.28916 0 0 .2495 94.28 .97)" r="10.63" fill="#fff" stroke="#db161b" stroke-width="1.33"/><circle cx="194.88" cy="166.54" transform="matrix(.28916 0 0 .2495 94.28 -7.87)" r="10.63" fill="#fff" stroke="#db161b" stroke-width="1.33"/><circle cx="194.88" cy="166.54" transform="matrix(.29948 0 0 .2495 83.26 42.52)" r="10.63" fill="#fff" stroke="#db161b" stroke-width="1.33"/><circle cx="194.88" cy="166.54" transform="matrix(.29948 0 0 .2495 100.24 42.52)" r="10.63" fill="#fff" stroke="#db161b" stroke-width="1.33"/><path d="M142.69 77h14.85l-7.42 7.96z" fill="#fff" fill-rule="evenodd" stroke="#db161b" stroke-width=".36"/><circle cx="194.88" cy="166.54" transform="matrix(.39931 0 0 .33266 72.3 27.79)" r="10.63" fill="#fff" stroke="#db161b" stroke-width="1.33"/><rect x="133.77" y="109.72" width="22.8" height="5.3" ry=".94" rx="1.24" fill="#fff" stroke="#db161b" stroke-width=".33"/><path d="M163.52 105.3c-2.75 0-4.96 2.06-4.96 4.62v4.02c0 2.56 2.21 4.62 4.96 4.62s4.96-2.06 4.96-4.62v-4.02c0-2.56-2.21-4.62-4.96-4.62zm0 1.77c-1.65 0-2.98 1.65-2.98 3.7v2.33c0 2.05 1.33 3.69 2.98 3.69s2.97-1.64 2.97-3.69v-2.33c0-2.05-1.32-3.7-2.97-3.7zm-25.78-.88c-1.65 0-2.97 1.64-2.97 3.69v4.1c0 2.05 1.32 3.7 2.97 3.7 1.65 0 2.97-1.65 2.97-3.7v-4.1c0-2.05-1.32-3.69-2.97-3.69zm0-1.77c-2.75 0-4.96 2.06-4.96 4.62v5.79c0 2.56 2.21 4.62 4.96 4.62s4.96-2.06 4.96-4.62v-5.79c0-2.56-2.21-4.62-4.96-4.62z" fill="#fff" fill-rule="evenodd" stroke="#db161b" stroke-width=".33"/><path d="M129.81 107.95c-1.65 0-2.98 1.65-2.98 3.7v.96c0 2.05 1.33 3.7 2.98 3.7s2.97-1.65 2.97-3.7v-.96c0-2.05-1.32-3.7-2.97-3.7zm0-1.76c-2.75 0-4.96 2.06-4.96 4.62v2.65c0 2.56 2.21 4.62 4.96 4.62 2.74 0 4.96-2.06 4.96-4.62v-2.65c0-2.56-2.22-4.62-4.96-4.62z" fill="#fff" fill-rule="evenodd" stroke="#db161b" stroke-width=".33"/><path d="M117.91 105.51c-2.97 0-5.35 1.84-5.35 4.13v4.58c0 2.29 2.38 4.13 5.35 4.13 2.97 0 5.35-1.84 5.35-4.13v-4.58c0-2.29-2.38-4.13-5.35-4.13zm0-1.98c-4.94 0-8.92 2.31-8.92 5.17v6.47c0 2.86 3.98 5.16 8.92 5.16 4.94 0 8.92-2.3 8.92-5.16v-6.47c0-2.86-3.98-5.17-8.92-5.17zm64.45 2.86c-2.97 0-5.36 1.85-5.36 4.14v4.58c0 2.29 2.39 4.13 5.36 4.13 2.96 0 5.35-1.84 5.35-4.13v-4.58c0-2.29-2.39-4.14-5.35-4.14zm0-1.97c-4.95 0-8.93 2.3-8.93 5.16v6.47c0 2.86 3.98 5.16 8.93 5.16 4.94 0 8.92-2.3 8.92-5.16v-6.47c0-2.86-3.98-5.16-8.92-5.16z" fill="#fff" fill-rule="evenodd" stroke="#db161b" stroke-width=".33"/><rect x="165.5" y="109.72" width="11.9" height="5.3" ry=".94" rx=".65" fill="#fff" stroke="#db161b" stroke-width=".33"/><rect x="154.6" y="108.84" width="6.94" height="7.07" ry="1.25" rx=".38" fill="#fff" stroke="#db161b" stroke-width=".33"/><rect x="121.88" y="108.84" width="6.94" height="7.07" ry="1.25" rx=".38" fill="#fff" stroke="#db161b" stroke-width=".33"/><rect x="100.06" y="107.95" width="13.88" height="8.84" ry="1.56" rx=".75" fill="#fff" stroke="#db161b" stroke-width=".33"/><rect x="186.32" y="108.84" width="12.89" height="8.84" ry="1.56" rx=".7" fill="#fff" stroke="#db161b" stroke-width=".33"/></svg>