<svg xmlns="http://www.w3.org/2000/svg" xmlns:xlink="http://www.w3.org/1999/xlink" viewBox="0 0 900 600"><path fill="#d91023" d="M0 0h900v600H0z"/><path fill="#fff" d="M300 0h300v600H300z"/><g transform="matrix(.25 0 0 .25 345 179.19)" stroke="#d4af37" stroke-width="2" fill="#00a854"><g transform="matrix(.44722 -.20656 .2582 .35777 89.4 -67.3)" id="g" stroke-width="4.33"><path d="M480.21 566.87c31.28 33.04 62.37 68.15 78.93 111.21 25.2 69.71 18.34 151.53-22.52 213.98-34.39 51.8-85.32 91.52-141.97 116.4-51.95 21.53-112.11 23.78-164.83 3.54-20.11-7.37-38.89-17.91-57.5-28.31-8.45-1.44-13.88 8.65-7 13.3 62.35 40.61 130.86 42.24 202.06 28.19 36.1-9.54 69.76-27.28 98.99-50.4 44.36-33.23 82.62-77.44 99.76-130.9 26.13-79 9.28-171.35-45.17-234.65-13.72-16.79-28.87-32.36-44.69-47.17l3.94 4.81z"/><path d="M170.57 983.29c-8.08-.84-12.17 11.81-5.08 13.64 4.18-1 10.67-12 5.08-13.64zm304.26-430.88c-4.5-5.6-14.06-2.9-17.75-7.3-3.94-4.71 2.88-6.51-.23-10-3.11-3.48-7.75-1.74-12-6.5-4.25-4.74-.42-8.77-4.09-12.1-3.66-3.32-4.17.9-8.37-3.72-4.2-4.6-1.72-12.7-6.3-18.56-4.48-5.7-2.99-12.5 2.5-11.25 3.64.82 5.06 4.38 10.46 5.75 5.4 1.38 7.58-2.57 11.12.9 3.54 3.49.3 9.13 4.1 13.98s5.83 1.3 8.52 5.62c2.68 4.33.5 6.61 2.23 11.67s8.37 3.1 10.87 10.75c2.49 7.64-1.05 20.76-1.05 20.76z"/><path d="M478.15 564.8c-5.56-26.19-26.97-56.92-52.6-79.48 15.22 11.96 44.85 40.53 54.36 79.28l-1.76.2z"/><path d="M460.18 524.43c-4.16-2.89-7.25-2.85-10.5-3.26 2.96-.16 5.87-.47 9.48 1.16l1.02 2.1zM445 505.48c-4.5-1.46-7.44-.4-10.62.29 2.8-1.15 5.51-2.42 9.26-2.02l1.36 1.73zm4.38 3.38c-2.2-5.54-2.2-9.68-2.54-14.03-.09 3.96-.3 7.86.96 12.69l1.58 1.34zm13.52 18.18c-2.2-5.54-2.2-9.68-2.53-14.03-.1 3.97-.3 7.87.95 12.7l1.58 1.33zm92.28 155.02c-8.26-3.17-17.17-.03-23.88-2.45-7.15-2.58 1.14-8.58-4.41-10.37-5.55-1.79-10.2 5.65-17.79 3.2-7.57-2.44-6.32-10.12-12.54-11.41-6.21-1.3-6.37 7.19-13.82 4.86-7.45-2.32-7.5-12.33-15.97-15.72-8.28-3.31-9.09-11.35-1.33-13.33 5.16-1.32 10.29 1.93 18 .13s6.98-8.64 13.1-7.1c6.1 1.53 4.35 10.42 11.37 13.24 7.01 2.82 11.36-4.9 16.7-1.97 5.32 2.93.25 9.42 4.62 13.7 4.37 4.28 7.73-2.34 14.17 4.2 6.44 6.54 11.78 23.02 11.78 23.02z"/><path d="M563.5 691.58c-22.9-25.57-58.65-41.39-101.83-49.72 25.06 3.43 76.71 14.95 105.24 49.97l-3.4-.25z"/><path d="M524.28 661.45c-6.69-.54-10.76 1.35-15.23 2.88 3.85-1.95 7.57-4.02 13.03-4.48l2.2 1.6zm-27.87-10.81c-6.55 1.17-10 4.05-13.93 6.67 3.23-2.88 6.3-5.84 11.42-7.68l2.51 1zm7.18.92c-5.18-4.5-6.9-8.85-9.12-13.22 1.5 4.22 2.84 8.44 6.48 12.76l2.64.46zm25.36 11c-5.18-4.5-6.89-8.85-9.12-13.22 1.51 4.22 2.84 8.44 6.48 12.76l2.64.46zm25.79 223.05c6.92-5.38 9.13-14.94 14.63-19.4 5.85-4.75 6.26 5.88 10.64 2.07 4.38-3.81.89-12.1 6.86-17.31 5.98-5.2 11.47.26 15.8-4.41 4.34-4.68-2.38-9.65 3.43-14.81 5.82-5.16 13.86.5 21.07-4.95 7.05-5.32 13.92-1.45 11.4 6.44-1.68 5.24-7.01 7.86-9.66 15.6-2.64 7.74 3.23 11-1.24 15.45-4.47 4.45-10.67-2.15-16.65 2.35-5.98 4.5-2.1 12.7-7.27 15.66-5.18 2.97-7.69-5.14-13.43-3.78-5.75 1.37-2.23 8.07-10.89 9.95-8.65 1.89-24.7-2.86-24.7-2.86z"/><path d="M542.7 887.43c32.64-5.37 64.27-27.49 93.84-60.33-16.03 19.86-52.66 58.27-95.85 63.15l2-2.82z"/><path d="M587.64 870.45c3.98-5.52 4.62-10.14 5.77-14.9-.48 4.46-.8 8.88-3.31 13.9l-2.46 1zm23.45-18.1c2.53-6.38 2.05-11.03 2.03-15.93.6 4.44 1.35 8.8.1 14.31l-2.13 1.62zm-4.55 5.72c6.36-1.95 10.75-.96 15.44-.4-4.2-1.1-8.28-2.35-13.67-1.64l-1.77 2.04zm-22.27 15.81c6.36-1.94 10.75-.95 15.44-.4-4.19-1.1-8.28-2.34-13.67-1.63l-1.77 2.03zm2.23-83.94c5.85-6.62 6.32-16.43 10.93-21.87 4.92-5.8 7.2 4.57 10.83-.02 3.63-4.58-1.27-12.06 3.67-18.33 4.95-6.26 11.32-1.94 14.75-7.37 3.42-5.43-4.06-9.02.74-15.21 4.8-6.2 13.7-2.18 19.83-8.92 5.98-6.58 13.42-4.1 12.34 4.14-.72 5.47-5.5 9.06-6.72 17.18-1.23 8.12 5.13 10.19 1.52 15.42-3.6 5.24-10.86-.06-15.94 5.52-5.08 5.58.2 12.88-4.37 16.79-4.56 3.91-8.47-3.58-13.87-1.13-5.4 2.44-.76 8.36-8.93 11.87s-24.78 1.93-24.78 1.93z"/><path d="M574.98 794.05c31.13-11.55 58.3-39.37 81.53-77.33-12.24 22.6-41.4 67.39-83 80.5l1.47-3.17z"/><path d="M616.15 768.72c2.93-6.19 2.74-10.86 3.02-15.76.32 4.48.8 8.88-.8 14.3l-2.22 1.46zm19.82-22.3c1.36-6.75.06-11.23-.83-16.05 1.38 4.26 2.9 8.4 2.64 14.05l-1.8 2zm-3.45 6.5c5.9-3.14 10.4-3 15.1-3.37-4.31-.27-8.55-.7-13.73 1.02l-1.37 2.35zm-19.08 19.82c5.9-3.13 10.4-3 15.1-3.37-4.3-.27-8.54-.7-13.72 1.03l-1.38 2.34zM567.3 741.2c-7.88-5.63-18.27-4.85-24.72-9.25-6.87-4.7 3.66-8.63-1.73-12.05-5.4-3.43-12.48 3.02-19.85-1.65-7.36-4.67-3.84-12.33-10.09-15.42-6.25-3.1-8.83 5.71-16.1 1.2s-4.46-14.97-12.51-20.88c-7.86-5.78-6.44-14.39 2.39-14.28 5.86.07 10.4 4.9 19.12 5.18 8.72.28 5.01-4.33 11.08-1.02 6.08 3.32 4.84 12.1 11.5 17 6.67 4.91 15.2-4.65 20.04-.1 4.84 4.55-2.41 9.9 1.01 15.6s8.9-.28 13.9 8.35c4.98 8.62 5.96 27.32 5.96 27.32z"/><path d="M573.43 753.47c-17.08-33.1-50.62-59.63-94.2-80.42 25.7 10.6 77.39 37.1 97.76 81.63l-3.56-1.21z"/><path d="M540.28 711.03c-6.96-2.43-11.84-1.6-17.03-1.26 4.65-.96 9.2-2.08 15.14-1.03l1.9 2.3zm-26.57-19.09c-7.31-.61-11.81 1.43-16.73 3.06 4.25-2.1 8.36-4.33 14.34-4.81l2.39 1.75zm7.37 2.98c-4.23-6.16-4.8-11.17-5.94-16.36.4 4.83.62 9.6 3.26 15.14l2.68 1.22zm23.86 18.59c-4.23-6.16-4.8-11.17-5.94-16.36.4 4.83.62 9.6 3.26 15.14l2.68 1.22zm43.08 36.85c4.44-7.71 3-17.42 6.45-23.72 3.69-6.71 7.95 2.96 10.6-2.3 2.66-5.25-3.6-11.54.03-18.72s10.7-4.29 13-10.33c2.3-6.04-5.72-7.97-2.22-15.05 3.5-7.08 13-5.02 17.68-12.9 4.58-7.71 12.35-6.85 12.89 1.44.36 5.52-3.62 10.04-3.24 18.25.38 8.2 7 8.9 4.5 14.78-2.52 5.89-10.66 2.23-14.54 8.76-3.9 6.53 2.69 12.57-1.01 17.36-3.7 4.8-9-1.72-13.81 1.82-4.82 3.53.88 8.34-6.44 13.5s-23.89 7.11-23.89 7.11z"/><path d="M577.54 756.81c28.24-17.87 49.43-50.83 64.8-92.9-7.59 24.7-27.44 74.71-65.62 96.3l.82-3.4z"/><path d="M612.93 723.34c1.66-6.68.57-11.22-.1-16.07 1.18 4.32 2.5 8.53 2 14.16l-1.9 1.9zM628 697.32c.02-6.9-2.12-11-3.93-15.54 2.18 3.88 4.46 7.62 5.32 13.2l-1.39 2.34zm-2.11 7.1c5.17-4.32 9.6-5.14 14.13-6.49-4.28.64-8.51 1.11-13.24 3.9l-.9 2.58zm-14.83 23.42c5.17-4.3 9.6-5.13 14.13-6.47-4.27.64-8.5 1.1-13.24 3.9l-.89 2.57zm-53.66-88.93c3.6-8.65.84-18.54 3.61-25.58 2.96-7.5 8.66 1.96 10.74-3.88 2.08-5.85-5.25-11.5-2.41-19.48s10.58-5.97 12.18-12.58c1.6-6.6-7-7.49-4.28-15.34 2.71-7.85 12.87-7.06 16.72-15.92 3.76-8.66 11.95-8.85 13.6-.3 1.09 5.68-2.46 10.94-1 19.42 1.47 8.48 8.45 8.27 6.6 14.74-1.85 6.48-10.79 3.83-13.98 11.17-3.2 7.34 4.44 12.69 1.2 18.2-3.22 5.5-9.57-.52-14.12 3.83-4.55 4.36 2 8.55-4.94 14.96-6.94 6.4-23.93 10.76-23.93 10.76z"/><path d="M547.33 647.1c27.05-22.57 44.8-59.85 55.31-105.77-4.67 26.77-18.82 81.58-55.72 109.42l.41-3.65z"/><path d="M579.78 607.29c.86-7.18-.86-11.74-2.2-16.7 1.8 4.33 3.72 8.52 3.93 14.45l-1.73 2.25zm12.3-29.18c-.88-7.18-3.64-11.15-6.12-15.61 2.77 3.72 5.64 7.29 7.26 12.98l-1.14 2.62zm-1.28 7.67c4.82-5.22 9.32-6.7 13.86-8.73-4.36 1.27-8.7 2.35-13.27 5.92l-.59 2.8zm-12.37 26.46c4.82-5.21 9.31-6.69 13.86-8.73-4.36 1.27-8.7 2.35-13.27 5.92l-.59 2.81z"/><path d="M533.38 605.31c4.26-6.58-1.07-18.72 2.26-24.1 3.54-5.74 7.22 2.94 9.78-1.56 2.57-4.5-.43-10.34 3.07-16.49 3.5-6.15 8.53-1.66 10.79-6.86 2.25-5.21-2.04-5.34 1.34-11.4 3.37-6.07 12.05-3.85 16.53-10.58 4.39-6.57 11.5-5.47 11.8 1.84.2 4.86-2.92 7.17-2.76 14.4.15 7.22 4.65 9.56 2.2 14.63-2.45 5.06-8.9 1.55-12.63 7.12-3.72 5.57.34 7.77-3.18 11.83-3.51 4.05-6.37 1.48-10.88 4.38-4.5 2.9-.72 11.33-7.56 15.54s-20.76 1.25-20.76 1.25z"/><path d="M522.1 611.2c24.25-10.57 48.59-42.4 63.7-78.7-7.55 21.38-27.47 63.67-63.02 80.98l-.69-2.28z"/><path d="M556.88 582.65c1.69-5.8.8-9.83.29-14.13.99 3.85 2.1 7.6 1.5 12.54l-1.79 1.59zm14.46-22.21c.18-6.07-1.69-9.77-3.24-13.83 1.9 3.5 3.91 6.89 4.57 11.84l-1.33 1.99zm-2.11 6.14c4.85-3.57 8.92-4.1 13.12-5.08-3.94.38-7.84.6-12.25 2.85l-.88 2.23zm-14.17 19.95c4.85-3.57 8.93-4.1 13.13-5.08-3.94.38-7.84.6-12.25 2.85l-.88 2.23zm-173.27 425.74c3.57-9.03.93-19.71 3.67-27.08 2.93-7.84 8.4 2.52 10.46-3.6 2.06-6.12-5.03-12.52-2.22-20.88 2.8-8.36 10.32-5.83 11.92-12.8 1.6-6.95-6.76-8.32-4.07-16.55 2.68-8.24 12.56-6.88 16.36-16.13 3.7-9.04 11.67-8.84 13.22.35 1.03 6.11-2.45 11.55-1.08 20.66 1.38 9.11 8.17 9.23 6.33 16.04-1.83 6.81-10.52 3.53-13.67 11.2-3.15 7.66 4.25 13.74 1.08 19.45-3.18 5.71-9.32-1.03-13.77 3.38-4.45 4.41 1.9 9.22-4.89 15.7-6.8 6.47-23.34 10.26-23.34 10.26z"/><path d="M375.22 1016.42c26.44-22.7 40.67-57.46 51.16-105.87-4.7 28.29-15.52 81.92-51.59 109.74l.43-3.87z"/><path d="M403.76 979.7c.88-7.61-.78-12.56-2.05-17.91 1.73 4.7 3.57 9.27 3.74 15.6l-1.7 2.3zm12.13-30.49c-.81-7.7-3.48-12.07-5.86-16.94 2.67 4.11 5.44 8.05 6.98 14.2l-1.12 2.74zm-1.29 8.11c4.72-5.31 9.1-6.66 13.53-8.6-4.25 1.13-8.48 2.07-12.94 5.64l-.59 2.96zm-12.19 27.59c4.72-5.32 9.1-6.67 13.53-8.61-4.25 1.13-8.48 2.07-12.94 5.64l-.59 2.97zm158.67-152.74c-7.13-7.46-19.24-10.08-25.14-16-6.29-6.32 7.03-6.43 2.01-11.16-5.02-4.73-15.24-1.3-22.1-7.76-6.87-6.45-.3-12.07-6.4-16.78-6.12-4.7-11.98 2.22-18.78-4.07-6.8-6.28-.14-14.58-7.37-22.35-7.06-7.58-2.58-14.7 7.46-11.8 6.67 1.93 10.24 7.62 20.1 10.65 9.86 3.02 13.63-3.06 19.46 1.78 5.84 4.85-2.1 11.17 3.87 17.61 5.98 6.44 16.05 2.6 20.06 8.14 4.01 5.55-6.03 7.95-4 14.04 2.02 6.1 10.24 2.6 13.08 11.77 2.84 9.18-2.25 25.93-2.25 25.93z"/><path d="M540.26 797.04c-7.15-4.36-13-5.18-19.03-6.54 5.63.65 11.2 1.11 17.63 3.92l1.4 2.62zm-24.01-25.25c-8.14-2.87-13.95-2.5-20.11-2.63 5.55-.5 10.98-1.16 17.97.33l2.14 2.3zm7.43 4.96c-2.8-6.76-1.79-11.35-1.36-16.27-1.14 4.38-2.48 8.64-1.3 14.35l2.66 1.92zm21.07 23.95c-2.79-6.76-1.78-11.36-1.35-16.28-1.15 4.38-2.48 8.65-1.3 14.35l2.65 1.93z"/><path d="M561.7 840.05c-8.53-34.55-35.7-63.7-78.54-95.86 25.8 17.5 73.7 52.4 82.2 98.06l-3.66-2.2z"/><g id="d"><path d="M527.3 890.54c-3.36-8.85-19.8-13.1-22.68-20.18-3.06-7.54 9.13-5.23 6.55-10.93-2.59-5.7-13.35-4.1-16.88-11.88-3.53-7.78 4.82-12.27 1.24-18.15-3.58-5.88-11.85.07-15.4-7.53-3.54-7.6 6.03-14.8 2.72-23.97-3.23-8.97 3.86-15.36 11.78-10.6 5.27 3.17 6.13 9.59 13.84 14.44 7.72 4.86 13.72-.62 17 5.35 3.26 5.97-6.65 10.92-3.91 18.53 2.73 7.6 13.53 5.55 14.85 11.89 1.31 6.34-8.86 6.95-9.58 13.48-.73 6.54 8.25 4.5 6.96 14.3s-6.5 25.25-6.5 25.25z"/><path d="M520.01 853.11c-4.67-5.71-13.03-8.94-17.96-11.4 4.86 1.67 13.11 4.48 17.79 8.5l.17 2.9zm-9.93-24.88c.31-7.36 3.17-11.82 5.64-16.73-2.9 4.22-5.91 8.3-7.25 14.3l1.61 2.43zm12.42 26.06c.31-7.35-.15-9.81 2.32-14.71-2.89 4.22-2.6 6.29-3.92 12.28l1.6 2.43z"/><path d="M525.2 906.63c6.81-36.53-12.82-78.38-38.31-118.74 16.14 22.42 52.24 73.86 40.71 121.63l-2.4-2.89z"/><path d="M505.4 821.85c-6.21-4.39-11.66-5.08-17.22-6.32 5.27.5 10.5.83 16.24 3.6l.98 2.72z"/></g><path d="M493.56 566.12c-1.93-7.01-11.72-8.59-13.37-14.18-1.76-5.97 5.18-4.73 3.7-9.23-1.48-4.5-6.4-4.87-8.42-11.01-2.03-6.14 3.04-8.2 1-12.79-2.06-4.58-4.17-.95-6.2-6.94-2.04-6 3.4-12.34 1.5-19.63-1.87-7.11 2.15-12.68 6.67-9.22 3.01 2.3 2.92 6.15 7.32 9.69 4.4 3.54 7.93.85 9.8 5.53 1.88 4.68-3.28 8.46-1.71 14.5 1.57 6.04 4.82 3.66 5.58 8.74.76 5.09-2.13 6.25-2.53 11.6-.4 5.36 6.44 6.39 5.73 14.43-.7 8.03-9.07 18.51-9.07 18.51z"/><path d="M491.74 578.84c5.16-26.27-2.39-63.41-16.98-94.87 9.23 17.37 25.13 56.01 18.67 95.44l-1.69-.57z"/><path d="M491.1 534.36c-2.67-4.4-5.5-5.68-8.32-7.43 2.77 1.11 5.55 2.06 8.22 5.08l.1 2.35zm-6.45-23.74c-3.54-3.23-6.65-3.5-9.81-4.23 3 .14 5.97.12 9.25 2.07l.56 2.16zm2.68 4.94c.16-6 1.77-9.77 3.17-13.89-1.64 3.59-3.35 7.06-4.1 12l.93 1.89zm5.24 22.34c.16-6 1.77-9.77 3.17-13.89-1.64 3.58-3.35 7.06-4.09 12l.92 1.89zm17.1 37.32c-.2-6.89-6.92-11.4-7.2-16.89-.3-5.86 14.64-4.38 14.25-8.8-.4-4.41-5.46-4.8-6-10.83s5.33-8.03 4.36-12.53c-.97-4.5-4.13-.95-4.71-6.84-.59-5.88 1.96-12.4 1.84-19.54-.11-6.98 5.57-12.43 9.43-9.03 2.56 2.27 1.46 6.04 5.18 9.53 3.7 3.49 8.35 1 11.29 4.53 2.91 3.5 2.3 6.34 2.4 12.27.08 5.92 4.11 3.6 3.6 8.6-.52 4.98-3.87 6.11-5.67 11.36-1.81 5.25 5.12 6.28 2.28 14.16-2.83 7.88-31.05 24.01-31.05 24.01z"/><path d="M499.22 585.58c24.42-21.57 36.5-63.2 18.32-94 8.18 15.14 12.47 31.13 8.1 50.28a92.12 92.12 0 0 1-24.8 44.29l-1.62-.57z"/><path d="M522.27 550.76c-1.67-4.32-6.17-9.78-8.68-11.5 2.63 1.09 7.15 6.23 9.18 9.2l-.5 2.3zm4.02-26.81c-2.9-3.19-6.09-3.47-9.23-4.19 3.12.15 6.26.14 9.2 2.07l.03 2.12zm1.15.2c1.72-5.88 4.4-9.58 6.94-13.61-2.65 3.5-5.35 6.9-7.42 11.75l.48 1.86zm-4.27 27.52c1.72-5.87 7.86-3.78 12.46-5.22-3.5.05-10.87-1.48-12.94 3.36l.48 1.86zm-44.27 24.2c-6.49-4.61-4.56-15.69-9.7-19.5-5.48-4.05-6.72 3.85-10.79.62-4.07-3.22-2.69-8.63-8.24-13.03-5.56-4.41-9.5.28-13.47-3.58-3.96-3.87.53-4.81-4.88-9.17-5.4-4.36-13.87-.84-20.65-5.53-6.62-4.58-13.78-2.3-11.87 3.8 1.26 4.07 5.25 5.37 7.28 11.38 2.04 6-2 8.8 2.13 12.52 4.12 3.71 9.86-.45 15.48 3.44 5.62 3.88 2 6.49 6.94 9.16s7.18-.01 12.8 1.5c5.63 1.53 4.22 9.23 12.71 11.4 8.5 2.15 22.26-3 22.26-3z"/><path d="M492.6 578.55c-28.8-4.03-64.13-25.62-91.1-52.7 14.47 16.21 48.32 47.3 91.07 54.72l.03-2.02z"/><path d="M447.24 561.7c-3.54-4.47-3.83-7.98-4.6-11.63.13 3.37.1 6.7 2.23 10.66l2.37.97zm-22-15.56c-2.03-4.98-1.19-8.4-.78-12.06-.95 3.26-2.04 6.45-1.22 10.67l2 1.4zm4.1 4.67c-6.2-2-10.66-1.65-15.38-1.65 4.26-.45 8.44-1.02 13.77-.03l1.6 1.68zm21 13.74c-6.2-2-10.66-1.65-15.39-1.65 4.27-.45 8.45-1.02 13.78-.02l1.6 1.67zm50.18 41.03c-8.06-3.5-6.62-15.42-13.01-18.35-6.81-3.11-7.68 5.37-12.76 2.84-5.08-2.54-3.85-8.45-10.78-11.91-6.94-3.46-11.26 2.23-16.26-1-5-3.23.26-5.12-6.49-8.56-6.75-3.45-16.53 1.94-24.94-1.57-8.2-3.43-16.53.41-13.8 6.39 1.81 3.97 6.64 4.51 9.52 10.36 2.87 5.84-1.7 9.59 3.47 12.62 5.18 3.03 11.68-2.47 18.64.43 6.97 2.91 2.88 6.36 8.95 8.14 6.06 1.78 8.51-1.47 15.3-1.03 6.8.44 5.71 8.76 15.96 9.28 10.25.53 26.2-7.64 26.2-7.64z"/><path d="M516.98 605.58c-34.49 1.66-78.08-13.66-112.15-36.4 18.4 13.95 60.96 39.48 112.27 38.51l-.12-2.1z"/><path d="M461.84 597.24c-4.54-3.94-5.14-7.53-6.34-11.18.41 3.49.63 6.96 3.46 10.65l2.88.53zm-27.29-11.74c-2.8-4.77-2.06-8.52-1.85-12.41-.88 3.6-1.93 7.14-.64 11.37l2.49 1.04zm5.22 4.03c-7.51-.83-12.78.45-18.39 1.4 5.03-1.33 9.95-2.77 16.35-2.82l2.04 1.42zm25.97 10.06c-7.51-.83-12.78.44-18.38 1.4 5.03-1.34 9.94-2.78 16.35-2.82l2.03 1.42z"/><path d="M517.5 629.67c-8.28-2.96-7.62-14.95-14.2-17.45-7-2.67-7.3 5.85-12.55 3.65-5.24-2.2-4.4-8.18-11.55-11.18s-11.1 2.95-16.3.06c-5.2-2.9-.07-5.12-7.04-8.12-6.96-3-16.38 3-25 .05-8.42-2.9-16.48 1.47-13.37 7.25 2.07 3.85 6.93 4.08 10.19 9.72 3.25 5.65-1.07 9.67 4.3 12.36 5.36 2.7 11.5-3.21 18.64-.77 7.14 2.45 3.29 6.16 9.46 7.54 6.17 1.38 8.41-2.01 15.23-2.01 6.81 0 6.27 8.36 16.53 8.22 10.27-.14 25.66-9.32 25.66-9.32z"/><path d="M533.94 628.61c-34.33 3.88-78.87-8.58-114.38-29.06 19.29 12.73 63.47 35.44 114.64 31.16l-.26-2.1z"/><path d="M478.33 623.86c-4.79-3.63-5.63-7.18-7.07-10.74.65 3.45 1.09 6.9 4.16 10.4l2.91.34zm-28.02-9.95c-3.1-4.58-2.61-8.36-2.67-12.26-.63 3.64-1.45 7.25.12 11.38l2.55.88zm5.47 3.68c-7.55-.34-12.73 1.27-18.26 2.6 4.93-1.67 9.75-3.42 16.14-3.88l2.12 1.28zm26.6 8.35c-7.55-.34-12.73 1.27-18.27 2.6 4.94-1.67 9.75-3.42 16.14-3.88l2.13 1.28z"/><g id="a"><path d="M207.2 997.38c6.6-4.26 15.18-3.23 20.57-6.55 5.75-3.54-2.93-7.12 1.58-9.7 4.5-2.56 10.3 2.93 16.46-.57s3.32-9.84 8.53-12.1c5.21-2.27 7.25 4.96 13.32 1.58 6.08-3.38 3.87-11.95 10.61-16.44 6.58-4.38 5.5-11.4-1.81-11.65-4.86-.17-8.67 3.58-15.9 3.47-7.23-.1-8.11-6.09-13.18-3.64-5.07 2.46-1.52 9.74-7.1 13.46-5.57 3.72-11.15-2.08-15.2 1.42-4.07 3.5 1.87 8.12-1.03 12.59s-7.37-.56-11.6 6.24c-4.23 6.8-5.25 21.9-5.25 21.9z"/><path d="M201.96 1007.08c14.53-26.15 42.62-46.35 78.95-61.54-21.4 7.61-64.52 27.1-81.9 62.4l2.95-.86z"/><path d="M229.91 973.98c5.8-1.7 9.83-.85 14.13-.38-3.85-.95-7.6-2.02-12.54-1.4l-1.59 1.78zm22.24-14.45c6.06-.22 9.76 1.6 13.82 3.12-3.5-1.87-6.88-3.83-11.83-4.44l-2 1.32zm-6.15 2.13c3.58-4.82 4.11-8.86 5.1-13.01-.38 3.9-.61 7.75-2.86 12.13l-2.24.88zm-19.97 14.15c3.57-4.82 4.1-8.86 5.1-13.02-.38 3.9-.62 7.75-2.87 12.13l-2.23.89z"/></g><g id="b"><path d="M210.31 1024.48c9.07 3.6 19.28 0 26.66 2.74 7.86 2.92-1.83 9.73 4.28 11.75 6.12 2.03 11.83-6.42 20.18-3.66 8.36 2.76 6.45 11.48 13.35 12.93 6.9 1.46 7.62-8.17 15.84-5.54 8.22 2.62 7.63 13.97 16.92 17.8 9.08 3.75 9.48 12.87.64 15.13-5.88 1.5-11.44-2.18-20.21-.12-8.78 2.06-8.4 9.82-15.17 8.09-6.77-1.73-4.22-11.82-11.92-15-7.7-3.2-13.08 5.58-18.88 2.26-5.8-3.32.32-10.7-4.3-15.54-4.63-4.84-8.84 2.67-15.66-4.74-6.8-7.4-11.73-26.1-11.73-26.1z"/><path d="M201.57 1013.7c24.08 28.97 63.2 46.85 111.16 56.23-27.92-3.85-85.19-16.83-114.97-56.51l3.81.27z"/><path d="M243.68 1047.82c7.48.6 12.18-1.56 17.3-3.3-4.46 2.22-8.77 4.58-14.93 5.1l-2.37-1.8zm30.6 12.21c7.44-1.34 11.5-4.62 16.07-7.6-3.8 3.28-7.44 6.65-13.32 8.74l-2.75-1.14zm-8-1.03c5.53 5.1 7.17 10.03 9.39 14.99-1.42-4.8-2.65-9.58-6.46-14.48l-2.93-.51zm-27.78-12.44c5.53 5.1 7.17 10.03 9.4 14.99-1.43-4.8-2.65-9.58-6.46-14.48l-2.94-.51z"/></g><use transform="translate(43.94 17.37)" width="744.09" height="1052.36" xlink:href="#a"/><use transform="translate(59.27 11.24)" width="744.09" height="1052.36" xlink:href="#b"/><g id="e"><path d="M353.52 1034.12c9.75.94 18.8-5.29 26.67-4.7 8.4.63.7 9.8 7.17 10.04 6.48.26 9.9-9.37 18.73-9.03 8.84.34 9.2 9.18 16.3 8.68 7.1-.5 5.34-9.89 14.02-9.64s11 11.25 21.03 12.36c9.8 1.09 12.5 9.68 4.47 14.26-5.35 3.05-11.7 1.06-19.72 5.43-8.03 4.37-5.68 11.68-12.71 11.89-7.04.2-7.13-10.13-15.44-11.06-8.31-.93-11.32 8.92-17.82 7.34-6.49-1.57-2.41-10.29-8.16-13.65-5.74-3.35-7.93 4.98-16.45-.23-8.52-5.2-18.09-21.7-18.09-21.7z"/><path d="M342.26 1026.22c30.84 21.06 73.52 27.39 122.63 23.18-28.18 3.99-87.28 7.31-126.4-22.4l3.77-.78z"/><path d="M391.98 1047.24c7.44-1.48 11.47-4.83 16.01-7.9-3.77 3.35-7.37 6.78-13.23 8.98l-2.78-1.08zm32.93 3.26c6.9-3.32 10.03-7.56 13.72-11.66-2.87 4.17-5.56 8.39-10.75 12l-2.97-.34zm-8.06 1.2c6.69 3.36 9.54 7.62 12.97 11.74-2.6-4.18-5.02-8.41-9.98-12.05l-2.99.32zm-30.23-4.24c6.69 3.35 9.54 7.6 12.97 11.73-2.6-4.18-5.02-8.41-9.98-12.05l-3 .32z"/></g><path d="M292.72 1024.55c4.98-5.07 13.17-6.26 17.29-10.28 4.38-4.27-4.54-5.16-1.05-8.34 3.5-3.18 10.25-.04 15.03-4.38 4.77-4.35.53-8.89 4.75-11.99 4.22-3.1 7.96 2.36 12.69-1.86 4.73-4.22.49-10.74 5.55-16.03 4.93-5.16 2.13-10.68-4.68-9.15-4.52 1.02-7.07 5-13.76 6.63-6.7 1.63-9.05-3.08-13.1.14-4.04 3.22 1.12 8.36-3.07 12.74-4.18 4.39-10.82.95-13.66 4.8-2.84 3.83 3.83 6.21 2.3 10.58-1.52 4.37-6.94 1.3-9.09 7.89-2.15 6.59.8 19.25.8 19.25z"/><path d="M292.09 1030.32c6.66-24.95 25.66-44.8 55.25-65.9-17.77 11.33-50.82 34.16-57.76 67.3l2.5-1.4z"/><path d="M307.63 999.91c4.91-2.78 8.85-3.03 12.93-3.66-3.79.13-7.53.13-11.92 1.82l-1 1.84zm16.78-17.16c5.54-1.62 9.42-1 13.55-.72-3.7-.7-7.33-1.52-12.05-.84l-1.5 1.56zm-5.11 3.21c2.05-4.81 1.5-8.26 1.35-11.91.65 3.3 1.43 6.52.48 10.65l-1.83 1.26zm-14.78 16.38c2.06-4.82 1.51-8.27 1.36-11.92.64 3.3 1.42 6.52.48 10.66l-1.84 1.26zm40.9 14.97c4.02-6.25 12.08-9.14 15.44-14.12 3.58-5.31-5.64-4.42-2.75-8.41 2.9-4 10.38-2.13 14.34-7.58 3.96-5.46-1.26-9.29 2.4-13.35 3.64-4.06 8.54.82 12.48-4.5 3.94-5.32-1.68-11.2 2.38-17.7 3.96-6.33 0-11.46-6.6-8.5-4.37 1.97-6.15 6.6-12.6 9.65-6.45 3.04-9.8-1.35-13.24 2.8-3.44 4.14 2.82 8.41-.53 13.8-3.36 5.37-10.78 3.16-12.88 7.71-2.1 4.55 5.13 5.66 4.47 10.48-.66 4.82-6.77 2.74-7.62 10-.84 7.24 4.71 19.72 4.71 19.72z"/><path d="M345.95 1023.41c1.7-27.14 16.94-51.5 42.65-79.33-15.71 15.33-44.59 45.63-44.91 81.28l2.26-1.95z"/><path d="M355.55 988.83c4.41-3.87 8.35-4.93 12.36-6.42-3.81.91-7.6 1.68-11.7 4.3l-.66 2.12zm13.53-21.14c5.28-2.8 9.34-2.95 13.59-3.5-3.9.03-7.74-.08-12.39 1.57l-1.2 1.93zm-4.53 4.35c1.1-5.39-.15-8.84-1.04-12.58 1.32 3.27 2.76 6.45 2.64 10.91l-1.6 1.67zm-11.66 19.92c1.1-5.39-.15-8.84-1.04-12.58 1.32 3.27 2.76 6.45 2.64 10.91l-1.6 1.67z"/><g id="f"><path d="M505.88 948.75c7.67-4.14 11.34-13.2 17.46-16.67 6.52-3.7 5.27 6.86 10.18 3.83 4.91-3.02 2.76-11.79 9.47-15.92 6.7-4.13 11.27 2.2 16.28-1.69 5-3.88-.86-9.92 5.69-14.03 6.54-4.11 13.6 2.83 21.56-1.33 7.78-4.06 13.96.92 10.24 8.28-2.48 4.89-8.14 6.57-11.96 13.76-3.81 7.2 1.48 11.4-3.63 15.04-5.1 3.63-10.2-3.92-16.8-.49-6.6 3.44-4.04 12.17-9.61 14.23-5.57 2.06-6.79-6.38-12.67-6-5.88.38-3.45 7.59-12.29 7.98-8.83.4-23.92-7-23.92-7z" transform="translate(9.39 -7.87)"/><path d="M493.71 948.51c33.05.21 67.7-16.27 102-43.69-18.91 16.89-61.03 48.61-104.42 46.14l2.42-2.45z" transform="translate(9.39 -7.87)"/><path d="M540.71 939.35c4.78-4.78 6.14-9.24 8.02-13.74-1.17 4.32-2.17 8.63-5.44 13.15l-2.58.59zm25.95-13.92c3.5-5.86 3.75-10.53 4.5-15.37-.1 4.49-.05 8.92-2.14 14.14l-2.36 1.23zm-5.38 4.88c6.58-.84 10.76.88 15.3 2.2-3.96-1.78-7.8-3.7-13.23-3.91l-2.07 1.71zm-24.43 11.85c6.58-.84 10.76.88 15.3 2.2-3.97-1.78-7.8-3.7-13.24-3.91l-2.06 1.71z" transform="translate(9.39 -7.87)"/></g><path d="M583 716.21c3.61-8.65.84-18.54 3.62-25.58 2.96-7.5 8.65 1.96 10.73-3.88s-5.25-11.5-2.4-19.48 10.57-5.97 12.17-12.58c1.61-6.6-7-7.49-4.28-15.34 2.72-7.85 12.87-7.06 16.72-15.92 3.76-8.66 11.95-8.85 13.6-.3 1.1 5.68-2.46 10.94-1 19.42 1.47 8.48 8.45 8.27 6.6 14.75-1.84 6.47-10.79 3.82-13.98 11.16-3.2 7.34 4.44 12.69 1.21 18.2-3.23 5.5-9.58-.52-14.13 3.83-4.55 4.36 2.01 8.55-4.93 14.96-6.95 6.4-23.94 10.76-23.94 10.76z"/><path d="M572.93 724.4c27.05-22.57 44.8-59.85 55.31-105.77-4.67 26.77-18.81 81.58-55.72 109.42l.41-3.65z"/><path d="M605.39 684.59c.86-7.18-.87-11.74-2.2-16.7 1.8 4.33 3.72 8.52 3.93 14.45l-1.73 2.25zm12.3-29.19c-.89-7.17-3.65-11.15-6.13-15.6 2.78 3.72 5.64 7.29 7.26 12.98l-1.14 2.62zm-1.29 7.68c4.82-5.22 9.32-6.7 13.86-8.73-4.36 1.27-8.7 2.35-13.27 5.91l-.59 2.82zm-12.37 26.46c4.82-5.21 9.32-6.69 13.86-8.73-4.36 1.27-8.7 2.35-13.27 5.92l-.59 2.81z"/><path d="M572.26 672.08c4.45-7.72 3-17.42 6.45-23.72 3.7-6.71 7.95 2.96 10.6-2.3 2.67-5.25-3.59-11.55.04-18.72 3.63-7.18 10.7-4.3 13-10.33 2.3-6.04-5.72-7.98-2.23-15.05 3.5-7.08 13-5.03 17.69-12.91 4.57-7.7 12.34-6.84 12.89 1.45.36 5.51-3.62 10.04-3.24 18.24.38 8.2 7 8.9 4.49 14.78-2.51 5.9-10.65 2.23-14.54 8.76-3.89 6.53 2.7 12.57-1.01 17.37-3.7 4.8-9-1.72-13.8 1.81-4.82 3.53.88 8.34-6.44 13.5s-23.9 7.12-23.9 7.12z"/><path d="M561.79 678.53c28.23-17.87 49.42-50.84 64.8-92.9-7.6 24.7-27.45 74.71-65.63 96.3l.83-3.4z"/><path d="M597.17 645.05c1.67-6.67.57-11.2-.1-16.07 1.18 4.32 2.5 8.53 2 14.17l-1.9 1.9zm15.08-26.01c.02-6.9-2.12-11.01-3.94-15.54 2.18 3.87 4.47 7.61 5.33 13.2l-1.4 2.34zm-2.12 7.09c5.17-4.32 9.6-5.14 14.13-6.48-4.27.64-8.5 1.1-13.24 3.9l-.89 2.58zm-14.83 23.43c5.18-4.31 9.6-5.13 14.14-6.48-4.28.64-8.51 1.11-13.24 3.9l-.9 2.58zm-28.56 126.37c-7.88-5.63-18.26-4.84-24.71-9.25-6.87-4.7 3.66-8.62-1.74-12.05-5.4-3.42-12.47 3.03-19.84-1.64-7.37-4.67-3.84-12.34-10.1-15.43-6.24-3.09-8.82 5.72-16.09 1.2-7.27-4.51-4.47-14.96-12.52-20.88-7.86-5.77-6.43-14.38 2.39-14.28 5.87.07 10.4 4.9 19.12 5.19 8.72.28 5.02-4.33 11.09-1.02 6.07 3.32 4.84 12.1 11.5 17 6.67 4.91 15.2-4.66 20.03-.1 4.84 4.55-2.4 9.9 1.02 15.59 3.43 5.69 8.9-.27 13.89 8.35 4.99 8.63 5.96 27.32 5.96 27.32z"/><path d="M572.89 788.2c-17.08-33.1-50.62-59.62-94.2-80.42 25.69 10.6 77.38 37.1 97.75 81.64l-3.55-1.22z"/><path d="M539.74 745.77c-6.97-2.44-11.85-1.6-17.04-1.27 4.66-.95 9.21-2.07 15.15-1.02l1.89 2.29zm-26.58-19.1c-7.31-.6-11.8 1.43-16.73 3.07 4.26-2.1 8.37-4.34 14.35-4.81l2.38 1.75zm7.38 2.99c-4.24-6.16-4.81-11.17-5.94-16.36.4 4.83.62 9.6 3.26 15.14l2.68 1.21zm23.85 18.58c-4.23-6.15-4.8-11.17-5.93-16.35.4 4.83.61 9.6 3.25 15.13l2.68 1.22zm30.31 95.15c5.84-6.62 6.31-16.43 10.92-21.87 4.92-5.8 7.2 4.57 10.83-.02 3.63-4.58-1.27-12.06 3.68-18.33 4.94-6.26 11.31-1.94 14.74-7.37 3.43-5.43-4.06-9.02.74-15.21 4.8-6.2 13.71-2.18 19.83-8.92 5.98-6.58 13.42-4.1 12.34 4.14-.72 5.47-5.5 9.06-6.72 17.18-1.22 8.12 5.13 10.19 1.52 15.42-3.6 5.24-10.86-.06-15.94 5.52s.2 12.87-4.36 16.79c-4.56 3.91-8.48-3.58-13.88-1.13-5.4 2.44-.75 8.36-8.93 11.87-8.17 3.51-24.78 1.93-24.78 1.93z"/><path d="M563.18 847.5c31.13-11.55 58.29-39.37 81.52-77.34-12.23 22.6-41.4 67.4-83 80.5l1.48-3.16z"/><path d="M604.34 822.17c2.93-6.19 2.74-10.86 3.02-15.76.33 4.48.8 8.88-.79 14.3l-2.23 1.46zm19.82-22.3c1.36-6.75.07-11.23-.83-16.05 1.38 4.26 2.9 8.4 2.65 14.05l-1.82 2zm-3.45 6.5c5.9-3.14 10.4-3 15.1-3.37-4.3-.27-8.55-.7-13.72 1.02l-1.38 2.35zm-19.08 19.82c5.91-3.13 10.4-3 15.1-3.37-4.3-.27-8.54-.7-13.72 1.03l-1.38 2.34z"/><use transform="rotate(15 310.01 758.36)" width="744.09" height="1052.36" xlink:href="#c"/><use transform="rotate(5 93.23 577.13)" id="c" width="744.09" height="1052.36" xlink:href="#d"/><use transform="rotate(-10 274.95 690.26)" width="744.09" height="1052.36" xlink:href="#e"/><use transform="rotate(10 225.44 653.89)" width="744.09" height="1052.36" xlink:href="#f"/></g><use transform="matrix(-1 0 0 1 840 .11)" width="1" height="1" xlink:href="#g"/></g><g stroke="#d4af37" stroke-width=".75"><path d="m409.24 237.56-19.76 24.61c6.55 6.24 10.26 16.67 10.27 25.15a75.49 75.49 0 0 1-3.87 24.66l-.07.2H450v-74.12c-11.94 7.41-28.33 10.36-40.76-.5z" fill="#007ea8"/><path d="M490.76 237.56c-12.43 10.86-28.83 7.91-40.76.5v74.13h54.19l-.07-.21a75.46 75.46 0 0 1-3.87-24.66c.01-8.48 3.73-18.91 10.27-25.15l-19.76-24.6z" fill="#fff"/><path d="M395.81 312.19c-2.95 9.17-6.66 17.15-7.81 30.41-1.7 19.59 14.05 30.3 20.55 33.38 10.04 4.73 20.52 3.1 31.25 4.46 4.98.64 7.77 3.8 10.2 6.37 2.43-2.58 5.21-5.73 10.2-6.37 10.73-1.37 21.21.27 31.25-4.46 6.5-3.07 22.26-13.8 20.55-33.38-1.16-13.26-4.86-21.24-7.81-30.41H395.8z" fill="#d91023"/></g><g stroke="#d4af37" stroke-width="3"><g transform="matrix(.119 0 0 .125 327.41 310.56)" fill="#00a854" stroke-width="6.16"><g id="j" stroke-width="3.08"><path d="M1074.73-201.4s5.85-20.37 17.93-29.3c12.09-8.95 25.22-5.68 33.2-8.86-5.32 6.75-5.92 20.26-17.93 29.3-12 9.04-33.2 8.86-33.2 8.86zm48.7-36.35c-8.33 2.22-13.52-.31-24.95 3.9m17.28 1.82c-8.33 2.22-14.11-1.33-25.33 3.39m16.13 3.48c-7.91 2.78-11.63-1.2-22.47 4.03m13.27 2.84c-7.91 2.78-9.57-1.71-17.5 4.3m9.32 1.8c-5.17 1.67-7.53-.16-12.14 5.08m46.4-30.64c-4.5 7.36-3.56 13.05-10.84 22.82m3.16-17.1c-4.5 7.36-2.74 13.92-10.45 23.33m1.25-16.46c-4.92 6.8-2.16 11.5-10.26 20.4m1.06-13.53c-4.92 6.8-1.08 9.66-9.1 15.55m.92-9.44c-3.07 4.48-1.98 7.26-8.32 10.18"/><path d="M1130.78-243.63s-13.54 10.03-24.16 18.03c-10.61 7.99-31.63 24-31.63 24s21.33-15.59 32.02-23.5c10.68-7.9 24.15-18.02 24.15-18.02M1108.12-317s16.75 12.98 20.58 27.52c3.82 14.53-4.07 25.52-4.07 34.1-4.3-7.43-16.63-13-20.58-27.5-3.96-14.5 4.07-34.11 4.07-34.11zm15.72 58.7c1.03-8.56 5.3-12.44 5.62-24.62m-8.1 15.38c1.03-8.56 6.47-12.62 6.24-24.79m-9.2 13.7c.34-8.38 5.42-10.36 4.57-22.36m-7.55 11.26c.35-8.38 5.14-8.25 2.49-17.83m-5.13 7.98c.37-5.42 2.95-6.94-.22-13.15m11.28 54.43c-5.17-6.9-10.8-8.13-17.18-18.51m14.7 9.27c-5.16-6.9-11.9-7.7-17.79-18.35m14.82 7.26c-4.49-7.09-9.87-6.26-15.14-17.08m12.17 5.98c-4.49-7.08-8.57-4.58-11.07-14.2m8.43 4.35c-3.03-4.51-6.02-4.53-6.38-11.5"/><path d="M1126.59-249.3s-4.31-16.28-7.8-29.1c-3.5-12.83-10.6-38.29-10.6-38.29s6.59 25.6 9.98 38.45a5074.41 5074.41 0 0 0 7.8 29.11"/><g id="h" stroke-width="3.08"><path d="M1206.42-261.85s16.75 12.98 20.58 27.51c3.83 14.54-4.07 25.52-4.07 34.12-4.3-7.45-16.62-13.01-20.58-27.51-3.95-14.5 4.07-34.12 4.07-34.12zm15.73 58.7c1.02-8.56 5.3-12.45 5.62-24.62m-8.1 15.38c1.03-8.56 6.47-12.62 6.24-24.79m-9.2 13.7c.34-8.39 5.41-10.37 4.57-22.37m-7.55 11.27c.34-8.38 5.13-8.25 2.48-17.83m-5.12 7.97c.36-5.41 2.94-6.93-.22-13.15m11.28 54.44c-5.17-6.9-10.81-8.13-17.18-18.51m14.7 9.27c-5.17-6.9-11.9-7.7-17.8-18.35m14.83 7.25c-4.49-7.08-9.88-6.26-15.14-17.07m12.17 5.98c-4.49-7.08-8.58-4.58-11.07-14.2m8.43 4.34c-3.03-4.5-6.02-4.53-6.39-11.5"/><path d="M1224.9-194.14s-4.32-16.3-7.8-29.12c-3.5-12.82-10.6-38.28-10.6-38.28s6.59 25.6 9.98 38.45c3.39 12.85 7.8 29.11 7.8 29.11m-53.78 57.26s2.86-21 13.54-31.58c10.67-10.58 24.13-9.23 31.57-13.53-4.3 7.44-2.95 20.9-13.53 31.58-10.58 10.67-31.58 13.53-31.58 13.53zm42.97-42.97c-7.93 3.4-13.43 1.64-24.13 7.44m17.37-.67c-7.93 3.39-14.17.71-24.59 6.99m16.47 1.13c-7.43 3.89-11.69.48-21.66 7.22m13.53.9c-7.43 3.89-9.71-.32-16.69 6.76m9.48.45c-4.88 2.4-7.48.92-11.28 6.77m41.5-36.99c-3.4 7.93-1.64 13.43-7.44 24.14m.67-17.37c-3.39 7.92-.7 14.16-6.99 24.58m-1.13-16.46c-3.88 7.43-.48 11.68-7.21 21.65m-.9-13.53c-3.9 7.43.31 9.72-6.77 16.69m-.45-9.47c-2.4 4.87-.92 7.47-6.77 11.27"/><path d="M1219.9-186.57s-11.95 11.88-21.32 21.32c-9.35 9.43-27.85 28.3-27.85 28.3s18.87-18.5 28.3-27.85a5074.41 5074.41 0 0 0 21.32-21.32"/></g><path d="M1057.07-278.59s20.57-5.12 34.35.88c13.78 6 17.51 19 24.26 24.32-8.5-1.24-20.5 5-34.34-.88-13.84-5.88-24.27-24.32-24.27-24.32zm55.83 24c-6.09-6.1-6.5-11.86-15.85-19.66m7.06 15.88c-6.1-6.1-5.91-12.89-15.6-20.24m5.05 15.7c-6.37-5.45-4.78-10.67-14.73-17.43m4.18 12.9c-6.37-5.46-3.3-9.14-12.47-13m3.09 8.97c-4.03-3.64-3.62-6.6-10.46-7.97m49.73 24.85c-8.62-.21-13.08 3.46-25.18 2.03m16.39-5.8c-8.62-.22-13.42 4.58-25.43 2.6m14.88-7.14c-8.35-.86-11.03 3.87-22.79 1.31m12.24-5.85c-8.34-.86-8.91 3.9-18.01-.1m8.63-3.93c-5.41-.42-7.28 1.92-12.98-2.1"/><path d="M1121.67-251.16s-15.46-6.7-27.7-11.9c-12.23-5.21-36.6-15.4-36.6-15.4s24.16 10.68 36.35 15.98c12.2 5.3 27.7 11.9 27.7 11.9m-49.14-133.33s14.69-15.27 29.55-17.53c14.86-2.26 24.94 6.76 33.49 7.68-7.86 3.48-14.71 15.15-29.55 17.53-14.84 2.39-33.49-7.68-33.49-7.68zm60.04-9.38c-8.4-1.93-11.8-6.6-23.88-8.21m14.43 9.69c-8.4-1.94-11.86-7.78-23.98-8.85m12.63 10.62c-8.3-1.24-9.72-6.5-21.75-6.93m10.4 8.7c-8.29-1.24-7.66-5.98-17.47-4.37m7.39 5.95c-5.35-.94-6.58-3.67-13.1-1.18m55.33-5.42c-7.41 4.4-9.24 9.88-20.24 15.1m10.79-13.62c-7.42 4.4-8.93 11.02-20.14 15.73m8.79-13.96c-7.52 3.7-7.28 9.15-18.6 13.24m7.25-11.47c-7.52 3.71-5.47 8.04-15.3 9.5m5.22-7.92c-4.8 2.52-5.15 5.5-12.11 5.12"/><path d="M1141.57-395.06s-16.66 2.55-29.78 4.65c-13.13 2.1-39.2 6.45-39.2 6.45s26.16-3.82 39.3-5.82c13.13-2 29.78-4.65 29.78-4.65m-39.54-60.47s19.99 7.04 28.2 19.64c8.2 12.59 4.16 25.5 6.87 33.66-6.42-5.72-19.88-7.12-28.2-19.64-8.3-12.52-6.87-33.66-6.87-33.66zm33.4 50.76c-1.72-8.45 1.11-13.48-2.41-25.14m-2.85 17.15c-1.72-8.45 2.16-14.01-1.88-25.49m-4.43 15.9c-2.3-8.07 1.89-11.54-2.7-22.67m-3.61 13.07c-2.31-8.06 2.27-9.45-3.26-17.71m-2.35 9.19c-1.36-5.26.61-7.51-4.35-12.42m27.84 48.13c-7.08-4.93-12.82-4.32-22.13-12.17m16.87 4.17c-7.08-4.92-13.72-3.56-22.66-11.82m16.35 2.23c-6.5-5.31-11.35-2.84-19.75-11.45m13.44 1.85c-6.5-5.3-9.58-1.65-14.98-10m9.37 1.48c-4.3-3.33-7.14-2.41-9.68-8.91"/><path d="M1140.97-396.45s-9.22-14.1-16.57-25.18-22.1-33-22.1-33 14.3 22.22 21.57 33.35a5079.77 5079.77 0 0 0 16.57 25.18"/><g id="i" stroke-width="3.08"><path d="M1213.67-401.8s16.75 12.98 20.58 27.51c3.83 14.54-4.07 25.52-4.07 34.12-4.3-7.45-16.63-13.01-20.58-27.51-3.95-14.5 4.07-34.12 4.07-34.12zm15.72 58.7c1.03-8.56 5.3-12.45 5.63-24.62m-8.1 15.38c1.02-8.56 6.46-12.62 6.24-24.79m-9.21 13.7c.34-8.38 5.42-10.36 4.57-22.36m-7.55 11.26c.35-8.38 5.14-8.25 2.49-17.84m-5.13 7.98c.37-5.41 2.95-6.93-.22-13.15m11.29 54.44c-5.17-6.9-10.82-8.13-17.18-18.51m14.7 9.27c-5.17-6.9-11.9-7.7-17.8-18.35m14.83 7.25c-4.5-7.08-9.88-6.26-15.15-17.07m12.17 5.98c-4.49-7.08-8.57-4.58-11.07-14.2m8.43 4.34c-3.02-4.5-6.02-4.53-6.38-11.5"/><path d="M1232.14-334.1s-4.31-16.28-7.8-29.1c-3.5-12.83-10.59-38.29-10.59-38.29s6.58 25.6 9.97 38.45a5074.41 5074.41 0 0 0 7.8 29.11m-64.41 39.03s8.2-19.55 21.25-27c13.05-7.47 25.7-2.68 34-4.9-6.07 6.07-8.26 19.42-21.24 27-12.98 7.56-34 4.9-34 4.9zm52.63-30.39c-8.54 1.23-13.4-1.9-25.24.94m16.95 3.84c-8.53 1.23-13.86-2.97-25.56.4m15.62 5.35c-8.19 1.83-11.41-2.56-22.79 1.36m12.84 4.38c-8.18 1.83-9.3-2.83-17.87 2.21m9.03 2.9c-5.33 1.04-7.46-1.06-12.64 3.6m49.66-24.98c-5.33 6.78-5.06 12.55-13.44 21.39m5.15-16.6c-5.33 6.77-4.35 13.49-13.12 21.93m3.18-16.2c-5.68 6.18-3.5 11.17-12.58 19.05m2.63-13.3c-5.68 6.17-2.2 9.47-10.85 14.37m2.01-9.27c-3.57 4.1-2.82 6.99-9.45 9.14"/><path d="M1227.73-330.27s-14.62 8.38-26.1 15.07c-11.49 6.7-34.24 20.13-34.24 20.13s23.02-12.98 34.55-19.58a5074.41 5074.41 0 0 0 26.1-15.07"/></g><path d="M1182.24-442s19.63-7.98 34.12-3.99c14.5 4 20.03 16.34 27.46 20.66-8.6-.03-19.6 7.84-34.13 3.98-14.52-3.87-27.45-20.66-27.45-20.66zm58.65 15.87c-6.89-5.18-8.1-10.83-18.47-17.23m9.23 14.73c-6.88-5.18-7.66-11.93-18.3-17.84m7.22 14.84c-7.07-4.5-6.24-9.9-17.04-15.19m5.95 12.19c-7.07-4.5-4.56-8.59-14.17-11.11m4.32 8.44c-4.5-3.03-4.51-6.03-11.48-6.41m52.74 17.58c-8.56 1-12.46 5.27-24.64 5.56m15.4-8.06c-8.56 1-12.63 6.43-24.8 6.17m13.72-9.17c-8.38.32-10.38 5.4-22.37 4.52m11.28-7.52c-8.38.32-8.27 5.11-17.84 2.44m8-5.1c-5.43.34-6.95 2.92-13.16-.26"/><path d="M1250.06-423.98s-16.26-4.45-29.1-7.87c-12.84-3.43-38.42-10.07-38.42-10.07s25.44 7.16 38.26 10.68a5074.41 5074.41 0 0 0 29.09 7.88m-34.76-73.78s19.52 8.25 26.95 21.32c7.42 13.07 2.6 25.7 4.8 34.01-6.05-6.09-19.4-8.3-26.94-21.31-7.53-13-4.8-34.02-4.8-34.02zm30.25 52.7c-1.2-8.53 1.93-13.38-.88-25.23m-3.88 16.94c-1.2-8.54 3.01-13.86-.33-25.56m-5.39 15.6c-1.81-8.2 2.59-11.4-1.3-22.79m-4.41 12.83c-1.82-8.2 2.84-9.3-2.17-17.88m-2.91 9.02c-1.04-5.33 1.07-7.45-3.59-12.65m24.86 49.73c-6.76-5.35-12.53-5.1-21.35-13.5m16.59 5.2c-6.77-5.35-13.49-4.4-21.9-13.18m16.18 3.22c-6.15-5.7-11.15-3.52-19.01-12.63m13.3 2.67c-6.16-5.7-9.47-2.24-14.35-10.9m9.27 2.04c-4.08-3.58-6.98-2.83-9.12-9.48"/><path d="M1250.34-436.43s-8.34-14.64-15-26.14-20.05-34.3-20.05-34.3 12.92 23.06 19.5 34.61c6.56 11.56 15 26.15 15 26.15"/><use transform="translate(-32 -18)" width="744.09" height="1052.36" xlink:href="#h"/><path d="M1142.42-297.85s16.75 12.98 20.58 27.51c3.83 14.54-4.07 25.52-4.07 34.12-4.3-7.45-16.62-13.01-20.58-27.51-3.95-14.5 4.07-34.12 4.07-34.12zm15.73 58.7c1.02-8.56 5.3-12.45 5.62-24.62m-8.1 15.38c1.03-8.56 6.47-12.62 6.24-24.79m-9.2 13.7c.34-8.38 5.41-10.36 4.57-22.36m-7.55 11.26c.34-8.38 5.13-8.25 2.48-17.84m-5.12 7.98c.36-5.41 2.94-6.93-.22-13.15m11.28 54.44c-5.17-6.9-10.81-8.13-17.18-18.51m14.7 9.27c-5.17-6.9-11.9-7.7-17.8-18.35m14.83 7.25c-4.49-7.08-9.88-6.26-15.14-17.07m12.17 5.98c-4.49-7.08-8.58-4.58-11.07-14.2m8.43 4.34c-3.03-4.5-6.02-4.53-6.39-11.5"/><path d="M1160.9-230.14s-4.32-16.3-7.8-29.12c-3.5-12.82-10.6-38.28-10.6-38.28s6.59 25.6 9.98 38.45c3.39 12.85 7.8 29.11 7.8 29.11m-53.78 57.26s2.86-21 13.54-31.58c10.67-10.58 24.13-9.23 31.57-13.53-4.3 7.44-2.95 20.9-13.53 31.58-10.58 10.67-31.58 13.53-31.58 13.53zm42.97-42.97c-7.93 3.4-13.43 1.64-24.13 7.44m17.37-.67c-7.93 3.39-14.17.71-24.59 6.99m16.47 1.13c-7.43 3.89-11.69.48-21.66 7.22m13.53.9c-7.43 3.89-9.71-.32-16.69 6.76m9.48.45c-4.88 2.4-7.48.92-11.28 6.77m41.5-36.99c-3.4 7.93-1.64 13.43-7.44 24.14m.67-17.37c-3.39 7.92-.7 14.16-6.99 24.58m-1.13-16.46c-3.88 7.43-.48 11.68-7.21 21.65m-.9-13.53c-3.9 7.43.31 9.72-6.77 16.69m-.45-9.47c-2.4 4.87-.92 7.47-6.77 11.27"/><path d="M1155.9-222.57s-11.95 11.88-21.32 21.32c-9.35 9.43-27.85 28.3-27.85 28.3s18.87-18.5 28.3-27.85a5074.41 5074.41 0 0 0 21.32-21.32"/><use transform="translate(-62 -40)" width="744.09" height="1052.36" xlink:href="#i"/><use transform="translate(-31 -20)" width="744.09" height="1052.36" xlink:href="#i"/></g><use transform="matrix(-1 0 0 1 2501 0)" width="744.09" height="1052.36" xlink:href="#j"/><path d="M1250.5-437.13c-8.62 41.67-8.6 79.16-8.6 79.16-.5 13.95-7.4 23.68-13.78 20-54.88-31.69-60.29-37.57-89.12-59.67 24.3 26.46 31.23 38.23 86.72 70.27 10.73 6.2 12.06 16.38 11.62 29.47l-1.68 61.71c-.3 9.04 5.74 50.09-22.57 34.22-65.37-36.64-63.77-33.58-95.09-51.67 38.07 32.33 24.37 23.47 90.6 61.7 11.94 6.9 24.53 24.5 24.53 32.85 0 124.33 1.86 101.48-12.82 139.1h60.38c-14.68-37.62-12.82-14.77-12.82-139.1 0-8.35 12.6-25.95 24.54-32.85 66.22-38.23 51.52-29.37 89.59-61.7-31.32 18.09-28.72 15.03-94.1 51.67-28.3 15.87-22.25-25.18-22.56-34.22l-1.68-61.71c-.44-13.1.9-23.28 11.62-29.47 55.49-32.04 62.41-43.8 86.72-70.27-28.83 22.1-34.24 27.98-89.13 59.67-6.37 3.68-13.27-6.05-13.78-20 0 0 .03-37.49-8.59-79.15z" fill="#947245"/></g><g stroke-width="2.73"><path d="M264.45 424.64c-.25.94 1.5 12.37.55 15.66-.51 4.54-.64 5.24-1.7 11.12-1.08 5.88-2.37 17.3-4.4 24.16-.17.58-.4 1.36-.45 2.04-.57 3.5-.58 5.98-.21 10.35l3.51 19.42s1.64 1.92 1.88 2.72c.25.8-.17 2 0 2.25.92 1.36 1.07 2.7 2.17 3.85.18.18.92.1 1.12.35.17.22 1.49.3 1.74.47.79.74.65 1.28 1.05 2.4l-6.32.03a4.16 4.16 0 0 0-2.06-3.94c-.24-.3-2.82-1.02-3.12-2.68-.41-2.4-.07-2.87-.07-2.87s-2.11-9.06-3-11.33c-.5-1.76-.6-2.6-.85-4.13-.76-4.24-1.01-6.07-3.32-12.4-.54-1.1-1.98-1.46-1.87-2.9.16-.56.43-.98.7-1.46l.08-1.11c.33-5.19.62-10.39 1.05-15.55a1.85 1.85 0 0 0 .24-.74c.6-8.8-4.08-17.02-7.1-24.9-.55-1.43-.08-3-.7-4.42-3.21-1.1-5.41-6.48-6.56-9.86-1.12-3.3-1.62-8.28-.76-11.58.27-1.08.43-1.82.96-2.53m63.31 36.69a8.33 8.33 0 0 1 2.51-.31s.74 1.02.96 1.5c1.53 2.75 3.37 15.34 4.44 21.19.33 1.81 1.09 5.94 1.43 7.87 0 0-.38 2.06.29 4.34.2.7.42 1.39.6 2.09.81 3.06 1.72 3.8 1.72 3.8.22.74 1.47 6.76 1.68 7.5 1.85 8.23 2.75 13.2 2.63 16.64-.12 4.72-.1 4.26.28 4.64 1.04 1.07 1.57.41 3.79 6.09.13.45.26-.22.5.23.29.54.78.48 1.18.53.73.1.6.23 1.18.31a6.25 6.25 0 0 0 1.58.01l5.46.04a5.38 5.38 0 0 0-4.82-3.38c-.86-.53-1.85-1.29-2.16-2.3-1.25-2-1.6-2.42-2.26-3.33.1-.72-.41-1.69-.64-2.47l-1.96-23.23s.4-2.33.37-4.74c-.16-12.77.58-25.62 1.05-38.44.16-1.07 4.04-4.7 4.04-4.7" fill="#e3e4e5" stroke-linecap="square" transform="matrix(.27413 0 0 .2759 340.81 162.13)"/><path d="M356.76 323.79a7.33 7.33 0 0 0-5.44 2.5c-1.8 2.47-2.97 7.56-3.1 10.62-.04.81.3 1.43.04 2.15a83.33 83.33 0 0 0-1.64 4.95c-.76 4.32-.91 19.8-2 25.73-1.1 5.94-6.1 14.56-7.97 17.35-1.22 1.36-3.75 2.06-4.53 2.23-.78.18-7.2-.48-7.2-.48-8.47-.6-21.06-5.27-29.5-6.4-8.46-1.15-18.68-.6-26.63-1.45 0 0-9.95-3.68-19.12-1.02-9.03 2.63-14.11 7.48-21.96 19.55 0 0-3.37 4.11-3.4 5.46-.14 4.44 1.77 10.02 5.2 12.84 1.1 1.07.8.11.71-.17l.03.05c.3.66.66 2.4 1.1 3a43.7 43.7 0 0 1 3.3 5.2c.79 1.49.38 3.25 1.08 4.75 3.85 8.3 2.06 16.83 2.03 26.5a2.07 2.07 0 0 1-.21.83c-.1 5.68-5.65 13.28-5.65 18.98v1.22c-.27.55-.54 1.04-.66 1.66-.03 1.6-2.17 1.84-1.5 2.98 2.96 6.69 3.37 8.67 4.5 13.22.37 1.66.54 2.56 1.22 4.43 1.12 2.39 4.06 12.08 4.06 12.08s-.34.55.28 3.12c.44 1.8 3.3 2.31 3.59 2.63 0 0 2.66 1.63 2.68 4.73 0 .4 2.52.22 2.86.22 1.02 0 2-.15 3.02-.15-.13-1.3-.45-2.06-1.36-2.8-.29-.15-1.46-.53-1.66-.75-.23-.25-.42-.77-.62-.95-1.29-1.14-1.54-2.59-2.65-3.98-.2-.25.18-1.6-.15-2.46-.32-.86-2.24-2.79-2.24-2.79l-5.2-20.86c-.71-4.73 2.87-7.44 3.24-11.32 0-.75 4.58-12.16 4.8-12.78 3.33-8.9 8.8-22.84 8.69-28.71-.13-6.58-.26 1.27.34-3.71.45-3.75-1.76-13.77-1.55-14.83 12.43 20.75 24.52 28.25 44.46 26.27 1.08-.1 1.5-.12 2.58.03 0 0 .44 1.08.51 1.58.72 2.86-1.1 15.3-1.74 21.12-.2 1.8-.63 5.9-.85 7.8 0 0-.98 1.96-.98 4.26 0 .7.02 1.4 0 2.1-.09 3.07.6 3.92.6 3.92 0 .73-.5 6.73-.5 7.47-.56 8.23-1.15 12.1-2.27 15.43-.2.59-.7 1.44-1.3 1.6-.57.43-1.53 1.33-1.63 2.11 0 .67.06 1.28.2 1.88.1.45.57 1.18.82 1.55.38 1.77.2 3.61.2 5.42 0 .46.2 1.19.31 1.65.13.56.64.57 1.02.67.7.19.45.62 1.02.78.46.12 1 .1 1.53.1l5.4.03c-.08-2.02-2.06-3.06-3.42-4.02-.7-.63-.64-.77-.65-1.79 0-1.29-.14-2.73-.14-4.02 0-.7.3-.97.56-1.54.32-.69.08-1.7.08-2.48 1-6.87 2.17-13.92 4-20.61 1.46-1.9 2.1-4.32 2.54-6.71 0 0 1.18-3.2.78-4.9l4.96-30.14a3.9 3.9 0 0 1 2.38-2.23c6.19-2.72 12.3-4.57 18.12-8.62 6.3-4.38 10.09-11.54 14.58-17.98.99-1.92 2.14-3.59 3.26-5.37 3.86-5.54 8.7-20.03 10-27.22 1.53-8.49.92-16.88 3.38-26.94.53-2.16 2.36-3.88 2.78-6.12l-.04-.4 1.23-.17c1.32-.15 2.94-.42 3.87-.44.98-.12 2.99-.1 3.16-.1.18 0 1.23.21 1.84.21.51 0 1.35.55 1.86.55.55 0 .95-.1 1.3-.55.66-.82.73-.56.9-1.3.05-.24.31.01.44-.03.47-.17.84-.78 1.4-.93.38-.1.67-.24.74-.62.09-.48.1-1 .1-1.55 0-.79-.04-.83-.61-.99-.07-.02-.14-.08-.2-.11-.6-.16.1-1.33.1-2a3.8 3.8 0 0 0-.2-1.54 2.4 2.4 0 0 0-.83-1.1c-.35-.3-.54-.68-.92-.89-2.8-2.42-4.04-4.22-6.01-6.09.33-.4.27-.61.15-1.3-.9-2.72-2.64-3.23-5.56-5.44-2.74-1.58-6.31-3.3-10.1-3.65h-1.64a6.64 6.64 0 0 0-.4-.01z" fill="#fff" stroke-linecap="square" transform="matrix(.27413 0 0 .2759 340.81 162.13)"/><path d="M438.62 251.46a2 2 0 0 0-1.5.69 6.56 6.56 0 0 0-.85 2.93c0 .22.09.4.02.6-.24.67-.44 1.26-.45 1.36-.21 1.19-.25 5.46-.55 7.1a15.35 15.35 0 0 1-2.19 4.78c-.3.41-1.03.57-1.24.62-.21.05-1.97-.13-1.97-.13-2.32-.17-5.78-1.46-8.1-1.77-2.3-.32-5.1-.17-7.3-.4 0 0-2.72-1.01-5.23-.28-2.48.72-3.87 2.06-6.02 5.4 0 0-.92 1.13-.93 1.5-.04 1.2.46 2.7 1.37 3.5l.31.2c.04-1.93.35-2.85.35-2.85a8 8 0 0 0 .47 2.8c.2.6.7 1.14 1.02 1.7.48 1.31.85 5.16 1.1 6.76.12.83-.5 3.6-.91 4.85-.8 2.42-1.15 4.6-.21 2.96.42-.73 2.02-3.8 2.84-6.64.82-2.85 1.62-4.5 1.37-5.08-.08-.19-.31-4.14-.36-4.3a2.36 2.36 0 0 1-.07-.24c-.03-.09-.08-.16-.02-.48l.39-2.02c4.02 7.53 10.44 8.46 14.79 3.2a21.4 21.4 0 0 0-.6 6.55c.07 1.3.06.75.04 1.2l-.77 7.19-.07.14s-.18.4-.18.77v.6c0 .34 0 .53.04.58l.13.15c0 .26 0 .51-.03.77l-.02.3.1-.12c.27-.34.42-.86.53-1.47l.01-.08a4.05 4.05 0 0 0 .14-.47c.06-.23.07-.43.07-.43l-.04-.17.03-.19 1.36-8.31a.77.77 0 0 1 .07-.24c.26-.36.84-.77 1.06-1.02.22-.25 1.02-3.62.9-5.72-.28-4.82 6.05-6.18 8.17-3.8a6.38 6.38 0 0 0 2.03-1.8c.54-.72.98-1.55 1.36-2.45l.16-.55a17.6 17.6 0 0 0 .5-2.98l.14-1.8c.05-.6.1-1.22.19-1.87a20.74 20.74 0 0 1 .37-2c.03-.15.1-.29.16-.43l.23-.4c.08-.14.16-.28.22-.42.07-.14.12-.28.15-.44l-.01-.11.21-.03v-.02c-1.02.21-.56.05-1.55.18a1.9 1.9 0 0 1-.77-.12c-.5-.35-.92-.81-1.14-1.42 0-.68.22-1.97.4-2.32.63-1.16 1.13-.28 2.36.06 1.16.32 2.9 1.23 3.56 1.87.08.07.96.11 1.05.06.07-.03.14-.02.2-.04l.02-.06v-.05c.03-.1.08-.23.08-.32a2.39 2.39 0 0 0-.01-.24.65.65 0 0 0-.05-.2 1.03 1.03 0 0 0-.06-.12.64.64 0 0 0-.16-.18c-.1-.08-.15-.18-.25-.24-.77-.67-1.11-1.17-1.65-1.68.09-.11.07-.17.04-.36-.25-.75-.72-.9-1.53-1.5a7.02 7.02 0 0 0-2.76-1.01h-.45a1.83 1.83 0 0 0-.11 0z" fill="#d18219" stroke="none"/><path d="M356.76 323.79a7.33 7.33 0 0 0-5.44 2.5c-1.8 2.47-2.97 7.56-3.1 10.62-.04.81.3 1.43.04 2.15a83.33 83.33 0 0 0-1.64 4.95c-.76 4.32-.91 19.8-2 25.73-1.1 5.94-6.1 14.56-7.97 17.35-1.22 1.36-3.75 2.06-4.53 2.23-.78.18-7.2-.48-7.2-.48-8.47-.6-21.06-5.27-29.5-6.4-8.46-1.15-18.68-.6-26.63-1.45 0 0-9.95-3.68-19.12-1.02-9.03 2.63-14.11 7.48-21.96 19.55 0 0-3.37 4.11-3.4 5.46-.14 4.44 1.77 10.02 5.2 12.84 1.1 1.07.8.11.71-.17l.03.05c.3.66.66 2.4 1.1 3a43.7 43.7 0 0 1 3.3 5.2c.79 1.49.38 3.25 1.08 4.75 3.85 8.3 2.06 16.83 2.03 26.5a2.07 2.07 0 0 1-.21.83c-.1 5.68-5.65 13.28-5.65 18.98v1.22c-.27.55-.54 1.04-.66 1.66-.03 1.6-2.17 1.84-1.5 2.98 2.96 6.69 3.37 8.67 4.5 13.22.37 1.66.54 2.56 1.22 4.43 1.12 2.39 4.06 12.08 4.06 12.08s-.34.55.28 3.12c.44 1.8 3.3 2.31 3.59 2.63 0 0 2.66 1.63 2.68 4.73 0 .4 2.52.22 2.86.22 1.02 0 2-.15 3.02-.15-.13-1.3-.45-2.06-1.36-2.8-.29-.15-1.46-.53-1.66-.75-.23-.25-.42-.77-.62-.95-1.29-1.14-1.54-2.59-2.65-3.98-.2-.25.18-1.6-.15-2.46-.32-.86-2.24-2.79-2.24-2.79l-5.2-20.86c-.71-4.73 2.87-7.44 3.24-11.32 0-.75 4.58-12.16 4.8-12.78 3.33-8.9 8.8-22.84 8.69-28.71-.13-6.58-.26 1.27.34-3.71.45-3.75-1.76-13.77-1.55-14.83 12.43 20.75 24.52 28.25 44.46 26.27 1.08-.1 1.5-.12 2.58.03 0 0 .44 1.08.51 1.58.72 2.86-1.1 15.3-1.74 21.12-.2 1.8-.63 5.9-.85 7.8 0 0-.98 1.96-.98 4.26 0 .7.02 1.4 0 2.1-.09 3.07.6 3.92.6 3.92 0 .73-.5 6.73-.5 7.47-.56 8.23-1.15 12.1-2.27 15.43-.2.59-.7 1.44-1.3 1.6-.57.43-1.53 1.33-1.63 2.11 0 .67.06 1.28.2 1.88.1.45.57 1.18.82 1.55.38 1.77.2 3.61.2 5.42 0 .46.2 1.19.31 1.65.13.56.64.57 1.02.67.7.19.45.62 1.02.78.46.12 1 .1 1.53.1l5.4.03c-.08-2.02-2.06-3.06-3.42-4.02-.7-.63-.64-.77-.65-1.79 0-1.29-.14-2.73-.14-4.02 0-.7.3-.97.56-1.54.32-.69.08-1.7.08-2.48 1-6.87 2.17-13.92 4-20.61 1.46-1.9 2.1-4.32 2.54-6.71 0 0 1.18-3.2.78-4.9l4.96-30.14a3.9 3.9 0 0 1 2.38-2.23c6.19-2.72 12.3-4.57 18.12-8.62 6.3-4.38 10.09-11.54 14.58-17.98.99-1.92 2.14-3.59 3.26-5.37 3.86-5.54 8.7-20.03 10-27.22 1.53-8.49.92-16.88 3.38-26.94.53-2.16 2.36-3.88 2.78-6.12l-.04-.4 1.23-.17c1.32-.15 2.94-.42 3.87-.44.98-.12 2.99-.1 3.16-.1.18 0 1.23.21 1.84.21.51 0 1.35.55 1.86.55.55 0 .95-.1 1.3-.55.66-.82.73-.56.9-1.3.05-.24.31.01.44-.03.47-.17.84-.78 1.4-.93.38-.1.67-.24.74-.62.09-.48.1-1 .1-1.55 0-.79-.04-.83-.61-.99-.07-.02-.14-.08-.2-.11-.6-.16.1-1.33.1-2a3.8 3.8 0 0 0-.2-1.54 2.4 2.4 0 0 0-.83-1.1c-.35-.3-.54-.68-.92-.89-2.8-2.42-4.04-4.22-6.01-6.09.33-.4.27-.61.15-1.3-.9-2.72-2.64-3.23-5.56-5.44-2.74-1.58-6.31-3.3-10.1-3.65h-1.64a6.64 6.64 0 0 0-.4-.01z" fill="none" stroke-linecap="square" transform="matrix(.27413 0 0 .2759 340.81 162.13)"/><path d="M382.26 343.82c0 .33-.16.8-.26 1.19-.02.06-.01.1-.02.16.08-.4.3-.83.3-1.22l-.01-.13z" fill="#d39044" stroke-linecap="square" transform="matrix(.27413 0 0 .2759 340.81 162.13)"/><path d="M334.95 432.87c-2.06 8.33-7.18 10.02-3.42 17.09 0 0-1.62-.12-2.6-2.84-.48-1.36-.8-3.37-.69-6.34.06-1.49.23-3.21.54-5.22.16-1 .36-2.08.6-3.22" fill="#fff" fill-rule="evenodd" transform="matrix(.27413 0 0 .2759 340.81 162.13)"/><path d="M338.75 429.43c-2.06 8.33-7.19 10.02-3.42 17.09 0 0-2.03-.03-3-2.75a19.05 19.05 0 0 1-.86-5.38 28.2 28.2 0 0 1 .79-5.92c.33-1.24 1.23-3.3 1.23-3.3" fill="#fff" fill-rule="evenodd" transform="matrix(.27413 0 0 .2759 340.81 162.13)"/><path d="M345.77 418.39c-2.93 5.5-5.3 10.21-6.52 14.3-1.22 4.09-2 6.27.31 10.6 0 0-1.56-.82-3.62-4.63-.65-1.2-1.1-3.87-.8-6.6a30.55 30.55 0 0 1 .78-4.39c.2-.8.47-1.66.8-2.58" fill="#fff" fill-rule="evenodd" transform="matrix(.27413 0 0 .2759 340.81 162.13)"/><path d="M348.5 414.88c-1.82 2.8-2.4 5.47-3.41 7.74-2.02 4.53-3.09 7.94-3.09 10.44 0 2.03-.35 3.7 1.9 7.15 0 0-1.05-.12-1.74-.54a6.15 6.15 0 0 1-2.27-2.62c-.71-1.43-1.26-3.5-1.3-6.53-.03-1.5.47-3.74.88-5.21a48.2 48.2 0 0 1 1.81-4.55" fill="#fff" fill-rule="evenodd" transform="matrix(.27413 0 0 .2759 340.81 162.13)"/><path d="M353.27 334.54c.12-.24-11.57-3.64-13.24-13.86 2.27-2.15 14.25 5.7 14.44 12.99" fill="#d18219" fill-rule="evenodd" stroke-width="1.36" transform="matrix(.27413 0 0 .2759 340.81 162.13)"/><path d="M340.42 320.82c.1.21 6.27.19 11.14 10.6-1.1-1.24-6.04 1.68-11.1-10.2" fill-opacity=".5" fill-rule="evenodd" stroke-width="1.36" transform="matrix(.27413 0 0 .2759 340.81 162.13)"/><path d="M368.7 335.55c.17-.14.4-.46.13-.75-5.1-3.2-4.86.7-8.44.7 1.7 0 1.7.24 2.34.93 2.32 2.51 3.92 2.26 5.98-.18" fill-rule="evenodd" stroke-width="1.36" transform="matrix(.27413 0 0 .2759 340.81 162.13)"/><path d="M381.2 349.76c-.57.67-2.55-.79-4-.96" fill="none" stroke-linecap="square" transform="matrix(.27413 0 0 .2759 340.81 162.13)"/><path d="M382.33 345.92s-.54-.44-4.32-.93c0 .07 2.6-2.67 2.83.3" fill-rule="evenodd" stroke-linecap="square" transform="matrix(.27413 0 0 .2759 340.81 162.13)"/><path d="M302.66 436.88a33.59 33.59 0 0 0-.91 1.81c-1.07 2.35-1.41 4.54.47 8.07 0 0-1.62-.11-2.59-2.83-.49-1.36-.81-3.37-.7-6.35.03-.74.09-1.54.18-2.41" fill="#fff" fill-rule="evenodd" transform="matrix(.27413 0 0 .2759 340.81 162.13)"/><path d="M230.7 419.1s-1.54-6.15 2.1-13" fill="none" transform="matrix(.27413 0 0 .2759 340.81 162.13)"/></g><g fill="#e7ca00" stroke-width="2.29"><path d="M401.42 879.46c-2.05-1.52-4.03-6.25-3.27-8.84-2.7-2.22-9.66 2.18-6.28 8.58 3.35 6.4 7.99 5.85 9.57.27l-.02-.01zm19.1 6c.56-3.6-.69-9.66-6.93-10.74-6.24-1.07-8.16 4.55-6.96 10.32 4.5-3.4 11.62-1.68 13.89.43z" transform="matrix(.02666 -.34238 .30978 .02947 204.1 441.76)"/><path d="M407.42 882.05c1.06-4.78 5.83-6.08 10.57-5.6-2.96-3.37-6.05-8.82-10.27-5.64-3.32 2.5-5.62 6.15-.3 11.22v.02z" transform="matrix(.02666 -.34238 .30978 .02947 204.1 441.76)"/><path d="M404.77 879.34c.56-3.6 2.02-8.45 5.93-10.43-3.37-3.05-11.69-2.13-12.3 4.1-.63 6.23 3.04 7.5 6.38 6.3v.03zm-15.88 40.03c5.28.85 12.28-1.8 10.3-13.7-1.87-11.3-10.19-14.04-10.81-11.35 4.77 1.67 4.15 17.65.47 25.1l.04-.04z" transform="matrix(.02666 -.34238 .30978 .02947 204.1 441.76)"/><path d="M396.76 918.12c5.3.95 13.71-2.13 9.91-13.82-3.7-11.46-12.22-10.05-12.8-7.16 4.77 1.84 6.5 13.04 2.87 21l.03-.02z" transform="matrix(.02666 -.34238 .30978 .02947 204.1 441.76)"/><path d="M376.73 918.17c3.86 3.45 13.82 4.69 17.01-6.83 3.01-10.9.28-14.41-3.62-16.18 1.95 5.67-5.07 21.66-13.4 22.99v.02zm25.42-.97c3.26-1.82 10.61-5.08 5.8-16.07-3.93-8.97-10.08-5.15-11.75-3.6 4.31 1.8 8.14 11.49 5.95 19.67z" transform="matrix(.02666 -.34238 .30978 .02947 204.1 441.76)"/><path d="M409.22 914.63c3.05-2.06 10.72-7.1 4.57-17.83-6.09-10.54-14.2-3.54-14.21-.65 3.56.89 9.64 9.96 9.67 18.46l-.03.02z" transform="matrix(.02666 -.34238 .30978 .02947 204.1 441.76)"/><path d="M416.72 907.26c2.01-2.8 7.17-9.72-.7-16.79a6.72 6.72 0 0 0-12.05 4.29c3.2-.45 10.6 5.25 12.77 12.52l-.02-.02z" transform="matrix(.02666 -.34238 .30978 .02947 204.1 441.76)"/><path d="M421.18 896.28c.56-3.62 2.04-12.63-7.04-14.7-8.9-2.04-9.57 8.6-8.07 10.42 2.4-2.18 10.56-1.08 15.1 4.28zm-50.29 18.64c3.38 4.15 13.41 7.07 18.66-4.14 4.96-10.67 2.77-14.71-.95-17.15 1.01 6.12-8.91 21.32-17.72 21.32l.01-.03z" transform="matrix(.02666 -.34238 .30978 .02947 204.1 441.76)"/><path d="M360.85 906.7c3.22 6.56 19.29 14.06 25.52 1.92 5.92-11.5 1.01-22.08-3.9-26.14 2.33 11.77-12.11 29.74-21.63 24.19v.03z" transform="matrix(.02666 -.34238 .30978 .02947 204.1 441.76)"/><path d="M352.37 898.4c7.86 17.16 24.13 14.15 29.64 1.7 5.23-11.83 3.75-18.76-2.18-24.43-4.1 15.2-12.2 23.74-27.49 22.7l.03.03z" transform="matrix(.02666 -.34238 .30978 .02947 204.1 441.76)"/><path d="M341.92 884.06c5.96 21.48 27.14 18.88 36.13 6.54 6.36-8.7 4.12-15.14.9-18.94-6.95 8.22-18.97 15.54-37.06 12.37l.03.03z" transform="matrix(.02666 -.34238 .30978 .02947 204.1 441.76)"/><path d="M337.98 870.93c.63 21.92 26.07 24.33 37.37 11.8 7.99-8.85 7.37-15.43 5.23-19.31-8.43 8.34-25.24 18.38-42.63 7.49l.03.02z" transform="matrix(.02666 -.34238 .30978 .02947 204.1 441.76)"/><path d="M332.7 850.2c-3.87 28.35 29.13 37.62 43.47 20.7 7.7-9.08 7.33-15.44 5.2-19.32-14.3 10.02-39.16 11.19-48.69-1.37h.02z" transform="matrix(.02666 -.34238 .30978 .02947 204.1 441.76)"/><path d="M329.46 823.53c-9.49 30.63 19.29 41.58 38.05 38.53 14.85-2.4 23.2-19.89 21.1-23.74-18.56 13.09-55.38 1.82-59.17-14.76l.02-.03z" transform="matrix(.02666 -.34238 .30978 .02947 204.1 441.76)"/><path d="M329.06 799.67c-12.68 29.9 15.36 47.45 38.58 45.69 15.22-1.15 27.76-7.06 27.2-19.55-22.74 8.01-58.21-5.43-65.8-26.14h.02z" transform="matrix(.02666 -.34238 .30978 .02947 204.1 441.76)"/><path d="M329.97 774.93c-12.7 30.58 14.74 55.71 43.46 56.34 14.65.32 21.34-3.6 27.2-13.3-20.73 3.53-64.9-27.94-70.66-43.04z" transform="matrix(.02666 -.34238 .30978 .02947 204.1 441.76)"/><path d="M329.57 765.27c-11.33 35.93 80.31 80.43 85 33.7-21.92 11.49-81.76-20.66-85-33.7z" transform="matrix(.02666 -.34238 .30978 .02947 204.1 441.76)"/><path d="M327.52 755.6c-15.38 19.76 93.06 78.17 95.5 28.37-9.75 5-29.86.68-49.26-8.1-19.38-8.8-33.15-22.86-46.23-20.24v-.02z" transform="matrix(.02666 -.34238 .30978 .02947 204.1 441.76)"/><path d="M310.96 751.12c19.62.48 61.38 30.94 89.3 36.03 17.88 3.25 32.46-4.2 24.15-35.54-28.49 29.11-82.92-17.83-111.77-6.77-2.97-1.4.62 8.35-1.65 6.28h-.03z" transform="matrix(.02666 -.34238 .30978 .02947 204.1 441.76)"/><path d="M314.74 755.54c19-11.8 58.33 10.08 86.15 11.27 17.08.7 38.39-18.62 24.4-47.05-21.87 37.6-82.88 7.5-108.6 27.33-1.92 4.3-.85 10-1.98 8.43l.03.02z" transform="matrix(.02666 -.34238 .30978 .02947 204.1 441.76)"/><path d="M307.1 756.76c20.24-14.78 61.57-6.2 88.05-8.34 17.58-1.45 43.75-32.01 19.8-57.48-14.85 53.84-64.47 27.23-107.26 58.26-2.12 5.47.8 8.86-.59 7.53v.03z" transform="matrix(.02666 -.34238 .30978 .02947 204.1 441.76)"/><path d="M314.38 751.97c16.67-15.72 57.6-14.67 81.94-27.07 16.32-8.3 32.87-43.65 4.38-61.42-2.96 56.7-55.18 38.96-87.45 80.94-.78 6 2.73 8.47 1.11 7.55h.03z" transform="matrix(.02666 -.34238 .30978 .02947 204.1 441.76)"/><path d="M316.13 744.46c12.34-22.09 50.3-27.6 70.82-45.99 18.35-16.44 23.31-46.36-7.63-55.9-2.63 59.18-43.85 46.68-60.74 82.26-3.21 7.8-1.53 20.48-2.45 19.66v-.03z" transform="matrix(.02666 -.34238 .30978 .02947 204.1 441.76)"/><path d="M325.5 721.91c12.66-20.09 22.17-13.18 42.36-33.82 17.38-17.77 22.62-60.36-7.8-61.34 4.55 51.45-15.24 52-29.13 79.62.5 6.14-3.66 15.96-5.4 15.54h-.03z" transform="matrix(.02666 -.34238 .30978 .02947 204.1 441.76)"/><g stroke-width="3.04"><path d="m310.42 602.66-10.5 5.67L250 762.1l18.14 40.07 17.14 2.48 20.7-1.52 30.75-138.48 8.66-56.42-21.06-12.4-13.9 6.84z" fill-rule="evenodd" transform="matrix(.01816 -.28057 .21499 .02864 268.01 416.63)"/><path d="M309.26 597.47c.42 2.04.86 4.1 1.3 6.14 9.83-6.84 20.43-.17 23.34 15.64 2.9 15.8-3.03 38.86-13.67 56.63-6.68 14.63-14.64 32.23-16.98 56.25-1.83 18.77 1.85 41.71-2.29 62.6-2.52 10-7.85 9.09-18.2 8.45 4.17 6.83 9.34 10.58 16.04 10.36 14.42-3.2 24.74-16.16 28.5-44.84-4.29-23.95-3.2-47.94 9.85-72.08 11.63-11.99 22.33-25.54 26.26-49.99 1.89-12.14-.47-25.2-9.61-39.04-11.48-17.36-20.81-18-29.61-16.44-4.97 2.07-9.94 4.22-14.93 6.32z" transform="matrix(.01816 -.28057 .21499 .02864 268.01 416.63)"/></g><path d="M-325.66 629.66c0-3.08 2.01-5.59 4.5-5.59 2.47 0 4.48 2.5 4.48 5.6h-8.98z" transform="matrix(1.42023 .479 .59921 -1.38227 519.31 1387.44)" fill-rule="evenodd" stroke-width=".5"/><path d="M295.5 723.04c-3.8 7.23-11.3 10.6-16.73 7.42-5.4-3.16-6.68-11.68-2.92-18.97 3.8-7.26 11.3-10.59 16.73-7.42 5.4 3.16 6.69 11.69 2.92 18.97zm-18.94-81.97c-2.6-3.58-6.33-5.81-10.32-5.1-2.38.41-4.72 1.87-6.67 3.93-.08-.34-.16-.67-.2-1.01-1.4-7.71 4.79-16.77 11.4-17.96 2.95-.5 5.78.56 8.1 2.67a15.2 15.2 0 0 0-1.25 8.8 15.22 15.22 0 0 0 1.07 3.6 18.32 18.32 0 0 0-2.1 5.06h-.03z" transform="matrix(.02666 -.34324 .30978 .01956 205.67 443.54)"/><path d="M300.3 632.44c-2.85-3.63-6.74-5.87-11-5.27-4.03.57-8 3.66-10.68 7.77a18.77 18.77 0 0 1-1.13-4.15c-1.38-8.95 6.04-19.14 13.72-20.22a9.82 9.82 0 0 1 5.54.83c-.14 1.35-.13 2.7.07 4.02a18.25 18.25 0 0 0 5.04 10.15 18.62 18.62 0 0 0-1.56 6.84v.03zm-42.25 44.93-.45.64a14.5 14.5 0 0 1-8.53-4.74 13.44 13.44 0 0 0 8.97 4.08v.02zm6.7-13.62c-4.08-2.3-7.24-6.8-8.09-12.29-1.33-8.67 5.86-18.57 13.3-19.61a9.12 9.12 0 0 1 2.19-.05c-2.66 3.71-4.22 8.47-3.54 12.92.44 2.87 1.5 5.48 3.05 7.65a20.84 20.84 0 0 0-6.89 11.35l-.02.03z" transform="matrix(.02666 -.34324 .30978 .01956 205.67 443.54)"/><path d="M258.33 689.2c-2 .6-4.08.4-5.87-.78-4.37-2.9-5.54-10.5-2.6-16.94 2.95-6.42 8.95-9.31 13.35-6.4a9.3 9.3 0 0 1 3.58 5.14 7.54 7.54 0 0 0-5.38.38c-4.7 2.16-7.13 8.6-5.42 14.33a11.05 11.05 0 0 0 2.35 4.3v-.03z" transform="matrix(.02666 -.34324 .30978 .01956 205.67 443.54)"/><path d="M262.4 693.96c-3.07-.95-5.82-3.46-7.42-7.23-2.95-6.98-.85-15.61 4.77-19.25a9.58 9.58 0 0 1 8.97-.86 17.46 17.46 0 0 0 1.1 9.65 12.66 12.66 0 0 0 6.2 6.75 9.6 9.6 0 0 0-7.76 1.26c-3.12 2.03-5.16 5.62-5.85 9.62l-.02.06zm-5.12 49.45c-7.01-4.48-11.34-13.99-9.67-21.12 1.4-5.98 6.67-8.44 12.49-6.4a25.87 25.87 0 0 0-1.44 18.2c1.49 5.23 4.47 9.2 8.07 11.41-2.76.65-6.11.05-9.43-2.1h-.02z" transform="matrix(.02666 -.34324 .30978 .01956 205.67 443.54)"/><path d="M251.67 769.94a12.34 12.34 0 0 1-.91-1c-5.64-6.45-7.08-16.8-3.22-22.97 3.62-5.8 10.68-5.96 16.22-.65-2.97 6.52-2.26 15.33 1.63 22.2a11.86 11.86 0 0 0-10.34.13 14.1 14.1 0 0 0-3.35 2.28h-.03z" transform="matrix(.02666 -.34324 .30978 .01956 205.67 443.54)"/><path d="M268.08 783.81c-5.38-.3-10.72-6.3-12.47-14.48-1.95-9.16 1.3-17.67 7.28-18.91l.26-.04c2.88 4.72 7.19 7.53 11.73 7.72.04.05.07.1.1.19-6.71 4.63-9.85 15.33-7.05 25l.15.52zm-2.87-66.22c-6.59 2.1-14.44-2.68-17.47-10.68-3-8-.11-16.28 6.5-18.4 1.7-.52 3.48-.6 5.26-.33 1.52 4.76 4.28 8.46 7.62 10.57a26 26 0 0 0 .9 17.41 10.8 10.8 0 0 1-2.82 1.4v.03z" transform="matrix(.02666 -.34324 .30978 .01956 205.67 443.54)"/><path d="M269.95 727.88c-7.02-4.5-11.36-13.99-9.68-21.12 1.68-7.1 8.77-9.26 15.78-4.75a21.46 21.46 0 0 1 5.37 5.02c-4.18 5.42-5.77 13.84-3.54 21.6.13.5.3 1.02.48 1.51-2.54.33-5.48-.37-8.41-2.26z" transform="matrix(.02666 -.34324 .30978 .01956 205.67 443.54)"/><path d="M284.7 750.89c-3.68 7.63-11.19 10.5-16.7 6.35-5.5-4.12-6.95-13.72-3.29-21.38 3.68-7.63 11.19-10.5 16.7-6.35 5.5 4.11 6.95 13.71 3.29 21.38zm-9.27-47.75c-3.77 1.89-7.9 2.15-11.27.36-6.17-3.36-7.58-12.5-3.14-20.38 3.15-5.53 8.39-9 13.4-9.38a9.73 9.73 0 0 0 7.87 2.57c.17.14.34.32.5.5-7.94 3.42-12.17 13.33-9.42 22.05a16.01 16.01 0 0 0 2.04 4.26l.02.02z" transform="matrix(.02666 -.34324 .30978 .01956 205.67 443.54)"/><path d="M284.18 666.04c1.22 7.9-4.12 15.27-10.45 16.17-6.3.88-12.47-4.84-13.69-12.77-.86-5.6 1.87-11.7 5.8-15.1 2.62 4.34 6.94 6.95 11.39 6.32a10.5 10.5 0 0 0 4.56-1.82 23.14 23.14 0 0 1 2.37 7.2h.02z" transform="matrix(.02666 -.34324 .30978 .01956 205.67 443.54)"/><path d="M287.2 705.73c-5.67 2.92-12.19-1.4-14.47-9.67-2.29-8.27.45-17.43 6.14-20.39a7.98 7.98 0 0 1 5.4-.73 25.5 25.5 0 0 0-1.66 3.54c-3.4 9.1-1.72 20.05 3.75 24.34a7.8 7.8 0 0 0 2.86 1.47 9.94 9.94 0 0 1-2 1.4l-.02.04z" transform="matrix(.02666 -.34324 .30978 .01956 205.67 443.54)"/><path d="M304.5 667.95c.43 2.76-.02 5.46-1.08 7.86-5.2-3.18-12.15.01-15.9 7.24-4.17-1.8-7.53-6.13-8.36-11.53-1.18-7.68 5.12-16.42 11.7-17.46.03.34.08.67.13 1.01 1.15 7.44 7.1 12.9 13.47 12.43l.06.42-.02.03z" transform="matrix(.02666 -.34324 .30978 .01956 205.67 443.54)"/><path d="M303.51 696.66c-4.26 9.22-12.87 13.37-19.2 9.2-6.28-4.15-7.97-15.1-3.72-24.35 4.26-9.22 12.87-13.37 19.2-9.2 6.29 4.15 7.97 15.1 3.72 24.35zm-14.13-41.44a14.76 14.76 0 0 1-6.34 6.88c-6.29 3.15-13.95-.31-17.07-7.75-3.1-7.44.94-18.53 7.22-21.72 2.65-1.35 5.52-1.14 8.18.06l-.08.47c-1.67 9.7 1.94 19.19 8.1 22.06zm31.23-41.08c.4 2.6.03 5.17-.9 7.43-2.48-3.07-5.83-4.96-9.45-4.44-4.33.6-8.59 4.54-10.68 9.37a15.9 15.9 0 0 1-4.37-8.8c-1.2-7.78 5.22-16.62 11.89-17.56 6.64-.93 12.32 6.18 13.52 13.97l-.01.03z" transform="matrix(.02666 -.34324 .30978 .01956 205.67 443.54)"/><path d="M322.45 630.63c1.01 6.55-3.19 12.75-8.57 14.63-2.38-3.43-5.84-5.65-9.63-5.11a9.62 9.62 0 0 0-2.85.89 15.3 15.3 0 0 1-2.98-7.03c-1.13-7.34 4.95-15.73 11.26-16.62 6.3-.89 11.69 5.86 12.82 13.23h-.05z" transform="matrix(.02666 -.34324 .30978 .01956 205.67 443.54)"/><path d="M293.23 654.4c-3.1 1.87-6.58 2.1-9.46.23-5.12-3.39-6.49-12.28-3.05-19.78 3.46-7.5 10.46-10.87 15.58-7.48 2.72 1.8 4.37 5.14 4.82 9.04-5.16 3.78-8.97 11.1-7.95 17.73l.04.26h.02zm-36.75 144.27c-5.8 2.08-12.09-2.38-14.38-10.5-2.41-8.64.55-18.23 6.64-21.33 5.7-2.9 12.15.88 14.95 8.45-6.2 4.46-9.27 14.21-7.22 23.35v.03z" transform="matrix(.02666 -.34324 .30978 .01956 205.67 443.54)"/><path d="M270.6 803.78c-6.26 2.78-13.22-1.1-15.51-8.76-2.3-7.67.94-16.32 7.26-19.22 5.44-2.5 11.41.06 14.43 5.72-5.84 4.71-8.58 13.9-6.18 22.24v.02z" transform="matrix(.02666 -.34324 .30978 .01956 205.67 443.54)"/><path d="M267.56 817.92c-5.66 2.58-11.97-.9-14.04-7.8a15.88 15.88 0 0 1 1.97-13.3c3.98 3.38 9.07 4.39 13.8 2.08a14.5 14.5 0 0 0 3-1.98 14.32 14.32 0 0 1 1.75 3.78c.71 2.38.82 4.9.44 7.24a20.64 20.64 0 0 0-4.59 8.5c-.7.59-1.49 1.07-2.33 1.48zm8.52 29.36c-6.37 2.9-13.46-1.01-15.8-8.79-2.32-7.75.97-16.5 7.33-19.4.46-.21.96-.39 1.45-.52-.24 3.08.04 6.29.94 9.42 2.07 7.17 6.9 11.98 12.3 13.06a13.3 13.3 0 0 1-6.21 6.26v-.03z" transform="matrix(.02666 -.34324 .30978 .01956 205.67 443.54)"/><path d="M285.17 848.44c-6.13 2.79-12.96-.99-15.2-8.47a17.7 17.7 0 0 1 0-9.94c4.01 3.6 9.24 4.7 14.11 2.35 2.67-1.3 4.9-3.48 6.55-6.21a16.6 16.6 0 0 1 1.6 3.6c2.23 7.47-.93 15.85-7.06 18.67z" transform="matrix(.02666 -.34324 .30978 .01956 205.67 443.54)"/><path d="M293.14 863.36c-6.14 2.79-12.97-1-15.2-8.48a17.8 17.8 0 0 1-.69-6.2c2.39.42 4.88.1 7.3-1.05 4.18-2.02 7.28-6.26 8.81-11.36 3.03 1.41 5.59 4.39 6.8 8.42 2.24 7.47-.91 15.85-7.04 18.67h.02zm-20.18-77.3c-2.76-1.74-5.05-4.73-6.21-8.6-2.46-8.25 1-17.5 7.78-20.61 6.75-3.11 14.31 1.09 16.8 9.33 1.87 6.24.33 13.07-3.48 17.37a10.96 10.96 0 0 0-10.58-.75 12.9 12.9 0 0 0-4.31 3.25zm46.86-134.42c1.07 6.56-5.47 16.89-12.16 18.31-6.7 1.42-10.89-1.83-13.95-6.2-3.07-4.35-4.28-10-2.61-15.18 1.66-5.17 6.08-10.36 10.44-12.28 4.36-1.91 7.37-1.17 10.92 1.74 3.54 2.92 6.3 7.05 7.36 13.6z" transform="matrix(.02666 -.34324 .30978 .01956 205.67 443.54)"/><path d="M285.16 808.6c-6.13 2.78-12.97-1-15.2-8.47-2.23-7.48.92-15.85 7.05-18.68 6.13-2.79 12.96 1 15.2 8.44 2.23 7.48-.92 15.86-7.05 18.68v.03z" transform="matrix(.02666 -.34324 .30978 .01956 205.67 443.54)"/><path d="M283.13 834.2c-6.04 2.73-12.81-1-15-8.36-2.2-7.37.9-15.66 6.95-18.43 6.05-2.78 12.81.96 15.01 8.34 2.2 7.37-.89 15.66-6.96 18.44z" transform="matrix(.02666 -.34324 .30978 .01956 205.67 443.54)"/></g></g><path d="m409.15 236.48-.5.61-19.76 24.61-.43.54.5.48c6.35 6.04 10.03 16.34 10.04 24.6a74.65 74.65 0 0 1-3.83 24.43c-2.94 9.2-6.75 17.31-7.92 30.79-.87 10 2.73 17.8 7.37 23.42a41.31 41.31 0 0 0 13.61 10.7c10.28 4.84 20.89 3.17 31.48 4.53 4.7.6 7.3 3.55 9.74 6.14l.55.58.55-.58c2.44-2.6 5.03-5.54 9.74-6.14 10.6-1.36 21.2.31 31.48-4.53a41.33 41.33 0 0 0 13.61-10.7 31.68 31.68 0 0 0 7.37-23.42c-1.17-13.48-4.98-21.59-7.92-30.79a74.65 74.65 0 0 1-3.83-24.43c.01-8.26 3.69-18.55 10.04-24.6l.5-.48-.43-.54-19.77-24.6-.49-.62-.58.52a27.8 27.8 0 0 1-20.04 6.91c-6.99-.3-13.96-2.84-19.83-6.49l-.4-.24-.4.24c-5.87 3.65-12.84 6.2-19.83 6.5a27.8 27.8 0 0 1-20.04-6.92l-.58-.52zm.2 2.13a29.4 29.4 0 0 0 20.49 6.8c6.85-.29 13.6-2.63 19.41-6.03v72.06h-52.41a75.95 75.95 0 0 0 3.66-24.12c-.01-8.48-3.6-18.71-10.03-25.18l18.89-23.53zm81.3 0 18.88 23.53c-6.43 6.47-10.02 16.7-10.03 25.18a75.95 75.95 0 0 0 3.66 24.12h-52.41v-72.06c5.81 3.4 12.56 5.74 19.41 6.03a29.4 29.4 0 0 0 20.48-6.8zm-94.3 74.33h107.3c2.94 9 6.48 16.82 7.6 29.72a30.1 30.1 0 0 1-7.02 22.35 40.05 40.05 0 0 1-13.1 10.29c-9.8 4.61-20.16 3.01-31.03 4.4-4.88.63-7.77 3.55-10.1 6.03-2.33-2.48-5.22-5.4-10.1-6.03-10.87-1.39-21.23.21-31.02-4.4a40.04 40.04 0 0 1-13.1-10.3 30.09 30.09 0 0 1-7.03-22.34c1.12-12.9 4.67-20.72 7.6-29.72z" fill="#e7ca00" stroke="#d4af37" stroke-width=".75"/><g fill="#008f4c"><path d="M524.96 203.56c-.1.01-.18.05-.21.13-.14.5-.57 3.18-.86 5.93a34.29 34.29 0 0 1-.64 5.01c-.07 0-1.58-.63-3.36-1.4-4.35-1.91-13.42-2.97-13.92-1.63-.36.84.64 5.64 2.29 11.15.35 1.2-.07 1.56-2.64 2.34-1.72.49-3.65 1.33-4.36 1.9-1.22.85-1.07 1.13 2 3.95l3.36 3.04-1.58 1.27c-1.5 1.2-1.5 1.2 3.93 6.35 6 5.65 9.12 7.38 13.18 7.38 1.25 0 2.64.24 3.64-.05 1.34-.23 2.39-.68 5.67-1.04 3.55.32 7.04 2.05 8.44 2.82.35.76.64 1.45.86 2.02-2.53-2.76-8.16-3.85-9.33-3.9-1.17-.04-1.77.27-3.02.66s-1.74.96-2.93 2.62c-.86 2.19.84 4.47 2.9 4.75 2.58.35 4.5-1.06 4.5-3.4 0-1.9-1.1-3.28-.2-3.2 3.14.23 7.84 2.71 8.77 5.89 1.07 3.95.86 4.17-1.07 1.49-1.78-2.33-4.57-4.81-5.43-4.88-.64 0-2.07 3.46-2.07 5.09 0 1.05-.28 1.27-1.2.91a14 14 0 0 0-3.5-.85l-2.22-.35.57 3.53c.29 1.9 1.22 4.8 2 6.36l1.5 2.89-3.43-1.06c-7.35-2.26-6.85-2.33-6.35 1.55.21 1.9.64 4.03.86 4.67.43 1.06.07 1.27-2.43 1.27-1.64 0-2.93.21-2.93.42 0 1.63 5.78 9.32 8.64 11.58 3.5 2.68 10.14 5.65 12.78 5.65.79 0 3.14.63 5.35 1.48l3.93 1.4v4.25c0 4.66-1.43 14.05-2.22 14.05-.21 0-1.5-1.98-2.78-4.45-2.92-5.36-2.78-5.3-3.57-4.02-.57.85-.7.78-.7-.42 0-2.05-3.3-8.2-5.37-10.17l-1.7-1.63-.87 1.9-.85 1.84-3.86-4.23c-2.14-2.33-4.14-4.1-4.42-3.89-.36.15-.79 2.06-1.07 4.17-.72 6.15-1 6.5-3.36 4.24l-2-1.9-.5 1.9c-.86 3.39.22 15.32 1.72 19.48a68.54 68.54 0 0 1 2.28 8.97 30.06 30.06 0 0 0 7.71 15.18c1.36 1.41 1.57 1.97.71 1.97-.57 0-1.57.57-2.21 1.28-2.79 3.03-.21 6.99 4 6.2 2.07-.34 2.5-.2 3.21 1.35 1.07 2.26 1.14 6.36.14 8.12-.71 1.35-4.93 3.1-5.64 2.4-.21-.21-.35-2.61-.28-5.3l.07-4.87-3.64 1.92c-8.78 4.66-16.17 16.66-18.05 25.91-.63 3.09-2.4 3.43-4.63 7.08a28.3 28.3 0 0 0-6.38 5c-3.57 3.45-4.5 3.94-9.86 5.29-6.56 1.62-20.62 3.88-31.19 4.94-9.2.91-38.19 5.57-39.98 6.35-.78.35-2.64 1.13-4.07 1.7a9.57 9.57 0 0 0-3.86 2.9c-1 1.55-1.06 2.04-.28 3.52 1.93 3.53 5.64 3.46 13.57-.28 3.5-1.7 7.78-3.1 10.92-3.6a146.9 146.9 0 0 0 9.07-1.77c2.14-.56 8.13-1.63 13.2-2.47 28.84-4.6 39.4-6.85 51.19-10.95 7.85-2.75 7.79-2.75 15-2.04 8.14.78 18.41-1.77 22.62-5.58.93-.85 3.36-3.81 5.5-6.64 2.07-2.82 4.64-5.64 5.64-6.28 2.71-1.76 1.15-2.4-5.85-2.4h-5.86l2-4.37c2.29-5.09 4.64-11.8 4.21-12.22-.14-.14-2.2.14-4.49.7-2.36.5-4.36.85-4.43.78-.14-.14.14-1.2.57-2.4.57-1.55 1.36-2.4 2.64-2.68 1.07-.21 2.36-.57 2.93-.71.5-.14 2.14 0 3.64.42 2.64.71 2.72.85 2.36 3.04-.43 2.75 1.07 4.73 3.64 4.73 1.86 0 4-2.05 4-3.74 0-1.9-2.79-4.16-4.5-3.74-.86.14-3.29-.21-5.43-.92l-3.85-1.34 3.71-.78c5.64-1.2 7.5-.98 8.28.78.5 1.13 1.43 1.7 3 1.84 4.5.42 5.93-5.94 1.64-7.28-1.57-.5-5 1.2-5 2.47 0 .43-1.2.7-2.64.7-2.96.04-5.85.6-8.39 1.58l5.46-2.7a84.96 84.96 0 0 0 9.5-3.46c6.36-2.97 12.64-10.3 15-17.3 1.5-4.45 3.78-18.36 3.07-18.36-.36 0-2.72.92-5.21 2.05-4.57 2.12-4.65 2.12-4.65.56.08-2.9 1.29-11.44 1.79-12.7.35-.78.2-1.2-.43-1.2-2.15 0-9.07 3.81-13.64 7.48-4.42 3.53-4.86 3.75-4.86 2.26 0-.92.65-2.68 1.43-3.95 1.29-2.12 1.64-2.26 4.21-1.84 2.5.43 2.93.2 4-1.41 1.5-2.26.65-4.95-1.78-5.72-1.35-.43-1.22-.64 1.35-1.9 3.22-1.56 6.65-5.16 9.22-9.82l1.7-2.9-2.56.29c-1.43.14-2.57.2-2.57.14 0-.07.5-1.49 1.07-3.11.58-1.62 1.07-4.3 1.07-5.86 0-2.96-2.64-13.77-3.64-14.9-.35-.42-1.78.22-3.43 1.56l-2.78 2.19-2.65-5.8a83.03 83.03 0 0 0-2.92-6.06c-.14-.22-1.07.42-2.07 1.34-2.21 2.04-2.35.92-.43-3.25 1.72-3.67 2.5-4.17 4.5-2.83 2.43 1.56 5.14.08 5.42-2.89.15-1.76-.14-2.47-1.5-3.39-.92-.56-2.2-.92-2.7-.7-.65.2-1.3-.36-1.87-1.7a4.03 4.03 0 0 0-2.64-2.61c-3.7-.92-6.28 3.74-3.57 6.42 1.07.99 1.08 1.77.3 6.92-1.3 8.33-1.72 9.1-2.72 5.37-1.14-4.17-.65-15.74.85-19.13 2.57-5.86 1.08-15.12-3.2-19.92-3.55-3.97-13.37-10.98-15-10.8zM520 222.88c.62.02 3.29 2.28 7.62 7.4 3.63 4.3 7.94 11.71 10.73 17.24-.98-1.15-1.64-1.2-4.48-5.12-2.36-3.25-6.18-10.4-9.82-14.15-3.28-3.3-4.55-5.25-4.1-5.36a.2.2 0 0 1 .05 0z" fill="#00a854"/><path d="M537.86 298.71c-.68 2.67-1.23 3.15.2 5.2a3.67 3.67 0 0 0 3.07 1.55c1.92 0 3 1.41 4.64 6.36.2.77.35.77.35-.22.07-.7-.57-2.47-1.35-4.02-.86-1.7-1.15-2.9-.72-3.18 1.36-.85.79-4.45-.85-5.58-2.22-1.55-2.94-1.13-5.34-.1z"/></g><path d="M405.9 414.5c-1.5 1.2-1.88 3.13-.77 4.23 1.6 1.59 7.22.16 7.83-2.04.78-3.07-4-4.56-7.05-2.2z" fill="#9eab05"/><path d="M526.63 209.42c.57 3.53 4 10.73 6.57 13.7 1.07 1.27 2.07 2.19 2.28 2.04.15-.2-1.85-4.44-4.5-9.39-3.7-7.06-4.7-8.47-4.35-6.35zm-23.77 19c.78.84 11.42 3.87 11.42 3.24 0-1.27-3.43-2.76-7.5-3.18-2.35-.28-4.14-.28-3.92-.07zm4.43 8.6c.85.85 13.35 6.57 16.77 7.7 2.07.7 4.79 1.13 6.07.99 2.14-.21 1.93-.35-2.57-1.84a74.82 74.82 0 0 1-8.21-3.32c-4.36-2.18-13.35-4.8-12.07-3.53zm40.62 18.15c-1.07 3.25-2.79 14.12-3.29 21.18-.35 4.6-.28 6.14.57 7.2.93 1.27 1.07.71 1.86-5.65 1.07-8.96 2.21-24.5 1.93-24.85-.14-.14-.64.85-1.07 2.12zm-12 5.86c.36 5.65 2.79 11.72 3.64 9.04.29-.85-.42-3.96-1.7-7.7l-2.22-6.28.28 4.94zm-8 .14c.5.7 1.72 2.2 2.58 3.25l1.64 2.05v-1.84c0-1.06-.71-2.33-1.86-3.18-2.28-1.83-3.64-1.9-2.35-.28zm-10.06 17.44c0 .35 7.78 6.28 10.35 7.9 2.07 1.28 2.07 1.28-.57-1.83-2.71-3.17-7.14-6.35-8.85-6.35-.5 0-.93.14-.93.28zm3.93 15.25c1.85 7.84 3.28 12.29 4.07 12.78.5.28 1 .5 1.07.35.36-.35-3.36-11.08-4.5-13.06l-1.07-1.83.43 1.76zm8.2 6.14c0 1.06.65 3.25 1.44 4.8.78 1.56 1.28 2.34 1.14 1.7-.14-.63-.57-2.61-.79-4.45-.57-3.67-1.78-5.08-1.78-2.05zm-14.49 5.3c1.36 4.52 4.86 11.65 9.78 19.63 3.65 6 3.65 6 3.86 3.53.14-1.98-.57-3.74-3.21-8.2-1.86-3.1-5-8.6-7-12.14-1.93-3.6-3.78-6.5-4.07-6.5-.28 0 0 1.7.64 3.68zm44.34 1.06c-3.14 3.39-9.42 12.14-11.5 16.17a5.82 5.82 0 0 0-.64 3.95c.43 1.62 1.43.35 8.5-10.8 4.35-7 7.7-12.64 7.42-12.64-.35 0-2 1.48-3.78 3.32zm-11.28 52.46a2.83 2.83 0 0 0 2.57 4.23c2.07 0 3.35-2.47 2.28-4.44-.85-1.63-3.92-1.56-4.85.2z" fill="#75b52b"/><path d="M527.56 251c-2.71 1.91.14 6.71 3 5.02 1.71-1.13 2-3.89.43-5.02a5.95 5.95 0 0 0-1.72-.91c-.21 0-1 .42-1.71.91zm18.7-15.25c-1.64.43-2.28 2.62-1.28 4.45 1.43 2.62 5 1.56 5-1.48 0-2.12-1.65-3.39-3.72-2.97zm4.72 5.44a6.43 6.43 0 0 0-.15 2.68c.15 1.27.65 1.63 2.29 1.63 2.57 0 4-1.9 2.85-3.75-1-1.55-4.42-1.97-5-.56zM524.2 346.75c-2.65 2.11-.15 5.86 3.14 4.59 1.5-.57 2.07-2.26 1.21-3.82-1-1.9-2.57-2.19-4.35-.77zm14.52-47.34c-.78.78-.57 3.4.36 4.3 2.14 2.13 5.35 0 4.57-3.03-.36-1.34-.93-1.76-2.5-1.76-1.07 0-2.21.21-2.43.5zm13.24-.1c-.5 2.05.71 3.89 2.57 3.89 1.71 0 3-1.7 2.71-3.67-.14-1.27-.71-1.7-2.5-1.84-2-.2-2.36.07-2.78 1.63zm1.86 52.1c-.5 2.04.72 3.88 2.57 3.88 1.72 0 3-1.7 2.72-3.67-.15-1.27-.72-1.7-2.5-1.84-2-.21-2.36.07-2.79 1.62zm-4.34 6.53c-2.64 2.12-.14 5.86 3.14 4.59 1.5-.56 2.07-2.26 1.21-3.81-1-1.91-2.57-2.2-4.35-.78z" fill="#d91023"/><path d="M519.89 223.47c.28.46 1.66 2.08 3.04 3.61 2.65 2.87 4.8 5.86 8.8 12.08 2.81 4.4 6.38 8.9 6.38 8.08 0-.86-6.32-11.46-8.83-14.81-3.3-4.38-8.56-9.81-9.57-9.81-.2 0-.14.31.18.85z" fill="#75b52b"/><path d="M538.14 312.72c-.09.48-.82 5.24-1.14 10.8-.74 12.91-1.4 19.85-2.87 28.18-.63 3.67-1.24 7.25-1.32 7.96l.19 1.18 1.17-1.64a16.8 16.8 0 0 1 4.49-4.27c.63-.45 2.67-2.36 4.48-4.29 9.08-9.58 11.61-12.56 19.43-22.91 7.24-9.64 9-12.05 8.85-12.22-.28-.26-2.54 1.88-11.56 13.06-2.5 3.1-6.74 7.95-9.3 10.8-6.3 6.93-13.32 13.38-15.18 15.88-.17.22.26-1.62.6-2.99 1.61-6.8 2.28-14.27 2.48-28.88a258 258 0 0 0 .03-11.57c-.09 0-.23.4-.35.91zm-17.63 46.66c-.55.9-2.24 3.9-3.8 6.62-4.83 8.64-10.4 16.46-14.63 20.52-1.52 1.48-1.09 1.6-1.4 1.94-1.67 1.71 5.05 2.93 10.17 3.44 6.9.68 10.72-.69 29.15-10.4 4.3-2.28 5.46-3 4.6-2.85-1.7.28-4.37.91-12.37 4.72-7.81 3.7-11.3 5.3-14.84 6.1-2.76.63-6.81.69-9.2.12l-1.62-.11.86-.28c.72-.17 1.83-.21 2.2-.53a19.5 19.5 0 0 1 3.26-2.1c3.19-1.62 6.7-4.54 11.53-8.86 3.7-3.3 10.83-10.49 10.83-10.94 0-.32-3.33 2.41-7.61 6.2-8.86 7.84-17.54 13.67-21.24 14.26l-1.1.17 1.15-1.02 3.21-4.7c3.45-5.04 4.77-7.44 7.99-14 2.96-6.06 4.18-9.67 3.98-9.84-.06-.06-.58.63-1.12 1.54zm.21-91.11c-.09.48 3.7 5.04 8.04 10.03 4.45 5.1 7.07 7.11 10.6 11.57 3.55 4.45 3.91 4.78 7.87 8.34 4.92-6.48 7.95-15.3 10.03-20.92 2.07-5.55 3.73-10.32 3.78-17.63-2.83 6.12-2.91 8.31-5.12 14.99-2.23 6.73-7.2 18.39-9.05 20.88-.17.23-10.42-12.35-14.9-17.57-4.74-5.54-11.27-10.27-11.25-9.7z" fill="#eac102" fill-opacity=".5"/><path d="m524.08 208.32-.86 6.38-2.58-1.28c-2.72-1.27-9.74-2.76-13.1-2.76-1.87 0-1.94.14-1.58 2.27.43 2.27 2.22 8.71 2.86 10.13.14.42-1.07 1.13-2.72 1.63-1.72.5-3.66 1.35-4.37 1.91-1.3.92-1.15 1.14 1.57 3.55 3.23 2.9 3.51 3.68 1.72 4.96-1.07.78-.64 1.41 4.09 5.95 2.94 2.83 6.59 5.74 8.02 6.45 3.66 1.9 10.75 1.9 14.55 0 2.65-1.35 2.86-1.35 4.58-.22 1.72 1.07 1.8 1.07.86-.07-.57-.64-3.94-2.7-7.45-4.46-9.89-5.1-17.98-14.03-21.42-23.88-1.72-4.89-1.72-7.51.07-7.51 2.94 0 9.17 1.56 12.68 3.12 5.23 2.4 14.54 11.33 17.12 16.5 1.87 3.62 2.08 4.9 2.15 10.28 0 6.24 1 8.86 1.15 3.19.29-7.16.5-8.79 1.58-11.48 2.14-5.24 1.07-13.25-2.37-18-1.15-1.48-4.87-4.74-8.38-7.22-3.44-2.41-6.52-4.68-6.74-5.1-.28-.36-.93 2.2-1.43 5.66zm9.17 1.07c4.8 3.33 6.16 4.74 7.67 7.79 2.29 4.75 3 10.49 1.72 14.74l-1 3.19-1.87-3.97c-1.22-2.7-3.8-5.88-8.02-10.06-3.37-3.4-6.52-6.17-6.95-6.17-.8 0-.5-4.82.57-9 .43-1.84 0-2.05 7.88 3.48zm-23 17.36a11.17 11.17 0 0 0 2.44 2.83 4.9 4.9 0 0 1 1.65 2.34c.36 1.27 0 1.41-3.37 1.41s-3.94-.2-6.52-2.83c-1.5-1.56-2.65-2.98-2.43-3.12.57-.56 5.23-2.48 6.09-2.55.5 0 1.43.85 2.14 1.91zm9.53 10.98c4.16 3.82 5.38 4.6 10.4 6.59 2.64 1.06 2.79 1.2 1.64 2.26-1.58 1.56-9.46 2.13-13.04.92-3.08-.99-14.26-11.05-13.11-11.76 1.22-.78 4.94-1.56 7.66-1.63 1.94-.07 3.16.64 6.45 3.62zm20.7 13.03c-.28.36 0 1.92.58 3.48 1.29 3.6 1.22 4.67-.07 7.15a12.87 12.87 0 0 0-1.08 4.82c0 1.56-.35 3.83-.86 5.1l-.78 2.27-2.37-1.49c-1.29-.85-2.5-2.2-2.72-2.98-.65-2.12-.36-6.66.5-10.98.65-3.04 1.15-3.9 2.15-3.82 1.07.14 1.15-.07.36-.92-.72-.93-1-.93-1.8.2-.5.72-1.14 2.27-1.35 3.55-.43 2.34-.43 2.34-2.51 1.35-3.08-1.63-4.23-1.35-4.23.99s1.22 6.1 2.72 8.43c1.65 2.48 1.72 1.42.08-1.77-1.94-3.9-2.58-8-1.3-8 .58 0 1.73.49 2.59 1.05 1.29.93 1.5 1.7 1.36 5.89-.07 5.66-.58 5.95-7.31 3.68-2.22-.78-4.23-1.28-4.44-1.13-.29.35.86 6.3 1.64 8.22.3.85-.21 1.06-2.93.78l-3.37-.22 2 3.4c4.45 7.73 10.9 12.33 19.78 14.17 2.8.57 6.16 1.56 7.38 2.2 1.72.92 2 .92 1.36.14-.43-.56-2.08-1.49-3.58-1.98-4.09-1.49-8.03-4.32-13.18-9.78-5.16-5.46-7.81-10.06-7.81-13.6 0-1.85.21-2.27 1.07-1.92.65.22 3.08.92 5.52 1.56 6.02 1.5 7.6 2.41 11.46 6.52 4.08 4.32 5.45 6.87 6.66 12.68.58 2.55 1.15 4.75 1.36 4.96.94 1 1.22-2.26.43-5.03-1.29-4.67.65-13.74 4.73-21.75 1.8-3.54 7.31-8.93 8.17-7.93.29.28 1.22 3.33 2.15 6.73 1.93 7.22 1.65 9.35-1.8 16.5-2.5 5.1-4.86 8.08-8.59 10.78-2.8 1.98-2 2.62 1.86 1.62 3.44-.92 8.96-5.95 11.97-10.9l1.57-2.7-2.79.5-2.72.42 1.29-3.75c1.65-4.82 1.65-6.73 0-12.47-.79-2.63-1.58-5.67-1.87-6.73l-.43-1.99-2.29 1.63a13.2 13.2 0 0 0-2.72 2.2c-.86 1.2-1.86-.14-4.3-5.53-1.29-2.9-2.58-5.31-2.86-5.31-.36 0-1.44.85-2.51 1.91l-1.86 1.98.43-1.98c.35-1.35.21-1.84-.3-1.56-.35.21-.7 1.13-.7 1.99 0 3.4-1.23 3.4-2.3.07-.57-1.85-1.22-3.05-1.43-2.7zm10.4 17.86a44.4 44.4 0 0 0-4.09 11.62l-.86 5.1-1.14-2.83a24.82 24.82 0 0 0-3.08-5.18c-1.94-2.2-1.94-2.33-1.15-7.36 1.22-8.01 2.8-12.33 5.66-15.45l2.58-2.9 2.65 5.24 2.65 5.17-3.23 6.59zm-27.16 11.69c8.74 9.07 11.75 12.61 10.25 12.12-6.52-1.92-11.1-5.32-14.55-10.63-1.36-2.06-2.43-3.97-2.43-4.18 0-.21.86-.36 1.86-.36 1.3 0 2.87 1 4.87 3.05zm40.77 5.6c-2.87 4.53-4.59 6.23-7.74 7.8l-2.87 1.48 2.87-3.12a45.68 45.68 0 0 0 4.51-5.74c1.44-2.26 2.44-2.97 4.66-3.33.29 0-.36 1.28-1.43 2.9z" fill="#cab313" fill-opacity=".5"/><path d="M538.41 256.36c1 2.13 2.87 4.32 2.94 3.54 0-.42-.86-1.7-1.87-2.83-1-1.2-1.5-1.49-1.07-.7z" fill="#005000"/><path d="M519.5 293.35c-.3 1.48-.8 3.9-1.22 5.45l-.65 2.7-2.07-1.92-2.01-1.91-.57 3.33c-.65 4.6.14 11.48 2.15 17.92a73.33 73.33 0 0 1 2.22 9c.86 6.52 6.23 14.17 13.18 18.92 1.29.92 1.79 2.13 2.22 5.31l.57 4.11-.14-3.9c-.07-2.12-.93-7.36-1.86-11.68-2.22-10.28-1.58-14.6 3.58-25.09l3.72-7.5 3.8 7.58c5.09 10.13 5.59 13.53 2.87 21.82-1.08 3.33-2.3 6.37-2.65 6.87-.36.5-.5 1.13-.36 1.49.21.28.07 1-.36 1.56-.57.85-.64.78-.29-.36.29-.78-.71-.07-2.36 1.77-1.58 1.78-3.01 3.83-3.22 4.61-.36 1.28-.3 1.28.86-.14a225.01 225.01 0 0 0 2.5-3.4c.72-1 1.58-1.63 1.87-1.42 1.07.57 2.07-1.28 4.44-7.86 3.3-9.22 5.37-12.83 9.88-17.36 3.01-2.98 5.95-4.9 10.97-7.3a177.2 177.2 0 0 1 7.16-3.26c.57 0-1.58 12.33-2.8 15.94-1.36 4.32-5.22 10.42-8.3 13.25-3.01 2.76-9.03 5.74-14.7 7.3-2.43.7-4.65 1.49-4.86 1.84-.36.64 5.3-.92 10.53-2.9 7.6-2.77 14.76-10.14 17.7-17.93 1.28-3.4 4.08-18.14 3.5-18.63-.14-.15-2.5.85-5.37 2.2l-5.09 2.4.43-4.75c.22-2.62.8-6.23 1.3-8.14.85-3.26.85-3.33-.65-2.9-3.58 1.05-10.03 4.95-13.9 8.5l-4.23 3.75.22-6.52c.21-4.4.07-6.1-.36-5.1-.36.78-.72 2.83-.72 4.6-.07 3.62-1.57 10.63-2.29 10.63-.29 0-1.57-2.05-2.86-4.6-2.37-4.4-3.44-5.6-3.59-3.76 0 .5-.71-.99-1.64-3.4a31.64 31.64 0 0 0-3.66-6.94l-2.08-2.7-1.14 2.2-1.15 2.2-2.72-3.55c-1.5-1.98-3.37-3.9-4.08-4.25-1.15-.63-1.37-.35-1.72 1.92zm4.87 2.2c2.72 3.32 8.67 14.52 9.45 17.85l.43 1.77-1.29-1.77c-2.29-3.26-8.52-8.86-12.32-11.05-1.86-1.07-1.93-1.42-1.43-3.76.29-1.42.72-3.4 1-4.53.22-1.07.65-1.92.93-1.92.29.07 1.72 1.56 3.23 3.4zm9.96 6.87c2.07 4.32 2.5 7.01 1.36 8.78-.93 1.49-6.8-10.84-6.24-13.1.43-1.57.65-1.7 1.65-.86.65.5 2.08 2.84 3.23 5.18zm-12.69 2.26c4.59 3.05 9.25 7.65 10.46 10.42.65 1.27.43 2.27-.71 4.53-1.94 3.76-3.01 11.48-2.3 16.58.3 2.27.3 4.11 0 4.11-.93 0-6.08-6.59-8.45-10.7-4.73-8.29-8.1-21.82-6.95-27.84l.5-2.7 1.58 1.35c.86.78 3.51 2.7 5.87 4.25zm43.28 0c-.36 1.92-.8 5.18-1 7.3-.44 3.83-.5 3.97-4.66 6.52a33.56 33.56 0 0 0-7.31 6.52c-1.65 2.12-3.22 3.75-3.51 3.54-.36-.14-.79-1.84-1.08-3.68-.21-1.85-.93-4.4-1.43-5.74-.93-2.13-.86-2.55.5-4.47 3.01-4.18 15.76-13.32 18.63-13.32.22 0 .14 1.5-.14 3.33zm-38.48 34.65c2.65 2.7 4.23 4.82 4.02 5.6-.15.99-.93.56-3.87-2.2-3.94-3.68-7.1-8.5-7.81-11.97-.43-1.85-.22-1.7 1.43 1.06 1 1.77 3.8 5.17 6.23 7.51z" fill="#cab313" fill-opacity=".5"/><path d="M519.42 356.9c-7.73 5.17-14.26 15.95-16.25 24.59-.15 2.2-2.49 4.04-2.13 3.82.29 1.06 2.5-.04 3.48-3.54 1.89-6.61 7.1-18.5 13.9-23.24 2.08-1.41 4.16-2.62 4.51-2.62.36 0 .5 2.7.36 6.16-.14 4.75-.64 7.02-1.93 9.64-2.15 4.32-7.95 10.7-12.04 13.04-3.44 1.98-3.72 2.83-.57 1.63 3.5-1.35 11.82-9.92 14.04-14.53 1.15-2.34 2.08-4.67 2.08-5.17s.86-1.28 2-1.7c2.58-1 15.4-4.18 15.7-3.83.57.57-4.9 12.04-6.7 14.38-2.72 3.47-9.24 8.43-12.46 9.42-1.5.43-4.74 2.17-7.14 2.62-2.6.48-3.39.52-6.43.85l-2.52 1.5 2.5-.43c1.36-.2 4.8-.63 7.53-.92 7.88-2.73 10.91-4.44 16.08-8.4l3.35-2.84 6.43.33 5.23.43-2.44 2.9a676.9 676.9 0 0 0-5.58 6.8c-1.65 2.13-4.02 4.4-5.23 5.1-3.44 1.99-10.97 3.62-17.27 3.62-5.73.07-5.88 0-8.74-2.55-2.94-2.62-4.09-3.12-4.51-1.99-.08.36-2.58 1.42-5.38 2.48-5.59 1.92-6.8 1.42-3.58-1.56 1.22-1.13 2.5-1.12 5.07-1.27 0 0 5.42 1.21 5.48.1.05-1.1-5.4-1.02-5.4-1.02-2.55.15-3.14.07-1.14-2.54 2.35-1.47 3.28-4.36 2-3.73-3.13 3.79-5.16 5.29-9.88 9.88-4.5 3.13-5.08 3.34-11.25 5.04a174.3 174.3 0 0 1-14.32 2.48c-7.51.85-10.7 2.73-3.44 1.41 3.67-.67 8.38-1.2 14.4-2.26 8.68-2.13 9.25-2.27 13.54-4.54 3.5-3.6 4.07-4.02 2.22-1.06-.65 2.2.43 2.12 7.3-.5 5.45-2.13 5.6-2.13 6.95-.78 1.37 1.35 1.3 1.42-1.43 2.55-5.8 2.41-17.12 5.53-28.65 7.8-6.6 1.34-12.18 2.62-12.4 2.9-.57.57 7.81-.35 9.6-1.13.79-.29 6.74-1.85 13.26-3.33 6.52-1.56 13.97-3.69 16.62-4.75 4.44-1.77 5.16-1.84 8.95-1.13 4.8.85 12.75.07 18.56-1.85 4.44-1.41 7.52-4.04 12.03-10.34 1.87-2.62 4.23-5.39 5.23-6.1l1.87-1.34-6.3-.43c-3.45-.2-6.46-.56-6.6-.78-.14-.14.21-1.27.86-2.48.57-1.2 2.08-4.81 3.22-7.93l2.15-5.81-2.5.5c-1.37.2-3.66.63-5.02.85l-2.5.5 1.07-2.63c.57-1.42.93-2.55.71-2.55-.14 0-.78 1.13-1.36 2.48-1.22 2.76-2.65 3.33-2.15.85.22-1.13 0-.92-.86.7a7.65 7.65 0 0 1-3.08 2.98l-3.22 1.14c-1.22.56-1.3.2-1-4.82.14-3.47 0-5.46-.5-5.46-.44 0-2.37 1.07-4.38 2.41z" fill="#cab313" fill-opacity=".5"/><path d="M452.51 403.88c-4.16.35-12.54 1.63-26.5 3.9-7.32 1.13-13.62 2.12-14.12 2.2-.5 0-.72.27-.58.56.22.28-.78.7-2.15.92-3.15.64-6.8 3.61-6.8 5.67 0 2.05 2.36 4.18 4.08 3.75 1.15-.28 1.08-.35-.14-.42-3.15-.14-4.37-3.83-1.93-5.95 2-1.85 11.46-4.61 16.83-5.03 6.8-.57 26.44-3.26 27.3-3.83a46.5 46.5 0 0 1 5.8-1.28c4.73-.78 3.8-1.06-1.79-.5z" fill="#cab313" fill-opacity=".5"/><path d="M440.69 410.75c-12.9 2.48-20.92 4.54-24.79 6.52-5.01 2.48-4.3 2.7 1.07.28a45.21 45.21 0 0 1 9.53-2.83c2.65-.43 8.6-1.56 13.11-2.48 4.52-.92 10.03-1.99 12.18-2.34l3.94-.64-3.22-.07c-1.8 0-7.1.71-11.82 1.56z" fill="#cab313" fill-opacity=".5"/><path d="M497.18 391.95c-2.24 1.34-4.55 4-2.04 3.6 1.9-.16 9.02-2.33 9.57-3.73-2.72.24-4.96-.42-7.53.13z" fill="#fff"/><g stroke="#d4af37" stroke-width=".9"><path d="M367.7 432.44c-1.5.46-2.47.9-9.08.44-4.51-.3-10.18-1.12-13.1-1.2-5.57-.07-5.6.36-15.53 7.12-6.98 4.76-16 4.4-22.66 2.93-4.06-1.85-5.8-2.26-5.2-1.26 1.12 1.84 9 4.4 13.37 4.4 7.06 0 12.24-1.77 20.73-7.07 6.53-4.15 9.46-4.54 18.48-2.46 10.62 2.1 12.2 1.2 20.87-2.7-2.59-.08-3.2 0-4.07.34 1.5-1.62 1.56-3.14 1.85-4.18.43-.56-.72.2-2.1 1.17-1.4.97-3.03 2.16-3.55 2.47z" fill="#fff" transform="matrix(.83739 0 0 .82218 198.78 50.96)"/><path d="M354.02 429.83c-4.88-.76-8.23-1.43-11.29-1.09-3.4.38-5.83 2.08-9.89 4.61-4.06 2.62-7.7 4.5-8.16 4.5-.53 0-5.76 1.22-9.75 1.22-1.87 0-5.9-1.25-8.61-2.25-5.71-2.15-7.8 1.33-1.86 3.87 5.27 1.8 10.62 2.5 15.61 1.76 5-.74 9.63-2.93 13.47-5.77 7.63-5.62 3.17-2.92 6.21-4.2 3.04-1.3 5.85-.86 5.85-.86 3.98.16 11.88 1.47 15.86 1.55 7.29-.66 6.04-.67 8.44-2.05.84-.48 3.49-2.24 3.65-2.63.16-.4 1.4-2.7 1.16-2.8-7.46 5.14-11.2 5.12-20.68 4.15z" fill="#d91023" transform="matrix(.83739 0 0 .82218 198.78 50.96)"/><path d="M341.03 435.4c-1.05.46-4.2 2.3-7.14 4-6.16 3.76-11.96 5.56-18.75 5.64-3.08.46-13.07-3.6-11.57-3.15 1.61 3.04 3.96 3.43 9.68 4.51 4 .76 6.58.13 11.06-.83 5.02-.61 7.08-2.88 8.96-4.27 4.35-3.22 11.89-5.37 14-5.37.97 0 4.75 2.07 8.9 2.97 4.14.9 6.14 1.12 10.44.44s8.72-4.2 12.84-6.92c-.67.2-2.13.21-4.14.27-5.9 3.48-15.88 4.78-21.14 2.43-5.33-1.3-10.51-.95-13.14.27z" fill="#d91023" transform="matrix(.83739 0 0 .82218 198.78 50.96)"/></g><path d="M388.7 210.49c-9.08 3-18.67 10.2-24.65 18.47-1.3 1.78-2.46 3.13-2.6 3-.07-.15.58-3.79 1.59-8.07 1-4.27 1.8-8.55 1.73-9.55 0-1.64-.15-1.57-2.89 1.42-3.46 3.85-8 12.34-9.73 18.19-.94 3.14-1.3 6.63-1.3 13.12l.07 8.92-1.73-6.28c-1.8-6.7-3.68-11.27-5.55-13.62-.94-1.21-1.23-1.29-1.88-.36-1.37 2.07-.43 10.91 1.88 17.48.21.78-.65-.36-1.95-2.5-1.37-2.14-2.81-3.78-3.17-3.57-.87.43-.94 7.42-.07 10.34.65 2.07.65 2.07-1.8-.7-4.04-4.64-4.98-5-4.98-1.8 0 1.22.5 3.36 1.08 4.79a41.06 41.06 0 0 1 1.08 2.7c0 .08-1 .36-2.3.65-3.18.64-4.19 1.64-4.19 4.28 0 2.85 1.95 9.48 2.96 10.12 1.08.65 1.44 0 2.38-4.13l.86-3.71 2.67 3.42c3.82 5 9.52 16.4 12.4 24.9 3.03 9.05 3.18 10.83.36 5.27a101.77 101.77 0 0 0-4.4-7.42c-2.73-3.85-17.8-19.47-18.82-19.47-1.08 0 0 4.85 1.95 8.92.94 2 3.75 5.92 6.13 8.77 2.45 2.78 4.26 5.13 4.04 5.13-.22 0-1.95-1.14-3.75-2.5-3.68-2.77-7.43-4.91-7.93-4.48-.15.21 1.3 3.2 3.24 6.77l3.46 6.5-2.3-.37c-1.3-.2-3.03 0-3.9.43-1.3.72-1.51 1.5-1.51 4.92 0 4.57 1.15 9.42 2.23 9.42 1.01 0 2.81-4.5 2.81-6.92 0-1.93.08-1.86 3.68 1.57 5.12 5 11.97 13.48 18.75 23.32l5.7 8.34-6.7-4.99c-6.42-4.7-19.62-12.05-21.78-12.05-.58 0-1.09.28-1.09.64s4.26 4.64 9.45 9.56l9.37 8.91-4.9-1.64a96.56 96.56 0 0 0-7.43-2.07c-2.45-.5-2.45-.35 3.03 4.71a95.45 95.45 0 0 0 12.26 9.41c3.68 2.29 6.06 3.93 5.27 3.71-6.57-1.85-16.23-3.42-16.23-2.57 0 1 4.98 4.93 8.5 6.7 1.96.94 6.86 2.93 10.97 4.29 8.37 2.92 13.41 5.56 17.67 9.27l2.88 2.57-5.05-2.21c-5.76-2.57-21.41-7.78-23.22-7.78-1.8 0 5.41 7.06 12.4 12.27 6.43 4.78 18.61 10.84 27.41 13.7 7.36 2.34 13.56 3.56 25.24 5.06 5.2.64 10.1 1.42 11.03 1.78.87.43 7.21 1.35 14.07 2.14 20.04 2.35 34.68 5.77 43.26 10.12 2.31 1.15 4.83 1.57 10.1 1.86 7.79.36 8.15.14 5.91-4.14-1.87-3.56-5.19-5.42-12.26-6.7-3.53-.71-9.37-1.86-12.98-2.57-7.57-1.57-22.14-4.14-40.6-7.06-19.83-3.2-28.41-6.63-37.71-14.98-13.78-12.26-20.99-32.16-18.75-51.84.5-4.21.8-7.7.65-7.85-.65-.57-5.27 8.92-6.5 13.2l-1.3 4.7.3-7.56c.5-11.77 4.9-22.75 11.54-29.1 1.44-1.35 2.6-2.7 2.6-2.99 0-.29-1.38-.14-3.04.28-2.16.5-4.25 1.86-6.85 4.5l-3.75 3.7 1.73-3.35c2.67-5.27 7.29-10.55 11.69-13.48l4.1-2.63-2.37-.22c-4.76-.5-13.34 5.7-18.1 13.12-2.74 4.35-2.74 3 .07-3.63a58.82 58.82 0 0 1 11.25-17.55c2.52-2.64 2.95-3.5 2.02-3.5-3.75 0-10.1 4.86-15.36 11.78-1.52 2.06-1.52 1.92.21-2.14 2.17-4.85 5.48-10.27 8.59-13.7 2.23-2.56 1.58-2.92-2.17-1.2-3.39 1.63-8.87 7.7-12.04 13.54-1.52 2.71-2.6 4.28-2.38 3.5.22-.79.72-2.86 1.08-4.64a65.2 65.2 0 0 1 17.96-31.88c3.39-3.2 4.25-4.5 3.31-4.5-2.74 0-9.15 3.65-13.4 7.64-4.4 4.14-4.48 4.14-2.75 1.28a80.06 80.06 0 0 1 25.6-26.1c3.32-2.14 6.06-4.06 6.13-4.28 0-1.07-10.96 2.21-15.94 4.71a59.3 59.3 0 0 0-6.2 4.42c-3.46 2.78-3.82 3-2.52 1.14 2.45-3.42 10.74-10.77 14.06-12.48 2.45-1.28 2.74-1.64 1.51-1.85-3.31-.5-12.54 4.35-19.76 10.34l-3.17 2.7 1.73-2.84c5.63-9.2 12.55-16.55 20.7-21.83 2.88-1.85 5.7-3.5 6.2-3.7.43-.15.72-.5.5-.72-.21-.21-2.8.36-5.7 1.36zm108.4 203.96c1 1.07 1.87 2.21 1.87 2.5 0 .36-1.59.64-3.6.64-3.47 0-3.61-.07-3.61-2 0-3.63 2.3-4.06 5.33-1.14z" fill="#00a854"/><path d="M492.54 413.18c-1.73 1.64-1.44 4.35.5 4.85 3.04.78 7 .5 7-.57 0-1.07-4.61-5.42-5.77-5.42-.36 0-1.15.5-1.73 1.14z" fill="#9eab05"/><path d="M392.46 209.25c-7.62 1.33-14.28 5.87-20.11 10.72a9.35 9.35 0 0 0-1.3 1.29c-.42.49-4.3 3.93-6.67 7.25a43.91 43.91 0 0 0-3.6 4.99c.18-1.36 1.2-5.41 2.23-9.98 1.16-5.44 1.67-9.85 1.52-10.06-.72-.64-5.95 6.2-8.55 11.42-3.84 7.52-4.96 12.7-4.96 23.43l-.08 8.93-1.76-6.78c-1.88-7.09-5.12-14.47-6.64-14.9-.5-.14-1.08.88-1.37 2.38-.43 2.36-.03 4.64 3.01 16.8.22 1-.57.09-1.8-2.06-2.75-4.8-3.7-5.88-4.49-5.38l1.96 2.8a61.7 61.7 0 0 1 4.33 8.3c3.55 8.38 8.84 26.13 7.97 26.99-.22.14-.65-.44-1.02-1.37-.36-.93-1.35-3.64-2.22-6a86.46 86.46 0 0 0-4.34-9.4c-3.4-6.22-5.86-13.09-6.37-17.81l-.39-3.47c-1 .78-.6 4.92.82 9.47a47.52 47.52 0 0 1 1.21 4.37c-.14 0-1.7-2-3.59-4.37-2.6-3.3-3.63-4.15-4.14-3.43-.65 1.07-.27 3.2 1.25 7.21l.98 2.73h-2.39a7.7 7.7 0 0 0-3.67.94c-1.23.86-1.3 1.43-.58 5.22.83 4.69 2 8.13 2.89 8.19 1.43.09 1.39-1.41 2.1-5.5.3-1.17.8-1.9.9-2.57.31.43.75.95 1.37 1.6a109.73 109.73 0 0 1 14.1 27.29c2.03 6.08 5.79 22.1 5.36 22.53-.15.21-1.04-2.5-1.84-6-2.9-12.17-6.98-19.36-19.65-31.82 0 0-4.35-5.2-7.85-7.2.06 2.92.66 3.42.66 3.42.87 4.44 3.11 8.3 9.77 16.1 2.97 3.51 5.35 6.62 5.35 6.9 0 .22-1.65-1.1-3.75-2.96-3.83-3.36-9.77-7.2-10.35-6.63-.22.15 1.21 3.3 3.16 6.94 2.46 4.58 3.22 6.45 2.43 6.16-2.83-1.14-3.86-1.14-5.67 0-1.88 1.22-1.88 1.33-1.44 6.2.21 2.72.81 5.65 1.25 6.51.86 1.43.85 1.45 1.71-.27.51-.93 1.08-2.94 1.37-4.45.3-1.43.72-2.65.94-2.65.24 0 3.92 3.83 5.7 5.58.72.93 1.55 1.94 2.42 3 4.27 5.22 16.07 20.27 19.1 25.07l1.53 2.5-2.46-1.92c-8.18-7-21.58-14.83-26.64-16.33-1.42-.42-1.8-.02-1.13.74-.03 0-.07-.02-.08 0 3.47 4.7 13.69 13.26 16.37 15.51 2.67 2.26 2.65 3.1 2.57 3.24-.14.07-2-.8-5.2-1.87-8.17-2.87-10.3-2.93-9.21-1.64.5.57 1.73.98 2.89 1.05 4.2.08 14.84 4.73 22.23 9.67 4.77 3.22 16.21 14.1 17.73 16.96.8 1.58.51 1.43-2.38-.94-3.91-3.14-14.76-9.3-15.63-8.8-.29.2-2.83-.27-5.58-.98a89.64 89.64 0 0 0-9.42-1.8l-4.26-.5 2.54 2.3c3.33 3 8.9 5.7 18.17 8.93 4.12 1.43 8.83 3.36 10.43 4.29 3.47 2 10.63 7.59 10.27 7.95-.14.14-2.78-.86-5.82-2.22-5.14-2.37-17.86-6.8-22.34-7.8-1.67-.36-1.1.34 3.24 4.64a106.7 106.7 0 0 0 11.01 8.89c15.35 10.09 29.25 14.53 55.16 17.54 4.12.5 7.21 1.12 7 1.48-.23.36 6.3 1.32 13.31 2.1 18.82 2.22 30.55 4.8 41.33 9.09a32.94 32.94 0 0 0 12.46 2.85c4.78.28 6.4.21 6.4-.43 0-1.65-2.06-4.87-4.52-7.02-2.18-1.86-3.61-2.97-12.15-4.4-5.36-.86-10.17-2.03-10.82-2.38-.65-.36-11.4-1.86-23.64-3.86-26.84-4.3-35.1-6.24-42.26-9.67-17.73-8.59-29.8-27.28-30.82-48.97-.22-4.36-.08-10.07.35-12.86.43-2.72.73-5.08.59-5.23-.65-.64-6.13 10.25-7 14.47l-.35 2.73-.27-4.91a47.64 47.64 0 0 1 9.53-29.05s4.01-3.94 4.57-4.99c.04-.03.04-.08.04-.12.02-.05.02-.1 0-.11-.02-.03-.03-.06-.08-.04l-.04-.04c-2.86-.9-5.95 1.46-10.11 5.18-2.6 2.61-2.95 3.26-3.09 3.05.16-1.88 7.66-13.26 9.18-13.26.29 0 2.13-2.16 2.81-2.8.87-2.22-4.48 2.69-8.24 7.99-8.44 11.24-10.36 22.6-9.92 37.77.14 4.65-.2 8.3-.28 8.3-.36 0-2.54-5.41-3.63-8.92-2.75-8.88 1.47-27.39 8.63-36.76 1.23-1.58 4.22-5 4.7-5.77 1-1.94-4.95 4.77-7.12 8.07-.49.99-1.17 1.6-1.29 1.36-.11-.23.26-1.3.82-3.04A63.78 63.78 0 0 1 380.98 282c2.17-2.37 2.24-2.34.43-1.84-4.27 1.22-8.13 4.51-12.3 9.28-1.02 1.58-1.94 2.42-3.1 3.74.4-1.95 4.17-9.87 7.35-14.3 1.95-2.65 3.83-4.44 3.75-5.03-.08-.6-2.1.04-5.04 2.22-4.41 3.22-6.92 6.62-10.7 12.79-1.74 3.5-1.49 2.52-2.07 3.15 1.95-9.87 3.34-14.53 6.6-20.97 2.97-5.8 5.87-9.72 11.44-15.51 3.91-4.01 4.7-5.15 3.32-4.72-4.26 1.29-8.8 4.14-12.92 8.22-2.4 2.44-3.36 3.17-3.36 2.81 0-.36 1.16-2.35 3.55-6 5.07-7.73 12.4-15.77 19.84-20.7 3.7-2.51 9.52-5.27 8.87-5.7a.69.69 0 0 0-.31-.07c.39-.64-1.66-.2-6.84 1.4-5.13 1.57-10.64 4.63-16.2 8.93-2.16 2.01-1.74.35 3.55-4.88 2.82-2.86 7.16-6.34 9.33-7.56 3.62-2.15 3.33-2.64 1.02-2.14-5.43 1.07-15.87 7-18.9 10.8l-.05.03c-.13.05-.24.07-.43.16-1.64 1.01-3.23 3.28-2.85 2.3.38-.97 1.21-1.8 3.13-4.91 5.86-9.45 13.64-16.35 23.55-22.22 2.44-1.48 2.54-2.2.82-2.03zm-54.64 38.09.07-.04-.08-.08v.12zm48.94-35.4a.31.31 0 0 1 .2.08c.14.21-.78 1-2.15 1.79-2.68 1.72-11.72 10.6-14.61 14.46a84.4 84.4 0 0 0-10.31 18.6c-1.3 3.36-2.31 5.56-2.31 4.99-.07-1.57 1.98-12.14 2.77-14.93a10.75 10.75 0 0 0 .43-2.03c.37-.23.93-.86 1.88-2.34a59.08 59.08 0 0 1 3.67-4.95c1.62-2 6.66-7.27 6.52-7.4-.02-.03-.1.02-.15.03.5-.35 1-.73 1.76-1.28 4.74-3.5 11-7.06 12.3-7.02zm-23.79 3.86c.05 0 .1.02.12.08.14.43-.76 6.65-2.42 13.88-3.33 15.24-5.76 27.2-6.49 35.36-.5 5-.66 5.45-1.1 3.23-.35-1.36-.76-8.31-1.05-15.4-.5-14.03.06-18.12 3.68-25.92 2.03-4.5 6.47-11.18 7.26-11.23zm19.5 11.73c.21 0-1.73 1.94-4.27 4.37-10.34 9.59-17.88 22.5-22.22 38.24l-1.37 5 .43-4.65c.22-2.57.74-6.6 1.25-8.96.65-2.86 2.19-7.59 3.75-11.81 1.57-4.23 3.04-7.83 6.21-11 .7-.73 2.15-2.03 2.5-2.61.76-.54 1.9-1.36 3.95-2.96 2.9-2.3 8.68-5.62 9.76-5.62zm8.55 3.63c.34-.02.5.04.5.23 0 .15-1.9 1.46-4.14 2.97-5.5 3.57-15.7 14.1-19.53 19.76-3.47 5.15-8.73 15.27-10.97 21.72-2.03 5.94-1.9 2.74.27-5.77 1.95-7.52 6.82-18.71 10.47-24.14.68-.98 1.08-1.6 2.07-2.92.98-1.1 1.28-1.66 1.64-1.44.36.21 2.01-.8 3.75-2.22 3.8-3.2 13.57-8.07 15.94-8.2zm-48.48 5.34c.18-.06.43.25.86.86.5.71 1.9 4 3.13 7.37 3.33 9.3 7.74 34.19 6.36 35.55-.21.29-.43-.19-.43-.97 0-.8-1.6-6.47-3.55-12.56-5.65-17.32-7.6-25.89-6.88-28.96.22-.8.33-1.23.51-1.29zm37.27 15.36c.14 0-1.46 1.74-3.56 3.74-9.7 9.8-16.05 23.13-18.44 38.87-.57 3.94-1.4 7.44-1.75 7.8-.3.28-.85-1.3-1.14-3.59-.94-7.44 1.6-19.54 5.94-28.42.94-1.93 1.04-2.77 1.8-3.98.5-.43.99-1.43 1.87-2.6 3.24-3.56 8.56-8.88 12.03-10.46 1.67-.71 3.1-1.36 3.25-1.36zm-46.92 1.8 1.45 1.79c.8 1 2.82 3.72 4.41 6.08 3.04 4.44 11 20.12 11.8 23.27.29 1-.7-.57-2.23-3.43a96.85 96.85 0 0 0-7.46-11.3c-5.86-7.73-7.97-11.48-7.97-14.27v-2.15zm-1.64 10.4c.23-.02.5 0 .78 0 2.1 0 6.53 3.91 10.51 9.28 4.56 6.16 9.85 19.1 12.38 30.06 1.23 5.58 3.32 19.9 3.32 23.12v2.3l-1.17-2.15c-.65-1.21-1.57-4.81-2.15-8.1a142.3 142.3 0 0 0-7.46-26.75c-3.18-8.09-10-19.57-13.04-22.57a3.58 3.58 0 0 0-1.06-.78c-.49-.8-1.54-1.64-2.03-2.07-1.58-1.44-1.65-2.18-.08-2.34zm-3.55 1.21 1.72 1.05c2.4 1.7 3.33 2.39 2.77 4.56-.3 2.14-.66 4.2-1.1 4.84-.5 1-1.1.26-1.67-2.03-.44-1.57-.92-4.15-1.21-5.65l-.51-2.77zm47.54 9.55c.2.02.17.27-.16.78a30.4 30.4 0 0 0-3.16 3.9c-4.64 6.23-11.36 23.42-12.66 33.3-.72 5.15-1.6 2.79-1.68-4.3-.14-10.23 4.43-21.68 11.45-28.77 2.87-2.95 5.59-4.96 6.2-4.9zm-48.28 4.49c.67.14 2.7 2.11 7.54 6.94 4.48 4.58 9.28 10.06 10.66 12.35 2.75 4.66 5.64 11.47 6.37 14.97.36 2-.37 1.21-4.5-4.44a243.2 243.2 0 0 0-8.63-11.07c-7.81-9.02-10.7-13.46-11.64-17.9-.14-.58-.11-.92.2-.85zm53.51 1.9c.14 0-1.62 2.15-3.79 4.8a73.75 73.75 0 0 0-6.56 9.94c-2.9 5.73-7.2 18.7-8.71 26.78-1.6 8.3-1.73 8.15-1.37-1.09.65-17.75 7.04-32.1 16.95-38.4 1.81-1.07 3.34-2.02 3.48-2.02zm-52.77 12.75 2.19 1.13c1.23.65 4.16 2.75 6.48 4.68 2.39 2 4.55 3.37 4.84 3.08.36-.28.45-.23.24.2-.22.36 1.6 3.45 4.14 6.74 4.85 6.3 10.2 16.22 12.65 23.24.8 2.36 1.36 4.37 1.21 4.44-.07.14-2.23-3.14-4.76-7.29-5.5-9.09-12.01-17.17-16.64-20.82-2.53-2-4.42-4.46-6.95-9.04l-3.4-6.36zm57.03 9.44h.11a57.46 57.46 0 0 0-4.02 4.17c-3.62 3.94-7.74 11.3-9.26 17.82-1.66 7.44-1.11 26.56 1.06 34.58.8 2.93 1.4 5.42 1.25 5.5-.5.5-4.8-11.44-5.59-15.52-1.23-6.23-1.15-20.83 0-25.77 1.38-5.59 4.49-12.1 7.3-15.25 2.47-2.79 6.98-5.53 9.15-5.53zm-55.4 2.45c1.1.05 2.38.63 4.38 1.91 7.75 4.87 17.5 17.75 28.8 37.86 9.04 16.25 14.25 28.5 6.87 16.26-10.5-17.32-27.57-40.43-34.3-47.45-.7-.73-1.06-1.01-1.13-.97l-.12-.2a28.41 28.41 0 0 0-5.04-4.2c-2.9-1.8-2.97-2.52-.5-3.09a3.5 3.5 0 0 1 1.05-.12zm-2.73 3.28c.58 0 1.44.44 1.88 1.01.87 1.08.38 6.57-.7 7.21-.8.58-1.18-.26-1.76-4.48-.44-3-.28-3.74.58-3.74zm50.75 19.34s-.09 3.76-.16 8.42c-.65 19.9 6.24 36.64 19.92 48.8 8.18 7.23 17.43 11.18 32.19 13.69 4.92.86 9.42 1.58 10 1.8.58.2 7.39.91 6.95 1.63-.22.29.43.45 1.45.23 2.9-.5 11.87 1.45 14.25 1.52 3.7.08 27.78 5.08 33.36 7.06 1.96.79 6.21 5.71 6.21 7.21 0 .43-2.23.6-6.28.24-4.92-.36-7.47-1-11.96-3-9.33-4.16-22.35-7.11-38.2-8.54-8.18-.72-34.67-5.36-42.34-6.86a95.9 95.9 0 0 1-24.96-8.46c-9.27-4.51-14.49-8.01-20.28-13.45l-4.69-4.49 3.99 1.13c11.65 3.37 21.06 7.6 32.93 14.97 9.33 5.8 12.43 7.3 17.5 8.58 4.63 1.22 6.01 1.3 6.01.5 0-.28-2.38-1.28-5.35-2.14-20.19-6.22-35.39-27.06-35.39-48.46 0-3.57.36-7.87.86-9.66.73-2.8 3.7-10.72 3.99-10.72zm-46.96 2.3c.37.15.73.29 1.06.35 4.27.64 21.43 11.5 27.22 17.3 2.03 2 4.8 5.68 6.1 8.04l2.3 4.36-3.98-3.23a93.74 93.74 0 0 0-8.99-6.16c-2.82-1.65-8.8-6.95-14.02-11.9-3.68-3.43-7.62-7.13-9.69-8.76zm11.84 30.13c.3-.01.81.06 1.6.2 1.38.21 5.06 1 8.24 1.79 11.44 2.65 25.13 11.29 32.07 20.23l3.13 4.02-3.2-1.64c-1.74-.86-3.12-1.78-2.97-2.07.43-.71-6.8-6.73-10.7-8.8-1.96-1.08-7.46-3.29-12.31-5.07-8.83-3.15-14.05-5.76-15.78-7.76-.5-.63-.59-.88-.08-.9z" fill="#cab313" fill-opacity=".5"/><path d="M382.79 291.84c-1.59.55-4.01 2.87-5.6 4.04-3.16 2.35-3.59 3.2-.58 1.09 2.22-1.57 5.97-4.38 9.33-4.8.32-.04-1.33 1.61-2.2 2.55-1.19 1.33-.87 1.26 1.9-.55 1.82-1.17 3.32-2.27 3.32-2.42 0-.63-3.4-.93-6.17.1zm-48.8 53.38c0 1.79 22.19 18.15 23.2 17.15.15-.14-2.75-2.14-6.51-4.43-3.7-2.22-8.47-6.08-10.93-8.23-2.4-2.15-5.41-5.62-5.77-4.5z" fill="#cab313" fill-opacity=".5"/><g stroke="#d4af37" stroke-width=".9"><path d="M246.16 432.32c-5.48 1.69-12.84 2-16.37.69-1.28-.46-5.2-.2-6.18-.05 3.56 2.38 2.11 1.38 2.83 1.88 1.29.76.75.6 3.06 1.63-.4.45-.59.63-2.4 1.3 2.4.56 5.4.8 8.3.66a37.04 37.04 0 0 0 8.74-1.45c3.76-1.08 7.8-1.78 9-1.78 1.14 0 5.34 1.26 9.4 3.4 8.54 4.74 14.52 5.96 20.53 5.96 4.13 0 8.44-.92 13.33-4.11 3.6-2.36.56-2.3-3.03-.73-4.96 2-15.13 2.9-26.92-3.18-7.14-3.68-12.7-5.84-14.65-5.68-.38 0-2.93.69-5.64 1.46z" fill="#fff" transform="matrix(.83739 0 0 .82218 198.78 50.96)"/><path d="M219.86 429.49c1.46 1.23 1.25 1.47 3.79 3.53 3.55.34 10.64 1.1 13.27 1.1 2.33 0 6.82-.4 9.9-1.24 6.24-1.32 9.23-.93 20.57 4.05 13.15 6.76 20.53 5.53 27.3 2.22 9.42-3.58.25-2.04-3.17-3.03-1.13.38-2.57 1.84-5.26 2.82-3.75 1.36-5.76 1.32-10.27-.98-2.85-1.46-5.38-2.15-7.94-3.55-2.52-1.47-3.15-1.3-7.36-2.68l-6.2-1.22-9.38-.5c-8.11 1.7-16.09.4-21.5-1.28-5.4-1.7-6.38-1.4-3.75.76z" fill="#d91023" transform="matrix(.83739 0 0 .82218 198.78 50.96)"/><path d="M244.35 436.83c-6.46 1.92-14.34 2.02-17.27.94-1.53.62 0-.02-3.84 1.36-5.03 1.7-5.1 1.77-2.93 2.39 1.28.38 6.31.69 11.27.61 8.56 0 9.31-.15 14.05-2.46 2.78-1.38 5.86-2.46 6.9-2.46.98 0 4.61 2.07 7.76 3.68 8.8 4.61 12.14 5.97 19.42 5.9 7.3-.08 16.7-5.3 17.87-7.08-5.6 3.4-10.23 5.16-17.31 4.87-7.09-.28-12.56-2.83-19.77-6.9-5.78-3.23-7.81-3.3-16.15-.85z" fill="#d91023" transform="matrix(.83739 0 0 .82218 198.78 50.96)"/><g stroke-width=".81"><path d="M293.47 417.69c1.22-1.4.85-1.92-2.49-2.38-8.29-1.32-18.86-6.3-23.11-10.89-2.13-2.33-3.12-2.57-3.12-.7 0 1.94 6.77 8.09 11.63 10.58 4.26 2.25 11.67 4.72 14.49 4.72.83 0 1.92-.48 2.6-1.33z" fill="#fff" transform="matrix(-.29524 -.60606 -1.27207 .31586 1043.35 433.95)"/><path d="M290.67 421.4c.24-.4-.4-2.4-3.11-2.97-6.68-1.38-14.16-5.29-18.93-9.84-3.58-3.5-5.33-3.85-4.14-.67 1.62 4.57 14.32 11 19.26 12.54 5 1.63 6.2 2.08 6.92.94z" fill="#d91023" transform="matrix(-.29524 -.60606 -1.27207 .31586 1043.35 433.95)"/><path d="m295.46 415.37.82-1.4-4.03-2.54c-4.6-.59-12.94-3.6-18.55-6.77-2.52-1.4-5.25-2.57-6.11-2.57-1.51 0-1.61 0 .11 1.91 3.96 4.34 14.34 9.4 21.75 10.43 2.37.36 4.78 2.04 6 .94z" fill="#ed1c24" transform="matrix(-.29524 -.60606 -1.27207 .31586 1043.35 433.95)"/><path d="M293.47 417.69c1.22-1.4.85-1.92-2.49-2.38-8.29-1.32-18.86-6.3-23.11-10.89-2.13-2.33-3.12-2.57-3.12-.7 0 1.94 6.77 8.09 11.63 10.58 4.26 2.25 11.67 4.72 14.49 4.72.83 0 1.92-.48 2.6-1.33z" fill="#fff" transform="matrix(.33397 -.58616 1.24895 .39558 -143.25 396.1)"/><path d="M288.92 420.62c.15-.26 1.32-1.57-1.36-2.19-6.68-1.38-14.16-5.29-18.93-9.84-4.24-4.6-6.35-5.55-4.14-.67 1.62 4.57 14.32 11 19.26 12.54 5 1.63 4.46 1.3 5.17.15z" fill="#d91023" transform="matrix(.33397 -.58616 1.24895 .39558 -143.25 396.1)"/><path d="m295.46 415.37.82-1.4-4.03-2.54c-4.6-.59-12.94-3.6-18.55-6.77-2.52-1.4-5.25-2.57-6.11-2.57-1.51 0-1.61 0 .11 1.91 3.96 4.34 14.34 9.4 21.75 10.43 2.37.36 4.78 2.04 6 .94z" fill="#ed1c24" transform="matrix(.33397 -.58616 1.24895 .39558 -143.25 396.1)"/></g><path d="M319.68 402.7c-6.36 1.81-11.43 5.84-16.67 13.13-2.07 2.88-4.03 4.34-2.63 5.04 1.54.77 2.9-1.4 5.66-4.15 6.96-6.96 12.47-9.9 20-9.98H332l-1.78-2.47c-2.17-2.98-4.58-3.3-10.54-1.57zm-50.45 2.38c-1.27 1.47-.9 2 2.6 2.5 8.68 1.38 19.73 6.58 24.19 11.38 2.23 2.44 3.26 2.69 3.26.74 0-2.04-7.08-8.46-12.17-11.07-4.45-2.36-12.2-4.94-15.15-4.94-.88 0-2.01.5-2.73 1.4z" fill="#fff" transform="matrix(.83696 .02647 -.0267 .82176 210.87 47.25)"/><path d="M318.58 399.54c-1.7.57-4.1 1.65-5.42 2.3-3.57 1.99-9.02 8.38-9.84 9.59-.87 1.29-2.14 2.8-3 4.19-1.27 2.07-1.48 3.2-.84 3.33.63.12 2.11-.76 3.52-2.73 6.02-8.45 11.55-12.23 19.77-13.88 4.26-.82 4.88-.82 6.35.66 1.16 1.08-.33-.23-.57-.98-.54-1.81-1.9-2.73-4.54-3.23a13.3 13.3 0 0 0-5.43.75z" fill="#d91023" transform="matrix(.83696 .02647 -.0267 .82176 210.87 47.25)"/><path d="M271.99 403.32c-.24.4 1.83 1.14 4.53 1.7 6.68 1.4 14.16 5.3 18.93 9.85 3.58 3.5 5.33 3.85 4.14.67-1.62-4.57-14.33-11-19.26-12.54-5-1.63-7.63-.82-8.34.32zm48.53 4.06a39.3 39.3 0 0 0-13.64 8.5c-3.96 3.89-5.74 6.36-4.19 6.36.31 0 2.71-1.9 4.34-3.3 7.06-6.03 19.77-9.42 25.42-7.36 2.72 1 1.44-2-.42-4.73-1.16-1.74-8.02-.7-11.51.53zm-53.1-.26-3.3 3.14 4.92.79c5.1.65 14.32 3.99 20.53 7.48 2.78 1.55 5.8 2.85 6.76 2.85 1.67 0 1.78 0-.13-2.11-4.38-4.8-15.86-10.4-24.05-11.54-2.63-.4-3.37-1.84-4.73-.62z" fill="#d91023" transform="matrix(.83696 .02647 -.0267 .82176 210.87 47.25)"/><path d="M304.5 422.39a33.65 33.65 0 0 0-.98 14.14c1.6-.2 2.66-.24 5.27-.73.28-2.2.69-4.74.58-7.43.33-3.7-.02-1.77 2.18-4.74-2.38-1.53-3.01-1.66-7.06-1.24z" fill="#d91023" transform="matrix(.83739 0 0 .82218 197.93 53.42)"/><path d="M296.2 428.63c-.08 4.21.32 5.13.27 7.13 2.36.39 7.42 1.07 7.12.23.02.92-.07-4.91 0-7.99l.86-5.53-3.6-.55-3.22.4-1.43 6.3z" fill="#fff" transform="matrix(.83739 0 0 .82218 197.93 53.42)"/><path d="M291 428.83c.15 3.34-.53 4.48-.13 6.44 1.05.32 5.05.19 6.29.57-.18-4.35-.18-.55-.6-6.23l1.27-7.28-3.6.28s-2.22-.69-3.73-.72c1.3 2.28.5 6.94.5 6.94z" fill="#d91023" transform="matrix(.83739 0 0 .82218 197.93 53.42)"/></g></svg>