<svg xmlns="http://www.w3.org/2000/svg" viewBox="0 0 1200 660"><path d="M0 0h1200v660H0z" fill="#0038a8"/><path d="M0 0h1200v440H0z" fill="#fff"/><path d="M0 0h1200v220H0z" fill="#d52b1e"/><path d="M683.66 329.98A83.66 83.66 0 1 1 600 246.34a83.66 83.66 0 0 1 83.66 83.64z" fill="#fff" stroke="#000" stroke-miterlimit="10" stroke-width="3.69"/><path d="M640.45 317.02c-2.03-.08-2.05 2.16-2.05 2.16s.07-.66.02.09c-.04.74.33 2.55 1.83 2.7 1.58.14 2.1-1.71 2.12-2.61 0-.36-.11-2.3-1.92-2.34" fill="#009b3a" stroke="#000" stroke-width=".98"/><path d="m547.52 363.47-.72-1.19a4.62 4.62 0 0 0-.56-.67.82.82 0 0 0-.55-.28.99.99 0 0 0-.66.13.93.93 0 0 0-.49.68 1.91 1.91 0 0 0 .4 1.2l.72 1.24zm7.08-.41-9.1 5.41-2.78-4.67a7.86 7.86 0 0 1-.95-2.12 2.37 2.37 0 0 1 .15-1.6 2.92 2.92 0 0 1 1.23-1.31 3.15 3.15 0 0 1 1.48-.46 2.98 2.98 0 0 1 1.43.37 4.56 4.56 0 0 1 .95.76 3.46 3.46 0 0 1-.1-.93 5.96 5.96 0 0 1 .21-.73 7.1 7.1 0 0 1 .32-.73l1.83-2.93 1.88 3.18-1.88 3.16a2.6 2.6 0 0 0-.4.92 1.49 1.49 0 0 0 .2.8l.16.27 3.68-2.2zm-16.02-7.41-2.78-8.3 2.14-.72 1.74 5.2 1.6-.54-1.63-4.83 2.06-.67 1.61 4.8 1.97-.63-1.77-5.36 2.27-.77 2.82 8.46zm.3-16.9-.12-.78a2.03 2.03 0 0 0-.47-1.28 1.14 1.14 0 0 0-.9-.28 1.3 1.3 0 0 0-.79.41 1.63 1.63 0 0 0-.19 1.28l.1.94zm-4.12 3.79-.63-5.4a3.8 3.8 0 0 1 .52-2.73 3.21 3.21 0 0 1 2.3-1.15 3.26 3.26 0 0 1 2.6.66 4.28 4.28 0 0 1 1.23 2.82l.2 1.77 3.9-.45.38 3.26zm-.37-20.64.34-3.25 6.28.68a5.51 5.51 0 0 1 1.71.48 3.55 3.55 0 0 1 1.37 1.07 3.76 3.76 0 0 1 .73 1.4 6.51 6.51 0 0 1 .1 2.31 11.89 11.89 0 0 1-.3 1.66 4.27 4.27 0 0 1-.59 1.47 3.84 3.84 0 0 1-1.01 1.03 3.33 3.33 0 0 1-1.3.55 5.82 5.82 0 0 1-1.8.1l-6.26-.65.34-3.26 6.41.7a1.7 1.7 0 0 0 2.03-1.6 1.78 1.78 0 0 0-.34-1.37 1.82 1.82 0 0 0-1.3-.62zm10.53-8.9.56-1.56a1.92 1.92 0 0 0 .1-1.23.98.98 0 0 0-.64-.58.9.9 0 0 0-.83.07 1.86 1.86 0 0 0-.67 1.03l-.56 1.57zm-3.93-1.37.48-1.33a1.58 1.58 0 0 0 .08-1.1.87.87 0 0 0-.6-.52.9.9 0 0 0-.78.04 1.57 1.57 0 0 0-.58.9l-.5 1.36zm-5 1.76 2.01-5.79a3.42 3.42 0 0 1 1.5-1.97 2.52 2.52 0 0 1 2.05-.15 2.56 2.56 0 0 1 1.32 1.1.98.98 0 1 0 1.72.04 2.61 2.61 0 0 1 1.78.04 2.94 2.94 0 0 1 1.26.84 3.14 3.14 0 0 1 .64 1.34 3.72 3.72 0 0 1-.1 1.27c-.16.75-.26 1.22-.34 1.44l-1.86 5.33zm5.4-13.56 1.7-2.79 6.82 4.13 2.65-4.36 2.22 1.36-4.32 7.14zm6.98-10.4 2.1-2.5 8.07 6.82-2.1 2.5zm14.66-5.69 2.75-1.18a5.47 5.47 0 0 1 .58 2.14 4.1 4.1 0 0 1-.4 1.92 6.47 6.47 0 0 1-1.52 1.81 6.98 6.98 0 0 1-2.5 1.42 4.66 4.66 0 0 1-2.6-.15 6.16 6.16 0 0 1-2.66-1.97 5.56 5.56 0 0 1-1.5-3.99 6.28 6.28 0 0 1 5.07-5 4.63 4.63 0 0 1 2.89.81l-1.81 2.35a2.19 2.19 0 0 0-.7-.34 1.59 1.59 0 0 0-.88-.01 1.85 1.85 0 0 0-.8.4 1.92 1.92 0 0 0-.74 1.78 3.88 3.88 0 0 0 .98 1.88 4.03 4.03 0 0 0 1.95 1.51 2.09 2.09 0 0 0 2.33-1.75 3.25 3.25 0 0 0-.43-1.63m10.7-6.35-2.77-2.86.7 3.92zm1.64 1.73-3.3 1.69.33 1.79-2.98 1.51-1.26-11.23 3.18-1.62 8.35 7.62-3.04 1.56zm12.86-11.02.81 5.71.8-.12a3.3 3.3 0 0 0 1.42-.42 1.56 1.56 0 0 0 .55-.9 4.66 4.66 0 0 0 0-1.84 3.58 3.58 0 0 0-.87-2.2 2.34 2.34 0 0 0-1.9-.34zm-3.56-1.91 4.8-.7a5.84 5.84 0 0 1 2.33.07 3.84 3.84 0 0 1 1.63.9 4.6 4.6 0 0 1 1.05 1.55 7.46 7.46 0 0 1 .55 2 6.49 6.49 0 0 1 0 2.64 4.47 4.47 0 0 1-.84 1.72 3.52 3.52 0 0 1-1.34 1.03 7.32 7.32 0 0 1-1.9.58l-4.82.67zm14.4-2.05 8.72.65-.16 2.25-5.47-.41-.12 1.68 5.06.37-.18 2.15-5.04-.36-.15 2.06 5.62.42-.17 2.38-8.9-.66zm13.44 1.23 3.14.88-2.17 7.68 4.9 1.39-.71 2.49-8.05-2.28zm17.84 11.73.67.44a2.11 2.11 0 0 0 1.28.46.98.98 0 0 0 .78-.49 1.3 1.3 0 0 0 .2-.9 1.77 1.77 0 0 0-.86-.95l-.78-.53zm-.26-5.56 4.54 3a3.68 3.68 0 0 1 1.74 2.16 3.1 3.1 0 0 1-.58 2.5 3.21 3.21 0 0 1-2.18 1.54 4.18 4.18 0 0 1-2.95-.85l-1.5-1-2.14 3.28-2.74-1.81zm11.47 16.12 1.84-3.53-3.5 1.9zm-1.12 2.1-2.65-2.6-1.6.87-2.37-2.34 4.88-2.25 5.38-2.5 2.53 2.5-4.6 10.34-2.43-2.4zm9.82 4.58.75 1.18a4.37 4.37 0 0 0 .58.66.87.87 0 0 0 .57.25.91.91 0 0 0 .63-.16 1 1 0 0 0 .48-.69 1.94 1.94 0 0 0-.43-1.18l-.76-1.2zm-7.07.63 8.92-5.69 2.92 4.59a9 9 0 0 1 1.06 2.08 2.58 2.58 0 0 1-.14 1.6 2.93 2.93 0 0 1-1.17 1.34 2.78 2.78 0 0 1-1.5.5 3.22 3.22 0 0 1-1.43-.29 5.46 5.46 0 0 1-.96-.75 3.7 3.7 0 0 1 .14.92 5.74 5.74 0 0 1-.19.73 3.88 3.88 0 0 1-.32.75l-1.72 2.99-2-3.12 1.8-3.2a2.22 2.22 0 0 0 .36-.95 1.18 1.18 0 0 0-.23-.8l-.14-.24-3.63 2.3zm12.5 14.24 3.17-2.4-3.96.23zm-1.92 1.42-1.27-3.5-1.8.12-1.15-3.13 11.3.13 1.22 3.33-8.58 7.36-1.18-3.23zm5.06 11.24 2.18-.28.63 5.04-4.48.54a10.04 10.04 0 0 1-1.64-2.38 8.27 8.27 0 0 1-.69-2.58 6.09 6.09 0 0 1 .27-3.12 4.43 4.43 0 0 1 1.66-2.08 6.43 6.43 0 0 1 2.8-1 5.92 5.92 0 0 1 3.07.34 4.64 4.64 0 0 1 2.2 1.82 6.56 6.56 0 0 1 .86 2.82 7.28 7.28 0 0 1 0 2.63 3.17 3.17 0 0 1-.8 1.56 4.1 4.1 0 0 1-1.55 1.06l-.95-3.05a1.7 1.7 0 0 0 .82-.78 2.17 2.17 0 0 0 .18-1.2 2.25 2.25 0 0 0-.95-1.62 3.65 3.65 0 0 0-2.44-.34 3.81 3.81 0 0 0-2.35.94 2.42 2.42 0 0 0-.5 1.89 3.41 3.41 0 0 0 .28 1 6.6 6.6 0 0 0 .68 1.1l1-.15zm6.7 15.86-.38 3.24-6.25-.7a5.3 5.3 0 0 1-1.73-.5 3.8 3.8 0 0 1-1.35-1.07 3.75 3.75 0 0 1-.72-1.38 6.88 6.88 0 0 1-.09-2.33c.07-.5.17-1.06.3-1.66a4.27 4.27 0 0 1 .61-1.47 4.13 4.13 0 0 1 1.01-1.01 3.65 3.65 0 0 1 1.3-.54 5.52 5.52 0 0 1 1.81-.1l6.27.71-.38 3.23-6.4-.74a1.85 1.85 0 0 0-1.4.33 1.78 1.78 0 0 0-.62 1.26 1.76 1.76 0 0 0 .32 1.37 1.92 1.92 0 0 0 1.28.65zm-9.74 12.03 3.98.14-3.21-2.34zm-2.36-.12 1.2-3.5-1.47-1.06 1.1-3.16 8.69 7.22-1.2 3.38-11.26.28 1.1-3.24zm5.83 9.73-1.84 3.13-4.16.01 2 3.66-1.83 3.1-3.22-6.67-3.8-2.24 1.67-2.83 3.8 2.26z"/><path d="M670.01 330a70.03 70.03 0 1 1-70.02-70.01A70.03 70.03 0 0 1 670 330z" fill="none" stroke="#000" stroke-miterlimit="10" stroke-width="1.48"/><path d="M652.1 329.75a52.11 52.11 0 1 1-52.12-52.1 52.1 52.1 0 0 1 52.11 52.1z" fill="none" stroke="#000" stroke-miterlimit="10" stroke-width="1.48"/><path d="m599.99 311.01 4.38 12.53 13.24.3-10.55 8.03 3.83 12.7-10.9-7.55-10.9 7.55 3.81-12.7-10.57-8.03 13.27-.3z" fill="#fedf00" stroke="#000" stroke-width=".6"/><path d="M624.05 365.73a8.87 8.87 0 0 1-2.69.65c-.47.06-2.34.08-3.13.1-.44.04-1.27.16-1.71.16-3.83-.44 6.22-.38 7.53-.91m-10.03-2.96c.25-.45 1.5-3.24 1.96-4.03s1.5-2.86 2.12-3.72c.32-.47 1.57-1.83 1.86-1.22-2.17 1.88-3.89 5.16-4.8 7.37a18.19 18.19 0 0 1-1.1 1.79c-.25.31-.15.9-.55.96-.42.05-.12.13-.12.13s.36-.81.63-1.28zm14.43 2.13a19.17 19.17 0 0 1-2.8-.63 14.36 14.36 0 0 0-4.39-.6 12.04 12.04 0 0 0-4.13.94 10.28 10.28 0 0 1-2.83.5s-.9.14-.48-.06c.4-.2 1.8-1.3 1.8-1.3l.9-1.23c.26-.07 4.84-6.08 4.34-7.69.7-1.18 1.52-3.3 1.22-3.67a13.23 13.23 0 0 0-4.32 1.76 7.45 7.45 0 0 0-1.74 3.22c-.25.89-1.56 1.63-1.56 1.63-1.07.77-1.85 3.2-2.21 5.19-.37 1.96-5.2 3.05-5.2 3.05s-1.35.5-.16.88c.2.06.74.96 1.17.97.59.07 3.6-1.22 4.06-1.11q1.53.34 3.03.82a4.44 4.44 0 0 0 2.9.3 5.92 5.92 0 0 1 2.84-.01 5.17 5.17 0 0 0 2.37-.07 18.9 18.9 0 0 0 2.15-1.04s1.69-.73 2.66-1.19.39-.66.39-.66" fill="#009b3a" stroke="#000" stroke-width=".75"/><path d="M615.3 370.75s-6.67-3.5-7.02-3.57c-.21-.03-3.03-1.58-4.31-1.98a8.96 8.96 0 0 0-2.68-.35 19.98 19.98 0 0 0-2.89.56l1.66.67s1.55.77 2.31 1.17c1.09.58 1.14 1.28 1.14 1.28l6.03 2.65 1.23.88s1.11-1.53 4.53-1.32" fill="#009b3a" stroke="#000" stroke-width=".6"/><path d="M622 356.9c2.1-1.87 3.12-4.53 4.85-6 .28.2.28.53-.07 1.12-.32.58-.76.78-.95 1.08a24.75 24.75 0 0 0-1.68 1.87 3.61 3.61 0 0 1-1.5 1.72c-.9.54-.62 1.41-.7 1.77-.07.4-1.47 1.4-2.15 2.65-.13 1.3-.18.75-.97 1.2a54.56 54.56 0 0 0 3.17-5.41m-4.71 5.92c-.14.28-4.27 2.63-2.98 2.28s5.1-1.72 6.2-2.2c1.32-.58 2.12-1.8 3.11-2.78 1.02-1.01 4.17-4.02 4.71-5.18.53-1.2 1.02-2.85-1.12-6.58a4.79 4.79 0 0 1-1.12 1.4 20.86 20.86 0 0 1-1.96 1.5l-1.37 1.3s-4.83 8.88-5.47 10.26" fill="#009b3a" stroke="#000" stroke-width=".79"/><path d="M634.09 359.7s-2.65-.24-2.88-.24c-.25 0-1.7-.2-3.8-.2a4.05 4.05 0 0 0-3.43 1.31c-.6.65-2.24 2.16-2.24 2.16l.89-.08a5.5 5.5 0 0 1 4.42-1.09 9.46 9.46 0 0 0 3.63-.7c2.15-.76 2.02-.05 1.79.02a11.13 11.13 0 0 1-3.2.64c-1.6.09-3 .4-3.62.4s-5.29 1.28-5.29 1.28 5.04.3 5.59.47a2.83 2.83 0 0 0 2.08-.22 15.06 15.06 0 0 1 3.6-1.24 7.07 7.07 0 0 0 1.75-.7 3.34 3.34 0 0 0 .98-1.17c.49-.87-.27-.64-.27-.64m2.47-13.8a10.53 10.53 0 0 1 1.96-3.38 6.79 6.79 0 0 1 1.87-.85c.2-.07 1.65-.14-.16.36a3.75 3.75 0 0 0-2.21 1.4 10.84 10.84 0 0 1-2.36 4.4 8.84 8.84 0 0 0-1.41 2.08l-.92.32c1.69-1.04 2.43-2.96 3.23-4.34zm8.2-1a4.79 4.79 0 0 0-1.3.6c-2.16.64-3.05 2-4 3.1-.47.58-1.15 1.01-3.43 1.99a18.23 18.23 0 0 0-3.73 2.28s-.66.13-.54.45c.05.15.62.03.62.03s4.29-.61 6.07-1.7a7.82 7.82 0 0 0 2.87-2.9c.49-.75 1.03-2.14 1.06-1.24.08 2.37-3.6 4.67-5.21 5.38a16.84 16.84 0 0 1-3.5.76c-1.48.28-2.38.2-2.27-.13.15-.47.32-.57.71-1.04.7-.84 2.41-1.14 3.67-1.72a10.92 10.92 0 0 0 3.6-2.48 4.31 4.31 0 0 0 1.16-1.88c.55-1.86.58-2.9 1.1-3.57 1.8-2.23 2.07-2.95 2.16-3.94.02-.23-.94.52-1.44.8a10.64 10.64 0 0 1-3.34 1.1c-2.03.5-1.98 1.82-2.3 2.43a4.93 4.93 0 0 1-1.3 1.47 7.5 7.5 0 0 0-1.72 2.4c-.26.6-.73 1.04-1.11.99-.4-.08.76-4.4 1.01-5.11a9.2 9.2 0 0 0 .33-2.57c0-.45.02-1.62-.77-1.75s-.81-1.21-.81-1.21c-1.88 1.62-.83 4.48-.63 6.18a21.51 21.51 0 0 1-.38 4.8c1.8.78.38 2.98-.18 3.69-.6.72-1.72.85-2.22 1.5-.53.65-4.33 5.94-4.33 5.94l4.72-1.34s.44.08-.26-.46c-.72-.51.23-2.5.83-2.98a2.95 2.95 0 0 1 2.73-.25 10.25 10.25 0 0 0 4.88-.73c2.24-.88 3.2-2.32 4.27-3.4a27.73 27.73 0 0 0 2.3-3.7c.4-.66 1.12-1.93.68-1.78" fill="#009b3a" stroke="#000" stroke-width=".75"/><path d="M631.36 357.6c.36-.15.41-.21 1.07-.93a1.15 1.15 0 0 0-.92-1.89c-.5.03-1.02-.08-1.99 1.22-.93 1.3.45 1.78.98 1.83a2.17 2.17 0 0 0 .86-.23" fill="#009b3a" stroke="#000" stroke-width=".84"/><path d="M628.92 349.36c-.63 1.05-.96 2.25-.47 2.62a2.04 2.04 0 0 0 .91.45 3.17 3.17 0 0 0 1.98-1.4c.59-.88 1.07-1.84-.13-2.44a1.6 1.6 0 0 0-2.3.77" fill="#009b3a" stroke="#000" stroke-width=".86"/><path d="M632.5 336.58s.1-.16-.32-.59a17.57 17.57 0 0 1-1.47-1.86 3.47 3.47 0 0 0-1.73 2.72 16.2 16.2 0 0 1 .02 3.2 10.36 10.36 0 0 1-.78 2.58 4.91 4.91 0 0 0 .24 3.6c.1.51.64 2.12.64 2.12a4.06 4.06 0 0 1 .68-.37 5.31 5.31 0 0 1 .9-.02 7.1 7.1 0 0 0 .8-2.2 16.55 16.55 0 0 0-.35-3.07 8.66 8.66 0 0 1-.1-4.05 3.82 3.82 0 0 1 1.46-2.06" fill="#009b3a" stroke="#000" stroke-width=".75"/><path d="M634.43 338.77a1.89 1.89 0 0 0 1.1-.84 2.84 2.84 0 0 0 .35-1.67 1.5 1.5 0 0 0-2.68-.42c-1.37 2.8 1.23 2.93 1.23 2.93" fill="#009b3a" stroke="#000" stroke-width=".83"/><path d="M638.32 334.71c-1.7.1-2.55 3.15-2.55 3.15a3.02 3.02 0 0 1-1.18 1.35c-.97.6-.4 1.45-.4 2.98a15.94 15.94 0 0 1-1.06 4.22l-.4.91s.03.69.65-.56c1.06-2.1 2.22-1.59 2.65-3.84.28-1.68 3.06-2.22 3.06-2.22l-.78-.14c-2.89-1.35.16-4.73.66-5.33.52-.6 1.02-.6-.66-.52" fill="#009b3a" stroke="#000" stroke-width=".98"/><path d="M637.83 338.35c-.78 1.67 1.44 1.75 1.95 1.46a4.8 4.8 0 0 0 .68-.68c.9-1.3.07-2.17-.4-2.3-.45-.14-1.41-.26-2.23 1.52" fill="#009b3a" stroke="#000" stroke-width=".84"/><path d="M633.61 331.85c.58 1.09 2.21 4.1 2.6 3.92.23-.12.04-.73.04-.73a10.1 10.1 0 0 0-.31-1.81c-.26-1-.2-2.27-.72-3.09s-1.71-1.78-2.19-3.07a10.75 10.75 0 0 1-.06-4.04c.05-.29.2-.1-.06-.4a17.51 17.51 0 0 0-2.3-1.4 13.58 13.58 0 0 1 .06 2.24c-.02.35-.12.76-.17 1.37-.05.57.3 1.3 1.14 2.97.98 1.92 1.45 3.1 1.97 4.04m12.34-14.36a12.52 12.52 0 0 1-.8 1.2c-.22.23-3.57 3.1-3.76 3.23-.17.12-1.92.68-3.5 4.99a17.71 17.71 0 0 0-.91 8.3l.77-.1.14-.42.46-2.5c.22-1.07 1.41-2.56 2.2-3.66a14.95 14.95 0 0 0 1.37-2.62 39.34 39.34 0 0 1 2.22-4.69c.04 1.5-5.68 10.75-6.29 13.89l1.7-.26a41.73 41.73 0 0 0 4.31-5.5 14.78 14.78 0 0 0 1.94-5.46c.2-1.15.16-6.4.16-6.4" fill="#009b3a" stroke="#000" stroke-width=".75"/><path d="M634.56 318.44a5.06 5.06 0 0 0-1.53-1.03 25.25 25.25 0 0 1 .2 2.52c0 .95.09 2.56.04 3.42-.04.85-.46 2.27.14 3.65a24.57 24.57 0 0 0 1.82 2.92 39.8 39.8 0 0 1 1.28 5.22 69.42 69.42 0 0 1-.04-7.59 16.55 16.55 0 0 0-.05-5.49 8.94 8.94 0 0 0-1.86-3.62m3.94-5.77a9.57 9.57 0 0 0 1.13-3.15 17.64 17.64 0 0 0 .13-2.52c-.02-.51-.22-1.4 0-1.45.2-.05.03.27.14 1.02.05.27-.13 1.01-.16 1.96a8.2 8.2 0 0 1-.42 2.42c-.29.9-.02 1.9-.2 2.19s-.72 1.37-.72 1.37a4.79 4.79 0 0 0-.26 1.67 61 61 0 0 0 .07 1.7 1.73 1.73 0 0 1 1.22-.81s.2-1.37.2-1.8a30.53 30.53 0 0 1 .82-4.1 11.8 11.8 0 0 0 .05-5.96 26.8 26.8 0 0 1-.3-2.83s-.8.64-1.28 3.09c-.15.74.17 2.74.04 4.86a47.06 47.06 0 0 1-1.32 6.22" fill="#009b3a" stroke="#000" stroke-width=".75"/><path d="m638.5 312.67-.05.1a.22.22 0 0 0 .05-.1" fill="#009b3a" stroke="#000" stroke-width=".75"/><path d="M635.32 300.33c.43 0 .43.47.34.84a8.71 8.71 0 0 0-.06 1.23 13.08 13.08 0 0 0 .33 1.7 3 3 0 0 1 .3 1.8c-.08.68-.78 1.48-.53 2.64a11.25 11.25 0 0 0 .78 1.77 8.46 8.46 0 0 1 .14 1.98 2.12 2.12 0 0 0 .4 1.2s-.48.9-.64-.24a9.7 9.7 0 0 0-.48-2.46 5.34 5.34 0 0 1-.15-4.03 3.75 3.75 0 0 0 .19-1.31c0-.58-.36-1.57-.43-2.18-.06-.49-.02-1.52-.02-1.89m-2.26 5.44a8.37 8.37 0 0 0 1.17 2.75 17.07 17.07 0 0 1 .92 2.3 7.73 7.73 0 0 1 .19 1.08c0 .14.1 1.14.1 1.14v.42s-2.3-1.33-3.3-2.05-2.14-1.7-2.87-2.3c-.82-.68-2.78-3-2.8-4.87l-.9-.82a7.75 7.75 0 0 0 2.55 6.82 16.24 16.24 0 0 0 4.14 2.6c2.18 1.01 1.9 1.91 2.8 3.85a28.97 28.97 0 0 1 1.58 3.61c.07.59-.25 8.86-.25 8.86l.08.75s2-7.66 2.95-8.52c0 0-1.9-.29-1.75-3.28l-.33-1.98a7.88 7.88 0 0 1 .33-3.85 14.02 14.02 0 0 0 .56-5.03l-.42-3.15a47.28 47.28 0 0 0-1.18-5.42 13.08 13.08 0 0 0-.72-2.03c-.1-.3-.28-1.26-.6-1.27-.17-.01-.44 1.24-.44 1.24s-.4 1.36-.48 1.73a21.34 21.34 0 0 0-1.15 4.5c-.05.44-.1 1.65-.15 1.8a4.59 4.59 0 0 0-.03 1.13" fill="#009b3a" stroke="#000" stroke-width=".75"/><path d="M634.93 317.27a5.48 5.48 0 0 0-.67-1.12c-.68-.8-1.6-1.48-4.2-2.75-2.6-1.3-3.28-3.42-4.6-4.3a5.58 5.58 0 0 0-1.79-.62s1.16 1.59 1.43 2.14a6.3 6.3 0 0 0 1.87 2.5 9.97 9.97 0 0 0 4.27 2.14 16.85 16.85 0 0 1 3.7 2m-8.19-12.29a14.1 14.1 0 0 0 2.15 4.27c2.15 2.72 6.29 4.66 6.29 4.66a18.3 18.3 0 0 0-1.6-4.5c-1.89-3.05-6.86-4.54-6.86-4.54s-.09-.11.02.11m5.93 1.29c1.12-2.44-2.2-4.77-3.15-6.47.35-.28.76.44 1.14.93.55.72 2.08 2.82 2.08 2.82l.48-2.24-3.96-3.6c-.05.53-1.28.96-1.28.96-.59 3.33 4.7 7.6 4.7 7.6" fill="#009b3a" stroke="#000" stroke-width=".75"/><path d="M625.79 300.61a3.95 3.95 0 0 1-1.3.43l.54 1.41.3.39s1.25 1.8 1.97 2.02a11.72 11.72 0 0 1 6.34 3.45s-3.88-4.38-5.37-7.67l-.5-1.89-1.4.1s.38 1.32-.58 1.76" fill="#009b3a" stroke="#000" stroke-width=".75"/><path d="M611.25 297.8a13.86 13.86 0 0 0 2.11 1.58 19.15 19.15 0 0 0 5.18 2.32l2.75.36a1.3 1.3 0 0 1 1.2-1.11l-3.29-.36a8.87 8.87 0 0 1-6.24-3.08c2.11 1.28 5.14 3.29 7.6 3.18 10.07-.99-3.04-1.24-4.18-1.97a10.77 10.77 0 0 1-2.23-1.98l-2.96-.13s-1.45-.09.06 1.2" fill="#009b3a" stroke="#000" stroke-width=".75"/><path d="M623.11 303.55c.66-.05 1.11-.17 1.26-.89a1.26 1.26 0 0 0-1.13-1.59 1.47 1.47 0 0 0-1.86.8c-.41.97 1.1 1.6 1.1 1.6a1.36 1.36 0 0 0 .64.08m1.13-5.78c-.86 0-1.15.7-.96 2.06.22 1.36 2.31.77 2.31.77l.39-.2s.28-.22.13-1.31c-.15-1.12-1.02-1.32-1.88-1.32m3.43.96h-.03.03" fill="#009b3a" stroke="#000" stroke-width=".75"/><path d="M627.64 298.73a1.99 1.99 0 0 1 .3-.1c.43-.17.87-1.21.87-1.21a1.47 1.47 0 0 0-.79-1.77c-1.7-.34-1.75 1.16-1.75 1.16-.47 1.95 1.11 1.93 1.36 1.92m-7.6-6.7a4.71 4.71 0 0 0 1.16 1.75 22.13 22.13 0 0 1 1.74 1.92c.4.55 1.71 3.04 1.71 3.04a.49.49 0 0 0 .33-.23c.23-.38-.88-3.4-1-3.61a8.52 8.52 0 0 0-1.74-2.32 16.07 16.07 0 0 1-1.31-1.56 62.53 62.53 0 0 1 5.15 7.79s-.1-2.06-.22-3.16a9.43 9.43 0 0 0-1.49-4.68 5.21 5.21 0 0 0-2.54-2.02c-.87-.3-1.89-.74-2.98-1.09-1.13-.34-.26.68.16 1.55a10.13 10.13 0 0 1 1.03 2.62" fill="#009b3a" stroke="#000" stroke-width=".75"/><path d="M615.84 297.33a6.05 6.05 0 0 0 3.92 1.94c2.32.36 2.52.2 2.52.2s1.2-.57.6-1.09c-3.43-1.5-6.67-3.29-8.3-5.3 0 0 .28-.28 1.46.9a13.76 13.76 0 0 0 1.57 1.38 24.95 24.95 0 0 0 3.03 1.8 13.42 13.42 0 0 0 2.3.74s.24-.5.45-.56-.12-.83-1.56-2a11.48 11.48 0 0 1-2.1-2.27s-1.7-.38-3.54-.68c-1.38-.22-3.96-2.22-3.91-1.68a9.24 9.24 0 0 0 1.08 3.4 13.6 13.6 0 0 0 2.47 3.21" fill="#009b3a" stroke="#000" stroke-width=".75"/><path d="M596.61 366.91c-1 .3-8.57 3.14-8.57 3.14l-2.11.85a7.19 7.19 0 0 1 5.15.81l8.42-3.9s-.02-.13-.23-.28a3.95 3.95 0 0 0-2.66-.62" fill="#009b3a" stroke="#000" stroke-width=".6"/><path d="M585.6 371.15c-.05.05-.1.25.04.32.42.23.3.32 2.22.55 1.92.2 3.18-.16 3.5-.52.4-.42-4.76-1.21-5.75-.35" fill="#009b3a" stroke="#000" stroke-width=".64"/><path d="m573.5 343.94-.35-2.36s-.44-6.4-1.17-7.67c-.14-.29-.07-.95-.53-.96-.89-.07-.89 2.01-1 3.9-1.43 9.5 6.15 16.75 6.15 16.75z" fill="#009b3a" stroke="#000" stroke-width=".84"/><path d="M611 372.1s-.8-.19-.3-.8a4.04 4.04 0 0 1 2.2-.91 6.97 6.97 0 0 1 1.7.22c.6.15 1.43.68 1.19 1.07a2.81 2.81 0 0 1-2.2.82 7 7 0 0 1-1.86-.14c-.4-.16-.73-.27-.73-.27" fill="#009b3a" stroke="#000" stroke-width=".77"/><path d="M602.78 367.57s-2.6-1.2-5.06-2.4c-3.25-1.58-7.16-3.79-9.88-7.83a39.4 39.4 0 0 0-7.08-8.22c-.73-.54-.84-.74-1.1-.36-.25.33-.08.61.12.96.7 1.14 2.42 3.28 3.04 4.43 1.06 2.05 3.27 4.3 3.25 5.62 0 .19-.65-.13-.65-.13a12.83 12.83 0 0 1-7.23-8c-1.52-4.52-.88-5.85-1.23-8.11-.6-4.02-.72-4.35-2.71-8.85-.06-.11-1.22-2-1.38-1.58a8.37 8.37 0 0 0 .2 2.56l.22 2.32-.17 5.46c0 .31-1.3 3.53 4.21 8.93 0 0 .09.92-.65.11-.53-.58-4.47-3.6-5.67-8.6-1.24-4.98-1.42-9.97-.48-12.04.84-1.87 2.55-6.45 1.82-10.45-.08-.41-.2-1.64-.47-1.32-.1.16-.6 2.18-.9 2.88-.42.96-1.07 1.9-1.27 2.56-.38 1.13-2.29 2.86-1.91 6.06a20.26 20.26 0 0 0 1.1 5.55c.15.48.52 1.7.28 1.82-.22.11-1-1.46-1-1.46s-3.5-6.86-1.34-12.42c2.17-5.54 7.63-10.8 7.63-10.8s4.44-3.67 5.34-4.53c.35-.33.27-.57.15-.54a16.94 16.94 0 0 0-12.63 12.21s-.16.43-.38.32c-.27-.12 0-.6 0-.6s1.88-7.2 7.14-10.47c5.75-3.59 5.08-3.06 6.98-4.2a10.67 10.67 0 0 0 3.61-3.95 6.13 6.13 0 0 0 .61-1.75c-.06-.22-.32.08-.44.45a9.3 9.3 0 0 1-4.06 3.36c-2.45.84-4.43-.36-6.89 2.35a36.12 36.12 0 0 0-4.41 6.5s-.64.99-.79.96c-.27-.09.14-1.04.14-1.04s3.28-6.97 5.92-8.38a52.5 52.5 0 0 0 6.49-3.95 74.7 74.7 0 0 0 6.1-6.14c.24-.26 1.92-1.97 2.3-2.52.22-.3.76-.74.67-.82-.24-.18-1.84.6-1.84.6a27.4 27.4 0 0 0-14.1 10.56 13.55 13.55 0 0 1-1.16 1.47 4.46 4.46 0 0 0-.87 1.6c-.35-.29 3.06-4.55 3.06-4.55l.6-2.76a23.46 23.46 0 0 1 3.13-7.07c.21-.26 1.46-1.53 1.68-1.79.42-.46-.8.4-.59.2 0 0-8.1 5.83-8.1 13.17 0 1.31-.83 2.52-1.96 4.15a13.05 13.05 0 0 0-2.33 5.9q-.36 1.79-.75 3.57s.08 1.05-.26.97-.23-.95-.23-.95a68.6 68.6 0 0 1 1.42-7.15l.95-2.74s-.34-4.11.57-6.37a45.38 45.38 0 0 1 3.04-5.2 14.34 14.34 0 0 0 1.3-4.22c.03-.28-.2-.05-.56.77-.9 2-1.64 2.53-3.1 4.43 0 0-3.76 2.72-5.12 10.82 0 0-.05 3.02-.5 7.76a31.61 31.61 0 0 0 .34 8.67c.25 1.2.73 1.2.43 1.35-.18.1.12.01-.3-.89a11.91 11.91 0 0 1-.93-5.06c0-4.23.37-7.62.37-7.62s.28-6.83-2.55-9.9c-.14-.17.5 1.37.78 2.91a17.18 17.18 0 0 1-.47 5.58c-.19 1.04-2.07 5.55-1.4 9.79 0 0 1.6 7.18 3.65 10.67 0 0 1.28 1.5.15.09s-3.43-7-3.63-7.47a19.9 19.9 0 0 0-3.38-5.35 26.3 26.3 0 0 0-3.01-2.08s-1.2-.91-.3.3c.73.96 1.7 2.68 2.15 3.43a40.15 40.15 0 0 1 2.55 4.82c.74 1.63 2.46 6.41 2.46 6.41l1.1 3.03a13.27 13.27 0 0 1 2.85 2.15 20.77 20.77 0 0 1 3.95 6.67 12.87 12.87 0 0 0 1.9 3.14s-.27.51-1.4-1.44c-1.11-2-2.2-5.71-4.9-8.61-2.04-2.23-7.54-4.47-7.54-4.47s3.53 6.16 4.41 7.26c1.49 1.76 3.63 4.23 4.19 4.88.57.67 3.9 4.77 4.38 5.43a15.88 15.88 0 0 0 1.7 1.9c.87.93 3.47 2.64 3.67 2.9.04.27.09.05-.13-.11-1.15-.69-2.53-1.77-3.95-2.7-1.42-.94-6.88-3.27-10.57-8.35-.87-1.5-1.29-2.1-1.58-1.94-.45.24 2.48 9.93 8.5 13.02 0 0 6.65 2.95 8.13 3.84a33.92 33.92 0 0 1 3.2 1.82c.43.36-.4.34-.45.33-3.53-.28-8.6-.75-11.71-2.55 0 0-1.34-.94-.24.38a15.28 15.28 0 0 0 5.72 4.95 34.24 34.24 0 0 0 9.55 2.3c1.67.1 7.63.13 8.77.5 1.12.38 3.02 1.6 4.1 1.95 1 .32 3.98 1.46 3.98 1.46a14.04 14.04 0 0 0 1.38.67c.54.21 2.77.2 2.93-.23.15-.37-.64-.94-.64-.94" fill="#009b3a" stroke="#000" stroke-width=".6"/><path d="M641.42 317.07c.68.25.98 2.26.98 2.26s-.06-1.15-.06-1.72-.28-2.7-.28-2.7l-.6.43a4.35 4.35 0 0 0-1.11 1.58 2.42 2.42 0 0 1 1.07.16" fill="#009b3a" stroke="#000" stroke-width=".75"/></svg>