<svg xmlns="http://www.w3.org/2000/svg" viewBox="0 0 756.13 504.09"><defs><clipPath id="a"><path fill="none" d="M0 167.88h756.13v336.26H0z"/></clipPath><clipPath id="b"><path fill="none" d="M0 335.51h756.13v168.58H0z"/></clipPath></defs><path d="M0 0h756.13v504.08H0z" fill="#e40046" fill-rule="evenodd"/><g clip-path="url(#a)"><path d="M0 167.62h756.13v336.46H0z" fill="#012169" fill-rule="evenodd"/></g><g clip-path="url(#b)"><path d="M0 334.79h756.13v169.29H0z" fill="#fff" fill-rule="evenodd"/></g><g fill-rule="evenodd"><g fill="#ffc72c" stroke="#21231e" stroke-width=".67"><path d="M336.05 119.95c1.05-2.28.2-5.46-.14-6.18-.18-.36.34-1.16.56-1.48 7.15-10.05 7.28-10.94 2.34-14.71-4.44-3.4-14.5-6.7-21.68-8.93-1.5-1.14-2.45-2.68-3.81-3.95 13.82.99 28.79 6.56 36.34 13.06 3.99 3.45-.86 10.4-6.81 20.97-3.67 2.63-5.4 3.86-6.8 1.22z" stroke-miterlimit="23.11"/><path d="M338.22 120.75a18.82 18.82 0 0 0 .7-2.6 8.55 8.55 0 0 0-.34-4.48 70.3 70.3 0 0 0 4.84-7.33c.95-1.78 1.69-3.77 1.12-5.8-.6-2.18-2.48-3.66-4.2-4.96a35.6 35.6 0 0 0-7.54-4.11c-6.2-2.55-11.11-3.8-14.72-3.91l2.29 2.1c6.71 2.17 14.63 5 18.44 7.92 4.94 3.77 4.81 4.66-2.34 14.72-.22.3-.74 1.11-.57 1.48a9.6 9.6 0 0 1-.07 6.31c.62 1.15 1.5.55 2.39.66z" stroke-miterlimit="22.93"/><path d="M277.8 75.99c-.07-1.28.01-1.06.2.9a.88.88 0 0 1 .8-.56c.59 0 .94.89 1 2.87l-.11 1.52c18.32-.4 29.19 2.35 31.99 7.65 2.3 4.37-1.62 11.59-7.53 19.84-.71 1-.7.9 0 1.73 1 1.2 2.08 3.2 1.27 4.97a13.18 13.18 0 0 0 11.57.82 6.84 6.84 0 0 1 3.04-3.14c.22-.15 1.02-.54 1.1-.8 1.95-6.24 3.92-12.01 5.6-17.39 5.29-16.88-41.7-18.42-48.93-18.41z" stroke-miterlimit="22.93"/><g stroke-linejoin="round"><path d="M326.18 148.6a53.47 53.47 0 0 1 6.26-10.28c-6.51 4.81-9.94 4.09-10.41-2.17a4.62 4.62 0 0 0-1.43-.14q-7.46 11.54-14.5-3.2c-6.4 10.1-11.89 9.92-16.2-.61-7.37 9.2-13.59 9.23-18.64.2v-1.15c.28.13.09.16-.57.07l-.11-.2-.55.1a22.72 22.72 0 0 1-.54-.1l-.11.2c-.66.1-.85.06-.57-.07v1.15c-5.06 9.03-11.27 9-18.65-.2-4.31 10.53-9.8 10.7-16.2.62q-7.04 14.73-14.5 3.2a4.61 4.61 0 0 0-1.43.13c-.48 6.26-3.9 6.98-10.4 2.17a53.62 53.62 0 0 1 6.25 10.28c18.76-.77 37.45-1.75 56.14-2.72 18.7.97 37.39 1.95 56.15 2.72z"/><path d="m333.87 133.5-2.04-.35c-3.92 9.56-7.44 9.8-8.1.7.88-.31.53-1.83 1.52-1.23.52.32 1.18-.58.75-1.08a2.15 2.15 0 0 0-3.07.21c-.46-1.45-1.58-2.13-2.98-1.52-.6.27-.4 1.36.21 1.3.98-.1.59.91.9 1.6-6.96 9.06-10.52 7.98-9.65-3.92a39.58 39.58 0 0 1-5.3-1.3c-6.4 12.84-10.96 13.4-14.65 1.87.8-.59.57-2.06 1.72-1.59.65.27 1.2-.87.62-1.37-1.35-1.13-2.81-.75-3.8.71-.78-1.57-2.18-2.14-3.66-1.18-.64.41-.24 1.62.44 1.43 1.3-.34.71 1.37 1.7 1.95-2.83 10.84-17.1 11.57-14.77-4.47l-3.67.13-3.68-.13c2.34 16.04-11.94 15.3-14.77 4.47.99-.58.4-2.3 1.7-1.95.68.19 1.08-1.02.44-1.43-1.48-.96-2.88-.39-3.67 1.18-.98-1.46-2.44-1.84-3.79-.7-.58.49-.03 1.63.62 1.36 1.15-.47.93 1 1.72 1.6-3.69 11.52-8.24 10.96-14.64-1.88a39.78 39.78 0 0 1-5.3 1.3c.86 11.9-2.7 12.98-9.65 3.92.3-.69-.09-1.7.89-1.6.6.06.81-1.03.2-1.3a2.07 2.07 0 0 0-2.97 1.52 2.15 2.15 0 0 0-3.07-.22c-.43.5.23 1.41.75 1.1.99-.61.65.9 1.52 1.22-.66 9.1-4.18 8.87-8.1-.7l-2.04.34a10.17 10.17 0 0 0 2.11 6.4c5.88 7.45 10.26 5.76 10.42-2.59 7.7 9.02 13.51 7.88 14.56-1.63 6.47 12 16.86 6.26 17.08-1.02 2.85 10.57 18.65 10.5 19.66-1.66 1.02 12.16 16.82 12.23 19.67 1.66.22 7.27 10.6 13.01 17.08 1.02 1.05 9.5 6.87 10.65 14.56 1.63.16 8.35 4.53 10.04 10.42 2.59a10.16 10.16 0 0 0 2.1-6.4z"/></g><path d="M283.2 121.3c-.87-.55-1.04-.4-1.32-.76a2.59 2.59 0 0 1-.25-1.93c.46-2.9-1.3-2.5-3.26-1.22a28 28 0 0 0-2.81 2.92c-.85.77-1.55.84-1.76 1.15-.03 1.11-.03 2.08-.03 2.51 0 .44 0 1.4.03 2.52.2.3.91.37 1.76 1.15a28.25 28.25 0 0 0 2.81 2.91c1.97 1.29 3.72 1.7 3.26-1.21a2.59 2.59 0 0 1 .25-1.93c.28-.36.45-.21 1.32-.76a3.84 3.84 0 0 0 1.27-1.23 8.2 8.2 0 0 0 0-2.9 3.87 3.87 0 0 0-1.27-1.23z" stroke-miterlimit="22.93"/></g><path d="m273.71 124.42.07.49a9.66 9.66 0 0 1 5.3 2.4 7.97 7.97 0 0 0-5.37-2.89m0-.89.07-.49a9.7 9.7 0 0 0 5.3-2.4 7.97 7.97 0 0 1-5.37 2.89" fill="#21231e"/><g stroke="#21231e"><g fill="#ffc72c" stroke-width=".67"><path d="M281.66 117.28a5.62 5.62 0 0 0-1.9 1.1c-.88.86-.31 2.27.83 3.65a3.83 3.83 0 0 1 0 3.89c-1.14 1.37-1.71 2.79-.83 3.65a5.67 5.67 0 0 0 1.9 1.1 4.18 4.18 0 0 0-.03-1.33 2.59 2.59 0 0 1 .25-1.93c.28-.35.45-.21 1.32-.75a3.84 3.84 0 0 0 1.26-1.24c.28-.45.13-.95.13-1.45a2.54 2.54 0 0 0-.13-1.45 3.88 3.88 0 0 0-1.26-1.23c-.87-.54-1.04-.4-1.32-.75a2.6 2.6 0 0 1-.25-1.93 4.16 4.16 0 0 0 .03-1.32z" stroke-miterlimit="22.93"/><path d="M204.03 119.96c-1.05-2.28-.2-5.46.14-6.18.17-.37-.34-1.17-.57-1.48-7.15-10.06-7.27-10.95-2.34-14.72 4.45-3.4 14.5-6.7 21.68-8.93 1.5-1.13 2.45-2.67 3.81-3.95-13.8.99-28.78 6.56-36.34 13.07-3.99 3.44.87 10.39 6.81 20.96 3.68 2.63 5.4 3.86 6.8 1.23z" stroke-miterlimit="23.11"/><path d="M201.85 120.75a18.23 18.23 0 0 1-.68-2.6 8.6 8.6 0 0 1 .32-4.48 70.95 70.95 0 0 1-4.83-7.33c-.95-1.78-1.69-3.77-1.13-5.8.6-2.18 2.5-3.66 4.2-4.96a35.5 35.5 0 0 1 7.54-4.11c6.2-2.55 11.12-3.8 14.72-3.91l-2.29 2.1c-6.7 2.17-14.63 5-18.44 7.92-4.93 3.77-4.8 4.66 2.35 14.72.22.3.73 1.11.56 1.48a9.64 9.64 0 0 0 .08 6.31c-.62 1.15-1.52.55-2.4.66z" stroke-miterlimit="22.93"/><path d="M262.28 75.99c.07-1.28-.02-1.06-.21.9a.89.89 0 0 0-.81-.56c-.58 0-.93.89-.99 2.87l.1 1.52c-18.32-.4-29.18 2.35-31.98 7.65-2.3 4.37 1.61 11.59 7.52 19.84.72 1 .7.9 0 1.73-1 1.2-2.07 3.2-1.26 4.97a13.19 13.19 0 0 1-11.57.82 6.83 6.83 0 0 0-3.04-3.14c-.22-.15-1.02-.54-1.1-.8-1.96-6.24-3.92-12.01-5.6-17.39-5.29-16.88 41.7-18.42 48.94-18.41z" stroke-miterlimit="22.93"/><path d="m265.47 145.84-.66 18.29c18.15.5 39.64 1.33 57.79 1.83l3.62-17.08c-43.62-2.75-63.73-3.62-60.75-3.04z" stroke-miterlimit="24.83"/><g stroke-miterlimit="22.93"><path d="M265.46 145.84v.1q-14.53.65-51.6 2.95l3.62 17.08c16.43-.46 35.6-1.17 52.56-1.68 16.95.5 36.13 1.22 52.56 1.68l3.62-17.08q-37.1-2.34-51.6-2.95v-.1c.98-.19-.54-.22-4.58-.08-4.03-.14-5.55-.11-4.57.08z"/><path d="M270.04 147.86h-6.52c-.48.02-.97.02-1.45.03h-1.33l-.63.02h-.03l-.66.01h-.21l-.45.01h-.14l-.52.01-.66.02h-.03l-.63.01h-.28l-2.35.06-.32.01-.89.03h-.1l-.79.03-.52.01-.37.01h-.1l-.79.03h-.05l-.65.02h-.03l-.62.02-.43.02-.88.03-3.48.15-.16.01q-2.56.12-5.1.26l-.1.01-.25.01q-5.09.3-10.11.67h-.13l-.04.02q-7.37.55-14.6 1.3c-2.73.25-3.26-2.98 0-3.28q7.23-.75 14.6-1.3h.04q10.1-.76 20.45-1.16l.57-.03h.27l.66-.03h.05q4.22-.14 8.5-.23h.47l.75-.02h.76l.26-.02h1.3l1.75-.03h1.33l1.93-.01h5.45l1.93.01h1.33l1.75.02h.4l.5.01h.4l.26.01h.76l.76.02h.47q4.26.09 8.5.24h.04l.65.03h.28l.57.03q10.34.39 20.45 1.16h.04q7.36.55 14.59 1.3c3.27.3 2.74 3.53 0 3.28q-7.23-.75-14.6-1.3l-.03-.01-.13-.01q-5.02-.38-10.11-.67h-.25l-.1-.02q-2.54-.14-5.1-.26h-.16l-3.48-.16-.89-.03-.42-.02-.63-.02h-.02l-.66-.02h-.04l-.8-.03h-.47l-.52-.02-.79-.03h-.1l-.9-.03h-.31l-2.35-.07h-.28l-.63-.01h-.03l-.66-.02h-.66l-.45-.02h-.21l-.66-.01h-.03l-.63-.01h-.46l-.61-.01h-.26l-1.45-.02h-6.52z"/></g></g><g fill="#fff" stroke-width=".67" stroke-miterlimit="22.93"><path d="M227.29 107.87a3.53 3.53 0 1 1-3.53 3.53 3.53 3.53 0 0 1 3.53-3.53zm-30.07 7.39a3.28 3.28 0 1 1-3.27 3.28 3.28 3.28 0 0 1 3.27-3.28z"/><path d="M194.1 109.27a3.28 3.28 0 1 1-3.28 3.28 3.28 3.28 0 0 1 3.27-3.28z"/><path d="M191.14 103.22a3.28 3.28 0 1 1-3.27 3.28 3.28 3.28 0 0 1 3.27-3.28z"/></g><path d="M270.05 119.7a4.29 4.29 0 1 1-4.3 4.27 4.29 4.29 0 0 1 4.3-4.28z" fill="#ffc72c" stroke-miterlimit="22.93" stroke-width=".67"/><path d="M249.06 114.47c1.9-.13 1.42 3.24 1.05 3.99-.5.98-.94 1.01-1.56.1-.47-.69-1.38-3.96.5-4.1z" fill="#ffc72c" stroke-miterlimit="22.96" stroke-width=".67"/><path d="M249.17 116.29c4.45-.3 3.35 7.61 2.47 9.38-1.14 2.3-2.2 2.37-3.65.25-1.11-1.64-3.27-9.33 1.18-9.63z" fill="#fff" stroke-miterlimit="22.98" stroke-width=".67"/><path d="M213.3 119.23c1.8-.58 2.15 2.8 1.97 3.62-.25 1.07-.68 1.2-1.5.48-.61-.56-2.29-3.53-.48-4.1z" fill="#ffc72c" stroke-miterlimit="24.04" stroke-width=".67"/><path d="M213.84 120.97c4.26-1.36 5.07 6.6 4.64 8.52-.56 2.5-1.58 2.83-3.5 1.1-1.46-1.3-5.39-8.27-1.14-9.62z" fill="#fff" stroke-miterlimit="24.06" stroke-width=".67"/><g stroke-width=".67"><path d="M260.1 79.05a62.3 62.3 0 0 0-29 3.95c-8.15 3.23-7.35 12.68 2.59 25.8a13.79 13.79 0 0 0-1.5 6.1c1.06-.06 1.8-.03 2.72-.05-.72-1.59.09-3.53 1-4.9.6-.9.72-.74 0-1.74-5.92-8.25-9.83-15.47-7.53-19.84 2.8-5.3 13.66-8.06 31.98-7.65l-.1-1.47a8.36 8.36 0 0 0-.18-.2z" fill="#ffc72c" stroke-linejoin="round"/><g fill="#fff" stroke-miterlimit="22.93"><path d="M213.75 81.74a3.4 3.4 0 1 1-3.4 3.4 3.4 3.4 0 0 1 3.4-3.4z"/><path d="M220.43 79.56a3.4 3.4 0 1 1-3.4 3.4 3.4 3.4 0 0 1 3.4-3.4z"/></g></g><g fill="#ffc72c" stroke-width=".67"><path d="m221.31 82.46 1.02 1.36c-5.38 2.94-7.6 6.05-7.08 9.18.1.54 1.73 6.26 5.38 17.35a32.36 32.36 0 0 1 5.58 4.63c-.14.16.4.64.24.77.37 1.7-1.54 1.35-2.82.93a10.72 10.72 0 0 0-3.59-4.1c-.22-.14-1.02-.53-1.1-.78-1.96-6.25-3.92-12.02-5.6-17.4-1.7-5.4 1.97-9.22 7.97-11.94z" stroke-miterlimit="22.93"/><path d="m200.1 122.56-.2 1.09a10.58 10.58 0 0 1-4.01.27c1.85-1.82 3.24-2.2 4.21-1.36z" stroke-linejoin="round"/><path d="M199.93 120.07c.98.22 1.08.38 1.5.46a2.24 2.24 0 0 0 1.83-.4c2.13-1.28 2.18 1.02 1.35 2.74a4.18 4.18 0 0 0 .27 3.72c.68 1.26.54 1.84.06 2.18a45.1 45.1 0 0 1-.93.6c-.57.67-1 .56-1.09-.33-2.12-.87-2.82-2.9-3.46-4.7-.93-2.62-4.3-3.24.47-4.26z" stroke-miterlimit="22.93"/><path d="M200.76 120.16c1.86.66 2.06-.37 3.3-.31-.49 2.82-.98 4.29-3.94 2.77a3.39 3.39 0 0 0-4.1 1.3c-.15.33-1.1-.36-1.45-1.12-1.44-3.16 3.71-3.52 6.19-2.64z" stroke-miterlimit="22.93"/></g><g fill="#fff" stroke-width=".67" stroke-miterlimit="22.93"><path d="M257.13 71.74a3.39 3.39 0 1 1-3.4 3.4 3.39 3.39 0 0 1 3.4-3.4z"/><path d="M250.19 71.74a3.39 3.39 0 1 1-3.4 3.4 3.39 3.39 0 0 1 3.4-3.4zm-6.94.55a3.39 3.39 0 1 1-3.4 3.39 3.38 3.38 0 0 1 3.4-3.39z"/><path d="M236.84 73.51a3.39 3.39 0 1 1-3.38 3.4 3.4 3.4 0 0 1 3.38-3.4zm-42.09 17.46a3.4 3.4 0 1 1-3.4 3.4 3.4 3.4 0 0 1 3.4-3.4z"/><path d="M200.58 87.3a3.4 3.4 0 1 1-3.4 3.4 3.4 3.4 0 0 1 3.4-3.4z"/><path d="M207.21 84.18a3.4 3.4 0 1 1-3.4 3.4 3.4 3.4 0 0 1 3.4-3.4zM190.24 96.5a3.4 3.4 0 1 1-3.4 3.4 3.4 3.4 0 0 1 3.4-3.4z"/></g><path d="m257.43 155.18 12.6-6.3 12.6 6.3-12.6 6.3z" fill="#ffc72c" stroke-miterlimit="22.93" stroke-width=".67"/><path d="M270.04 151.32c3.13 0 5.67 1.7 5.67 3.78s-2.54 3.78-5.67 3.78-5.67-1.69-5.67-3.78 2.54-3.78 5.67-3.78z" fill="#012169" stroke-miterlimit="22.93" stroke-width=".67"/><path d="m229.42 156.77 12.2-7.06 12.96 5.52-12.2 7.06z" fill="#ffc72c" stroke-miterlimit="22.97" stroke-width=".67"/><path d="M241.76 152.14c3.13-.2 5.76 1.34 5.89 3.43s-2.3 3.93-5.43 4.12-5.76-1.34-5.9-3.43 2.31-3.93 5.44-4.12z" fill="#e40046" stroke-miterlimit="22.93" stroke-width=".67"/><g stroke-miterlimit="22.93" stroke-width=".67"><path d="m214.75 151.7 13.18 4.99-10.88 7.28c-2.82-.94-5.05-10.52-2.3-12.27z" fill="#ffc72c"/><path d="M215 154.13c3.12-.32 5.82 1.1 6.03 3.19s-2.15 4.02-5.27 4.33c-2.02.2-3.28-1.56-3.5-3.44s.6-3.86 2.74-4.08z" fill="#012169"/><path d="M256.36 157.51a1.77 1.77 0 1 1-1.77 1.78 1.77 1.77 0 0 1 1.77-1.78zm-27.02 1.5a1.77 1.77 0 1 1-1.77 1.77 1.77 1.77 0 0 1 1.77-1.77zm-.95-8.17a1.77 1.77 0 1 1-1.77 1.77 1.77 1.77 0 0 1 1.77-1.77zm27.9-1.15a1.77 1.77 0 1 1-1.77 1.77 1.77 1.77 0 0 1 1.77-1.77z" fill="#fff"/></g><g fill="#ffc72c"><path d="M208.41 133.84c1.34-.4 3.44 2.56 3.93 2.5.66-1.7-.68-5.74-3.06-8.94-1.62-.53-1.76-1.57-2.1-3.98-.1-.72-1.49-.22-1.5 1a10.2 10.2 0 0 0 .15 3.16 1.13 1.13 0 0 1-.44 1.27c2.52 1 3.14 2.23 3.02 4.98z" stroke-miterlimit="22.93" stroke-width=".67"/><path d="M207.22 123.46a5.25 5.25 0 0 0-.36 1.86 2.6 2.6 0 0 0 .6 1.77 5.76 5.76 0 0 0 1.67 1.4 4.13 4.13 0 0 1 1.26 1.63 5.88 5.88 0 0 1 .66 2.18c.05 1.97.43 3.68 1.34 4.02a1.77 1.77 0 0 0 1.28.09 4.7 4.7 0 0 0-.4-1.35 5.84 5.84 0 0 1-.87-3.81c.12-.64.54-.88.46-1.46-.14-1.14-1.04-3.32-2.35-3.32s-1.9-.14-2.58-1.85a4.83 4.83 0 0 0-.72-1.16z" stroke-linejoin="round" stroke-width=".67"/><path d="M202.32 128.18a4.62 4.62 0 0 1 1.19-.63 3.21 3.21 0 0 1 2.1-.1c3.11.94 4.48 6.42 1.07 7.74-.67.08-1.3-.52-1.9-1.85a10.2 10.2 0 0 0-2.27-3.7c-.5-.63-.51-1.15-.19-1.47z" stroke-miterlimit="22.93" stroke-width=".66"/><path d="M203.89 128.54c2.99-1.15 5.19 4.53 2.4 5.6-1.5.59-1.65-1.27-1.94-2.31-.4-1.4-3.33-2.18-.46-3.29z" stroke-miterlimit="22.93" stroke-width=".66"/></g><path d="M204.2 129.38c1.46-.56 3.46 2.83 1.64 3.6a1.88 1.88 0 0 1-2.6-1.19 1.74 1.74 0 0 1 .97-2.4z" fill="#012169" stroke-miterlimit="23.19" stroke-width=".67"/><path d="m310.66 156.77-12.2-7.06-12.96 5.52 12.2 7.06z" fill="#ffc72c" stroke-miterlimit="22.97" stroke-width=".67"/><path d="M298.31 152.15c-3.12-.2-5.76 1.34-5.89 3.42s2.3 3.93 5.43 4.12 5.76-1.34 5.9-3.43-2.3-3.92-5.44-4.11z" fill="#e40046" stroke-miterlimit="22.93" stroke-width=".67"/><path d="m325.32 151.7-13.18 4.99 10.88 7.28c2.82-.94 5.06-10.52 2.3-12.27z" fill="#ffc72c" stroke-miterlimit="22.93" stroke-width=".67"/><path d="M325.07 154.13c-3.11-.32-5.81 1.1-6.02 3.19s2.14 4.02 5.25 4.33c2.03.2 3.29-1.56 3.5-3.44s-.6-3.86-2.73-4.08z" fill="#012169" stroke-miterlimit="22.93" stroke-width=".67"/><g fill="#fff" stroke-width=".67" stroke-miterlimit="22.93"><path d="M283.72 157.51a1.77 1.77 0 1 0 1.77 1.78 1.77 1.77 0 0 0-1.77-1.78zm27.01 1.5a1.77 1.77 0 1 0 1.77 1.77 1.77 1.77 0 0 0-1.77-1.77zm.96-8.17a1.77 1.77 0 1 0 1.77 1.77 1.77 1.77 0 0 0-1.77-1.77zm-27.9-1.15a1.77 1.77 0 1 0 1.76 1.77 1.77 1.77 0 0 0-1.77-1.77zm-59.22-47.59a3.53 3.53 0 1 1-3.54 3.52 3.53 3.53 0 0 1 3.54-3.53z"/><path d="M221.99 96.23a3.53 3.53 0 1 1-3.53 3.53 3.53 3.53 0 0 1 3.53-3.53zm8.44-20.65a3.4 3.4 0 1 1-3.4 3.4 3.4 3.4 0 0 1 3.4-3.4z"/><path d="M224.72 78.18a3.53 3.53 0 1 1-3.53 3.53 3.53 3.53 0 0 1 3.53-3.53z"/><path d="M220.5 83.16a3.53 3.53 0 1 1-3.53 3.53 3.53 3.53 0 0 1 3.54-3.53z"/><path d="M219.83 89.44a3.53 3.53 0 1 1-3.54 3.53 3.53 3.53 0 0 1 3.54-3.53z"/></g><path d="M271.76 49.96a1.72 1.72 0 0 0 0-3.44 1.72 1.72 0 0 0-3.44 0 1.72 1.72 0 0 0 0 3.44v3.54h-3.05a1.72 1.72 0 0 0-3.44-.03 1.72 1.72 0 0 0 0 3.44 1.72 1.72 0 0 0 3.44.04h3.05v11.76h3.45V56.95h3.04a1.72 1.72 0 0 0 3.45-.04 1.72 1.72 0 0 0 0-3.44 1.72 1.72 0 0 0-3.45.03h-3.04z" fill="#ffc72c" stroke-miterlimit="22.93" stroke-width=".67"/><path d="M270.05 61.06a9.52 9.52 0 1 1-9.52 9.52 9.52 9.52 0 0 1 9.52-9.52z" fill="#012169" stroke-miterlimit="22.93" stroke-width=".67"/><path d="M270.04 61.06a9.65 9.65 0 0 1 1.73.16v7.49h-3.46v-7.5a9.65 9.65 0 0 1 1.73-.15z" fill="#ffc72c" stroke-miterlimit="22.93" stroke-width=".67"/><g stroke-width=".67"><path d="M279.35 68.65a9.68 9.68 0 0 1 .1 3.27 267.1 267.1 0 0 0-18.83.01 9.69 9.69 0 0 1-.1-1.35 9.8 9.8 0 0 1 .2-1.93c3.1-.11 6.2-.18 9.31-.18s6.22.07 9.32.18z" fill="#ffc72c" stroke-miterlimit="22.93"/><path d="M262.65 76.52c-2.01-1.24-2.36.69-2.31 2.62.19 7.28 1.59 14.2-.37 23.12-.79 3.56-2.06 5.57-.83 6.26 3.15 1.75 4.59 3.35 4.09 4.22.93 1.77 3.25 1.42 6.8.86 3.56.56 5.88.9 6.8-.86-.5-.87.95-2.47 4.09-4.22 1.23-.69-.03-2.7-.82-6.26-1.96-8.92-.56-15.84-.37-23.12.05-1.93-.3-3.86-2.32-2.62-3.96 2.45-10.75 2.48-14.76 0z" fill="#ffc72c" stroke-linejoin="round"/><g fill="#fff" stroke-miterlimit="22.93"><path d="M270.05 103.92a3.78 3.78 0 1 1-3.79 3.78 3.78 3.78 0 0 1 3.79-3.78z"/><path d="M270.05 97.36a3.78 3.78 0 1 1-3.79 3.79 3.79 3.79 0 0 1 3.79-3.79z"/><path d="M270.05 91.07a3.78 3.78 0 1 1-3.79 3.78 3.78 3.78 0 0 1 3.79-3.78zm0-17.9a3.78 3.78 0 1 1-3.79 3.78 3.78 3.78 0 0 1 3.79-3.78z"/><path d="M270.05 78.72a3.78 3.78 0 1 1-3.79 3.78 3.78 3.78 0 0 1 3.79-3.78z"/><path d="M270.05 84.77a3.78 3.78 0 1 1-3.79 3.78 3.78 3.78 0 0 1 3.79-3.78z"/></g></g><g fill="#ffc72c" stroke-width=".67"><path d="M265.75 112.2q-2.24-4.15-4.76-5.3c2.31-7.25 2.86-16.59 1.5-28.11-.14-1.73-.57-2.47-1.23-2.46-.58.01-.93.9-.99 2.87.43 6.35.94 11.89.65 16.6a53.78 53.78 0 0 1-2.35 11.63c-.15.55.24.98 2.15 2.05a5.1 5.1 0 0 1 2.58 2.79 1.2 1.2 0 0 1 .82-.07c1.41.4 2 .3 1.63 0zm8.58 0q2.24-4.15 4.76-5.3c-2.31-7.25-2.86-16.6-1.5-28.12.14-1.72.57-2.46 1.23-2.45.58.01.93.9.99 2.88-.42 6.34-.94 11.88-.65 16.59a53.98 53.98 0 0 0 2.35 11.63c.15.55-.24.98-2.15 2.05a5.1 5.1 0 0 0-2.58 2.79 1.2 1.2 0 0 0-.82-.07c-1.41.4-2 .3-1.63 0z" stroke-linejoin="round"/><path d="M272.72 110.81c.55.87.4 1.04.76 1.32a2.6 2.6 0 0 0 1.93.25c2.9-.45 2.5 1.3 1.22 3.26a27.92 27.92 0 0 1-2.92 2.82c-.78.84-.84 1.54-1.15 1.75a70.3 70.3 0 0 1-2.52.03c-.44 0-1.4 0-2.52-.03-.3-.2-.37-.91-1.15-1.75a28.08 28.08 0 0 1-2.91-2.82c-1.3-1.97-1.7-3.71 1.21-3.26a2.6 2.6 0 0 0 1.93-.25c.36-.28.21-.45.76-1.32a3.83 3.83 0 0 1 1.23-1.26 8.2 8.2 0 0 1 2.9 0 3.84 3.84 0 0 1 1.24 1.26z" stroke-miterlimit="22.93"/></g></g><path d="m269.6 120.3-.49-.07a9.7 9.7 0 0 0-2.4-5.3 8 8 0 0 1 2.89 5.37m.88 0 .5-.07a9.67 9.67 0 0 1 2.4-5.3 8.02 8.02 0 0 0-2.9 5.37" fill="#21231e"/><path d="M276.72 112.34a5.62 5.62 0 0 1-1.1 1.9c-.85.89-2.27.32-3.64-.83a3.84 3.84 0 0 0-3.9 0c-1.37 1.15-2.79 1.72-3.64.84a5.6 5.6 0 0 1-1.1-1.9 4.15 4.15 0 0 1 1.32.02 2.6 2.6 0 0 0 1.93-.25c.36-.28.22-.45.76-1.31a3.84 3.84 0 0 1 1.23-1.27 8.2 8.2 0 0 1 2.9 0 3.85 3.85 0 0 1 1.24 1.27c.53.86.4 1.03.75 1.31a2.6 2.6 0 0 0 1.93.25 4.16 4.16 0 0 1 1.32-.03zm-19.84 8.96c.87-.55 1.04-.4 1.32-.76a2.59 2.59 0 0 0 .25-1.93c-.46-2.9 1.29-2.5 3.25-1.22a28.04 28.04 0 0 1 2.82 2.92c.85.77 1.55.84 1.76 1.15.03 1.11.03 2.08.03 2.51 0 .44 0 1.4-.03 2.52-.21.3-.91.37-1.75 1.15s-1.84 2.27-2.83 2.91c-1.96 1.29-3.7 1.7-3.25-1.21a2.59 2.59 0 0 0-.25-1.93c-.28-.36-.45-.21-1.32-.76a3.81 3.81 0 0 1-1.27-1.23c-.28-.46-.12-.95-.12-1.45s-.16-.99.12-1.45a3.84 3.84 0 0 1 1.27-1.23z" fill="#ffc72c" stroke="#21231e" stroke-miterlimit="22.93" stroke-width=".67"/><path d="m266.37 124.42-.07.49a9.65 9.65 0 0 0-5.3 2.39 7.97 7.97 0 0 1 5.37-2.88m0-.89-.07-.49a9.69 9.69 0 0 1-5.3-2.4 7.97 7.97 0 0 0 5.37 2.89" fill="#21231e"/><path d="M258.41 117.28a5.63 5.63 0 0 1 1.9 1.1c.9.86.32 2.27-.82 3.65a3.13 3.13 0 0 0-.54 1.95 3.18 3.18 0 0 0 .54 1.94c1.14 1.37 1.71 2.79.83 3.64a5.68 5.68 0 0 1-1.9 1.1 4.2 4.2 0 0 1 .03-1.32 2.59 2.59 0 0 0-.25-1.93c-.28-.35-.45-.21-1.32-.75a3.84 3.84 0 0 1-1.26-1.24c-.29-.45-.13-.95-.13-1.45s-.16-.98.13-1.45a3.88 3.88 0 0 1 1.26-1.23c.87-.54 1.04-.4 1.32-.75a2.6 2.6 0 0 0 .25-1.93 4.18 4.18 0 0 1-.04-1.32zm24.79 9.38c-.87.54-1.04.4-1.32.75a2.59 2.59 0 0 0-.25 1.93c.46 2.9-1.3 2.5-3.26 1.22a28 28 0 0 1-2.81-2.92c-.85-.77-1.55-.84-1.76-1.15-.03-1.11-.03-2.08-.03-2.52 0-.43 0-1.4.03-2.5.2-.32.91-.38 1.76-1.16a28 28 0 0 1 2.81-2.91c1.97-1.29 3.72-1.7 3.26 1.21a2.59 2.59 0 0 0 .25 1.93c.28.36.45.21 1.32.75a3.84 3.84 0 0 1 1.27 1.24 8.2 8.2 0 0 1 0 2.9 3.84 3.84 0 0 1-1.27 1.23z" fill="#ffc72c" stroke="#21231e" stroke-miterlimit="22.93" stroke-width=".67"/><path d="m273.71 123.53.07-.49a9.7 9.7 0 0 0 5.3-2.4 7.97 7.97 0 0 1-5.37 2.89m0 .9.07.48a9.66 9.66 0 0 1 5.3 2.4 7.97 7.97 0 0 0-5.37-2.89" fill="#21231e"/><g stroke="#21231e" stroke-miterlimit="22.93" stroke-width=".67"><g fill="#ffc72c"><path d="M281.66 130.66a5.6 5.6 0 0 1-1.9-1.1c-.88-.85-.31-2.27.83-3.64a3.83 3.83 0 0 0 0-3.9c-1.14-1.37-1.71-2.79-.83-3.64a5.6 5.6 0 0 1 1.9-1.1 4.15 4.15 0 0 1-.03 1.32 2.6 2.6 0 0 0 .25 1.93c.28.35.45.21 1.32.75a3.88 3.88 0 0 1 1.26 1.24 2.54 2.54 0 0 1 .13 1.44c0 .5.15 1-.13 1.45a3.84 3.84 0 0 1-1.26 1.24c-.87.54-1.04.4-1.32.76a2.59 2.59 0 0 0-.25 1.92 4.18 4.18 0 0 1 .03 1.33zm-11.62-10.97a4.29 4.29 0 1 1-4.28 4.28 4.29 4.29 0 0 1 4.28-4.28z"/><path d="M270.04 120.82a3.15 3.15 0 1 1-3.15 3.15 3.15 3.15 0 0 1 3.15-3.15z"/></g><path d="M270.05 122a1.98 1.98 0 1 1-1.99 1.97 1.98 1.98 0 0 1 1.99-1.98z" fill="#012169"/></g><path d="m202.9 127.72.38-.16a3.82 3.82 0 0 1-.72-3.44c-.72.9-.55 2.3.34 3.6" fill="#21231e"/><path d="M230.46 113.23c.74.93.65 1.15 1.05 1.42a2.11 2.11 0 0 0 1.89-.03c2.69-1.02 2.7 1.1 1.9 3.54-.37 1.18-1.52 2.46-2.03 3.46-.5.98-.4 1.72-.62 1.97-.98.16-1.82.28-2.2.32-.38.06-1.21.17-2.17.27-.31-.18-.56-.87-1.44-1.64a31.8 31.8 0 0 1-3.28-2.55c-1.68-1.91-2.58-3.74.07-3.68a1.78 1.78 0 0 0 1.62-.57c.23-.37.06-.54.28-1.61a3.86 3.86 0 0 1 .75-1.68c.34-.41.83-.32 1.3-.4s.87-.36 1.38-.1a4.54 4.54 0 0 1 1.5 1.28z" fill="#ffc72c" stroke="#21231e" stroke-miterlimit="22.93" stroke-width=".67"/><path d="m230.08 123.97-.44-.02a12.96 12.96 0 0 0-3.5-5.24 10.36 10.36 0 0 1 3.94 5.26m.77-.1.41-.14a11.01 11.01 0 0 1 .85-5.99c-1.08 1.31-1.53 3.75-1.26 6.12" fill="#21231e"/><path d="M234.65 114.36a6.8 6.8 0 0 1-.6 2.38c-.58 1.13-2.03.7-3.58-.39a2.69 2.69 0 0 0-1.93-.3 2.35 2.35 0 0 0-1.6.89c-.88 1.45-1.94 2.27-2.94 1.44a7.88 7.88 0 0 1-1.52-1.92 2.87 2.87 0 0 1 1.15-.16 1.78 1.78 0 0 0 1.62-.57c.23-.37.06-.53.28-1.61a3.91 3.91 0 0 1 .75-1.68c.34-.4.84-.31 1.3-.4s.87-.36 1.38-.1a4.63 4.63 0 0 1 1.5 1.29c.74.92.65 1.15 1.05 1.42a2.14 2.14 0 0 0 1.89-.03 3.27 3.27 0 0 1 1.25-.26z" fill="#ffc72c" stroke="#21231e" stroke-miterlimit="22.93" stroke-width=".67"/><path d="M219.95 124.93c.43-.52.6-.4.68-.73a3.03 3.03 0 0 0-.47-1.7c-1.3-2.52.08-2.3 1.94-1.32a9.88 9.88 0 0 1 1.57 1.16c.55.47 1.1.95 1.55 1.28.92.66 1.5.68 1.76.94a91.01 91.01 0 0 1 .9 2.3l.85 2.3c-.06.29-.6.37-.99 1.1a25.02 25.02 0 0 1-1.17 2.63c-.7.92-1.35 1.46-1.84 1.37s-.85-.8-1-2.4a2.78 2.78 0 0 0-.8-1.67c-.33-.3-.4-.18-1.2-.62a5.26 5.26 0 0 1-1.3-1.03 3.32 3.32 0 0 1-.56-1.24 3.07 3.07 0 0 1-.39-1.24 2.04 2.04 0 0 1 .47-1.13z" fill="#ffc72c" stroke="#21231e" stroke-miterlimit="22.93" stroke-width=".68"/><path d="m228.12 127.65.13.52a4.9 4.9 0 0 0-2.02.97 5.1 5.1 0 0 0-1.34 1.72 3.6 3.6 0 0 1 1.07-2 4.92 4.92 0 0 1 2.16-1.2m-.32-.93-.24-.51a8.22 8.22 0 0 1-2.6-.66 11.9 11.9 0 0 1-2.46-1.47 7.99 7.99 0 0 0 2.39 1.77 8.74 8.74 0 0 0 2.91.87" fill="#21231e"/><path d="M219.73 120.87a5 5 0 0 1 1.55.97 2.47 2.47 0 0 1 .84 1.62 5.7 5.7 0 0 1-.16 2.14 4.1 4.1 0 0 0 .3 2 5.5 5.5 0 0 0 1.09 1.93c1.35 1.34 2.3 2.77 1.92 3.65a1.82 1.82 0 0 1-.82.99 4.47 4.47 0 0 1-.68-1.18 4.27 4.27 0 0 0-.87-1.92 4.22 4.22 0 0 0-1.23-1.26c-.53-.33-.98-.19-1.34-.63-.7-.86-1.63-2.95-.73-3.91.89-.95 1.2-1.49.46-3.11a4.76 4.76 0 0 1-.32-1.3z" fill="#ffc72c" stroke="#21231e" stroke-linejoin="round" stroke-width=".67"/><path d="M243.4 127.7c-.7.6-.89.48-1.08.85a2.52 2.52 0 0 0 .08 1.83c.85 2.62-.75 2.39-2.68 1.39a28.66 28.66 0 0 1-2.95-2.41c-.88-.64-1.5-.63-1.73-.9a68.3 68.3 0 0 1-.52-2.35 76.83 76.83 0 0 1-.5-2.43c.13-.33.73-.48 1.32-1.35a26.38 26.38 0 0 1 1.98-3.36c1.6-1.66 3.2-2.37 3.28.81a3.03 3.03 0 0 0 .58 1.98c.32.33.46.16 1.37.6a4.01 4.01 0 0 1 1.4 1.1 2.8 2.8 0 0 1 .35 1.45 2.68 2.68 0 0 1 .1 1.45 3.5 3.5 0 0 1-.99 1.33z" fill="#ffc72c" stroke="#21231e" stroke-miterlimit="22.93" stroke-width=".63"/><path d="m234.43 125.71-.04-.47a7.82 7.82 0 0 0 4.28-3 6.53 6.53 0 0 1-4.24 3.47m.18.83.16.45a9.08 9.08 0 0 1 5.1 1.73 7.66 7.66 0 0 0-5.26-2.18" fill="#21231e"/><g stroke="#21231e"><g fill="#ffc72c" stroke-miterlimit="22.93"><path d="M242.63 131.6a5.6 5.6 0 0 1-1.86-.84c-.93-.71-.66-2.08.13-3.5a3.21 3.21 0 0 0 .16-1.96 3.57 3.57 0 0 0-.83-1.86c-1.3-1.25-2.1-2.62-1.44-3.63a5.2 5.2 0 0 1 1.6-1.43 4.72 4.72 0 0 1 .2 1.4 3.02 3.02 0 0 0 .58 1.98c.33.33.46.16 1.37.6a4 4 0 0 1 1.4 1.1 2.75 2.75 0 0 1 .35 1.45 2.65 2.65 0 0 1 .1 1.45 3.5 3.5 0 0 1-1 1.34c-.7.6-.88.48-1.08.85a2.54 2.54 0 0 0 .09 1.83 3.78 3.78 0 0 1 .23 1.21z" stroke-width=".68"/><g stroke-width=".67"><path d="M230.36 122.33a4.83 4.83 0 0 1 4.7 4.2 3.53 3.53 0 0 1-3.38 4.24 4.78 4.78 0 0 1-4.54-4 3.58 3.58 0 0 1 3.22-4.44z"/><path d="M230.55 123.5a3.53 3.53 0 0 1 3.44 3.06 2.59 2.59 0 0 1-2.47 3.13 3.53 3.53 0 0 1-3.35-2.96 2.61 2.61 0 0 1 2.38-3.24z"/></g></g><path d="M230.73 124.68a2.22 2.22 0 0 1 2.16 1.92 1.64 1.64 0 0 1-1.55 1.98 2.2 2.2 0 0 1-2.11-1.87 1.64 1.64 0 0 1 1.5-2.03z" fill="#012169" stroke-miterlimit="22.93" stroke-width=".67"/><g fill="#fff" stroke-width=".67" stroke-miterlimit="22.93"><path d="M312.8 107.87a3.53 3.53 0 1 0 3.52 3.53 3.53 3.53 0 0 0-3.53-3.53zm30.05 7.39a3.28 3.28 0 1 0 3.28 3.28 3.28 3.28 0 0 0-3.28-3.28z"/><path d="M345.98 109.27a3.28 3.28 0 1 0 3.28 3.28 3.28 3.28 0 0 0-3.28-3.28z"/><path d="M348.93 103.22a3.28 3.28 0 1 0 3.28 3.28 3.28 3.28 0 0 0-3.28-3.28z"/></g><path d="M291.03 114.46c-1.9-.12-1.42 3.25-1.05 4 .49.98.94 1.01 1.56.1.46-.69 1.38-3.97-.5-4.1z" fill="#ffc72c" stroke-miterlimit="22.96" stroke-width=".67"/><path d="M290.9 116.28c-4.45-.3-3.35 7.62-2.47 9.39 1.15 2.3 2.2 2.37 3.66.24 1.11-1.63 3.26-9.33-1.19-9.63z" fill="#fff" stroke-miterlimit="22.98" stroke-width=".67"/><path d="M326.78 119.23c-1.8-.58-2.16 2.8-1.97 3.63.24 1.06.67 1.2 1.49.47.62-.56 2.29-3.52.48-4.1z" fill="#ffc72c" stroke-miterlimit="24.04" stroke-width=".67"/><path d="M326.23 120.97c-4.25-1.35-5.06 6.6-4.63 8.52.56 2.5 1.58 2.83 3.5 1.11 1.46-1.31 5.39-8.28 1.14-9.63z" fill="#fff" stroke-miterlimit="24.06" stroke-width=".67"/><g stroke-width=".67"><path d="M279.98 79.05A62.31 62.31 0 0 1 308.97 83c8.14 3.23 7.34 12.68-2.59 25.8a13.73 13.73 0 0 1 1.49 6.1c-1.05-.06-1.79-.03-2.72-.05.72-1.59-.08-3.53-1-4.9-.6-.9-.7-.74 0-1.74 5.92-8.25 9.84-15.47 7.53-19.83-2.8-5.3-13.66-8.07-31.99-7.66l.1-1.46.18-.2z" fill="#ffc72c" stroke-linejoin="round"/><g fill="#fff" stroke-miterlimit="22.93"><path d="M326.31 81.74a3.4 3.4 0 1 0 3.4 3.4 3.4 3.4 0 0 0-3.4-3.4z"/><path d="M319.65 79.56a3.4 3.4 0 1 0 3.4 3.4 3.4 3.4 0 0 0-3.4-3.4z"/></g></g><g fill="#ffc72c" stroke-width=".67"><path d="m318.76 82.46-1.02 1.36c5.38 2.94 7.6 6.05 7.08 9.18-.1.54-1.73 6.26-5.38 17.35a32.57 32.57 0 0 0-5.58 4.63c.14.16-.4.64-.23.77-.37 1.7 1.54 1.35 2.82.93a10.72 10.72 0 0 1 3.58-4.1c.23-.14 1.02-.53 1.1-.78 1.96-6.25 3.92-12.02 5.6-17.4 1.7-5.4-1.97-9.22-7.97-11.94z" stroke-miterlimit="22.93"/><path d="m339.97 122.56.21 1.1a10.56 10.56 0 0 0 4.02.26c-1.87-1.81-3.25-2.2-4.23-1.36z" stroke-linejoin="round"/><path d="M340.14 120.07c-.98.22-1.07.38-1.5.46a2.24 2.24 0 0 1-1.82-.4c-2.13-1.28-2.18 1.02-1.35 2.74a4.14 4.14 0 0 1-.28 3.72c-.67 1.26-.53 1.84-.05 2.18l.93.6c.57.67 1 .56 1.09-.33 2.12-.87 2.82-2.9 3.46-4.7.93-2.62 4.3-3.24-.48-4.26z" stroke-miterlimit="22.93"/><path d="M339.31 120.16c-1.85.66-2.05-.37-3.3-.31.49 2.82.99 4.29 3.94 2.77a3.38 3.38 0 0 1 4.1 1.3c.15.33 1.1-.36 1.45-1.12 1.45-3.16-3.7-3.52-6.19-2.64z" stroke-miterlimit="22.93"/></g><g fill="#fff" stroke-width=".67" stroke-miterlimit="22.93"><path d="M282.95 71.74a3.39 3.39 0 1 0 3.4 3.4 3.39 3.39 0 0 0-3.4-3.4z"/><path d="M289.9 71.74a3.39 3.39 0 1 0 3.38 3.4 3.39 3.39 0 0 0-3.39-3.4zm6.93.55a3.39 3.39 0 1 0 3.4 3.39 3.38 3.38 0 0 0-3.4-3.39z"/><path d="M303.23 73.51a3.39 3.39 0 1 0 3.4 3.4 3.4 3.4 0 0 0-3.4-3.4zm42.09 17.46a3.4 3.4 0 1 0 3.4 3.4 3.4 3.4 0 0 0-3.4-3.4z"/><path d="M339.49 87.3a3.4 3.4 0 1 0 3.4 3.4 3.4 3.4 0 0 0-3.4-3.4z"/><path d="M332.86 84.18a3.4 3.4 0 1 0 3.4 3.4 3.4 3.4 0 0 0-3.4-3.4zm16.98 12.32a3.4 3.4 0 1 0 3.4 3.4 3.4 3.4 0 0 0-3.4-3.4z"/></g><g fill="#ffc72c"><path d="M331.67 133.84c-1.34-.4-3.44 2.56-3.93 2.5-.66-1.7.68-5.74 3.06-8.94 1.62-.53 1.77-1.57 2.1-3.98.1-.72 1.49-.22 1.5 1a10.17 10.17 0 0 1-.15 3.16 1.12 1.12 0 0 0 .44 1.27c-2.52 1.01-3.14 2.23-3.02 5z" stroke-miterlimit="22.93" stroke-width=".67"/><path d="M332.87 123.46a5.16 5.16 0 0 1 .36 1.86 2.6 2.6 0 0 1-.6 1.77 5.72 5.72 0 0 1-1.68 1.4 4.17 4.17 0 0 0-1.25 1.63 5.79 5.79 0 0 0-.66 2.18c-.05 1.97-.44 3.68-1.34 4.02a1.77 1.77 0 0 1-1.28.09 4.45 4.45 0 0 1 .4-1.35 5.84 5.84 0 0 0 .87-3.81c-.13-.64-.54-.88-.47-1.46.14-1.14 1.04-3.32 2.36-3.32 1.3 0 1.9-.14 2.57-1.85a5.03 5.03 0 0 1 .72-1.16z" stroke-linejoin="round" stroke-width=".67"/><path d="M337.76 128.18a4.68 4.68 0 0 0-1.19-.63 3.2 3.2 0 0 0-2.1-.1c-3.11.94-4.48 6.42-1.07 7.74.67.08 1.3-.52 1.9-1.85a10.2 10.2 0 0 1 2.27-3.7c.5-.63.51-1.15.19-1.46z" stroke-miterlimit="22.93" stroke-width=".66"/><path d="M336.19 128.54c-3-1.16-5.2 4.53-2.4 5.6 1.5.58 1.64-1.27 1.93-2.31.4-1.4 3.34-2.18.47-3.29z" stroke-miterlimit="22.93" stroke-width=".66"/></g><path d="M335.87 129.39c-1.46-.57-3.46 2.82-1.63 3.59a1.88 1.88 0 0 0 2.6-1.18 1.74 1.74 0 0 0-.97-2.41z" fill="#012169" stroke-miterlimit="23.19" stroke-width=".67"/><g fill="#fff" stroke-width=".67" stroke-miterlimit="22.93"><path d="M315.51 102.1a3.53 3.53 0 1 0 3.54 3.52 3.53 3.53 0 0 0-3.54-3.53z"/><path d="M318.1 96.23a3.53 3.53 0 1 0 3.52 3.53 3.53 3.53 0 0 0-3.53-3.53zm-8.46-20.65a3.4 3.4 0 1 0 3.4 3.4 3.4 3.4 0 0 0-3.4-3.4z"/><path d="M315.36 78.18a3.53 3.53 0 1 0 3.53 3.53 3.53 3.53 0 0 0-3.53-3.53z"/><path d="M319.57 83.16a3.53 3.53 0 1 0 3.54 3.53 3.53 3.53 0 0 0-3.54-3.53z"/><path d="M320.25 89.44a3.53 3.53 0 1 0 3.54 3.53 3.53 3.53 0 0 0-3.54-3.53z"/></g></g><path d="m337.18 127.72-.38-.16a3.8 3.8 0 0 0 .72-3.44c.72.9.54 2.3-.34 3.6" fill="#21231e"/><path d="M309.6 113.23c-.73.93-.65 1.15-1.04 1.42a2.11 2.11 0 0 1-1.89-.03c-2.7-1.02-2.7 1.1-1.91 3.54a26.93 26.93 0 0 0 2.04 3.46c.5.98.4 1.72.62 1.97.98.16 1.81.28 2.2.32.37.06 1.2.17 2.16.27.32-.18.56-.87 1.45-1.64a32.23 32.23 0 0 0 3.27-2.55c1.69-1.91 2.59-3.74-.07-3.68a1.79 1.79 0 0 1-1.62-.57c-.23-.37-.05-.54-.28-1.61a3.85 3.85 0 0 0-.75-1.68c-.33-.41-.83-.32-1.29-.4s-.88-.36-1.39-.1a4.54 4.54 0 0 0-1.5 1.28z" fill="#ffc72c" stroke="#21231e" stroke-miterlimit="22.93" stroke-width=".67"/><path d="m309.99 123.97.44-.02a12.95 12.95 0 0 1 3.5-5.24 10.38 10.38 0 0 0-3.94 5.26m-.76-.1-.41-.14a11.01 11.01 0 0 0-.85-5.99c1.08 1.31 1.53 3.75 1.26 6.12" fill="#21231e"/><path d="M305.42 114.36a6.8 6.8 0 0 0 .6 2.38c.59 1.13 2.03.7 3.58-.39a2.7 2.7 0 0 1 1.93-.3 2.33 2.33 0 0 1 1.6.89c.88 1.45 1.95 2.27 2.94 1.44a7.9 7.9 0 0 0 1.53-1.92 2.88 2.88 0 0 0-1.16-.16 1.79 1.79 0 0 1-1.62-.57c-.23-.37-.06-.53-.29-1.61a3.86 3.86 0 0 0-.74-1.68c-.34-.4-.83-.31-1.3-.4s-.87-.36-1.38-.1a4.67 4.67 0 0 0-1.5 1.29c-.74.92-.65 1.15-1.05 1.42a2.13 2.13 0 0 1-1.88-.03 3.27 3.27 0 0 0-1.26-.26z" fill="#ffc72c" stroke="#21231e" stroke-miterlimit="22.93" stroke-width=".67"/><path d="M320.12 124.93c-.43-.52-.6-.4-.68-.73a2.97 2.97 0 0 1 .48-1.7c1.29-2.52-.08-2.3-1.95-1.32a9.88 9.88 0 0 0-1.56 1.16c-.55.47-1.1.95-1.56 1.28-.92.66-1.49.68-1.76.94a77.45 77.45 0 0 0-.89 2.3c-.15.4-.49 1.28-.85 2.3.06.29.59.37.98 1.1a24.42 24.42 0 0 0 1.18 2.63c.7.92 1.34 1.46 1.84 1.37s.85-.8.98-2.4a2.79 2.79 0 0 1 .83-1.67c.32-.3.39-.18 1.19-.62a5.26 5.26 0 0 0 1.3-1.03 3.31 3.31 0 0 0 .56-1.24 3.02 3.02 0 0 0 .39-1.24 2.07 2.07 0 0 0-.47-1.13z" fill="#ffc72c" stroke="#21231e" stroke-miterlimit="22.93" stroke-width=".68"/><path d="m311.95 127.65-.12.52a4.9 4.9 0 0 1 2.02.97 5.1 5.1 0 0 1 1.34 1.72 3.6 3.6 0 0 0-1.07-2 4.9 4.9 0 0 0-2.17-1.2m.33-.93.24-.51a8.27 8.27 0 0 0 2.6-.66 12.01 12.01 0 0 0 2.46-1.47 7.95 7.95 0 0 1-2.4 1.77 8.7 8.7 0 0 1-2.9.87" fill="#21231e"/><path d="M320.35 120.87a5 5 0 0 0-1.55.97 2.47 2.47 0 0 0-.84 1.62 5.69 5.69 0 0 0 .16 2.14 4.04 4.04 0 0 1-.3 2 5.57 5.57 0 0 1-1.08 1.93c-1.35 1.34-2.3 2.77-1.93 3.65a1.84 1.84 0 0 0 .83.99 4.47 4.47 0 0 0 .68-1.18 5.48 5.48 0 0 1 2.1-3.18c.53-.33.98-.19 1.34-.63.7-.86 1.63-2.95.73-3.91-.9-.95-1.21-1.49-.46-3.11a4.8 4.8 0 0 0 .32-1.3z" fill="#ffc72c" stroke="#21231e" stroke-linejoin="round" stroke-width=".67"/><path d="M296.68 127.7c.7.61.89.5 1.08.86a2.5 2.5 0 0 1-.08 1.83c-.85 2.62.75 2.39 2.68 1.39a29.18 29.18 0 0 0 2.96-2.41c.87-.64 1.48-.64 1.72-.9.25-1.03.44-1.94.53-2.35l.49-2.43c-.12-.32-.73-.48-1.32-1.35a25.87 25.87 0 0 0-1.98-3.36c-1.59-1.66-3.19-2.37-3.28.81a3 3 0 0 1-.58 1.97c-.32.34-.46.16-1.36.61a3.99 3.99 0 0 0-1.4 1.1 2.76 2.76 0 0 0-.35 1.45 2.68 2.68 0 0 0-.1 1.45 3.54 3.54 0 0 0 .99 1.33z" fill="#ffc72c" stroke="#21231e" stroke-miterlimit="22.93" stroke-width=".63"/><path d="m305.64 125.71.04-.47a7.81 7.81 0 0 1-4.28-3 6.53 6.53 0 0 0 4.24 3.47m-.18.83-.16.45a9.07 9.07 0 0 0-5.1 1.73 7.66 7.66 0 0 1 5.26-2.18" fill="#21231e"/><g stroke="#21231e" stroke-miterlimit="22.93"><path d="M297.45 131.6a5.52 5.52 0 0 0 1.86-.84c.93-.71.66-2.08-.13-3.5a3.23 3.23 0 0 1-.16-1.96 3.58 3.58 0 0 1 .83-1.86c1.3-1.25 2.1-2.62 1.44-3.63a5.18 5.18 0 0 0-1.6-1.43 4.87 4.87 0 0 0-.2 1.4 3.05 3.05 0 0 1-.58 1.98c-.32.33-.46.16-1.37.6a4 4 0 0 0-1.4 1.1 2.79 2.79 0 0 0-.35 1.45 2.65 2.65 0 0 0-.1 1.45 3.52 3.52 0 0 0 1 1.34c.7.6.88.48 1.08.85a2.54 2.54 0 0 1-.09 1.83 3.92 3.92 0 0 0-.23 1.21z" fill="#ffc72c" stroke-width=".68"/><g stroke-width=".67"><path d="M309.71 122.33a4.82 4.82 0 0 0-4.7 4.2 3.53 3.53 0 0 0 3.38 4.24 4.78 4.78 0 0 0 4.54-4 3.58 3.58 0 0 0-3.22-4.44z" fill="#ffc72c"/><path d="M309.53 123.5a3.54 3.54 0 0 0-3.44 3.06 2.6 2.6 0 0 0 2.48 3.13 3.53 3.53 0 0 0 3.34-2.96 2.61 2.61 0 0 0-2.38-3.24z" fill="#ffc72c"/><path d="M309.34 124.68a2.22 2.22 0 0 0-2.15 1.92 1.63 1.63 0 0 0 1.54 1.98 2.2 2.2 0 0 0 2.12-1.87 1.64 1.64 0 0 0-1.5-2.03z" fill="#012169"/><path d="M322.57 164.75c1.11.17 1.7.87 1.66 1.58.04.71-.55 1.4-1.66 1.57a4.6 4.6 0 0 1-.85.15 619.62 619.62 0 0 1-103.37 0 4.7 4.7 0 0 1-.85-.15c-1.1-.16-1.7-.86-1.65-1.57-.04-.72.54-1.41 1.65-1.58a5.1 5.1 0 0 1 .85-.14 618.77 618.77 0 0 1 103.37 0 5.07 5.07 0 0 1 .85.14z" fill="#ffc72c"/></g></g></g><path d="M231.26 166.98q6.45-.4 12.91-.67t12.93-.4q6.47-.13 12.93-.12t12.94.14q6.46.14 12.92.41t12.93.66m-77.56.09q6.45.4 12.91.66m51.72-.03q6.47-.27 12.93-.66" fill="none" stroke="#21231e" stroke-linecap="round" stroke-miterlimit="22.93" stroke-width=".67"/><path d="M175.52 168.55V321.3a101.54 101.54 0 0 0 27.73 70.14c17.13 17.99 40.75 29.14 66.78 29.14s49.66-11.15 66.78-29.13a101.55 101.55 0 0 0 27.73-70.15V168.54z" fill="#e40046" stroke="#fff" stroke-miterlimit="22.93" stroke-width="1.33"/><g stroke="#21231e"><g fill-rule="evenodd"><g fill="#fff"><path d="M270.9 412.7c.82-.14 2.2.04 3.25-.79 1.4-1.09.84-5.5.72-8.3-.65-14.27-1.23-38.3-1.96-72.05a9.4 9.4 0 0 0-2.87.04 9.44 9.44 0 0 0-2.87-.04c-.73 33.75-1.32 57.78-1.96 72.05-.12 2.8-.67 7.22.72 8.3 1.04.83 2.43.65 3.25.79z" stroke-miterlimit="22.93" stroke-width=".67"/><path d="M279.85 412.3c-.83-.07-2.2.23-3.31-.5-1.49-.95-1.61-5.47-1.74-8.27a3244.6 3244.6 0 0 0-4.3-71.86 9.34 9.34 0 0 1 2.86-.22l.39-.1c5.37 33.32 7.4 56.96 11.08 71.2.5 1.98 1.6 6.9-.1 8.5-.97.92-2.37.87-3.17 1.08z" stroke-miterlimit="22.93" stroke-width=".67"/><path d="M290.37 410.8c-.83 0-2.16.42-3.34-.2-1.57-.82-1.5-5.33-2.2-8.04-3.68-14.25-5.7-37.9-11.08-71.22a9.46 9.46 0 0 1 2.83-.47l.11-.04c8.55 32.4 11.11 55.23 17.74 69.34.62 1.95 2.29 7.14.7 8.95-.9 1-2.29 1.08-3.07 1.36z" stroke-miterlimit="22.93" stroke-width=".67"/><path d="M300.97 407.8c-.83.1-2.23.87-3.46.37-1.64-.67-1.9-5.49-3.08-8-6.66-14.17-9.22-37.15-17.85-69.78a9.41 9.41 0 0 1 2.77-.75 3.89 3.89 0 0 1 1.8-.7c10.03 32.23 13.3 54.65 22.77 68.56 1.53 2.25 2.64 6.74 1.6 8.18-.77 1.08-2.15 1.3-2.9 1.65z" stroke-miterlimit="22.93" stroke-width=".64"/><path d="M260.22 412.3c.83-.07 2.2.23 3.31-.5 1.49-.95 1.61-5.47 1.74-8.27.66-14.27 1.98-38.19 4.31-71.86a9.36 9.36 0 0 0-2.87-.22l-.38-.1c-5.38 33.32-7.4 56.96-11.08 71.2-.52 1.98-1.6 6.9.1 8.5.96.92 2.36.87 3.16 1.08z" stroke-miterlimit="22.93" stroke-width=".67"/><path d="M249.7 410.8c.83 0 2.16.42 3.34-.2 1.57-.82 1.5-5.33 2.2-8.04 3.69-14.25 5.71-37.9 11.09-71.22a9.46 9.46 0 0 0-2.83-.47l-.12-.04c-8.55 32.4-11.1 55.23-17.74 69.34-.61 1.95-2.29 7.14-.69 8.95.89 1 2.28 1.08 3.06 1.36z" stroke-miterlimit="22.93" stroke-width=".67"/><path d="M239.1 407.8c.83.1 2.22.87 3.46.37 1.64-.67 1.9-5.5 3.07-8 6.67-14.17 9.22-37.15 17.86-69.79a9.41 9.41 0 0 0-2.77-.75 3.92 3.92 0 0 0-1.8-.7c-10.04 32.24-13.3 54.66-22.77 68.57-1.53 2.24-2.65 6.74-1.6 8.18.77 1.07 2.15 1.3 2.9 1.65z" stroke-miterlimit="22.93" stroke-width=".64"/><path d="M295.37 383.45c-.76.04-1.9.5-3.09-.06-1.57-.75-2.6-5.1-3.45-7.81-6.72-13.26-12.85-36.8-22.92-69.51a7.52 7.52 0 0 1 2.5-.57 7.3 7.3 0 0 1 2.47-.65c10.84 32.37 15.7 55.78 26.3 68.67 1.75 2.13 3.05 6.77 2.22 8.11-.62 1.02-1.88 1.15-2.55 1.45z" stroke-miterlimit="22.93" stroke-width=".61"/><path d="M286.8 385.13c-.76-.02-1.95.35-3.06-.3-1.49-.87-2.01-5.29-2.54-8.05-2.7-14.1-7.7-37.78-14.8-71.02a7.6 7.6 0 0 1 2.55-.36 7.48 7.48 0 0 1 2.53-.46c8.4 33.03 10.33 57.76 18.27 70.46 1.44 2.31 2.25 6.98 1.27 8.25-.74.96-2 .99-2.7 1.24z" stroke-miterlimit="23.93" stroke-width=".67"/><path d="M278.06 386.12c-.75-.08-1.97.2-3-.55-1.38-.99-1.4-5.42-1.6-8.21-1.08-14.26-3.32-38.22-6.56-71.87a7.6 7.6 0 0 1 2.58-.16 7.53 7.53 0 0 1 2.58-.25c4.54 33.54 7.18 57.83 10.06 71.58.57 2.74 1.44 7.13.31 8.32-.84.9-2.1.82-2.83 1.02z" stroke-miterlimit="22.93" stroke-width=".66"/><path d="M244.7 383.45c.77.04 1.9.5 3.1-.06 1.57-.75 2.6-5.1 3.44-7.81 6.73-13.26 12.86-36.8 22.93-69.51a7.5 7.5 0 0 0-2.5-.57 7.36 7.36 0 0 0-2.47-.65c-10.84 32.37-15.7 55.78-26.3 68.67-1.74 2.13-3.05 6.77-2.21 8.12.62 1.01 1.88 1.14 2.54 1.44z" stroke-miterlimit="22.93" stroke-width=".61"/><path d="M253.28 385.13c.75-.01 1.94.36 3.06-.3 1.48-.88 2.01-5.3 2.54-8.05 2.7-14.11 7.7-37.78 14.8-71.02a7.52 7.52 0 0 0-2.56-.36 7.43 7.43 0 0 0-2.53-.46c-8.38 33.03-10.33 57.76-18.26 70.45-1.45 2.32-2.26 6.99-1.27 8.26.73.96 2 .98 2.7 1.24z" stroke-miterlimit="23.93" stroke-width=".67"/><path d="M262.01 386.11c.75-.07 1.98.2 3.01-.54 1.38-.99 1.4-5.43 1.6-8.22 1.07-14.25 3.32-38.22 6.56-71.86a7.65 7.65 0 0 0-2.6-.17 7.52 7.52 0 0 0-2.56-.25c-4.55 33.54-7.19 57.83-10.06 71.59-.57 2.74-1.45 7.13-.32 8.32.85.9 2.1.82 2.83 1.01z" stroke-miterlimit="22.93" stroke-width=".66"/><path d="M270.81 386.41c.74-.13 1.99.04 2.93-.78 1.26-1.1.76-5.51.65-8.31-.58-14.27-1.1-38.3-1.76-72.06a7.68 7.68 0 0 0-2.6.05 7.7 7.7 0 0 0-2.59-.05c-.65 33.76-1.18 57.79-1.76 72.06-.11 2.8-.6 7.21.65 8.3.95.83 2.2.66 2.93.8z" stroke-miterlimit="22.93" stroke-width=".67"/><path d="M289.44 363.82c-.58.05-1.45.5-2.36-.06-1.21-.75-2-5.1-2.65-7.8-5.14-13.26-9.84-36.8-17.55-69.52a4.6 4.6 0 0 1 1.92-.57 4.67 4.67 0 0 1 1.89-.65c8.3 32.37 12.02 55.78 20.14 68.67 1.34 2.13 2.34 6.78 1.7 8.12-.48 1.01-1.44 1.14-1.95 1.45z" stroke-miterlimit="22.93" stroke-width=".65"/><path d="M282.87 365.51c-.58-.01-1.49.36-2.34-.3-1.14-.87-1.54-5.29-1.95-8.05q-3.11-21.16-11.34-71.02a4.55 4.55 0 0 1 1.96-.37 4.66 4.66 0 0 1 1.94-.45c6.43 33.03 7.91 57.76 13.99 70.45 1.1 2.31 1.72 6.99.97 8.26-.56.96-1.53.98-2.07 1.23z" stroke-miterlimit="22.93" stroke-width=".66"/><path d="M276.2 366.5c-.59-.09-1.52.19-2.3-.55-1.07-1-1.08-5.43-1.24-8.22-.82-14.26-2.54-38.22-5.01-71.87a4.5 4.5 0 0 1 1.97-.16 4.6 4.6 0 0 1 1.98-.25c3.48 33.54 5.5 57.83 7.7 71.59.44 2.74 1.1 7.12.24 8.31-.65.9-1.61.83-2.17 1.02z" stroke-miterlimit="22.93" stroke-width=".67"/><path d="M250.64 363.82c.58.04 1.45.5 2.36-.06 1.2-.76 2-5.1 2.65-7.82 5.15-13.25 9.84-36.79 17.55-69.5a4.58 4.58 0 0 0-1.91-.57 4.63 4.63 0 0 0-1.9-.66c-8.3 32.38-12.02 55.79-20.14 68.68-1.34 2.13-2.33 6.77-1.7 8.11.48 1.02 1.44 1.15 1.95 1.45z" stroke-miterlimit="22.93" stroke-width=".65"/><path d="M257.2 365.5c.58-.01 1.5.35 2.34-.3 1.14-.88 1.54-5.29 1.95-8.05 2.07-14.11 5.9-37.78 11.34-71.02a45.01 45.01 0 0 1-3.9-.82c-6.42 33.03-7.91 57.76-13.99 70.46-1.1 2.3-1.73 6.98-.98 8.25.58.96 1.54.98 2.08 1.24z" stroke-miterlimit="22.93" stroke-width=".66"/><path d="M263.89 366.5c.57-.08 1.51.2 2.3-.55 1.06-.99 1.06-5.42 1.22-8.21.82-14.26 2.54-38.22 5.02-71.87a43.86 43.86 0 0 1-3.95-.41c-3.48 33.54-5.5 57.83-7.7 71.58-.44 2.75-1.1 7.13-.24 8.32.64.9 1.6.82 2.16 1.02z" stroke-miterlimit="22.93" stroke-width=".67"/><path d="M270.64 366.78c.56-.13 1.52.04 2.25-.78.96-1.1.58-5.52.49-8.31-.44-14.28-.85-38.3-1.35-72.06a45.8 45.8 0 0 1-3.97 0c-.5 33.75-.9 57.78-1.35 72.06-.09 2.8-.47 7.21.5 8.3.72.83 1.67.65 2.24.8z" stroke-miterlimit="22.93" stroke-width=".67"/></g><g fill="#ffc72c"><path d="M230.54 328.1c-1.8.08-4.02 1.11-10.5 6.72-2.82 5.77-5.67 11.57-9.6 16.57a14.94 14.94 0 0 1-3.44 1.84c-1.1.36-9.27.1-9.47-.25-2.54-2.3-6.42-.66-5.12 1.77-1 .95 1.2 4.44 2.99 3 1.63-1.33 7.32-.07 9.22-.76-.72 1.7-5.86 2.82-9.46 3.08-3.28.14-3.06 3.41-1.7 5.92 1.53.98.27-.26.83.46 1.47 2.18 4.61 1.9 4.72-.23.1-2.2 7.77-5.08 8.92-6.77-1.4 3.35-4.65 6.47-6.26 9.75-1.73 1.73-2.77 2.08-.54 5.58 2.48-.28 2.63-.94 4.15.5 3.4-.37 3.95-1.38 3.4-4.06-.59-2.84 1.78-7.97 2.58-9.41.72-1.34.9-2.73 1.61-3.56 1.23-1.46 7.1-4.37 8.6-3.57 2.76 1.47 4.86.58 5.2-2.1-.88-.68-.2-4.48-2.12-4.64-1.57-.13-2.5.35-3.93 1.52-2.26 1.85-3.42 2.83-4.17 2.63-1.76-.5 3.2-2.92 7.71-8.84 6.25-8.19 6.68-12.35 6.39-15.16z" stroke-linejoin="round" stroke-width=".66"/><path d="M192.79 356.25c-2.27-1.32-3.57-1.27-4.45-.29-.48.55-1.1.27-.73-.59 1.5-3.55 3.9-4 6.05-2.33.6.56 1.09 1.04 1.57 1.52-.36.54-2.15 1.28-2.44 1.7z" stroke-miterlimit="23.18" stroke-width=".67"/><path d="M225.19 353.08c2.4-1.63 4.65-1.95 5.89-1.03.67.5 1.34.14.75-.7-2.5-3.5-5.41-3.68-7.62-1.71-.6.65-1.07 1.2-1.55 1.75a7.63 7.63 0 0 0 2.53 1.69z" stroke-miterlimit="22.93" stroke-width=".65"/><path d="M206.27 373.15c-1.47 2.91-2.25 4.9-1.6 6.47.36.91-.06 1.75-.99.96-3.75-3.22-3.76-6.91-1.36-9.42a21.62 21.62 0 0 1 2.42-1.99c.98.92 1.6 3.84 1.53 3.98z" stroke-miterlimit="22.93" stroke-width=".66"/><path d="M196.9 365.49c-2.23.92-3 2.1-2.92 3.64.05.85-.51 1.16-.83.18-2.73-6.33.1-7.52 4.2-7.29a8.54 8.54 0 0 1-.45 3.47z" stroke-miterlimit="22.93" stroke-width=".61"/></g></g><g fill="none"><path d="M216.1 351.4c-1.46-.86-1.55-1.8-1.16-2.45.81-1.35 1.63-.7 3.17.55" stroke-miterlimit="31.03" stroke-width=".67"/><path d="M218.01 349.32c-1.46-.85-1.55-1.8-1.17-2.44.82-1.35 1.64-.7 3.18.55" stroke-miterlimit="31.03" stroke-width=".67"/><path d="M220.15 347.36c-1.62-1.1-1.72-2.34-1.3-3.17.9-1.76 1.81-.92 3.5.7" stroke-miterlimit="22.93" stroke-width=".67"/><path d="M222.45 344.9c-1.72-1.27-1.82-2.66-1.37-3.6.95-1.98 1.92-1.03 3.72.8" stroke-miterlimit="22.93" stroke-width=".68"/><path d="M224.88 342.27c-1.6-1.33-2.1-2.65-1.37-3.81 1.14-1.82 1.91-1.1 3.71.85" stroke-miterlimit="22.93" stroke-width=".67"/></g><g stroke-width=".67" fill-rule="evenodd"><path d="M246.6 199.87c-1.16 1-4.95 1.01-10.13 1.34-8.36.3-13.2-2.22-14.28-7.57 3.14 3.74 6.88 5.58 11.13 4.53 5.73-1.42 9.01-2.43 10.32-2.18.88.31 2.17 1.9 2.95 3.88z" fill="#ffc72c" stroke-linejoin="round"/><g fill="#fff"><path d="M265.94 313.8a652.4 652.4 0 0 0-.1 7.83h-.01l-5.98 1.24c-.01 2.73 6.72 31.21 10.19 31.21s10.2-28.5 10.19-31.23l-5.98-1.21-.02-.01c-.02-2.76-.05-5.44-.1-7.84a48.6 48.6 0 0 0-4.1 4.5 49.17 49.17 0 0 0-4.1-4.5z" stroke-miterlimit="22.93"/><g stroke-linejoin="round"><path d="m259.02 325.9-5.35-3.03c-2.25 1.61-3.92 7.6-.07 12.5 4.8 6.11 6.74 10.54 7.91 15.48 3.5-4.47 4.7-9.16 2.48-13.75-3-6.18-4.94-9.66-4.97-11.2z"/><path d="m263.4 321.62-5.35-3.03c-2.26 1.61-6.96 7.42-3.11 12.32 4.8 6.1 9.78 10.72 10.95 15.66 3.5-4.47 4.98-9.16 2.76-13.74-2.99-6.18-5.22-9.66-5.25-11.21zm17.65 4.27 5.35-3.03c2.26 1.62 3.92 7.61.07 12.51-4.79 6.1-6.74 10.53-7.9 15.47-3.5-4.46-4.7-9.16-2.48-13.74 2.99-6.18 4.93-9.66 4.96-11.21z"/><path d="m276.68 321.6 5.35-3.02c2.25 1.62 6.96 7.42 3.11 12.32-4.8 6.1-9.78 10.72-10.95 15.66-3.5-4.46-4.98-9.16-2.76-13.74 2.99-6.18 5.22-9.66 5.25-11.21zm-25.1-2.15-5.35-3.03c-2.25 1.62-3.92 7.61-.07 12.51 4.8 6.1 6.74 10.53 7.91 15.47 3.5-4.46 4.7-9.16 2.48-13.74-3-6.18-4.94-9.66-4.97-11.21z"/><path d="m288.5 319.44 5.35-3.03c2.25 1.62 3.91 7.61.06 12.51-4.8 6.1-6.73 10.53-7.9 15.47-3.5-4.46-4.7-9.16-2.48-13.74 2.99-6.18 4.94-9.66 4.96-11.21z"/></g><path d="M226.8 263.05c.1 4.88-.77 37.47-1.04 42.08a13.01 13.01 0 0 1-4.48 9.5 20.43 20.43 0 0 1-3.45-10.8c-.15-2.22.26-33.06.44-39.4 3.65-9.66 6.36-10.03 8.53-1.39z" stroke-miterlimit="22.93"/><path d="m205.58 255.07-1.38 44.81c-.44 3.98 4.75 27.63 7.58 32.3 7.01-3 8.5-19.04 7.17-34.68s.23-29.14 1.3-31.95c.1-3.54-.5-7.23-.54-10.91-4.47.27-9.66.17-14.13.44z" stroke-miterlimit="22.93"/><path d="m197.27 262.4.95 44.82c-.23 4 6.18 27.34 9.26 31.84 7.11-5.51 5.68-28.05 4.6-34.86-2.18-13.59-1.81-29.33-1.06-31.88-.1-3.54-.19-7.78-.41-11.46l-13.34 1.54z" stroke-miterlimit="22.93"/><path d="m191.1 273.02 11.8-.3c-1 4.89-.2 20.07 1.83 31.65 1.91 10.85 4.58 39-6.74 45.76-7.02-14.85-1.68-29.28-5.22-42.18-2.76-13.71-3.3-25.15-1.67-34.93zm45.1-18.2c-.05 4.89-1.9 37.43-2.31 42.03a13 13 0 0 1-4.77 9.35 20.44 20.44 0 0 1-3.12-10.9c-.08-2.23 1.27-33.05 1.64-39.38 3.94-9.54 6.66-9.82 8.57-1.12zm-20.96-26.55c-.32 10.5-.5 33.28-.43 35.21.15 4.38 1.88 9.95 3.79 12.74a13 13 0 0 0 4.76-9.35c.33-3.76.45-22.23.5-31.5a39.68 39.68 0 0 1-6.8-5.46s-1.75-1.55-1.82-1.64z" stroke-miterlimit="22.93"/><path d="M223.66 235.03c-.21 11.32-.09 29.13-.04 30.58a20.44 20.44 0 0 0 3.13 10.9 13.4 13.4 0 0 0 4.98-9.47c.26-2.82 1.04-14.89 1.11-24.16-2.99-.94-6.76-5.84-9.18-7.85zm-7.25-7.71-8.03-11.56c-1.62 5.7-3.6 46.6-1.28 49.96a20.54 20.54 0 0 0 3.64 10.88c2.22-1.73 5.54-4.82 4.58-9.45s.12-35.06 1.09-39.83z" stroke-miterlimit="22.93"/><path d="M199.95 253.04c-.36 6.33-.62 10.62-.54 12.85a20.45 20.45 0 0 0 3.13 10.9c2.22-1.73 5.05-4.78 4.76-9.36-1.12-17.71.82-34.4 3.08-50.44-1.91-1.4-5.12-2.9-7.03-4.3-3.8 21.6-5.08 35-3.4 40.36z" stroke-miterlimit="22.93"/><path d="m191.91 264.64 2.18 8.24c.15 4.37 2.86 8 4.76 10.78a9.4 9.4 0 0 0 3.68-9.1c-3.26-26.17-2.1-43.48 3.4-64.8-12.43 8.48-18.2 26.35-14.02 54.88z" stroke-linejoin="round"/><path d="m192.55 272.74-11.4-3.78c-1.46 11.38.77 25.68 3.85 44.54 2.64 16.2 1.25 29.01-.77 37.23 12.17-1.66 17.32-17.32 11.22-46.78a131.84 131.84 0 0 1-2.9-31.21z" stroke-miterlimit="22.93"/></g></g><path d="M192.2 327.84c.27-7.54-1-15.78-2.43-22.71a141.04 141.04 0 0 1-3.05-28.21" fill="none" stroke-linecap="round" stroke-miterlimit="22.93" stroke-width=".67"/><g fill-rule="evenodd"><g fill="#fff"><path d="m192.1 205.75 7.48 1.26c-.36 1.6-2.26 11.44-2.6 13.12-2.8 13.66-4.65 29.77-2.54 47.43.79 6.56 2.18 11.92 4.22 16.06-8.2-.93-13.47-8.93-12.79-22.9-1.43-16.3-.8-29.28 1.84-39.02.78-2.86 3.27-13.64 4.39-15.95z" stroke-linejoin="round" stroke-width=".67"/><path d="m187.56 207.53 3.68 4.18c-1.05.75.72 3.96-.23 10.2-.61 3.54-2.73 7.71-3.16 12.23-1.45 14.98-1.45 33.73 3.05 45.72-8.2-.94-11.03-8.37-11.3-22.34-.22-11.56-.25-25.19 2.65-40.92a14.42 14.42 0 0 1 5.3-9.07z" stroke-miterlimit="22.93" stroke-width=".67"/><path d="m208.07 218.55-7.58-.88c-1.39 7.15-2.45 12.2-2.72 14.76a23.71 23.71 0 0 0 2.75 13c2.8-1.69 4.1-5.36 5.27-10.51 1.18-5.18 1.47-10.81 2.28-16.37z" stroke-miterlimit="22.93" stroke-width=".59"/><path d="m227.74 234.66-6.73.07c-.23 6.18-.4 10.35-.28 12.53a20.7 20.7 0 0 0 3.1 10.58 12.75 12.75 0 0 0 4.28-9.17c.3-4.48-.33-9.25-.37-14z" stroke-miterlimit="22.93" stroke-width=".67"/><path d="m234.98 237.85-6.72.3c-.01 6.18-.04 10.36.15 12.53a20.7 20.7 0 0 0 3.47 10.47 12.77 12.77 0 0 0 3.96-9.3c.15-4.5-.65-9.24-.86-14z" stroke-miterlimit="22.93" stroke-width=".66"/><path d="m220.89 231.2-6.71-.47c-.73 6.13-1.24 10.28-1.3 12.45a20.76 20.76 0 0 0 2.23 10.8 12.75 12.75 0 0 0 5.01-8.78c.67-4.44.42-9.25.77-14z" stroke-miterlimit="22.93" stroke-width=".67"/><path d="m214.6 223.96-7.36-3.05c-1.25 4.97-2.95 21.32.07 28.23a14.21 14.21 0 0 0 5.74-9.7c.83-4.94 1.08-10.19 1.55-15.48z" stroke-miterlimit="22.93" stroke-width=".67"/><path d="m204.87 215.85-11.76 1.05a85.22 85.22 0 0 0-5.35 18.13c5.46-.97 9.4-3.64 10.83-8.53a23.8 23.8 0 0 1 6.28-10.64z" stroke-linecap="round" stroke-linejoin="round" stroke-width=".67"/></g><g fill="#ffc72c" stroke-miterlimit="22.93"><g stroke-width=".66"><path d="M216.79 393.77c4.5 3.6 8.6-4.62 4.62-15.49-2.95-8.04-17.36-4.92-9.33 5.9.38.51.92.27.84-.31-.45-2.22.96-3.5 3.14-3.1 5.97 1.12 6.16 12.43-.33 9.85-1.19-.07-.12 2.2 1.06 3.15zm14.74 0c-4.5 3.6-8.6-4.62-4.62-15.49 2.95-8.04 17.36-4.92 9.33 5.9-.38.51-.91.27-.84-.31.46-2.22-.96-3.5-3.14-3.1-5.97 1.12-6.16 12.43.33 9.85 1.18-.07.12 2.2-1.06 3.15z"/><path d="M223.73 358.86v.07c-.59 1.89-2.77 4.24-4.46 6.01a7.04 7.04 0 0 0-.2 9.1 15.98 15.98 0 0 1 3.28 7.23 27.9 27.9 0 0 1 .44 8.73c-.19 2.23-1.54 3.38-2.8 4.37-.64.5.28 1.72 2.4 3.31a2.9 2.9 0 0 1 1.17 1.72c.12.26 1.1.26 1.22 0a2.9 2.9 0 0 1 1.18-1.72c2.12-1.59 3.03-2.8 2.4-3.3-1.27-1-2.62-2.15-2.8-4.38a28.18 28.18 0 0 1 .43-8.73 16 16 0 0 1 3.28-7.23 7.04 7.04 0 0 0-.19-9.1c-1.7-1.77-3.88-4.12-4.47-6v-.08c-.03-.37-.23-.55-.43-.55s-.41.18-.44.55z"/></g><path d="M220.92 384.94h6.5a2 2 0 1 1 0 3.98h-6.5a2 2 0 1 1 0-3.98z" stroke-width=".67"/><g stroke-width=".66"><path d="M308.54 393.77c4.49 3.6 8.6-4.62 4.62-15.49-2.95-8.04-17.36-4.92-9.33 5.9.38.51.91.27.84-.31-.46-2.22.96-3.5 3.14-3.1 5.97 1.12 6.16 12.43-.33 9.85-1.19-.07-.13 2.2 1.06 3.15zm14.74 0c-4.5 3.6-8.6-4.62-4.62-15.49 2.95-8.04 17.35-4.92 9.33 5.9-.38.51-.91.27-.84-.31.46-2.22-.96-3.5-3.14-3.1-5.97 1.12-6.16 12.43.33 9.85 1.19-.07.12 2.2-1.06 3.15z"/><path d="M315.47 358.86v.07c-.59 1.89-2.77 4.24-4.46 6.01a7.04 7.04 0 0 0-.2 9.1 15.94 15.94 0 0 1 3.28 7.23 27.9 27.9 0 0 1 .44 8.73c-.19 2.23-1.54 3.38-2.8 4.37-.64.5.27 1.72 2.4 3.31a2.9 2.9 0 0 1 1.17 1.72c.12.26 1.1.26 1.22 0a2.92 2.92 0 0 1 1.17-1.72c2.12-1.59 3.04-2.8 2.4-3.3-1.26-1-2.62-2.15-2.8-4.38a28 28 0 0 1 .44-8.73 15.95 15.95 0 0 1 3.27-7.22 7.04 7.04 0 0 0-.19-9.1c-1.7-1.77-3.88-4.13-4.47-6.02v-.07c-.03-.37-.23-.55-.43-.55s-.41.18-.44.55z"/></g><path d="M312.67 384.94h6.5a2 2 0 1 1 0 3.98h-6.5a2 2 0 1 1 0-3.98z" stroke-width=".67"/></g><g fill="#fff" stroke-width=".67"><path d="M313.28 263.05c-.1 4.88.76 37.47 1.03 42.08a13.03 13.03 0 0 0 4.49 9.5 20.42 20.42 0 0 0 3.45-10.8c.15-2.22-.26-33.06-.44-39.4-3.65-9.66-6.36-10.03-8.53-1.39z" stroke-miterlimit="22.93"/><path d="m334.5 255.07 1.39 44.81c.43 3.98-4.75 27.63-7.58 32.3-7.02-3-8.5-19.04-7.18-34.68s-.22-29.14-1.29-31.95c-.1-3.54.5-7.23.54-10.91 4.46.27 9.66.17 14.12.44z" stroke-miterlimit="22.93"/><path d="m342.81 262.4-.95 44.82c.23 4-6.19 27.34-9.26 31.84-7.11-5.51-5.68-28.05-4.6-34.86 2.18-13.59 1.81-29.33 1.06-31.88.1-3.54.18-7.78.41-11.46l13.34 1.54z" stroke-miterlimit="22.93"/><path d="m348.98 273.02-11.8-.3c1 4.89.2 20.07-1.83 31.65-1.9 10.85-4.57 39 6.75 45.76 7.02-14.85 1.67-29.28 5.21-42.18 2.76-13.71 3.3-25.16 1.67-34.93zm-45.1-18.2c.04 4.89 1.9 37.43 2.31 42.03a13 13 0 0 0 4.77 9.35 20.4 20.4 0 0 0 3.13-10.89c.08-2.23-1.27-33.05-1.64-39.38-3.94-9.54-6.66-9.82-8.57-1.12zm20.96-26.55c.32 10.5.5 33.28.43 35.21-.15 4.38-1.88 9.95-3.79 12.74a12.98 12.98 0 0 1-4.76-9.35c-.33-3.76-.45-22.23-.51-31.5a39.57 39.57 0 0 0 6.81-5.46s1.75-1.55 1.82-1.64z" stroke-miterlimit="22.93"/><path d="M316.41 235.03c.2 11.32.09 29.13.04 30.58a20.43 20.43 0 0 1-3.13 10.9 13.4 13.4 0 0 1-4.98-9.47 392.72 392.72 0 0 1-1.12-24.16c3-.94 6.77-5.84 9.19-7.85zm7.25-7.71 8.03-11.56c1.62 5.7 3.6 46.6 1.28 49.96a20.55 20.55 0 0 1-3.64 10.88c-2.23-1.73-5.54-4.82-4.58-9.45s-.12-35.06-1.09-39.83z" stroke-miterlimit="22.93"/><path d="M340.13 253.04c.36 6.33.62 10.62.54 12.85a20.44 20.44 0 0 1-3.13 10.9c-2.22-1.73-5.05-4.78-4.76-9.36 1.12-17.71-.82-34.4-3.08-50.44 1.91-1.4 5.12-2.9 7.03-4.3 3.8 21.6 5.08 35 3.4 40.36z" stroke-miterlimit="22.93"/><path d="m348.16 264.64-2.18 8.24c-.15 4.37-2.86 8-4.76 10.78a9.39 9.39 0 0 1-3.68-9.1c3.26-26.17 2.1-43.48-3.4-64.8 12.43 8.48 18.2 26.35 14.02 54.88z" stroke-linejoin="round"/><path d="m347.52 272.74 11.4-3.78c1.46 11.38-.78 25.68-3.85 44.54-2.63 16.2-1.25 29.01.77 37.23-12.17-1.66-17.31-17.32-11.21-46.78a132.09 132.09 0 0 0 2.89-31.21z" stroke-miterlimit="22.93"/></g></g><path d="M347.87 327.84c-.27-7.54 1-15.78 2.43-22.71a141.33 141.33 0 0 0 3.05-28.21" fill="none" stroke-linecap="round" stroke-miterlimit="22.93" stroke-width=".67"/><g fill-rule="evenodd"><g fill="#fff"><path d="m347.98 205.75-7.49 1.26c.37 1.6 2.27 11.44 2.62 13.12 2.8 13.66 4.64 29.77 2.53 47.43-.79 6.56-2.18 11.92-4.22 16.06 8.2-.93 13.47-8.93 12.79-22.9 1.43-16.3.8-29.28-1.84-39.02-.78-2.86-3.27-13.64-4.39-15.95z" stroke-linejoin="round" stroke-width=".67"/><path d="m352.52 207.53-3.68 4.18c1.05.75-.72 3.96.23 10.2.61 3.54 2.72 7.71 3.16 12.23 1.45 14.98 1.45 33.73-3.05 45.72 8.2-.94 11.03-8.37 11.3-22.34.21-11.56.25-25.19-2.65-40.92a14.42 14.42 0 0 0-5.3-9.07z" stroke-miterlimit="22.93" stroke-width=".67"/><path d="m332 218.55 7.58-.89c1.4 7.16 2.46 12.21 2.72 14.77a23.7 23.7 0 0 1-2.74 12.99c-2.8-1.69-4.1-5.36-5.27-10.5-1.18-5.19-1.48-10.82-2.28-16.37z" stroke-miterlimit="22.93" stroke-width=".59"/><path d="m312.34 234.65 6.72.07c.23 6.18.4 10.35.3 12.52a20.72 20.72 0 0 1-3.11 10.59 12.75 12.75 0 0 1-4.28-9.16c-.3-4.48.33-9.25.37-14.02z" stroke-miterlimit="22.93" stroke-width=".67"/><path d="m305.1 237.84 6.72.31c.02 6.17.03 10.36-.15 12.53a20.71 20.71 0 0 1-3.47 10.46 12.74 12.74 0 0 1-3.96-9.3c-.15-4.49.65-9.23.86-13.99z" stroke-miterlimit="22.93" stroke-width=".66"/><path d="m319.2 231.19 6.7-.48c.73 6.14 1.24 10.29 1.3 12.46a20.73 20.73 0 0 1-2.24 10.8 12.75 12.75 0 0 1-5-8.78c-.68-4.44-.43-9.25-.77-14z" stroke-miterlimit="22.93" stroke-width=".67"/><path d="m325.48 223.96 7.36-3.05c1.25 4.97 2.95 21.32-.06 28.22a14.2 14.2 0 0 1-5.75-9.7c-.83-4.93-1.08-10.19-1.55-15.47z" stroke-miterlimit="22.93" stroke-width=".67"/><g stroke-linejoin="round" stroke-width=".67"><path d="m335.2 215.84 11.77 1.05a84.92 84.92 0 0 1 5.34 18.12c-5.45-.96-9.4-3.64-10.82-8.52a23.81 23.81 0 0 0-6.28-10.65z" stroke-linecap="round"/><path d="M300.62 232.58a21.6 21.6 0 0 0 2.74-.77c-4.3-2.7-7.87-5.96-12.12-12.46-4.34-6.66 1.9-18.55 4.47-24.86 5.36-3.96 10.4-9.78 12.01-17.46.63-4.13-10.77-2.64-18.61 1.06-9.59 4.53-10.9 3.27-14.31 4.04-1.22 5.87 1.33 6.36 3.77 6.07-5.28 8.46-7.48 16.89-8.54 29-1.05-12.11-3.25-20.53-8.54-29 2.45.29 5-.2 3.78-6.07-3.42-.77-4.72.49-14.31-4.04-7.84-3.7-19.25-5.19-18.61-1.06 1.6 7.68 6.65 13.5 12 17.46 2.57 6.31 8.82 18.2 4.48 24.87-4.25 6.5-7.82 9.76-12.12 12.45a22.05 22.05 0 0 0 2.73.77c-.64.89-6.23 2.63-6.88 2.17-4.27-3.02-8.44-10.11-12.07-14.23-10.29-11.67-15.42-20.67-13.6-27.93 2.58-7.82 11.8-16.6-.42-15.07s-22.34 18.25-25.59 38.4c-1.2 7.47-1.9 13.72-2.72 18.84 6.67-2.38 9.62-4.74 11.4-7.67a68.5 68.5 0 0 0-1.8 7.93c5.45-.96 9.41-3.64 10.83-8.52a25.51 25.51 0 0 1 2-4.98 11.55 11.55 0 0 0 6.5-.09c1 2.4 8.52 10.75 12.55 16.9 4.56 6.94 11.41 12.24 13.67 12.53 1.13.15 1.48-2.36 1.23-5.81 11.91.08 23.82.15 35.5-.24 11.67.4 23.58.32 35.5.24-.25 3.45.1 5.96 1.22 5.81 2.26-.3 9.11-5.6 13.67-12.53 4.04-6.14 11.55-14.5 12.55-16.9a11.55 11.55 0 0 0 6.5.09 25.5 25.5 0 0 1 2 4.98c1.42 4.88 5.38 7.56 10.83 8.52a67.54 67.54 0 0 0-1.8-7.93c1.78 2.93 4.73 5.3 11.4 7.67-.82-5.12-1.52-11.37-2.73-18.84-3.25-20.15-13.37-36.89-25.59-38.4s-2.99 7.25-.4 15.07c1.81 7.26-3.32 16.27-13.61 27.93-3.64 4.12-7.8 11.2-12.07 14.23-.65.46-6.24-1.28-6.89-2.17z"/></g></g><g fill="#ffc72c" stroke-width=".67"><path d="M293.49 199.86c1.15 1 4.93 1.02 10.12 1.35 8.36.29 13.2-2.23 14.28-7.58-3.14 3.74-6.88 5.59-11.13 4.54-5.73-1.42-9.02-2.44-10.32-2.19-.88.32-2.17 1.9-2.95 3.88z" stroke-linejoin="round"/><path d="M313.04 177.9c9.37 1.01 8.92 7.14.16 15.79-1.68 1.66-2.25 1.6-2.6-.12-.63-3-3.97-4.78-5.72-2.49-1.2 1.56-.93 2.45-4.9 1.9-5 4.2-9.09 7.15-2.53 6.91 2.89-.1 5.11 1.57 8.87 1.42-1.11 2.16-1.31 2.4-1.91 2.6-3.65.71-7.49-1.56-11.16-.89-8.06 1.49 12.9-21.75 12.65-22.67-.67-2.33 5.03-6.53 7.14-2.45z" stroke-miterlimit="22.93"/></g></g><path d="M312.82 177.7a14.21 14.21 0 0 1-4.45 6.08" fill="none" stroke-linecap="round" stroke-miterlimit="22.93" stroke-width=".67"/></g><path d="M314.82 182.2a.81.81 0 0 0-.89-.69.74.74 0 0 0-.67.85.81.81 0 0 0 .89.68.74.74 0 0 0 .67-.85" fill="#21231e" fill-rule="evenodd"/><g fill="none" stroke="#21231e"><path d="M234.74 180.25c2.52-.14 5.1.97 8.45 2.18.94.34 4.21 1.63 5.21 1.48" stroke-linecap="round" stroke-miterlimit="23.68" stroke-width=".89"/><path d="M261.64 188.23a48.89 48.89 0 0 1-5.53-1.16" stroke-linecap="round" stroke-miterlimit="24.13" stroke-width=".67"/><path d="M236.74 180.43c1.06 1.94 2.31 4.56 4.54 5.8 1.68.94 3.54-.54 4.9-3.08" stroke-miterlimit="29.6" stroke-width=".89"/></g><path d="m240.39 185.3-1.23-1.23q-.9-1.15 1.04-3.04l2.47 1.04q-.76 2.57-2.28 3.23" fill="#21231e" fill-rule="evenodd"/><path d="M303.34 180.43c-1.06 1.93-2.31 4.56-4.54 5.8-1.67.94-3.54-.54-4.9-3.08" fill="none" stroke="#21231e" stroke-miterlimit="29.6" stroke-width=".89"/><path d="m299.68 185.3 1.23-1.23q.91-1.15-1.04-3.04l-2.47 1.04q.76 2.57 2.28 3.23" fill="#21231e" fill-rule="evenodd"/><g stroke="#21231e"><g fill="none" stroke-linecap="round"><path d="M305.34 180.25c-2.52-.14-5.1.97-8.44 2.18-.94.34-4.22 1.63-5.22 1.48" stroke-miterlimit="23.68" stroke-width=".89"/><path d="M278.43 188.23a48.7 48.7 0 0 0 5.53-1.15" stroke-miterlimit="24.13" stroke-width=".67"/><g stroke-linejoin="round" stroke-width=".67"><path d="M236.71 231.81c5.35 1.88 10.19 1.5 13.81-2.06l1.63-1.62"/><path d="M252.8 224.87a33.1 33.1 0 0 1-2.7 9.34c3.78-.98 6.76-2.71 8.58-5.31m11.3 7.03a20.6 20.6 0 0 1-4.96-12.33"/><path d="M257.93 224.34a18.68 18.68 0 0 0 3.04 9.09 12.14 12.14 0 0 0 4.38-6.83m38.01 5.21c-5.35 1.88-10.18 1.5-13.8-2.06-.58-.57-1.13-1.1-1.64-1.62"/><path d="M287.27 224.87a33.1 33.1 0 0 0 2.7 9.34c-3.77-.98-6.75-2.71-8.57-5.31"/><path d="M282.13 224.34a18.64 18.64 0 0 1-3.03 9.09 12.12 12.12 0 0 1-4.38-6.83"/><path d="M270.1 235.93a20.6 20.6 0 0 0 4.95-12.33"/></g><path d="M200.44 203.39c-4.24 3.02-12.05 24.94-12.65 31.37-1.4 14.87-1.33 33.28 3.11 45.1m148.73-76.47c4.24 3.02 12.05 24.94 12.66 31.37 1.38 14.87 1.33 33.28-3.12 45.1" stroke-miterlimit="22.93" stroke-width=".67"/></g><path d="M227.04 177.9c-9.38 1.01-8.93 7.14-.16 15.79 1.67 1.66 2.25 1.6 2.6-.12.63-3 3.97-4.78 5.72-2.49 1.19 1.56.92 2.45 4.9 1.9 5.01 4.2 9.1 7.15 2.53 6.91-2.89-.1-5.11 1.57-8.87 1.42 1.11 2.16 1.31 2.4 1.91 2.6 3.65.71 7.49-1.56 11.17-.89 8.06 1.49-12.91-21.75-12.65-22.67.66-2.33-5.04-6.53-7.14-2.45z" fill="#ffc72c" stroke-linejoin="round" stroke-width=".67" fill-rule="evenodd"/><path d="M227.26 177.7a14.21 14.21 0 0 0 4.44 6.08" fill="none" stroke-linecap="round" stroke-miterlimit="22.93" stroke-width=".67"/></g><path d="M225.26 182.2a.82.82 0 0 1 .9-.69.74.74 0 0 1 .66.85.81.81 0 0 1-.88.68.74.74 0 0 1-.68-.85" fill="#21231e" fill-rule="evenodd"/><g stroke="#21231e"><g fill-rule="evenodd"><g fill="#fff" stroke-width=".67"><path d="m233.37 325.1.21-6.15c-2.47-1.25-8.56.03-11.13 5.7-3.2 7.08-6.24 10.84-10.08 14.16 5.57 1.04 10.3-.06 13.34-4.14 4.1-5.5 6.3-8.84 7.66-9.58z" stroke-linejoin="round"/><path d="m237.89 325.9-6.65-2.8c-2.73 5.55-4.58 9.3-5.36 11.33a19.63 19.63 0 0 0-1.22 11 12.62 12.62 0 0 0 7.92-6.56c2.12-3.97 3.42-8.6 5.3-12.98z" stroke-miterlimit="25.36"/><path d="m239.81 325.9-7.13-1.09c-1.29 6.05-2.17 10.14-2.42 12.3a19.58 19.58 0 0 0 1.49 10.97 12.6 12.6 0 0 0 6.08-8.3c1.09-4.37 1.22-9.18 1.98-13.88z" stroke-miterlimit="23.37"/><path d="m240.86 316.2 4.25-.02c2.49 1.23 5.1 6.88 2.08 12.33-3.75 6.8-4.96 11.48-5.32 16.54-4.17-3.85-6.1-8.29-4.65-13.17 1.96-6.57 3.86-14.14 3.64-15.67z" stroke-linejoin="round"/><path d="m242.76 313.25-6.8-2.41c-2.4 5.7-4.04 9.54-4.7 11.62a19.56 19.56 0 0 0-.6 11.05 12.36 12.36 0 0 0 7.9-6.64c1.9-4.08 2.56-9.15 4.2-13.62z" stroke-miterlimit="24.73"/><path d="m238.14 308.51-1.48-9.23c-1.57-.43-3.64 3.22-5.68 5.35a12.92 12.92 0 0 0-1.41 1.55 13.22 13.22 0 0 0-1.93 4.49 35.66 35.66 0 0 1-7.26 15.55c5.67-.12 10.07-2.16 12.21-6.77 2.9-6.23 4.37-9.94 5.55-10.94z" stroke-linejoin="round"/></g><g fill="#ffc72c"><path d="M309.53 328.1c1.8.07 4.02 1.1 10.5 6.71 2.82 5.77 5.67 11.56 9.6 16.56a15.13 15.13 0 0 0 3.45 1.85c1.1.37 9.27.1 9.46-.24 2.54-2.3 6.43-.66 5.13 1.77 1 .95-1.2 4.44-2.99 2.99-1.64-1.33-7.32-.07-9.22-.76.72 1.7 5.86 2.81 9.45 3.08 3.29.14 3.07 3.41 1.71 5.92-1.54.98-.27-.25-.83.46-1.47 2.18-4.62 1.9-4.72-.23-.11-2.2-7.78-5.08-8.93-6.77 1.4 3.35 4.65 6.47 6.26 9.75 1.73 1.73 2.78 2.08.54 5.58-2.47-.28-2.62-.94-4.15.5-3.4-.37-3.94-1.37-3.4-4.06.6-2.83-1.78-7.96-2.57-9.4-.73-1.34-.9-2.73-1.62-3.57-1.23-1.45-7.09-4.36-8.59-3.56-2.76 1.47-4.87.58-5.22-2.1.9-.68.23-4.48 2.14-4.64 1.56-.13 2.49.35 3.92 1.52 2.27 1.84 3.43 2.83 4.17 2.62 1.76-.48-3.2-2.91-7.7-8.83-6.26-8.2-6.68-12.35-6.4-15.16z" stroke-linejoin="round" stroke-width=".66"/><path d="M347.3 356.27c2.26-1.33 3.57-1.28 4.44-.3.49.55 1.1.27.74-.58-1.5-3.56-3.9-4-6.06-2.33-.6.55-1.09 1.03-1.57 1.51.36.54 2.16 1.29 2.45 1.7z" stroke-miterlimit="23.18" stroke-width=".67"/><path d="M314.89 353.07c-2.4-1.62-4.65-1.94-5.89-1.03-.68.5-1.35.14-.75-.7 2.49-3.5 5.41-3.68 7.62-1.7.59.65 1.07 1.2 1.54 1.75a7.43 7.43 0 0 1-2.52 1.68z" stroke-miterlimit="22.93" stroke-width=".65"/><path d="M333.82 373.15c1.47 2.9 2.25 4.9 1.61 6.47-.38.91.05 1.75.97.95 3.76-3.21 3.77-6.9 1.37-9.41a22.37 22.37 0 0 0-2.42-1.99c-.98.92-1.6 3.83-1.53 3.98z" stroke-miterlimit="22.93" stroke-width=".66"/><path d="M343.19 365.48c2.23.93 3 2.1 2.91 3.64-.04.84.52 1.16.83.18 2.73-6.33-.1-7.52-4.19-7.29a8.45 8.45 0 0 0 .45 3.47z" stroke-miterlimit="22.93" stroke-width=".61"/></g></g><g fill="none"><path d="M323.96 351.38c1.47-.85 1.56-1.8 1.18-2.43-.82-1.35-1.64-.7-3.18.54" stroke-miterlimit="31.03" stroke-width=".67"/><path d="M322.06 349.33c1.47-.86 1.56-1.8 1.18-2.44-.82-1.35-1.64-.7-3.18.54" stroke-miterlimit="31.03" stroke-width=".67"/><path d="M319.93 347.36c1.62-1.1 1.71-2.34 1.29-3.17-.9-1.76-1.8-.92-3.5.7" stroke-miterlimit="22.93" stroke-width=".67"/><path d="M317.62 344.9c1.72-1.27 1.83-2.66 1.38-3.6-.96-1.98-1.92-1.03-3.72.8" stroke-miterlimit="22.93" stroke-width=".68"/><path d="M315.2 342.27c1.6-1.33 2.1-2.65 1.38-3.81-1.15-1.82-1.92-1.1-3.72.85" stroke-miterlimit="22.93" stroke-width=".67"/></g><g fill="#fff" stroke-width=".67" fill-rule="evenodd"><path d="m306.71 325.1-.21-6.14c2.47-1.25 8.56.03 11.13 5.7 3.2 7.08 6.24 10.84 10.08 14.16-5.57 1.04-10.3-.06-13.33-4.14-4.11-5.5-6.3-8.84-7.67-9.58z" stroke-linejoin="round"/><path d="m302.18 325.9 6.65-2.8c2.73 5.55 4.58 9.3 5.36 11.33a19.56 19.56 0 0 1 1.22 11 12.6 12.6 0 0 1-7.92-6.56c-2.12-3.97-3.42-8.6-5.3-12.98z" stroke-miterlimit="25.36"/><path d="m300.27 325.9 7.13-1.09c1.29 6.05 2.17 10.14 2.42 12.3a19.57 19.57 0 0 1-1.49 10.97 12.58 12.58 0 0 1-6.08-8.3c-1.09-4.37-1.22-9.18-1.98-13.88z" stroke-miterlimit="23.37"/><path d="m299.2 316.2-4.25-.03c-2.48 1.23-5.09 6.88-2.08 12.34 3.76 6.8 4.96 11.48 5.33 16.54 4.16-3.85 6.1-8.3 4.65-13.17-1.97-6.58-3.87-14.14-3.65-15.68z" stroke-linejoin="round"/><path d="m297.31 313.25 6.8-2.4c2.41 5.68 4.05 9.53 4.7 11.61a19.55 19.55 0 0 1 .6 11.05 12.38 12.38 0 0 1-7.9-6.64c-1.89-4.08-2.56-9.15-4.2-13.62z" stroke-miterlimit="24.73"/><path d="m301.94 308.5 1.49-9.23c1.57-.42 3.64 3.23 5.67 5.36a12.32 12.32 0 0 1 1.41 1.56 13.12 13.12 0 0 1 1.93 4.48 35.67 35.67 0 0 0 7.26 15.54c-5.67-.11-10.06-2.15-12.2-6.77-2.9-6.22-4.37-9.93-5.56-10.93z" stroke-linejoin="round"/></g><path d="M307.85 236.6v61.13a40.6 40.6 0 0 1-11.1 28.04 36.82 36.82 0 0 1-26.7 11.65 36.82 36.82 0 0 1-26.72-11.65 40.6 40.6 0 0 1-11.09-28.04V236.6z" fill="#e40046" stroke-miterlimit="22.93" stroke-width="1.33"/><g fill="#fff"><path d="M307.84 274.1v15.74h-29.93v46.7a35.9 35.9 0 0 1-7.87.88 35.86 35.86 0 0 1-7.88-.87v-46.7h-29.93v-15.76h29.94V236.6h15.75v37.5z" stroke-miterlimit="22.93" stroke-width=".67"/><g stroke-linejoin="round" fill-rule="evenodd"><path d="M257.06 245.54v22.15c-4.83 1.3-16.59 5.98-17.2-4.29-.28-4.75 5.89-7.87 7.55-3.68.79 1.98-.07 3.38-1.23 3.84a1.64 1.64 0 0 1-2.16-2.03c-5 2.61 4.47 8.15 8.73.94 1.25-2.1-2.1-4.3-2.1-5.85s3.29-3.9 2.1-5.86c-4.32-7.18-13.73-1.67-8.73.94a1.64 1.64 0 0 1 2.16-2.03c1.16.45 2.02 1.86 1.23 3.84-1.66 4.2-7.83 1.06-7.55-3.68.61-10.27 12.37-5.59 17.2-4.29z" stroke-width=".68"/><path d="M283.02 245.54v22.15c4.83 1.3 16.59 5.98 17.2-4.29.29-4.75-5.89-7.87-7.55-3.68-.79 1.98.07 3.38 1.23 3.84a1.63 1.63 0 0 0 2.17-2.03c5 2.61-4.47 8.15-8.74.94-1.25-2.1 2.1-4.3 2.1-5.85s-3.28-3.9-2.1-5.86c4.33-7.18 13.73-1.67 8.74.94a1.64 1.64 0 0 0-2.17-2.03c-1.16.45-2.02 1.86-1.23 3.84 1.66 4.2 7.84 1.06 7.55-3.68-.6-10.27-12.36-5.59-17.2-4.29zm-25.97 72.87v-22.15c-4.82-1.3-16.58-5.97-17.19 4.3-.28 4.74 5.89 7.87 7.55 3.68.79-1.99-.07-3.4-1.23-3.85a1.64 1.64 0 0 0-2.16 2.04c-5-2.61 4.46-8.16 8.73-.94 1.25 2.1-2.1 4.29-2.1 5.85s3.29 3.89 2.1 5.85c-4.32 7.18-13.73 1.67-8.73-.94a1.63 1.63 0 0 0 2.16 2.03c1.16-.45 2.02-1.86 1.23-3.84-1.66-4.2-7.83-1.06-7.55 3.68.61 10.27 12.37 5.59 17.2 4.3zm25.97 0v-22.15c4.83-1.3 16.59-5.97 17.2 4.3.29 4.74-5.89 7.87-7.55 3.68-.79-1.99.07-3.4 1.23-3.85a1.63 1.63 0 0 1 2.17 2.04c5-2.61-4.47-8.16-8.74-.94-1.25 2.1 2.1 4.29 2.1 5.85s-3.28 3.89-2.1 5.85c4.33 7.18 13.73 1.67 8.74-.94a1.63 1.63 0 0 1-2.17 2.03c-1.16-.45-2.02-1.86-1.23-3.84 1.66-4.2 7.84-1.06 7.55 3.68-.6 10.27-12.36 5.59-17.2 4.3z" stroke-width=".67"/></g></g><path d="M307.85 236.6v61.13a40.6 40.6 0 0 1-11.1 28.04 36.82 36.82 0 0 1-26.7 11.65 36.82 36.82 0 0 1-26.72-11.65 40.6 40.6 0 0 1-11.09-28.04V236.6z" fill="none" stroke-miterlimit="22.93" stroke-width="1.33"/></g></svg>