<svg xmlns="http://www.w3.org/2000/svg" viewBox="0 0 900 600"><path d="M900 600V0H0v600z" fill="#006c35"/><path d="M636.91 160.58c5.1-3.64 9.84-7.72 15.52-10.58-1.62 6.5-6.49 11.46-11.47 15.64-2.54 1.99-1.39 5.62-1.73 8.38a56.04 56.04 0 0 1-4.06-1.1c1.28 16.52 3.13 32.94 3.94 49.46.12 1.87.23 3.86 1.85 5.07 7.65 6.83 15.52 13.55 21.08 22.25 2.2 3.42 3.36 7.27 4.52 11.13a61.16 61.16 0 0 0 .58-19.5q-4.17-37.68-7.53-75.58c-.23-3.08-.7-6.28-.35-9.36a5.83 5.83 0 0 1 6.03-5.07 14.49 14.49 0 0 1 3.59 5.4c2.31 5.18 4.4 10.8 3.82 16.64-1.4-.44-2.78-1-4.29-1.54 2.09 17.07 4.17 34.15 5.45 51.33.58 11.57 2.31 23.25-.12 34.7-2.08 10.58-7.3 21.27-16.56 27.32-7.76 5.07-16.8 7.94-25.83 9.8a23.72 23.72 0 0 1-11.12.12c3.82-2.1 8.11-3.64 12.16-5.4a105.89 105.89 0 0 0 16.91-8.81c4.98-3.3 10.2-6.61 13.9-11.46-4.63-12.34-12.27-23.9-23.16-31.51.35 12.12.93 24.46-.93 36.47a12.53 12.53 0 0 1-3.59 7.38c-1.27-5.07-1.39-10.36-1.97-15.54a1667.38 1667.38 0 0 1-2.78-33.82c0-2.31-1.5-4.07-3.24-5.4-6.83-5.73-13.2-12.12-19.8-18.07.23 6.95 1.27 13.78 1.74 20.6.8 9.26.92 18.51 1.85 27.77.58 6.5.7 13.33-1.74 19.5-2.43 5.84-7.87 10.8-14.36 11.23a40.26 40.26 0 0 1-10.3-.55c-3.6-.55-6.38-3.3-8-6.39-1.97-3.74-3-7.93-4.63-11.78-3.01.66-6.14 1.32-8.34 3.63-4.63 4.4-6.02 11.13-8.22 16.86-1.28 3.41-2.78 7.16-6.14 9.03-3.47 1.98-7.76 1.21-11.12-.66-5.1-2.75-8.22-8.04-9.73-13.44-1.5-4.19.58-9.03-1.97-13-1.85-3.64-.8-7.93.12-11.68 1.97-6.72 6.14-12.45 11.12-17.3l-19.8-17.18c.58 15.86 1.85 31.72-.23 47.48a13.78 13.78 0 0 1-3.83 8.48 60.23 60.23 0 0 1-1.39-9.14q-2.43-26.11-4.16-52.22c-.12-1.99-.47-4.19-2.09-5.51a253.1 253.1 0 0 1-19.22-20.38c-3.48-4.4-7.07-8.93-8.92-14.21-.7-2.2-1.28-5.3.8-6.94a18.12 18.12 0 0 1 6.73 2.42 46.87 46.87 0 0 1 10.53 8.37 12.43 12.43 0 0 1 2.67 5.18c-1.97 0-3.82-.11-5.8-.11a77.03 77.03 0 0 0 13.9 15.2c-.46-14.76-2.08-29.64-2.77-44.4 0-1.98 0-4.19 1.39-5.84 1.27-1.43 3.24-1.98 4.98-2.64a47.98 47.98 0 0 1 6.95 15.64 22.38 22.38 0 0 1 .34 6.83 42.78 42.78 0 0 1-4.05-1.21c.93 12 2.2 23.9 3.01 35.91a25.35 25.35 0 0 0 .7 5.07 13.02 13.02 0 0 0 2.66 2.87c8.22 6.94 16.45 13.88 24.79 20.6 4.98-4.3 9.84-8.7 14.82-12.9a27.16 27.16 0 0 0 3.24-2.97c.93-.99.58-2.42.58-3.63-1.62-14.44-2.78-28.87-4.05-43.3-.35-5.3-1.16-10.47-1.16-15.65-.12-3.08 2.32-6.17 5.44-6.28 1.4-.1 1.97 1.44 2.67 2.32a47.8 47.8 0 0 1 5.1 13.1 15.15 15.15 0 0 1-.12 6.84c-1.27-.55-2.66-1.22-3.94-1.77 1.74 13.55 3.13 27.1 4.4 40.66 3.6-2.65 6.84-5.73 10.2-8.6 3.7-3.2 7.64-6.28 11.23-9.7-4.29-4.62-8.8-8.92-13.2-13.43-2.78-2.87-6.14-5.62-7.3-9.7-.93-2.87-.35-5.95.23-8.7 5.21.88 9.73 3.96 13.9 7.05a81.43 81.43 0 0 1 8 7.27c-.24-5.73-.93-11.46-1.4-17.19 0-2.2-.23-4.62 1.28-6.39 1.27-1.43 3.24-1.98 4.86-2.75a42.31 42.31 0 0 1 6.83 14.98 22.09 22.09 0 0 1 .58 7.27c-1.39-.33-2.9-.66-4.28-.99.46 4.4.92 8.7 1.5 13.11 5.45-4.07 10.43-8.7 15.87-12.78 1.85-1.76 5.21-3.08 5.21-6.17.12-3.3-.58-6.72-.11-10.02a5.82 5.82 0 0 1 6.02-4.96c2.78 2.64 3.82 5.95 5.33 8.81zm-28.26 31.83c-.93 1-2.66 1.88-2.55 3.53.7 1.43 2.09 2.53 3.25 3.75 6.71 6.06 13.08 12.44 20.15 17.95-.23-6.5-.93-12.89-1.27-19.39-.58-6.83-.82-13.66-1.51-20.49-6.25 4.52-11.93 9.8-18.07 14.65zm-17.02-12c1.5 1.65 2.9 3.3 4.4 4.95 0-1.65-.12-3.3-.12-4.95zm-16.22 40.2c-1.16 1-2.55 2.1-2.43 3.75-.12 8.38.81 16.97-1.27 25.12-.47 2.1-1.97 3.53-3.48 4.85-1.85-8.04-1.97-16.3-3.36-24.46a254.17 254.17 0 0 0-14.36 12.56c2.66 2.97 5.33 6.17 6.26 10.25a15.5 15.5 0 0 1-4.87 15.86c-5.68 4.74-13.32 5.5-20.38 6.39 1.04 4.63 1.96 9.47 4.74 13.44 1.74 2.31 4.52 4.52 7.53 3.64 3.25-.89 5.21-3.97 6.37-6.84a92.1 92.1 0 0 1 8.34-16.85c2.78-4.4 7.3-8.04 12.62-8.15 1.74.1 4.06-.44 5.1 1.43 2.32 3.85 3.13 8.48 6.03 12.12 4.86 6.39 15.17 6.5 20.96 1.21 1.97-1.76 1.97-4.63 1.74-7.05-2.67-21.92-4.64-44.07-6.95-66-7.76 6.07-15.06 12.46-22.59 18.74zm-40.88 37.46a16.79 16.79 0 0 0-2.55 5.84 24.76 24.76 0 0 0 15.06-3.2c1.39-.87 3-2.3 2.66-4.18-.35-3.74-3.47-6.39-6.25-8.6a85.5 85.5 0 0 0-8.92 10.14zm-217.5-106.86c1.38-.88 2.66.66 3.59 1.65 2.77 3.42 5.79 6.83 7.4 11.02l-4.28.66c.35 6.61 5.9 11.13 7.53 17.4a24.4 24.4 0 0 1 .46 11.9 14.04 14.04 0 0 1-11 10.8c-6.37 1.1-13.55-.43-18.3-5.17-3.12-3.08-4.28-7.5-5.67-11.46-1.5 5.4-3.7 10.58-7.53 14.77a27.18 27.18 0 0 1-8 5.83c.82 14.77 2.32 29.53 1.05 44.18-.46 4.19-.7 9.15-4.52 11.9-1.39-5.84-1.62-11.9-2.31-17.96-1.28-12.23-2.2-24.45-3.48-36.68-3.59-.88-7.53-1.65-10.3-4.3-4.64-4.19-6.14-10.69-5.8-16.64.12-4.63 1.63-9.14 2.67-13.66a16.77 16.77 0 0 0-3.94 6.17c-2.43 7.38-4.05 15.1-7.41 22.14a10.06 10.06 0 0 1-6.72 5.73c-3.7.77-8.1.55-11-2.31-3.13-3.08-3.82-7.71-4.28-11.9-.24-4.3-.58-8.92 1.39-12.89 1.15-2.42 3.59-3.75 5.67-4.96-1.39 2.32-3.01 4.63-3.36 7.27-.46 3.75.23 7.6.93 11.24.46 2.2.92 4.63 2.66 6.17a7.42 7.42 0 0 0 9.73-.22 16.11 16.11 0 0 0 2.78-5.4c2.32-7.05 4.17-14.32 7.06-21.15 2.55-5.73 7.07-11.35 13.56-12.56-.7 7.82-4.29 15.1-4.52 23.02-.12 3.53.23 7.38 2.55 10.14 1.73 2.31 4.63 3.08 7.3 3.85-.7-10.68-1.74-21.37-2.44-32.16-.23-3.97-.92-8.05-.23-12.01.58-2.76 3.6-3.75 5.91-4.63 4.4 6.5 7.64 14.21 7.53 22.14l-4.4-.99c.92 9.15 1.85 18.4 2.9 27.54a17.37 17.37 0 0 0 9.5-6.94c4.51-6.5 5.21-14.98 3-22.47-.92-3.2-2.42-6.17-3.12-9.48-.7-3.08 1.5-6.27 4.29-7.27 1.27-.55 1.85 1 2.43 1.88 1.74 3.74 2.32 7.93 3.13 12 1.04 5.4 0 11.02 1.96 16.2a20.03 20.03 0 0 0 8.7 10.8 16.84 16.84 0 0 0 11.11 1.65 5 5 0 0 0 3.82-3.74c.93-3.53-.35-7.16-1.85-10.36-3.48-7.27-7.76-14.21-9.38-22.14-.58-2.87.23-6.83 3.24-8.6z" fill="#fff"/><path d="M476.04 159.7a21.93 21.93 0 0 1 9.61-8.48 43.42 43.42 0 0 1-4.16 7.49c-1.16 1.76-1.16 3.96-1.28 5.95a37.75 37.75 0 0 0 7.88-1.22c-.7 2.1-1.4 4.3-3.36 5.62-2.2 1.55-5.45 2.54-7.76.66a8.63 8.63 0 0 1-.93-10.02zm-143.61-4.85c1.16-1.77 3.36-2.43 5.1-3.2a42.35 42.35 0 0 1 7.18 15.86 18.14 18.14 0 0 1 .12 6.61c-1.28-.44-2.67-.88-3.94-1.32 1.5 10.69 3.36 21.26 4.63 31.95 6.14-2.98 11.81-6.61 18.18-9.26a19.96 19.96 0 0 1 6.26-1.54c-.81 1.76-1.74 3.53-3.6 4.3-6.71 3.42-13.54 6.4-20.15 10.14.58 5.29 1.16 10.68 1.86 15.97 3-3.85 5.67-8.7 10.88-9.91.24 2.86-.7 6.28 1.4 8.59 3.24 2.53 7.64 1 10.65-1.32-.23-4.19.93-8.26 1.74-12.34 1.27.55 2.9.77 3.35 2.31 1.4 3.86 1.05 8.16 0 12.01-1.04 4.4-4.63 7.71-8.57 9.7-2.43 1.2-5.44 1.87-8.1.77-2.78-1.1-4.52-3.75-6.37-6.06-1.62 3.96-4.29 7.6-4.4 12.12a47.25 47.25 0 0 1-9.85 26c-9.84 12.89-24.9 20.6-40.19 25.11-8.8 2.43-17.95 4.63-27.21 4.2a28.55 28.55 0 0 1-14.36-3.87c-1.86-1.2-3.48-2.86-5.33-3.96-2.32-.44-4.75.22-7.18.22-5.8.22-11.58.44-17.26-.55 6.95-2.31 14.01-4.08 20.85-6.61a55.38 55.38 0 0 1 6.95-36.14 37.35 37.35 0 0 1 6.25-7.6c-1.97 3.97-4.4 7.83-5.44 12.23a51.83 51.83 0 0 0 .46 28.2c4.75-1.54 9.38-3.63 13.9-5.61 10.54-4.63 20.85-9.59 30.46-15.98 3.6-2.53 7.3-5.18 9.73-9.03 1.16-1.88.93-4.08.93-6.17-4.98.99-9.85 3.3-15.06 3.2-3.24-.23-6.72-.89-9.03-3.42s-2.43-6.17-1.97-9.37a18.06 18.06 0 0 1 5.9-11.12c3.83-3.2 9.5-3.09 13.9-1.1 4.29 1.98 6.72 6.17 8.8 10.13 6.49-2.42 10.89-8.15 17.26-10.9.23 3.3-.12 7.16 2.43 9.8 1.5 1.87 4.06 1.76 6.14 1.98-.35-5.28-1.16-10.46-1.85-15.64-2.2-17.3-4.4-34.7-6.26-52.11-.11-2.53-.46-5.18.81-7.27zm-39.61 75.24c-.58 1.21.81 1.98 1.74 2.42 3.47 1.22 7.3.45 10.88-.22-1.85-1.98-4.05-4.18-7.06-4.3-1.97-.1-4.75 0-5.56 2.1zm25.25 7.16c.23 3.53.34 7.05-.81 10.36-1.86 5.62-6.14 10.13-10.54 13.88-8.46 6.94-18.42 11.46-28.03 16.52a116.5 116.5 0 0 1-13.55 6.5c5.9.44 11.81-.55 17.6-.99 8.92-.55 17.49-3.08 25.71-6.39 8.57-3.52 16.9-8.04 23.63-14.65a31.11 31.11 0 0 0 8.68-14.54 41.36 41.36 0 0 0 .81-8.48c-3.47-.11-7.18 0-10.3-1.77-2.55-1.43-3.94-4.18-5.45-6.6a56.99 56.99 0 0 1-7.76 6.16zm94.16-82.73c1.27-1.44 3.59-1.22 5.1-.22a11.66 11.66 0 0 1 5.1 10.24 19.25 19.25 0 0 1-1.51 5.18c-.46-2.53-.35-5.18-1.5-7.5-1.74-2.42-4.98-2.86-7.06-4.84-.83-.66-1.18-2.2-.13-2.86z" fill="#fff"/><path d="M459.71 155.84c.23-1.54 1.74-3.2 3.36-2.32 4.52 2.2 7.76 6.4 9.84 10.91-1.62 0-3.24-.1-4.74-.22a63.17 63.17 0 0 0 2.9 9.04c1.73 4.18 4.16 8.15 4.85 12.78.82 5.06-.11 10.8-3.7 14.65-6.72 7.49-20.15 6.17-25.94-1.88-2.2-2.86-3.36-6.17-4.52-9.58-1.85 7.27-5.8 14.32-12.4 18.07a20.86 20.86 0 0 1-22-.77 14.1 14.1 0 0 1-6.6-11.57c-.46-6.83 2.2-13.22 3.13-19.83a14.5 14.5 0 0 0-3.82 5.84c-2.78 7.38-3.94 15.31-7.87 22.25-1.86 3.3-4.98 6.28-8.92 6.61-3.82.22-8-1.21-10.2-4.52-1.96-3.08-2.43-6.83-2.43-10.46a36.28 36.28 0 0 1 3.94-15.98c0 6.94-2.08 14.55 1.4 21.05 1.73 3.63 6.36 5.72 9.95 3.74 3.25-1.98 4.75-5.73 5.9-9.14 2.44-7.27 4.99-14.65 8.58-21.48 1.5-2.76 3.13-5.62 5.67-7.6 1.28-1.1 3.13-1.1 4.75-1.44.35 6.17-3.12 11.57-4.28 17.52-1.16 5.18-1.5 11.35 2.2 15.64 4.17 4.52 11.12 5.62 16.9 4.08 8-2.53 13.79-10.58 14.14-18.95.23-4.96.46-10.35-2.2-14.76-1.16-2.32-3.36-4.74-2.44-7.6a9.7 9.7 0 0 1 5.1-6.4 21.35 21.35 0 0 1 3.6 9.04c.92 7.6 1.04 15.43 3.7 22.7 1.62 4.18 4.05 8.48 8.34 10.46 3.94 1.88 8.8 2.32 12.62.33 2.44-1.2 3.01-4.18 2.44-6.6-1.63-7.94-7.07-14.22-9.62-21.82-1.39-3.85-2.43-7.82-1.62-11.79zm77.83-1.65c2.43-1.1 5.9-.22 7.07 2.31a2.62 2.62 0 0 1-1.28 2.97 22.19 22.19 0 0 1-4.75-1.87c-1.97 3.75-3 7.93-4.17 12.12a27.3 27.3 0 0 0-2.78-5.84c-1.62-2.2-4.17-3.3-6.02-5.29-.58-1.76 1.5-3.74 3.24-3.2 2.55.78 4.06 3.1 5.56 5.19.7-2.32 1.05-5.07 3.13-6.4zm-311.55 9.25c1.97-4.19 5.8-7.27 9.96-9.25-1.04 2.75-2.78 5.06-4.17 7.6-1.16 1.76-1.04 3.96-1.16 5.95a34.34 34.34 0 0 0 8-1.66c-.81 2.1-1.63 4.4-3.6 5.84-2.08 1.54-5.2 2.43-7.4.88-2.55-2.2-3.02-6.27-1.63-9.36z" fill="#fff"/><path d="M374.12 157.82c.7-3.63 6.14-3.52 7.88-.77 1.16 1.98 1.73 4.08 2.9 6.06 1.04 1.98 2.31 4.08 1.61 6.39-1.04 3.63-3.7 6.5-4.05 10.36a61.15 61.15 0 0 0 3.82-1.88c-.34 1.99 0 4.63-2.08 5.73-2.55 1.21-5.68-1.21-5.44-3.96.34-4.96 5.2-8.82 3.7-14.1-4.86 6.5-11.58 12.33-19.8 13.55 3.59-2.87 7.64-4.85 10.88-8.16a29.28 29.28 0 0 0 4.87-6.94c-1.74-1.76-4.75-3.41-4.29-6.28zm3.36-.33a9.13 9.13 0 0 0 3.01 2.87 4.5 4.5 0 0 0-3-2.87zm-29.07 2.65c1.74-.44 3.82-1.1 5.21.44a16.25 16.25 0 0 1 4.75 15.53c-.93-2.1-1.62-4.3-2.66-6.28-1.74-3.75-5.56-5.95-7.3-9.7zm-37.3 2.3a8.03 8.03 0 0 1 2.2 6.73c-2.77.44-5.55 1.21-8.33 1.87a2.89 2.89 0 0 1-3.48-2.2 17.68 17.68 0 0 1 .82-4.85c.57 1.66 1.15 3.3 1.73 5.07.7-.33 1.5-.55 2.2-.88v-4.52h1.62c.24 1.33.47 2.76.7 4.08l2.66-.33c-.11-1.65-.11-3.3-.11-4.96zm235.23 3.64a24.53 24.53 0 0 1 6.95-.88 11.17 11.17 0 0 1-4.05 3.2c-8 3.2-16.22 5.5-23.86 9.58.7 1.44 1.39 2.76 2.08 4.19-1.85-.33-4.05-.33-5.44-1.87a3.09 3.09 0 0 1 .12-4.63 18.56 18.56 0 0 1 4.17-2.2c6.6-2.42 13.2-5.18 20.03-7.38zm-121.03 5.73a21.48 21.48 0 0 1 2.9-1.87c-.11 2.98.93 5.62 2.2 8.26s.23 6.4-2.9 7.05c-2.66.89-5.1-.77-6.94-2.31-1.5 1.32-3.13 3.09-5.33 2.75-4.05-.22-6.02-4.95-5.21-8.48.35-2.31 2.2-3.74 3.82-5.18-.23 2.43-1.16 4.85-.58 7.27.47 1.66 2.44 1.66 3.82 2.2.47-2.64.58-5.4 1.28-8.15.23-1.43 1.97-1.54 2.9-2.2.23 2.32.11 4.63.8 6.83.59 1.65 2.56 2.2 3.95 2.98.7-3.2-.7-6.17-.7-9.15zM305.1 176c1.74 0 3.82-.33 5.21 1.1a16.02 16.02 0 0 1 4.4 15.31c-1.39-3.63-2.55-7.6-5.56-10.35-1.85-1.65-3.7-3.53-4.05-6.06zm239.74 13.88a14.98 14.98 0 0 1 2.9-2.42 17.88 17.88 0 0 0 2.08 7.7c1.15 2.43 1.15 6.29-1.74 7.39-2.66 1.21-5.44-.22-7.65-1.76-1.73 1.32-3.82 2.97-6.25 2.31-3.59-.77-5.1-4.96-4.52-8.26.24-2.43 2.32-3.97 3.94-5.51-.35 2.53-1.39 5.07-.7 7.6.59 1.65 2.55 1.32 3.94 1.65.47-2.86.24-5.84 1.4-8.48a11.86 11.86 0 0 1 2.89-1.54c.12 2.53-.35 5.29.93 7.6.8 1.43 2.54 1.54 3.93 1.98-.11-2.75-.92-5.5-1.15-8.26zm96.24 3.97a2.62 2.62 0 0 1 2.55-3.53c2.9 0 5.1 2.43 6.48 4.74 2.44 4.74 3.6 10.46 1.63 15.53-1.05-4.52-.93-10.24-5.1-13.22-1.86-1.1-4.06-1.76-5.56-3.52zm-159.94 9.91a5.34 5.34 0 0 1 5.2-1.43c2.32 2.2 1.86 6.17 0 8.48-3.35 4.4-8.9 6.5-14.35 6.5 3.36-1.98 7.18-3.08 10.19-5.62 1.39-.99 1.16-2.86 1.39-4.4-1.62.22-3.24.55-4.75.77a22.27 22.27 0 0 1 2.32-4.3zm77.83 3.42c1.04-.22 2.43-.89 3.12.22-.8 2.64-3.59 3.74-5.79 4.84-8.34 3.86-16.44 8.16-24.67 12.34-.34-.77-.8-1.43-1.16-2.2 4.64-3.41 9.73-5.95 14.71-8.7 4.64-2.31 9.04-4.84 13.79-6.5zm-156.94 6.5c.24-1.66 1.4-2.87 2.32-4.08 6.37 6.94 11.81 14.98 14.7 24.13 2.79 8.7 3.48 17.84 5.22 26.77.93 4.51 1.74 9.25 4.75 12.89 1.97 2.53 4.86 4.07 7.64 5.62.58-2.87 1.28-5.95 3.94-7.6 8.1-5.4 17.49-8.7 26.75-11.68-7.52-.22-15.17 0-22.7-.11-6.13-.11-12.27.44-18.3-.66.24-2.32.24-4.74 1.63-6.83 2.78-4.63 7.64-7.27 12.27-9.7a113.43 113.43 0 0 1 21.9-8.92c-1.98-2.1-4.99-4.4-4.18-7.82 1.4-3.97 4.87-7.94 9.27-7.83 4.86 0 9.61 1.99 13.78 4.41 2.55 1.65 5.67 3.42 6.6 6.5a11.51 11.51 0 0 1-2.55 5.95c-2.66 3.3-7.41 3.08-11.35 3.53-.23 2.64-.58 5.83-3.24 7.05a138.06 138.06 0 0 0-2.55-6.17c-9.61 1.76-18.18 6.72-25.71 12.67 21.31.1 42.5-.44 63.81-.33 1.4.1 2.78.22 4.17.44-.92 5.61-6.6 8.37-11.58 9.58-10.07 2.2-20.15 4.19-30.23 6.17-7.52 1.54-15.17 3.3-22 6.72a17.9 17.9 0 0 0-6.37 5.62 92.65 92.65 0 0 0 15.4 3.96c1.74.45 4.17.78 4.64 2.87.7 2.75.8 6.61-1.86 8.37-3.36.77-6.83 0-10.19-.55-9.26-1.43-18.18-6.28-23.5-14.21-4.06-5.73-5.22-12.89-6.26-19.72a66.17 66.17 0 0 1-8.8 10.58c-9.04 8.48-19.92 14.65-31.27 19.6-3.94 1.77-8.92 2.32-12.86-.1-2.78-1.66-3.82-5.07-4.98-7.94-10.54 5.4-21.31 10.58-33 12.78a111.33 111.33 0 0 1-21.78 2.2c3.82-1.87 7.76-3.3 11.58-4.84a479.96 479.96 0 0 0 37.52-17.63c1.51-.88 3.36-1.65 4.4-3.08 1.16-3.2 1.28-6.61 3.02-9.7a22.08 22.08 0 0 1 8.22-8.81c-2.2 4.84-4.52 9.8-5.21 15.09a112.43 112.43 0 0 0 20.73-15.75c1.62-1.77 3.94-3.97 3.01-6.61-1.16-3.75-3.13-7.05-4.52-10.7-2.08-5.28-4.63-10.8-4.05-16.63.11-1.87 1.5-3.3 2.43-4.73 5.1 3.3 8.34 8.7 11.24 13.88l-3.25.66c1.97 5.4 5.21 10.24 6.14 15.97a14.98 14.98 0 0 1-3.47 12.56c-7.88 8.49-17.6 14.88-26.76 21.82 1.62.88 3.36 2.09 5.33 1.98 3.82-.11 7.53-1.43 11-2.87 12.74-5.61 23.16-14.98 33.94-23.68-2.67-10.36-7.42-20.05-12.4-29.53a19.65 19.65 0 0 1-2.43-11.56zm61.5 13.66a11.1 11.1 0 0 0 5.1 3.96c3.13.66 6.14-1.2 8.46-3.2-2.9-2.2-6.26-3.96-9.96-3.96-1.74 0-3.6 1.44-3.6 3.2zm-220.86-13.66a2.73 2.73 0 0 1 2.66-2.65c3.94-.44 6.72 2.76 9.15 5.3 1.28 1.31 2.32 3.07 1.5 4.95-.45 2.1-2.9 1.98-4.5 2.42-3.48.22-4.87 3.97-7.54 5.62-5.32 3.64-11.93 6.5-18.53 5.62 1.62-2.32 4.29-3.3 6.84-4.08 4.74-1.54 8.57-4.96 12.04-8.48-.93-2.86-2.08-5.73-1.62-8.7zm2.2.44a13.39 13.39 0 0 0 1.74 5.5 81.94 81.94 0 0 0 1.97-4.73 36.66 36.66 0 0 0-3.7-.77zm5.21 7.16c1.27-.11 2.55-.33 3.82-.44a17.65 17.65 0 0 0-1.27-4.85c-1.62 1.21-1.85 3.41-2.55 5.29z" fill="#fff"/><path d="M439.33 214.56a9.71 9.71 0 0 1 2.78-1.99c0 3.86 2.78 6.83 3.12 10.58.35 3.86-4.63 5.84-7.64 4.08-.93-.66-1.74-1.44-2.55-2.1-1.62 1.44-3.36 3.53-5.79 2.98-3.7-.66-5.67-4.96-4.98-8.48.35-2.43 2.32-3.97 4.05-5.4-.34 2.31-1.15 4.51-.92 6.94.23 1.76 2.2 2.31 3.59 3.08a48.84 48.84 0 0 0 1.62-8.37c.23-1.54 2.08-1.76 3.13-2.54.11 2.32 0 4.74.7 6.95.69 1.54 2.3 2.3 3.58 3.2 1.4-2.98-.58-5.96-.7-8.93zm-184.85 14.1c1.97-.88 4.06-1.98 6.26-2.2 2.08-.11 3.12 3.08 1.5 4.4-2.43 1.88-5.33 2.65-8.1 3.86-6.5 3.09-12.98 6.06-19.35 9.48-1.39.88-3.13.66-4.63.44a10.97 10.97 0 0 1 4.05-4.74 282.98 282.98 0 0 1 20.27-11.24zm243.57 3.41c.46-2.2 3-2.53 4.86-3.19.46 3.2.81 6.5 2.78 9.14l-3.01.33c-1.4 2.1-2.9 4.41-5.21 5.51-3.83 1.88-8.11 1.88-12.28 1.66 4.4-1.22 9.84-1.55 12.74-5.51 1.97-2.32-.12-5.3.12-7.93zm87.44 3.2c.58-1.76 2.66-1.76 4.17-1.54 3.24.55 5.56 3.3 7.64 5.62a4.34 4.34 0 0 1 .58 5.72c-2.08 1.66-5.44.66-7.3 2.87-5.56 6.39-14.13 10.46-22.7 9.58 1.62-2.31 4.29-3.3 6.95-4.07 4.75-1.55 8.45-5.07 11.93-8.49-.93-3.08-2.32-6.39-1.28-9.7zm2.2 1.32a25.27 25.27 0 0 0 1.39 5.84 24.7 24.7 0 0 0 2.08-4.74c-1.16-.44-2.43-.77-3.47-1.1zm6.71 2.42a34.2 34.2 0 0 0-1.62 4.85c1.28-.1 2.55-.33 3.83-.44a20.23 20.23 0 0 0-1.28-4.51c-.23 0-.7.1-.92.1zm-228.04-.33c2.2-2.09 6.14-.99 7.53 1.55.7 1.43-.81 2.53-1.39 3.63a15.8 15.8 0 0 0-3.59-1.87c-1.16-.33-1.5 1-1.85 1.76-1.4 3.3-2.09 6.83-3.13 10.25a28.52 28.52 0 0 0-2.66-6.06c-1.4-1.98-3.71-3.09-5.45-4.74-1.62-1.32.12-4.19 1.97-3.85 2.67.33 4.29 2.75 6.14 4.51.7-1.76 1.16-3.74 2.43-5.18zm-139.2 19.17a21.93 21.93 0 0 1 9.6-8.48 44.37 44.37 0 0 1-4.17 7.6c-1.15 1.76-1.15 3.86-1.27 5.84a49.83 49.83 0 0 0 8-1.1c-.7 2.1-1.5 4.4-3.48 5.62-2.2 1.43-5.33 2.53-7.65.66a8.86 8.86 0 0 1-1.04-10.14zm184.83 16.97c1.97-.33 4.29-1.21 6.03.22a3.67 3.67 0 0 1 .7 5.5c-2.44 1.33-5.57.56-7.65 2.43.34 2.87 2.55 5.18 3 7.93.12 1.77-1.27 3.2-2.08 4.63-.58-2.75-1.04-5.73-2.54-8.15-.93-1.76-2.32-3.53-1.86-5.62.47-2.31 2.9-3.42 4.64-4.52a14.44 14.44 0 0 1-.24-2.42zm88.84 3.41c.92-2.3 3.12-3.41 5.1-4.62-.82 1.87-2.2 3.74-2.44 5.84.93 1.65 2.44 2.86 3.25 4.62.23 2.87-3.94 3.3-5.45 1.55-1.73-1.99-1.5-5.07-.46-7.39zm-21.43-3.19c3.24-1.1 6.72 0 9.61 1.65-2.08 4.3-6.95 5.4-10.54 8.04a9.2 9.2 0 0 1 .23 1.77c2.55.1 5.22.44 7.42-.88a34.3 34.3 0 0 1 9.15-3.64c-2.55 2.2-4.98 4.4-7.53 6.5-3.01 2.42-7.18 2.42-10.77 1.43-1.74-.55-3.94-2.1-3.36-4.3.93-2.75 3.7-4.19 5.9-5.84-1.62-.1-3.12-.22-4.74-.33 1.27-1.76 2.43-3.96 4.63-4.4zm83.97 7.82a2.38 2.38 0 0 1 1.5-3.74c3.13-.55 5.8 1.98 7.18 4.51a12.39 12.39 0 0 1 .24 11.57c-.58-2.53-.58-5.18-1.86-7.5-1.73-2.3-4.98-2.74-7.06-4.84zm52.46 1.65c4.29-1.54 8.57-3.52 13.2-3.08a8.41 8.41 0 0 1-4.28 3.86c-7.18 2.64-14.48 5.06-21.54 8.04a36.52 36.52 0 0 1-6.95 2.31c-.23-.66-.58-1.32-.81-1.98 6.48-3.75 13.43-6.4 20.38-9.15zm-14 141.52h-35.67v-3.38c1.61-1.4 3.8-3.29 3.8-4.38 0-1.9-4.48-5.77-5.52-5.77-1.15 0-5.52 3.98-5.52 5.77 0 1.2 1.95 2.88 3.56 4.28l.12.1v3.48H281.25c10.01 9.94 24.86 9.85 54.66 10.14 26.58.4 26.46.4 226.57 0v3.58c-1.61 1.4-3.57 3.29-3.57 4.38 0 1.9 4.26 5.77 5.53 5.77.8 0 3.45-2.19 4.83-4.08h12.31c.8 1.4 2.65 2.19 4.83 2.19a5.64 5.64 0 0 0 4.84-2.19h14.73a7.36 7.36 0 0 0 5.87 2.19c5.63-.2 6.9-3.08 6.9-13.03-.12-8.36-5.76-9.25-16.92-9.05zm2.54 16.8h-13.12a6.25 6.25 0 0 0-9.67 0H569.5a14.38 14.38 0 0 0-3.22-3.07v-3.59h38.2a11 11 0 0 0-.11 6.67z" fill="#fff"/></svg>