<svg xmlns="http://www.w3.org/2000/svg" viewBox="0 0 675 450"><path d="m0 0 298.57 225.24H675V0z" fill="#dc171d"/><path d="m0 0 299 225.75L0 450z" fill="#fff" stroke="#fff"/><path d="m0 450 298.57-224.76H675V450z" fill="#012a87"/><path d="m150.83 170.29.09-3.49s-1.87-2.98.3-6.18c0 0-4.61-2.44-3.54-6.26 0 0-4.17-1.07-3.86-5.65 0 0-4.5-.32-4.97-4.15 0 0-4.5.74-6.48-3 0 0-4.4.87-5.63-2.21 0 0-4.27 1.48-6.8-2.14 0 0-4.51 1.82-6.4-1.6-1.87 3.4-6.37 1.6-6.37 1.6-2.5 3.6-6.8 2.1-6.8 2.1-1.2 3.1-5.58 2.22-5.58 2.22-1.98 3.74-6.47 3-6.47 3-.44 3.82-4.94 4.13-4.94 4.13.36 4.6-3.8 5.64-3.8 5.64 1.1 3.82-3.51 6.26-3.51 6.26 2.22 3.22.37 6.17.37 6.17l-.1 3.21 74.5.35" fill="#ff0"/><path d="m377.18 843.1.09-3.45s-1.86-2.96.3-6.14c0 0-4.58-2.42-3.52-6.21 0 0-4.14-1.06-3.83-5.61 0 0-4.47-.31-4.93-4.12 0 0-4.47.74-6.44-2.97 0 0-4.36.85-5.59-2.2 0 0-4.23 1.46-6.75-2.13 0 0-4.47 1.81-6.35-1.58-1.85 3.38-6.32 1.58-6.32 1.58-2.48 3.58-6.75 2.1-6.75 2.1-1.19 3.06-5.53 2.2-5.53 2.2-1.96 3.7-6.43 2.97-6.43 2.97-.43 3.79-4.9 4.1-4.9 4.1.36 4.56-3.78 5.6-3.78 5.6 1.1 3.8-3.48 6.2-3.48 6.2 2.21 3.2.37 6.14.37 6.14l-.1 3.19 73.95.34h-.01z" fill="#f9d90f" stroke-width=".27" stroke="#000" transform="matrix(1.00754 0 0 1.00735 -229.19 -679.02)"/><path d="M149.09 165.94c-11.7-1.17-25.18-3.95-35.58 1.9-6.98-4.1-16.69-3.85-24.95-3.05-4.5.8-9.77.8-14.46 1.57l-.74.1c-8.51.57-16.23-1.95-23.63-5.25 2.35 13.33 4.95 27 6.24 40.95 2.79 20.67-9.79 38.03-4.63 58.45 3.08 9.8 13.86 15.5 23.72 16.62 9.55.56 19.43 2.13 28.27 4.05 1.68.35 3.67 1.13 4.83 1.63a17.31 17.31 0 0 1 5.78 4.11c5.34-5.55 13.16-7.1 20.87-7.91 13.9-1.63 31.05-.74 39.56-13.34v-.71c4.63-6.97 4.01-17.6 2-25.49-.13-2.75-.86-5.18-1.26-7.8-8.5-22.44-1.22-47.66 2.43-70.27-4.46 2.44-9.44 3.6-14.4 4.81-3.97.53-8.39.29-12.4.07l-1.66-.44m17.49 64.37" fill="#dc171d"/><path d="M166.57 230.31c-.06 1.48.74 2.64 1.03 4 1.62 9.81 3.2 22.8-6.9 28.88-11.17 7.1-25.82 4.06-38.74 7.82-2.58.72-6.14 3.1-7.95 4.77-1.17-.77-2.34-1.94-3.84-2.64-10.64-5.65-24.46-3.75-36.47-6.8-6.03-1.92-12.31-6.61-13.84-12.78-3.92-16.19 5.48-29.99 4.37-46.05a195.56 195.56 0 0 0-5.62-35.53c9.39 4.37 20.25 5.1 30.8 3 7.81-1.09 16.91-1.11 24.23 2.2 4.04-1.74 8.76-2.52 13.11-3 8.27.8 17.15 2.3 25.67 2.24 5.68-.3 10.85-1.94 15.8-4.13-2.94 19-8.57 38.91-1.66 58.02" fill="#62afe1"/><path d="m149.69 234.1-.1-17.87h2.2l-27.31-17.64-.05-9.17h2.64l-13.66-9.78-13.6 9.78h2.64l.05 9.16-27.17 17.62h2.17l.09 17.87 72.09.05" fill="#fff"/><path d="m376.04 906.46-.09-17.74h2.19l-27.12-17.51-.05-9.1h2.62l-13.55-9.71-13.5 9.7h2.62l.04 9.1-26.96 17.48 2.15.02.1 17.72 71.54.05.01-.01z" fill="none" stroke-width="1.16" stroke="#000" transform="matrix(1.00754 0 0 1.00735 -229.19 -679.02)"/><path d="M158.08 257.58v5.59l-88-.1-.03-5.57 88.04.08" fill="#fff"/><path d="M384.38 929.76v5.55l-87.35-.1-.03-5.52 87.38.07z" fill="none" stroke-width="1.16" stroke="#000" transform="matrix(1.00754 0 0 1.00735 -229.19 -679.02)"/><path d="m75.93 257.24-.08-18.93h3.57l-.2 19.14.22-18.99-5.14-.15v-4.06l78.66.1.03 4.01h-4.85l.1 19.17-.18-19.17h3.62l.08 18.95" fill="#fff"/><path d="m302.84 929.43-.08-18.79h3.54l-.2 19 .22-18.85-5.1-.15v-4.03l78.07.09.03 3.99h-4.81l.09 19.02-.17-19.02h3.58l.08 18.8m-58.47-4.69-.06-13.1h-10.48l.06 13.09 10.48.01m0 0-.06-13.1h-10.48l.06 13.09 10.48.01m0 0-.06-13.1h-10.48l.06 13.09 10.48.01m0 0-.06-13.1h-10.48l.06 13.09 10.48.01m0 0-.06-13.1h-10.48l.06 13.09 10.48.01m-7.68-10.37.03 7.61h4.8l-.03-7.6h-4.8m58.92 10.4-.06-13.1h-10.45l.05 13.1h10.46m-7.68-10.36.05 7.59h4.8l-.05-7.59h-4.8m7.6-10.97-.06-13.1h-10.46l.04 13.1h10.49zm-7.68-10.35.03 7.6h4.8l-.01-7.6h-4.82m-43.57 10.3-.07-13.08-10.46-.01.05 13.08h10.48zm-7.68-10.34.02 7.58 4.8.01-.03-7.6h-4.79m26.65 10.37-.05-13.07-10.47-.02.05 13.09h10.47m-7.67-10.35.02 7.58 4.8.03-.03-7.61h-4.8m22.3 10.38-.07-13.1-10.46-.02.05 13.09 10.49.03m-7.7-10.37.04 7.6h4.8l-.02-7.6h-4.81" fill="none" stroke-width="1.16" stroke="#000" transform="matrix(1.00754 0 0 1.00735 -229.19 -679.02)"/><path d="m129.2 227.08.13 30.42-30.57-.05-.1-30.4 30.54.03" fill="#fff"/><path d="m355.72 899.49.11 30.2-30.33-.05-.11-30.18 30.32.03zm-30.51 8.62 30.54.02m-30.54-.02 30.54.02m-30.54-.02 30.54.02m-30.54-.02 30.54.02m-30.54-.02 30.54.02m-26.73 21.55-.1-21.35m23.22 21.36-.1-21.33m14.75-21.73-17.08-12.48-19.2-.02-16.94 12.45 53.22.05M332 863.8l.03 7.6 16.15.02-.03-7.6-16.15-.02m0 0 .03 7.6 16.15.02-.03-7.6-16.15-.02" fill="none" stroke-width="1.16" stroke="#000" transform="matrix(1.00754 0 0 1.00735 -229.19 -679.02)"/><path d="m332 863.8.02 7.6 16.15.02-.03-7.6-16.15-.02" fill="none" stroke-width="1.16" stroke="#000" transform="matrix(1.00754 0 0 1.00735 -229.19 -679.02)"/><path d="m336.37 865.69.02 3.79h7.42l-.03-3.8h-7.4m3.66-10.54 8.97 6.35-17.89-.02 8.92-6.33m0 0 8.97 6.35-17.89-.02 8.92-6.33m0 0 8.97 6.35-17.89-.02 8.92-6.33m0 0 8.97 6.35-17.89-.02 8.92-6.33m0 0 8.97 6.35-17.89-.02 8.92-6.33" fill="none" stroke-width="1.16" stroke="#000" transform="matrix(1.00754 0 0 1.00735 -229.19 -679.02)"/><path d="M149.99 178.07c2.57-.06 3.23 10.59 3.24 15.86 2.2.62 7.1 3.7 9.26 6.48l-24.82-.03c2.13-2.75 6.99-5.84 9.18-6.46 0-5.28.54-15.92 3.14-15.86" fill="#fff"/><path d="M376.34 850.84c2.55-.06 3.2 10.5 3.22 15.74 2.19.61 7.04 3.67 9.2 6.43l-24.65-.03c2.12-2.73 6.94-5.8 9.11-6.41 0-5.24.54-15.8 3.12-15.74m-49.53 49.5h2.2l-.64 1.2m-1.56-1.2h2.2l-.64 1.2m-1.56-1.2h2.2l-.64 1.2m-1.56-1.2h2.2l-.64 1.2m-1.56-1.2h2.2l-.64 1.2s1.07 1.36.02 2.93l.58 1.1h-2.13l.58-1.04s-1.1-1.82.04-3l-.65-1.18m4.5 0h2.21l-.64 1.18s1.07 1.34.01 2.94l.57 1.1h-2.12l.57-1.04s-1.07-1.82.05-3l-.65-1.18m4.91 0h2.2l-.65 1.18s1.08 1.37.02 2.94l.58 1.12-2.11-.03.56-1.03s-1.08-1.81.04-3l-.64-1.18zm5.55 0H344l-.65 1.2s1.07 1.35 0 2.93l.6 1.1h-2.14l.57-1.03s-1.06-1.83.08-3l-.67-1.2zm4.93 0h2.2l-.65 1.2s1.07 1.35.02 2.92l.58 1.12h-2.12l.55-1.04s-1.07-1.82.08-3l-.66-1.2m4.9.02 2.2-.01-.65 1.2s1.1 1.34.03 2.92l.56 1.1h-2.13l.57-1.03s-1.07-1.82.07-3l-.65-1.18" fill="none" stroke-width="1.16" stroke="#000" transform="matrix(1.00754 0 0 1.00735 -229.19 -679.02)"/><path d="M114.08 296.5c11.44.03 25.52-2.3 32.11-5.71l14.48-1.29.29 17.67c-12.27 6.77-40.6 8.22-46.82 8.17-6.24.05-34.91-1.43-47.24-8.22l.16-17.68 14.52 1.31c6.59 3.4 21.1 5.75 32.53 5.75h-.03" fill="#f9d90f"/><path d="M340.7 968.4c11.36.03 25.33-2.29 31.87-5.67l14.37-1.27.29 17.53c-12.18 6.72-40.29 8.16-46.47 8.11-6.2.05-34.65-1.42-46.88-8.15l.16-17.55 14.4 1.3c6.55 3.36 20.94 5.7 32.29 5.7h-.03" fill="none" stroke-width=".27" stroke="#000" transform="matrix(1.00754 0 0 1.00735 -229.19 -679.02)"/><path d="m29.63 221.14 12.76 4.06-3.86 20.65-12.08 1.88s-2.03-10.86 3.18-26.6" fill="#f9d90f"/><path d="m256.88 893.59 12.66 4.03-3.82 20.5-11.99 1.86s-2.02-10.78 3.15-26.4z" fill="none" stroke-width=".27" stroke="#000" transform="matrix(1.00754 0 0 1.00735 -229.19 -679.02)"/><path d="m38.52 245.62-12.07 2.1 7.64-10.85 4.43 8.75" fill="#7e7e7e"/><path d="m265.7 917.9-11.97 2.08 7.58-10.78 4.4 8.7" fill="#f9b60f" stroke-width=".27" stroke="#000" transform="matrix(1.00754 0 0 1.00735 -229.19 -679.02)"/><path d="m22 236.01 12.3.9c.27 10.41 1.54 50.17 49.02 52.33l-1.48 14.47c-57.8.6-62.19-48.77-59.84-67.7" fill="#f9d90f"/><path d="m249.31 908.36 12.2.88c.28 10.34 1.53 49.81 48.66 51.96l-1.47 14.36c-57.36.6-61.72-48.42-59.39-67.2zm44.8 70.14 14.38-3.15m-14.38 3.15 14.38-3.15m-14.38 3.15 14.38-3.15m-14.38 3.15 14.38-3.15m-14.38 3.15 14.38-3.15" fill="none" stroke-width=".27" stroke="#000" transform="matrix(1.00754 0 0 1.00735 -229.19 -679.02)"/><path d="m197.52 221.28-12.7 4.03 4.02 20.62 12.1 1.94s1.95-10.85-3.42-26.6" fill="#ff0"/><path d="m423.52 893.74-12.62 3.99 4 20.47 12.01 1.93s1.93-10.77-3.4-26.4z" fill="#f9d90f" stroke-width=".27" stroke="#000" transform="matrix(1.00754 0 0 1.00735 -229.19 -679.02)"/><path d="m188.84 245.72 12.1 2.17-7.74-10.87-4.36 8.7" fill="#7e7e7e"/><path d="m414.9 917.99 12.01 2.15-7.68-10.78-4.33 8.63" fill="#f9b60f" stroke-width=".27" stroke="#000" transform="matrix(1.00754 0 0 1.00735 -229.19 -679.02)"/><path d="m205.29 236.18-12.31.84c-.18 10.4-1.09 50.19-48.57 52.3l1.6 14.45c57.8.67 61.77-48.68 59.28-67.6" fill="#f9d90f"/><path d="m431.23 908.52-12.22.84c-.18 10.33-1.08 49.82-48.2 51.9l1.6 14.36c57.35.66 61.3-48.32 58.82-67.1zm-44.2 70.06-14.41-3.16" fill="none" stroke-width=".27" stroke="#000" transform="matrix(1.00754 0 0 1.00735 -229.19 -679.02)"/><path d="M106.4 305.2c-.33.21-.77.27-1.28.24l-2.3-.12.2-2.86 2.28.12c.44.03.8.12 1.02.26.46.24.66.68.62 1.29-.03.53-.22.87-.55 1.07m-3.85 4.51.22-3.49 2.68.18c.86.07 1.5-.15 1.94-.6.45-.43.69-.99.72-1.63a2.2 2.2 0 0 0-.58-1.8 2.78 2.78 0 0 0-1.78-.72l-3.82-.24-.53 8.21 1.14.08m8.32-6.86 2.8.03m-2.8-.03 2.8.03m-2.8-.03 2.8.03m-2.8-.03 2.8.03m-2.8-.03 2.8.03c.4.03.72.08.96.2.43.2.63.6.63 1.19 0 .55-.16.92-.48 1.14-.3.2-.73.3-1.25.3l-2.69-.04.03-2.82m-.05 7.28.03-3.51 2.62.04c.47 0 .81.03 1.05.15.39.18.58.55.6 1.07l.06 1.38c.02.33.03.53.05.66.03.1.05.2.1.28h1.4l-.01-.18a.72.72 0 0 1-.35-.5c-.05-.16-.07-.4-.08-.7l-.03-1.1c-.02-.5-.1-.84-.3-1.03a1.47 1.47 0 0 0-.73-.52c.39-.21.68-.45.9-.75.2-.32.3-.73.3-1.24 0-.94-.38-1.58-1.17-1.93a4.1 4.1 0 0 0-1.6-.3l-3.94-.04-.03 8.24h1.13m8.75-1.75a3.93 3.93 0 0 1-.83-2.28c-.05-1.15.17-2.02.69-2.6.53-.64 1.2-.95 2.1-1a2.7 2.7 0 0 1 2.17.8c.56.56.88 1.32.93 2.28.03.92-.12 1.73-.55 2.45-.41.73-1.1 1.14-2.13 1.17-1.07.05-1.87-.2-2.38-.82m-1.34-5.19a4.72 4.72 0 0 0-.7 2.9 4.71 4.71 0 0 0 1.19 3.02c.8.77 1.85 1.15 3.15 1.08a3.9 3.9 0 0 0 3.15-1.56c.58-.87.85-1.9.8-3.15a4.43 4.43 0 0 0-1.02-2.72c-.77-.91-1.89-1.31-3.41-1.25-1.43.09-2.49.62-3.17 1.68m38.74-11.85a4.2 4.2 0 0 1 2.1.12c.92.29 1.54.97 1.93 2.01l-1.14.16a2.2 2.2 0 0 0-1.06-1.17 3.1 3.1 0 0 0-1.7-.15 2.65 2.65 0 0 0-1.83 1.12c-.43.66-.56 1.55-.37 2.68.16.93.5 1.72 1.07 2.25.52.54 1.29.73 2.29.58a2.77 2.77 0 0 0 1.77-.93c.44-.5.57-1.24.42-2.2l-2.64.41-.14-.9 3.68-.57.72 4.36-.73.1-.45-1c-.31.46-.62.8-.89 1.01a3.8 3.8 0 0 1-1.83.7 3.8 3.8 0 0 1-2.72-.56 4.47 4.47 0 0 1-1.7-3.04 4.51 4.51 0 0 1 .6-3.43 3.6 3.6 0 0 1 2.62-1.56m8.32-.63 2.64-.95c.36-.14.67-.18.94-.15.49.04.84.32 1.04.9.2.49.2.92-.02 1.22-.23.31-.58.54-1.1.73l-2.48.89-1.02-2.64m2.64 6.82-1.3-3.3 2.46-.9c.46-.14.78-.22 1.02-.2.44.06.77.33.99.83l.56 1.26c.12.3.22.5.3.58.03.11.11.18.18.25l1.33-.48-.08-.18c-.2 0-.38-.11-.52-.33-.1-.15-.2-.37-.35-.63l-.43-1.03c-.2-.45-.4-.72-.64-.89a2.1 2.1 0 0 0-.87-.24c.27-.31.46-.62.54-1 .08-.37.04-.78-.14-1.25-.33-.87-.95-1.35-1.82-1.41-.46-.04-1 .06-1.6.27l-3.7 1.32 2.99 7.75 1.08-.4m9.64-4.1-4.7-6.87 5.16-3.3.57.84-4.23 2.7 1.45 2.1 3.9-2.52.54.8-3.9 2.52 1.59 2.31 4.3-2.75.58.8-5.26 3.36m4.12-12.13 1.35-1.48c.63-.66 1.29-.96 2.01-.88.72.06 1.46.44 2.25 1.13a4.05 4.05 0 0 1 1.28 1.85c.1.5.08.94-.1 1.37-.1.22-.28.47-.56.77l-1.35 1.47-4.88-4.24m7.13 3.23c.96-1.05 1.17-2.18.6-3.47a5.87 5.87 0 0 0-1.5-1.95 4.55 4.55 0 0 0-2.72-1.23 3.21 3.21 0 0 0-2.73 1.15l-2.3 2.46 6.34 5.53 2.3-2.47m4.92-6.41-7.3-4.29.6-.94 7.3 4.26-.6.98m2.86-5-7.88-3.14 2.33-5.55.95.37-1.9 4.57 2.38.93 1.78-4.2.9.37-1.75 4.2 2.65 1.08 1.95-4.63.96.37-2.37 5.64m3.62-9.68-8.29-1.83.28-1.28 7.66-2.6-6.73-1.48.24-1 8.3 1.78-.27 1.25-7.67 2.64 6.73 1.45-.24 1.07m-.66-10.53.1-1.04c.48.01.88-.06 1.19-.23.6-.32.95-.94 1.04-1.86.04-.42.02-.8-.08-1.16-.18-.68-.56-1.06-1.18-1.12-.46-.05-.8.06-1.03.31-.22.29-.44.7-.62 1.3l-.38 1.08a4.6 4.6 0 0 1-.71 1.47c-.4.52-.95.7-1.65.65a2.47 2.47 0 0 1-1.8-.96c-.45-.53-.64-1.28-.53-2.21.08-.85.36-1.57.86-2.15.47-.53 1.2-.78 2.12-.68l-.09 1.04c-.45 0-.81.08-1.08.27-.48.26-.74.82-.82 1.63-.07.68.03 1.13.28 1.48.26.29.59.47.97.5.4.04.72-.1.94-.4.16-.22.35-.68.6-1.44l.38-1.14c.19-.53.4-.93.66-1.22a2.16 2.16 0 0 1 1.82-.62c.92.1 1.58.47 1.91 1.17.33.7.46 1.49.38 2.37a3.4 3.4 0 0 1-1.03 2.31c-.6.54-1.35.73-2.26.65m-171.89-.5.19 1.03c-.46.1-.83.28-1.1.52-.48.45-.65 1.13-.48 2.06.07.39.21.77.39 1.08.37.63.85.88 1.45.78.45-.08.75-.25.89-.57.13-.32.23-.8.26-1.4l.06-1.17c.03-.71.11-1.28.27-1.59a1.8 1.8 0 0 1 1.43-1.03 2.45 2.45 0 0 1 1.99.47c.58.4.96 1.09 1.1 2 .17.85.1 1.6-.24 2.28-.32.66-.93 1.07-1.87 1.24l-.18-1.04c.43-.16.76-.31.97-.53.37-.4.48-1 .34-1.82-.1-.66-.34-1.1-.68-1.3a1.31 1.31 0 0 0-1.04-.3.95.95 0 0 0-.81.66 8.4 8.4 0 0 0-.2 1.53l-.05 1.2a3.06 3.06 0 0 1-.31 1.36c-.3.58-.81.95-1.55 1.06-.94.16-1.66-.05-2.18-.65a4.32 4.32 0 0 1-1.02-2.17 3.36 3.36 0 0 1 .37-2.5 2.66 2.66 0 0 1 2-1.19m-.52 10.86 8.1-2.44 1.9 5.71-1 .31-1.54-4.69-2.46.74 1.43 4.34-.95.3-1.41-4.35-2.75.82 1.57 4.8-.97.28-1.92-5.82m3.6 9.9 7.45-3.96.8 1.4-5.13 5.42 7.49-1.28.77 1.38-7.44 3.93-.53-.92 4.4-2.31c.16-.1.4-.23.76-.42.35-.16.74-.37 1.13-.57l-7.46 1.27-.54-.97 5.09-5.4-.25.12c-.16.09-.43.22-.8.44a6.05 6.05 0 0 1-.83.44l-4.38 2.35-.54-.93m13.9 10.99c-.37-.09-.74-.3-1.1-.68l-1.58-1.62 2.12-1.94 1.6 1.62c.3.3.5.59.6.84.15.49 0 .93-.45 1.34-.4.38-.8.53-1.19.44m-6 .76 2.6-2.4 1.86 1.88c.59.6 1.2.88 1.84.87a2.6 2.6 0 0 0 1.7-.74c.55-.5.81-1.07.81-1.69 0-.6-.28-1.16-.8-1.69l-2.64-2.7-6.17 5.66.8.8m7.45 6.63 4.47-7.01 5.28 3.21-.55.83-4.34-2.6-1.34 2.13 3.99 2.42-.51.8-4-2.4-1.52 2.36 4.4 2.65-.54.83-5.34-3.22m13.23-1.36 2.69.85c.38.12.65.27.84.43.34.33.43.8.23 1.36-.16.49-.42.8-.8.94-.36.06-.8.06-1.31-.1l-2.54-.8.9-2.68m-2.33 6.89 1.12-3.35 2.5.82c.45.12.78.28.93.44.31.28.4.69.25 1.2l-.37 1.33c-.09.32-.13.54-.17.64 0 .1 0 .21.02.28l1.32.43.08-.19c-.14-.1-.22-.3-.22-.56.03-.15.08-.4.16-.68l.32-1.07c.13-.46.18-.81.06-1.07a1.68 1.68 0 0 0-.54-.72c.42-.08.78-.2 1.09-.43a2.28 2.28 0 0 0 .68-1.1c.3-.89.13-1.63-.53-2.2-.33-.29-.8-.54-1.42-.77l-3.75-1.16-2.63 7.82 1.1.34m11.4-142.29" fill="#012a87"/><path d="M68.35 154.83c.97-2.34 9.95-8.71 39.42-5.92 0 0 4.98 3.04 7.9 2.65 1.67-.22-.98.1-3.16-1.7-2.22-1.82-2.69-5.53 2.38-5.43 5.05.13 23.95 1.2 24.3 2.9.33 1.71-9.99 2.43-13.83 2.33-3.86-.1-3.4 1.85.43 1.7 12-.43 25.1-4.65 38.92 5.13 1.65 1.19-4.17 1.38-8.67-.54 0 0-12.2.64-17.47-.23 0 0-4.06 3.3-9.34 2.97.69 1.71-1.95 8.1-18.55 3.3-2.74.84-12.73 2.51-11.64-.46-2.63 0-7.25.85-7.93-.65-.66-1.47 8.12-3.7 9.66-5.29 0 0-18.58.18-22.1-1.1 0 0-10.96 2.46-10.32.32" fill="#bc715f"/><path d="M74.31 180.84c.4-.54.56-1.51 1.4-1.49 1.84.5 3.1 3.86 5.36 1.68.8-.18 1.1.91 1.77 1.04.42 1.87 1.93-.38 3.05-.25a14.19 14.19 0 0 1 8.2-.8c.09 1.84-1.35 3.86-3.15 4.9.04 1.85 1.71 3.04 1.68 4.9-.29.69-.05 1.78-1.1 2-1.33-.23-2.64-.37-3.74-1.12-.14-.13-.25-.4-.53-.3-.14.61.83 1.22 1.21 1.86-.67 1.14-1.77.1-2.7.1-.28.66-.02 1.5-.7 1.91-1.17-.03-1.41-1.31-2.14-1.95-.74.8.53 1.28.7 1.92-.45 2.41-.39 4.77-2.8 6.36l-1.62.8c-.44-1.21-.17-3.05-.46-4.32-.96 1.55-1.7 2.92-3.11 4.23-1.65-.54-2.6-2.47-2.96-4.08a5.1 5.1 0 0 1 1.18-5.46c-.5-.99-2.23-.76-2.47-2.16-2.58-1.68-4.01 2.95-5.68.54a7.56 7.56 0 0 1 1.73-6.7c-.36-.93-1.57-.69-2.28-1.21-1.62-1.38-3.97-2.84-3.85-5.33a12.35 12.35 0 0 1 13 2.93" fill="#008830"/><path d="M76.62 180.59c-.1 2.03 1.37.55 2.47 1.78-.86-.34-1.49 1.48-2.33.44l-.53.5c.31.7.9.8.29 1.56-.92.35-1.1-.8-1.54-1.25-.07-.2.14-.59-.2-.72a2.2 2.2 0 0 1-1.78.53c-.2-.4-.57-.91-.19-1.21.7-.95 1.8.34 2.33-.33.09-.59-.43-1.3.24-1.7.46.07 1.05-.18 1.24.4m5.5 1.66c.05.4-.2.95.31 1.23.67-.37 1.38-.1 1.77.57-.01.36.1.82-.37 1l-1.04-.2c.07-.2-.26-.33-.39-.53-.46-.14-.73.23-1.07.46.26.4.85.6.71 1.11-.61.61-.91-.53-1.59-.24-.46-.18.17-1.13-.55-1.42-.86 0-.3 1.4-1.4.86-.38-.44-.77-1.04-.35-1.54a1.4 1.4 0 0 1 1.63.17c.67-.74.74-3.6 2.34-1.47m-6.85 2.96c.44.64-.1 1.52.47 2.24.9-1.67 1.76.36 2.83.2.32.4.1.95.17 1.4-1.32.36-2.9.77-4.07-.28l-.33.37c.7.65 1.35 1.37.8 2.45-.99.22-2.52.24-3.01-.77-.26-.84.6-1.45-.31-2.13-.66.82-.63 1.91-2 1.17a1.63 1.63 0 0 1-.67-2.24c.88-1.4 2.43.04 3.39-.64.13-1.2-.31-2.24.79-2.9.94-.16 1.37.54 1.94 1.13" fill="#f9d90f"/><path d="M79 185.94c-.43 2.04-1.97-.1-2.68-.19.95-1.7 1.55.55 2.69.19m4.78 2.21c-1.07.3-.9-1.03-1.43-1.55l.4-.37c.4.46.69 1.3 1.03 1.92" fill="#fff"/><path d="M82.34 187.75c.3.7-.7 1.27.16 1.78.27-.22.6-.54.74-.67.73.22 1.57.35 2.08 1.07.55 1.5-.96 1.46-1.82 1.88l-.86-.04c.2-.42-.36-.6-.5-.88a.81.81 0 0 0-.94.35c.19.95 1.35 1.7.15 2.54-1.01-.06-2.58.33-2.49-1.07-.38-.8 1.03-2.01-.48-2.06-.5 1.07-1.04 2.1-2.33 1.08l.16-1.52c1.24.04 2.7.25 3.26-1.13.35-1-.62-1.93.25-2.73 1.26-.29 1.98.56 2.62 1.4" fill="#f9d90f"/><path d="M81.43 190.04c.32.75-.54.8-.94 1.17-.55.05-.93-.17-1.26-.54-.25-.91.43-1 .96-1.36.6-.26.85.45 1.24.73"/><path d="M80.69 190.53c-.14.18-.33.12-.53.17l-.19-.91c.4.03.93.16.72.74" fill="#fff"/></svg>