<svg xmlns="http://www.w3.org/2000/svg" xmlns:xlink="http://www.w3.org/1999/xlink" viewBox="0 0 2500 2500"><path fill="#fff" d="M0 0h2500v2500H0z"/><path fill="#ffe000" d="M0 0h1250v2500H0z"/><g stroke="#000" stroke-width="3.21" stroke-linejoin="round"><g fill="#ce9d09" stroke-linecap="round"><g id="a"><path fill="#fff" d="m1781.07 990.3 16.1 3.83 25.67 4.17 11.76 1.3-2.08 49.91s-2.8 33.18-7.69 48.96c-3.61 11.7-15.78 33.18-15.78 33.18l-7.68 11.74-45.32-39.25s7.72-10.95 10.52-17c3.5-7.59 7.68-23.87 7.68-23.87l4.45-25.9 2.43-32.77zm-57 151.47 41.28 36.01s-8.34 7.43-13.35 9.71c-9.83 4.48-20.77 7.52-31.56 7.29-7.73-.17-15.32-2.98-22.35-6.19-15.72-7.18-33.03-14.73-43.17-28.73-3.59-4.95-5-11.57-4.9-17.69.14-6.93 6.29-19.83 6.29-19.83s2.4 8.64 5.13 12.03c4.52 5.57 11.12 9.3 17.6 12.37 4.85 2.3 10.14 4.02 15.5 4.34 6.95.4 14.16-.68 20.64-3.24 3.34-1.32 8.9-6.07 8.9-6.07z"/><path fill="#fff" d="M1658.65 877.67s3.3 6.6 4.3 10.13c1.71 6.03 2.9 12.32 2.86 18.6-.05 6.28-1.47 12.53-3.15 18.6-2.51 9.07-6.32 17.78-10.3 26.32-2.52 5.41-6.05 10.32-8.58 15.73-4.08 8.73-7 17.96-10.59 26.9-3 7.46-6.86 14.61-9.16 22.32-3.04 10.24-4.56 20.89-6 31.47-1.25 9.1-2.23 18.28-2.3 27.47-.06 10.9.26 21.91 2.3 32.62 2 10.6 4.97 21.2 9.72 30.9a88.85 88.85 0 0 0 14.88 21.46 77.78 77.78 0 0 0 16.88 13.45c5.61 3.35 11.95 5.3 18.03 7.72 8.4 3.34 25.43 9.34 25.43 9.34s-23.52-11.6-31.72-21.36c-6.79-8.07-10.53-18.62-12.88-28.9-2.73-11.9-2.38-24.47-1.14-36.62 1.33-13.07 5.17-25.82 9.15-38.34 4.2-13.22 10.1-25.83 15.45-38.63 3.86-9.21 8.28-18.2 12.02-27.46 4.42-10.94 8.76-21.94 12.3-33.2 2.16-6.86 4.85-13.71 5.43-20.89.63-7.79-.38-15.74-2.17-23.35-2.5-10.66-5.6-21.65-11.83-30.65a41.13 41.13 0 0 0-14.77-13.15c-5.74-2.93-12.55-5.4-18.86-4.16-2.11.42-5.3 3.68-5.3 3.68z"/><path fill="#fff" d="M1711.59 945.6s4.45-18 5.2-27.2c.65-7.86.23-15.81-.6-23.66-.92-8.74-1.47-17.8-4.85-25.9a68.3 68.3 0 0 0-15.58-22.46 69.13 69.13 0 0 0-22.66-14.57c-8.8-3.43-18.5-4.27-27.92-4.85-8.1-.5-16.24.19-24.28 1.21-4.65.6-9.33 1.33-13.76 2.83-4.11 1.4-11.73 5.67-11.73 5.67l29.94 48.96s9.37-5.52 14.57-6.88c5.49-1.44 11.32-1.54 17-1.21 5.75.34 11.72.9 16.99 3.24 6.7 2.98 12.49 7.98 17.54 13.3 6.1 6.42 11.55 13.79 14.96 21.96 3.17 7.59 3.58 16.07 4.72 24.22.25 1.77.46 5.33.46 5.33z"/><path d="M1717.05 906.68s-5.33-16.56-10.37-23.48c-5.85-8.03-13.37-15.39-22.25-19.83-9.43-4.7-31-6.21-31-6.21l11.41 21.13-19.96-.5-10.43-17.43-19.23 8.71-9.57-15.64 20.43-9.48-9.41-15.18 20.42-1.95 8.9 14.7s15.87.05 23.58 1.67a58.23 58.23 0 0 1 15.12 5.4 58.45 58.45 0 0 1 12.45 9.02c4.5 4.2 8.73 8.86 11.87 14.16 3.06 5.15 6.55 16.73 6.55 16.73z"/><path d="m1581.65 845.1 31.9 46.58m-17.97-54.73-15.03 8.79-14.3 10.87 30.9 47.2 13.73-10.58 14.12-8.18zm58.21 198.92 17.88-36.91 19.14 7.61 7.76-19.06-19.03-8.86 9.87-21.32-14.02-6.3-10.58 20.46-19.2-8.02-8.43 19.96 18.61 7.8-17.16 36.63zm143.13-11.04 18.2-.4v21.04l17.54.83-2.98 21.36-16.36-1.03s-2.7 12.57-5.12 18.5c-2.51 6.13-9.66 17.4-9.66 17.4l-19.42-4.86s7.02-11.05 9.7-17c2.41-5.33 5.67-16.59 5.67-16.59l-19.94-2.52 3.47-20.19 18.1 1.26z"/></g><use xlink:href="#a" transform="matrix(-1 0 0 1 3717.75 0)"/><path fill="#fff" d="m1756.66 735.6-27.42 29.45 16.88 50.93 9.67 35.8-27.73 25.82 50.73 71.05-17.36 19.82c-1.82 2.33-2.46 5.66-2.15 8.6a11.95 11.95 0 0 0 3.58 7.3c4.56 4.18 11.33 5.13 17.31 6.72 21.07 5.6 42.93 8.1 64.67 9.72 4.66.35 14.04 0 14.04 0s9.35.35 14.04 0c21.74-1.62 43.6-4.12 64.66-9.72 5.99-1.6 12.75-2.54 17.31-6.73 2-1.83 3.3-4.6 3.58-7.3.31-2.93-.33-6.26-2.14-8.6l-16.3-35.87 51.81-55.52-19.77-17.83-.44-43.26 16.88-50.93-25.4-25.73-22.95-61.25s-4.8-17.08-8.87-24.9c-2.43-4.67-5.83-8.79-9.16-12.87-3.98-4.9-8-9.87-12.87-13.88-4.42-3.63-9.54-6.35-14.6-9.01-5.43-2.87-10.89-5.96-16.84-7.48-6.14-1.56-18.94-1.54-18.94-1.54s-12.79-.02-18.95 1.54c-5.95 1.52-11.4 4.61-16.84 7.48-5.06 2.66-10.18 5.38-14.6 9.01-4.87 4-8.89 8.98-12.87 13.88-3.32 4.08-6.72 8.2-9.16 12.87-4.07 7.81-8.87 24.9-8.87 24.9z"/><path d="M1963.27 933.13s-3.18-2.85-4.96-4a64.48 64.48 0 0 0-11.94-6.07c-5.6-2.15-11.55-3.29-17.4-4.65-6.7-1.57-13.41-3.14-20.23-4.05a197.94 197.94 0 0 0-24.08-1.62c-8.6-.09-25.79 1.21-25.79 1.21s-17.17-1.3-25.8-1.21c-8.03.08-16.1.56-24.07 1.62-6.82.9-13.53 2.48-20.23 4.04-5.85 1.37-11.8 2.51-17.4 4.66a64.48 64.48 0 0 0-11.94 6.07 57.2 57.2 0 0 0-4.96 4m218.71-42.7s-5.18-5.26-8.6-5.91a8.94 8.94 0 0 0-6.57 1.51c-2.38 1.69-3.96 4.56-4.66 7.39-.62 2.53-.35 5.37.61 7.79.81 2.05 2.1 4.34 4.15 5.16 4.8 1.92 15.38-2.03 15.38-2.03zm5.16-3.59c5.8.17 7.91 3.11 9.45 6.48m-243.23-2.88-.3 13.9s10.58 3.95 15.38 2.03c2.05-.82 3.33-3.11 4.15-5.16a13.1 13.1 0 0 0 .6-7.8c-.7-2.82-2.28-5.7-4.65-7.38a8.88 8.88 0 0 0-6.57-1.51c-3.45.67-8.6 5.92-8.6 5.92zm-5.15-3.6c-5.8.17-7.92 3.11-9.46 6.48m198.17 1.34-8.45-.94m-130.04.94 8.45-.94m75.99.81c-2.87-.42-7.6-4.2-7.6-4.2m-22.79 4.2c2.87-.42 7.6-4.2 7.6-4.2m140.94-19.35s-4.22 3.34-7.29 3.85l-1.2.65s-1.95 5.73-3.67 8.17c-1.72 2.45-6.46 6.25-6.46 6.25s-4.8-4.14-7.75-4.95a9.63 9.63 0 0 0-6.02.22c-1.98.8-3.55 2.53-4.74 4.3-1.4 2.1-2.7 4.59-2.59 7.1.14 3.02 3.88 8.19 3.88 8.19l-2.58 4.5-3.66 2.38c-6.32-1.91-12.63-3.93-18.95-7.54-1.73-1.89-3.35-4.3-4.52-9.03 0 0 4.55-2.7 5.6-4.95 1.18-2.54 1.67-6 .21-8.4-1.61-2.66-5.27-4.04-8.39-4.1a8.82 8.82 0 0 0-6.25 2.8c-1.68 1.8-2.97 4.47-2.57 6.9.4 2.46 4.73 5.8 4.73 5.8s-1.8 4.56-3.84 5.43c-6 2.58-9.97 4.04-15.24 4.86-5.21.8-11.07 1.46-16.3-.02-3.37-.96-6.84-2.73-8.96-5.53-.63-.83-.86-3-.86-3s6.46-1.69 9.04-3.67c2.56-1.97 5.28-4.57 5.81-7.75.53-3.2-1.17-6.6-3.02-9.26a17.96 17.96 0 0 0-7.53-6.03c-1.33-.58-4.3-.64-4.3-.64l-.94.86a14.52 14.52 0 0 1-4.77 3.8l-.1.08-.18.06c-.38.2-.75.41-1.13.57-.2.08-.51.1-.74.16-1.27.43-2.47.78-2.47.78s3.86 1.2 4.95 2.73c.67.95.96 2.11 1.08 3.31.15.72.23 1.44.2 2.13a11.78 11.78 0 0 1-.7 3.33 9.03 9.03 0 0 1-1.67 3.5c-.45.53-1 .98-1.59 1.38l-.08.08c-.03.03-.08.04-.12.06a12.4 12.4 0 0 1-3.37 1.5c-1.37.38-4.19.08-4.3.06.11 0 5.52 0 7.68-1.56l.2-.14a10.69 10.69 0 0 0 3.74-7.2 16.43 16.43 0 0 0 .01-3.14 7.63 7.63 0 0 0-2.22-4.15c-2.41-2.15-9.32-2.4-9.41-2.4-.1 0-6.99.26-9.4 2.4a7.63 7.63 0 0 0-2.22 4.15 16.27 16.27 0 0 0 0 3.15c.08.77.29 1.55.5 2.31a10.7 10.7 0 0 0 3.26 4.88l.2.14c2.15 1.55 7.56 1.56 7.66 1.56-.1.01-2.92.32-4.29-.06a12.4 12.4 0 0 1-3.38-1.5c-.03-.02-.08-.03-.11-.06l-.08-.08a7.81 7.81 0 0 1-1.6-1.38 9.06 9.06 0 0 1-1.66-3.5c-.38-1.1-.66-2.22-.7-3.33-.04-.7.05-1.41.2-2.13.12-1.2.42-2.36 1.1-3.3 1.08-1.55 4.93-2.74 4.93-2.74s-1.2-.35-2.47-.78c-.23-.07-.53-.08-.73-.16-.39-.16-.77-.38-1.15-.58-.04-.02-.12-.03-.16-.06l-.09-.05a14.53 14.53 0 0 1-4.79-3.82c-.3-.29-.94-.86-.94-.86s-2.97.06-4.3.64a17.98 17.98 0 0 0-7.53 6.03c-1.85 2.67-3.55 6.06-3.02 9.26.53 3.18 3.26 5.78 5.82 7.75 2.57 1.98 9.03 3.66 9.03 3.66s-.23 2.18-.86 3.01c-2.12 2.8-5.59 4.57-8.96 5.53-5.23 1.48-11.1.82-16.3.02-5.27-.82-9.23-2.28-15.25-4.86-2.03-.87-3.83-5.43-3.83-5.43s4.33-3.34 4.73-5.8c.4-2.43-.9-5.1-2.58-6.9a8.8 8.8 0 0 0-6.24-2.8c-3.1.06-6.78 1.44-8.4 4.1-1.45 2.4-.96 5.86.22 8.4 1.05 2.25 5.6 4.95 5.6 4.95-1.17 4.73-2.8 7.14-4.52 9.03-6.32 3.6-12.64 5.63-18.95 7.54l-3.65-2.37-2.59-4.51s3.74-5.17 3.88-8.19c.11-2.52-1.19-5-2.6-7.1-1.18-1.77-2.75-3.5-4.73-4.3a9.64 9.64 0 0 0-6.02-.22c-2.96.8-7.75 4.95-7.75 4.95s-4.74-3.8-6.46-6.25c-1.72-2.44-3.65-8.17-3.65-8.17l-1.21-.65c-3.08-.5-7.3-3.85-7.3-3.85l-4.44.93s-4.1 2.2-4.15 4.15c-.07 2.7 3.72 3.92 5.44 6.01a75.74 75.74 0 0 1 4.14 5.59c1.22 1.8 2.84 3.47 3.43 5.57.65 2.3-.97 4.97 0 7.15 1.23 2.74 3.78 5.42 6.72 6.02 2.62.53 7.6-2.58 7.6-2.58l-.16 19.88 10.3 9.3 9.73 20.32-3.85 5.15 1.14 10c7.48-9.59 20.5-13.8 32.19-17.15 15.73-4.52 44.57-4.84 58-4.72 4.48.04 7.26.14 7.26.14s44.3-1.44 65.25 4.58c11.69 3.36 24.71 7.56 32.2 17.15l1.13-10-3.85-5.15 9.72-20.31 10.3-9.3-.14-19.9s4.97 3.12 7.59 2.59c2.94-.6 5.49-3.28 6.72-6.02.97-2.18-.65-4.85 0-7.15.6-2.1 2.2-3.77 3.43-5.57a75.87 75.87 0 0 1 4.15-5.59c1.72-2.09 5.5-3.3 5.43-6-.05-1.96-4.15-4.16-4.15-4.16l-4.44-.93zm-148.33-2.61c1.05.98 3.1 2.85 4.8 3.82l.24.11c.5.27 1.2.5 1.88.74 2.92.79 7.94.26 8.05.25h.03c.11.01 5.13.54 8.05-.25.67-.23 1.37-.46 1.87-.73.1-.04.2-.08.28-.13a30.6 30.6 0 0 0 4.77-3.81c.52-.67.97-1.4 1.3-2.16a10.71 10.71 0 0 0-.2-8.7c-1.54-3.05-5.18-4.5-8.1-6.28-2.5-1.53-7.9-3.72-7.99-3.76-.1.04-5.48 2.23-7.98 3.76-2.9 1.78-6.56 3.23-8.1 6.28a10.71 10.71 0 0 0-.2 8.7 10.03 10.03 0 0 0 1.3 2.16z"/><path d="M1980.77 829.79s-10.89-5.06-16.59-6.88c-10.41-3.32-21.24-5.22-31.97-7.28-12.46-2.4-25.26-3.06-37.62-5.95-3.9-.9-7.53-2.77-11.44-3.57-5.4-1.12-11.07-2.88-16.46-1.72-2.96.64-7.82 4.58-7.82 4.58s-4.86-3.94-7.82-4.58c-5.38-1.17-11.05.6-16.45 1.72-3.91.8-7.55 2.66-11.44 3.57-12.36 2.9-25.16 3.54-37.62 5.95-10.74 2.06-21.56 3.96-31.97 7.28-5.7 1.82-16.6 6.88-16.6 6.88m197.47-45.12s5.34-2.83 7.28-5.06c1.28-1.48 2.5-3.3 2.64-5.25a8.68 8.68 0 0 0-2.23-6.48c-1.56-1.58-4.06-2.22-6.28-2.23a8.3 8.3 0 0 0-5.25 1.82 9.13 9.13 0 0 0-3.04 5.66c-.22 1.82.51 3.7 1.37 5.32 1.3 2.44 5.5 6.22 5.5 6.22zm-151.13 0s4.21-3.78 5.51-6.22c.86-1.62 1.59-3.5 1.37-5.32a9.12 9.12 0 0 0-3.04-5.66 8.24 8.24 0 0 0-5.25-1.82c-2.22.01-4.71.65-6.27 2.23a8.69 8.69 0 0 0-2.23 6.47c.13 1.96 1.34 3.78 2.63 5.26 1.93 2.23 7.28 5.06 7.28 5.06zm-41.07 18-11.94 15.58s-.08 4.11.81 5.87c1.24 2.43 5.86 5.67 5.86 5.67l.85 21.38-11.3 19.6-1 .2 7.3 3.86c.35.06.68.12.99.1 4.38-.35 7.07-5.27 10.88-7.45 4.85-2.78 10.01-4.99 15.16-7.15a240.16 240.16 0 0 1 21.74-8.02c9.3-2.88 18.7-5.76 28.33-7.14a141.79 141.79 0 0 1 22.1-1.45c2.47.03 4.92.13 7.38.3 6.57.44 19.37 3.4 19.47 3.42.08-.02 12.9-2.98 19.48-3.43 9.81-.66 19.74-.25 29.47 1.16 9.64 1.38 19.03 4.26 28.33 7.14a239.92 239.92 0 0 1 21.74 8.02c5.16 2.16 10.32 4.37 15.17 7.15 3.8 2.18 6.5 7.1 10.88 7.44.3.03.65-.03 1-.09l7.28-3.85-.99-.2-11.3-19.6.84-21.4s4.64-3.23 5.87-5.66c.9-1.76.8-5.87.8-5.87l-11.93-15.57s-6.02 6-9.91 7.28a10.9 10.9 0 0 1-6.48 0c-2.5-.78-4.43-2.81-6.47-4.45-4.61-3.71-9.23-7.54-12.95-12.14-2.13-2.63-5.27-8.7-5.27-8.7s-12.9 10.14-20.63 12.14c-7.58 1.96-15.96 1.6-23.47-.6-1.88-.56-5.03-3.08-5.03-3.08-8.82-5.62-17.65-8.7-26.42-7.85-8.78-.84-17.6 2.23-26.43 7.86 0 0-3.15 2.5-5.04 3.06-7.5 2.21-15.89 2.56-23.46.6-7.73-2-20.64-12.13-20.64-12.13s-3.13 6.07-5.26 8.7c-3.73 4.6-8.34 8.43-12.95 12.14-2.04 1.64-3.97 3.67-6.48 4.45a10.9 10.9 0 0 1-6.47 0c-3.9-1.28-9.91-7.28-9.91-7.28z"/><path d="M1985.89 796.36s.45-5.7-.16-8.45a20.97 20.97 0 0 0-3.14-7.08c-1.51-2.25-5.64-5.84-5.64-5.84m-1.44 27.69s3.4.12 4.85-.6c2.6-1.3 6.08-6.28 6.08-6.28s6.66 4.6 10.31 4.04c1.8-.27 3.3-1.88 4.25-3.43 1-1.65 1.65-3.78 1.22-5.67-.34-1.5-1.66-2.65-2.83-3.64-2.28-1.93-6.4-1.66-7.9-4.25-1.17-2.04-.45-4.8.2-7.08 1.36-4.73 4.75-8.65 7.5-12.74 1.73-2.6 5.29-4.39 5.66-7.5.2-1.67-2.02-4.65-2.02-4.65s-5.23-.12-7.7.61c-4.07 1.22-8.3 3-11.2 6.12-2.4 2.59-3.11 6.36-4.38 9.67-.96 2.5-2.42 7.68-2.42 7.68s-6.04-.01-8.7 1.21c-3.51 1.62-7.11 4.16-8.7 7.69-1.25 2.76-1.07 6.27 0 9.1 1.08 2.87 3.5 5.24 6.07 6.88 2.85 1.81 9.71 2.84 9.71 2.84zm-234.7-27.7s-4.14 3.6-5.66 5.85a20.98 20.98 0 0 0-3.13 7.08c-.61 2.75-.16 8.45-.16 8.45m-16.94-45.48s-2.22 2.98-2.02 4.66c.37 3.1 3.92 4.89 5.66 7.49 2.74 4.1 6.13 8 7.5 12.74.64 2.27 1.37 5.04.19 7.08-1.5 2.59-5.61 2.32-7.9 4.25-1.17 1-2.48 2.14-2.82 3.64-.44 1.89.2 4.02 1.22 5.67.95 1.55 2.44 3.16 4.24 3.43 3.65.57 10.32-4.04 10.32-4.04s3.47 4.97 6.07 6.27c1.46.73 4.85.6 4.85.6s6.87-1.02 9.72-2.83c2.58-1.64 4.98-4.01 6.07-6.87 1.07-2.84 1.24-6.34 0-9.11-1.6-3.53-5.2-6.07-8.7-7.69-2.67-1.22-8.7-1.2-8.7-1.2s-1.47-5.18-2.43-7.7c-1.26-3.3-1.98-7.07-4.38-9.66-2.9-3.12-7.13-4.9-11.2-6.11-2.47-.74-7.7-.62-7.7-.62zm135.63 14.32 8.32-2.44 8.32 2.44m-14.49 20.08s-6.48-5.91-7.69-9.91a7.47 7.47 0 0 1 .4-5.47c1.18-2.2 5.88-4.65 5.88-4.65s-7.09-3.44-8.9-6.68a8.61 8.61 0 0 1-.61-6.27c.87-3.21 3.3-5.97 5.86-8.1 3.19-2.62 11.23-5.25 11.23-5.25s8.03 2.62 11.23 5.26c2.57 2.12 4.99 4.88 5.86 8.1a8.61 8.61 0 0 1-.6 6.26c-1.82 3.24-8.9 6.68-8.9 6.68s4.7 2.45 5.86 4.65c.86 1.62.93 3.72.4 5.47-1.2 4-7.68 9.9-7.68 9.9l-6.17.41zm22.67-26.89s13.44 5.73 18 11.1c1.26 1.5 2.35 3.5 2.22 5.47-.45 6.96-10.32 18.21-10.32 18.21l-19.93-8.28h-12.94l-19.93 8.28s-9.87-11.25-10.32-18.21c-.12-1.96.96-3.96 2.23-5.46 4.55-5.38 17.99-11.1 17.99-11.1"/><path d="m1844.36 669.25 8.06-6.2 6.5.14-6.65-.15s-3.6-2.44-4.58-4.29a9.19 9.19 0 0 1-1-6c.55-2.66 2.08-5.47 4.43-6.83 2.23-1.3 7.75-.47 7.75-.47s5.5-.84 7.76.47c2.34 1.36 3.87 4.17 4.42 6.82a9.18 9.18 0 0 1-1 6.01c-.98 1.85-4.58 4.3-4.58 4.3l-6.65.14 6.5-.14 8.06 6.2m52.59 5.07-2.68 4.65m32.63-20-7.52.98m8.52 8.8-11.52.6m-1.5-13.74c1.47.94 4.16 2.86 4.6 4.63.77 3.13-.68 7.07-3.14 9.15-2.4 2.02-9.25 1.5-9.25 1.5m-181.7 33.6s11.3-2.83 16.96-4.19c8.08-1.94 16.1-4.2 24.28-5.66a265.12 265.12 0 0 1 28-3.56c11.72-.83 35.22-.57 35.22-.57s23.49-.26 35.22.57c9.38.67 18.74 1.9 28 3.56 8.18 1.47 16.2 3.72 24.28 5.66 5.66 1.36 16.96 4.18 16.96 4.18m-171.55-30.16 2.68 4.65m-32.64-20 7.52.98m-8.52 8.8 11.52.6m-6.47 16.08s12.54-3.18 18.87-4.5a273.2 273.2 0 0 1 20.89-3.72c8.07-1.04 16.2-1.56 24.32-1.93 9.63-.44 28.92-.37 28.92-.37s19.27-.07 28.92.37c8.12.37 16.25.9 24.32 1.93 7.02.9 13.97 2.27 20.89 3.72 6.33 1.32 18.87 4.5 18.87 4.5m-170.23-14.54s-6.87.52-9.26-1.5c-2.46-2.08-3.91-6.02-3.14-9.15.62-2.46 5.55-5.2 5.55-5.2m63.14 74c-11.97.72-24 1.47-35.8 3.63a220.24 220.24 0 0 0-36.22 9.72c-11.12 4.08-22.87 22.64-32.1 15.22-1.98-1.6.75-5.09 1.72-7.44a43.4 43.4 0 0 1 7.72-12.6c2.42-2.67 7.98-3.02 8.59-6.57.44-2.58-3.48-4.1-4.3-6.58-1.04-3.18-1.53-6.82-.57-10.02 1.24-4.1 6.53-6.18 7.73-10.3 1.04-3.58-2.55-7.83-.86-11.16 2.13-4.2 11.34-2.77 12.02-7.44.33-2.27-3.83-2.98-4.58-5.15-.53-1.53.3-3.24.29-4.86-.04-2.2.39-4.6-.58-6.58-.85-1.76-3.7-2.14-4.29-4-.56-1.77-.17-4.14 1.15-5.44 1.03-1.03 3.63.44 4.29-.86 1.33-2.63-2.54-5.32-3.72-8.01-1.4-3.22-3.21-6.32-4-9.73-.64-2.7-2.97-6.89-.58-8.3 2.73-1.61 5.48 3.24 8.01 5.15 3.35 2.52 7.11 4.82 9.44 8.3 1.69 2.51.75 6.5 2.95 8.58 2.65 2.48 7.76.49 10.5 2.86 2.36 2.05 4.44 5.55 3.72 8.59-.69 2.9-7.53 2.82-6.87 5.72.8 3.45 6.82 3.18 10.3 2.58 2.04-.36 3.47-2.25 5.15-3.44 1.32-.92 2.4-2.23 3.87-2.86 1.69-.72 5.43-.93 5.43-.93l-2.14-.5s-3.17-2.53-3.5-4.36a6.13 6.13 0 0 1 1.64-5.01 7.72 7.72 0 0 1 5.5-2.15 6.6 6.6 0 0 1 4.58 1.86 6.32 6.32 0 0 1 1.65 4.8 5.9 5.9 0 0 1-2.3 3.79c-1.25.98-4.57 1.43-4.57 1.43l2.3.64 6.14 8.44 26.54-1.45s3.27-3.34 2.63-5.16c-.69-1.95-2.5-2.67-5.66-2.53-8.58.38-10.34-6.83-10.02-12.04.27-4.33 5.49-7.27 9.51-8.9 3.88-1.57 10.79 3.6 12.54-.2 1.54-3.33-5.81-5.02-6.98-8.5a6.5 6.5 0 0 1 .2-4.75c1.82-3.63 5.72-6.03 9.41-7.7 1.56-.7 5.06-.8 5.06-.8s3.48.1 5.06.8c3.7 1.66 7.59 4.07 9.4 7.7.71 1.42.7 3.25.2 4.75-1.16 3.48-8.51 5.17-6.97 8.5 1.75 3.8 8.66-1.37 12.54.2 4.02 1.63 9.24 4.57 9.5 8.9.33 5.21-1.43 12.42-10 12.04-3.17-.14-4.98.58-5.67 2.53-.64 1.82 2.63 5.16 2.63 5.16l26.54 1.45 6.15-8.44 2.29-.64s-3.32-.45-4.58-1.43a5.91 5.91 0 0 1-2.29-3.8 6.32 6.32 0 0 1 1.65-4.79 6.55 6.55 0 0 1 4.57-1.86 7.72 7.72 0 0 1 5.51 2.15 6.13 6.13 0 0 1 1.65 5c-.34 1.84-3.5 4.37-3.5 4.37l-2.15.5s3.74.21 5.43.93c1.48.63 2.55 1.94 3.87 2.86 1.68 1.19 3.11 3.08 5.15 3.44 3.48.6 9.5.87 10.3-2.58.66-2.9-6.18-2.82-6.87-5.72-.72-3.04 1.36-6.54 3.72-8.59 2.74-2.37 7.85-.38 10.5-2.86 2.2-2.07 1.26-6.07 2.95-8.58 2.33-3.48 6.1-5.78 9.44-8.3 2.53-1.9 5.28-6.76 8.01-5.15 2.39 1.41.06 5.6-.57 8.3-.8 3.41-2.6 6.51-4 9.73-1.19 2.7-5.06 5.38-3.73 8 .66 1.31 3.26-.16 4.3.87 1.31 1.3 1.7 3.67 1.14 5.43-.6 1.87-3.44 2.25-4.3 4.01-.96 1.98-.53 4.38-.56 6.58-.03 1.62.81 3.33.28 4.86-.75 2.17-4.9 2.88-4.58 5.15.68 4.67 9.89 3.24 12.02 7.44 1.69 3.33-1.9 7.58-.86 11.16 1.2 4.12 6.49 6.2 7.73 10.3.96 3.2.47 6.84-.57 10.02-.82 2.49-4.74 4-4.3 6.58.61 3.55 6.17 3.9 8.59 6.58a43.37 43.37 0 0 1 7.72 12.59c.97 2.36 3.7 5.84 1.72 7.44-9.23 7.42-20.98-11.14-32.1-15.22a220.23 220.23 0 0 0-36.21-9.71c-11.8-2.17-23.84-2.92-35.81-3.65-6.97-.42-20.94-.4-20.94-.4s-13.95-.02-20.94.4zm31.13-133.64-10.18.12-10.19-.12m16.93-33.88c2.65-5.6-1.97-9.75-6.74-13.86-4.78 4.11-9.4 8.26-6.75 13.86m14.07 46.73c3.89.29 8.63 4.27 11.58 1.72 1.34-1.16.68-3.67 0-5.3-1.57-3.8-8.41-4.62-8.72-8.72-.27-3.54 5.19-5.21 6.3-8.59a7.83 7.83 0 0 0 0-5.29c-2.76-6.58-14.5-6.95-16.54-13.68-.9-2.98 5.94-6.5 6.8-6.87 4.34-1.88 9.7 2.66 14 .8 2.9-1.26 6.12-4.12 6.06-7.28-.06-3.44-3.72-6.32-6.88-7.7-6.1-2.65-16.22 5.91-19.98.41-3.45-5.06 8.65-11.08 7.03-17-.76-2.8-6.97-5.25-6.97-5.25s-6.2 2.44-6.98 5.26c-1.63 5.91 10.49 11.93 7.03 17-3.76 5.5-13.87-3.07-19.98-.41-3.15 1.37-6.82 4.25-6.88 7.69-.05 3.16 3.17 6.02 6.07 7.28 4.28 1.86 9.65-2.68 13.99-.8.87.38 7.7 3.89 6.8 6.87-2.04 6.73-13.78 7.1-16.53 13.68a7.82 7.82 0 0 0 0 5.3c1.1 3.37 6.57 5.04 6.3 8.58-.32 4.1-7.16 4.92-8.73 8.72-.68 1.63-1.34 4.14 0 5.3 2.96 2.55 7.7-1.43 11.59-1.72 2.43-.18 7.32 0 7.32 0s4.86-.18 7.31 0z"/><path fill="none" d="M1953.74 953.5s-7.15-3.02-10.8-4.34a257.86 257.86 0 0 0-20.03-6.47c-6.6-1.8-13.24-3.7-20.03-4.46-14.58-1.63-44-.2-44-.2s-29.41-1.43-44 .2c-6.8.76-13.44 2.66-20.04 4.45a258.57 258.57 0 0 0-20.03 6.48 310.93 310.93 0 0 0-10.8 4.34M1965.9 731s-11.95-4.76-18.03-6.87c-5.1-1.77-10.2-3.58-15.45-4.86-6.4-1.57-12.93-2.54-19.46-3.44a376.6 376.6 0 0 0-28.3-2.78c-8.59-.52-25.8-.6-25.8-.6s-17.19.08-25.79.6a376.49 376.49 0 0 0-28.3 2.78c-6.53.9-13.06 1.87-19.46 3.44-5.25 1.28-10.35 3.09-15.45 4.86-6.08 2.11-18.03 6.87-18.03 6.87m-14.16 120.4s17.56-5.9 26.41-8.66c9.13-2.84 18.17-6.07 27.52-8.1 11.18-2.43 22.6-3.63 33.99-4.85 11.05-1.2 33.28-2.43 33.28-2.43s22.2 1.24 33.27 2.43c11.38 1.23 22.81 2.43 34 4.86 9.34 2.03 18.38 5.25 27.51 8.09 8.85 2.75 26.4 8.67 26.4 8.67"/></g><g fill="#ccc"><g id="b"><path d="m1533.28 904.04 101.17 86.72s-5.13 11.2-7.28 16.99a142.62 142.62 0 0 0-5.14 16.25c-1.96 8.14-4.14 24.78-4.14 24.78l-117.94-108.03c1.67-24.69 15.57-33.49 33.33-36.7zm-14.29 54.16-24.28 27.16 15.16 14.6-23.46 22.89-15.17-15.17-25.51 27.2-.24 33.75 58.09 45.5 20.03-14.89-1.15-32.33 15.45 8.58 15.45-9.44.86 29.19-12.59-9.16-13.73 18.03-1.43 32.04 43.77 38.91 53.05-47.07-4-14.12-2.31-12.67-1.25-25.13 1.98-27.44z"/><path d="m1494.71 985.36-.62 30 15.64-15.26z"/><path fill="none" d="m1571.93 1140.42-1.82 34.27m-18.6-139.68.64 31.79m-14.81-17.34.83 25.88m-14.43-36.34.55 28.93m-21.44 15.22.31 30.65m24.74-9.68 44.06 36.9 45.06-39.54M1446 1034.6l57.58 49.2 18.88-16.88-14.88-12.6 16.6-15.73 12.88 11.16 14.59-14.88 18.88 18.31-17.15 13.45 16 14.6-15.16 14.01"/><path d="m1901.35 1229.35 48.6 44.58 10.76 31.43-62.64-6.67-35.66-35.28-37.97-35.18-164.04-142.14s3.48-13.1 5.64-19.52c3.12-9.3 6.86-18.38 10.56-27.47.93-2.28 2.92-6.78 2.92-6.78l183.01 162.24z"/><path d="M1942.67 1236.04c27.1 37.87 72.7 73.64 86.54 90.84 13.84 17.2 22.76 33.54 2.58 55.54s-43.06 9.52-61.14-2.58c-18.07-12.1-49.6-51.3-94.71-81.37z"/><path d="m1926.7 1299.75-35.17-15.87m40.93-38.3c2.42 7.97.57 16.78 3.62 24.43 3.02 7.55 14.03 19.97 14.03 19.97s-7 .98-10.27 2.24c-4.73 1.84-11.95 2.71-13.17 7.64-1.06 4.31 4.06 8.03 7.1 11.27 2.9 3.11 6.64 5.37 10.3 7.53 6.14 3.6 12.4 7.65 19.4 8.91 8.77 1.58 25.13-10.75 26.65-1.98.63 3.65-7.4 1.32-10.72 2.95-7.75 3.81-11.65 12.12-4.82 17.9 4.39 3.7 11.28 2.34 17 2.81 5.5.46 11.76-2.74 16.53.02 5.6 3.25 12.66 11.1 9.69 16.87-3.07 5.93-14.49 5.77-19.93 1.9-4.02-2.85-2.95-9.47-3.54-14.36-.18-1.46 0-2.94 0-4.4"/><circle cx="2154.66" cy="1480.15" r="129.69"/><path fill="#fff" d="M2106.13 1485.65a40.48 40.48 0 1 0 40.48 40.48l14.02-.61a40.48 40.48 0 1 0 40.48-40.48l.61-7.94a40.48 40.48 0 1 0-40.48-40.47l-14.02-1.22a40.48 40.48 0 1 0-40.48 40.48z"/><circle cx="2154.67" cy="1446.05" r="14.61"/><circle cx="2189.37" cy="1480.15" r="14.61"/><circle cx="2155.28" cy="1511.2" r="14.61"/><circle cx="2119.35" cy="1480.15" r="14.61"/><path fill="#fff" d="M2152.23 1558.42c-5.34 10.96-12.62 15.94-21.92 21.92 13.25 5.75 29.4 4.7 43.84 0-9.3-4.65-16.04-12-21.92-21.92zm-76.58-80.23c-10.96-5.34-15.94-12.62-21.92-21.92-5.75 13.25-4.7 29.4 0 43.84 4.65-9.3 12-16.04 21.92-21.92zm159.25 3.65c10.95-5.34 15.94-12.62 21.92-21.92 5.75 13.25 4.7 29.4 0 43.84-4.65-9.3-12-16.04-21.92-21.92zm-78.4-80.84c-5.35-10.96-12.63-15.94-21.93-21.92 13.25-5.75 29.4-4.7 43.84 0-9.3 4.65-16.04 12-21.92 21.92z"/></g><g fill="#ce9d09"><g id="c"><path d="M1533.48 903.82s.7-5.06 0-7.44a22.57 22.57 0 0 0-6.58-10.16 19.65 19.65 0 0 0-9.16-4.58c-3.61-.7-7.46-.11-11.01.86-2.42.67-6.76 3.32-6.76 3.32l-14.85 6.12-5.5 17.67s-3.18 5.58-3.94 8.66c-.8 3.3-1.4 6.87-.57 10.16a19.8 19.8 0 0 0 6.3 10.15 18.58 18.58 0 0 0 10.3 4c2.82.22 8.3-1.85 8.3-1.85 1.57-18.61 9.85-32.81 33.47-36.91z"/><path d="m1500.27 885.64-38.75-17.02-3.15 3.01 21.12 38.2s5.92-8.74 9.35-12.74c3.51-4.09 11.43-11.45 11.43-11.45z"/><circle cy="865.26" cx="1457.29" r="15.95"/><path d="M1566.19 932.26c3.39 27.95 7.32 55.9 16.02 83.85l31.07 28.46c-6.62-29.23-18.44-58.46-18.36-87.7z"/><path d="m1613.05 972.41-85.49-6.36 27.2 24.91 78.07 3.38 1.15-3.99zm105.31 94.51c-22.45 8.46-31.42 22.3-37.86 37.17-6.35.56-12.3.62-14.4-4.13 5.34-34.7 30.2-45.55 35.75-47.75 14.95-2.82 12.17 8.85 16.51 14.71zm27.52 25.9c-22.45 8.46-31.42 22.3-37.86 37.17-6.35.56-12.3.62-14.4-4.13 5.34-34.7 30.2-45.55 35.75-47.75 14.95-2.82 12.17 8.85 16.51 14.71zm312.78 261.87c-7.34-.2-15.08 1.5-15.08 1.5.3 8.02-2.94 16.59-11.8 26.23-7.64 8.33-15.66 11.7-23.67 12.04v.01s-2.85 17.66 2.58 23.26c6.36 6.55 27.12 3.87 27.12 3.87l1.77-1.13a129.69 129.69 0 0 1 31.91-39.8l.33-1.25s3.04-16.53-2.15-21.5c-2.35-2.27-6.6-3.08-11.01 0z"/><circle cy="1375.42" cx="2254.52" r="17.66"/><circle cy="1580" cx="2260.61" r="17.66"/><circle cy="1591.57" cx="2062.12" r="17.66"/></g></g></g><g fill="#ce9d09" transform="matrix(-1 0 0 1 3718.26 0)"><use xlink:href="#b"/><use xlink:href="#c" fill="#ccc"/></g><g fill="#fa0204"><path id="d" d="M1869.19 1175.78c0 5.38-4.5 7.46-13.24 7.46s-12.79-2.54-12.79-7.92 4.04-6.7 12.79-6.7 13.24 1.78 13.24 7.16z"/><use xlink:href="#d" x="6.39" y="14.31"/><path d="M1877.34 1208.69c-1.77 5.08-6.7 5.56-14.96 2.68-8.26-2.88-11.24-6.6-9.47-11.68 1.78-5.08 6.03-5 14.28-2.12 8.26 2.88 11.92 6.04 10.15 11.12z"/><path id="e" d="M1877.51 1222.51c-1.06 5.27-5.89 6.42-14.46 4.69s-12.03-5.02-10.96-10.29c1.06-5.27 5.29-5.76 13.86-4.03 8.56 1.73 12.62 4.36 11.56 9.63z"/><use xlink:href="#e" x="3.96" y="16.14"/><path d="M1921.73 1216.2c-2.59-.7-2.3-5.3-1.58-7.89 1.1-3.96 8.35-9.1 8.35-9.1s1.77 5.56.95 8.18c-1.16 3.73-3.95 9.82-7.72 8.81z"/><path d="M1912.29 1224.42c-2.82-.62-3.18-5.52-2.44-8.32 1.14-4.32 9.64-9.32 9.64-9.32s1.48 6.04.52 8.83c-1.27 3.7-3.9 9.65-7.72 8.81zm-10.77 15.59c-4.3-1.14-3.8-8.76-2.66-13.05.95-3.54 3.72-9.12 7.28-8.25 4.16 1.02 4.11 8.32 3.1 12.49-.92 3.8-3.95 9.81-7.72 8.81z"/><path d="M1888.73 1252.19c-4.21-.93-6-7.64-5.16-11.87.88-4.44 5.36-10.41 9.78-9.43 4.46.99 6 8.35 4.93 12.8-1 4.14-5.39 9.42-9.55 8.5zm-2.22 7.39c-1.08 5.09-7.5 6.86-11.46 5.57-4.15-1.36-9.58-7.19-8.44-12.53 1.14-5.38 8.18-6.8 12.32-5.22 3.87 1.48 8.64 7.16 7.58 12.18zm-85.04-49.29s5.14 2.53 7.35 4.8c2.32 2.37 5.1 3.31 3.7 6.92-1.4 3.63-5.83 2.38-8.12-.16-2.13-2.37-2.93-11.56-2.93-11.56zm25.37 8.77c5.21 1.05 5.1 7.12 2.44 10.85-2.8 3.9-10.88 8.99-16.35 7.88-5.51-1.11-4.84-7.75-1.8-11.65 2.85-3.64 10.56-8.11 15.71-7.08z"/><path id="f" d="M1844.26 1230.55c4.85 2.17 3.42 8.07 0 11.12-3.59 3.2-12.6 6.37-17.68 4.1-5.14-2.31-3.02-8.64.81-11.78 3.58-2.92 12.08-5.58 16.87-3.44z"/><use xlink:href="#f" x="14" y="10.66"/><path d="M1862.97 1250.68c4.79.75 6.07 7.42 4.58 11.7-1.55 4.49-7.47 10.67-12.5 9.87-5.06-.81-5.97-8.14-4.2-12.64 1.67-4.2 7.4-9.68 12.12-8.93z"/><path d="M1875.1 1265.33c3.96 2.3 3.03 9.59.41 13.53-2.75 4.14-9.85 8.62-14 6.2-4.2-2.45-2.74-10.3.21-14.38 2.76-3.8 9.46-7.63 13.38-5.35zm-86.08-39.89c4.24-.38 7.18 5.96 7.13 10.58-.06 4.85-3.32 12.4-7.77 12.8-4.5.38-7.31-6.7-7.07-11.62.23-4.58 3.52-11.39 7.71-11.76z"/><path d="M1802.91 1237.65c4.16.93 5.03 7.87 3.57 12.25-1.53 4.6-6.93 10.8-11.3 9.82-4.4-1-4.92-8.6-3.2-13.2 1.62-4.3 6.82-9.8 10.93-8.87z"/><path d="M1815.79 1246.24c4.92 1.16 5.95 9.77 4.23 15.21-1.82 5.72-8.21 13.42-13.37 12.2-5.21-1.24-5.83-10.69-3.8-16.4 1.91-5.34 8.08-12.16 12.94-11.01z"/><path d="M1826.22 1256.8c5.01-.64 9 7.06 9.3 12.76.31 5.99-2.97 15.45-8.23 16.12-5.31.67-9.22-7.96-9.31-14.03-.1-5.67 3.29-14.21 8.24-14.85z"/><path id="g" d="M1838.59 1265.66c4.56-.53 8.18 5.85 8.45 10.58.28 4.96-2.7 12.8-7.48 13.36-4.83.55-8.37-6.6-8.46-11.63-.08-4.7 2.99-11.78 7.5-12.31z"/><use xlink:href="#g" x="12.79" y="10.35"/><path id="h" d="M1929.28 1250.88c-3.24 2.85-9.71.31-12.62-2.87-3.06-3.35-5.21-10.49-1.8-13.47 3.44-3.01 10.29.11 13.23 3.6 2.74 3.27 4.4 9.93 1.19 12.74z"/><use xlink:href="#h" x="-7" y="12.79"/><use xlink:href="#h" x="-19.48" y="23.45"/><path d="M1905.19 1281.18c-1.14 4.16-7.93 5.61-12.12 4.56-4.39-1.11-10.12-5.88-8.92-10.25 1.21-4.4 8.65-5.58 13.03-4.28 4.08 1.22 9.14 5.86 8.01 9.97z"/><path d="M1887.18 1278.19c3.64 2.54 2.79 10.55.38 14.89-2.53 4.55-9.04 9.48-12.86 6.81-3.86-2.7-2.51-11.33.2-15.82 2.52-4.18 8.68-8.39 12.28-5.88z"/><path d="M1869.62 1287.55c3.96 2.3 3.03 9.59.41 13.53-2.75 4.14-9.84 8.62-14 6.2-4.2-2.45-2.74-10.3.21-14.38 2.76-3.8 9.46-7.63 13.38-5.35z"/><path id="i" d="M1831.34 1312.91c-3.4 3.23-.76 11.27 2.77 15.28 3.7 4.21 11.8 8.1 15.35 4.7 3.59-3.43.3-12.02-3.6-16.13-3.62-3.83-11.17-7.05-14.52-3.85z"/><use xlink:href="#i" x="-7.32" y="13.78"/><path id="j" d="M1820.83 1339.55c-4.35 1.75-4.88 10.19-3.08 15.22 1.88 5.28 7.95 11.9 12.51 10.05 4.6-1.86 4.73-11.06 2.64-16.31-1.95-4.9-7.78-10.69-12.07-8.96z"/><use xlink:href="#j" x="-10.55" y="14.85"/><path id="k" d="M1802.66 1371.04c-4.57 1.04-6.43 9.29-5.46 14.54 1.02 5.51 5.97 13 10.76 11.91 4.84-1.1 6.42-10.17 5.2-15.69-1.15-5.15-5.99-11.79-10.5-10.76z"/><use xlink:href="#k" x="-10.12" y="15.93"/><path id="l" d="M1784.06 1403.3c-4.68.17-8.04 7.93-8.06 13.28-.02 5.6 3.45 13.88 8.37 13.7 4.96-.2 8.2-8.8 8-14.46-.16-5.27-3.68-12.69-8.31-12.52z"/><use xlink:href="#l" x="-10.33" y="19.16"/><use xlink:href="#l" x="-22.39" y="37.02"/><use xlink:href="#l" x="-34.87" y="52.31"/><use xlink:href="#l" x="-47.79" y="66.51"/><use xlink:href="#l" x="-61.99" y="78.14"/><use xlink:href="#l" x="-75.56" y="90.62"/><path d="m1692.79 1500.17-5.26 20.6s2.93 7.33 6 7.02c5.48-.55 6.96-9.05 8-14.45.96-8.43-8.74-13.17-8.74-13.17zm324.42 13.08c1.61 6.12 15.26 11.31 15.26 11.31l-6.65-27.75c-5.72.15-9.5 12.43-8.61 16.44z"/><path d="M2016.01 1490.95c-4.36-1.72-10.55 4.04-12.7 8.93-2.28 5.13-2.42 14.1 2.16 15.9 4.62 1.82 11.04-4.77 13.14-10.03 1.95-4.9 1.7-13.1-2.6-14.8z"/><path id="m" d="M2000.82 1478.67c-4.68-.24-8.71 7.2-9.2 12.51-.52 5.59 2.2 14.14 7.12 14.39 4.96.25 8.94-8.05 9.26-13.7.3-5.26-2.56-12.96-7.18-13.2z"/><use xlink:href="#m" x="-13.4" y="-13.7"/><use xlink:href="#m" x="-25.88" y="-29.23"/><use xlink:href="#m" x="-38.66" y="-42.32"/><use xlink:href="#m" x="-49.01" y="-60.28"/><use xlink:href="#m" x="-60.28" y="-76.41"/><use xlink:href="#m" x="-70.63" y="-93.46"/><use xlink:href="#m" x="-79.76" y="-113.25"/><use xlink:href="#m" x="-89.81" y="-131.21"/><use xlink:href="#m" x="-98.03" y="-152.52"/><path d="M1883.85 1304.56s-1.65 26.68 8.04 28.39c6.04 1.07 10.78-14.91 10.78-14.91z"/><path id="n" d="M1862.02 1610.75c-2.88 3.7.91 11.26 5 14.7 4.28 3.62 12.85 6.28 15.87 2.4 3.04-3.93-1.48-11.94-5.93-15.43-4.15-3.25-12.1-5.32-14.94-1.67z"/><use xlink:href="#n" x="18.3" y="-2.15"/><use xlink:href="#n" x="36.81" y="-5.81"/><path id="o" d="M1916.18 1603.8c-2.29 4.09 2.6 11 7.15 13.79 4.78 2.93 13.65 4.28 16.05-.02 2.42-4.34-3.26-11.58-8.18-14.36-4.6-2.6-12.76-3.45-15.02.59z"/><use xlink:href="#o" x="20.02" y="-3.22"/><path id="p" d="M1953.48 1595.43c-1.9 4.28 3.6 10.7 8.39 13.07 5.03 2.48 14 3 15.98-1.5 2-4.54-4.31-11.23-9.47-13.55-4.81-2.16-13.02-2.25-14.9 1.98z"/><use xlink:href="#p" x="18.94" y="-5.59"/><path id="q" d="M1991.26 1583.89c-1.65 4.39 4.22 10.48 9.15 12.55 5.16 2.18 14.14 2.17 15.86-2.44 1.74-4.65-4.97-10.95-10.25-12.96-4.93-1.87-13.14-1.48-14.76 2.85z"/><use xlink:href="#q" x="19.16" y="-6.24"/><use xlink:href="#q" x="37.67" y="-13.99"/><use xlink:href="#q" x="57.48" y="-22.17"/><use xlink:href="#q" x="77.5" y="-28.63"/><use xlink:href="#q" x="79.87" y="-44.34"/><path d="M2066.71 1534.88s13.55 2 14.79-2.88c1.65-6.46-15.42-12.74-15.42-12.74z"/><path id="r" d="M1701.62 1575.59c-3.99 2.46-3.07 10.87-.44 15.53 2.76 4.88 9.87 10.36 14.05 7.77 4.21-2.62 2.76-11.71-.19-16.53-2.76-4.5-9.48-9.2-13.42-6.77z"/><use xlink:href="#r" x="18.94" y="7.75"/><use xlink:href="#r" x="37.03" y="10.55"/><use xlink:href="#r" x="56.83" y="15.5"/><use xlink:href="#r" x="74.7" y="18.08"/><use xlink:href="#r" x="92.35" y="21.74"/><use xlink:href="#r" x="110.43" y="26.69"/><use xlink:href="#r" x="128.3" y="29.92"/><use xlink:href="#r" x="146.6" y="32.72"/><path d="M1648.16 1517.51c-4.17-2.15-10.9 2.98-13.53 7.63-2.76 4.87-3.8 13.8.58 16.04 4.42 2.26 11.46-3.66 14.07-8.68 2.43-4.68 3-12.87-1.12-15z"/><path d="M1642.01 1534.4c-4.42-1.57-10.4 4.4-12.4 9.36-2.09 5.2-1.92 14.18 2.72 15.82 4.68 1.66 10.86-5.15 12.78-10.47 1.79-4.96 1.26-13.16-3.1-14.71z"/><path d="M1647.74 1549.94c-4.54-1.17-9.96 5.33-11.5 10.44-1.6 5.37-.63 14.3 4.14 15.51 4.81 1.23 10.35-6.11 11.78-11.59 1.33-5.1.06-13.21-4.42-14.36z"/><path d="M1662.37 1556.31c-4.5-1.31-10.13 5-11.83 10.06-1.79 5.32-1.1 14.27 3.62 15.64 4.77 1.38 10.55-5.78 12.16-11.2 1.5-5.05.5-13.2-3.95-14.5z"/><path id="s" d="M1671.91 1558.81c-4.55 1.13-6.23 9.42-5.15 14.65 1.14 5.5 6.24 12.88 11.02 11.68 4.81-1.2 6.2-10.3 4.85-15.8-1.26-5.12-6.23-11.65-10.72-10.53z"/><use xlink:href="#s" x="16.79" y="6.24"/><use xlink:href="#i" x="8.61" y="-11.19"/><use xlink:href="#i" x="4.66" y="6.47"/><use xlink:href="#i" x="4.91" y="26.68"/><use xlink:href="#i" x="4.66" y="47.87"/><use xlink:href="#i" x="5.57" y="68.57"/><use xlink:href="#i" x="2.22" y="87.75"/><use xlink:href="#i" x="4.66" y="109.06"/><use xlink:href="#i" x="2.22" y="126.41"/><use xlink:href="#i" x="4.66" y="143.46"/><use xlink:href="#i" x="4.66" y="163.86"/><use xlink:href="#i" x="3.44" y="183.95"/><use xlink:href="#i" x="3.74" y="203.13"/><use xlink:href="#i" x="4.35" y="223.52"/><use xlink:href="#i" x="4.35" y="243.31"/><use xlink:href="#i" x="3.74" y="263.1"/><use xlink:href="#i" x="2.52" y="283.19"/><use xlink:href="#i" x="2.52" y="305.11"/><use xlink:href="#i" x="1.92" y="327.94"/><use xlink:href="#i" x="1.92" y="349.25"/><use xlink:href="#i" x="1.92" y="369.04"/><use xlink:href="#i" x="1.31" y="391.27"/><path id="t" d="M1882.24 1303.18c2.44 3.7-1.32 10.83-5.16 13.97-4.04 3.3-11.91 5.46-14.47 1.57-2.58-3.93 1.86-11.46 6.04-14.62 3.9-2.95 11.18-4.58 13.59-.92z"/><use xlink:href="#t" x="2.74" y="16.13"/><use xlink:href="#t" x="2.43" y="34.1"/><use xlink:href="#t" x="2.13" y="52.36"/><use xlink:href="#t" x="1.82" y="69.11"/><use xlink:href="#t" x="2.74" y="87.07"/><use xlink:href="#t" x="1.52" y="104.42"/><path d="M1883.25 1426.06c2.7 3.83-1.46 11.2-5.7 14.45-4.45 3.4-13.15 5.65-15.97 1.62-2.85-4.07 2.06-11.85 6.67-15.12 4.3-3.05 12.34-4.74 15-.95z"/><path id="u" d="M1882.09 1443.58c3.4 3.23.76 11.27-2.77 15.28-3.7 4.21-11.8 8.1-15.35 4.7-3.59-3.43-.3-12.02 3.6-16.13 3.62-3.83 11.17-7.05 14.52-3.85z"/><use xlink:href="#u" x=".61" y="20.4"/><use xlink:href="#u" x=".92" y="40.49"/><use xlink:href="#u" x=".31" y="62.11"/><use xlink:href="#u" x=".92" y="82.2"/><use xlink:href="#u" x=".31" y="102.6"/><use xlink:href="#u" x=".61" y="122.99"/><use xlink:href="#u" x=".61" y="143.69"/><use xlink:href="#u" x="-.3" y="164.4"/><use xlink:href="#u" x=".92" y="183.27"/><use xlink:href="#u" x=".92" y="203.06"/><use xlink:href="#u" x=".31" y="224.37"/><use xlink:href="#u" x=".31" y="245.37"/></g><path fill="#fa0204" d="M1849.64 1848.26c19.9 5.52 31.76 5.24 48.22.43l-17.44-27.98"/><path fill="#ce9d09" d="m1888.31 1776.16-31.7-8.14s.36-35.18 20.38-32.12c16.62 2.55 11.99 40.34 11.32 40.26z"/><circle fill="#ce9d09" cx="1872.89" cy="1722.97" r="12.92"/><path fill="#fa0204" d="M1885.37 1791.86c7.05 17.86 11.37 33.24 4.74 53.39m7.6 3.4c-10.23-8.25-36.59-5.82-47.99-.34-4.45 0-16.44-83.24 25.72-81.18 38.72 1.89 24.95 81.91 22.26 81.53z"/><path fill="#fa0204" d="M1815.2 1866.34c19.3 12.24 37.25 11.14 54.25.43l-40.26-41.98"/><circle fill="#ce9d09" cx="1843.4" cy="1738.26" r="12.92"/><path fill="#ce9d09" d="m1859.33 1780.02-32.72-.65s-4.25-26.6 16.14-27.76c16.93-.96 17.26 28.36 16.58 28.41z"/><path fill="#fa0204" d="M1843.61 1860.74c-6.26-13.91-6.91-31.03-5.17-49.51m-9.47 50.37c-7.68-13.18-9.1-30.01-3.01-51.23m43.4 56.63c-4.92-6.19-40.22-8.83-54.1-.39-5.01 0-18.53-93.85 29-91.53 43.66 2.13 28.14 92.36 25.1 91.92z"/></g></svg>