<svg xmlns="http://www.w3.org/2000/svg" xmlns:xlink="http://www.w3.org/1999/xlink" viewBox="0 0 1200 600"><defs><clipPath id="b"><path d="M0 0v150h700v150H600zm600 0H300v350H0v-50z"/></clipPath><clipPath id="a"><path d="M0 0h1200v600H0z"/></clipPath><linearGradient id="c" gradientUnits="userSpaceOnUse" x1="103.08" y1="111.28" x2="92.55" y2="107.76" gradientTransform="matrix(.99614 0 0 2.25255 703.84 -75.05)"><stop stop-color="red" offset="0"/><stop stop-color="#ff0" offset="1"/></linearGradient></defs><path fill="#012169" d="M0 0h1200v600H0z"/><path d="m0 0 600 300m0-300L0 300" stroke="#fff" stroke-width="60" clip-path="url(#a)"/><path d="m0 0 600 300m0-300L0 300" stroke="#c8102e" stroke-width="40" clip-path="url(#b)"/><path d="M300 0v350M0 150h700" stroke="#fff" stroke-width="100"/><path d="M300 0v350M0 150h700" stroke="#c8102e" stroke-width="60"/><path d="M0 300h600V0h600v600H0z" fill="#012169"/><path fill="#fff" d="m776.26 144.07 250.4-.93-.46 223s8.82 33.9-105 85.47c40.89-4.18 85.48-47.85 85.48-47.85s18.12-23.23 26.95-10.22c8.83 13 17.19 19.51 23.7 24.62 6.5 5.11 11.6 19.05 1.85 29.27s-25.09 11.61-29.27-.93c-6.5 3.25-46.45 51.57-128.22 53.89-83.15-1.4-128.68-54.35-128.68-54.35s-11.15 17.65-26.95 3.71c-15.33-18.12-3.71-29.73-3.71-29.73s13-7.43 16.72-12.54c6.04-6.97 7.9-16.26 18.12-16.26 12.08.93 16.72 10.68 16.72 10.68s41.81 44.14 86.88 49.71c-101.74-48.78-105.46-78.98-105-86.41l.47-221.14z"/><path fill="#006129" stroke="#000" stroke-width="1.89" d="m782.3 150.1 238.79-1.39v214.63c.46 27.88-46.46 56.22-119.86 92.45-75.73-39.02-119.4-62.71-119.86-92.91l.93-212.77z"/><g id="d" fill="#ffc72c" stroke="#000" stroke-width=".94"><path fill="none" stroke="#ffc72c" stroke-width="1.89" d="m814.8 181.83 14.09-20.7 14.16 20.74"/><path d="M831.72 174.09a2.8 2.8 0 1 1-5.6 0 2.8 2.8 0 0 1 5.6 0z"/><path d="m817.44 197.12 21.86.06s.34-2.83-2.29-4.56c11.45-1.57 8.47-11.67 18.06-12.24 1.86.29-5 4.3-5 4.3s-5.79 4.07-3.15 6.14c2.09 1.65 3-1 3.29-3 .28-2 9.3-3.29 8-9.01-2.14-4.72-14.73 3.14-14.73 3.14l-8.98-.05c-.56-1-3.04-5.05-5.6-5.07-3.03.11-5.16 5.12-5.16 5.12h-20.32s-.7 5.22 9.6 6.22c2.33 3.03 4.12 3.87 6.14 4.66-1.34 1.12-1.72 2.47-1.72 4.29zm1.58-4.44 18.2-.06m-26.54-10.67s1.46 8.52 8.18 10.53"/><path fill="url(#c)" d="M809.56 181.84c.67-3.25 1.9-3.8 3.25-7.95.22-4.03-3.25-3.59-2.24-6.16 1.8-2.8.9-5.5-2.46-7.62.67 3.7-4.37 7.17-4.37 10.2 0 3.02 2.57 2.35 2.24 6.94.22 2.69-.68 2.02-.9 4.6h4.48z"/><path d="M831.5 161.66a2.58 2.58 0 1 1-5.15 0 2.58 2.58 0 0 1 5.15 0z"/></g><use xlink:href="#d" x="-.77" y="41.3"/><use xlink:href="#d" x="-1.09" y="82.01"/><use xlink:href="#d" x="25.63" y="126.1"/><use xlink:href="#d" x="-4.57" y="162.16"/><use xlink:href="#d" x="-3.78" y="204.77"/><use xlink:href="#d" x="146.28" y=".67"/><use xlink:href="#d" x="144.94" y="41.22"/><use xlink:href="#d" x="143.14" y="82.66"/><use xlink:href="#d" x="145.16" y="123.43"/><use xlink:href="#d" x="144.71" y="164.2"/><use xlink:href="#d" x="144.94" y="205.19"/><g fill="#ffc6b5" stroke="#000" stroke-width=".94"><path fill="#ffc72c" d="M915.84 406.31s5.7 13.15 12.2 5.07c6.5-8.07 4.12-11.56 4.12-11.56l-14.57-7.92-4.28 9.03 2.53 5.39z"/><path d="M928.36 404.57s.95.16 1.74-1.26-1.74-2.06-2.85-3.65l-1.27 2.54 2.38 2.37zm-32.95-3.48-12.83 6.97s-6.34 1.26-6.81 0c-.48-1.27.16-2.38 3.48-2.54 3.33-.16 12.36-8.4 12.36-8.4l3.8 3.97zm.16-227.94.47 4.6c.16 1.58-2.53 4.9-2.69 4.74s-1.43.16-1.27 1.11c.16.95 2.06 1.27 2.06 1.27s-.79 3.33 0 3.49c.8.15-2.06 4.27 0 5.38 2.06 1.11 5.55 2.54 7.13 2.22 1.58-.32 0 6.18 0 6.18l-4.44 9.5 24.4-2.53-5.07-8.08s-2.38-1.59-1.74-6.18c.63-4.6-.32-25.34-.32-25.34l-17.42-2.38-1.11 6.02zm-4.44 36.11s-7.92 3.65-7.6 13.47c-2.06 9.5-3.17 19-3.17 19s-9.35 10.62-12.2 14.42c-2.85 3.8-7.12 11.56-8.7 13.62-1.6 2.06-7.77 8.87-7.61 11.4.16 2.54-1.43 13.79 4.75 15.06 1.58.63 6.65-13 6.65-13s.32-5.85-1.42-6.96c-1.74-1.11 3.8-4.91 3.8-4.91s10.61-7.77 12.99-9.67c2.37-1.9 8.87-9.18 8.87-9.18l3.64-43.25z"/><path fill="#fff" d="M900.16 201.82s2.06 5.54 6.65 4.6c4.6-.96 9.98-5.23 9.98-5.23s4.28-.16 4.91.47c.64.63 11.57 11.25 11.25 14.57-.32 3.33-5.07 2.38-6.81 4.6-1.74 2.22-4.6 7.76-3.8 11.88.79 4.12 3.16 9.5 2.85 11.56-.32 2.06-2.06 2.7-2.06 3.8s1.42 3.01 1.42 5.07c0 2.06-1.9 5.07-1.58 7.13.32 2.06.48 8.08.48 8.08l-.48 27.88s1.58.95 1.74 2.53c.16 1.58 10.77 47.68 10.77 47.68s-.47 1.42-1.58 1.27c-1.1-.16 4.28 7.12 4.44 9.18.15 2.06 5.54 18.22 5.38 20.44-.16 2.21-.95 7.13-1.42 7.28-.48.16 3.48 10.14 2.85 11.73-.64 1.58-7.13 1.42-7.13 1.42l-1.74-.32s.16 2.06-1.11 2.22-10.61-.47-10.61-.47-2.7 4.11-4.28 3.96c-1.59-.16-3.64-3.01-4.12-2.54-.48.48 1.43 3.17.95 3.96-.47.8-8.55 2.54-10.14-1.27-1.58-3.8.95-2.85.48-3.64-.48-.79-4.12-2.85-5.23-2.22-1.1.64 2.85 1.59 2.7 3.17-.16 1.59-3.5 3.96-4.76 3.96s-4.28-5.86-8.71-5.23c-4.44.64-7.29 1.75-7.29 1.75s-5.22 2.21-7.44 1.74c-2.22-.47-3.17-2.22-3.17-3.17 0-.95 1.58-5.07 1.43-6.33s-1.43-2.54-1.43-4.44c0-1.9 3.64-8.4 3.64-8.4l-.15-29.14s-3.33 0-3.49-2.06 5.07-46.1 5.86-48.95c.8-2.85 2.85-12.98 2.85-12.98s-2.37 1.1-2.53 0c-.16-1.11 7.13-26.3 7.13-26.3s1.26-12.51 1.26-15.84c0-3.32-.63-7.92-.63-7.92s-6.5-2.75-6.65-6.97c-.6-6.7 6.17-10.45 6.97-12.67l3.16-8.87s3.49-6.02 9.2-6.97z"/><path fill="#ffc72c" d="M897.78 402.99s-15.36 8.08-17.58 8.71c-2.22.63-3.64-2.7-1.42-3.33 2.21-.63 5.7-.95 5.7-.95s-5.23-4.12-5.07-4.27c.16-.16 7.13-2.7 7.29-2.7s2.21 4.12 3.64 3.8c1.43-.31 5.54-3.48 5.54-3.48s2.22 2.53 1.9 2.22z"/><path d="M919.43 407.42c1.46 1.88 2.02 5.13 5.35 3.22 3.33-1.9-1.7-5.42-1.7-5.42l-3.65 2.2z"/><path d="M925.5 407.1s1.59 1.27 3.01-.15-2.85-4.44-2.85-4.44l-2.06 2.38 1.9 2.22zm6.82-190.14c.15 0 5.22 15.68 5.86 19.64.63 3.96 2.7 19.8 1.9 22.02-.8 2.22-8.87 12.83-9.82 15.52-.95 2.7-6.65 13-6.65 13s-1.43 10.13-2.06 10.6c-.64.48 1.63 2.97 1.42 3.8-.31.95-4.6 5.4-6.5 4.92-1.9-.48-4.9-2.7-5.06-4.76s.16-8.87 1.58-10.6c1.43-1.75 8.87-19.33 9.35-20.44.47-1.11 6.8-14.9 6.97-17.27.16-2.37-1.97-7.87-4.21-9.88-4.99-14.68-3.03-23.53 7.22-26.55z"/><path fill="#9c5100" d="M895.1 172.2s3.48.47 5.38-.63c1.9-1.11 4.12-1.59 5.7.63s2.7 2.06 2.7 2.06-2.38 5.86 0 6.5c2.37.63 3.48.63 3.64 1.42.15.79-2.06 2.53-1.43 3.33.63.79 1.74 1.74 1.9 2.37.16.63-1.42 3.33-.95 3.96.48.63 1.9 3.17 2.85 3.17.95 0 .32 3.96 3.17 3s2.7-3.48 2.7-3.48 3-.47 3.8-3.16c.79-2.7 2.69-3.33 2.69-3.33s3.8-2.06-1.27-5.23c0-22.17-14.57-19.8-14.57-19.8s-1.75-3.96-4.6-3.48-3 3.8-5.07 3.48c-2.05-.31-2.53-1.74-2.69-1.58-.16.16-1.9 3.32-1.9 4.12 0 .79-5.54-1.11-5.07 3 .48 4.12 3.17 3.97 3.01 3.65z"/><g fill="none"><path d="M920.75 208s-14.1 9.03-13.78 12.2m16.95-10.62s-3.17 3.49-3.32 3.49m7.6.31s-6.97 5.7-5.86 9.35m-27.09-15.52s-2.06 4.27-1.58 5.7c.47 1.42 3.96 6.8 4.43 10.14.48 3.32 0 5.7 0 5.7m-6.5-13.62s.64 5.06 1.6 6.02c.94.95 3.48 5.22 3.8 6.96m-6.66 8.08s4.12 2.06 7.92-5.86m6.18-5.54c-.16 0-3.01 7.76 2.06 10.61 5.07 2.85 8.87 2.54 11.08 1.74 2.22-.79 4.6-2.21 4.6-2.21m-19.96-.64s.32 10.46 15.68 20.75m-15.05-10.93s-.15 9.19 5.86 13.3m-9.02-24.07s-4.6 13.62-8.24 15.05m6.81-5.07s-.16 9.82-1.43 13.3m-1.26 2.38s3.17 3.96 6.65 3.65c3.49-.32 4.91-4.44 7.29-3.8 2.37.63 4.6 2.53 10.13 2.05m-7.92 4.12s0 8.08 1.43 8.87.8 8.24.8 8.24m-21.55-20.91s-.16 7.6-1.1 10.3c-.96 2.69-2.86 7.28-2.54 11.24m-6.02 4.44c.79-.32 3.48-2.7 3.48-2.7m1.43 1.75s-6.81 29.14-4.91 46.57m6.5-45.15s-3.5 21.86-1.9 25.98m.15-26.61c.16 0 13.3.95 13.3.95m1.9-1.74s3.65 1.9 8.72 1.58m-10.3 9.03s-.63 37.38-1.58 45.62m21.07-37.07s4.11 32.8 6.49 35.8m-14.41-31.68s2.53 28.99 3.96 31.52m-39.92 10.14s4.9-1.58 9.34-6.33c5.07 6.8 12.83.31 12.83.31s12.04 8.24 17.43-.95c8.24 5.39 12.35-.8 12.35-.8s3.01 4.6 5.23 4.13m-13.15 3.17s6.18 28.98 15.37 37.22m-47.2-40.23s.79 24.23 2.21 41.34m-3.32-13.94s-.8 15.84-1.75 16.95m-7.6 1.58s1.74 6.81 10.45.48 8.87 2.37 9.2 3.32c.3.95 1.73 7.77 5.06 2.06m6.97-9.34s-1.42 14.1 11.09 3.8 14.57-.16 14.89 3M910.3 166.82s-1.11 6.97 6.34 6.34c-.95 3.8 1.9 5.07 1.9 5.07m5.54 4.28c.16 0 3.33 2.06-.16 4.59m-10.61.95s1.58 1.9 3.33 1.43c1.74-.48 4.59 1.74 4.59 1.74s2.38.79 2.7.31m-20.28 2.54s5.38 2.06 8.87-6.5m-18.85-2.53 3.17.16m-38.32 99.73.25 6.95m-6.76-7.46s4.45 7.44 4.08 11.4"/><path stroke-linejoin="round" d="M894.14 188.2H897l-2.53 1.1m17.2 110.66s3.33-.35 3.23 5.2c2.12-6.9 6.44-7.06 6.44-7.06"/><path stroke-width="1.7" stroke-linejoin="round" d="M898.1 179.33c.48 0 2.22-.64 2.54-.16.31.47-1.9.8-2.54.16z"/></g></g><g fill="none" stroke="#000" stroke-width="1.89"><path fill="#ffc72c" d="M900.3 458.58c66.9-1.86 110.1-50.17 109.64-50.64-.47-.46 8.82-13.47 16.26-11.61 7.43 1.86 18.12 23.69 31.12 28.34 6.5 10.22-1.86 19.5-4.64 21.37-2.79 1.85-15.33 6.97-17.2-.47-1.85-7.43-5.57-6.04-5.57-6.04s-59.46 58.07-128.22 55.75c-71.08.46-129.61-55.75-129.61-55.75l-5.11 5.58s-5.58 6.04-8.36 5.57c-2.79-.46-14.87-8.36-15.8-16.26-.93-7.9 7.44-13 7.44-13s20.44-15.8 22.76-24.16c4.64-4.65 13.47 3.25 13.47 3.25s53.9 61.79 113.82 58.07z"/><path d="M748.86 422.65s5.52-1.48 7.55.83c2.03 2.3 15.94 15.93 15.94 15.93"/><path d="m761.48 429.1-5.53 4.14s13.91 2.76 10.78 11.89m285.61-22.94s-2.76-1.48-7.1 1.75c-4.32 3.22-15.29 15.47-15.29 15.47"/><path d="m1039.9 428.73 5.99 4.6s-12.53.83-9.77 12.72"/></g><path d="M819.66 437.4c-.36 1.05-1.32-.03-2.11.18-2.1.08-3.84 1.44-5.63 2.38l-18.4 10.73c-.63-.2-.48-.7-.33-1.2 1.64-7.67 3.33-15.32 4.92-23 .27-1.34.7-3-.6-3.98-.55-.38.3-1.14.65-.45l9.41 6.71c-.3.89-.83.27-1.37-.1-1.3-1.24-2.87-.09-2.83 1.5-1.12 5.05-2.21 10.1-3.32 15.16 4.16-2.47 8.38-4.87 12.5-7.41 1.48-.66 2.56-2.63 1.03-3.85-.58-.35-1.54-1.28-.58-1.43l6.66 4.76zm6.62 31.98c-.17.57-.47.7-.93.29l-11.07-6.06c.17-.57.47-.7.92-.28 1 .68 2.63.93 3.36-.26 1.47-2.35 2.7-4.84 4.06-7.25 1.85-3.42 3.77-6.8 5.56-10.25.86-1.22-.1-2.73-1.3-3.25-.4-.22-1-.38-.49-.86.25-.3.78.34 1.13.42l10.62 5.8c-.17.58-.47.7-.92.29-1-.68-2.64-.94-3.38.25-1.47 2.35-2.7 4.84-4.06 7.25-1.85 3.42-3.77 6.8-5.56 10.25-.85 1.23.1 2.74 1.31 3.26l.74.4zm42.6-10-3 8.45c-1.23-.13-.42-1.7-.8-2.54-.44-3.8-3.24-7.35-7.06-8.16-2.92-.8-6 .7-7.71 3.08a22.87 22.87 0 0 0-4.4 12.24 6.95 6.95 0 0 0 3.18 6.35 10.14 10.14 0 0 0 5.86 1.54c.72-2.13 1.59-4.21 2.19-6.38.25-1.41-1.21-2.26-2.38-2.58-.18-.41.27-.91.75-.47l11.04 3.93c-.14 1.36-1.67-.11-2.52.43-1.36.52-1.48 2.16-2 3.34l-1.34 3.77c-4.94.35-10.04-.7-14.34-3.18-4.19-2.64-7.02-7.73-6.2-12.72.64-4.28 3.3-8.28 7.25-10.17 3.62-1.92 8.03-1.91 11.8-.39 2.05.7 3.82 1.96 5.41 3.41.97 1.3 2.83 1.3 3.62-.17l.65.23m17.96 28.81c-.03.45-.08.86-.61.61l-12.64-1.91c.02-.45.07-.86.6-.61 1.1.22 2.57.2 3.1-.98.54-1.69.64-3.48.95-5.21.72-4.86 1.5-9.71 2.19-14.57.27-1.05-.1-2.23-1.18-2.64-.61-.3-1.3-.34-1.96-.45.03-.45.08-.86.61-.6l12.64 1.9c-.02.46-.07.87-.61.62-1.1-.23-2.56-.2-3.11.97-.54 1.69-.64 3.48-.95 5.22-.72 4.85-1.5 9.7-2.19 14.56-.26 1.05.1 2.26 1.19 2.65.62.28 1.3.33 1.97.44zm34.11-8.29-.5 8.97-22.54 1.15c-.14-.55 0-.84.6-.73 1.14.03 2.6-.45 2.74-1.75.1-2.23-.15-4.46-.22-6.68-.25-4.44-.42-8.89-.71-13.33.12-1.32-1.07-2.3-2.32-2.26-.4-.2-1.48.42-1.37-.3-.18-.6.64-.28.98-.4l12.54-.64c.14.55 0 .84-.6.73-1.16 0-2.67.28-2.99 1.58-.18 1.93.09 3.87.14 5.8.25 4.62.43 9.25.74 13.88-.1 1.2.87 2.28 2.13 2.04 1.83-.09 3.7-.01 5.48-.47 2.51-.67 3.88-3.15 4.56-5.47.45-.63.08-2.2 1.07-2.1l.27-.02m17.58-21.7c-.6.02-.33.78-.49 1.18-1 7.48-1.94 14.96-2.97 22.43-.25 1.66-.67 3.6-2.3 4.43-.6.21-.07 1.16.48.63l7.53-2.25c-.1-1.27-1.54-.12-2.35-.34-1.73 0-1.98-2.1-1.74-3.41l.31-2.66 8.62-2.6c1.1 1.4 2.32 2.7 3.31 4.16.75 1.4-1.07 2.05-2.12 2.33-.5.05-.06 1.08.39.6l11.33-3.4c-.03-1.28-1.68-.08-2.37-.93-2.12-1.6-3.64-3.82-5.4-5.78l-12.23-14.38zm-.06 8.98 6.12 7.31-7.34 2.19 1.22-9.5zm38.63-25.81 3.26 6.06c-1.02.87-1.54-1.15-2.46-1.46a4.7 4.7 0 0 0-5.46-.43l-2.05 1.1c3.28 6.06 6.51 12.16 9.82 18.2.51 1.56 2.42 1.85 3.65.98.47-.35.9-.54 1.06.18-1.67.97-3.49 1.89-5.2 2.83l-6.52 3.5c-.5-.53-.17-.8.41-1a2.41 2.41 0 0 0 1.1-3.77c-3.2-6.02-6.46-12.02-9.68-18.04-1.8 1-4.1 1.9-4.55 4.13-.5 1.41.24 3.14.24 4.34-.55.57-.7-.21-.95-.63l-2.79-5.18 20.12-10.81zm15.25-9.04 6.23 8.26c1.45-.92 2.66-2.56 2.22-4.35.17-1.4-1.83-3-1.15-3.97.46-.28.72.76 1.1 1.04l7.12 9.44c-.93 1.05-1.6-1.1-2.59-1.33-1.38-.99-3.33-1.48-4.82-.4-1.1.35-1.05.98-.3 1.66 1.67 2.16 3.22 4.41 5 6.48 1.1 1.05 2.45-.05 3.38-.79 2.38-1.62 4.48-4.16 4.36-7.2.15-1.34-.68-2.82-.67-3.94.53-.72.68.39.99.75l3.37 6.08-17.55 13.23c-.76-.54-.01-.85.47-1.23 1.64-1 1.12-3.07-.09-4.2-3.75-4.94-7.43-9.93-11.22-14.83-.98-1.32-2.77-.63-3.75.3-.4.57-1.04-.59-.27-.67l16.54-12.48 4.53 6c-1.05 1.07-1.98-1.3-3.18-1.43-2.17-1.13-4.75-.22-6.55 1.21-1.07.77-2.11 1.58-3.17 2.37"/></svg>