<svg xmlns="http://www.w3.org/2000/svg" viewBox="1488.19 992.13 1275 850"><path fill="#FFF" d="M1488.19 992.13h1275v850h-1275z"/><path fill="#369443" stroke="#010002" stroke-width="3" stroke-miterlimit="10" d="M1885.93 1567.62s-1.03-6.99 12.25-12.11c13.27-5.13 14.3-24.23 11.65-36.97 0 0-6.93 12.11-15.34 16.15 0 0-13.72 7.15-14.35 20.8 0 0-.1 4.99-1.14 8.87-.56 2.13-6.63-17.09 4.87-31.38 11.87-14.74 15.2-26.71 5.75-50.01 0 0-.88 14.13-10.18 22.2-9.29 8.09-10.47 8.7-10.32 27.97 0 0 .15 6.68-3.4 8.85 0 0-7.22-10.56-9.14-17.55-1.91-6.99-2.8-9.94 5.46-18.02 0 0 26.46-17.1 7.38-54.52 0 0-.6 12.9-9.74 20.5-9.14 7.61-8.4 12.74-8.85 25.94-.44 13.2-1.33 12.28-2.36 14.14 0 0-16.81-30.91-3.83-47.38s20.2-19.88 5.9-50.48c0 0 .63 15.69-10.82 23.46-11.46 7.76-8.8 25.94-8.8 25.94s.74 6.83-1.62 11.8c0 0-16.2-31.6-.74-48.62 13.13-14.44 14.01-24.54 6.93-45.05 0 0-.88 9.48-8.11 14.6-7.23 5.13-12.98 10.26-11.65 29.98 0 0 .59 13.83-1.18 17.71 0 0-6.79-12.58-8.7-20.81-1.92-8.24-2.66-13.05 2.36-21.28 5.01-8.24 24.92-31.85 1.18-65.86 0 0-.74 11.02-6.79 20.97-6.05 9.94-3.24 21.74-1.92 30.75s-3.1 17.7-3.1 17.7-10.32-18.94-8.1-40.69c2.2-21.74-6.64-39.6-26.7-52.5 0 0-14.6 33.86 5.3 51.1 0 0 16.97 16.78 21.25 37.13 0 0-12.83-1.24-24.49-23.92-11.65-22.68-35.84-19.1-37.46-19.26 0 0 3.98 35.1 41.15 45.04 0 0 23.75 4.04 28.17 21.44 0 0 3.98 11.96 5.6 18.33 0 0-7.51-2.95-14.45-13.2-6.93-10.26-6.04-11.5-29.5-13.83 0 0-9.44-1.09-14.45-7.77 0 0 9.88 37.13 35.25 36.82 0 0 23.16-2.49 36.14 27.96 0 0-2.51-1.55-5.9-3.89-3.4-2.33-11.95-6.67-28.91-4.66s-21.69-.77-25.96-2.17c0 0 17.1 31.38 41.3 22.06 24.19-9.32 35.87 24.66 36.13 25.32 0 0-3.24-2.5-7.52-6.68-4.28-4.2-13.16-9.37-29.94-4.04 0 0-12.1 4.66-24.34.93 0 0 11.8 22.83 39.38 18.95 27.58-3.88 34.52 20.35 34.52 20.35s-3.7-2.18-6.2-4.2c-2.5-2.01-11.8-7.3-31.71-1.4s-27.14-.93-27.14-.93 11.06 20.2 32.3 22.53c0 0 11.8-.16 16.82-2.02 5.01-1.87 18.29-4.82 27.43 8.39 0 0-2.5.46-6.34-1.25 0 0-14.16-5.12-24.93 3.89 0 0-9.59 9.78-23.16 7.92 0 0 17.56 17.09 45.43 2.64 0 0 9.44-6.84 16.37-1.55 6.94 5.28 23.02-5.13 23.02-5.13z"/><path fill="#F4C53D" stroke="#010002" stroke-width="3" stroke-miterlimit="10" d="M2041.1 1146.67s-3.24-28.9 19.86-31.69c24.1-2.9 36 2.18 36 2.18l10.8 21.22-3.73 14.3-14.95 6.83s2.56-21.95-17.56-22.41c-5.1-.12-8.1 1.9-16.16.63-8.12-1.3-12.45 7.62-14.26 8.94z"/><path fill="#F4C53D" stroke="#010002" stroke-width="3" stroke-miterlimit="10" d="M2203.64 1218.23c-3.44 4.45-17.2 6-17.2 6s14.15 10.88 20.25 26.4c6.1 15.54-164.12.11-164.12.11s7.38-5.28 12.4-15.22c0 0-7.53 2.8-15.05-4.66 0 0 5.6 1.86 12.98-9.32 0 0 10.91-13.98 18.58-17.7 0 0-3.54 2.17-12.1-2.5 0 0 14.76-1.86 20.07-27.02 0 0 .88-5.6 6.49-13.67 5.6-8.08 4.42 1.55 14.75-10.87 0 0 4.72-8.8.59-14.2s-8.56-3.4-17.21-8.59c-8.65-5.17-12.49-8.07-9.54-16.05 2.95-7.97 10.62-6.73 11.7-6.73s1.67-6.94 11.11-11.7 34.52-2.7 38.25-.62c3.74 2.07 18.88 6.52 27.73 28.89 8.85 22.37-2.36 30.76 21.73 64.52 0 0-9.63 2.07-15.83.2 0 0 12.5 22.16 34.42 32.73z"/><path fill="none" stroke="#010002" stroke-width="3" stroke-miterlimit="10" d="M2098.33 1123.84c-19.62-.94-12.1-19.63-12.1-19.63"/><path fill="#F4C53D" stroke="#010002" stroke-width="3" stroke-miterlimit="10" d="M2132.4 1126.4s-3.47-1.63-6.4-5.52c-4.11-5.45-13.3-8.07-18.23-2.95 0 0-5.02 5.6-9.44 5.9 0 0 5.01 1.56 8.48 4.74 3.46 3.19 7.08 5.52 12.24 4.82 5.16-.7 5.97-3.42 8.4-5.05 2.44-1.63 4.95-1.94 4.95-1.94z"/><path fill="#F4C53D" stroke="#010002" stroke-width="3" d="M2259.98 1405.77s18.3 14.9 33.63 0c0 0 6.2 7.45 18.58 5.28 12.4-2.18 14.46-8.7 15.64-12.43 0 0 10.72 6.25 19.76 1.31 9.05-4.94 9.05-12.4 9.05-12.4s15.73 3.11 23.8-7.55c8.06-10.67 3.14-21.23-1.18-22.47 0 0 17 4.45 21.63-10.15 3.93-12.43-4.92-18.85-4.92-18.85s35.84-.17 50.54-11.39c0 0 12.2-7.66 4.92-15.74 0 0 32.25-5.18 40.32-18.02 0 0 3.54-3.52 2.36-9.73 0 0-.2-3.52-3.74-3.73 0 0 36.78-5.68 47.4-17.81 0 0 5.1-5.6 2.55-13.05 0 0-.54-1.97-1.43-3.29 0 0 33.49-7.06 50-21.98 0 0 9.54-8.5 4.63-19.88 0 0 55.95-15.33 42.97-39.97 0 0 26.15-8.5 17.9-32.1 0 0 21.63-10.98 12.19-28.38-9.04-16.65-36.78 2.9-69.63 11.99 0 0-88.88 27.99-132.65 35.43l-124.38 185.17-72.56 27.96-7.38 51.78z"/><path fill="#F4C53D" stroke="#010002" stroke-width="3" d="M2259.1 1269.38s11.65-8.75 32.45 1.55c0 0 7 4.83 12.5-.46a11.2 11.2 0 0 0-1.3-17.24c-15.48-11.5-21.23-45.98 2.37-60.27 0 0 34.22-20.3 159.7-52.23 0 0 10.5-2.92 16.11-1.52 6.17 1.54 10.42 6.84 11.3 11.37 0 0 5.61 15.95-13.27 25.08 0 0-8.52 3.9-17.3 6.42 0 0 9.65-2.08 13.76 7.46 3.94 9.11-1.77 18.43-19.47 24.44 0 0-4.78 1.86-11.6 3.52 0 0 15.14 4.35 7.87 16.57 0 0-6.5 12.84-29.4 15.12 0 0 17.1 1.86 5.01 18.12 0 0-5.3 8.9-22.02 12.22 0 0 12.68.41 6.29 11.8-6.4 11.4-21.43 17.82-36.23 18.85 0 0-8.02.42-13.62-.83 0 0 14.06 7.05 5.8 18.85 0 0-6.1 8.39-21.34 7.97 0 0 3.96 13.19-7.23 18.18-8.7 3.88-15.93-2.33-15.93-2.33s2.95 14.13-9.73 19.1c0 0-6.34 3.27-15.78 0 0 0-7.23 16.16-32.9 4.82-25.66-11.34-6.04-106.56-6.04-106.56z"/><path fill="none" stroke="#010002" stroke-width="3" d="M2654.38 1121.82s-40.31 23.34-165.87 46.68"/><path fill="#F4C53D" stroke="#010002" stroke-width="3" d="M1934.38 1534.59s-14.94 25.68-33.04 26.1c0 0-31.12-3.8-39.92 4.34-6.13 5.68-12.39 10.36-14.94 24.86s4.91 17.6 6.68 18.22c0 0 1.38 10.36 11.6 7.67 0 0 .6 10.77 18.69 5.59s25.57-3.52 29.1-21.54c3.55-18.02 6.81-17.72 10.04-19.88 4.32-2.9 12.45-5.64 18.48-9.12 5.42-3.12 26.16-13.67 33.24-14.5 7.08-.82 5.5-24.64 5.5-24.64h-18.29l-8.85-13.05-18.29 15.95z"/><path fill="none" stroke="#010002" stroke-width="3" d="M2636.49 1153.92s-109.12 35.6-159.93 39.97m116.96 0s-64.02 20.09-138.98 32.77m84.35 9.1s-72.32 17.36-106.84 20.25"/><path fill="none" stroke="#010002" stroke-width="3" stroke-miterlimit="10" d="M2490.37 1269.9s-61.17 12.76-76.67 14.3"/><path fill="#0081C6" stroke="#010002" stroke-width="3" stroke-miterlimit="10" d="m2421.51 1362.94 3.06 97.07-17.14-9.95-28.53 123.18-11.77-8.46 27.77-118-19.36.35z"/><path fill="none" stroke="#010002" stroke-width="3" stroke-miterlimit="10" d="M2451.43 1301.38s-44.64 6.78-62.4 6.42m6.94 20.71s-18.05-.84-26.72-2.28m10 31.28s-15.34-4.14-24.38-9.94m1.77 39.97s-11.8-4.56-17.5-16.98m-11.31 28.06s-9.15-8.18-9.74-17.3"/><path fill="#0081C6" stroke="#010002" stroke-width="3" stroke-miterlimit="10" d="m2532.37 1406.1-40.56 87.22-10.7-17.25-85.65 101.2-9.27-10.39 85.32-99.91-17.26-9.26z"/><path fill="none" stroke="#010002" stroke-width="3" stroke-miterlimit="10" d="M2293.61 1405.77s3.42-2.96 1.08-15.8"/><path fill="#0081C6" stroke="#010002" stroke-width="3" stroke-miterlimit="10" d="m2495.37 1342.08-20.9 94.6-14.1-14.28-76.66 147.38-11.81-6.89 77.17-147.09-18.8-4.93z"/><path fill="none" stroke="#010002" stroke-width="3" stroke-miterlimit="10" d="M2298.03 1371.13s1.77-3.68 1.18-9.48"/><path fill="#F4C53D" stroke="#010002" stroke-width="3" d="M1991.99 1405.77s-18.3 14.9-33.63 0c0 0-6.2 7.45-18.59 5.28s-14.45-8.7-15.63-12.43c0 0-10.72 6.25-19.77 1.31-9.04-4.93-9.04-12.4-9.04-12.4s-15.74 3.11-23.8-7.55c-8.06-10.67-3.15-21.23 1.18-22.47 0 0-17 4.45-21.63-10.15-3.93-12.43 4.92-18.85 4.92-18.85s-35.85-.17-50.55-11.39c0 0-12.19-7.66-4.91-15.74 0 0-32.25-5.18-40.32-18.02 0 0-3.54-3.52-2.36-9.73 0 0 .2-3.52 3.74-3.73 0 0-36.78-5.68-47.4-17.81 0 0-5.11-5.6-2.55-13.05 0 0 .54-1.97 1.42-3.29 0 0-33.48-7.06-50-21.98 0 0-9.53-8.5-4.62-19.88 0 0-55.95-15.33-42.97-39.97 0 0-26.16-8.5-17.9-32.1 0 0-21.63-10.98-12.19-28.38 9.03-16.65 36.78 2.9 69.62 11.99 0 0 88.89 27.99 132.66 35.43l124.37 185.17 72.57 27.96 7.38 51.78z"/><path fill="none" stroke="#010002" stroke-width="3" stroke-miterlimit="10" d="M2362.54 1187.26s-20.65 8.29-27.53 19.68c-6.89 11.39-2.35 22.46 0 28.81 1.18 3.2 15.73 31.25-1.38 51.55"/><path fill="#F4C53D" stroke="#010002" stroke-width="3" d="M1992.87 1269.38s-11.66-8.75-32.45 1.56c0 0-7 4.82-12.5-.46a11.2 11.2 0 0 1 1.3-17.25c15.48-11.5 21.23-45.98-2.37-60.27 0 0-34.22-20.3-159.7-52.23 0 0-10.5-2.92-16.11-1.52-6.17 1.54-10.42 6.84-11.3 11.37 0 0-5.61 15.96 13.27 25.09 0 0 8.52 3.9 17.3 6.42 0 0-9.65-2.09-13.76 7.45-3.94 9.11 1.77 18.43 19.47 24.44 0 0 4.78 1.86 11.6 3.52 0 0-15.14 4.35-7.87 16.57 0 0 6.5 12.84 29.4 15.12 0 0-17.1 1.86-5.01 18.12 0 0 5.3 8.9 22.02 12.22 0 0-12.68.42-6.29 11.8 6.4 11.4 21.43 17.82 36.23 18.85 0 0 8.02.42 13.63-.82 0 0-14.07 7.04-5.8 18.84 0 0 6.09 8.4 21.33 7.98 0 0-3.95 13.18 7.23 18.17 8.7 3.88 15.93-2.33 15.93-2.33s-2.95 14.14 9.73 19.1c0 0 6.35 3.27 15.79 0 0 0 7.22 16.16 32.89 4.82 25.66-11.34 6.04-106.56 6.04-106.56z"/><path fill="none" stroke="#010002" stroke-width="3" stroke-miterlimit="10" d="M2362.24 1309.36s-.1-.1-7.37-2.39m50.94-27.44s-12.31 2.48-24.4 2.59m41.4-32.93s-14.45 1.45-28.02 1.24m49.56-32.93s-20.85 4.14-32.06 4.35m49.37-39.77s-25.71 7.34-44.84 9.95m-42.48 15.11s18.48 17.2-3.74 33.14c0 0 9.24 14.5-9.24 29.62"/><path fill="#F4C53D" stroke="#010002" stroke-width="3" d="M1994.4 1416.2s-3.77 20.22-33.63 45.67c0 0-23.04 20.32-22.45 43.72.6 23.84-4.13 26.51-13.18 34.6 0 0 18.68 1.44 27.73-10.99 0 0-.4 20.71-3.15 22.58 0 0 5.86.37 14.36-8.9 0 0 5.11-5.4 9.83-7.46 0 0-5.5 14.29-1.18 27.54 0 0 1.38-5.17 8.66-7.45 0 0 13.17-2.7 18.29-21.75 0 0 3.34-12.63 23.99-23.82 0 0 23.4-8.82 22.81-20.36s-52.09-73.38-52.09-73.38z"/><path fill="none" stroke="#010002" stroke-width="3" stroke-miterlimit="10" d="M2366.28 1277.05s2.75 27.64-31.08 27.64c0 0 6.5 24.65-26.15 23.82 0 0-3.74 19.68-27.34 15.74"/><path fill="#F4C53D" stroke="#010002" stroke-width="3" d="M2317.62 1534.59s14.94 25.68 33.04 26.1c0 0 31.12-3.8 39.92 4.34 6.14 5.68 12.39 10.36 14.95 24.86 2.55 14.5-4.92 17.6-6.7 18.22 0 0-1.37 10.36-11.6 7.67 0 0-.58 10.77-18.68 5.59s-25.56-3.52-29.1-21.54c-3.54-18.02-6.81-17.72-10.03-19.88-4.33-2.9-12.46-5.64-18.49-9.12-5.42-3.12-26.16-13.67-33.23-14.5-7.09-.82-5.51-24.64-5.51-24.64h18.29l8.85-13.05 18.29 15.95z"/><path fill="#F4C53D" stroke="#010002" stroke-width="3" d="M2257.6 1416.2s3.77 20.22 33.64 45.67c0 0 23.04 20.32 22.45 43.72-.6 23.84 4.12 26.51 13.17 34.6 0 0-18.68 1.44-27.73-10.99 0 0 .4 20.71 3.15 22.58 0 0-5.86.37-14.36-8.9 0 0-5.11-5.4-9.83-7.46 0 0 5.5 14.29 1.18 27.54 0 0-1.38-5.17-8.65-7.45 0 0-13.18-2.7-18.3-21.75 0 0-3.34-12.63-23.99-23.82 0 0-23.4-8.82-22.8-20.36.58-11.53 52.08-73.38 52.08-73.38z"/><path fill="none" stroke="#010002" stroke-width="3" d="M2333.7 1560.68s5.35 1.2 16.96 0"/><path fill="none" stroke="#010002" stroke-width="3" stroke-miterlimit="10" d="M2383.3 1575.18s16.33-2.48 15.54 32.93m-25.37-24.85s14.75-1.86 13.77 32.52"/><path fill="none" stroke="#010002" stroke-width="3" d="M2231.09 1500.42s7.08 1.45 12 7.04c4.91 5.59 14.35 4.55 14.35 4.55s-5.11-4.14-6.88-14.5-7.47-13.46-7.47-13.46m16.88-9.8s7.08 1.45 12 7.04 14.36 4.55 14.36 4.55-5.12-4.14-6.89-14.5-7.47-13.46-7.47-13.46m-7.13 56.57s6.18 1.26 10.48 6.15c4.29 4.88 12.53 3.97 12.53 3.97s-4.46-3.61-6-12.65c-1.55-9.05-6.53-11.76-6.53-11.76"/><path fill="#F4C53D" stroke="#010002" stroke-width="3" stroke-miterlimit="10" d="M2149.14 1676.88s5.36 23.65 23.99 21.74c0 0 13.17-1.24 12.2-23.2 0 0 19.46 10.36 22.6-15.32 0 0 17.7 4.14 17.51-19.88 0 0 16.52 2.9 14.55-18.44 0 0 17.9 4.77 17.9-15.32 0 0 41.89-6.95-45.43-86.58l-77.87 46.4 14.55 110.6z"/><path fill="#F4C53D" stroke="#010002" stroke-width="3" d="M2140.48 1570.7s12.98 11.53 22.23-5.67c0 0 12.58-.62 14.55-10.14 0 0 10.23-1.04 12.2-10.77 0 0 13.95-1.45 13.56-13.26 0 0 25.39-1.96 0-30.7-25.37-28.74-68.44 47.68-68.44 47.68l5.9 22.87z"/><path fill="none" stroke="#010002" stroke-width="3" stroke-miterlimit="10" d="M2185.32 1675.42s-1.97-41.63-38.05-101.27m60.67 85.95s5.6-24.03-45.23-95.06c0 0 5.9-16.99-12.2-27.86m74.93 103.04s1.57-26-48.18-85.33c0 0 4.4-15.33-13.64-27.55m76.37 94.44s-1.86-26.3-50.54-77.66c0 0 2.44-15.74-15-25.48m83.44 87.82s-3.54-30.03-54.87-75.6c0 0 1.77-11.8-15.34-23.82"/><path fill="#F4C53D" stroke="#010002" stroke-width="3" stroke-miterlimit="10" d="M2102.86 1676.88s-5.36 23.65-23.99 21.74c0 0-13.17-1.24-12.19-23.2 0 0-19.47 10.36-22.62-15.32 0 0-17.7 4.14-17.5-19.88 0 0-16.52 2.9-14.55-18.44 0 0-17.9 4.77-17.9-15.32 0 0-41.89-6.95 45.43-86.58l77.88 46.4-14.56 110.6z"/><path fill="#F4C53D" stroke="#010002" stroke-width="3" d="M2111.52 1570.7s-12.98 11.53-22.22-5.66c0 0-12.59-.63-14.56-10.15 0 0-10.22-1.04-12.19-10.77 0 0-13.96-1.45-13.57-13.26 0 0-25.38-1.96 0-30.7 25.37-28.74 68.44 47.68 68.44 47.68l-5.9 22.87z"/><path fill="none" stroke="#010002" stroke-width="3" stroke-miterlimit="10" d="M2066.68 1675.42s1.97-41.63 38.05-101.27m-60.67 85.95s-5.6-24.03 45.24-95.06c0 0-5.9-16.99 12.19-27.86"/><path fill="#F4C53D" stroke="#010002" stroke-width="3" d="M2126 1563.59c12.58 0 26.84 78.6 23.14 125.95-1.34 17.2-10.56 31.24-23.14 31.24s-21.8-14.04-23.14-31.24c-3.7-47.36 10.56-125.95 23.14-125.95"/><path fill="none" stroke="#010002" stroke-width="3" stroke-miterlimit="10" d="M2026.56 1640.22s-1.57-26 48.18-85.33c0 0-4.4-15.33 13.64-27.55m-76.37 94.44s1.87-26.3 50.54-77.66c0 0-2.44-15.74 15-25.48"/><ellipse fill="#F4C53D" stroke="#010002" stroke-width="3" cx="2126" cy="1562.96" rx="17.41" ry="25.79"/><path fill="none" stroke="#010002" stroke-width="3" stroke-miterlimit="10" d="M1994.11 1606.46s3.54-30.03 54.87-75.6c0 0-1.77-11.8 15.34-23.82"/><path fill="#FFF" stroke="#010002" stroke-width="3" d="M2126 1557.33s147.66-65.43 148.03-216.8h-296.06c.37 151.37 148.03 216.8 148.03 216.8z"/><path fill="none" stroke="#010002" stroke-width="3" stroke-miterlimit="10" d="M2046.3 1340.53h22.77m-68.32 0h22.77m68.32 0h22.77"/><path fill="#A60032" stroke="#010002" stroke-width="3" d="M2000.75 1340.53v96.71s11.3 22.44 22.77 36.5v-133.21h-22.77zm45.54 0v159.43s14.25 13.96 22.78 20.7v-180.14h-22.78zm45.55 0v197.07s16.25 10.5 22.78 13.94v-211.01h-22.78z"/><path fill="none" stroke="#010002" stroke-width="3" d="M2000.75 1340.53h22.77m22.77 0h22.78m22.77 0h22.77"/><path fill="#A60032" stroke="#010002" stroke-width="3" d="M2251.26 1340.53v96.71s-11.31 22.44-22.78 36.5v-133.21h22.78zm-45.55 0v159.43s-14.24 13.96-22.78 20.7v-180.14h22.78zm-45.55 0v197.07s-16.25 10.5-22.77 13.94v-211.01h22.77z"/><path fill="none" d="m2281.98 1703.7-13.72 16.78m-17-18.63 37.8 34.94"/><path fill="#0081C6" stroke="#010002" stroke-width="3" stroke-miterlimit="10" d="m2364.72 1614.73-5.74 23.47 15.72 15.66-22.21 93.84-19.76-26.54-29.28 13.66 22.21-93.83 20.6-5.75 5.35-23.43s6.23-2.44 13.11 2.92z"/><path fill="#0081C6" stroke="#010002" stroke-width="3" stroke-miterlimit="10" d="m2369.99 1599.25-11.32 21.1 11.34 19.42-44.52 84.58-12.57-31.02-31.64 5.22 44.52-84.59 21.31.07 10.92-21.18s7.95-.01 11.96 6.4z"/><path fill="#0081C6" stroke="#010002" stroke-width="3" stroke-miterlimit="10" d="m2371.9 1605.39-30.1 38.23 6.9 21.6-61.45 71.87-5.61-33.2-31.94-2.42 61.44-71.87 20.75 5.12 31.92-40.6s8.56 4.26 8.09 11.27z"/><path fill="none" stroke="#010002" stroke-width="3" d="M1597.59 1121.82s40.31 23.34 165.86 46.68m-147.97-14.58s109.12 35.6 159.93 39.97m-116.96 0s64.01 20.09 138.97 32.77m-84.35 9.1s72.32 17.36 106.85 20.25"/><path fill="none" stroke="#010002" stroke-width="3" stroke-miterlimit="10" d="M1761.6 1269.9s61.17 12.76 76.67 14.3m-37.73 17.18s44.64 6.78 62.4 6.42m-6.94 20.71s18.05-.84 26.72-2.28m-10 31.28s15.33-4.14 24.38-9.94m-1.77 39.97s11.8-4.56 17.5-16.98m11.3 28.06s9.15-8.18 9.74-17.3m24.49 24.45s-3.43-2.96-1.08-15.8m-3.35-18.84s-1.77-3.68-1.18-9.48m-63.32-174.39s20.65 8.29 27.53 19.68c6.88 11.39 2.35 22.46 0 28.81-1.18 3.2-15.73 31.25 1.38 51.55m-28.62 22.06s.1-.1 7.38-2.39m-50.94-27.44s12.31 2.48 24.39 2.59m-41.4-32.93s14.46 1.45 28.03 1.24"/><path fill="#369443" stroke="#010002" stroke-width="3" stroke-miterlimit="10" d="M1882.88 1610.51s-.45-12.58 15.48-13.51l46.9 65.24s-1.77 4.2-23 3.73c0 0-2.25-.02-3.43 2.47-1.81 3.81-35.95-57.93-35.95-57.93z"/><path fill="none" stroke="#010002" stroke-width="3" stroke-miterlimit="10" d="M1807.62 1217.5s20.84 4.14 32.05 4.35m-49.36-39.77s25.71 7.34 44.84 9.95m42.48 15.12s-18.49 17.19 3.73 33.13c0 0-9.24 14.5 9.25 29.62m-4.92 7.15s-2.75 27.64 31.07 27.64c0 0-6.49 24.65 26.16 23.82 0 0 3.74 19.68 27.34 15.74"/><path fill="none" stroke="#010002" stroke-width="3" d="M1918.26 1560.68s-5.35 1.2-16.96 0"/><path fill="none" stroke="#010002" stroke-width="3" stroke-miterlimit="10" d="M1868.65 1575.18s-16.32-2.48-15.54 32.93m25.37-24.85s-14.75-1.86-13.76 32.52"/><path fill="none" stroke="#010002" stroke-width="3" d="M2020.91 1500.41s-7.08 1.45-12 7.05-14.35 4.55-14.35 4.55 5.11-4.14 6.88-14.5 7.48-13.46 7.48-13.46m-16.9-9.8s-7.07 1.45-11.99 7.04-14.35 4.55-14.35 4.55 5.1-4.14 6.88-14.5 7.47-13.46 7.47-13.46m7.13 56.57s-6.18 1.26-10.47 6.14c-4.3 4.89-12.54 3.98-12.54 3.98s4.47-3.62 6.01-12.66c1.55-9.04 6.53-11.75 6.53-11.75"/><path fill="#162667" stroke="#010002" stroke-width="3" stroke-miterlimit="10" d="M2274.03 1230.55s-72.46 37.9-148.03-3.1c-75.57 41-148.03 3.1-148.03 3.1v109.98h296.06v-109.98z"/><path fill="#0081C6" stroke="#010002" stroke-width="3" stroke-miterlimit="10" d="M1609.3 1515.75c7.18-2.93 12.35-5.76 12.33-13.41 0-1.83-1.02-5.87-3.06-12.12l-48.18-147.24c-2.85-8.75-5-13.95-6-15.86-2.17-4.15-6.42-5.84-12.15-8.22h61.23c-6.65 3.14-12.71 5.64-12.66 12.69.03 2.7.78 6.49 2.34 11.4l36.91 115.53 36.87-115.54c1.56-4.9 2.37-8.7 2.35-11.39-.08-7.25-6.39-9.86-12.6-12.7h59.35c-5.43 2.18-9.85 3.89-12.12 8.23-1 1.92-3.16 7.12-6.01 15.86l-48.18 147.24a75.44 75.44 0 0 0-3.05 12.26s-2.22 9.31 12.32 13.27h-59.68zM2636 1500.6v-166.7c0-2.89-.48-5.1-1.43-6.64s-5.09-5.97-11-8.36h55.18c-5.9 1.95-10.04 6.7-11 8.29-.94 1.59-1.42 3.82-1.42 6.7v166.71c0 2.99.5 5.27 1.48 6.85.98 1.6 5.04 5.46 10.94 8.3h-55.17c5.9-2.69 10.04-6.83 11-8.37.94-1.53 1.42-3.8 1.42-6.78z"/></svg>