<?xml version="1.0" encoding="UTF-8"?>
<svg width="1037px" height="357px" viewBox="0 0 1037 357" version="1.1" xmlns="http://www.w3.org/2000/svg" xmlns:xlink="http://www.w3.org/1999/xlink">
    <!-- Generator: Sketch 55.2 (78181) - https://sketchapp.com -->
    <title>logo</title>
    <desc>Created with Sketch.</desc>
    <g id="Page-1" stroke="none" stroke-width="1" fill="none" fill-rule="evenodd">
        <g id="logo" fill-rule="nonzero">
            <path d="M197.6,51.8 C197.6,83 174.2,103.6 144.6,103.6 C115.1,103.6 91.6,83 91.6,51.8 C91.6,20.5 115.1,0 144.6,0 C174.1,0 197.6,20.5 197.6,51.8 Z M120,51.8 C120,67.2 130.5,76.6 144.6,76.6 C158.6,76.6 169.1,67.2 169.1,51.8 C169.1,36.3 158.6,26.9 144.6,26.9 C130.6,26.9 120,36.3 120,51.8 Z" id="Shape" fill="#C7D317"></path>
            <path d="M288.3,37.1 C288.3,57.1 276.3,72.1 248,72.1 L236.2,72.1 L236.2,101.4 L209.2,101.4 L209.2,2.1 L248,2.1 C276.4,2.1 288.3,17.1 288.3,37.1 Z M260.5,37.1 C260.5,29.6 255.1,25.9 247.3,25.9 L236.3,25.9 L236.3,48.3 L247.3,48.3 C255.1,48.3 260.5,44.7 260.5,37.1 L260.5,37.1 Z M364,76.8 L364,101.5 L298.5,101.5 L298.5,2 L362,2 L362,26.7 L325.6,26.7 L325.6,38.5 L357.6,38.5 L357.6,62 L325.6,62 L325.6,76.7 L364,76.7 L364,76.8 Z M472.9,101.5 L451.9,101.5 L405,48 L404.7,48 L404.7,101.4 L377.7,101.4 L377.7,2 L398.7,2 L445.6,55.4 L445.9,55.4 L445.9,2 L472.9,2 L472.9,101.4 L472.9,101.5 Z M0,178.3 C0,145.3 23.8,126.5 54.7,126.5 C70.4,126.5 82.7,131.3 91.4,137.5 L77.2,160.5 C70.9791108,155.698602 63.3580351,153.064589 55.5,153 C40.9,153 28.4,161.8 28.4,178.3 C28.4,194.8 40.9,203.5 55.5,203.5 C63.3580351,203.435411 70.9791108,200.801398 77.2,196 L91.4,219.2 C82.6,225.2 70.4,230.2 54.7,230.2 C23.8,230.1 0,211.2 0,178.2 L0,178.3 Z" id="Shape" fill="#000000"></path>
            <path d="M197.6,178.3 C197.6,209.5 174.2,230.1 144.6,230.1 C115.2,230.1 91.7,209.5 91.7,178.3 C91.7,147.1 115.2,126.5 144.7,126.5 C174.2,126.5 197.7,147.1 197.7,178.3 L197.6,178.3 Z M120.1,178.3 C120.1,193.8 130.6,203.1 144.7,203.1 C158.7,203.1 169.2,193.8 169.2,178.3 C169.2,162.8 158.7,153.4 144.7,153.4 C130.7,153.4 120.1,162.8 120.1,178.3 Z" id="Shape" fill="#C7D317"></path>
            <path d="M304.4,228 L283.4,228 L236.5,174.6 L236.2,174.6 L236.2,228 L209.2,228 L209.2,128.6 L230.2,128.6 L277.2,182 L277.4,182 L277.4,128.6 L304.4,128.6 L304.4,227.9 L304.4,228 Z M391.3,153.3 L366.4,153.3 L366.4,227.9 L339.4,227.9 L339.4,153.3 L314.6,153.3 L314.6,128.6 L391.3,128.6 L391.3,153.3 Z M454,228 L428.5,191 L428.5,228 L401.5,228 L401.5,128.6 L443.9,128.6 C470.2,128.6 481.4,144 481.4,161.2 C481.4,174.4 474.7,186.2 460.1,191 L487.7,228 L454,228 Z M428.5,152.4 L428.5,173.7 L440.3,173.7 C448.5,173.7 453.4,170.3 453.4,162.9 C453.4,155.5 448.4,152.4 440.3,152.4 L428.5,152.4 Z M563.7,209.4 L529.7,209.4 L523.7,228 L493.9,228 L532.4,128.6 L561.2,128.6 L599.6,228 L569.8,228 L563.7,209.4 Z M556.9,188.1 L546.8,157 L536.5,188 L557,188 L556.9,188.1 Z M597.8,178.3 C597.8,145.3 621.6,126.5 652.4,126.5 C668.2,126.5 680.4,131.3 689.2,137.5 L675,160.5 C668.779111,155.698602 661.158035,153.064589 653.3,153 C638.7,153 626.2,161.8 626.2,178.3 C626.2,194.8 638.6,203.5 653.2,203.5 C661.092336,203.457249 668.751925,200.822069 675,196 L689.2,219.2 C680.4,225.2 668.2,230.2 652.4,230.2 C621.6,230.1 597.8,211.2 597.8,178.2 L597.8,178.3 Z M772.7,153.3 L748,153.3 L748,227.9 L721,227.9 L721,153.3 L696,153.3 L696,128.6 L772.7,128.6 L772.7,153.3 Z M810,228 L783,228 L783,128.6 L810,128.6 L810,227.9 L810,228 Z M922.3,228 L901.3,228 L854.5,174.6 L854.2,174.6 L854.2,228 L827.2,228 L827.2,128.6 L848.2,128.6 L895.1,182 L895.4,182 L895.4,128.6 L922.4,128.6 L922.4,227.9 L922.3,228 Z M1036.4,179.8 C1036.4,208.9 1019.6,230.1 988,230.1 C955.6,230.1 934,208.9 934,178.1 C934,148.6 953.9,126.4 989.4,126.4 C1005.4,126.4 1017.8,131 1029.1,139.2 L1012.7,161.4 C1005.99006,155.555298 997.398493,152.324584 988.5,152.3 C972.2,152.3 962.4,162.9 962.4,178.3 C962.4,192.7 971.2,204.3 989.2,204.3 C1002,204.3 1008.1,198.5 1009.2,191.7 L984.7,191.7 L984.7,169 L1036,169 C1036.2,172.9 1036.4,177 1036.4,179.8 Z M96,290 C96,310 84,325 55.6,325 L44,325 L44,354.2 L17,354.2 L17,254.8 L55.7,254.8 C84,254.8 96,270 96,290 Z M68.2,290 C68.2,282.4 62.8,278.7 55,278.7 L43.9,278.7 L43.9,301.1 L54.9,301.1 C62.7,301.1 68.2,297.5 68.2,289.9 L68.2,290 Z M144.2,283.3 L121.1,354.3 L91.3,354.3 L129.8,254.9 L158.6,254.9 L197.1,354.3 L167.2,354.3 L144.2,283.3 L144.2,283.3 Z M256.3,354.3 L230.7,317.3 L230.7,354.3 L203.7,354.3 L203.7,254.9 L246.2,254.9 C272.5,254.9 283.7,270.4 283.7,287.5 C283.7,300.7 277,312.5 262.4,317.4 L289.9,354.3 L256.3,354.3 L256.3,354.3 Z M230.7,278.7 L230.7,300 L242.5,300 C250.7,300 255.7,296.6 255.7,289.2 C255.7,281.8 250.7,278.7 242.5,278.7 L230.7,278.7 L230.7,278.7 Z M365.4,279.6 L340.6,279.6 L340.6,354.2 L313.6,354.2 L313.6,279.6 L288.8,279.6 L288.8,254.9 L365.4,254.9 L365.4,279.6 Z M470.8,354.3 L449.8,354.3 L402.9,300.9 L402.6,300.9 L402.6,354.3 L375.6,354.3 L375.6,254.9 L396.6,254.9 L443.5,308.3 L443.8,308.3 L443.8,254.9 L470.8,254.9 L470.8,354.3 Z M553.6,329.6 L553.6,354.3 L488,354.3 L488,254.9 L551.3,254.9 L551.3,279.6 L515,279.6 L515,291.4 L547,291.4 L547,314.8 L515,314.8 L515,329.5 L553.5,329.5 L553.6,329.6 Z M619.9,354.3 L594.3,317.3 L594.3,354.3 L567.3,354.3 L567.3,254.9 L609.8,254.9 C636,254.9 647.2,270.4 647.2,287.5 C647.2,300.7 640.6,312.5 625.9,317.4 L653.5,354.3 L619.9,354.3 L619.9,354.3 Z M594.3,278.7 L594.3,300 L606.1,300 C614.3,300 619.3,296.6 619.3,289.2 C619.3,281.8 614.3,278.7 606.1,278.7 L594.3,278.7 L594.3,278.7 Z M734.1,261.1 L722.5,285.1 C714.1,279.6 704.6,277.1 698.2,277.1 C693.9,277.1 692.2,278.3 692.2,280.9 C692.2,282.7 693.2,284.1 697.4,286.2 L717.8,296.7 C728.3,302.1 736.3,309.2 736.3,324.8 C736.3,345.3 722.6,356.300007 697.3,356.300007 C682.529574,356.305827 668.015003,352.444469 655.2,345.1 L667.6,319.3 C679.3,327.6 689,331.5 698.6,331.5 C703.9,331.5 707,330.4 707,327.1 C707,324.6 705.3,323.4 702.2,321.8 L680.5,310.8 C669.553995,305.835068 662.627914,294.816303 662.9,282.8 C662.9,265 675.3,252.7 700.2,252.7 C712.03273,252.814898 723.67516,255.691263 734.2,261.1 L734.1,261.1 Z M836.5,254.9 L836.5,354.3 L809.5,354.3 L809.5,315.6 L775.6,315.6 L775.6,354.2 L748.6,354.2 L748.6,254.8 L775.6,254.8 L775.6,291 L809.6,291 L809.6,255 L836.6,255 L836.5,254.9 Z M880.8,354.3 L853.8,354.3 L853.8,254.9 L880.8,254.9 L880.8,354.3 Z M977.2,290 C977.2,310 965.3,325 936.9,325 L925.1,325 L925.1,354.2 L898.1,354.2 L898.1,254.8 L937,254.8 C965.4,254.8 977.3,269.9 977.3,289.9 L977.2,290 Z M949.4,290 C949.4,282.4 944,278.7 936.2,278.7 L925.2,278.7 L925.2,301.1 L936.2,301.1 C944,301.1 949.4,297.5 949.4,289.9 L949.4,290 Z" id="Shape" fill="#000000"></path>
        </g>
    </g>
</svg>